%TF.GenerationSoftware,KiCad,Pcbnew,(5.1.8)-1*%
%TF.CreationDate,2021-01-16T10:33:32-08:00*%
%TF.ProjectId,spl_prototype,73706c5f-7072-46f7-946f-747970652e6b,rev?*%
%TF.SameCoordinates,Original*%
%TF.FileFunction,Copper,L2,Bot*%
%TF.FilePolarity,Positive*%
%FSLAX46Y46*%
G04 Gerber Fmt 4.6, Leading zero omitted, Abs format (unit mm)*
G04 Created by KiCad (PCBNEW (5.1.8)-1) date 2021-01-16 10:33:32*
%MOMM*%
%LPD*%
G01*
G04 APERTURE LIST*
%TA.AperFunction,ComponentPad*%
%ADD10O,1.700000X1.700000*%
%TD*%
%TA.AperFunction,ComponentPad*%
%ADD11R,1.700000X1.700000*%
%TD*%
%TA.AperFunction,ComponentPad*%
%ADD12C,0.200000*%
%TD*%
%TA.AperFunction,ComponentPad*%
%ADD13O,1.700000X2.000000*%
%TD*%
%TA.AperFunction,ViaPad*%
%ADD14C,0.800000*%
%TD*%
%TA.AperFunction,ViaPad*%
%ADD15C,0.635000*%
%TD*%
%TA.AperFunction,Conductor*%
%ADD16C,0.250000*%
%TD*%
%TA.AperFunction,Conductor*%
%ADD17C,0.635000*%
%TD*%
%TA.AperFunction,Conductor*%
%ADD18C,0.381000*%
%TD*%
%TA.AperFunction,Conductor*%
%ADD19C,0.200000*%
%TD*%
G04 APERTURE END LIST*
D10*
%TO.P,J6,2*%
%TO.N,Net-(C18-Pad2)*%
X139510000Y-22600000D03*
D11*
%TO.P,J6,1*%
%TO.N,Net-(C21-Pad2)*%
X142050000Y-22600000D03*
%TD*%
D12*
%TO.P,U7,*%
%TO.N,*%
X140260000Y-36350000D03*
X141260000Y-36350000D03*
X141260000Y-34350000D03*
X140260000Y-34350000D03*
X140760000Y-36350000D03*
X140760000Y-34350000D03*
%TD*%
D10*
%TO.P,TP2,2*%
%TO.N,/STM32SUPPLY*%
X124260000Y-54200000D03*
D11*
%TO.P,TP2,1*%
%TO.N,Net-(J3-Pad9)*%
X126800000Y-54200000D03*
%TD*%
%TO.P,TP7,1*%
%TO.N,Net-(C13-Pad1)*%
X111400000Y-36400000D03*
%TD*%
%TO.P,TP6,1*%
%TO.N,Net-(C1-Pad1)*%
X111300000Y-29200000D03*
%TD*%
%TO.P,TP5,1*%
%TO.N,Net-(TP5-Pad1)*%
X99900000Y-46200000D03*
%TD*%
%TO.P,TP4,1*%
%TO.N,Net-(TP4-Pad1)*%
X96600000Y-46300000D03*
%TD*%
%TO.P,TP3,1*%
%TO.N,Net-(TP3-Pad1)*%
X93300000Y-46300000D03*
%TD*%
D10*
%TO.P,JP1,3*%
%TO.N,/LP3905_Output*%
X121820000Y-49100000D03*
%TO.P,JP1,2*%
%TO.N,/STM32SUPPLY*%
X124360000Y-49100000D03*
D11*
%TO.P,JP1,1*%
%TO.N,+3V3*%
X126900000Y-49100000D03*
%TD*%
D10*
%TO.P,J7,4*%
%TO.N,/I2C1_SDA*%
X105480000Y-82900000D03*
%TO.P,J7,3*%
%TO.N,/I2C1_SCL*%
X108020000Y-82900000D03*
%TO.P,J7,2*%
%TO.N,GND*%
X110560000Y-82900000D03*
D11*
%TO.P,J7,1*%
%TO.N,/STM32SUPPLY*%
X113100000Y-82900000D03*
%TD*%
D10*
%TO.P,J4,6*%
%TO.N,/USART_RX*%
X106500000Y-54100000D03*
%TO.P,J4,5*%
%TO.N,/USART_TX*%
X109040000Y-54100000D03*
%TO.P,J4,4*%
%TO.N,GND*%
X111580000Y-54100000D03*
%TO.P,J4,3*%
%TO.N,/SWD_SWCLK*%
X114120000Y-54100000D03*
%TO.P,J4,2*%
%TO.N,/SWD_SWDIO*%
X116660000Y-54100000D03*
D11*
%TO.P,J4,1*%
%TO.N,/STM32SUPPLY*%
X119200000Y-54100000D03*
%TD*%
D10*
%TO.P,J3,9*%
%TO.N,Net-(J3-Pad9)*%
X131180000Y-54100000D03*
%TO.P,J3,8*%
%TO.N,GND*%
X133720000Y-54100000D03*
%TO.P,J3,7*%
%TO.N,/LoRaEN*%
X136260000Y-54100000D03*
%TO.P,J3,6*%
%TO.N,/LoRaIRQ*%
X138800000Y-54100000D03*
%TO.P,J3,5*%
%TO.N,/SPI2_SCK*%
X141340000Y-54100000D03*
%TO.P,J3,4*%
%TO.N,/SPI2_MISO*%
X143880000Y-54100000D03*
%TO.P,J3,3*%
%TO.N,/SPI2_MOSI*%
X146420000Y-54100000D03*
%TO.P,J3,2*%
%TO.N,/SPI2_SSN*%
X148960000Y-54100000D03*
D11*
%TO.P,J3,1*%
%TO.N,/LoRaRST*%
X151500000Y-54100000D03*
%TD*%
D13*
%TO.P,J2,2*%
%TO.N,+3V3*%
X129200000Y-23300000D03*
%TO.P,J2,1*%
%TO.N,GND*%
%TA.AperFunction,ComponentPad*%
G36*
G01*
X132550000Y-22550000D02*
X132550000Y-24050000D01*
G75*
G02*
X132300000Y-24300000I-250000J0D01*
G01*
X131100000Y-24300000D01*
G75*
G02*
X130850000Y-24050000I0J250000D01*
G01*
X130850000Y-22550000D01*
G75*
G02*
X131100000Y-22300000I250000J0D01*
G01*
X132300000Y-22300000D01*
G75*
G02*
X132550000Y-22550000I0J-250000D01*
G01*
G37*
%TD.AperFunction*%
%TD*%
%TO.P,J1,2*%
%TO.N,+BATT*%
X114200000Y-23500000D03*
%TO.P,J1,1*%
%TO.N,GND*%
%TA.AperFunction,ComponentPad*%
G36*
G01*
X117550000Y-22750000D02*
X117550000Y-24250000D01*
G75*
G02*
X117300000Y-24500000I-250000J0D01*
G01*
X116100000Y-24500000D01*
G75*
G02*
X115850000Y-24250000I0J250000D01*
G01*
X115850000Y-22750000D01*
G75*
G02*
X116100000Y-22500000I250000J0D01*
G01*
X117300000Y-22500000D01*
G75*
G02*
X117550000Y-22750000I0J-250000D01*
G01*
G37*
%TD.AperFunction*%
%TD*%
D14*
%TO.N,GNDA*%
X101800000Y-29500000D03*
X101800000Y-32400000D03*
X102650000Y-39700000D03*
%TO.N,GND*%
X111350000Y-58850000D03*
X136950000Y-39700000D03*
X136950000Y-38000000D03*
X105150000Y-70300000D03*
X108450000Y-62050000D03*
X133720000Y-49480000D03*
X146967500Y-32967500D03*
X142050000Y-32150000D03*
X140350000Y-31208700D03*
D15*
X137850000Y-36701200D03*
X108584996Y-73555456D03*
X138600000Y-67300000D03*
X139192000Y-71882000D03*
D14*
%TO.N,/STM32SUPPLY*%
X117750000Y-75350000D03*
X108810000Y-67690000D03*
X109050000Y-71150000D03*
X131000000Y-75250000D03*
D15*
X139050000Y-73550000D03*
X145637500Y-65437500D03*
D14*
X127800000Y-69198800D03*
%TO.N,Net-(C13-Pad2)*%
X103600000Y-35550000D03*
X103600000Y-36945010D03*
%TO.N,VSS*%
X94250000Y-32900000D03*
X99499887Y-35560000D03*
%TO.N,Net-(C18-Pad1)*%
X132100000Y-33400000D03*
X138300000Y-32500000D03*
%TO.N,Net-(C21-Pad2)*%
X145750000Y-33950000D03*
X144779990Y-32512000D03*
%TO.N,Net-(C29-Pad1)*%
X151100000Y-37300000D03*
X146550000Y-39900000D03*
X162750000Y-27850000D03*
D15*
%TO.N,/WirelessReciverOut*%
X138050000Y-34498800D03*
D14*
X148600000Y-24250000D03*
%TO.N,+BATT*%
X101150000Y-42450000D03*
X96738798Y-42438798D03*
%TO.N,/LoRaEN*%
X124700000Y-57400000D03*
X115000000Y-67700000D03*
%TO.N,/LoRaIRQ*%
X125300000Y-58200000D03*
X116000000Y-68100000D03*
%TO.N,/SPI2_MISO*%
X112400000Y-68999998D03*
%TO.N,/SPI2_MOSI*%
X111500000Y-70000000D03*
%TO.N,/SPI2_SSN*%
X132300000Y-60600000D03*
%TO.N,/LoRaRST*%
X142200000Y-51000000D03*
X129000000Y-58554990D03*
D15*
%TO.N,/USART_RX*%
X105400000Y-75100000D03*
D14*
%TO.N,/USART_TX*%
X104900000Y-73100000D03*
%TO.N,/I2C1_SDA*%
X110500000Y-65800000D03*
%TO.N,/I2C1_SCL*%
X111800000Y-65600000D03*
%TO.N,Net-(R13-Pad1)*%
X142400000Y-39800000D03*
X141300000Y-44900000D03*
%TO.N,Net-(R18-Pad1)*%
X128100000Y-44300000D03*
X143300000Y-37700000D03*
%TO.N,/MAG_RDY*%
X124900000Y-63300000D03*
X133450000Y-66150000D03*
%TO.N,/SPI1_SSN*%
X119900000Y-69200000D03*
D15*
X138850000Y-72800000D03*
D14*
%TO.N,/SPI1_MOSI*%
X112009526Y-73040248D03*
X119126000Y-74168000D03*
%TO.N,/SPI1_MISO*%
X111400000Y-72150000D03*
X120100000Y-73256191D03*
%TO.N,/SPI1_SCK*%
X111050000Y-71200000D03*
X124393217Y-72491298D03*
%TO.N,Net-(L2-Pad1)*%
X100659269Y-35675002D03*
X102108001Y-36576000D03*
%TO.N,Net-(L1-Pad1)*%
X100100000Y-24600000D03*
X99822000Y-34544000D03*
%TD*%
D16*
%TO.N,GNDA*%
X101800000Y-29500000D02*
X101800000Y-32400000D01*
X102845001Y-33445001D02*
X102845001Y-39504999D01*
X102845001Y-39504999D02*
X102650000Y-39700000D01*
X101800000Y-32400000D02*
X102845001Y-33445001D01*
D17*
%TO.N,GND*%
X111580000Y-54100000D02*
X111580000Y-58570000D01*
X111350000Y-58800000D02*
X111350000Y-58850000D01*
X111580000Y-58570000D02*
X111350000Y-58800000D01*
D16*
X136950000Y-39700000D02*
X136950000Y-38350000D01*
X136950000Y-38350000D02*
X136950000Y-38000000D01*
X105150000Y-70300000D02*
X105150000Y-65500000D01*
X108450000Y-62200000D02*
X108450000Y-62050000D01*
X105150000Y-65500000D02*
X108450000Y-62200000D01*
D17*
X133720000Y-54100000D02*
X133720000Y-49480000D01*
D16*
X146967500Y-32967500D02*
X146967500Y-31767500D01*
X146848799Y-31648799D02*
X142551201Y-31648799D01*
X146967500Y-31767500D02*
X146848799Y-31648799D01*
X142551201Y-31648799D02*
X142050000Y-32150000D01*
D18*
X131700000Y-23300000D02*
X136650000Y-23300000D01*
X136650000Y-23300000D02*
X140350000Y-27000000D01*
X140350000Y-27000000D02*
X140350000Y-31208700D01*
X133720000Y-54780000D02*
X133720000Y-54100000D01*
X132350000Y-56150000D02*
X133720000Y-54780000D01*
X123950000Y-56150000D02*
X132350000Y-56150000D01*
X121250000Y-58850000D02*
X123950000Y-56150000D01*
X111350000Y-58850000D02*
X121250000Y-58850000D01*
X141835515Y-32150000D02*
X142050000Y-32150000D01*
X137850000Y-36135515D02*
X141835515Y-32150000D01*
X137850000Y-36701200D02*
X137850000Y-36135515D01*
D16*
X105150000Y-70300000D02*
X108400000Y-73550000D01*
X108579540Y-73550000D02*
X108584996Y-73555456D01*
X108400000Y-73550000D02*
X108579540Y-73550000D01*
X138600000Y-67300000D02*
X138600000Y-71290000D01*
X138600000Y-71290000D02*
X139192000Y-71882000D01*
%TO.N,/STM32SUPPLY*%
X109050000Y-67930000D02*
X109050000Y-71150000D01*
X108810000Y-67690000D02*
X109050000Y-67930000D01*
X137650000Y-76400000D02*
X137700000Y-76350000D01*
X139050000Y-73900000D02*
X139050000Y-73550000D01*
X132100000Y-76350000D02*
X137700000Y-76350000D01*
X131000000Y-75250000D02*
X132100000Y-76350000D01*
X137700000Y-75300000D02*
X139050000Y-73950000D01*
X137700000Y-76350000D02*
X137700000Y-75300000D01*
X139050000Y-73550000D02*
X145600000Y-67000000D01*
X145600000Y-65475000D02*
X145637500Y-65437500D01*
X145600000Y-67000000D02*
X145600000Y-65475000D01*
D18*
X127800000Y-69198800D02*
X127800000Y-72050000D01*
X127800000Y-72050000D02*
X131000000Y-75250000D01*
D16*
X117850000Y-75250000D02*
X117750000Y-75350000D01*
X123050000Y-75250000D02*
X117850000Y-75250000D01*
X125300000Y-73000000D02*
X123050000Y-75250000D01*
X127800000Y-70600000D02*
X125400000Y-73000000D01*
X125400000Y-73000000D02*
X125300000Y-73000000D01*
X127800000Y-69198800D02*
X127800000Y-70600000D01*
%TO.N,Net-(C13-Pad2)*%
X103600000Y-37200000D02*
X103600000Y-36945010D01*
X103600000Y-35550000D02*
X103600000Y-36945010D01*
%TO.N,VSS*%
X94250000Y-32900000D02*
X96839887Y-32900000D01*
X96839887Y-32900000D02*
X99499887Y-35560000D01*
%TO.N,Net-(C18-Pad1)*%
X132100000Y-33400000D02*
X137400000Y-33400000D01*
X137400000Y-33400000D02*
X138300000Y-32500000D01*
%TO.N,Net-(C21-Pad2)*%
X145750000Y-33950000D02*
X144779990Y-32979990D01*
X144779990Y-32979990D02*
X144779990Y-32512000D01*
%TO.N,Net-(C29-Pad1)*%
X151100000Y-37300000D02*
X149250000Y-37300000D01*
X146650000Y-39900000D02*
X146550000Y-39900000D01*
X149250000Y-37300000D02*
X146650000Y-39900000D01*
X162750000Y-27850000D02*
X152150000Y-27850000D01*
X151100000Y-28900000D02*
X151100000Y-28950000D01*
X152150000Y-27850000D02*
X151100000Y-28900000D01*
X151100000Y-28950000D02*
X151100000Y-37300000D01*
%TO.N,/WirelessReciverOut*%
X148500000Y-24150000D02*
X148600000Y-24250000D01*
X148500000Y-24220000D02*
X148500000Y-24150000D01*
X138221200Y-34498800D02*
X148500000Y-24220000D01*
X138050000Y-34498800D02*
X138221200Y-34498800D01*
%TO.N,+BATT*%
X114200000Y-29400000D02*
X101150000Y-42450000D01*
X114200000Y-23500000D02*
X114200000Y-29400000D01*
X101150000Y-42450000D02*
X96750000Y-42450000D01*
X96750000Y-42450000D02*
X96738798Y-42438798D01*
%TO.N,/LoRaEN*%
X124700000Y-57400000D02*
X115000000Y-67100000D01*
X115000000Y-67100000D02*
X115000000Y-67700000D01*
%TO.N,/LoRaIRQ*%
X125300000Y-58200000D02*
X116000000Y-67500000D01*
X116000000Y-67500000D02*
X116000000Y-68100000D01*
%TO.N,/SPI2_MISO*%
X138780000Y-59200000D02*
X126700000Y-59200000D01*
X126700000Y-59200000D02*
X116500003Y-69399997D01*
X143880000Y-54100000D02*
X138780000Y-59200000D01*
X112799999Y-69399997D02*
X112400000Y-68999998D01*
X116500003Y-69399997D02*
X112799999Y-69399997D01*
%TO.N,/SPI2_MOSI*%
X116900000Y-70000000D02*
X111500000Y-70000000D01*
X127073790Y-59826210D02*
X116900000Y-70000000D01*
X139709568Y-59826210D02*
X127073790Y-59826210D01*
X143185778Y-56350000D02*
X139709568Y-59826210D01*
X145350000Y-56350000D02*
X143185778Y-56350000D01*
X146420000Y-55280000D02*
X145350000Y-56350000D01*
X146420000Y-54100000D02*
X146420000Y-55280000D01*
%TO.N,/SPI2_SSN*%
X142460000Y-60600000D02*
X132300000Y-60600000D01*
X148960000Y-54100000D02*
X142460000Y-60600000D01*
%TO.N,/LoRaRST*%
X133425612Y-58554990D02*
X129000000Y-58554990D01*
X137355001Y-54625601D02*
X133425612Y-58554990D01*
X137355001Y-53989221D02*
X137355001Y-54625601D01*
X142200000Y-51000000D02*
X140344222Y-51000000D01*
X140344222Y-51000000D02*
X137355001Y-53989221D01*
%TO.N,/USART_RX*%
X106500000Y-54100000D02*
X106900000Y-54100000D01*
X106500000Y-54100000D02*
X103900000Y-56700000D01*
X103900000Y-73600000D02*
X105400000Y-75100000D01*
X103900000Y-56700000D02*
X103900000Y-73600000D01*
%TO.N,/USART_TX*%
X109040000Y-54100000D02*
X104400000Y-58740000D01*
X104400000Y-72600000D02*
X104900000Y-73100000D01*
X104400000Y-58740000D02*
X104400000Y-72600000D01*
%TO.N,/I2C1_SDA*%
X110500000Y-65900000D02*
X110500000Y-65800000D01*
X109700000Y-66700000D02*
X110500000Y-65900000D01*
X109700000Y-78680000D02*
X109700000Y-66700000D01*
X105480000Y-82900000D02*
X109700000Y-78680000D01*
%TO.N,/I2C1_SCL*%
X111800000Y-67610222D02*
X111800000Y-65600000D01*
X110300000Y-69110222D02*
X111800000Y-67610222D01*
X110300000Y-80620000D02*
X110300000Y-69110222D01*
X108020000Y-82900000D02*
X110300000Y-80620000D01*
%TO.N,Net-(R13-Pad1)*%
X141300000Y-40900000D02*
X141300000Y-44900000D01*
X142400000Y-39800000D02*
X141300000Y-40900000D01*
%TO.N,Net-(R18-Pad1)*%
X142950000Y-37350000D02*
X143300000Y-37700000D01*
D19*
X135050000Y-37350000D02*
X142950000Y-37350000D01*
D16*
X128100000Y-44300000D02*
X135050000Y-37350000D01*
%TO.N,/MAG_RDY*%
X124900000Y-63300000D02*
X130600000Y-63300000D01*
X130600000Y-63300000D02*
X133450000Y-66150000D01*
%TO.N,/SPI1_SSN*%
X134350000Y-68300000D02*
X138850000Y-72800000D01*
X120800000Y-68300000D02*
X134350000Y-68300000D01*
X119900000Y-69200000D02*
X120800000Y-68300000D01*
%TO.N,/SPI1_MOSI*%
X112009526Y-73040248D02*
X113137278Y-74168000D01*
X113137278Y-74168000D02*
X119126000Y-74168000D01*
%TO.N,/SPI1_MISO*%
X111400000Y-72150000D02*
X112900000Y-72150000D01*
X112900000Y-72150000D02*
X114006191Y-73256191D01*
X114006191Y-73256191D02*
X120100000Y-73256191D01*
%TO.N,/SPI1_SCK*%
X111050000Y-71200000D02*
X123101919Y-71200000D01*
X123101919Y-71200000D02*
X123993218Y-72091299D01*
X123993218Y-72091299D02*
X124393217Y-72491298D01*
%TO.N,Net-(L2-Pad1)*%
X100659269Y-35675002D02*
X101560267Y-36576000D01*
X101560267Y-36576000D02*
X102108001Y-36576000D01*
%TO.N,Net-(L1-Pad1)*%
X100100000Y-24600000D02*
X100100000Y-34266000D01*
X100100000Y-34266000D02*
X99822000Y-34544000D01*
%TD*%
M02*
