M48
; DRILL file {KiCad (5.1.8)-1} date 02/01/21 14:36:34
; FORMAT={-:-/ absolute / inch / decimal}
; #@! TF.CreationDate,2021-02-01T14:36:34-08:00
; #@! TF.GenerationSoftware,Kicad,Pcbnew,(5.1.8)-1
FMAT,2
INCH
T1C0.0079
T2C0.0157
T3C0.0160
T4C0.0394
T5C0.0787
%
G90
G05
T1
X5.0339Y-1.3839
X5.0339Y-1.4626
X5.0535Y-1.3839
X5.0535Y-1.4626
X5.0732Y-1.3839
X5.0732Y-1.4626
T2
X4.1299Y-2.878
X4.1398Y-2.7677
X4.2697Y-2.4429
X4.2839Y-2.665
X4.3504Y-2.5906
X4.372Y-2.8031
X4.3839Y-2.3169
X4.3858Y-2.8406
X4.3898Y-2.7559
X4.4016Y-2.5827
X4.4098Y-2.8756
X4.4252Y-2.7165
X4.5276Y-2.6654
X4.5669Y-2.6811
X4.6358Y-2.9665
X4.69Y-2.92
X4.7126Y-1.3465
X4.7205Y-2.7244
X4.7283Y-2.8841
X4.8268Y-1.5906
X4.8974Y-2.854
X4.9035Y-1.5528
X4.9041Y-1.6051
X4.9094Y-2.2598
X4.9173Y-2.4921
X4.9331Y-2.2913
X4.9567Y-1.311
X5.0374Y-1.2602
X5.0748Y-1.7992
X5.1043Y-1.2972
X5.1181Y-1.5984
X5.1575Y-2.9626
X5.1732Y-1.5394
X5.2087Y-2.3858
X5.2118Y-1.3115
X5.25Y-1.3681
X5.2539Y-2.6043
X5.2646Y-1.948
X5.2815Y-1.6024
X5.2979Y-1.3294
X5.3622Y-0.9862
X5.4606Y-1.5
X5.5984Y-2.0079
X5.9193Y-1.128
T3
X3.7992Y-1.1929
X3.878Y-1.7441
X3.9291Y-1.5157
X4.1496Y-2.9567
X4.2338Y-1.2889
X4.275Y-2.8959
X4.2933Y-2.8012
X4.5748Y-1.7835
X4.7669Y-3.3768
X4.9223Y-1.4931
X4.9252Y-1.3898
X5.0354Y-2.7362
X5.0787Y-2.3053
X5.4567Y-2.6496
X5.4665Y-2.8661
X5.4744Y-2.8957
X5.48Y-2.83
X5.7338Y-2.5763
T4
X5.0043Y-0.9213
X5.1043Y-0.9213
X4.1417Y-0.937
X4.2402Y-0.937
X4.0535Y-1.9331
X4.1535Y-1.9331
X4.6024Y-0.9252
X4.7008Y-0.9252
X4.1528Y-3.2638
X4.2528Y-3.2638
X4.3528Y-3.2638
X4.4528Y-3.2638
X4.1929Y-2.1299
X4.2929Y-2.1299
X4.3929Y-2.1299
X4.4929Y-2.1299
X4.5929Y-2.1299
X4.6929Y-2.1299
X3.839Y-0.9268
X3.939Y-0.9268
X5.1646Y-2.1299
X5.2646Y-2.1299
X5.3646Y-2.1299
X5.4646Y-2.1299
X5.5646Y-2.1299
X5.6646Y-2.1299
X5.7646Y-2.1299
X5.8646Y-2.1299
X5.9646Y-2.1299
X4.7961Y-1.9331
X4.8961Y-1.9331
X4.9961Y-1.9331
T5
X3.5433Y-0.9449
X3.5433Y-3.3465
X6.063Y-0.9449
X6.063Y-3.3465
T0
M30
