%TF.GenerationSoftware,KiCad,Pcbnew,(5.1.8)-1*%
%TF.CreationDate,2021-01-16T10:33:32-08:00*%
%TF.ProjectId,spl_prototype,73706c5f-7072-46f7-946f-747970652e6b,rev?*%
%TF.SameCoordinates,Original*%
%TF.FileFunction,Copper,L1,Top*%
%TF.FilePolarity,Positive*%
%FSLAX46Y46*%
G04 Gerber Fmt 4.6, Leading zero omitted, Abs format (unit mm)*
G04 Created by KiCad (PCBNEW (5.1.8)-1) date 2021-01-16 10:33:32*
%MOMM*%
%LPD*%
G01*
G04 APERTURE LIST*
%TA.AperFunction,SMDPad,CuDef*%
%ADD10R,2.000000X2.000000*%
%TD*%
%TA.AperFunction,ComponentPad*%
%ADD11O,1.700000X1.700000*%
%TD*%
%TA.AperFunction,ComponentPad*%
%ADD12R,1.700000X1.700000*%
%TD*%
%TA.AperFunction,ComponentPad*%
%ADD13C,0.200000*%
%TD*%
%TA.AperFunction,SMDPad,CuDef*%
%ADD14C,0.100000*%
%TD*%
%TA.AperFunction,SMDPad,CuDef*%
%ADD15R,0.240000X0.600000*%
%TD*%
%TA.AperFunction,SMDPad,CuDef*%
%ADD16R,0.600000X0.240000*%
%TD*%
%TA.AperFunction,SMDPad,CuDef*%
%ADD17R,0.200000X0.450000*%
%TD*%
%TA.AperFunction,SMDPad,CuDef*%
%ADD18R,0.450000X0.200000*%
%TD*%
%TA.AperFunction,SMDPad,CuDef*%
%ADD19R,2.600000X2.600000*%
%TD*%
%TA.AperFunction,SMDPad,CuDef*%
%ADD20R,0.900000X1.700000*%
%TD*%
%TA.AperFunction,SMDPad,CuDef*%
%ADD21R,2.000000X4.500000*%
%TD*%
%TA.AperFunction,SMDPad,CuDef*%
%ADD22R,0.900000X1.000000*%
%TD*%
%TA.AperFunction,SMDPad,CuDef*%
%ADD23R,2.400000X1.950000*%
%TD*%
%TA.AperFunction,SMDPad,CuDef*%
%ADD24R,3.000000X2.600000*%
%TD*%
%TA.AperFunction,SMDPad,CuDef*%
%ADD25R,0.250000X0.600000*%
%TD*%
%TA.AperFunction,ComponentPad*%
%ADD26O,1.700000X2.000000*%
%TD*%
%TA.AperFunction,ViaPad*%
%ADD27C,0.800000*%
%TD*%
%TA.AperFunction,ViaPad*%
%ADD28C,0.635000*%
%TD*%
%TA.AperFunction,Conductor*%
%ADD29C,0.250000*%
%TD*%
%TA.AperFunction,Conductor*%
%ADD30C,0.381000*%
%TD*%
%TA.AperFunction,Conductor*%
%ADD31C,0.635000*%
%TD*%
%TA.AperFunction,Conductor*%
%ADD32C,0.200000*%
%TD*%
G04 APERTURE END LIST*
D10*
%TO.P,U5,2*%
%TO.N,Net-(R8-Pad1)*%
X148700000Y-72150000D03*
%TO.P,U5,1*%
%TO.N,Net-(R9-Pad1)*%
X148700000Y-66850000D03*
%TD*%
%TO.P,U4,2*%
%TO.N,Net-(R7-Pad1)*%
X139450000Y-58600000D03*
%TO.P,U4,1*%
%TO.N,Net-(R6-Pad1)*%
X144750000Y-58600000D03*
%TD*%
D11*
%TO.P,J6,2*%
%TO.N,Net-(C18-Pad2)*%
X139510000Y-22600000D03*
D12*
%TO.P,J6,1*%
%TO.N,Net-(C21-Pad2)*%
X142050000Y-22600000D03*
%TD*%
D13*
%TO.P,U7,*%
%TO.N,*%
X140260000Y-36350000D03*
X141260000Y-36350000D03*
X141260000Y-34350000D03*
X140260000Y-34350000D03*
X140760000Y-36350000D03*
X140760000Y-34350000D03*
%TA.AperFunction,SMDPad,CuDef*%
D14*
G36*
X141135000Y-36880000D02*
G01*
X141135000Y-37650000D01*
X140385000Y-37650000D01*
X140385000Y-36880000D01*
X139730000Y-36880000D01*
X139730000Y-33820000D01*
X140385000Y-33820000D01*
X140385000Y-33050000D01*
X141135000Y-33050000D01*
X141135000Y-33820000D01*
X141790000Y-33820000D01*
X141790000Y-36880000D01*
X141135000Y-36880000D01*
G37*
%TD.AperFunction*%
D15*
%TO.P,U7,11*%
%TO.N,Net-(R16-Pad2)*%
X141510000Y-37350000D03*
%TO.P,U7,10*%
%TO.N,GND*%
X140010000Y-37350000D03*
%TO.P,U7,20*%
X141510000Y-33350000D03*
%TO.P,U7,1*%
X140010000Y-33350000D03*
D16*
%TO.P,U7,9*%
X139110000Y-37100000D03*
%TO.P,U7,12*%
%TO.N,Net-(R13-Pad1)*%
X142410000Y-37100000D03*
%TO.P,U7,8*%
%TO.N,Net-(U7-Pad8)*%
X139110000Y-36600000D03*
%TO.P,U7,13*%
%TO.N,Net-(R18-Pad1)*%
X142410000Y-36600000D03*
%TO.P,U7,7*%
%TO.N,/CHG_LED*%
X139110000Y-36100000D03*
%TO.P,U7,14*%
%TO.N,Net-(C29-Pad1)*%
X142410000Y-36100000D03*
%TO.P,U7,6*%
%TO.N,Net-(C23-Pad1)*%
X139110000Y-35600000D03*
%TO.P,U7,15*%
%TO.N,Net-(C28-Pad1)*%
X142410000Y-35600000D03*
%TO.P,U7,5*%
%TO.N,Net-(C24-Pad1)*%
X139110000Y-35100000D03*
%TO.P,U7,16*%
%TO.N,Net-(C27-Pad1)*%
X142410000Y-35100000D03*
%TO.P,U7,4*%
%TO.N,/WirelessReciverOut*%
X139110000Y-34600000D03*
%TO.P,U7,17*%
%TO.N,Net-(C26-Pad1)*%
X142410000Y-34600000D03*
%TO.P,U7,3*%
%TO.N,Net-(C25-Pad1)*%
X139110000Y-34100000D03*
%TO.P,U7,18*%
%TO.N,/VRECT*%
X142410000Y-34100000D03*
%TO.P,U7,2*%
%TO.N,Net-(C18-Pad1)*%
X139110000Y-33600000D03*
%TO.P,U7,19*%
%TO.N,Net-(C21-Pad2)*%
X142410000Y-33600000D03*
%TD*%
D17*
%TO.P,U3,1*%
%TO.N,/SPI1_MOSI*%
X140300000Y-70775000D03*
%TO.P,U3,2*%
%TO.N,GND*%
X140700000Y-70775000D03*
%TO.P,U3,3*%
%TO.N,/SPI1_SSN*%
X141100000Y-70775000D03*
%TO.P,U3,4*%
%TO.N,/STM32SUPPLY*%
X141500000Y-70775000D03*
%TO.P,U3,5*%
%TO.N,GND*%
X141900000Y-70775000D03*
%TO.P,U3,6*%
%TO.N,Net-(R10-Pad2)*%
X142300000Y-70775000D03*
%TO.P,U3,7*%
%TO.N,Net-(R10-Pad1)*%
X142700000Y-70775000D03*
D18*
%TO.P,U3,8*%
%TO.N,Net-(R11-Pad1)*%
X143275000Y-70200000D03*
%TO.P,U3,9*%
%TO.N,Net-(R11-Pad2)*%
X143275000Y-69800000D03*
%TO.P,U3,10*%
%TO.N,Net-(R8-Pad2)*%
X143275000Y-69400000D03*
%TO.P,U3,11*%
%TO.N,Net-(R8-Pad1)*%
X143275000Y-69000000D03*
%TO.P,U3,12*%
%TO.N,Net-(R9-Pad1)*%
X143275000Y-68600000D03*
%TO.P,U3,13*%
%TO.N,Net-(R9-Pad2)*%
X143275000Y-68200000D03*
%TO.P,U3,14*%
%TO.N,/STM32SUPPLY*%
X143275000Y-67800000D03*
D17*
%TO.P,U3,15*%
%TO.N,Net-(R6-Pad2)*%
X142700000Y-67225000D03*
%TO.P,U3,16*%
%TO.N,Net-(R6-Pad1)*%
X142300000Y-67225000D03*
%TO.P,U3,17*%
%TO.N,Net-(R7-Pad1)*%
X141900000Y-67225000D03*
%TO.P,U3,18*%
%TO.N,Net-(R7-Pad2)*%
X141500000Y-67225000D03*
%TO.P,U3,19*%
%TO.N,GND*%
X141100000Y-67225000D03*
%TO.P,U3,20*%
%TO.N,Net-(U3-Pad20)*%
X140700000Y-67225000D03*
%TO.P,U3,21*%
%TO.N,Net-(U3-Pad21)*%
X140300000Y-67225000D03*
D18*
%TO.P,U3,22*%
%TO.N,GND*%
X139725000Y-67800000D03*
%TO.P,U3,23*%
%TO.N,/MAG_RDY*%
X139725000Y-68200000D03*
%TO.P,U3,24*%
%TO.N,Net-(U3-Pad24)*%
X139725000Y-68600000D03*
%TO.P,U3,25*%
%TO.N,Net-(R5-Pad1)*%
X139725000Y-69000000D03*
%TO.P,U3,26*%
%TO.N,/STM32SUPPLY*%
X139725000Y-69400000D03*
%TO.P,U3,27*%
%TO.N,/SPI1_SCK*%
X139725000Y-69800000D03*
%TO.P,U3,28*%
%TO.N,/SPI1_MISO*%
X139725000Y-70200000D03*
D19*
%TO.P,U3,*%
%TO.N,*%
X141500000Y-69000000D03*
%TD*%
D11*
%TO.P,TP2,2*%
%TO.N,/STM32SUPPLY*%
X124260000Y-54200000D03*
D12*
%TO.P,TP2,1*%
%TO.N,Net-(J3-Pad9)*%
X126800000Y-54200000D03*
%TD*%
D20*
%TO.P,SW1,2*%
%TO.N,Net-(C12-Pad1)*%
X94000000Y-82900000D03*
%TO.P,SW1,1*%
%TO.N,GND*%
X90600000Y-82900000D03*
%TD*%
D21*
%TO.P,Y1,2*%
%TO.N,Net-(C11-Pad1)*%
X97320000Y-72240000D03*
%TO.P,Y1,1*%
%TO.N,Net-(C10-Pad1)*%
X97320000Y-63740000D03*
%TD*%
D22*
%TO.P,L2,1*%
%TO.N,Net-(L2-Pad1)*%
X106750000Y-36300000D03*
%TO.P,L2,2*%
%TO.N,Net-(C13-Pad1)*%
X108450000Y-36300000D03*
%TD*%
%TO.P,L1,1*%
%TO.N,Net-(L1-Pad1)*%
X101150000Y-23300000D03*
%TO.P,L1,2*%
%TO.N,Net-(C1-Pad1)*%
X102850000Y-23300000D03*
%TD*%
D23*
%TO.P,U6,2*%
%TO.N,Net-(R10-Pad1)*%
X139850000Y-80200000D03*
%TO.P,U6,1*%
%TO.N,Net-(R11-Pad1)*%
X142650000Y-80200000D03*
%TD*%
D24*
%TO.P,U2,15*%
%TO.N,Net-(U2-Pad15)*%
X99350000Y-39340000D03*
D25*
%TO.P,U2,7*%
%TO.N,+BATT*%
X100850000Y-41240000D03*
%TO.P,U2,8*%
%TO.N,Net-(C13-Pad2)*%
X100850000Y-37440000D03*
%TO.P,U2,6*%
%TO.N,GND*%
X100350000Y-41240000D03*
%TO.P,U2,9*%
%TO.N,GNDA*%
X100350000Y-37440000D03*
%TO.P,U2,5*%
%TO.N,Net-(TP5-Pad1)*%
X99850000Y-41240000D03*
%TO.P,U2,10*%
%TO.N,Net-(L2-Pad1)*%
X99850000Y-37440000D03*
%TO.P,U2,4*%
%TO.N,Net-(TP4-Pad1)*%
X99350000Y-41240000D03*
%TO.P,U2,11*%
%TO.N,VSS*%
X99350000Y-37440000D03*
%TO.P,U2,3*%
%TO.N,Net-(TP3-Pad1)*%
X98850000Y-41240000D03*
%TO.P,U2,12*%
%TO.N,Net-(L1-Pad1)*%
X98850000Y-37440000D03*
%TO.P,U2,2*%
%TO.N,GND*%
X98350000Y-41240000D03*
%TO.P,U2,13*%
%TO.N,GNDA*%
X98350000Y-37440000D03*
%TO.P,U2,1*%
%TO.N,+BATT*%
X97850000Y-41240000D03*
%TO.P,U2,14*%
%TO.N,Net-(C1-Pad2)*%
X97850000Y-37440000D03*
%TD*%
%TO.P,U1,64*%
%TO.N,/STM32SUPPLY*%
%TA.AperFunction,SMDPad,CuDef*%
G36*
G01*
X108660000Y-64285000D02*
X108660000Y-62885000D01*
G75*
G02*
X108735000Y-62810000I75000J0D01*
G01*
X108885000Y-62810000D01*
G75*
G02*
X108960000Y-62885000I0J-75000D01*
G01*
X108960000Y-64285000D01*
G75*
G02*
X108885000Y-64360000I-75000J0D01*
G01*
X108735000Y-64360000D01*
G75*
G02*
X108660000Y-64285000I0J75000D01*
G01*
G37*
%TD.AperFunction*%
%TO.P,U1,63*%
%TO.N,GND*%
%TA.AperFunction,SMDPad,CuDef*%
G36*
G01*
X109160000Y-64285000D02*
X109160000Y-62885000D01*
G75*
G02*
X109235000Y-62810000I75000J0D01*
G01*
X109385000Y-62810000D01*
G75*
G02*
X109460000Y-62885000I0J-75000D01*
G01*
X109460000Y-64285000D01*
G75*
G02*
X109385000Y-64360000I-75000J0D01*
G01*
X109235000Y-64360000D01*
G75*
G02*
X109160000Y-64285000I0J75000D01*
G01*
G37*
%TD.AperFunction*%
%TO.P,U1,62*%
%TO.N,Net-(U1-Pad62)*%
%TA.AperFunction,SMDPad,CuDef*%
G36*
G01*
X109660000Y-64285000D02*
X109660000Y-62885000D01*
G75*
G02*
X109735000Y-62810000I75000J0D01*
G01*
X109885000Y-62810000D01*
G75*
G02*
X109960000Y-62885000I0J-75000D01*
G01*
X109960000Y-64285000D01*
G75*
G02*
X109885000Y-64360000I-75000J0D01*
G01*
X109735000Y-64360000D01*
G75*
G02*
X109660000Y-64285000I0J75000D01*
G01*
G37*
%TD.AperFunction*%
%TO.P,U1,61*%
%TO.N,Net-(U1-Pad61)*%
%TA.AperFunction,SMDPad,CuDef*%
G36*
G01*
X110160000Y-64285000D02*
X110160000Y-62885000D01*
G75*
G02*
X110235000Y-62810000I75000J0D01*
G01*
X110385000Y-62810000D01*
G75*
G02*
X110460000Y-62885000I0J-75000D01*
G01*
X110460000Y-64285000D01*
G75*
G02*
X110385000Y-64360000I-75000J0D01*
G01*
X110235000Y-64360000D01*
G75*
G02*
X110160000Y-64285000I0J75000D01*
G01*
G37*
%TD.AperFunction*%
%TO.P,U1,60*%
%TO.N,Net-(R3-Pad1)*%
%TA.AperFunction,SMDPad,CuDef*%
G36*
G01*
X110660000Y-64285000D02*
X110660000Y-62885000D01*
G75*
G02*
X110735000Y-62810000I75000J0D01*
G01*
X110885000Y-62810000D01*
G75*
G02*
X110960000Y-62885000I0J-75000D01*
G01*
X110960000Y-64285000D01*
G75*
G02*
X110885000Y-64360000I-75000J0D01*
G01*
X110735000Y-64360000D01*
G75*
G02*
X110660000Y-64285000I0J75000D01*
G01*
G37*
%TD.AperFunction*%
%TO.P,U1,59*%
%TO.N,/I2C1_SDA*%
%TA.AperFunction,SMDPad,CuDef*%
G36*
G01*
X111160000Y-64285000D02*
X111160000Y-62885000D01*
G75*
G02*
X111235000Y-62810000I75000J0D01*
G01*
X111385000Y-62810000D01*
G75*
G02*
X111460000Y-62885000I0J-75000D01*
G01*
X111460000Y-64285000D01*
G75*
G02*
X111385000Y-64360000I-75000J0D01*
G01*
X111235000Y-64360000D01*
G75*
G02*
X111160000Y-64285000I0J75000D01*
G01*
G37*
%TD.AperFunction*%
%TO.P,U1,58*%
%TO.N,/I2C1_SCL*%
%TA.AperFunction,SMDPad,CuDef*%
G36*
G01*
X111660000Y-64285000D02*
X111660000Y-62885000D01*
G75*
G02*
X111735000Y-62810000I75000J0D01*
G01*
X111885000Y-62810000D01*
G75*
G02*
X111960000Y-62885000I0J-75000D01*
G01*
X111960000Y-64285000D01*
G75*
G02*
X111885000Y-64360000I-75000J0D01*
G01*
X111735000Y-64360000D01*
G75*
G02*
X111660000Y-64285000I0J75000D01*
G01*
G37*
%TD.AperFunction*%
%TO.P,U1,57*%
%TO.N,Net-(U1-Pad57)*%
%TA.AperFunction,SMDPad,CuDef*%
G36*
G01*
X112160000Y-64285000D02*
X112160000Y-62885000D01*
G75*
G02*
X112235000Y-62810000I75000J0D01*
G01*
X112385000Y-62810000D01*
G75*
G02*
X112460000Y-62885000I0J-75000D01*
G01*
X112460000Y-64285000D01*
G75*
G02*
X112385000Y-64360000I-75000J0D01*
G01*
X112235000Y-64360000D01*
G75*
G02*
X112160000Y-64285000I0J75000D01*
G01*
G37*
%TD.AperFunction*%
%TO.P,U1,56*%
%TO.N,Net-(U1-Pad56)*%
%TA.AperFunction,SMDPad,CuDef*%
G36*
G01*
X112660000Y-64285000D02*
X112660000Y-62885000D01*
G75*
G02*
X112735000Y-62810000I75000J0D01*
G01*
X112885000Y-62810000D01*
G75*
G02*
X112960000Y-62885000I0J-75000D01*
G01*
X112960000Y-64285000D01*
G75*
G02*
X112885000Y-64360000I-75000J0D01*
G01*
X112735000Y-64360000D01*
G75*
G02*
X112660000Y-64285000I0J75000D01*
G01*
G37*
%TD.AperFunction*%
%TO.P,U1,55*%
%TO.N,Net-(U1-Pad55)*%
%TA.AperFunction,SMDPad,CuDef*%
G36*
G01*
X113160000Y-64285000D02*
X113160000Y-62885000D01*
G75*
G02*
X113235000Y-62810000I75000J0D01*
G01*
X113385000Y-62810000D01*
G75*
G02*
X113460000Y-62885000I0J-75000D01*
G01*
X113460000Y-64285000D01*
G75*
G02*
X113385000Y-64360000I-75000J0D01*
G01*
X113235000Y-64360000D01*
G75*
G02*
X113160000Y-64285000I0J75000D01*
G01*
G37*
%TD.AperFunction*%
%TO.P,U1,54*%
%TO.N,Net-(U1-Pad54)*%
%TA.AperFunction,SMDPad,CuDef*%
G36*
G01*
X113660000Y-64285000D02*
X113660000Y-62885000D01*
G75*
G02*
X113735000Y-62810000I75000J0D01*
G01*
X113885000Y-62810000D01*
G75*
G02*
X113960000Y-62885000I0J-75000D01*
G01*
X113960000Y-64285000D01*
G75*
G02*
X113885000Y-64360000I-75000J0D01*
G01*
X113735000Y-64360000D01*
G75*
G02*
X113660000Y-64285000I0J75000D01*
G01*
G37*
%TD.AperFunction*%
%TO.P,U1,53*%
%TO.N,/USER_LED2*%
%TA.AperFunction,SMDPad,CuDef*%
G36*
G01*
X114160000Y-64285000D02*
X114160000Y-62885000D01*
G75*
G02*
X114235000Y-62810000I75000J0D01*
G01*
X114385000Y-62810000D01*
G75*
G02*
X114460000Y-62885000I0J-75000D01*
G01*
X114460000Y-64285000D01*
G75*
G02*
X114385000Y-64360000I-75000J0D01*
G01*
X114235000Y-64360000D01*
G75*
G02*
X114160000Y-64285000I0J75000D01*
G01*
G37*
%TD.AperFunction*%
%TO.P,U1,52*%
%TO.N,/USER_LED1*%
%TA.AperFunction,SMDPad,CuDef*%
G36*
G01*
X114660000Y-64285000D02*
X114660000Y-62885000D01*
G75*
G02*
X114735000Y-62810000I75000J0D01*
G01*
X114885000Y-62810000D01*
G75*
G02*
X114960000Y-62885000I0J-75000D01*
G01*
X114960000Y-64285000D01*
G75*
G02*
X114885000Y-64360000I-75000J0D01*
G01*
X114735000Y-64360000D01*
G75*
G02*
X114660000Y-64285000I0J75000D01*
G01*
G37*
%TD.AperFunction*%
%TO.P,U1,51*%
%TO.N,Net-(U1-Pad51)*%
%TA.AperFunction,SMDPad,CuDef*%
G36*
G01*
X115160000Y-64285000D02*
X115160000Y-62885000D01*
G75*
G02*
X115235000Y-62810000I75000J0D01*
G01*
X115385000Y-62810000D01*
G75*
G02*
X115460000Y-62885000I0J-75000D01*
G01*
X115460000Y-64285000D01*
G75*
G02*
X115385000Y-64360000I-75000J0D01*
G01*
X115235000Y-64360000D01*
G75*
G02*
X115160000Y-64285000I0J75000D01*
G01*
G37*
%TD.AperFunction*%
%TO.P,U1,50*%
%TO.N,Net-(U1-Pad50)*%
%TA.AperFunction,SMDPad,CuDef*%
G36*
G01*
X115660000Y-64285000D02*
X115660000Y-62885000D01*
G75*
G02*
X115735000Y-62810000I75000J0D01*
G01*
X115885000Y-62810000D01*
G75*
G02*
X115960000Y-62885000I0J-75000D01*
G01*
X115960000Y-64285000D01*
G75*
G02*
X115885000Y-64360000I-75000J0D01*
G01*
X115735000Y-64360000D01*
G75*
G02*
X115660000Y-64285000I0J75000D01*
G01*
G37*
%TD.AperFunction*%
%TO.P,U1,49*%
%TO.N,/SWD_SWCLK*%
%TA.AperFunction,SMDPad,CuDef*%
G36*
G01*
X116160000Y-64285000D02*
X116160000Y-62885000D01*
G75*
G02*
X116235000Y-62810000I75000J0D01*
G01*
X116385000Y-62810000D01*
G75*
G02*
X116460000Y-62885000I0J-75000D01*
G01*
X116460000Y-64285000D01*
G75*
G02*
X116385000Y-64360000I-75000J0D01*
G01*
X116235000Y-64360000D01*
G75*
G02*
X116160000Y-64285000I0J75000D01*
G01*
G37*
%TD.AperFunction*%
%TO.P,U1,48*%
%TO.N,/STM32SUPPLY*%
%TA.AperFunction,SMDPad,CuDef*%
G36*
G01*
X117460000Y-65585000D02*
X117460000Y-65435000D01*
G75*
G02*
X117535000Y-65360000I75000J0D01*
G01*
X118935000Y-65360000D01*
G75*
G02*
X119010000Y-65435000I0J-75000D01*
G01*
X119010000Y-65585000D01*
G75*
G02*
X118935000Y-65660000I-75000J0D01*
G01*
X117535000Y-65660000D01*
G75*
G02*
X117460000Y-65585000I0J75000D01*
G01*
G37*
%TD.AperFunction*%
%TO.P,U1,47*%
%TO.N,GND*%
%TA.AperFunction,SMDPad,CuDef*%
G36*
G01*
X117460000Y-66085000D02*
X117460000Y-65935000D01*
G75*
G02*
X117535000Y-65860000I75000J0D01*
G01*
X118935000Y-65860000D01*
G75*
G02*
X119010000Y-65935000I0J-75000D01*
G01*
X119010000Y-66085000D01*
G75*
G02*
X118935000Y-66160000I-75000J0D01*
G01*
X117535000Y-66160000D01*
G75*
G02*
X117460000Y-66085000I0J75000D01*
G01*
G37*
%TD.AperFunction*%
%TO.P,U1,46*%
%TO.N,/SWD_SWDIO*%
%TA.AperFunction,SMDPad,CuDef*%
G36*
G01*
X117460000Y-66585000D02*
X117460000Y-66435000D01*
G75*
G02*
X117535000Y-66360000I75000J0D01*
G01*
X118935000Y-66360000D01*
G75*
G02*
X119010000Y-66435000I0J-75000D01*
G01*
X119010000Y-66585000D01*
G75*
G02*
X118935000Y-66660000I-75000J0D01*
G01*
X117535000Y-66660000D01*
G75*
G02*
X117460000Y-66585000I0J75000D01*
G01*
G37*
%TD.AperFunction*%
%TO.P,U1,45*%
%TO.N,Net-(U1-Pad45)*%
%TA.AperFunction,SMDPad,CuDef*%
G36*
G01*
X117460000Y-67085000D02*
X117460000Y-66935000D01*
G75*
G02*
X117535000Y-66860000I75000J0D01*
G01*
X118935000Y-66860000D01*
G75*
G02*
X119010000Y-66935000I0J-75000D01*
G01*
X119010000Y-67085000D01*
G75*
G02*
X118935000Y-67160000I-75000J0D01*
G01*
X117535000Y-67160000D01*
G75*
G02*
X117460000Y-67085000I0J75000D01*
G01*
G37*
%TD.AperFunction*%
%TO.P,U1,44*%
%TO.N,Net-(U1-Pad44)*%
%TA.AperFunction,SMDPad,CuDef*%
G36*
G01*
X117460000Y-67585000D02*
X117460000Y-67435000D01*
G75*
G02*
X117535000Y-67360000I75000J0D01*
G01*
X118935000Y-67360000D01*
G75*
G02*
X119010000Y-67435000I0J-75000D01*
G01*
X119010000Y-67585000D01*
G75*
G02*
X118935000Y-67660000I-75000J0D01*
G01*
X117535000Y-67660000D01*
G75*
G02*
X117460000Y-67585000I0J75000D01*
G01*
G37*
%TD.AperFunction*%
%TO.P,U1,43*%
%TO.N,Net-(U1-Pad43)*%
%TA.AperFunction,SMDPad,CuDef*%
G36*
G01*
X117460000Y-68085000D02*
X117460000Y-67935000D01*
G75*
G02*
X117535000Y-67860000I75000J0D01*
G01*
X118935000Y-67860000D01*
G75*
G02*
X119010000Y-67935000I0J-75000D01*
G01*
X119010000Y-68085000D01*
G75*
G02*
X118935000Y-68160000I-75000J0D01*
G01*
X117535000Y-68160000D01*
G75*
G02*
X117460000Y-68085000I0J75000D01*
G01*
G37*
%TD.AperFunction*%
%TO.P,U1,42*%
%TO.N,/MAG_RDY*%
%TA.AperFunction,SMDPad,CuDef*%
G36*
G01*
X117460000Y-68585000D02*
X117460000Y-68435000D01*
G75*
G02*
X117535000Y-68360000I75000J0D01*
G01*
X118935000Y-68360000D01*
G75*
G02*
X119010000Y-68435000I0J-75000D01*
G01*
X119010000Y-68585000D01*
G75*
G02*
X118935000Y-68660000I-75000J0D01*
G01*
X117535000Y-68660000D01*
G75*
G02*
X117460000Y-68585000I0J75000D01*
G01*
G37*
%TD.AperFunction*%
%TO.P,U1,41*%
%TO.N,/SPI1_SSN*%
%TA.AperFunction,SMDPad,CuDef*%
G36*
G01*
X117460000Y-69085000D02*
X117460000Y-68935000D01*
G75*
G02*
X117535000Y-68860000I75000J0D01*
G01*
X118935000Y-68860000D01*
G75*
G02*
X119010000Y-68935000I0J-75000D01*
G01*
X119010000Y-69085000D01*
G75*
G02*
X118935000Y-69160000I-75000J0D01*
G01*
X117535000Y-69160000D01*
G75*
G02*
X117460000Y-69085000I0J75000D01*
G01*
G37*
%TD.AperFunction*%
%TO.P,U1,40*%
%TO.N,Net-(U1-Pad40)*%
%TA.AperFunction,SMDPad,CuDef*%
G36*
G01*
X117460000Y-69585000D02*
X117460000Y-69435000D01*
G75*
G02*
X117535000Y-69360000I75000J0D01*
G01*
X118935000Y-69360000D01*
G75*
G02*
X119010000Y-69435000I0J-75000D01*
G01*
X119010000Y-69585000D01*
G75*
G02*
X118935000Y-69660000I-75000J0D01*
G01*
X117535000Y-69660000D01*
G75*
G02*
X117460000Y-69585000I0J75000D01*
G01*
G37*
%TD.AperFunction*%
%TO.P,U1,39*%
%TO.N,Net-(U1-Pad39)*%
%TA.AperFunction,SMDPad,CuDef*%
G36*
G01*
X117460000Y-70085000D02*
X117460000Y-69935000D01*
G75*
G02*
X117535000Y-69860000I75000J0D01*
G01*
X118935000Y-69860000D01*
G75*
G02*
X119010000Y-69935000I0J-75000D01*
G01*
X119010000Y-70085000D01*
G75*
G02*
X118935000Y-70160000I-75000J0D01*
G01*
X117535000Y-70160000D01*
G75*
G02*
X117460000Y-70085000I0J75000D01*
G01*
G37*
%TD.AperFunction*%
%TO.P,U1,38*%
%TO.N,Net-(U1-Pad38)*%
%TA.AperFunction,SMDPad,CuDef*%
G36*
G01*
X117460000Y-70585000D02*
X117460000Y-70435000D01*
G75*
G02*
X117535000Y-70360000I75000J0D01*
G01*
X118935000Y-70360000D01*
G75*
G02*
X119010000Y-70435000I0J-75000D01*
G01*
X119010000Y-70585000D01*
G75*
G02*
X118935000Y-70660000I-75000J0D01*
G01*
X117535000Y-70660000D01*
G75*
G02*
X117460000Y-70585000I0J75000D01*
G01*
G37*
%TD.AperFunction*%
%TO.P,U1,37*%
%TO.N,/LoRaRST*%
%TA.AperFunction,SMDPad,CuDef*%
G36*
G01*
X117460000Y-71085000D02*
X117460000Y-70935000D01*
G75*
G02*
X117535000Y-70860000I75000J0D01*
G01*
X118935000Y-70860000D01*
G75*
G02*
X119010000Y-70935000I0J-75000D01*
G01*
X119010000Y-71085000D01*
G75*
G02*
X118935000Y-71160000I-75000J0D01*
G01*
X117535000Y-71160000D01*
G75*
G02*
X117460000Y-71085000I0J75000D01*
G01*
G37*
%TD.AperFunction*%
%TO.P,U1,36*%
%TO.N,/LoRa_RESET*%
%TA.AperFunction,SMDPad,CuDef*%
G36*
G01*
X117460000Y-71585000D02*
X117460000Y-71435000D01*
G75*
G02*
X117535000Y-71360000I75000J0D01*
G01*
X118935000Y-71360000D01*
G75*
G02*
X119010000Y-71435000I0J-75000D01*
G01*
X119010000Y-71585000D01*
G75*
G02*
X118935000Y-71660000I-75000J0D01*
G01*
X117535000Y-71660000D01*
G75*
G02*
X117460000Y-71585000I0J75000D01*
G01*
G37*
%TD.AperFunction*%
%TO.P,U1,35*%
%TO.N,/SPI2_SSN*%
%TA.AperFunction,SMDPad,CuDef*%
G36*
G01*
X117460000Y-72085000D02*
X117460000Y-71935000D01*
G75*
G02*
X117535000Y-71860000I75000J0D01*
G01*
X118935000Y-71860000D01*
G75*
G02*
X119010000Y-71935000I0J-75000D01*
G01*
X119010000Y-72085000D01*
G75*
G02*
X118935000Y-72160000I-75000J0D01*
G01*
X117535000Y-72160000D01*
G75*
G02*
X117460000Y-72085000I0J75000D01*
G01*
G37*
%TD.AperFunction*%
%TO.P,U1,34*%
%TO.N,/SPI2_SCK*%
%TA.AperFunction,SMDPad,CuDef*%
G36*
G01*
X117460000Y-72585000D02*
X117460000Y-72435000D01*
G75*
G02*
X117535000Y-72360000I75000J0D01*
G01*
X118935000Y-72360000D01*
G75*
G02*
X119010000Y-72435000I0J-75000D01*
G01*
X119010000Y-72585000D01*
G75*
G02*
X118935000Y-72660000I-75000J0D01*
G01*
X117535000Y-72660000D01*
G75*
G02*
X117460000Y-72585000I0J75000D01*
G01*
G37*
%TD.AperFunction*%
%TO.P,U1,33*%
%TO.N,Net-(U1-Pad33)*%
%TA.AperFunction,SMDPad,CuDef*%
G36*
G01*
X117460000Y-73085000D02*
X117460000Y-72935000D01*
G75*
G02*
X117535000Y-72860000I75000J0D01*
G01*
X118935000Y-72860000D01*
G75*
G02*
X119010000Y-72935000I0J-75000D01*
G01*
X119010000Y-73085000D01*
G75*
G02*
X118935000Y-73160000I-75000J0D01*
G01*
X117535000Y-73160000D01*
G75*
G02*
X117460000Y-73085000I0J75000D01*
G01*
G37*
%TD.AperFunction*%
%TO.P,U1,32*%
%TO.N,/STM32SUPPLY*%
%TA.AperFunction,SMDPad,CuDef*%
G36*
G01*
X116160000Y-75635000D02*
X116160000Y-74235000D01*
G75*
G02*
X116235000Y-74160000I75000J0D01*
G01*
X116385000Y-74160000D01*
G75*
G02*
X116460000Y-74235000I0J-75000D01*
G01*
X116460000Y-75635000D01*
G75*
G02*
X116385000Y-75710000I-75000J0D01*
G01*
X116235000Y-75710000D01*
G75*
G02*
X116160000Y-75635000I0J75000D01*
G01*
G37*
%TD.AperFunction*%
%TO.P,U1,31*%
%TO.N,GND*%
%TA.AperFunction,SMDPad,CuDef*%
G36*
G01*
X115660000Y-75635000D02*
X115660000Y-74235000D01*
G75*
G02*
X115735000Y-74160000I75000J0D01*
G01*
X115885000Y-74160000D01*
G75*
G02*
X115960000Y-74235000I0J-75000D01*
G01*
X115960000Y-75635000D01*
G75*
G02*
X115885000Y-75710000I-75000J0D01*
G01*
X115735000Y-75710000D01*
G75*
G02*
X115660000Y-75635000I0J75000D01*
G01*
G37*
%TD.AperFunction*%
%TO.P,U1,30*%
%TO.N,Net-(U1-Pad30)*%
%TA.AperFunction,SMDPad,CuDef*%
G36*
G01*
X115160000Y-75635000D02*
X115160000Y-74235000D01*
G75*
G02*
X115235000Y-74160000I75000J0D01*
G01*
X115385000Y-74160000D01*
G75*
G02*
X115460000Y-74235000I0J-75000D01*
G01*
X115460000Y-75635000D01*
G75*
G02*
X115385000Y-75710000I-75000J0D01*
G01*
X115235000Y-75710000D01*
G75*
G02*
X115160000Y-75635000I0J75000D01*
G01*
G37*
%TD.AperFunction*%
%TO.P,U1,29*%
%TO.N,Net-(U1-Pad29)*%
%TA.AperFunction,SMDPad,CuDef*%
G36*
G01*
X114660000Y-75635000D02*
X114660000Y-74235000D01*
G75*
G02*
X114735000Y-74160000I75000J0D01*
G01*
X114885000Y-74160000D01*
G75*
G02*
X114960000Y-74235000I0J-75000D01*
G01*
X114960000Y-75635000D01*
G75*
G02*
X114885000Y-75710000I-75000J0D01*
G01*
X114735000Y-75710000D01*
G75*
G02*
X114660000Y-75635000I0J75000D01*
G01*
G37*
%TD.AperFunction*%
%TO.P,U1,28*%
%TO.N,Net-(U1-Pad28)*%
%TA.AperFunction,SMDPad,CuDef*%
G36*
G01*
X114160000Y-75635000D02*
X114160000Y-74235000D01*
G75*
G02*
X114235000Y-74160000I75000J0D01*
G01*
X114385000Y-74160000D01*
G75*
G02*
X114460000Y-74235000I0J-75000D01*
G01*
X114460000Y-75635000D01*
G75*
G02*
X114385000Y-75710000I-75000J0D01*
G01*
X114235000Y-75710000D01*
G75*
G02*
X114160000Y-75635000I0J75000D01*
G01*
G37*
%TD.AperFunction*%
%TO.P,U1,27*%
%TO.N,Net-(U1-Pad27)*%
%TA.AperFunction,SMDPad,CuDef*%
G36*
G01*
X113660000Y-75635000D02*
X113660000Y-74235000D01*
G75*
G02*
X113735000Y-74160000I75000J0D01*
G01*
X113885000Y-74160000D01*
G75*
G02*
X113960000Y-74235000I0J-75000D01*
G01*
X113960000Y-75635000D01*
G75*
G02*
X113885000Y-75710000I-75000J0D01*
G01*
X113735000Y-75710000D01*
G75*
G02*
X113660000Y-75635000I0J75000D01*
G01*
G37*
%TD.AperFunction*%
%TO.P,U1,26*%
%TO.N,Net-(U1-Pad26)*%
%TA.AperFunction,SMDPad,CuDef*%
G36*
G01*
X113160000Y-75635000D02*
X113160000Y-74235000D01*
G75*
G02*
X113235000Y-74160000I75000J0D01*
G01*
X113385000Y-74160000D01*
G75*
G02*
X113460000Y-74235000I0J-75000D01*
G01*
X113460000Y-75635000D01*
G75*
G02*
X113385000Y-75710000I-75000J0D01*
G01*
X113235000Y-75710000D01*
G75*
G02*
X113160000Y-75635000I0J75000D01*
G01*
G37*
%TD.AperFunction*%
%TO.P,U1,25*%
%TO.N,/LoRaIRQ*%
%TA.AperFunction,SMDPad,CuDef*%
G36*
G01*
X112660000Y-75635000D02*
X112660000Y-74235000D01*
G75*
G02*
X112735000Y-74160000I75000J0D01*
G01*
X112885000Y-74160000D01*
G75*
G02*
X112960000Y-74235000I0J-75000D01*
G01*
X112960000Y-75635000D01*
G75*
G02*
X112885000Y-75710000I-75000J0D01*
G01*
X112735000Y-75710000D01*
G75*
G02*
X112660000Y-75635000I0J75000D01*
G01*
G37*
%TD.AperFunction*%
%TO.P,U1,24*%
%TO.N,/LoRaEN*%
%TA.AperFunction,SMDPad,CuDef*%
G36*
G01*
X112160000Y-75635000D02*
X112160000Y-74235000D01*
G75*
G02*
X112235000Y-74160000I75000J0D01*
G01*
X112385000Y-74160000D01*
G75*
G02*
X112460000Y-74235000I0J-75000D01*
G01*
X112460000Y-75635000D01*
G75*
G02*
X112385000Y-75710000I-75000J0D01*
G01*
X112235000Y-75710000D01*
G75*
G02*
X112160000Y-75635000I0J75000D01*
G01*
G37*
%TD.AperFunction*%
%TO.P,U1,23*%
%TO.N,/SPI1_MOSI*%
%TA.AperFunction,SMDPad,CuDef*%
G36*
G01*
X111660000Y-75635000D02*
X111660000Y-74235000D01*
G75*
G02*
X111735000Y-74160000I75000J0D01*
G01*
X111885000Y-74160000D01*
G75*
G02*
X111960000Y-74235000I0J-75000D01*
G01*
X111960000Y-75635000D01*
G75*
G02*
X111885000Y-75710000I-75000J0D01*
G01*
X111735000Y-75710000D01*
G75*
G02*
X111660000Y-75635000I0J75000D01*
G01*
G37*
%TD.AperFunction*%
%TO.P,U1,22*%
%TO.N,/SPI1_MISO*%
%TA.AperFunction,SMDPad,CuDef*%
G36*
G01*
X111160000Y-75635000D02*
X111160000Y-74235000D01*
G75*
G02*
X111235000Y-74160000I75000J0D01*
G01*
X111385000Y-74160000D01*
G75*
G02*
X111460000Y-74235000I0J-75000D01*
G01*
X111460000Y-75635000D01*
G75*
G02*
X111385000Y-75710000I-75000J0D01*
G01*
X111235000Y-75710000D01*
G75*
G02*
X111160000Y-75635000I0J75000D01*
G01*
G37*
%TD.AperFunction*%
%TO.P,U1,21*%
%TO.N,/SPI1_SCK*%
%TA.AperFunction,SMDPad,CuDef*%
G36*
G01*
X110660000Y-75635000D02*
X110660000Y-74235000D01*
G75*
G02*
X110735000Y-74160000I75000J0D01*
G01*
X110885000Y-74160000D01*
G75*
G02*
X110960000Y-74235000I0J-75000D01*
G01*
X110960000Y-75635000D01*
G75*
G02*
X110885000Y-75710000I-75000J0D01*
G01*
X110735000Y-75710000D01*
G75*
G02*
X110660000Y-75635000I0J75000D01*
G01*
G37*
%TD.AperFunction*%
%TO.P,U1,20*%
%TO.N,Net-(U1-Pad20)*%
%TA.AperFunction,SMDPad,CuDef*%
G36*
G01*
X110160000Y-75635000D02*
X110160000Y-74235000D01*
G75*
G02*
X110235000Y-74160000I75000J0D01*
G01*
X110385000Y-74160000D01*
G75*
G02*
X110460000Y-74235000I0J-75000D01*
G01*
X110460000Y-75635000D01*
G75*
G02*
X110385000Y-75710000I-75000J0D01*
G01*
X110235000Y-75710000D01*
G75*
G02*
X110160000Y-75635000I0J75000D01*
G01*
G37*
%TD.AperFunction*%
%TO.P,U1,19*%
%TO.N,/STM32SUPPLY*%
%TA.AperFunction,SMDPad,CuDef*%
G36*
G01*
X109660000Y-75635000D02*
X109660000Y-74235000D01*
G75*
G02*
X109735000Y-74160000I75000J0D01*
G01*
X109885000Y-74160000D01*
G75*
G02*
X109960000Y-74235000I0J-75000D01*
G01*
X109960000Y-75635000D01*
G75*
G02*
X109885000Y-75710000I-75000J0D01*
G01*
X109735000Y-75710000D01*
G75*
G02*
X109660000Y-75635000I0J75000D01*
G01*
G37*
%TD.AperFunction*%
%TO.P,U1,18*%
%TO.N,GND*%
%TA.AperFunction,SMDPad,CuDef*%
G36*
G01*
X109160000Y-75635000D02*
X109160000Y-74235000D01*
G75*
G02*
X109235000Y-74160000I75000J0D01*
G01*
X109385000Y-74160000D01*
G75*
G02*
X109460000Y-74235000I0J-75000D01*
G01*
X109460000Y-75635000D01*
G75*
G02*
X109385000Y-75710000I-75000J0D01*
G01*
X109235000Y-75710000D01*
G75*
G02*
X109160000Y-75635000I0J75000D01*
G01*
G37*
%TD.AperFunction*%
%TO.P,U1,17*%
%TO.N,/USART_RX*%
%TA.AperFunction,SMDPad,CuDef*%
G36*
G01*
X108660000Y-75635000D02*
X108660000Y-74235000D01*
G75*
G02*
X108735000Y-74160000I75000J0D01*
G01*
X108885000Y-74160000D01*
G75*
G02*
X108960000Y-74235000I0J-75000D01*
G01*
X108960000Y-75635000D01*
G75*
G02*
X108885000Y-75710000I-75000J0D01*
G01*
X108735000Y-75710000D01*
G75*
G02*
X108660000Y-75635000I0J75000D01*
G01*
G37*
%TD.AperFunction*%
%TO.P,U1,16*%
%TO.N,/USART_TX*%
%TA.AperFunction,SMDPad,CuDef*%
G36*
G01*
X106110000Y-73085000D02*
X106110000Y-72935000D01*
G75*
G02*
X106185000Y-72860000I75000J0D01*
G01*
X107585000Y-72860000D01*
G75*
G02*
X107660000Y-72935000I0J-75000D01*
G01*
X107660000Y-73085000D01*
G75*
G02*
X107585000Y-73160000I-75000J0D01*
G01*
X106185000Y-73160000D01*
G75*
G02*
X106110000Y-73085000I0J75000D01*
G01*
G37*
%TD.AperFunction*%
%TO.P,U1,15*%
%TO.N,Net-(U1-Pad15)*%
%TA.AperFunction,SMDPad,CuDef*%
G36*
G01*
X106110000Y-72585000D02*
X106110000Y-72435000D01*
G75*
G02*
X106185000Y-72360000I75000J0D01*
G01*
X107585000Y-72360000D01*
G75*
G02*
X107660000Y-72435000I0J-75000D01*
G01*
X107660000Y-72585000D01*
G75*
G02*
X107585000Y-72660000I-75000J0D01*
G01*
X106185000Y-72660000D01*
G75*
G02*
X106110000Y-72585000I0J75000D01*
G01*
G37*
%TD.AperFunction*%
%TO.P,U1,14*%
%TO.N,Net-(U1-Pad14)*%
%TA.AperFunction,SMDPad,CuDef*%
G36*
G01*
X106110000Y-72085000D02*
X106110000Y-71935000D01*
G75*
G02*
X106185000Y-71860000I75000J0D01*
G01*
X107585000Y-71860000D01*
G75*
G02*
X107660000Y-71935000I0J-75000D01*
G01*
X107660000Y-72085000D01*
G75*
G02*
X107585000Y-72160000I-75000J0D01*
G01*
X106185000Y-72160000D01*
G75*
G02*
X106110000Y-72085000I0J75000D01*
G01*
G37*
%TD.AperFunction*%
%TO.P,U1,13*%
%TO.N,/STM32SUPPLY*%
%TA.AperFunction,SMDPad,CuDef*%
G36*
G01*
X106110000Y-71585000D02*
X106110000Y-71435000D01*
G75*
G02*
X106185000Y-71360000I75000J0D01*
G01*
X107585000Y-71360000D01*
G75*
G02*
X107660000Y-71435000I0J-75000D01*
G01*
X107660000Y-71585000D01*
G75*
G02*
X107585000Y-71660000I-75000J0D01*
G01*
X106185000Y-71660000D01*
G75*
G02*
X106110000Y-71585000I0J75000D01*
G01*
G37*
%TD.AperFunction*%
%TO.P,U1,12*%
%TO.N,GND*%
%TA.AperFunction,SMDPad,CuDef*%
G36*
G01*
X106110000Y-71085000D02*
X106110000Y-70935000D01*
G75*
G02*
X106185000Y-70860000I75000J0D01*
G01*
X107585000Y-70860000D01*
G75*
G02*
X107660000Y-70935000I0J-75000D01*
G01*
X107660000Y-71085000D01*
G75*
G02*
X107585000Y-71160000I-75000J0D01*
G01*
X106185000Y-71160000D01*
G75*
G02*
X106110000Y-71085000I0J75000D01*
G01*
G37*
%TD.AperFunction*%
%TO.P,U1,11*%
%TO.N,/SPI2_MOSI*%
%TA.AperFunction,SMDPad,CuDef*%
G36*
G01*
X106110000Y-70585000D02*
X106110000Y-70435000D01*
G75*
G02*
X106185000Y-70360000I75000J0D01*
G01*
X107585000Y-70360000D01*
G75*
G02*
X107660000Y-70435000I0J-75000D01*
G01*
X107660000Y-70585000D01*
G75*
G02*
X107585000Y-70660000I-75000J0D01*
G01*
X106185000Y-70660000D01*
G75*
G02*
X106110000Y-70585000I0J75000D01*
G01*
G37*
%TD.AperFunction*%
%TO.P,U1,10*%
%TO.N,/SPI2_MISO*%
%TA.AperFunction,SMDPad,CuDef*%
G36*
G01*
X106110000Y-70085000D02*
X106110000Y-69935000D01*
G75*
G02*
X106185000Y-69860000I75000J0D01*
G01*
X107585000Y-69860000D01*
G75*
G02*
X107660000Y-69935000I0J-75000D01*
G01*
X107660000Y-70085000D01*
G75*
G02*
X107585000Y-70160000I-75000J0D01*
G01*
X106185000Y-70160000D01*
G75*
G02*
X106110000Y-70085000I0J75000D01*
G01*
G37*
%TD.AperFunction*%
%TO.P,U1,9*%
%TO.N,Net-(U1-Pad9)*%
%TA.AperFunction,SMDPad,CuDef*%
G36*
G01*
X106110000Y-69585000D02*
X106110000Y-69435000D01*
G75*
G02*
X106185000Y-69360000I75000J0D01*
G01*
X107585000Y-69360000D01*
G75*
G02*
X107660000Y-69435000I0J-75000D01*
G01*
X107660000Y-69585000D01*
G75*
G02*
X107585000Y-69660000I-75000J0D01*
G01*
X106185000Y-69660000D01*
G75*
G02*
X106110000Y-69585000I0J75000D01*
G01*
G37*
%TD.AperFunction*%
%TO.P,U1,8*%
%TO.N,Net-(U1-Pad8)*%
%TA.AperFunction,SMDPad,CuDef*%
G36*
G01*
X106110000Y-69085000D02*
X106110000Y-68935000D01*
G75*
G02*
X106185000Y-68860000I75000J0D01*
G01*
X107585000Y-68860000D01*
G75*
G02*
X107660000Y-68935000I0J-75000D01*
G01*
X107660000Y-69085000D01*
G75*
G02*
X107585000Y-69160000I-75000J0D01*
G01*
X106185000Y-69160000D01*
G75*
G02*
X106110000Y-69085000I0J75000D01*
G01*
G37*
%TD.AperFunction*%
%TO.P,U1,7*%
%TO.N,Net-(C12-Pad1)*%
%TA.AperFunction,SMDPad,CuDef*%
G36*
G01*
X106110000Y-68585000D02*
X106110000Y-68435000D01*
G75*
G02*
X106185000Y-68360000I75000J0D01*
G01*
X107585000Y-68360000D01*
G75*
G02*
X107660000Y-68435000I0J-75000D01*
G01*
X107660000Y-68585000D01*
G75*
G02*
X107585000Y-68660000I-75000J0D01*
G01*
X106185000Y-68660000D01*
G75*
G02*
X106110000Y-68585000I0J75000D01*
G01*
G37*
%TD.AperFunction*%
%TO.P,U1,6*%
%TO.N,Net-(C11-Pad1)*%
%TA.AperFunction,SMDPad,CuDef*%
G36*
G01*
X106110000Y-68085000D02*
X106110000Y-67935000D01*
G75*
G02*
X106185000Y-67860000I75000J0D01*
G01*
X107585000Y-67860000D01*
G75*
G02*
X107660000Y-67935000I0J-75000D01*
G01*
X107660000Y-68085000D01*
G75*
G02*
X107585000Y-68160000I-75000J0D01*
G01*
X106185000Y-68160000D01*
G75*
G02*
X106110000Y-68085000I0J75000D01*
G01*
G37*
%TD.AperFunction*%
%TO.P,U1,5*%
%TO.N,Net-(C10-Pad1)*%
%TA.AperFunction,SMDPad,CuDef*%
G36*
G01*
X106110000Y-67585000D02*
X106110000Y-67435000D01*
G75*
G02*
X106185000Y-67360000I75000J0D01*
G01*
X107585000Y-67360000D01*
G75*
G02*
X107660000Y-67435000I0J-75000D01*
G01*
X107660000Y-67585000D01*
G75*
G02*
X107585000Y-67660000I-75000J0D01*
G01*
X106185000Y-67660000D01*
G75*
G02*
X106110000Y-67585000I0J75000D01*
G01*
G37*
%TD.AperFunction*%
%TO.P,U1,4*%
%TO.N,Net-(U1-Pad4)*%
%TA.AperFunction,SMDPad,CuDef*%
G36*
G01*
X106110000Y-67085000D02*
X106110000Y-66935000D01*
G75*
G02*
X106185000Y-66860000I75000J0D01*
G01*
X107585000Y-66860000D01*
G75*
G02*
X107660000Y-66935000I0J-75000D01*
G01*
X107660000Y-67085000D01*
G75*
G02*
X107585000Y-67160000I-75000J0D01*
G01*
X106185000Y-67160000D01*
G75*
G02*
X106110000Y-67085000I0J75000D01*
G01*
G37*
%TD.AperFunction*%
%TO.P,U1,3*%
%TO.N,Net-(U1-Pad3)*%
%TA.AperFunction,SMDPad,CuDef*%
G36*
G01*
X106110000Y-66585000D02*
X106110000Y-66435000D01*
G75*
G02*
X106185000Y-66360000I75000J0D01*
G01*
X107585000Y-66360000D01*
G75*
G02*
X107660000Y-66435000I0J-75000D01*
G01*
X107660000Y-66585000D01*
G75*
G02*
X107585000Y-66660000I-75000J0D01*
G01*
X106185000Y-66660000D01*
G75*
G02*
X106110000Y-66585000I0J75000D01*
G01*
G37*
%TD.AperFunction*%
%TO.P,U1,2*%
%TO.N,Net-(U1-Pad2)*%
%TA.AperFunction,SMDPad,CuDef*%
G36*
G01*
X106110000Y-66085000D02*
X106110000Y-65935000D01*
G75*
G02*
X106185000Y-65860000I75000J0D01*
G01*
X107585000Y-65860000D01*
G75*
G02*
X107660000Y-65935000I0J-75000D01*
G01*
X107660000Y-66085000D01*
G75*
G02*
X107585000Y-66160000I-75000J0D01*
G01*
X106185000Y-66160000D01*
G75*
G02*
X106110000Y-66085000I0J75000D01*
G01*
G37*
%TD.AperFunction*%
%TO.P,U1,1*%
%TO.N,Net-(U1-Pad1)*%
%TA.AperFunction,SMDPad,CuDef*%
G36*
G01*
X106110000Y-65585000D02*
X106110000Y-65435000D01*
G75*
G02*
X106185000Y-65360000I75000J0D01*
G01*
X107585000Y-65360000D01*
G75*
G02*
X107660000Y-65435000I0J-75000D01*
G01*
X107660000Y-65585000D01*
G75*
G02*
X107585000Y-65660000I-75000J0D01*
G01*
X106185000Y-65660000D01*
G75*
G02*
X106110000Y-65585000I0J75000D01*
G01*
G37*
%TD.AperFunction*%
%TD*%
D12*
%TO.P,TP7,1*%
%TO.N,Net-(C13-Pad1)*%
X111400000Y-36400000D03*
%TD*%
%TO.P,TP6,1*%
%TO.N,Net-(C1-Pad1)*%
X111300000Y-29200000D03*
%TD*%
%TO.P,TP5,1*%
%TO.N,Net-(TP5-Pad1)*%
X99900000Y-46200000D03*
%TD*%
%TO.P,TP4,1*%
%TO.N,Net-(TP4-Pad1)*%
X96600000Y-46300000D03*
%TD*%
%TO.P,TP3,1*%
%TO.N,Net-(TP3-Pad1)*%
X93300000Y-46300000D03*
%TD*%
%TO.P,R2FB_below1,2*%
%TO.N,Net-(C13-Pad2)*%
%TA.AperFunction,SMDPad,CuDef*%
G36*
G01*
X103000000Y-34050001D02*
X103000000Y-33149999D01*
G75*
G02*
X103249999Y-32900000I249999J0D01*
G01*
X103950001Y-32900000D01*
G75*
G02*
X104200000Y-33149999I0J-249999D01*
G01*
X104200000Y-34050001D01*
G75*
G02*
X103950001Y-34300000I-249999J0D01*
G01*
X103249999Y-34300000D01*
G75*
G02*
X103000000Y-34050001I0J249999D01*
G01*
G37*
%TD.AperFunction*%
%TO.P,R2FB_below1,1*%
%TO.N,GNDA*%
%TA.AperFunction,SMDPad,CuDef*%
G36*
G01*
X101000000Y-34050001D02*
X101000000Y-33149999D01*
G75*
G02*
X101249999Y-32900000I249999J0D01*
G01*
X101950001Y-32900000D01*
G75*
G02*
X102200000Y-33149999I0J-249999D01*
G01*
X102200000Y-34050001D01*
G75*
G02*
X101950001Y-34300000I-249999J0D01*
G01*
X101249999Y-34300000D01*
G75*
G02*
X101000000Y-34050001I0J249999D01*
G01*
G37*
%TD.AperFunction*%
%TD*%
%TO.P,R2FB1,2*%
%TO.N,Net-(C1-Pad2)*%
%TA.AperFunction,SMDPad,CuDef*%
G36*
G01*
X97649999Y-30900000D02*
X98550001Y-30900000D01*
G75*
G02*
X98800000Y-31149999I0J-249999D01*
G01*
X98800000Y-31850001D01*
G75*
G02*
X98550001Y-32100000I-249999J0D01*
G01*
X97649999Y-32100000D01*
G75*
G02*
X97400000Y-31850001I0J249999D01*
G01*
X97400000Y-31149999D01*
G75*
G02*
X97649999Y-30900000I249999J0D01*
G01*
G37*
%TD.AperFunction*%
%TO.P,R2FB1,1*%
%TO.N,GNDA*%
%TA.AperFunction,SMDPad,CuDef*%
G36*
G01*
X97649999Y-28900000D02*
X98550001Y-28900000D01*
G75*
G02*
X98800000Y-29149999I0J-249999D01*
G01*
X98800000Y-29850001D01*
G75*
G02*
X98550001Y-30100000I-249999J0D01*
G01*
X97649999Y-30100000D01*
G75*
G02*
X97400000Y-29850001I0J249999D01*
G01*
X97400000Y-29149999D01*
G75*
G02*
X97649999Y-28900000I249999J0D01*
G01*
G37*
%TD.AperFunction*%
%TD*%
%TO.P,R1FB1,2*%
%TO.N,Net-(C1-Pad2)*%
%TA.AperFunction,SMDPad,CuDef*%
G36*
G01*
X105149999Y-30900000D02*
X106050001Y-30900000D01*
G75*
G02*
X106300000Y-31149999I0J-249999D01*
G01*
X106300000Y-31850001D01*
G75*
G02*
X106050001Y-32100000I-249999J0D01*
G01*
X105149999Y-32100000D01*
G75*
G02*
X104900000Y-31850001I0J249999D01*
G01*
X104900000Y-31149999D01*
G75*
G02*
X105149999Y-30900000I249999J0D01*
G01*
G37*
%TD.AperFunction*%
%TO.P,R1FB1,1*%
%TO.N,Net-(C1-Pad1)*%
%TA.AperFunction,SMDPad,CuDef*%
G36*
G01*
X105149999Y-28900000D02*
X106050001Y-28900000D01*
G75*
G02*
X106300000Y-29149999I0J-249999D01*
G01*
X106300000Y-29850001D01*
G75*
G02*
X106050001Y-30100000I-249999J0D01*
G01*
X105149999Y-30100000D01*
G75*
G02*
X104900000Y-29850001I0J249999D01*
G01*
X104900000Y-29149999D01*
G75*
G02*
X105149999Y-28900000I249999J0D01*
G01*
G37*
%TD.AperFunction*%
%TD*%
%TO.P,R20,2*%
%TO.N,Net-(D3-Pad2)*%
%TA.AperFunction,SMDPad,CuDef*%
G36*
G01*
X132200000Y-38449999D02*
X132200000Y-39350001D01*
G75*
G02*
X131950001Y-39600000I-249999J0D01*
G01*
X131249999Y-39600000D01*
G75*
G02*
X131000000Y-39350001I0J249999D01*
G01*
X131000000Y-38449999D01*
G75*
G02*
X131249999Y-38200000I249999J0D01*
G01*
X131950001Y-38200000D01*
G75*
G02*
X132200000Y-38449999I0J-249999D01*
G01*
G37*
%TD.AperFunction*%
%TO.P,R20,1*%
%TO.N,/CHG_LED*%
%TA.AperFunction,SMDPad,CuDef*%
G36*
G01*
X134200000Y-38449999D02*
X134200000Y-39350001D01*
G75*
G02*
X133950001Y-39600000I-249999J0D01*
G01*
X133249999Y-39600000D01*
G75*
G02*
X133000000Y-39350001I0J249999D01*
G01*
X133000000Y-38449999D01*
G75*
G02*
X133249999Y-38200000I249999J0D01*
G01*
X133950001Y-38200000D01*
G75*
G02*
X134200000Y-38449999I0J-249999D01*
G01*
G37*
%TD.AperFunction*%
%TD*%
%TO.P,R19,2*%
%TO.N,GND*%
%TA.AperFunction,SMDPad,CuDef*%
G36*
G01*
X160359999Y-32320000D02*
X161260001Y-32320000D01*
G75*
G02*
X161510000Y-32569999I0J-249999D01*
G01*
X161510000Y-33270001D01*
G75*
G02*
X161260001Y-33520000I-249999J0D01*
G01*
X160359999Y-33520000D01*
G75*
G02*
X160110000Y-33270001I0J249999D01*
G01*
X160110000Y-32569999D01*
G75*
G02*
X160359999Y-32320000I249999J0D01*
G01*
G37*
%TD.AperFunction*%
%TO.P,R19,1*%
%TO.N,/VRECT*%
%TA.AperFunction,SMDPad,CuDef*%
G36*
G01*
X160359999Y-30320000D02*
X161260001Y-30320000D01*
G75*
G02*
X161510000Y-30569999I0J-249999D01*
G01*
X161510000Y-31270001D01*
G75*
G02*
X161260001Y-31520000I-249999J0D01*
G01*
X160359999Y-31520000D01*
G75*
G02*
X160110000Y-31270001I0J249999D01*
G01*
X160110000Y-30569999D01*
G75*
G02*
X160359999Y-30320000I249999J0D01*
G01*
G37*
%TD.AperFunction*%
%TD*%
%TO.P,R18,2*%
%TO.N,GND*%
%TA.AperFunction,SMDPad,CuDef*%
G36*
G01*
X127200001Y-42850000D02*
X126299999Y-42850000D01*
G75*
G02*
X126050000Y-42600001I0J249999D01*
G01*
X126050000Y-41899999D01*
G75*
G02*
X126299999Y-41650000I249999J0D01*
G01*
X127200001Y-41650000D01*
G75*
G02*
X127450000Y-41899999I0J-249999D01*
G01*
X127450000Y-42600001D01*
G75*
G02*
X127200001Y-42850000I-249999J0D01*
G01*
G37*
%TD.AperFunction*%
%TO.P,R18,1*%
%TO.N,Net-(R18-Pad1)*%
%TA.AperFunction,SMDPad,CuDef*%
G36*
G01*
X127200001Y-44850000D02*
X126299999Y-44850000D01*
G75*
G02*
X126050000Y-44600001I0J249999D01*
G01*
X126050000Y-43899999D01*
G75*
G02*
X126299999Y-43650000I249999J0D01*
G01*
X127200001Y-43650000D01*
G75*
G02*
X127450000Y-43899999I0J-249999D01*
G01*
X127450000Y-44600001D01*
G75*
G02*
X127200001Y-44850000I-249999J0D01*
G01*
G37*
%TD.AperFunction*%
%TD*%
%TO.P,R17,2*%
%TO.N,GND*%
%TA.AperFunction,SMDPad,CuDef*%
G36*
G01*
X132349999Y-43650000D02*
X133250001Y-43650000D01*
G75*
G02*
X133500000Y-43899999I0J-249999D01*
G01*
X133500000Y-44600001D01*
G75*
G02*
X133250001Y-44850000I-249999J0D01*
G01*
X132349999Y-44850000D01*
G75*
G02*
X132100000Y-44600001I0J249999D01*
G01*
X132100000Y-43899999D01*
G75*
G02*
X132349999Y-43650000I249999J0D01*
G01*
G37*
%TD.AperFunction*%
%TO.P,R17,1*%
%TO.N,Net-(R16-Pad2)*%
%TA.AperFunction,SMDPad,CuDef*%
G36*
G01*
X132349999Y-41650000D02*
X133250001Y-41650000D01*
G75*
G02*
X133500000Y-41899999I0J-249999D01*
G01*
X133500000Y-42600001D01*
G75*
G02*
X133250001Y-42850000I-249999J0D01*
G01*
X132349999Y-42850000D01*
G75*
G02*
X132100000Y-42600001I0J249999D01*
G01*
X132100000Y-41899999D01*
G75*
G02*
X132349999Y-41650000I249999J0D01*
G01*
G37*
%TD.AperFunction*%
%TD*%
%TO.P,R16,2*%
%TO.N,Net-(R16-Pad2)*%
%TA.AperFunction,SMDPad,CuDef*%
G36*
G01*
X130650001Y-42850000D02*
X129749999Y-42850000D01*
G75*
G02*
X129500000Y-42600001I0J249999D01*
G01*
X129500000Y-41899999D01*
G75*
G02*
X129749999Y-41650000I249999J0D01*
G01*
X130650001Y-41650000D01*
G75*
G02*
X130900000Y-41899999I0J-249999D01*
G01*
X130900000Y-42600001D01*
G75*
G02*
X130650001Y-42850000I-249999J0D01*
G01*
G37*
%TD.AperFunction*%
%TO.P,R16,1*%
%TO.N,+5V*%
%TA.AperFunction,SMDPad,CuDef*%
G36*
G01*
X130650001Y-44850000D02*
X129749999Y-44850000D01*
G75*
G02*
X129500000Y-44600001I0J249999D01*
G01*
X129500000Y-43899999D01*
G75*
G02*
X129749999Y-43650000I249999J0D01*
G01*
X130650001Y-43650000D01*
G75*
G02*
X130900000Y-43899999I0J-249999D01*
G01*
X130900000Y-44600001D01*
G75*
G02*
X130650001Y-44850000I-249999J0D01*
G01*
G37*
%TD.AperFunction*%
%TD*%
%TO.P,R15,2*%
%TO.N,/WirelessReciverOut*%
%TA.AperFunction,SMDPad,CuDef*%
G36*
G01*
X163250001Y-24570000D02*
X162349999Y-24570000D01*
G75*
G02*
X162100000Y-24320001I0J249999D01*
G01*
X162100000Y-23619999D01*
G75*
G02*
X162349999Y-23370000I249999J0D01*
G01*
X163250001Y-23370000D01*
G75*
G02*
X163500000Y-23619999I0J-249999D01*
G01*
X163500000Y-24320001D01*
G75*
G02*
X163250001Y-24570000I-249999J0D01*
G01*
G37*
%TD.AperFunction*%
%TO.P,R15,1*%
%TO.N,Net-(C29-Pad1)*%
%TA.AperFunction,SMDPad,CuDef*%
G36*
G01*
X163250001Y-26570000D02*
X162349999Y-26570000D01*
G75*
G02*
X162100000Y-26320001I0J249999D01*
G01*
X162100000Y-25619999D01*
G75*
G02*
X162349999Y-25370000I249999J0D01*
G01*
X163250001Y-25370000D01*
G75*
G02*
X163500000Y-25619999I0J-249999D01*
G01*
X163500000Y-26320001D01*
G75*
G02*
X163250001Y-26570000I-249999J0D01*
G01*
G37*
%TD.AperFunction*%
%TD*%
%TO.P,R14,2*%
%TO.N,GND*%
%TA.AperFunction,SMDPad,CuDef*%
G36*
G01*
X138349999Y-44200000D02*
X139250001Y-44200000D01*
G75*
G02*
X139500000Y-44449999I0J-249999D01*
G01*
X139500000Y-45150001D01*
G75*
G02*
X139250001Y-45400000I-249999J0D01*
G01*
X138349999Y-45400000D01*
G75*
G02*
X138100000Y-45150001I0J249999D01*
G01*
X138100000Y-44449999D01*
G75*
G02*
X138349999Y-44200000I249999J0D01*
G01*
G37*
%TD.AperFunction*%
%TO.P,R14,1*%
%TO.N,Net-(C29-Pad1)*%
%TA.AperFunction,SMDPad,CuDef*%
G36*
G01*
X138349999Y-42200000D02*
X139250001Y-42200000D01*
G75*
G02*
X139500000Y-42449999I0J-249999D01*
G01*
X139500000Y-43150001D01*
G75*
G02*
X139250001Y-43400000I-249999J0D01*
G01*
X138349999Y-43400000D01*
G75*
G02*
X138100000Y-43150001I0J249999D01*
G01*
X138100000Y-42449999D01*
G75*
G02*
X138349999Y-42200000I249999J0D01*
G01*
G37*
%TD.AperFunction*%
%TD*%
%TO.P,R13,2*%
%TO.N,Net-(C29-Pad1)*%
%TA.AperFunction,SMDPad,CuDef*%
G36*
G01*
X143250001Y-43400000D02*
X142349999Y-43400000D01*
G75*
G02*
X142100000Y-43150001I0J249999D01*
G01*
X142100000Y-42449999D01*
G75*
G02*
X142349999Y-42200000I249999J0D01*
G01*
X143250001Y-42200000D01*
G75*
G02*
X143500000Y-42449999I0J-249999D01*
G01*
X143500000Y-43150001D01*
G75*
G02*
X143250001Y-43400000I-249999J0D01*
G01*
G37*
%TD.AperFunction*%
%TO.P,R13,1*%
%TO.N,Net-(R13-Pad1)*%
%TA.AperFunction,SMDPad,CuDef*%
G36*
G01*
X143250001Y-45400000D02*
X142349999Y-45400000D01*
G75*
G02*
X142100000Y-45150001I0J249999D01*
G01*
X142100000Y-44449999D01*
G75*
G02*
X142349999Y-44200000I249999J0D01*
G01*
X143250001Y-44200000D01*
G75*
G02*
X143500000Y-44449999I0J-249999D01*
G01*
X143500000Y-45150001D01*
G75*
G02*
X143250001Y-45400000I-249999J0D01*
G01*
G37*
%TD.AperFunction*%
%TD*%
%TO.P,R12,2*%
%TO.N,Net-(C29-Pad1)*%
%TA.AperFunction,SMDPad,CuDef*%
G36*
G01*
X148149999Y-36800000D02*
X149050001Y-36800000D01*
G75*
G02*
X149300000Y-37049999I0J-249999D01*
G01*
X149300000Y-37750001D01*
G75*
G02*
X149050001Y-38000000I-249999J0D01*
G01*
X148149999Y-38000000D01*
G75*
G02*
X147900000Y-37750001I0J249999D01*
G01*
X147900000Y-37049999D01*
G75*
G02*
X148149999Y-36800000I249999J0D01*
G01*
G37*
%TD.AperFunction*%
%TO.P,R12,1*%
%TO.N,/VRECT*%
%TA.AperFunction,SMDPad,CuDef*%
G36*
G01*
X148149999Y-34800000D02*
X149050001Y-34800000D01*
G75*
G02*
X149300000Y-35049999I0J-249999D01*
G01*
X149300000Y-35750001D01*
G75*
G02*
X149050001Y-36000000I-249999J0D01*
G01*
X148149999Y-36000000D01*
G75*
G02*
X147900000Y-35750001I0J249999D01*
G01*
X147900000Y-35049999D01*
G75*
G02*
X148149999Y-34800000I249999J0D01*
G01*
G37*
%TD.AperFunction*%
%TD*%
%TO.P,R11,2*%
%TO.N,Net-(R11-Pad2)*%
%TA.AperFunction,SMDPad,CuDef*%
G36*
G01*
X143550000Y-76750001D02*
X143550000Y-75849999D01*
G75*
G02*
X143799999Y-75600000I249999J0D01*
G01*
X144500001Y-75600000D01*
G75*
G02*
X144750000Y-75849999I0J-249999D01*
G01*
X144750000Y-76750001D01*
G75*
G02*
X144500001Y-77000000I-249999J0D01*
G01*
X143799999Y-77000000D01*
G75*
G02*
X143550000Y-76750001I0J249999D01*
G01*
G37*
%TD.AperFunction*%
%TO.P,R11,1*%
%TO.N,Net-(R11-Pad1)*%
%TA.AperFunction,SMDPad,CuDef*%
G36*
G01*
X141550000Y-76750001D02*
X141550000Y-75849999D01*
G75*
G02*
X141799999Y-75600000I249999J0D01*
G01*
X142500001Y-75600000D01*
G75*
G02*
X142750000Y-75849999I0J-249999D01*
G01*
X142750000Y-76750001D01*
G75*
G02*
X142500001Y-77000000I-249999J0D01*
G01*
X141799999Y-77000000D01*
G75*
G02*
X141550000Y-76750001I0J249999D01*
G01*
G37*
%TD.AperFunction*%
%TD*%
%TO.P,R10,2*%
%TO.N,Net-(R10-Pad2)*%
%TA.AperFunction,SMDPad,CuDef*%
G36*
G01*
X138950000Y-75849999D02*
X138950000Y-76750001D01*
G75*
G02*
X138700001Y-77000000I-249999J0D01*
G01*
X137999999Y-77000000D01*
G75*
G02*
X137750000Y-76750001I0J249999D01*
G01*
X137750000Y-75849999D01*
G75*
G02*
X137999999Y-75600000I249999J0D01*
G01*
X138700001Y-75600000D01*
G75*
G02*
X138950000Y-75849999I0J-249999D01*
G01*
G37*
%TD.AperFunction*%
%TO.P,R10,1*%
%TO.N,Net-(R10-Pad1)*%
%TA.AperFunction,SMDPad,CuDef*%
G36*
G01*
X140950000Y-75849999D02*
X140950000Y-76750001D01*
G75*
G02*
X140700001Y-77000000I-249999J0D01*
G01*
X139999999Y-77000000D01*
G75*
G02*
X139750000Y-76750001I0J249999D01*
G01*
X139750000Y-75849999D01*
G75*
G02*
X139999999Y-75600000I249999J0D01*
G01*
X140700001Y-75600000D01*
G75*
G02*
X140950000Y-75849999I0J-249999D01*
G01*
G37*
%TD.AperFunction*%
%TD*%
%TO.P,R9,2*%
%TO.N,Net-(R9-Pad2)*%
%TA.AperFunction,SMDPad,CuDef*%
G36*
G01*
X148000000Y-62849999D02*
X148000000Y-63750001D01*
G75*
G02*
X147750001Y-64000000I-249999J0D01*
G01*
X147049999Y-64000000D01*
G75*
G02*
X146800000Y-63750001I0J249999D01*
G01*
X146800000Y-62849999D01*
G75*
G02*
X147049999Y-62600000I249999J0D01*
G01*
X147750001Y-62600000D01*
G75*
G02*
X148000000Y-62849999I0J-249999D01*
G01*
G37*
%TD.AperFunction*%
%TO.P,R9,1*%
%TO.N,Net-(R9-Pad1)*%
%TA.AperFunction,SMDPad,CuDef*%
G36*
G01*
X150000000Y-62849999D02*
X150000000Y-63750001D01*
G75*
G02*
X149750001Y-64000000I-249999J0D01*
G01*
X149049999Y-64000000D01*
G75*
G02*
X148800000Y-63750001I0J249999D01*
G01*
X148800000Y-62849999D01*
G75*
G02*
X149049999Y-62600000I249999J0D01*
G01*
X149750001Y-62600000D01*
G75*
G02*
X150000000Y-62849999I0J-249999D01*
G01*
G37*
%TD.AperFunction*%
%TD*%
%TO.P,R8,2*%
%TO.N,Net-(R8-Pad2)*%
%TA.AperFunction,SMDPad,CuDef*%
G36*
G01*
X148000000Y-75149999D02*
X148000000Y-76050001D01*
G75*
G02*
X147750001Y-76300000I-249999J0D01*
G01*
X147049999Y-76300000D01*
G75*
G02*
X146800000Y-76050001I0J249999D01*
G01*
X146800000Y-75149999D01*
G75*
G02*
X147049999Y-74900000I249999J0D01*
G01*
X147750001Y-74900000D01*
G75*
G02*
X148000000Y-75149999I0J-249999D01*
G01*
G37*
%TD.AperFunction*%
%TO.P,R8,1*%
%TO.N,Net-(R8-Pad1)*%
%TA.AperFunction,SMDPad,CuDef*%
G36*
G01*
X150000000Y-75149999D02*
X150000000Y-76050001D01*
G75*
G02*
X149750001Y-76300000I-249999J0D01*
G01*
X149049999Y-76300000D01*
G75*
G02*
X148800000Y-76050001I0J249999D01*
G01*
X148800000Y-75149999D01*
G75*
G02*
X149049999Y-74900000I249999J0D01*
G01*
X149750001Y-74900000D01*
G75*
G02*
X150000000Y-75149999I0J-249999D01*
G01*
G37*
%TD.AperFunction*%
%TD*%
%TO.P,R7,2*%
%TO.N,Net-(R7-Pad2)*%
%TA.AperFunction,SMDPad,CuDef*%
G36*
G01*
X139400000Y-61849999D02*
X139400000Y-62750001D01*
G75*
G02*
X139150001Y-63000000I-249999J0D01*
G01*
X138449999Y-63000000D01*
G75*
G02*
X138200000Y-62750001I0J249999D01*
G01*
X138200000Y-61849999D01*
G75*
G02*
X138449999Y-61600000I249999J0D01*
G01*
X139150001Y-61600000D01*
G75*
G02*
X139400000Y-61849999I0J-249999D01*
G01*
G37*
%TD.AperFunction*%
%TO.P,R7,1*%
%TO.N,Net-(R7-Pad1)*%
%TA.AperFunction,SMDPad,CuDef*%
G36*
G01*
X141400000Y-61849999D02*
X141400000Y-62750001D01*
G75*
G02*
X141150001Y-63000000I-249999J0D01*
G01*
X140449999Y-63000000D01*
G75*
G02*
X140200000Y-62750001I0J249999D01*
G01*
X140200000Y-61849999D01*
G75*
G02*
X140449999Y-61600000I249999J0D01*
G01*
X141150001Y-61600000D01*
G75*
G02*
X141400000Y-61849999I0J-249999D01*
G01*
G37*
%TD.AperFunction*%
%TD*%
%TO.P,R6,2*%
%TO.N,Net-(R6-Pad2)*%
%TA.AperFunction,SMDPad,CuDef*%
G36*
G01*
X144500000Y-62750001D02*
X144500000Y-61849999D01*
G75*
G02*
X144749999Y-61600000I249999J0D01*
G01*
X145450001Y-61600000D01*
G75*
G02*
X145700000Y-61849999I0J-249999D01*
G01*
X145700000Y-62750001D01*
G75*
G02*
X145450001Y-63000000I-249999J0D01*
G01*
X144749999Y-63000000D01*
G75*
G02*
X144500000Y-62750001I0J249999D01*
G01*
G37*
%TD.AperFunction*%
%TO.P,R6,1*%
%TO.N,Net-(R6-Pad1)*%
%TA.AperFunction,SMDPad,CuDef*%
G36*
G01*
X142500000Y-62750001D02*
X142500000Y-61849999D01*
G75*
G02*
X142749999Y-61600000I249999J0D01*
G01*
X143450001Y-61600000D01*
G75*
G02*
X143700000Y-61849999I0J-249999D01*
G01*
X143700000Y-62750001D01*
G75*
G02*
X143450001Y-63000000I-249999J0D01*
G01*
X142749999Y-63000000D01*
G75*
G02*
X142500000Y-62750001I0J249999D01*
G01*
G37*
%TD.AperFunction*%
%TD*%
%TO.P,R5,2*%
%TO.N,GND*%
%TA.AperFunction,SMDPad,CuDef*%
G36*
G01*
X136350001Y-67250000D02*
X135449999Y-67250000D01*
G75*
G02*
X135200000Y-67000001I0J249999D01*
G01*
X135200000Y-66299999D01*
G75*
G02*
X135449999Y-66050000I249999J0D01*
G01*
X136350001Y-66050000D01*
G75*
G02*
X136600000Y-66299999I0J-249999D01*
G01*
X136600000Y-67000001D01*
G75*
G02*
X136350001Y-67250000I-249999J0D01*
G01*
G37*
%TD.AperFunction*%
%TO.P,R5,1*%
%TO.N,Net-(R5-Pad1)*%
%TA.AperFunction,SMDPad,CuDef*%
G36*
G01*
X136350001Y-69250000D02*
X135449999Y-69250000D01*
G75*
G02*
X135200000Y-69000001I0J249999D01*
G01*
X135200000Y-68299999D01*
G75*
G02*
X135449999Y-68050000I249999J0D01*
G01*
X136350001Y-68050000D01*
G75*
G02*
X136600000Y-68299999I0J-249999D01*
G01*
X136600000Y-69000001D01*
G75*
G02*
X136350001Y-69250000I-249999J0D01*
G01*
G37*
%TD.AperFunction*%
%TD*%
%TO.P,R4,2*%
%TO.N,Net-(C13-Pad2)*%
%TA.AperFunction,SMDPad,CuDef*%
G36*
G01*
X107200000Y-40749999D02*
X107200000Y-41650001D01*
G75*
G02*
X106950001Y-41900000I-249999J0D01*
G01*
X106249999Y-41900000D01*
G75*
G02*
X106000000Y-41650001I0J249999D01*
G01*
X106000000Y-40749999D01*
G75*
G02*
X106249999Y-40500000I249999J0D01*
G01*
X106950001Y-40500000D01*
G75*
G02*
X107200000Y-40749999I0J-249999D01*
G01*
G37*
%TD.AperFunction*%
%TO.P,R4,1*%
%TO.N,Net-(C13-Pad1)*%
%TA.AperFunction,SMDPad,CuDef*%
G36*
G01*
X109200000Y-40749999D02*
X109200000Y-41650001D01*
G75*
G02*
X108950001Y-41900000I-249999J0D01*
G01*
X108249999Y-41900000D01*
G75*
G02*
X108000000Y-41650001I0J249999D01*
G01*
X108000000Y-40749999D01*
G75*
G02*
X108249999Y-40500000I249999J0D01*
G01*
X108950001Y-40500000D01*
G75*
G02*
X109200000Y-40749999I0J-249999D01*
G01*
G37*
%TD.AperFunction*%
%TD*%
%TO.P,R3,2*%
%TO.N,GND*%
%TA.AperFunction,SMDPad,CuDef*%
G36*
G01*
X112250000Y-60900001D02*
X112250000Y-59999999D01*
G75*
G02*
X112499999Y-59750000I249999J0D01*
G01*
X113200001Y-59750000D01*
G75*
G02*
X113450000Y-59999999I0J-249999D01*
G01*
X113450000Y-60900001D01*
G75*
G02*
X113200001Y-61150000I-249999J0D01*
G01*
X112499999Y-61150000D01*
G75*
G02*
X112250000Y-60900001I0J249999D01*
G01*
G37*
%TD.AperFunction*%
%TO.P,R3,1*%
%TO.N,Net-(R3-Pad1)*%
%TA.AperFunction,SMDPad,CuDef*%
G36*
G01*
X110250000Y-60900001D02*
X110250000Y-59999999D01*
G75*
G02*
X110499999Y-59750000I249999J0D01*
G01*
X111200001Y-59750000D01*
G75*
G02*
X111450000Y-59999999I0J-249999D01*
G01*
X111450000Y-60900001D01*
G75*
G02*
X111200001Y-61150000I-249999J0D01*
G01*
X110499999Y-61150000D01*
G75*
G02*
X110250000Y-60900001I0J249999D01*
G01*
G37*
%TD.AperFunction*%
%TD*%
%TO.P,R2,2*%
%TO.N,/USER_LED2*%
%TA.AperFunction,SMDPad,CuDef*%
G36*
G01*
X99320000Y-57690001D02*
X99320000Y-56789999D01*
G75*
G02*
X99569999Y-56540000I249999J0D01*
G01*
X100270001Y-56540000D01*
G75*
G02*
X100520000Y-56789999I0J-249999D01*
G01*
X100520000Y-57690001D01*
G75*
G02*
X100270001Y-57940000I-249999J0D01*
G01*
X99569999Y-57940000D01*
G75*
G02*
X99320000Y-57690001I0J249999D01*
G01*
G37*
%TD.AperFunction*%
%TO.P,R2,1*%
%TO.N,Net-(D2-Pad2)*%
%TA.AperFunction,SMDPad,CuDef*%
G36*
G01*
X97320000Y-57690001D02*
X97320000Y-56789999D01*
G75*
G02*
X97569999Y-56540000I249999J0D01*
G01*
X98270001Y-56540000D01*
G75*
G02*
X98520000Y-56789999I0J-249999D01*
G01*
X98520000Y-57690001D01*
G75*
G02*
X98270001Y-57940000I-249999J0D01*
G01*
X97569999Y-57940000D01*
G75*
G02*
X97320000Y-57690001I0J249999D01*
G01*
G37*
%TD.AperFunction*%
%TD*%
%TO.P,R1,2*%
%TO.N,/USER_LED1*%
%TA.AperFunction,SMDPad,CuDef*%
G36*
G01*
X99320000Y-53970001D02*
X99320000Y-53069999D01*
G75*
G02*
X99569999Y-52820000I249999J0D01*
G01*
X100270001Y-52820000D01*
G75*
G02*
X100520000Y-53069999I0J-249999D01*
G01*
X100520000Y-53970001D01*
G75*
G02*
X100270001Y-54220000I-249999J0D01*
G01*
X99569999Y-54220000D01*
G75*
G02*
X99320000Y-53970001I0J249999D01*
G01*
G37*
%TD.AperFunction*%
%TO.P,R1,1*%
%TO.N,Net-(D1-Pad2)*%
%TA.AperFunction,SMDPad,CuDef*%
G36*
G01*
X97320000Y-53970001D02*
X97320000Y-53069999D01*
G75*
G02*
X97569999Y-52820000I249999J0D01*
G01*
X98270001Y-52820000D01*
G75*
G02*
X98520000Y-53069999I0J-249999D01*
G01*
X98520000Y-53970001D01*
G75*
G02*
X98270001Y-54220000I-249999J0D01*
G01*
X97569999Y-54220000D01*
G75*
G02*
X97320000Y-53970001I0J249999D01*
G01*
G37*
%TD.AperFunction*%
%TD*%
D11*
%TO.P,JP1,3*%
%TO.N,/LP3905_Output*%
X121820000Y-49100000D03*
%TO.P,JP1,2*%
%TO.N,/STM32SUPPLY*%
X124360000Y-49100000D03*
D12*
%TO.P,JP1,1*%
%TO.N,+3V3*%
X126900000Y-49100000D03*
%TD*%
D11*
%TO.P,J7,4*%
%TO.N,/I2C1_SDA*%
X105480000Y-82900000D03*
%TO.P,J7,3*%
%TO.N,/I2C1_SCL*%
X108020000Y-82900000D03*
%TO.P,J7,2*%
%TO.N,GND*%
X110560000Y-82900000D03*
D12*
%TO.P,J7,1*%
%TO.N,/STM32SUPPLY*%
X113100000Y-82900000D03*
%TD*%
D11*
%TO.P,J4,6*%
%TO.N,/USART_RX*%
X106500000Y-54100000D03*
%TO.P,J4,5*%
%TO.N,/USART_TX*%
X109040000Y-54100000D03*
%TO.P,J4,4*%
%TO.N,GND*%
X111580000Y-54100000D03*
%TO.P,J4,3*%
%TO.N,/SWD_SWCLK*%
X114120000Y-54100000D03*
%TO.P,J4,2*%
%TO.N,/SWD_SWDIO*%
X116660000Y-54100000D03*
D12*
%TO.P,J4,1*%
%TO.N,/STM32SUPPLY*%
X119200000Y-54100000D03*
%TD*%
D11*
%TO.P,J3,9*%
%TO.N,Net-(J3-Pad9)*%
X131180000Y-54100000D03*
%TO.P,J3,8*%
%TO.N,GND*%
X133720000Y-54100000D03*
%TO.P,J3,7*%
%TO.N,/LoRaEN*%
X136260000Y-54100000D03*
%TO.P,J3,6*%
%TO.N,/LoRaIRQ*%
X138800000Y-54100000D03*
%TO.P,J3,5*%
%TO.N,/SPI2_SCK*%
X141340000Y-54100000D03*
%TO.P,J3,4*%
%TO.N,/SPI2_MISO*%
X143880000Y-54100000D03*
%TO.P,J3,3*%
%TO.N,/SPI2_MOSI*%
X146420000Y-54100000D03*
%TO.P,J3,2*%
%TO.N,/SPI2_SSN*%
X148960000Y-54100000D03*
D12*
%TO.P,J3,1*%
%TO.N,/LoRaRST*%
X151500000Y-54100000D03*
%TD*%
D26*
%TO.P,J2,2*%
%TO.N,+3V3*%
X129200000Y-23300000D03*
%TO.P,J2,1*%
%TO.N,GND*%
%TA.AperFunction,ComponentPad*%
G36*
G01*
X132550000Y-22550000D02*
X132550000Y-24050000D01*
G75*
G02*
X132300000Y-24300000I-250000J0D01*
G01*
X131100000Y-24300000D01*
G75*
G02*
X130850000Y-24050000I0J250000D01*
G01*
X130850000Y-22550000D01*
G75*
G02*
X131100000Y-22300000I250000J0D01*
G01*
X132300000Y-22300000D01*
G75*
G02*
X132550000Y-22550000I0J-250000D01*
G01*
G37*
%TD.AperFunction*%
%TD*%
%TO.P,J1,2*%
%TO.N,+BATT*%
X114200000Y-23500000D03*
%TO.P,J1,1*%
%TO.N,GND*%
%TA.AperFunction,ComponentPad*%
G36*
G01*
X117550000Y-22750000D02*
X117550000Y-24250000D01*
G75*
G02*
X117300000Y-24500000I-250000J0D01*
G01*
X116100000Y-24500000D01*
G75*
G02*
X115850000Y-24250000I0J250000D01*
G01*
X115850000Y-22750000D01*
G75*
G02*
X116100000Y-22500000I250000J0D01*
G01*
X117300000Y-22500000D01*
G75*
G02*
X117550000Y-22750000I0J-250000D01*
G01*
G37*
%TD.AperFunction*%
%TD*%
%TO.P,D3,2*%
%TO.N,Net-(D3-Pad2)*%
%TA.AperFunction,SMDPad,CuDef*%
G36*
G01*
X128450000Y-39450001D02*
X128450000Y-38549999D01*
G75*
G02*
X128699999Y-38300000I249999J0D01*
G01*
X129350001Y-38300000D01*
G75*
G02*
X129600000Y-38549999I0J-249999D01*
G01*
X129600000Y-39450001D01*
G75*
G02*
X129350001Y-39700000I-249999J0D01*
G01*
X128699999Y-39700000D01*
G75*
G02*
X128450000Y-39450001I0J249999D01*
G01*
G37*
%TD.AperFunction*%
%TO.P,D3,1*%
%TO.N,GND*%
%TA.AperFunction,SMDPad,CuDef*%
G36*
G01*
X126400000Y-39450001D02*
X126400000Y-38549999D01*
G75*
G02*
X126649999Y-38300000I249999J0D01*
G01*
X127300001Y-38300000D01*
G75*
G02*
X127550000Y-38549999I0J-249999D01*
G01*
X127550000Y-39450001D01*
G75*
G02*
X127300001Y-39700000I-249999J0D01*
G01*
X126649999Y-39700000D01*
G75*
G02*
X126400000Y-39450001I0J249999D01*
G01*
G37*
%TD.AperFunction*%
%TD*%
%TO.P,D2,2*%
%TO.N,Net-(D2-Pad2)*%
%TA.AperFunction,SMDPad,CuDef*%
G36*
G01*
X94020000Y-57690001D02*
X94020000Y-56789999D01*
G75*
G02*
X94269999Y-56540000I249999J0D01*
G01*
X94920001Y-56540000D01*
G75*
G02*
X95170000Y-56789999I0J-249999D01*
G01*
X95170000Y-57690001D01*
G75*
G02*
X94920001Y-57940000I-249999J0D01*
G01*
X94269999Y-57940000D01*
G75*
G02*
X94020000Y-57690001I0J249999D01*
G01*
G37*
%TD.AperFunction*%
%TO.P,D2,1*%
%TO.N,GND*%
%TA.AperFunction,SMDPad,CuDef*%
G36*
G01*
X91970000Y-57690001D02*
X91970000Y-56789999D01*
G75*
G02*
X92219999Y-56540000I249999J0D01*
G01*
X92870001Y-56540000D01*
G75*
G02*
X93120000Y-56789999I0J-249999D01*
G01*
X93120000Y-57690001D01*
G75*
G02*
X92870001Y-57940000I-249999J0D01*
G01*
X92219999Y-57940000D01*
G75*
G02*
X91970000Y-57690001I0J249999D01*
G01*
G37*
%TD.AperFunction*%
%TD*%
%TO.P,D1,2*%
%TO.N,Net-(D1-Pad2)*%
%TA.AperFunction,SMDPad,CuDef*%
G36*
G01*
X94020000Y-53970001D02*
X94020000Y-53069999D01*
G75*
G02*
X94269999Y-52820000I249999J0D01*
G01*
X94920001Y-52820000D01*
G75*
G02*
X95170000Y-53069999I0J-249999D01*
G01*
X95170000Y-53970001D01*
G75*
G02*
X94920001Y-54220000I-249999J0D01*
G01*
X94269999Y-54220000D01*
G75*
G02*
X94020000Y-53970001I0J249999D01*
G01*
G37*
%TD.AperFunction*%
%TO.P,D1,1*%
%TO.N,GND*%
%TA.AperFunction,SMDPad,CuDef*%
G36*
G01*
X91970000Y-53970001D02*
X91970000Y-53069999D01*
G75*
G02*
X92219999Y-52820000I249999J0D01*
G01*
X92870001Y-52820000D01*
G75*
G02*
X93120000Y-53069999I0J-249999D01*
G01*
X93120000Y-53970001D01*
G75*
G02*
X92870001Y-54220000I-249999J0D01*
G01*
X92219999Y-54220000D01*
G75*
G02*
X91970000Y-53970001I0J249999D01*
G01*
G37*
%TD.AperFunction*%
%TD*%
%TO.P,C35,2*%
%TO.N,GND*%
%TA.AperFunction,SMDPad,CuDef*%
G36*
G01*
X158425000Y-25450000D02*
X159375000Y-25450000D01*
G75*
G02*
X159625000Y-25700000I0J-250000D01*
G01*
X159625000Y-26375000D01*
G75*
G02*
X159375000Y-26625000I-250000J0D01*
G01*
X158425000Y-26625000D01*
G75*
G02*
X158175000Y-26375000I0J250000D01*
G01*
X158175000Y-25700000D01*
G75*
G02*
X158425000Y-25450000I250000J0D01*
G01*
G37*
%TD.AperFunction*%
%TO.P,C35,1*%
%TO.N,/WirelessReciverOut*%
%TA.AperFunction,SMDPad,CuDef*%
G36*
G01*
X158425000Y-23375000D02*
X159375000Y-23375000D01*
G75*
G02*
X159625000Y-23625000I0J-250000D01*
G01*
X159625000Y-24300000D01*
G75*
G02*
X159375000Y-24550000I-250000J0D01*
G01*
X158425000Y-24550000D01*
G75*
G02*
X158175000Y-24300000I0J250000D01*
G01*
X158175000Y-23625000D01*
G75*
G02*
X158425000Y-23375000I250000J0D01*
G01*
G37*
%TD.AperFunction*%
%TD*%
%TO.P,C34,2*%
%TO.N,GND*%
%TA.AperFunction,SMDPad,CuDef*%
G36*
G01*
X154375000Y-25450000D02*
X155325000Y-25450000D01*
G75*
G02*
X155575000Y-25700000I0J-250000D01*
G01*
X155575000Y-26375000D01*
G75*
G02*
X155325000Y-26625000I-250000J0D01*
G01*
X154375000Y-26625000D01*
G75*
G02*
X154125000Y-26375000I0J250000D01*
G01*
X154125000Y-25700000D01*
G75*
G02*
X154375000Y-25450000I250000J0D01*
G01*
G37*
%TD.AperFunction*%
%TO.P,C34,1*%
%TO.N,/WirelessReciverOut*%
%TA.AperFunction,SMDPad,CuDef*%
G36*
G01*
X154375000Y-23375000D02*
X155325000Y-23375000D01*
G75*
G02*
X155575000Y-23625000I0J-250000D01*
G01*
X155575000Y-24300000D01*
G75*
G02*
X155325000Y-24550000I-250000J0D01*
G01*
X154375000Y-24550000D01*
G75*
G02*
X154125000Y-24300000I0J250000D01*
G01*
X154125000Y-23625000D01*
G75*
G02*
X154375000Y-23375000I250000J0D01*
G01*
G37*
%TD.AperFunction*%
%TD*%
%TO.P,C33,2*%
%TO.N,GND*%
%TA.AperFunction,SMDPad,CuDef*%
G36*
G01*
X150075000Y-25450000D02*
X151025000Y-25450000D01*
G75*
G02*
X151275000Y-25700000I0J-250000D01*
G01*
X151275000Y-26375000D01*
G75*
G02*
X151025000Y-26625000I-250000J0D01*
G01*
X150075000Y-26625000D01*
G75*
G02*
X149825000Y-26375000I0J250000D01*
G01*
X149825000Y-25700000D01*
G75*
G02*
X150075000Y-25450000I250000J0D01*
G01*
G37*
%TD.AperFunction*%
%TO.P,C33,1*%
%TO.N,/WirelessReciverOut*%
%TA.AperFunction,SMDPad,CuDef*%
G36*
G01*
X150075000Y-23375000D02*
X151025000Y-23375000D01*
G75*
G02*
X151275000Y-23625000I0J-250000D01*
G01*
X151275000Y-24300000D01*
G75*
G02*
X151025000Y-24550000I-250000J0D01*
G01*
X150075000Y-24550000D01*
G75*
G02*
X149825000Y-24300000I0J250000D01*
G01*
X149825000Y-23625000D01*
G75*
G02*
X150075000Y-23375000I250000J0D01*
G01*
G37*
%TD.AperFunction*%
%TD*%
%TO.P,C32,2*%
%TO.N,/VRECT*%
%TA.AperFunction,SMDPad,CuDef*%
G36*
G01*
X157251666Y-31500000D02*
X156301666Y-31500000D01*
G75*
G02*
X156051666Y-31250000I0J250000D01*
G01*
X156051666Y-30575000D01*
G75*
G02*
X156301666Y-30325000I250000J0D01*
G01*
X157251666Y-30325000D01*
G75*
G02*
X157501666Y-30575000I0J-250000D01*
G01*
X157501666Y-31250000D01*
G75*
G02*
X157251666Y-31500000I-250000J0D01*
G01*
G37*
%TD.AperFunction*%
%TO.P,C32,1*%
%TO.N,GND*%
%TA.AperFunction,SMDPad,CuDef*%
G36*
G01*
X157251666Y-33575000D02*
X156301666Y-33575000D01*
G75*
G02*
X156051666Y-33325000I0J250000D01*
G01*
X156051666Y-32650000D01*
G75*
G02*
X156301666Y-32400000I250000J0D01*
G01*
X157251666Y-32400000D01*
G75*
G02*
X157501666Y-32650000I0J-250000D01*
G01*
X157501666Y-33325000D01*
G75*
G02*
X157251666Y-33575000I-250000J0D01*
G01*
G37*
%TD.AperFunction*%
%TD*%
%TO.P,C31,2*%
%TO.N,/VRECT*%
%TA.AperFunction,SMDPad,CuDef*%
G36*
G01*
X153188333Y-31490000D02*
X152238333Y-31490000D01*
G75*
G02*
X151988333Y-31240000I0J250000D01*
G01*
X151988333Y-30565000D01*
G75*
G02*
X152238333Y-30315000I250000J0D01*
G01*
X153188333Y-30315000D01*
G75*
G02*
X153438333Y-30565000I0J-250000D01*
G01*
X153438333Y-31240000D01*
G75*
G02*
X153188333Y-31490000I-250000J0D01*
G01*
G37*
%TD.AperFunction*%
%TO.P,C31,1*%
%TO.N,GND*%
%TA.AperFunction,SMDPad,CuDef*%
G36*
G01*
X153188333Y-33565000D02*
X152238333Y-33565000D01*
G75*
G02*
X151988333Y-33315000I0J250000D01*
G01*
X151988333Y-32640000D01*
G75*
G02*
X152238333Y-32390000I250000J0D01*
G01*
X153188333Y-32390000D01*
G75*
G02*
X153438333Y-32640000I0J-250000D01*
G01*
X153438333Y-33315000D01*
G75*
G02*
X153188333Y-33565000I-250000J0D01*
G01*
G37*
%TD.AperFunction*%
%TD*%
%TO.P,C30,2*%
%TO.N,/VRECT*%
%TA.AperFunction,SMDPad,CuDef*%
G36*
G01*
X149125000Y-31480000D02*
X148175000Y-31480000D01*
G75*
G02*
X147925000Y-31230000I0J250000D01*
G01*
X147925000Y-30555000D01*
G75*
G02*
X148175000Y-30305000I250000J0D01*
G01*
X149125000Y-30305000D01*
G75*
G02*
X149375000Y-30555000I0J-250000D01*
G01*
X149375000Y-31230000D01*
G75*
G02*
X149125000Y-31480000I-250000J0D01*
G01*
G37*
%TD.AperFunction*%
%TO.P,C30,1*%
%TO.N,GND*%
%TA.AperFunction,SMDPad,CuDef*%
G36*
G01*
X149125000Y-33555000D02*
X148175000Y-33555000D01*
G75*
G02*
X147925000Y-33305000I0J250000D01*
G01*
X147925000Y-32630000D01*
G75*
G02*
X148175000Y-32380000I250000J0D01*
G01*
X149125000Y-32380000D01*
G75*
G02*
X149375000Y-32630000I0J-250000D01*
G01*
X149375000Y-33305000D01*
G75*
G02*
X149125000Y-33555000I-250000J0D01*
G01*
G37*
%TD.AperFunction*%
%TD*%
%TO.P,C29,2*%
%TO.N,GND*%
%TA.AperFunction,SMDPad,CuDef*%
G36*
G01*
X145325000Y-44250000D02*
X146275000Y-44250000D01*
G75*
G02*
X146525000Y-44500000I0J-250000D01*
G01*
X146525000Y-45175000D01*
G75*
G02*
X146275000Y-45425000I-250000J0D01*
G01*
X145325000Y-45425000D01*
G75*
G02*
X145075000Y-45175000I0J250000D01*
G01*
X145075000Y-44500000D01*
G75*
G02*
X145325000Y-44250000I250000J0D01*
G01*
G37*
%TD.AperFunction*%
%TO.P,C29,1*%
%TO.N,Net-(C29-Pad1)*%
%TA.AperFunction,SMDPad,CuDef*%
G36*
G01*
X145325000Y-42175000D02*
X146275000Y-42175000D01*
G75*
G02*
X146525000Y-42425000I0J-250000D01*
G01*
X146525000Y-43100000D01*
G75*
G02*
X146275000Y-43350000I-250000J0D01*
G01*
X145325000Y-43350000D01*
G75*
G02*
X145075000Y-43100000I0J250000D01*
G01*
X145075000Y-42425000D01*
G75*
G02*
X145325000Y-42175000I250000J0D01*
G01*
G37*
%TD.AperFunction*%
%TD*%
%TO.P,C28,2*%
%TO.N,Net-(C21-Pad2)*%
%TA.AperFunction,SMDPad,CuDef*%
G36*
G01*
X156020000Y-44325000D02*
X156020000Y-43375000D01*
G75*
G02*
X156270000Y-43125000I250000J0D01*
G01*
X156945000Y-43125000D01*
G75*
G02*
X157195000Y-43375000I0J-250000D01*
G01*
X157195000Y-44325000D01*
G75*
G02*
X156945000Y-44575000I-250000J0D01*
G01*
X156270000Y-44575000D01*
G75*
G02*
X156020000Y-44325000I0J250000D01*
G01*
G37*
%TD.AperFunction*%
%TO.P,C28,1*%
%TO.N,Net-(C28-Pad1)*%
%TA.AperFunction,SMDPad,CuDef*%
G36*
G01*
X153945000Y-44325000D02*
X153945000Y-43375000D01*
G75*
G02*
X154195000Y-43125000I250000J0D01*
G01*
X154870000Y-43125000D01*
G75*
G02*
X155120000Y-43375000I0J-250000D01*
G01*
X155120000Y-44325000D01*
G75*
G02*
X154870000Y-44575000I-250000J0D01*
G01*
X154195000Y-44575000D01*
G75*
G02*
X153945000Y-44325000I0J250000D01*
G01*
G37*
%TD.AperFunction*%
%TD*%
%TO.P,C27,2*%
%TO.N,Net-(C21-Pad2)*%
%TA.AperFunction,SMDPad,CuDef*%
G36*
G01*
X156020000Y-40847000D02*
X156020000Y-39897000D01*
G75*
G02*
X156270000Y-39647000I250000J0D01*
G01*
X156945000Y-39647000D01*
G75*
G02*
X157195000Y-39897000I0J-250000D01*
G01*
X157195000Y-40847000D01*
G75*
G02*
X156945000Y-41097000I-250000J0D01*
G01*
X156270000Y-41097000D01*
G75*
G02*
X156020000Y-40847000I0J250000D01*
G01*
G37*
%TD.AperFunction*%
%TO.P,C27,1*%
%TO.N,Net-(C27-Pad1)*%
%TA.AperFunction,SMDPad,CuDef*%
G36*
G01*
X153945000Y-40847000D02*
X153945000Y-39897000D01*
G75*
G02*
X154195000Y-39647000I250000J0D01*
G01*
X154870000Y-39647000D01*
G75*
G02*
X155120000Y-39897000I0J-250000D01*
G01*
X155120000Y-40847000D01*
G75*
G02*
X154870000Y-41097000I-250000J0D01*
G01*
X154195000Y-41097000D01*
G75*
G02*
X153945000Y-40847000I0J250000D01*
G01*
G37*
%TD.AperFunction*%
%TD*%
%TO.P,C26,2*%
%TO.N,Net-(C21-Pad2)*%
%TA.AperFunction,SMDPad,CuDef*%
G36*
G01*
X156020000Y-37369000D02*
X156020000Y-36419000D01*
G75*
G02*
X156270000Y-36169000I250000J0D01*
G01*
X156945000Y-36169000D01*
G75*
G02*
X157195000Y-36419000I0J-250000D01*
G01*
X157195000Y-37369000D01*
G75*
G02*
X156945000Y-37619000I-250000J0D01*
G01*
X156270000Y-37619000D01*
G75*
G02*
X156020000Y-37369000I0J250000D01*
G01*
G37*
%TD.AperFunction*%
%TO.P,C26,1*%
%TO.N,Net-(C26-Pad1)*%
%TA.AperFunction,SMDPad,CuDef*%
G36*
G01*
X153945000Y-37369000D02*
X153945000Y-36419000D01*
G75*
G02*
X154195000Y-36169000I250000J0D01*
G01*
X154870000Y-36169000D01*
G75*
G02*
X155120000Y-36419000I0J-250000D01*
G01*
X155120000Y-37369000D01*
G75*
G02*
X154870000Y-37619000I-250000J0D01*
G01*
X154195000Y-37619000D01*
G75*
G02*
X153945000Y-37369000I0J250000D01*
G01*
G37*
%TD.AperFunction*%
%TD*%
%TO.P,C25,2*%
%TO.N,Net-(C18-Pad1)*%
%TA.AperFunction,SMDPad,CuDef*%
G36*
G01*
X132580000Y-27459000D02*
X132580000Y-28409000D01*
G75*
G02*
X132330000Y-28659000I-250000J0D01*
G01*
X131655000Y-28659000D01*
G75*
G02*
X131405000Y-28409000I0J250000D01*
G01*
X131405000Y-27459000D01*
G75*
G02*
X131655000Y-27209000I250000J0D01*
G01*
X132330000Y-27209000D01*
G75*
G02*
X132580000Y-27459000I0J-250000D01*
G01*
G37*
%TD.AperFunction*%
%TO.P,C25,1*%
%TO.N,Net-(C25-Pad1)*%
%TA.AperFunction,SMDPad,CuDef*%
G36*
G01*
X134655000Y-27459000D02*
X134655000Y-28409000D01*
G75*
G02*
X134405000Y-28659000I-250000J0D01*
G01*
X133730000Y-28659000D01*
G75*
G02*
X133480000Y-28409000I0J250000D01*
G01*
X133480000Y-27459000D01*
G75*
G02*
X133730000Y-27209000I250000J0D01*
G01*
X134405000Y-27209000D01*
G75*
G02*
X134655000Y-27459000I0J-250000D01*
G01*
G37*
%TD.AperFunction*%
%TD*%
%TO.P,C24,2*%
%TO.N,Net-(C18-Pad1)*%
%TA.AperFunction,SMDPad,CuDef*%
G36*
G01*
X132580000Y-30937000D02*
X132580000Y-31887000D01*
G75*
G02*
X132330000Y-32137000I-250000J0D01*
G01*
X131655000Y-32137000D01*
G75*
G02*
X131405000Y-31887000I0J250000D01*
G01*
X131405000Y-30937000D01*
G75*
G02*
X131655000Y-30687000I250000J0D01*
G01*
X132330000Y-30687000D01*
G75*
G02*
X132580000Y-30937000I0J-250000D01*
G01*
G37*
%TD.AperFunction*%
%TO.P,C24,1*%
%TO.N,Net-(C24-Pad1)*%
%TA.AperFunction,SMDPad,CuDef*%
G36*
G01*
X134655000Y-30937000D02*
X134655000Y-31887000D01*
G75*
G02*
X134405000Y-32137000I-250000J0D01*
G01*
X133730000Y-32137000D01*
G75*
G02*
X133480000Y-31887000I0J250000D01*
G01*
X133480000Y-30937000D01*
G75*
G02*
X133730000Y-30687000I250000J0D01*
G01*
X134405000Y-30687000D01*
G75*
G02*
X134655000Y-30937000I0J-250000D01*
G01*
G37*
%TD.AperFunction*%
%TD*%
%TO.P,C23,2*%
%TO.N,Net-(C18-Pad1)*%
%TA.AperFunction,SMDPad,CuDef*%
G36*
G01*
X132580000Y-34415000D02*
X132580000Y-35365000D01*
G75*
G02*
X132330000Y-35615000I-250000J0D01*
G01*
X131655000Y-35615000D01*
G75*
G02*
X131405000Y-35365000I0J250000D01*
G01*
X131405000Y-34415000D01*
G75*
G02*
X131655000Y-34165000I250000J0D01*
G01*
X132330000Y-34165000D01*
G75*
G02*
X132580000Y-34415000I0J-250000D01*
G01*
G37*
%TD.AperFunction*%
%TO.P,C23,1*%
%TO.N,Net-(C23-Pad1)*%
%TA.AperFunction,SMDPad,CuDef*%
G36*
G01*
X134655000Y-34415000D02*
X134655000Y-35365000D01*
G75*
G02*
X134405000Y-35615000I-250000J0D01*
G01*
X133730000Y-35615000D01*
G75*
G02*
X133480000Y-35365000I0J250000D01*
G01*
X133480000Y-34415000D01*
G75*
G02*
X133730000Y-34165000I250000J0D01*
G01*
X134405000Y-34165000D01*
G75*
G02*
X134655000Y-34415000I0J-250000D01*
G01*
G37*
%TD.AperFunction*%
%TD*%
%TO.P,C22,2*%
%TO.N,Net-(C21-Pad2)*%
%TA.AperFunction,SMDPad,CuDef*%
G36*
G01*
X139525000Y-29150000D02*
X138575000Y-29150000D01*
G75*
G02*
X138325000Y-28900000I0J250000D01*
G01*
X138325000Y-28225000D01*
G75*
G02*
X138575000Y-27975000I250000J0D01*
G01*
X139525000Y-27975000D01*
G75*
G02*
X139775000Y-28225000I0J-250000D01*
G01*
X139775000Y-28900000D01*
G75*
G02*
X139525000Y-29150000I-250000J0D01*
G01*
G37*
%TD.AperFunction*%
%TO.P,C22,1*%
%TO.N,Net-(C18-Pad1)*%
%TA.AperFunction,SMDPad,CuDef*%
G36*
G01*
X139525000Y-31225000D02*
X138575000Y-31225000D01*
G75*
G02*
X138325000Y-30975000I0J250000D01*
G01*
X138325000Y-30300000D01*
G75*
G02*
X138575000Y-30050000I250000J0D01*
G01*
X139525000Y-30050000D01*
G75*
G02*
X139775000Y-30300000I0J-250000D01*
G01*
X139775000Y-30975000D01*
G75*
G02*
X139525000Y-31225000I-250000J0D01*
G01*
G37*
%TD.AperFunction*%
%TD*%
%TO.P,C21,2*%
%TO.N,Net-(C21-Pad2)*%
%TA.AperFunction,SMDPad,CuDef*%
G36*
G01*
X143275000Y-29120000D02*
X142325000Y-29120000D01*
G75*
G02*
X142075000Y-28870000I0J250000D01*
G01*
X142075000Y-28195000D01*
G75*
G02*
X142325000Y-27945000I250000J0D01*
G01*
X143275000Y-27945000D01*
G75*
G02*
X143525000Y-28195000I0J-250000D01*
G01*
X143525000Y-28870000D01*
G75*
G02*
X143275000Y-29120000I-250000J0D01*
G01*
G37*
%TD.AperFunction*%
%TO.P,C21,1*%
%TO.N,Net-(C18-Pad1)*%
%TA.AperFunction,SMDPad,CuDef*%
G36*
G01*
X143275000Y-31195000D02*
X142325000Y-31195000D01*
G75*
G02*
X142075000Y-30945000I0J250000D01*
G01*
X142075000Y-30270000D01*
G75*
G02*
X142325000Y-30020000I250000J0D01*
G01*
X143275000Y-30020000D01*
G75*
G02*
X143525000Y-30270000I0J-250000D01*
G01*
X143525000Y-30945000D01*
G75*
G02*
X143275000Y-31195000I-250000J0D01*
G01*
G37*
%TD.AperFunction*%
%TD*%
%TO.P,C20,2*%
%TO.N,Net-(C18-Pad2)*%
%TA.AperFunction,SMDPad,CuDef*%
G36*
G01*
X127412500Y-27625000D02*
X127412500Y-28575000D01*
G75*
G02*
X127162500Y-28825000I-250000J0D01*
G01*
X126487500Y-28825000D01*
G75*
G02*
X126237500Y-28575000I0J250000D01*
G01*
X126237500Y-27625000D01*
G75*
G02*
X126487500Y-27375000I250000J0D01*
G01*
X127162500Y-27375000D01*
G75*
G02*
X127412500Y-27625000I0J-250000D01*
G01*
G37*
%TD.AperFunction*%
%TO.P,C20,1*%
%TO.N,Net-(C18-Pad1)*%
%TA.AperFunction,SMDPad,CuDef*%
G36*
G01*
X129487500Y-27625000D02*
X129487500Y-28575000D01*
G75*
G02*
X129237500Y-28825000I-250000J0D01*
G01*
X128562500Y-28825000D01*
G75*
G02*
X128312500Y-28575000I0J250000D01*
G01*
X128312500Y-27625000D01*
G75*
G02*
X128562500Y-27375000I250000J0D01*
G01*
X129237500Y-27375000D01*
G75*
G02*
X129487500Y-27625000I0J-250000D01*
G01*
G37*
%TD.AperFunction*%
%TD*%
%TO.P,C19,2*%
%TO.N,Net-(C18-Pad2)*%
%TA.AperFunction,SMDPad,CuDef*%
G36*
G01*
X127412500Y-31125000D02*
X127412500Y-32075000D01*
G75*
G02*
X127162500Y-32325000I-250000J0D01*
G01*
X126487500Y-32325000D01*
G75*
G02*
X126237500Y-32075000I0J250000D01*
G01*
X126237500Y-31125000D01*
G75*
G02*
X126487500Y-30875000I250000J0D01*
G01*
X127162500Y-30875000D01*
G75*
G02*
X127412500Y-31125000I0J-250000D01*
G01*
G37*
%TD.AperFunction*%
%TO.P,C19,1*%
%TO.N,Net-(C18-Pad1)*%
%TA.AperFunction,SMDPad,CuDef*%
G36*
G01*
X129487500Y-31125000D02*
X129487500Y-32075000D01*
G75*
G02*
X129237500Y-32325000I-250000J0D01*
G01*
X128562500Y-32325000D01*
G75*
G02*
X128312500Y-32075000I0J250000D01*
G01*
X128312500Y-31125000D01*
G75*
G02*
X128562500Y-30875000I250000J0D01*
G01*
X129237500Y-30875000D01*
G75*
G02*
X129487500Y-31125000I0J-250000D01*
G01*
G37*
%TD.AperFunction*%
%TD*%
%TO.P,C18,2*%
%TO.N,Net-(C18-Pad2)*%
%TA.AperFunction,SMDPad,CuDef*%
G36*
G01*
X127412500Y-34565000D02*
X127412500Y-35515000D01*
G75*
G02*
X127162500Y-35765000I-250000J0D01*
G01*
X126487500Y-35765000D01*
G75*
G02*
X126237500Y-35515000I0J250000D01*
G01*
X126237500Y-34565000D01*
G75*
G02*
X126487500Y-34315000I250000J0D01*
G01*
X127162500Y-34315000D01*
G75*
G02*
X127412500Y-34565000I0J-250000D01*
G01*
G37*
%TD.AperFunction*%
%TO.P,C18,1*%
%TO.N,Net-(C18-Pad1)*%
%TA.AperFunction,SMDPad,CuDef*%
G36*
G01*
X129487500Y-34565000D02*
X129487500Y-35515000D01*
G75*
G02*
X129237500Y-35765000I-250000J0D01*
G01*
X128562500Y-35765000D01*
G75*
G02*
X128312500Y-35515000I0J250000D01*
G01*
X128312500Y-34565000D01*
G75*
G02*
X128562500Y-34315000I250000J0D01*
G01*
X129237500Y-34315000D01*
G75*
G02*
X129487500Y-34565000I0J-250000D01*
G01*
G37*
%TD.AperFunction*%
%TD*%
%TO.P,C17,2*%
%TO.N,GNDA*%
%TA.AperFunction,SMDPad,CuDef*%
G36*
G01*
X94675000Y-29950000D02*
X93725000Y-29950000D01*
G75*
G02*
X93475000Y-29700000I0J250000D01*
G01*
X93475000Y-29025000D01*
G75*
G02*
X93725000Y-28775000I250000J0D01*
G01*
X94675000Y-28775000D01*
G75*
G02*
X94925000Y-29025000I0J-250000D01*
G01*
X94925000Y-29700000D01*
G75*
G02*
X94675000Y-29950000I-250000J0D01*
G01*
G37*
%TD.AperFunction*%
%TO.P,C17,1*%
%TO.N,VSS*%
%TA.AperFunction,SMDPad,CuDef*%
G36*
G01*
X94675000Y-32025000D02*
X93725000Y-32025000D01*
G75*
G02*
X93475000Y-31775000I0J250000D01*
G01*
X93475000Y-31100000D01*
G75*
G02*
X93725000Y-30850000I250000J0D01*
G01*
X94675000Y-30850000D01*
G75*
G02*
X94925000Y-31100000I0J-250000D01*
G01*
X94925000Y-31775000D01*
G75*
G02*
X94675000Y-32025000I-250000J0D01*
G01*
G37*
%TD.AperFunction*%
%TD*%
%TO.P,C16,2*%
%TO.N,Net-(C13-Pad1)*%
%TA.AperFunction,SMDPad,CuDef*%
G36*
G01*
X108050000Y-44175000D02*
X108050000Y-43225000D01*
G75*
G02*
X108300000Y-42975000I250000J0D01*
G01*
X108975000Y-42975000D01*
G75*
G02*
X109225000Y-43225000I0J-250000D01*
G01*
X109225000Y-44175000D01*
G75*
G02*
X108975000Y-44425000I-250000J0D01*
G01*
X108300000Y-44425000D01*
G75*
G02*
X108050000Y-44175000I0J250000D01*
G01*
G37*
%TD.AperFunction*%
%TO.P,C16,1*%
%TO.N,GNDA*%
%TA.AperFunction,SMDPad,CuDef*%
G36*
G01*
X105975000Y-44175000D02*
X105975000Y-43225000D01*
G75*
G02*
X106225000Y-42975000I250000J0D01*
G01*
X106900000Y-42975000D01*
G75*
G02*
X107150000Y-43225000I0J-250000D01*
G01*
X107150000Y-44175000D01*
G75*
G02*
X106900000Y-44425000I-250000J0D01*
G01*
X106225000Y-44425000D01*
G75*
G02*
X105975000Y-44175000I0J250000D01*
G01*
G37*
%TD.AperFunction*%
%TD*%
%TO.P,C15,2*%
%TO.N,Net-(C1-Pad1)*%
%TA.AperFunction,SMDPad,CuDef*%
G36*
G01*
X102312500Y-26775000D02*
X102312500Y-25825000D01*
G75*
G02*
X102562500Y-25575000I250000J0D01*
G01*
X103237500Y-25575000D01*
G75*
G02*
X103487500Y-25825000I0J-250000D01*
G01*
X103487500Y-26775000D01*
G75*
G02*
X103237500Y-27025000I-250000J0D01*
G01*
X102562500Y-27025000D01*
G75*
G02*
X102312500Y-26775000I0J250000D01*
G01*
G37*
%TD.AperFunction*%
%TO.P,C15,1*%
%TO.N,GNDA*%
%TA.AperFunction,SMDPad,CuDef*%
G36*
G01*
X100237500Y-26775000D02*
X100237500Y-25825000D01*
G75*
G02*
X100487500Y-25575000I250000J0D01*
G01*
X101162500Y-25575000D01*
G75*
G02*
X101412500Y-25825000I0J-250000D01*
G01*
X101412500Y-26775000D01*
G75*
G02*
X101162500Y-27025000I-250000J0D01*
G01*
X100487500Y-27025000D01*
G75*
G02*
X100237500Y-26775000I0J250000D01*
G01*
G37*
%TD.AperFunction*%
%TD*%
%TO.P,C14,2*%
%TO.N,Net-(C13-Pad2)*%
%TA.AperFunction,SMDPad,CuDef*%
G36*
G01*
X104775000Y-42250000D02*
X103825000Y-42250000D01*
G75*
G02*
X103575000Y-42000000I0J250000D01*
G01*
X103575000Y-41325000D01*
G75*
G02*
X103825000Y-41075000I250000J0D01*
G01*
X104775000Y-41075000D01*
G75*
G02*
X105025000Y-41325000I0J-250000D01*
G01*
X105025000Y-42000000D01*
G75*
G02*
X104775000Y-42250000I-250000J0D01*
G01*
G37*
%TD.AperFunction*%
%TO.P,C14,1*%
%TO.N,GNDA*%
%TA.AperFunction,SMDPad,CuDef*%
G36*
G01*
X104775000Y-44325000D02*
X103825000Y-44325000D01*
G75*
G02*
X103575000Y-44075000I0J250000D01*
G01*
X103575000Y-43400000D01*
G75*
G02*
X103825000Y-43150000I250000J0D01*
G01*
X104775000Y-43150000D01*
G75*
G02*
X105025000Y-43400000I0J-250000D01*
G01*
X105025000Y-44075000D01*
G75*
G02*
X104775000Y-44325000I-250000J0D01*
G01*
G37*
%TD.AperFunction*%
%TD*%
%TO.P,C13,2*%
%TO.N,Net-(C13-Pad2)*%
%TA.AperFunction,SMDPad,CuDef*%
G36*
G01*
X107150000Y-38325000D02*
X107150000Y-39275000D01*
G75*
G02*
X106900000Y-39525000I-250000J0D01*
G01*
X106225000Y-39525000D01*
G75*
G02*
X105975000Y-39275000I0J250000D01*
G01*
X105975000Y-38325000D01*
G75*
G02*
X106225000Y-38075000I250000J0D01*
G01*
X106900000Y-38075000D01*
G75*
G02*
X107150000Y-38325000I0J-250000D01*
G01*
G37*
%TD.AperFunction*%
%TO.P,C13,1*%
%TO.N,Net-(C13-Pad1)*%
%TA.AperFunction,SMDPad,CuDef*%
G36*
G01*
X109225000Y-38325000D02*
X109225000Y-39275000D01*
G75*
G02*
X108975000Y-39525000I-250000J0D01*
G01*
X108300000Y-39525000D01*
G75*
G02*
X108050000Y-39275000I0J250000D01*
G01*
X108050000Y-38325000D01*
G75*
G02*
X108300000Y-38075000I250000J0D01*
G01*
X108975000Y-38075000D01*
G75*
G02*
X109225000Y-38325000I0J-250000D01*
G01*
G37*
%TD.AperFunction*%
%TD*%
%TO.P,C12,2*%
%TO.N,GND*%
%TA.AperFunction,SMDPad,CuDef*%
G36*
G01*
X98250000Y-83375000D02*
X98250000Y-82425000D01*
G75*
G02*
X98500000Y-82175000I250000J0D01*
G01*
X99175000Y-82175000D01*
G75*
G02*
X99425000Y-82425000I0J-250000D01*
G01*
X99425000Y-83375000D01*
G75*
G02*
X99175000Y-83625000I-250000J0D01*
G01*
X98500000Y-83625000D01*
G75*
G02*
X98250000Y-83375000I0J250000D01*
G01*
G37*
%TD.AperFunction*%
%TO.P,C12,1*%
%TO.N,Net-(C12-Pad1)*%
%TA.AperFunction,SMDPad,CuDef*%
G36*
G01*
X96175000Y-83375000D02*
X96175000Y-82425000D01*
G75*
G02*
X96425000Y-82175000I250000J0D01*
G01*
X97100000Y-82175000D01*
G75*
G02*
X97350000Y-82425000I0J-250000D01*
G01*
X97350000Y-83375000D01*
G75*
G02*
X97100000Y-83625000I-250000J0D01*
G01*
X96425000Y-83625000D01*
G75*
G02*
X96175000Y-83375000I0J250000D01*
G01*
G37*
%TD.AperFunction*%
%TD*%
%TO.P,C11,2*%
%TO.N,GND*%
%TA.AperFunction,SMDPad,CuDef*%
G36*
G01*
X91625000Y-70900000D02*
X90675000Y-70900000D01*
G75*
G02*
X90425000Y-70650000I0J250000D01*
G01*
X90425000Y-69975000D01*
G75*
G02*
X90675000Y-69725000I250000J0D01*
G01*
X91625000Y-69725000D01*
G75*
G02*
X91875000Y-69975000I0J-250000D01*
G01*
X91875000Y-70650000D01*
G75*
G02*
X91625000Y-70900000I-250000J0D01*
G01*
G37*
%TD.AperFunction*%
%TO.P,C11,1*%
%TO.N,Net-(C11-Pad1)*%
%TA.AperFunction,SMDPad,CuDef*%
G36*
G01*
X91625000Y-72975000D02*
X90675000Y-72975000D01*
G75*
G02*
X90425000Y-72725000I0J250000D01*
G01*
X90425000Y-72050000D01*
G75*
G02*
X90675000Y-71800000I250000J0D01*
G01*
X91625000Y-71800000D01*
G75*
G02*
X91875000Y-72050000I0J-250000D01*
G01*
X91875000Y-72725000D01*
G75*
G02*
X91625000Y-72975000I-250000J0D01*
G01*
G37*
%TD.AperFunction*%
%TD*%
%TO.P,C10,2*%
%TO.N,GND*%
%TA.AperFunction,SMDPad,CuDef*%
G36*
G01*
X90675000Y-65362500D02*
X91625000Y-65362500D01*
G75*
G02*
X91875000Y-65612500I0J-250000D01*
G01*
X91875000Y-66287500D01*
G75*
G02*
X91625000Y-66537500I-250000J0D01*
G01*
X90675000Y-66537500D01*
G75*
G02*
X90425000Y-66287500I0J250000D01*
G01*
X90425000Y-65612500D01*
G75*
G02*
X90675000Y-65362500I250000J0D01*
G01*
G37*
%TD.AperFunction*%
%TO.P,C10,1*%
%TO.N,Net-(C10-Pad1)*%
%TA.AperFunction,SMDPad,CuDef*%
G36*
G01*
X90675000Y-63287500D02*
X91625000Y-63287500D01*
G75*
G02*
X91875000Y-63537500I0J-250000D01*
G01*
X91875000Y-64212500D01*
G75*
G02*
X91625000Y-64462500I-250000J0D01*
G01*
X90675000Y-64462500D01*
G75*
G02*
X90425000Y-64212500I0J250000D01*
G01*
X90425000Y-63537500D01*
G75*
G02*
X90675000Y-63287500I250000J0D01*
G01*
G37*
%TD.AperFunction*%
%TD*%
%TO.P,C9,2*%
%TO.N,GND*%
%TA.AperFunction,SMDPad,CuDef*%
G36*
G01*
X111550000Y-86025000D02*
X111550000Y-86975000D01*
G75*
G02*
X111300000Y-87225000I-250000J0D01*
G01*
X110625000Y-87225000D01*
G75*
G02*
X110375000Y-86975000I0J250000D01*
G01*
X110375000Y-86025000D01*
G75*
G02*
X110625000Y-85775000I250000J0D01*
G01*
X111300000Y-85775000D01*
G75*
G02*
X111550000Y-86025000I0J-250000D01*
G01*
G37*
%TD.AperFunction*%
%TO.P,C9,1*%
%TO.N,/STM32SUPPLY*%
%TA.AperFunction,SMDPad,CuDef*%
G36*
G01*
X113625000Y-86025000D02*
X113625000Y-86975000D01*
G75*
G02*
X113375000Y-87225000I-250000J0D01*
G01*
X112700000Y-87225000D01*
G75*
G02*
X112450000Y-86975000I0J250000D01*
G01*
X112450000Y-86025000D01*
G75*
G02*
X112700000Y-85775000I250000J0D01*
G01*
X113375000Y-85775000D01*
G75*
G02*
X113625000Y-86025000I0J-250000D01*
G01*
G37*
%TD.AperFunction*%
%TD*%
%TO.P,C8,2*%
%TO.N,GND*%
%TA.AperFunction,SMDPad,CuDef*%
G36*
G01*
X101025000Y-78100000D02*
X101975000Y-78100000D01*
G75*
G02*
X102225000Y-78350000I0J-250000D01*
G01*
X102225000Y-79025000D01*
G75*
G02*
X101975000Y-79275000I-250000J0D01*
G01*
X101025000Y-79275000D01*
G75*
G02*
X100775000Y-79025000I0J250000D01*
G01*
X100775000Y-78350000D01*
G75*
G02*
X101025000Y-78100000I250000J0D01*
G01*
G37*
%TD.AperFunction*%
%TO.P,C8,1*%
%TO.N,/STM32SUPPLY*%
%TA.AperFunction,SMDPad,CuDef*%
G36*
G01*
X101025000Y-76025000D02*
X101975000Y-76025000D01*
G75*
G02*
X102225000Y-76275000I0J-250000D01*
G01*
X102225000Y-76950000D01*
G75*
G02*
X101975000Y-77200000I-250000J0D01*
G01*
X101025000Y-77200000D01*
G75*
G02*
X100775000Y-76950000I0J250000D01*
G01*
X100775000Y-76275000D01*
G75*
G02*
X101025000Y-76025000I250000J0D01*
G01*
G37*
%TD.AperFunction*%
%TD*%
%TO.P,C7,2*%
%TO.N,GND*%
%TA.AperFunction,SMDPad,CuDef*%
G36*
G01*
X106550000Y-60875000D02*
X106550000Y-59925000D01*
G75*
G02*
X106800000Y-59675000I250000J0D01*
G01*
X107475000Y-59675000D01*
G75*
G02*
X107725000Y-59925000I0J-250000D01*
G01*
X107725000Y-60875000D01*
G75*
G02*
X107475000Y-61125000I-250000J0D01*
G01*
X106800000Y-61125000D01*
G75*
G02*
X106550000Y-60875000I0J250000D01*
G01*
G37*
%TD.AperFunction*%
%TO.P,C7,1*%
%TO.N,/STM32SUPPLY*%
%TA.AperFunction,SMDPad,CuDef*%
G36*
G01*
X104475000Y-60875000D02*
X104475000Y-59925000D01*
G75*
G02*
X104725000Y-59675000I250000J0D01*
G01*
X105400000Y-59675000D01*
G75*
G02*
X105650000Y-59925000I0J-250000D01*
G01*
X105650000Y-60875000D01*
G75*
G02*
X105400000Y-61125000I-250000J0D01*
G01*
X104725000Y-61125000D01*
G75*
G02*
X104475000Y-60875000I0J250000D01*
G01*
G37*
%TD.AperFunction*%
%TD*%
%TO.P,C6,2*%
%TO.N,GND*%
%TA.AperFunction,SMDPad,CuDef*%
G36*
G01*
X133700000Y-79425000D02*
X133700000Y-78475000D01*
G75*
G02*
X133950000Y-78225000I250000J0D01*
G01*
X134625000Y-78225000D01*
G75*
G02*
X134875000Y-78475000I0J-250000D01*
G01*
X134875000Y-79425000D01*
G75*
G02*
X134625000Y-79675000I-250000J0D01*
G01*
X133950000Y-79675000D01*
G75*
G02*
X133700000Y-79425000I0J250000D01*
G01*
G37*
%TD.AperFunction*%
%TO.P,C6,1*%
%TO.N,/STM32SUPPLY*%
%TA.AperFunction,SMDPad,CuDef*%
G36*
G01*
X131625000Y-79425000D02*
X131625000Y-78475000D01*
G75*
G02*
X131875000Y-78225000I250000J0D01*
G01*
X132550000Y-78225000D01*
G75*
G02*
X132800000Y-78475000I0J-250000D01*
G01*
X132800000Y-79425000D01*
G75*
G02*
X132550000Y-79675000I-250000J0D01*
G01*
X131875000Y-79675000D01*
G75*
G02*
X131625000Y-79425000I0J250000D01*
G01*
G37*
%TD.AperFunction*%
%TD*%
%TO.P,C5,2*%
%TO.N,GND*%
%TA.AperFunction,SMDPad,CuDef*%
G36*
G01*
X120850000Y-83725000D02*
X120850000Y-82775000D01*
G75*
G02*
X121100000Y-82525000I250000J0D01*
G01*
X121775000Y-82525000D01*
G75*
G02*
X122025000Y-82775000I0J-250000D01*
G01*
X122025000Y-83725000D01*
G75*
G02*
X121775000Y-83975000I-250000J0D01*
G01*
X121100000Y-83975000D01*
G75*
G02*
X120850000Y-83725000I0J250000D01*
G01*
G37*
%TD.AperFunction*%
%TO.P,C5,1*%
%TO.N,/STM32SUPPLY*%
%TA.AperFunction,SMDPad,CuDef*%
G36*
G01*
X118775000Y-83725000D02*
X118775000Y-82775000D01*
G75*
G02*
X119025000Y-82525000I250000J0D01*
G01*
X119700000Y-82525000D01*
G75*
G02*
X119950000Y-82775000I0J-250000D01*
G01*
X119950000Y-83725000D01*
G75*
G02*
X119700000Y-83975000I-250000J0D01*
G01*
X119025000Y-83975000D01*
G75*
G02*
X118775000Y-83725000I0J250000D01*
G01*
G37*
%TD.AperFunction*%
%TD*%
%TO.P,C4,2*%
%TO.N,GND*%
%TA.AperFunction,SMDPad,CuDef*%
G36*
G01*
X133900000Y-75675000D02*
X133900000Y-74725000D01*
G75*
G02*
X134150000Y-74475000I250000J0D01*
G01*
X134825000Y-74475000D01*
G75*
G02*
X135075000Y-74725000I0J-250000D01*
G01*
X135075000Y-75675000D01*
G75*
G02*
X134825000Y-75925000I-250000J0D01*
G01*
X134150000Y-75925000D01*
G75*
G02*
X133900000Y-75675000I0J250000D01*
G01*
G37*
%TD.AperFunction*%
%TO.P,C4,1*%
%TO.N,/STM32SUPPLY*%
%TA.AperFunction,SMDPad,CuDef*%
G36*
G01*
X131825000Y-75675000D02*
X131825000Y-74725000D01*
G75*
G02*
X132075000Y-74475000I250000J0D01*
G01*
X132750000Y-74475000D01*
G75*
G02*
X133000000Y-74725000I0J-250000D01*
G01*
X133000000Y-75675000D01*
G75*
G02*
X132750000Y-75925000I-250000J0D01*
G01*
X132075000Y-75925000D01*
G75*
G02*
X131825000Y-75675000I0J250000D01*
G01*
G37*
%TD.AperFunction*%
%TD*%
%TO.P,C3,2*%
%TO.N,GND*%
%TA.AperFunction,SMDPad,CuDef*%
G36*
G01*
X121000000Y-79725000D02*
X121000000Y-78775000D01*
G75*
G02*
X121250000Y-78525000I250000J0D01*
G01*
X121925000Y-78525000D01*
G75*
G02*
X122175000Y-78775000I0J-250000D01*
G01*
X122175000Y-79725000D01*
G75*
G02*
X121925000Y-79975000I-250000J0D01*
G01*
X121250000Y-79975000D01*
G75*
G02*
X121000000Y-79725000I0J250000D01*
G01*
G37*
%TD.AperFunction*%
%TO.P,C3,1*%
%TO.N,/STM32SUPPLY*%
%TA.AperFunction,SMDPad,CuDef*%
G36*
G01*
X118925000Y-79725000D02*
X118925000Y-78775000D01*
G75*
G02*
X119175000Y-78525000I250000J0D01*
G01*
X119850000Y-78525000D01*
G75*
G02*
X120100000Y-78775000I0J-250000D01*
G01*
X120100000Y-79725000D01*
G75*
G02*
X119850000Y-79975000I-250000J0D01*
G01*
X119175000Y-79975000D01*
G75*
G02*
X118925000Y-79725000I0J250000D01*
G01*
G37*
%TD.AperFunction*%
%TD*%
%TO.P,C2,2*%
%TO.N,Net-(C1-Pad2)*%
%TA.AperFunction,SMDPad,CuDef*%
G36*
G01*
X100125000Y-30950000D02*
X101075000Y-30950000D01*
G75*
G02*
X101325000Y-31200000I0J-250000D01*
G01*
X101325000Y-31875000D01*
G75*
G02*
X101075000Y-32125000I-250000J0D01*
G01*
X100125000Y-32125000D01*
G75*
G02*
X99875000Y-31875000I0J250000D01*
G01*
X99875000Y-31200000D01*
G75*
G02*
X100125000Y-30950000I250000J0D01*
G01*
G37*
%TD.AperFunction*%
%TO.P,C2,1*%
%TO.N,GNDA*%
%TA.AperFunction,SMDPad,CuDef*%
G36*
G01*
X100125000Y-28875000D02*
X101075000Y-28875000D01*
G75*
G02*
X101325000Y-29125000I0J-250000D01*
G01*
X101325000Y-29800000D01*
G75*
G02*
X101075000Y-30050000I-250000J0D01*
G01*
X100125000Y-30050000D01*
G75*
G02*
X99875000Y-29800000I0J250000D01*
G01*
X99875000Y-29125000D01*
G75*
G02*
X100125000Y-28875000I250000J0D01*
G01*
G37*
%TD.AperFunction*%
%TD*%
%TO.P,C1,2*%
%TO.N,Net-(C1-Pad2)*%
%TA.AperFunction,SMDPad,CuDef*%
G36*
G01*
X102625000Y-30950000D02*
X103575000Y-30950000D01*
G75*
G02*
X103825000Y-31200000I0J-250000D01*
G01*
X103825000Y-31875000D01*
G75*
G02*
X103575000Y-32125000I-250000J0D01*
G01*
X102625000Y-32125000D01*
G75*
G02*
X102375000Y-31875000I0J250000D01*
G01*
X102375000Y-31200000D01*
G75*
G02*
X102625000Y-30950000I250000J0D01*
G01*
G37*
%TD.AperFunction*%
%TO.P,C1,1*%
%TO.N,Net-(C1-Pad1)*%
%TA.AperFunction,SMDPad,CuDef*%
G36*
G01*
X102625000Y-28875000D02*
X103575000Y-28875000D01*
G75*
G02*
X103825000Y-29125000I0J-250000D01*
G01*
X103825000Y-29800000D01*
G75*
G02*
X103575000Y-30050000I-250000J0D01*
G01*
X102625000Y-30050000D01*
G75*
G02*
X102375000Y-29800000I0J250000D01*
G01*
X102375000Y-29125000D01*
G75*
G02*
X102625000Y-28875000I250000J0D01*
G01*
G37*
%TD.AperFunction*%
%TD*%
D27*
%TO.N,GNDA*%
X101800000Y-29500000D03*
X101800000Y-32400000D03*
X102650000Y-39700000D03*
%TO.N,GND*%
X111350000Y-58850000D03*
X136950000Y-39700000D03*
X136950000Y-38000000D03*
X105150000Y-70300000D03*
X108450000Y-62050000D03*
X133720000Y-49480000D03*
X146967500Y-32967500D03*
X142050000Y-32150000D03*
X140350000Y-31208700D03*
D28*
X137850000Y-36701200D03*
X108584996Y-73555456D03*
X138600000Y-67300000D03*
X139192000Y-71882000D03*
D27*
%TO.N,/STM32SUPPLY*%
X117750000Y-75350000D03*
X108810000Y-67690000D03*
X109050000Y-71150000D03*
X131000000Y-75250000D03*
D28*
X139050000Y-73550000D03*
X145637500Y-65437500D03*
D27*
X127800000Y-69198800D03*
%TO.N,Net-(C13-Pad2)*%
X103600000Y-35550000D03*
X103600000Y-36945010D03*
%TO.N,VSS*%
X94250000Y-32900000D03*
X99499887Y-35560000D03*
%TO.N,Net-(C18-Pad1)*%
X132100000Y-33400000D03*
X138300000Y-32500000D03*
%TO.N,Net-(C21-Pad2)*%
X145750000Y-33950000D03*
X144779990Y-32512000D03*
%TO.N,Net-(C29-Pad1)*%
X151100000Y-37300000D03*
X146550000Y-39900000D03*
X162750000Y-27850000D03*
D28*
%TO.N,/WirelessReciverOut*%
X138050000Y-34498800D03*
D27*
X148600000Y-24250000D03*
%TO.N,+BATT*%
X101150000Y-42450000D03*
X96738798Y-42438798D03*
%TO.N,/LoRaEN*%
X124700000Y-57400000D03*
X115000000Y-67700000D03*
%TO.N,/LoRaIRQ*%
X125300000Y-58200000D03*
X116000000Y-68100000D03*
%TO.N,/SPI2_MISO*%
X112400000Y-68999998D03*
%TO.N,/SPI2_MOSI*%
X111500000Y-70000000D03*
%TO.N,/SPI2_SSN*%
X132300000Y-60600000D03*
%TO.N,/LoRaRST*%
X142200000Y-51000000D03*
X129000000Y-58554990D03*
D28*
%TO.N,/USART_RX*%
X105400000Y-75100000D03*
D27*
%TO.N,/USART_TX*%
X104900000Y-73100000D03*
%TO.N,/I2C1_SDA*%
X110500000Y-65800000D03*
%TO.N,/I2C1_SCL*%
X111800000Y-65600000D03*
%TO.N,Net-(R13-Pad1)*%
X142400000Y-39800000D03*
X141300000Y-44900000D03*
%TO.N,Net-(R18-Pad1)*%
X128100000Y-44300000D03*
X143300000Y-37700000D03*
%TO.N,/MAG_RDY*%
X124900000Y-63300000D03*
X133450000Y-66150000D03*
%TO.N,/SPI1_SSN*%
X119900000Y-69200000D03*
D28*
X138850000Y-72800000D03*
D27*
%TO.N,/SPI1_MOSI*%
X112009526Y-73040248D03*
X119126000Y-74168000D03*
%TO.N,/SPI1_MISO*%
X111400000Y-72150000D03*
X120100000Y-73256191D03*
%TO.N,/SPI1_SCK*%
X111050000Y-71200000D03*
X124393217Y-72491298D03*
%TO.N,Net-(L2-Pad1)*%
X100659269Y-35675002D03*
X102108001Y-36576000D03*
%TO.N,Net-(L1-Pad1)*%
X100100000Y-24600000D03*
X99822000Y-34544000D03*
%TD*%
D29*
%TO.N,Net-(C1-Pad2)*%
X101442500Y-31500000D02*
X101450000Y-31507500D01*
X98100000Y-31500000D02*
X101442500Y-31500000D01*
X98100000Y-31500000D02*
X97750000Y-31850000D01*
X103100000Y-31537500D02*
X100600000Y-31537500D01*
X103137500Y-31500000D02*
X103100000Y-31537500D01*
X105600000Y-31500000D02*
X103137500Y-31500000D01*
X97850000Y-31750000D02*
X97850000Y-37440000D01*
X98100000Y-31500000D02*
X97850000Y-31750000D01*
%TO.N,Net-(C1-Pad1)*%
X103100000Y-29462500D02*
X103100000Y-29500000D01*
X103100000Y-29500000D02*
X105600000Y-29500000D01*
X105900000Y-29200000D02*
X105600000Y-29500000D01*
X111300000Y-29200000D02*
X105900000Y-29200000D01*
X102950000Y-23400000D02*
X102850000Y-23300000D01*
X102950000Y-27000000D02*
X102950000Y-23400000D01*
X103100000Y-27150000D02*
X102950000Y-27000000D01*
X103100000Y-29462500D02*
X103100000Y-27150000D01*
%TO.N,GNDA*%
X101732500Y-29432500D02*
X101167500Y-29432500D01*
X104262500Y-43700000D02*
X104300000Y-43737500D01*
X97962500Y-29362500D02*
X98100000Y-29500000D01*
X94200000Y-29362500D02*
X97962500Y-29362500D01*
X100600000Y-29462500D02*
X100462500Y-29462500D01*
X106525000Y-43737500D02*
X106562500Y-43700000D01*
X104300000Y-43737500D02*
X106525000Y-43737500D01*
X100562500Y-29500000D02*
X100600000Y-29462500D01*
X98100000Y-29500000D02*
X100562500Y-29500000D01*
X100600000Y-26525000D02*
X100825000Y-26300000D01*
X100600000Y-29462500D02*
X100600000Y-26525000D01*
X101732500Y-29432500D02*
X101800000Y-29500000D01*
X101800000Y-33400000D02*
X101600000Y-33600000D01*
X101800000Y-32400000D02*
X101800000Y-33400000D01*
X99600000Y-33600000D02*
X101600000Y-33600000D01*
X98350000Y-34850000D02*
X99600000Y-33600000D01*
X98350000Y-37440000D02*
X98350000Y-34850000D01*
X102650000Y-42087500D02*
X104300000Y-43737500D01*
X102650000Y-39700000D02*
X102650000Y-42087500D01*
X101600000Y-35621396D02*
X101208998Y-36012398D01*
X101600000Y-33600000D02*
X101600000Y-35621396D01*
X100350000Y-37064000D02*
X100350000Y-37440000D01*
X101208998Y-36012398D02*
X101208998Y-36205002D01*
X101208998Y-36205002D02*
X100350000Y-37064000D01*
%TO.N,GND*%
X118235000Y-66000000D02*
X118235000Y-66010000D01*
X119300000Y-66000000D02*
X118235000Y-66000000D01*
X121000000Y-64300000D02*
X119300000Y-66000000D01*
X121000000Y-59700000D02*
X121000000Y-64300000D01*
X124300000Y-56400000D02*
X121000000Y-59700000D01*
X129100000Y-56400000D02*
X124300000Y-56400000D01*
X132800000Y-55500000D02*
X130000000Y-55500000D01*
X133720000Y-54580000D02*
X132800000Y-55500000D01*
X130000000Y-55500000D02*
X129100000Y-56400000D01*
X133720000Y-54100000D02*
X133720000Y-54580000D01*
X110962500Y-86500000D02*
X110962500Y-86387500D01*
X110560000Y-85985000D02*
X110560000Y-82900000D01*
X110962500Y-86387500D02*
X110560000Y-85985000D01*
D30*
X92545000Y-53520000D02*
X92280000Y-53520000D01*
D31*
X92545000Y-53520000D02*
X92545000Y-53595000D01*
X92545000Y-53595000D02*
X92545000Y-57240000D01*
X91150000Y-70312500D02*
X91150000Y-70350000D01*
X91150000Y-70350000D02*
X91150000Y-65950000D01*
X90600000Y-82900000D02*
X90500000Y-82800000D01*
X138800000Y-44800000D02*
X138250000Y-44800000D01*
X138800000Y-44800000D02*
X138800000Y-45850000D01*
X138800000Y-45850000D02*
X139500000Y-46550000D01*
X144087500Y-46550000D02*
X145800000Y-44837500D01*
X139500000Y-46550000D02*
X144087500Y-46550000D01*
X132800000Y-44250000D02*
X136950000Y-44250000D01*
X137500000Y-44800000D02*
X138800000Y-44800000D01*
X136950000Y-44250000D02*
X137500000Y-44800000D01*
X126750000Y-39225000D02*
X126975000Y-39000000D01*
X126750000Y-42250000D02*
X126750000Y-39225000D01*
X98837500Y-82900000D02*
X100500000Y-82900000D01*
X104100000Y-86500000D02*
X110962500Y-86500000D01*
X100500000Y-82900000D02*
X104100000Y-86500000D01*
X90600000Y-82900000D02*
X90600000Y-75150000D01*
X90600000Y-75150000D02*
X89600000Y-74150000D01*
X89600000Y-71862500D02*
X91150000Y-70312500D01*
X89600000Y-74150000D02*
X89600000Y-71862500D01*
X116700000Y-23500000D02*
X125950000Y-23500000D01*
X125950000Y-23500000D02*
X127900000Y-21550000D01*
X129950000Y-21550000D02*
X131700000Y-23300000D01*
X127900000Y-21550000D02*
X129950000Y-21550000D01*
X150550000Y-26037500D02*
X158900000Y-26037500D01*
X160810000Y-32920000D02*
X148697500Y-32920000D01*
X132800000Y-45450000D02*
X132800000Y-44250000D01*
D32*
X139725000Y-67800000D02*
X139725000Y-66775000D01*
X139725000Y-66775000D02*
X140050000Y-66450000D01*
X140050000Y-66450000D02*
X140800000Y-66450000D01*
X141100000Y-66750000D02*
X141100000Y-67225000D01*
D31*
X111350000Y-58950000D02*
X112850000Y-60450000D01*
X111350000Y-58850000D02*
X111350000Y-58950000D01*
D29*
X106885000Y-71010000D02*
X106940000Y-71010000D01*
D31*
X158900000Y-26037500D02*
X159487500Y-26037500D01*
X159487500Y-26037500D02*
X162950000Y-29500000D01*
X162950000Y-31850000D02*
X161880000Y-32920000D01*
X162950000Y-29500000D02*
X162950000Y-31850000D01*
X161880000Y-32920000D02*
X160810000Y-32920000D01*
D29*
X141510000Y-33350000D02*
X141510000Y-32610000D01*
X141510000Y-32610000D02*
X141200000Y-32300000D01*
X141200000Y-32300000D02*
X140400000Y-32300000D01*
X140010000Y-32690000D02*
X140010000Y-33350000D01*
X140400000Y-32300000D02*
X140010000Y-32690000D01*
X139110000Y-37100000D02*
X139110000Y-37160000D01*
X139300000Y-37350000D02*
X140010000Y-37350000D01*
X139110000Y-37160000D02*
X139300000Y-37350000D01*
X136950000Y-44250000D02*
X136950000Y-39700000D01*
X106885000Y-71010000D02*
X105660000Y-71010000D01*
X105150000Y-70500000D02*
X105150000Y-70300000D01*
X105660000Y-71010000D02*
X105150000Y-70500000D01*
X108450000Y-62050000D02*
X109150000Y-62050000D01*
X109150000Y-62050000D02*
X109310000Y-62210000D01*
X109310000Y-63585000D02*
X109310000Y-62210000D01*
D31*
X131850000Y-46400000D02*
X132800000Y-45450000D01*
X133720000Y-48270000D02*
X131850000Y-46400000D01*
X133720000Y-49480000D02*
X133720000Y-48270000D01*
D29*
X148650000Y-32967500D02*
X148697500Y-32920000D01*
X148650000Y-32967500D02*
X146967500Y-32967500D01*
X141590000Y-32610000D02*
X141510000Y-32610000D01*
X142050000Y-32150000D02*
X141590000Y-32610000D01*
D30*
X140350000Y-32250000D02*
X140400000Y-32300000D01*
X140350000Y-31208700D02*
X140350000Y-32250000D01*
X101500000Y-81650000D02*
X101500000Y-78687500D01*
X100300000Y-82850000D02*
X101500000Y-81650000D01*
X121587500Y-79250000D02*
X121587500Y-82137500D01*
X121437500Y-82287500D02*
X121437500Y-83250000D01*
X121587500Y-82137500D02*
X121437500Y-82287500D01*
X134287500Y-75400000D02*
X134487500Y-75200000D01*
X134287500Y-78950000D02*
X134287500Y-75400000D01*
X121587500Y-79250000D02*
X130050000Y-79250000D01*
X130050000Y-79250000D02*
X131500000Y-80700000D01*
X132537500Y-80700000D02*
X134287500Y-78950000D01*
X131500000Y-80700000D02*
X132537500Y-80700000D01*
X137850000Y-36700000D02*
X137850000Y-36701200D01*
D29*
X107137500Y-60737500D02*
X108450000Y-62050000D01*
X107137500Y-60400000D02*
X107137500Y-60737500D01*
D31*
X90600000Y-82900000D02*
X90600000Y-84650000D01*
X90600000Y-84650000D02*
X91850000Y-85900000D01*
X91850000Y-85900000D02*
X97000000Y-85900000D01*
X98837500Y-84062500D02*
X98837500Y-82900000D01*
X97000000Y-85900000D02*
X98837500Y-84062500D01*
D29*
X92545000Y-52645000D02*
X92545000Y-53520000D01*
X100350000Y-41240000D02*
X100350000Y-44200000D01*
X100350000Y-44200000D02*
X101300000Y-45150000D01*
X101300000Y-46862162D02*
X96362162Y-51800000D01*
X101300000Y-45150000D02*
X101300000Y-46862162D01*
X93390000Y-51800000D02*
X92545000Y-52645000D01*
X96362162Y-51800000D02*
X93390000Y-51800000D01*
X134487500Y-75200000D02*
X134650000Y-75200000D01*
X135388710Y-74298790D02*
X134487500Y-75200000D01*
X140001210Y-74298790D02*
X135388710Y-74298790D01*
X141900000Y-72400000D02*
X140001210Y-74298790D01*
X141900000Y-70775000D02*
X141900000Y-72400000D01*
X138650000Y-67250000D02*
X138600000Y-67300000D01*
X138650000Y-66650000D02*
X138650000Y-67250000D01*
D30*
X135900000Y-66650000D02*
X138650000Y-66650000D01*
D32*
X138650000Y-66650000D02*
X139850000Y-66650000D01*
D31*
X125222000Y-45466000D02*
X126156000Y-46400000D01*
X125222000Y-43378000D02*
X125222000Y-45466000D01*
X126156000Y-46400000D02*
X131850000Y-46400000D01*
X126350000Y-42250000D02*
X125222000Y-43378000D01*
X126750000Y-42250000D02*
X126350000Y-42250000D01*
D32*
X140800000Y-66450000D02*
X141100000Y-66750000D01*
D29*
X110314000Y-58850000D02*
X111350000Y-58850000D01*
X109310000Y-59854000D02*
X110314000Y-58850000D01*
X109310000Y-62210000D02*
X109310000Y-59854000D01*
D31*
X91010000Y-57240000D02*
X92545000Y-57240000D01*
X89408000Y-58842000D02*
X91010000Y-57240000D01*
X89408000Y-64791000D02*
X89408000Y-58842000D01*
X90567000Y-65950000D02*
X89408000Y-64791000D01*
X91150000Y-65950000D02*
X90567000Y-65950000D01*
D29*
X136950000Y-37601200D02*
X137850000Y-36701200D01*
X136950000Y-38000000D02*
X136950000Y-37601200D01*
X138232800Y-37084000D02*
X137850000Y-36701200D01*
X139094000Y-37084000D02*
X138232800Y-37084000D01*
X139110000Y-37100000D02*
X139094000Y-37084000D01*
X108800000Y-81140000D02*
X110560000Y-82900000D01*
X108850000Y-76950000D02*
X108800000Y-76950000D01*
X108800000Y-76950000D02*
X108800000Y-81140000D01*
X109220000Y-76580000D02*
X108850000Y-76950000D01*
X109220000Y-76200000D02*
X109220000Y-76580000D01*
X109310000Y-76110000D02*
X109220000Y-76200000D01*
X109310000Y-74935000D02*
X109310000Y-76110000D01*
X109310000Y-74160000D02*
X109310000Y-74935000D01*
X108705456Y-73555456D02*
X109310000Y-74160000D01*
X108584996Y-73555456D02*
X108705456Y-73555456D01*
X96655778Y-43434000D02*
X94996000Y-43434000D01*
X93730000Y-44700000D02*
X91700000Y-44700000D01*
X98350000Y-41739778D02*
X96655778Y-43434000D01*
X94996000Y-43434000D02*
X93730000Y-44700000D01*
X91450000Y-51550000D02*
X92545000Y-52645000D01*
X91700000Y-44700000D02*
X91450000Y-44950000D01*
X98350000Y-41240000D02*
X98350000Y-41739778D01*
X91450000Y-44950000D02*
X91450000Y-51550000D01*
X115810000Y-73790000D02*
X115810000Y-74935000D01*
X115950000Y-73650000D02*
X115810000Y-73790000D01*
X117265889Y-73650000D02*
X115950000Y-73650000D01*
X121587500Y-77971611D02*
X117265889Y-73650000D01*
X121587500Y-79250000D02*
X121587500Y-77971611D01*
X138800000Y-71900000D02*
X138818000Y-71882000D01*
X137787500Y-71900000D02*
X138800000Y-71900000D01*
X138818000Y-71882000D02*
X139192000Y-71882000D01*
X135388710Y-74298790D02*
X137787500Y-71900000D01*
D32*
X140700000Y-70775000D02*
X140700000Y-71136000D01*
X140300000Y-71700000D02*
X139374000Y-71700000D01*
X140700000Y-71300000D02*
X140300000Y-71700000D01*
X139374000Y-71700000D02*
X139192000Y-71882000D01*
X140700000Y-71100000D02*
X140700000Y-71300000D01*
D29*
%TO.N,/STM32SUPPLY*%
X119200000Y-64620000D02*
X119200000Y-54100000D01*
X118310000Y-65510000D02*
X119200000Y-64620000D01*
X118235000Y-65510000D02*
X118310000Y-65510000D01*
X116310000Y-76290000D02*
X116310000Y-74935000D01*
X113100000Y-79500000D02*
X116310000Y-76290000D01*
X113100000Y-79600000D02*
X113100000Y-79500000D01*
X113100000Y-82900000D02*
X113100000Y-79600000D01*
X113037500Y-82962500D02*
X113100000Y-82900000D01*
X113037500Y-86500000D02*
X113037500Y-82962500D01*
X124160000Y-54100000D02*
X124260000Y-54200000D01*
X119200000Y-54100000D02*
X124160000Y-54100000D01*
X124360000Y-54100000D02*
X124260000Y-54200000D01*
X116725000Y-75350000D02*
X116310000Y-74935000D01*
X117750000Y-75350000D02*
X116725000Y-75350000D01*
X124360000Y-52290000D02*
X124400000Y-52250000D01*
X124360000Y-52290000D02*
X124360000Y-54100000D01*
X124360000Y-49100000D02*
X124360000Y-52060000D01*
X124360000Y-52060000D02*
X124360000Y-52290000D01*
X145200000Y-56550000D02*
X146650000Y-58000000D01*
X145200000Y-52450000D02*
X145200000Y-56550000D01*
X144810000Y-52060000D02*
X145200000Y-52450000D01*
X124360000Y-52060000D02*
X144810000Y-52060000D01*
X106885000Y-71510000D02*
X108010000Y-71510000D01*
X108810000Y-63585000D02*
X108810000Y-67690000D01*
X109050000Y-71510000D02*
X109050000Y-71150000D01*
X108010000Y-71510000D02*
X109050000Y-71510000D01*
D30*
X106885000Y-71510000D02*
X104890000Y-71510000D01*
X101500000Y-74900000D02*
X101500000Y-76612500D01*
X104890000Y-71510000D02*
X101500000Y-74900000D01*
X119512500Y-83100000D02*
X119362500Y-83250000D01*
X119512500Y-79250000D02*
X119512500Y-83100000D01*
X119512500Y-79250000D02*
X119512500Y-78362500D01*
X117750000Y-76600000D02*
X117750000Y-75350000D01*
X119512500Y-78362500D02*
X117750000Y-76600000D01*
X132212500Y-75400000D02*
X132412500Y-75200000D01*
X132212500Y-78950000D02*
X132212500Y-75400000D01*
X132362500Y-75250000D02*
X132412500Y-75200000D01*
X131000000Y-75250000D02*
X132362500Y-75250000D01*
D29*
X105062500Y-60400000D02*
X104900000Y-60400000D01*
X108085000Y-63585000D02*
X108810000Y-63585000D01*
X104900000Y-60400000D02*
X108085000Y-63585000D01*
X140050000Y-73550000D02*
X139050000Y-73550000D01*
X141500000Y-72100000D02*
X140050000Y-73550000D01*
X141500000Y-70775000D02*
X141500000Y-72100000D01*
X145637500Y-65437500D02*
X143275000Y-67800000D01*
X127750000Y-69473790D02*
X127750000Y-69248800D01*
D32*
X134028630Y-69473790D02*
X127750000Y-69473790D01*
D29*
X127750000Y-69248800D02*
X127800000Y-69198800D01*
D32*
X135236514Y-69451210D02*
X134051210Y-69451210D01*
X135255314Y-69470010D02*
X135236514Y-69451210D01*
X136544686Y-69470010D02*
X135255314Y-69470010D01*
X136563486Y-69451210D02*
X136544686Y-69470010D01*
X139673790Y-69451210D02*
X136563486Y-69451210D01*
X139725000Y-69400000D02*
X139673790Y-69451210D01*
D29*
X113100000Y-78890622D02*
X113100000Y-79600000D01*
X110164388Y-75955010D02*
X113100000Y-78890622D01*
X110102446Y-75955010D02*
X110164388Y-75955010D01*
X109914990Y-75767554D02*
X110102446Y-75955010D01*
X109914990Y-75705612D02*
X109914990Y-75767554D01*
X109810000Y-75600622D02*
X109914990Y-75705612D01*
X108010000Y-71510000D02*
X109110000Y-71510000D01*
X109110000Y-71510000D02*
X109150000Y-71550000D01*
X109150000Y-71550000D02*
X109150000Y-73350000D01*
X109150000Y-73350000D02*
X109810000Y-74010000D01*
X109810000Y-74010000D02*
X109810000Y-74935000D01*
X146650000Y-58000000D02*
X146650000Y-61850000D01*
X146650000Y-61850000D02*
X146000000Y-62500000D01*
X146000000Y-65075000D02*
X145637500Y-65437500D01*
X146000000Y-62500000D02*
X146000000Y-65075000D01*
%TO.N,Net-(C10-Pad1)*%
X97320000Y-63740000D02*
X100990000Y-63740000D01*
X100990000Y-63740000D02*
X104760000Y-67510000D01*
X104760000Y-67510000D02*
X106885000Y-67510000D01*
X97285000Y-63775000D02*
X97320000Y-63740000D01*
X97185000Y-63875000D02*
X97320000Y-63740000D01*
X91150000Y-63875000D02*
X97185000Y-63875000D01*
%TO.N,Net-(C11-Pad1)*%
X91150000Y-72400000D02*
X91210000Y-72340000D01*
X91150000Y-72387500D02*
X91150000Y-72400000D01*
X97320000Y-72240000D02*
X100710000Y-72240000D01*
X100710000Y-72240000D02*
X104940000Y-68010000D01*
X104940000Y-68010000D02*
X106885000Y-68010000D01*
X97172500Y-72387500D02*
X97320000Y-72240000D01*
X91150000Y-72387500D02*
X97172500Y-72387500D01*
%TO.N,Net-(C12-Pad1)*%
X94000000Y-82900000D02*
X96762500Y-82900000D01*
X96762500Y-82900000D02*
X96762500Y-77337500D01*
X105590000Y-68510000D02*
X106885000Y-68510000D01*
X96762500Y-77337500D02*
X105590000Y-68510000D01*
%TO.N,Net-(C13-Pad2)*%
X104262500Y-41700000D02*
X104300000Y-41662500D01*
X103800000Y-41162500D02*
X104300000Y-41662500D01*
X106562500Y-38800000D02*
X106562500Y-37762500D01*
X106562500Y-37762500D02*
X106100000Y-37300000D01*
X106562500Y-38800000D02*
X106100000Y-38800000D01*
X106600000Y-38837500D02*
X106562500Y-38800000D01*
X106600000Y-41200000D02*
X106600000Y-38737500D01*
X106137500Y-41662500D02*
X106600000Y-41200000D01*
X104300000Y-41662500D02*
X106137500Y-41662500D01*
X100850000Y-37440000D02*
X100990000Y-37300000D01*
X106100000Y-37300000D02*
X101100000Y-37300000D01*
X103600000Y-33600000D02*
X103600000Y-35550000D01*
X103600000Y-37400000D02*
X103600000Y-36945010D01*
%TO.N,Net-(C13-Pad1)*%
X108600000Y-38837500D02*
X108637500Y-38800000D01*
X108600000Y-41200000D02*
X108600000Y-38737500D01*
X108750000Y-41350000D02*
X108600000Y-41200000D01*
X108750000Y-43700000D02*
X108750000Y-41350000D01*
X108637500Y-36487500D02*
X108450000Y-36300000D01*
X108637500Y-38800000D02*
X108637500Y-36487500D01*
X111300000Y-36300000D02*
X111400000Y-36400000D01*
X108450000Y-36300000D02*
X111300000Y-36300000D01*
%TO.N,VSS*%
X94250000Y-31487500D02*
X94200000Y-31437500D01*
X94250000Y-32900000D02*
X94250000Y-31487500D01*
X99350000Y-35709887D02*
X99499887Y-35560000D01*
X99350000Y-37440000D02*
X99350000Y-35709887D01*
%TO.N,Net-(C18-Pad2)*%
X126825000Y-28100000D02*
X126825000Y-35040000D01*
X139510000Y-22600000D02*
X139510000Y-22710000D01*
D30*
X139510000Y-24040000D02*
X139510000Y-22600000D01*
X137650000Y-25900000D02*
X139510000Y-24040000D01*
X129025000Y-25900000D02*
X137650000Y-25900000D01*
X126825000Y-28100000D02*
X129025000Y-25900000D01*
D29*
%TO.N,Net-(C18-Pad1)*%
X128900000Y-35040000D02*
X128900000Y-28100000D01*
X128900000Y-28100000D02*
X128900000Y-27600000D01*
X131826500Y-28100000D02*
X131992500Y-27934000D01*
X128900000Y-28100000D02*
X131826500Y-28100000D01*
X131804500Y-31600000D02*
X131992500Y-31412000D01*
X128900000Y-31600000D02*
X131804500Y-31600000D01*
X128900000Y-35040000D02*
X128900000Y-35100000D01*
X129110000Y-34890000D02*
X131992500Y-34890000D01*
X128900000Y-35100000D02*
X129110000Y-34890000D01*
X131992500Y-33507500D02*
X132100000Y-33400000D01*
X131992500Y-34890000D02*
X131992500Y-33507500D01*
X139110000Y-30697500D02*
X139050000Y-30637500D01*
X138900000Y-32500000D02*
X139110000Y-32710000D01*
X138300000Y-32500000D02*
X138900000Y-32500000D01*
X139110000Y-32710000D02*
X139110000Y-30697500D01*
X139110000Y-33600000D02*
X139110000Y-32710000D01*
X139461500Y-30226000D02*
X139050000Y-30637500D01*
X142418500Y-30226000D02*
X139461500Y-30226000D01*
X142800000Y-30607500D02*
X142418500Y-30226000D01*
%TO.N,Net-(C21-Pad2)*%
X156607500Y-36894000D02*
X156607500Y-43850000D01*
X142800000Y-28532500D02*
X142800000Y-28400000D01*
X139212500Y-28400000D02*
X139050000Y-28562500D01*
X142800000Y-28400000D02*
X139212500Y-28400000D01*
X142800000Y-28532500D02*
X143532500Y-28532500D01*
X143532500Y-28532500D02*
X143900000Y-28900000D01*
X142900000Y-33600000D02*
X142410000Y-33600000D01*
X143900000Y-32600000D02*
X142900000Y-33600000D01*
D30*
X142050000Y-27782500D02*
X142800000Y-28532500D01*
X142050000Y-22600000D02*
X142050000Y-27782500D01*
D29*
X156607500Y-36894000D02*
X153663500Y-33950000D01*
X153663500Y-33950000D02*
X145850000Y-33950000D01*
X145850000Y-33950000D02*
X145750000Y-33950000D01*
X143900000Y-31800000D02*
X143900000Y-32600000D01*
X143900000Y-28900000D02*
X143900000Y-31800000D01*
X143900000Y-31800000D02*
X144067990Y-31800000D01*
X144067990Y-31800000D02*
X144779990Y-32512000D01*
%TO.N,Net-(C23-Pad1)*%
X134067500Y-34890000D02*
X134277500Y-35100000D01*
X134777500Y-35600000D02*
X139110000Y-35600000D01*
X134067500Y-34890000D02*
X134777500Y-35600000D01*
%TO.N,Net-(C24-Pad1)*%
X134067500Y-31412000D02*
X134212000Y-31412000D01*
X137755500Y-35100000D02*
X139110000Y-35100000D01*
X134067500Y-31412000D02*
X137755500Y-35100000D01*
%TO.N,Net-(C25-Pad1)*%
X134067500Y-27934000D02*
X134067500Y-27767500D01*
X138604998Y-34100000D02*
X139110000Y-34100000D01*
X134567500Y-30062502D02*
X138604998Y-34100000D01*
X134567500Y-27767500D02*
X134567500Y-30062502D01*
%TO.N,Net-(C26-Pad1)*%
X145818790Y-36598790D02*
X143820000Y-34600000D01*
X147901158Y-36598790D02*
X145818790Y-36598790D01*
X147944958Y-36554990D02*
X147901158Y-36598790D01*
X149255042Y-36554990D02*
X147944958Y-36554990D01*
X143820000Y-34600000D02*
X142410000Y-34600000D01*
X149298842Y-36598790D02*
X149255042Y-36554990D01*
X154237290Y-36598790D02*
X149298842Y-36598790D01*
X154532500Y-36894000D02*
X154237290Y-36598790D01*
%TO.N,Net-(C27-Pad1)*%
X153784500Y-39624000D02*
X154532500Y-40372000D01*
X148082000Y-39624000D02*
X153784500Y-39624000D01*
X143558000Y-35100000D02*
X148082000Y-39624000D01*
X142410000Y-35100000D02*
X143558000Y-35100000D01*
%TO.N,Net-(C28-Pad1)*%
X142410000Y-35600000D02*
X142400000Y-35600000D01*
X143477340Y-35600000D02*
X151727340Y-43850000D01*
X151727340Y-43850000D02*
X154532500Y-43850000D01*
X142410000Y-35600000D02*
X143477340Y-35600000D01*
%TO.N,Net-(C29-Pad1)*%
X142410000Y-36100000D02*
X142400000Y-36100000D01*
X142762500Y-42762500D02*
X142800000Y-42800000D01*
X142960000Y-36100000D02*
X142410000Y-36100000D01*
X145762500Y-42800000D02*
X145800000Y-42762500D01*
X142800000Y-42800000D02*
X145762500Y-42800000D01*
X144780000Y-37920000D02*
X142960000Y-36100000D01*
X145800000Y-38940000D02*
X144780000Y-37920000D01*
X144900000Y-38040000D02*
X144780000Y-37920000D01*
X138800000Y-42800000D02*
X142800000Y-42800000D01*
X148600000Y-37400000D02*
X148500000Y-37500000D01*
X162800000Y-25970000D02*
X162800000Y-26000000D01*
X162800000Y-26000000D02*
X162800000Y-27900000D01*
X151000000Y-37400000D02*
X151100000Y-37300000D01*
X148600000Y-37400000D02*
X151000000Y-37400000D01*
X146550000Y-39900000D02*
X146150000Y-39900000D01*
X145850000Y-39900000D02*
X145800000Y-39950000D01*
X146550000Y-39900000D02*
X145850000Y-39900000D01*
X145800000Y-39950000D02*
X145800000Y-38940000D01*
X145800000Y-42762500D02*
X145800000Y-39950000D01*
X162800000Y-27900000D02*
X162750000Y-27850000D01*
%TO.N,/VRECT*%
X160782500Y-30892500D02*
X160810000Y-30920000D01*
X148650000Y-30892500D02*
X160782500Y-30892500D01*
X142410000Y-34100000D02*
X143800000Y-34100000D01*
X148600000Y-35400000D02*
X145300000Y-35400000D01*
X145300000Y-35400000D02*
X143900000Y-34000000D01*
X143800000Y-34100000D02*
X143900000Y-34000000D01*
X147862104Y-30892500D02*
X148650000Y-30892500D01*
X144754604Y-34000000D02*
X147862104Y-30892500D01*
X143900000Y-34000000D02*
X144754604Y-34000000D01*
%TO.N,/WirelessReciverOut*%
X162792500Y-23962500D02*
X162800000Y-23970000D01*
X154850000Y-23962500D02*
X162792500Y-23962500D01*
X150550000Y-23962500D02*
X150437500Y-23962500D01*
X150437500Y-23962500D02*
X154850000Y-23962500D01*
X139110000Y-34600000D02*
X138200000Y-34600000D01*
X138098800Y-34498800D02*
X138050000Y-34498800D01*
X138200000Y-34600000D02*
X138098800Y-34498800D01*
X150262500Y-24250000D02*
X150550000Y-23962500D01*
X148600000Y-24250000D02*
X150262500Y-24250000D01*
%TO.N,Net-(D1-Pad2)*%
X97920000Y-53520000D02*
X94595000Y-53520000D01*
%TO.N,Net-(D2-Pad2)*%
X97920000Y-57240000D02*
X94595000Y-57240000D01*
%TO.N,Net-(D3-Pad2)*%
X131500000Y-39000000D02*
X131600000Y-38900000D01*
X129025000Y-39000000D02*
X131500000Y-39000000D01*
%TO.N,+BATT*%
X101150000Y-41540000D02*
X100850000Y-41240000D01*
X101150000Y-42450000D02*
X101150000Y-41540000D01*
X96810000Y-41240000D02*
X96738798Y-41311202D01*
X97850000Y-41240000D02*
X96810000Y-41240000D01*
X96738798Y-41311202D02*
X96738798Y-42438798D01*
%TO.N,+3V3*%
X126900000Y-48550000D02*
X126900000Y-49100000D01*
X124200000Y-45850000D02*
X126900000Y-48550000D01*
X124200000Y-28500000D02*
X124200000Y-45850000D01*
X129200000Y-23500000D02*
X124200000Y-28500000D01*
X129200000Y-23300000D02*
X129200000Y-23500000D01*
%TO.N,Net-(J3-Pad9)*%
X126800000Y-54200000D02*
X126800000Y-54500000D01*
X130780000Y-54500000D02*
X131180000Y-54100000D01*
X126800000Y-54500000D02*
X130780000Y-54500000D01*
%TO.N,/LoRaEN*%
X132960000Y-57400000D02*
X124700000Y-57400000D01*
X136260000Y-54100000D02*
X132960000Y-57400000D01*
X112310000Y-74935000D02*
X112310000Y-73890000D01*
X112310000Y-73890000D02*
X113900000Y-72300000D01*
X113900000Y-72300000D02*
X113900000Y-68800000D01*
X113900000Y-68800000D02*
X115000000Y-67700000D01*
%TO.N,/LoRaIRQ*%
X125865685Y-58200000D02*
X125300000Y-58200000D01*
X126155696Y-57909989D02*
X125865685Y-58200000D01*
X134990011Y-57909989D02*
X126155696Y-57909989D01*
X138800000Y-54100000D02*
X134990011Y-57909989D01*
X112810000Y-74935000D02*
X112810000Y-73990000D01*
X112810000Y-73990000D02*
X116000000Y-70800000D01*
X116000000Y-70800000D02*
X116000000Y-68100000D01*
%TO.N,/SPI2_SCK*%
X122930000Y-72510000D02*
X118235000Y-72510000D01*
X141340000Y-54100000D02*
X122930000Y-72510000D01*
%TO.N,/SPI2_MISO*%
X107824315Y-70010000D02*
X108834317Y-68999998D01*
X106885000Y-70010000D02*
X107824315Y-70010000D01*
X108834317Y-68999998D02*
X112400000Y-68999998D01*
%TO.N,/SPI2_MOSI*%
X111100000Y-69600000D02*
X111500000Y-70000000D01*
X108850000Y-69600000D02*
X111100000Y-69600000D01*
X107940000Y-70510000D02*
X108850000Y-69600000D01*
X106885000Y-70510000D02*
X107940000Y-70510000D01*
%TO.N,/SPI2_SSN*%
X131800000Y-60600000D02*
X132300000Y-60600000D01*
X120390000Y-72010000D02*
X131800000Y-60600000D01*
X118235000Y-72010000D02*
X120390000Y-72010000D01*
%TO.N,/LoRaRST*%
X151500000Y-54100000D02*
X151500000Y-54250000D01*
X151500000Y-54100000D02*
X151200000Y-54100000D01*
X151200000Y-54100000D02*
X151100000Y-54000000D01*
X151100000Y-54000000D02*
X148100000Y-51000000D01*
X148100000Y-51000000D02*
X142200000Y-51000000D01*
X129000000Y-61500000D02*
X129000000Y-58554990D01*
X118235000Y-71010000D02*
X119490000Y-71010000D01*
X119490000Y-71010000D02*
X129000000Y-61500000D01*
%TO.N,/USART_RX*%
X106500000Y-54100000D02*
X106400000Y-54100000D01*
X108645000Y-75100000D02*
X108810000Y-74935000D01*
X105400000Y-75100000D02*
X108645000Y-75100000D01*
%TO.N,/USART_TX*%
X109040000Y-54100000D02*
X109040000Y-54240000D01*
X104990000Y-73010000D02*
X106885000Y-73010000D01*
X104900000Y-73100000D02*
X104990000Y-73010000D01*
%TO.N,/SWD_SWCLK*%
X114120000Y-54100000D02*
X114120000Y-54320000D01*
X114120000Y-54320000D02*
X116285010Y-56485010D01*
X116285010Y-63560010D02*
X116310000Y-63585000D01*
X116285010Y-56485010D02*
X116285010Y-63560010D01*
%TO.N,/SWD_SWDIO*%
X116660000Y-54100000D02*
X116660000Y-54340000D01*
X116660000Y-54340000D02*
X116900000Y-54580000D01*
X116900000Y-66065682D02*
X117344318Y-66510000D01*
X117344318Y-66510000D02*
X118235000Y-66510000D01*
X116900000Y-54580000D02*
X116900000Y-66065682D01*
%TO.N,/I2C1_SDA*%
X111310000Y-64990000D02*
X111310000Y-63585000D01*
X110500000Y-65800000D02*
X111310000Y-64990000D01*
%TO.N,/I2C1_SCL*%
X111800000Y-63595000D02*
X111810000Y-63585000D01*
X111800000Y-65600000D02*
X111800000Y-63595000D01*
%TO.N,/USER_LED1*%
X114810000Y-58710000D02*
X114810000Y-63585000D01*
X112600000Y-56500000D02*
X114810000Y-58710000D01*
X102570000Y-53520000D02*
X105550000Y-56500000D01*
X105550000Y-56500000D02*
X112600000Y-56500000D01*
X99920000Y-53520000D02*
X102570000Y-53520000D01*
%TO.N,/USER_LED2*%
X114350000Y-59850000D02*
X114350000Y-63545000D01*
X114350000Y-63545000D02*
X114310000Y-63585000D01*
X111740000Y-57240000D02*
X114350000Y-59850000D01*
X99920000Y-57240000D02*
X111740000Y-57240000D01*
%TO.N,Net-(R3-Pad1)*%
X110850000Y-63545000D02*
X110850000Y-60450000D01*
X110810000Y-63585000D02*
X110850000Y-63545000D01*
%TO.N,Net-(R5-Pad1)*%
X135800000Y-68800000D02*
X139100000Y-68800000D01*
X139300000Y-69000000D02*
X139725000Y-69000000D01*
X139100000Y-68800000D02*
X139300000Y-69000000D01*
X139725000Y-69000000D02*
X139725000Y-69025000D01*
%TO.N,Net-(R6-Pad2)*%
X145100000Y-64825000D02*
X145100000Y-62300000D01*
X142700000Y-67225000D02*
X145100000Y-64825000D01*
%TO.N,Net-(R6-Pad1)*%
X145100000Y-58950000D02*
X144750000Y-58600000D01*
X143100000Y-62300000D02*
X143100000Y-61300000D01*
X144750000Y-59650000D02*
X144750000Y-58600000D01*
X143100000Y-61300000D02*
X144750000Y-59650000D01*
X143100000Y-65950000D02*
X143100000Y-62300000D01*
X142300000Y-66750000D02*
X143100000Y-65950000D01*
X142300000Y-67225000D02*
X142300000Y-66750000D01*
%TO.N,Net-(R7-Pad2)*%
X138800000Y-62300000D02*
X138800000Y-63600000D01*
X141500000Y-66300000D02*
X141500000Y-67225000D01*
X138800000Y-63600000D02*
X141500000Y-66300000D01*
%TO.N,Net-(R7-Pad1)*%
X138800000Y-59250000D02*
X139450000Y-58600000D01*
X140800000Y-62300000D02*
X140800000Y-62200000D01*
X140800000Y-59950000D02*
X139450000Y-58600000D01*
X140800000Y-62300000D02*
X140800000Y-59950000D01*
X141900000Y-67225000D02*
X141900000Y-64400000D01*
X140800000Y-63300000D02*
X140800000Y-62300000D01*
X141900000Y-64400000D02*
X140800000Y-63300000D01*
%TO.N,Net-(R8-Pad2)*%
X144011746Y-69400000D02*
X143275000Y-69400000D01*
X147400000Y-72788254D02*
X144011746Y-69400000D01*
X147400000Y-75600000D02*
X147400000Y-72788254D01*
%TO.N,Net-(R8-Pad1)*%
X148700000Y-72150000D02*
X148700000Y-72900000D01*
X149400000Y-73600000D02*
X149400000Y-75600000D01*
X148700000Y-72900000D02*
X149400000Y-73600000D01*
X144500000Y-69000000D02*
X143275000Y-69000000D01*
X147650000Y-72150000D02*
X144500000Y-69000000D01*
X148700000Y-72150000D02*
X147650000Y-72150000D01*
%TO.N,Net-(R9-Pad2)*%
X147400000Y-64550000D02*
X147400000Y-63300000D01*
X143750000Y-68200000D02*
X147400000Y-64550000D01*
X143275000Y-68200000D02*
X143750000Y-68200000D01*
%TO.N,Net-(R9-Pad1)*%
X148700000Y-66850000D02*
X145950000Y-66850000D01*
X144200000Y-68600000D02*
X143275000Y-68600000D01*
X145950000Y-66850000D02*
X144200000Y-68600000D01*
X148700000Y-66850000D02*
X148700000Y-66200000D01*
X149400000Y-65500000D02*
X149400000Y-63300000D01*
X148700000Y-66200000D02*
X149400000Y-65500000D01*
%TO.N,Net-(R10-Pad2)*%
X138350000Y-76300000D02*
X138700000Y-76300000D01*
X139550000Y-75100000D02*
X138350000Y-76300000D01*
X139900000Y-75100000D02*
X139550000Y-75100000D01*
X142300000Y-72700000D02*
X139900000Y-75100000D01*
X142300000Y-70775000D02*
X142300000Y-72700000D01*
%TO.N,Net-(R10-Pad1)*%
X139850000Y-80200000D02*
X139850000Y-77800000D01*
X140350000Y-77300000D02*
X139850000Y-77800000D01*
X140350000Y-76300000D02*
X140350000Y-77300000D01*
X142700000Y-72750000D02*
X142700000Y-70775000D01*
X142700000Y-73800000D02*
X142700000Y-72750000D01*
X140350000Y-76150000D02*
X142700000Y-73800000D01*
X140350000Y-76300000D02*
X140350000Y-76150000D01*
%TO.N,Net-(R11-Pad2)*%
X143562162Y-69800000D02*
X143275000Y-69800000D01*
X144000000Y-70237838D02*
X143562162Y-69800000D01*
X143950000Y-70287838D02*
X143969029Y-70268809D01*
X143950000Y-76100000D02*
X143950000Y-70287838D01*
X144150000Y-76300000D02*
X143950000Y-76100000D01*
%TO.N,Net-(R11-Pad1)*%
X142850000Y-77000000D02*
X142380665Y-76530665D01*
X142850000Y-80200000D02*
X142850000Y-77000000D01*
X142650000Y-80200000D02*
X142850000Y-80200000D01*
X142150000Y-74950000D02*
X142150000Y-76300000D01*
X143275000Y-73825000D02*
X142150000Y-74950000D01*
X143275000Y-70200000D02*
X143275000Y-73825000D01*
%TO.N,Net-(R13-Pad1)*%
X142410000Y-37100000D02*
X142400000Y-37100000D01*
X142300000Y-37210000D02*
X142410000Y-37100000D01*
X142410000Y-37100000D02*
X142410000Y-39990000D01*
X142410000Y-39810000D02*
X142400000Y-39800000D01*
X142410000Y-39990000D02*
X142410000Y-39810000D01*
X142700000Y-44900000D02*
X142800000Y-44800000D01*
X141300000Y-44900000D02*
X142700000Y-44900000D01*
%TO.N,Net-(R16-Pad2)*%
X130200000Y-42250000D02*
X132800000Y-42250000D01*
X141510000Y-38190000D02*
X141510000Y-37350000D01*
X141000000Y-38700000D02*
X141510000Y-38190000D01*
X132850000Y-42250000D02*
X136400000Y-38700000D01*
X136400000Y-38700000D02*
X141000000Y-38700000D01*
X132800000Y-42250000D02*
X132850000Y-42250000D01*
%TO.N,Net-(R18-Pad1)*%
X128050000Y-44250000D02*
X128100000Y-44300000D01*
X126750000Y-44250000D02*
X128050000Y-44250000D01*
X142765685Y-36600000D02*
X142410000Y-36600000D01*
X143300000Y-37134315D02*
X142765685Y-36600000D01*
X143300000Y-37700000D02*
X143300000Y-37134315D01*
%TO.N,/CHG_LED*%
X136400000Y-36100000D02*
X139110000Y-36100000D01*
X133600000Y-38900000D02*
X136400000Y-36100000D01*
%TO.N,Net-(TP3-Pad1)*%
X98850000Y-41831000D02*
X98850000Y-41240000D01*
D32*
X94381000Y-46300000D02*
X98850000Y-41831000D01*
D29*
X93300000Y-46300000D02*
X94381000Y-46300000D01*
%TO.N,Net-(TP4-Pad1)*%
X99350000Y-43450000D02*
X99350000Y-41240000D01*
X96500000Y-46300000D02*
X99350000Y-43450000D01*
%TO.N,Net-(TP5-Pad1)*%
X99900000Y-41290000D02*
X99850000Y-41240000D01*
X99900000Y-46200000D02*
X99900000Y-41290000D01*
%TO.N,/MAG_RDY*%
X119690000Y-68510000D02*
X124900000Y-63300000D01*
X118235000Y-68510000D02*
X119690000Y-68510000D01*
X133450000Y-66150000D02*
X133450000Y-66200000D01*
D32*
X137950000Y-68200000D02*
X139250000Y-68200000D01*
X139250000Y-68200000D02*
X139725000Y-68200000D01*
X137314000Y-67564000D02*
X137950000Y-68200000D01*
X134814000Y-67564000D02*
X137314000Y-67564000D01*
X133450000Y-66200000D02*
X134814000Y-67564000D01*
D29*
%TO.N,/SPI1_SSN*%
X119710000Y-69010000D02*
X118235000Y-69010000D01*
X119900000Y-69200000D02*
X119710000Y-69010000D01*
X140100000Y-72800000D02*
X138850000Y-72800000D01*
X141100000Y-71800000D02*
X140100000Y-72800000D01*
X141100000Y-70775000D02*
X141100000Y-71800000D01*
%TO.N,/SPI1_MOSI*%
X111810000Y-74935000D02*
X111810000Y-75010000D01*
X111810000Y-73239774D02*
X111810000Y-74935000D01*
X112009526Y-73040248D02*
X111810000Y-73239774D01*
X137975000Y-70775000D02*
X134582000Y-74168000D01*
X134582000Y-74168000D02*
X119126000Y-74168000D01*
X140300000Y-70775000D02*
X137975000Y-70775000D01*
%TO.N,/SPI1_MISO*%
X111310000Y-72240000D02*
X111400000Y-72150000D01*
X111310000Y-74935000D02*
X111310000Y-72240000D01*
D32*
X129952000Y-70200000D02*
X128778000Y-71374000D01*
X139725000Y-70200000D02*
X129952000Y-70200000D01*
D29*
X120665685Y-73256191D02*
X120100000Y-73256191D01*
X126626000Y-71374000D02*
X124743809Y-73256191D01*
X124743809Y-73256191D02*
X120665685Y-73256191D01*
X128778000Y-71374000D02*
X126626000Y-71374000D01*
D32*
%TO.N,/SPI1_SCK*%
X129336000Y-69800000D02*
X128524000Y-70612000D01*
X139725000Y-69800000D02*
X129336000Y-69800000D01*
D29*
X110698799Y-71551201D02*
X111050000Y-71200000D01*
X110698799Y-74096235D02*
X110698799Y-71551201D01*
X110810000Y-74207436D02*
X110698799Y-74096235D01*
X110810000Y-74935000D02*
X110810000Y-74207436D01*
X128524000Y-70612000D02*
X126272515Y-70612000D01*
X126272515Y-70612000D02*
X124393217Y-72491298D01*
%TO.N,Net-(L2-Pad1)*%
X102384001Y-36300000D02*
X102108001Y-36576000D01*
X99850000Y-36484271D02*
X100659269Y-35675002D01*
X99850000Y-37440000D02*
X99850000Y-36484271D01*
X106750000Y-36300000D02*
X102384001Y-36300000D01*
%TO.N,Net-(L1-Pad1)*%
X100100000Y-24350000D02*
X101150000Y-23300000D01*
X100100000Y-24600000D02*
X100100000Y-24350000D01*
X98850000Y-34950315D02*
X99256315Y-34544000D01*
X99256315Y-34544000D02*
X99822000Y-34544000D01*
X98850000Y-37440000D02*
X98850000Y-34950315D01*
%TO.N,/LP3905_Output*%
X121820000Y-49100000D02*
X121820000Y-49120000D01*
%TD*%
M02*
