%TF.GenerationSoftware,KiCad,Pcbnew,(5.1.8)-1*%
%TF.CreationDate,2021-01-16T10:33:32-08:00*%
%TF.ProjectId,spl_prototype,73706c5f-7072-46f7-946f-747970652e6b,rev?*%
%TF.SameCoordinates,Original*%
%TF.FileFunction,Soldermask,Bot*%
%TF.FilePolarity,Negative*%
%FSLAX46Y46*%
G04 Gerber Fmt 4.6, Leading zero omitted, Abs format (unit mm)*
G04 Created by KiCad (PCBNEW (5.1.8)-1) date 2021-01-16 10:33:32*
%MOMM*%
%LPD*%
G01*
G04 APERTURE LIST*
%ADD10O,1.700000X1.700000*%
%ADD11R,1.700000X1.700000*%
%ADD12C,0.200000*%
%ADD13O,1.700000X2.000000*%
G04 APERTURE END LIST*
D10*
%TO.C,J6*%
X139510000Y-22600000D03*
D11*
X142050000Y-22600000D03*
%TD*%
D12*
%TO.C,U7*%
X140260000Y-36350000D03*
X141260000Y-36350000D03*
X141260000Y-34350000D03*
X140260000Y-34350000D03*
X140760000Y-36350000D03*
X140760000Y-34350000D03*
%TD*%
D10*
%TO.C,TP2*%
X124260000Y-54200000D03*
D11*
X126800000Y-54200000D03*
%TD*%
%TO.C,TP7*%
X111400000Y-36400000D03*
%TD*%
%TO.C,TP6*%
X111300000Y-29200000D03*
%TD*%
%TO.C,TP5*%
X99900000Y-46200000D03*
%TD*%
%TO.C,TP4*%
X96600000Y-46300000D03*
%TD*%
%TO.C,TP3*%
X93300000Y-46300000D03*
%TD*%
D10*
%TO.C,JP1*%
X121820000Y-49100000D03*
X124360000Y-49100000D03*
D11*
X126900000Y-49100000D03*
%TD*%
D10*
%TO.C,J7*%
X105480000Y-82900000D03*
X108020000Y-82900000D03*
X110560000Y-82900000D03*
D11*
X113100000Y-82900000D03*
%TD*%
D10*
%TO.C,J4*%
X106500000Y-54100000D03*
X109040000Y-54100000D03*
X111580000Y-54100000D03*
X114120000Y-54100000D03*
X116660000Y-54100000D03*
D11*
X119200000Y-54100000D03*
%TD*%
D10*
%TO.C,J3*%
X131180000Y-54100000D03*
X133720000Y-54100000D03*
X136260000Y-54100000D03*
X138800000Y-54100000D03*
X141340000Y-54100000D03*
X143880000Y-54100000D03*
X146420000Y-54100000D03*
X148960000Y-54100000D03*
D11*
X151500000Y-54100000D03*
%TD*%
D13*
%TO.C,J2*%
X129200000Y-23300000D03*
G36*
G01*
X132550000Y-22550000D02*
X132550000Y-24050000D01*
G75*
G02*
X132300000Y-24300000I-250000J0D01*
G01*
X131100000Y-24300000D01*
G75*
G02*
X130850000Y-24050000I0J250000D01*
G01*
X130850000Y-22550000D01*
G75*
G02*
X131100000Y-22300000I250000J0D01*
G01*
X132300000Y-22300000D01*
G75*
G02*
X132550000Y-22550000I0J-250000D01*
G01*
G37*
%TD*%
%TO.C,J1*%
X114200000Y-23500000D03*
G36*
G01*
X117550000Y-22750000D02*
X117550000Y-24250000D01*
G75*
G02*
X117300000Y-24500000I-250000J0D01*
G01*
X116100000Y-24500000D01*
G75*
G02*
X115850000Y-24250000I0J250000D01*
G01*
X115850000Y-22750000D01*
G75*
G02*
X116100000Y-22500000I250000J0D01*
G01*
X117300000Y-22500000D01*
G75*
G02*
X117550000Y-22750000I0J-250000D01*
G01*
G37*
%TD*%
M02*
