%TF.GenerationSoftware,KiCad,Pcbnew,(5.1.8)-1*%
%TF.CreationDate,2021-02-01T14:36:09-08:00*%
%TF.ProjectId,spl_prototype,73706c5f-7072-46f7-946f-747970652e6b,rev?*%
%TF.SameCoordinates,Original*%
%TF.FileFunction,Legend,Top*%
%TF.FilePolarity,Positive*%
%FSLAX46Y46*%
G04 Gerber Fmt 4.6, Leading zero omitted, Abs format (unit mm)*
G04 Created by KiCad (PCBNEW (5.1.8)-1) date 2021-02-01 14:36:09*
%MOMM*%
%LPD*%
G01*
G04 APERTURE LIST*
%ADD10C,0.300000*%
%ADD11C,0.120000*%
%ADD12C,0.100000*%
G04 APERTURE END LIST*
D10*
X155382142Y-70367142D02*
X155453571Y-70152857D01*
X155453571Y-69795714D01*
X155382142Y-69652857D01*
X155310714Y-69581428D01*
X155167857Y-69510000D01*
X155025000Y-69510000D01*
X154882142Y-69581428D01*
X154810714Y-69652857D01*
X154739285Y-69795714D01*
X154667857Y-70081428D01*
X154596428Y-70224285D01*
X154525000Y-70295714D01*
X154382142Y-70367142D01*
X154239285Y-70367142D01*
X154096428Y-70295714D01*
X154025000Y-70224285D01*
X153953571Y-70081428D01*
X153953571Y-69724285D01*
X154025000Y-69510000D01*
X155453571Y-68867142D02*
X154453571Y-68867142D01*
X154596428Y-68867142D02*
X154525000Y-68795714D01*
X154453571Y-68652857D01*
X154453571Y-68438571D01*
X154525000Y-68295714D01*
X154667857Y-68224285D01*
X155453571Y-68224285D01*
X154667857Y-68224285D02*
X154525000Y-68152857D01*
X154453571Y-68010000D01*
X154453571Y-67795714D01*
X154525000Y-67652857D01*
X154667857Y-67581428D01*
X155453571Y-67581428D01*
X155453571Y-66224285D02*
X154667857Y-66224285D01*
X154525000Y-66295714D01*
X154453571Y-66438571D01*
X154453571Y-66724285D01*
X154525000Y-66867142D01*
X155382142Y-66224285D02*
X155453571Y-66367142D01*
X155453571Y-66724285D01*
X155382142Y-66867142D01*
X155239285Y-66938571D01*
X155096428Y-66938571D01*
X154953571Y-66867142D01*
X154882142Y-66724285D01*
X154882142Y-66367142D01*
X154810714Y-66224285D01*
X155453571Y-65510000D02*
X154453571Y-65510000D01*
X154739285Y-65510000D02*
X154596428Y-65438571D01*
X154525000Y-65367142D01*
X154453571Y-65224285D01*
X154453571Y-65081428D01*
X154453571Y-64795714D02*
X154453571Y-64224285D01*
X153953571Y-64581428D02*
X155239285Y-64581428D01*
X155382142Y-64510000D01*
X155453571Y-64367142D01*
X155453571Y-64224285D01*
X155453571Y-62581428D02*
X153953571Y-62581428D01*
X153953571Y-62010000D01*
X154025000Y-61867142D01*
X154096428Y-61795714D01*
X154239285Y-61724285D01*
X154453571Y-61724285D01*
X154596428Y-61795714D01*
X154667857Y-61867142D01*
X154739285Y-62010000D01*
X154739285Y-62581428D01*
X155453571Y-60438571D02*
X154667857Y-60438571D01*
X154525000Y-60510000D01*
X154453571Y-60652857D01*
X154453571Y-60938571D01*
X154525000Y-61081428D01*
X155382142Y-60438571D02*
X155453571Y-60581428D01*
X155453571Y-60938571D01*
X155382142Y-61081428D01*
X155239285Y-61152857D01*
X155096428Y-61152857D01*
X154953571Y-61081428D01*
X154882142Y-60938571D01*
X154882142Y-60581428D01*
X154810714Y-60438571D01*
X155453571Y-59724285D02*
X154453571Y-59724285D01*
X154739285Y-59724285D02*
X154596428Y-59652857D01*
X154525000Y-59581428D01*
X154453571Y-59438571D01*
X154453571Y-59295714D01*
X155453571Y-58795714D02*
X153953571Y-58795714D01*
X154882142Y-58652857D02*
X155453571Y-58224285D01*
X154453571Y-58224285D02*
X155025000Y-58795714D01*
X155453571Y-57581428D02*
X154453571Y-57581428D01*
X153953571Y-57581428D02*
X154025000Y-57652857D01*
X154096428Y-57581428D01*
X154025000Y-57510000D01*
X153953571Y-57581428D01*
X154096428Y-57581428D01*
X154453571Y-56867142D02*
X155453571Y-56867142D01*
X154596428Y-56867142D02*
X154525000Y-56795714D01*
X154453571Y-56652857D01*
X154453571Y-56438571D01*
X154525000Y-56295714D01*
X154667857Y-56224285D01*
X155453571Y-56224285D01*
X154453571Y-54867142D02*
X155667857Y-54867142D01*
X155810714Y-54938571D01*
X155882142Y-55010000D01*
X155953571Y-55152857D01*
X155953571Y-55367142D01*
X155882142Y-55510000D01*
X155382142Y-54867142D02*
X155453571Y-55010000D01*
X155453571Y-55295714D01*
X155382142Y-55438571D01*
X155310714Y-55510000D01*
X155167857Y-55581428D01*
X154739285Y-55581428D01*
X154596428Y-55510000D01*
X154525000Y-55438571D01*
X154453571Y-55295714D01*
X154453571Y-55010000D01*
X154525000Y-54867142D01*
X155453571Y-52295714D02*
X155453571Y-53010000D01*
X153953571Y-53010000D01*
X155453571Y-51581428D02*
X155382142Y-51724285D01*
X155310714Y-51795714D01*
X155167857Y-51867142D01*
X154739285Y-51867142D01*
X154596428Y-51795714D01*
X154525000Y-51724285D01*
X154453571Y-51581428D01*
X154453571Y-51367142D01*
X154525000Y-51224285D01*
X154596428Y-51152857D01*
X154739285Y-51081428D01*
X155167857Y-51081428D01*
X155310714Y-51152857D01*
X155382142Y-51224285D01*
X155453571Y-51367142D01*
X155453571Y-51581428D01*
X154453571Y-50652857D02*
X154453571Y-50081428D01*
X153953571Y-50438571D02*
X155239285Y-50438571D01*
X155382142Y-50367142D01*
X155453571Y-50224285D01*
X155453571Y-50081428D01*
X155382142Y-48510000D02*
X155453571Y-48295714D01*
X155453571Y-47938571D01*
X155382142Y-47795714D01*
X155310714Y-47724285D01*
X155167857Y-47652857D01*
X155025000Y-47652857D01*
X154882142Y-47724285D01*
X154810714Y-47795714D01*
X154739285Y-47938571D01*
X154667857Y-48224285D01*
X154596428Y-48367142D01*
X154525000Y-48438571D01*
X154382142Y-48510000D01*
X154239285Y-48510000D01*
X154096428Y-48438571D01*
X154025000Y-48367142D01*
X153953571Y-48224285D01*
X153953571Y-47867142D01*
X154025000Y-47652857D01*
X155382142Y-46438571D02*
X155453571Y-46581428D01*
X155453571Y-46867142D01*
X155382142Y-47010000D01*
X155239285Y-47081428D01*
X154667857Y-47081428D01*
X154525000Y-47010000D01*
X154453571Y-46867142D01*
X154453571Y-46581428D01*
X154525000Y-46438571D01*
X154667857Y-46367142D01*
X154810714Y-46367142D01*
X154953571Y-47081428D01*
X154453571Y-45724285D02*
X155453571Y-45724285D01*
X154596428Y-45724285D02*
X154525000Y-45652857D01*
X154453571Y-45510000D01*
X154453571Y-45295714D01*
X154525000Y-45152857D01*
X154667857Y-45081428D01*
X155453571Y-45081428D01*
X155382142Y-44438571D02*
X155453571Y-44295714D01*
X155453571Y-44010000D01*
X155382142Y-43867142D01*
X155239285Y-43795714D01*
X155167857Y-43795714D01*
X155025000Y-43867142D01*
X154953571Y-44010000D01*
X154953571Y-44224285D01*
X154882142Y-44367142D01*
X154739285Y-44438571D01*
X154667857Y-44438571D01*
X154525000Y-44367142D01*
X154453571Y-44224285D01*
X154453571Y-44010000D01*
X154525000Y-43867142D01*
X155453571Y-42938571D02*
X155382142Y-43081428D01*
X155310714Y-43152857D01*
X155167857Y-43224285D01*
X154739285Y-43224285D01*
X154596428Y-43152857D01*
X154525000Y-43081428D01*
X154453571Y-42938571D01*
X154453571Y-42724285D01*
X154525000Y-42581428D01*
X154596428Y-42510000D01*
X154739285Y-42438571D01*
X155167857Y-42438571D01*
X155310714Y-42510000D01*
X155382142Y-42581428D01*
X155453571Y-42724285D01*
X155453571Y-42938571D01*
X155453571Y-41795714D02*
X154453571Y-41795714D01*
X154739285Y-41795714D02*
X154596428Y-41724285D01*
X154525000Y-41652857D01*
X154453571Y-41510000D01*
X154453571Y-41367142D01*
X153953571Y-39938571D02*
X155453571Y-39438571D01*
X153953571Y-38938571D01*
X154096428Y-38510000D02*
X154025000Y-38438571D01*
X153953571Y-38295714D01*
X153953571Y-37938571D01*
X154025000Y-37795714D01*
X154096428Y-37724285D01*
X154239285Y-37652857D01*
X154382142Y-37652857D01*
X154596428Y-37724285D01*
X155453571Y-38581428D01*
X155453571Y-37652857D01*
X157860714Y-54010000D02*
X157932142Y-53938571D01*
X158003571Y-54010000D01*
X157932142Y-54081428D01*
X157860714Y-54010000D01*
X158003571Y-54010000D01*
D11*
%TO.C,JP3(CHG-BATT)*%
X96180000Y-24870000D02*
X96180000Y-23540000D01*
X97510000Y-24870000D02*
X96180000Y-24870000D01*
X98780000Y-24870000D02*
X98780000Y-22210000D01*
X98780000Y-22210000D02*
X101380000Y-22210000D01*
X98780000Y-24870000D02*
X101380000Y-24870000D01*
X101380000Y-24870000D02*
X101380000Y-22210000D01*
%TO.C,U8*%
X93890000Y-32300000D02*
X93890000Y-34750000D01*
X97110000Y-34100000D02*
X97110000Y-32300000D01*
%TO.C,R22*%
X97172936Y-47635000D02*
X97627064Y-47635000D01*
X97172936Y-46165000D02*
X97627064Y-46165000D01*
%TO.C,R21*%
X97272936Y-43635000D02*
X97727064Y-43635000D01*
X97272936Y-42165000D02*
X97727064Y-42165000D01*
%TO.C,R4*%
X94727064Y-27365000D02*
X94272936Y-27365000D01*
X94727064Y-28835000D02*
X94272936Y-28835000D01*
%TO.C,JP2(BQ-5V)*%
X106830000Y-47770000D02*
X106830000Y-49100000D01*
X105500000Y-47770000D02*
X106830000Y-47770000D01*
X104230000Y-47770000D02*
X104230000Y-50430000D01*
X104230000Y-50430000D02*
X101630000Y-50430000D01*
X104230000Y-47770000D02*
X101630000Y-47770000D01*
X101630000Y-47770000D02*
X101630000Y-50430000D01*
%TO.C,D5*%
X94960000Y-45940000D02*
X92100000Y-45940000D01*
X94960000Y-47860000D02*
X94960000Y-45940000D01*
X92100000Y-47860000D02*
X94960000Y-47860000D01*
%TO.C,D4*%
X91440000Y-43960000D02*
X94300000Y-43960000D01*
X91440000Y-42040000D02*
X91440000Y-43960000D01*
X94300000Y-42040000D02*
X91440000Y-42040000D01*
%TO.C,C14*%
X111035000Y-37261252D02*
X111035000Y-36738748D01*
X109565000Y-37261252D02*
X109565000Y-36738748D01*
%TO.C,C13*%
X106238748Y-36735000D02*
X106761252Y-36735000D01*
X106238748Y-35265000D02*
X106761252Y-35265000D01*
%TO.C,C2*%
X96661252Y-37565000D02*
X96138748Y-37565000D01*
X96661252Y-39035000D02*
X96138748Y-39035000D01*
%TO.C,C1*%
X102335000Y-38061252D02*
X102335000Y-37538748D01*
X100865000Y-38061252D02*
X100865000Y-37538748D01*
%TO.C,U2*%
X107310000Y-42500000D02*
X107310000Y-40050000D01*
X104090000Y-40700000D02*
X104090000Y-42500000D01*
%TO.C,U5*%
X149970000Y-65500000D02*
X147430000Y-65500000D01*
X149970000Y-65500000D02*
X149970000Y-73500000D01*
X149970000Y-73500000D02*
X147430000Y-73500000D01*
X147430000Y-73500000D02*
X147430000Y-65500000D01*
%TO.C,U4*%
X146100000Y-59870000D02*
X146100000Y-57330000D01*
X146100000Y-59870000D02*
X138100000Y-59870000D01*
X138100000Y-59870000D02*
X138100000Y-57330000D01*
X138100000Y-57330000D02*
X146100000Y-57330000D01*
%TO.C,J6 (COIL)*%
X130980000Y-22070000D02*
X130980000Y-23400000D01*
X129650000Y-22070000D02*
X130980000Y-22070000D01*
X128380000Y-22070000D02*
X128380000Y-24730000D01*
X128380000Y-24730000D02*
X125780000Y-24730000D01*
X128380000Y-22070000D02*
X125780000Y-22070000D01*
X125780000Y-22070000D02*
X125780000Y-24730000D01*
%TO.C,U7*%
X125910000Y-38750000D02*
X125910000Y-34580000D01*
X130810000Y-38750000D02*
X125910000Y-38750000D01*
X130810000Y-33550000D02*
X130810000Y-38750000D01*
X126710000Y-33550000D02*
X130810000Y-33550000D01*
X125910000Y-34580000D02*
X126710000Y-33550000D01*
%TO.C,U3*%
X139350000Y-67400000D02*
X139350000Y-66850000D01*
X139350000Y-66850000D02*
X139900000Y-66850000D01*
X143650000Y-67400000D02*
X143650000Y-66850000D01*
X143650000Y-66850000D02*
X143100000Y-66850000D01*
X143650000Y-70600000D02*
X143650000Y-71150000D01*
X143650000Y-71150000D02*
X143100000Y-71150000D01*
X139350000Y-70600000D02*
X139350000Y-71225000D01*
%TO.C,SW1*%
X94040000Y-77640000D02*
X94040000Y-77940000D01*
X90740000Y-77640000D02*
X94040000Y-77640000D01*
X90740000Y-77940000D02*
X90740000Y-77640000D01*
X94040000Y-80440000D02*
X94040000Y-80140000D01*
X90740000Y-80440000D02*
X94040000Y-80440000D01*
X90740000Y-80140000D02*
X90740000Y-80440000D01*
%TO.C,Y1*%
X94770000Y-61290000D02*
X94770000Y-73890000D01*
X99870000Y-61290000D02*
X94770000Y-61290000D01*
X99870000Y-73890000D02*
X99870000Y-61290000D01*
%TO.C,U1*%
X107450000Y-65100000D02*
X106110000Y-65100000D01*
X107450000Y-64150000D02*
X107450000Y-65100000D01*
X108400000Y-64150000D02*
X107450000Y-64150000D01*
X117670000Y-64150000D02*
X117670000Y-65100000D01*
X116720000Y-64150000D02*
X117670000Y-64150000D01*
X107450000Y-74370000D02*
X107450000Y-73420000D01*
X108400000Y-74370000D02*
X107450000Y-74370000D01*
X117670000Y-74370000D02*
X117670000Y-73420000D01*
X116720000Y-74370000D02*
X117670000Y-74370000D01*
%TO.C,R20*%
X120427064Y-38965000D02*
X119972936Y-38965000D01*
X120427064Y-40435000D02*
X119972936Y-40435000D01*
%TO.C,R19*%
X147675000Y-32492936D02*
X147675000Y-32947064D01*
X149145000Y-32492936D02*
X149145000Y-32947064D01*
%TO.C,R18*%
X115085000Y-44277064D02*
X115085000Y-43822936D01*
X113615000Y-44277064D02*
X113615000Y-43822936D01*
%TO.C,R17*%
X119665000Y-43822936D02*
X119665000Y-44277064D01*
X121135000Y-43822936D02*
X121135000Y-44277064D01*
%TO.C,R16*%
X118535000Y-44277064D02*
X118535000Y-43822936D01*
X117065000Y-44277064D02*
X117065000Y-43822936D01*
%TO.C,R15*%
X151135000Y-25997064D02*
X151135000Y-25542936D01*
X149665000Y-25997064D02*
X149665000Y-25542936D01*
%TO.C,R14*%
X125665000Y-44372936D02*
X125665000Y-44827064D01*
X127135000Y-44372936D02*
X127135000Y-44827064D01*
%TO.C,R13*%
X131135000Y-44827064D02*
X131135000Y-44372936D01*
X129665000Y-44827064D02*
X129665000Y-44372936D01*
%TO.C,R12*%
X135465000Y-36972936D02*
X135465000Y-37427064D01*
X136935000Y-36972936D02*
X136935000Y-37427064D01*
%TO.C,R11*%
X142922936Y-77035000D02*
X143377064Y-77035000D01*
X142922936Y-75565000D02*
X143377064Y-75565000D01*
%TO.C,R10*%
X139577064Y-75565000D02*
X139122936Y-75565000D01*
X139577064Y-77035000D02*
X139122936Y-77035000D01*
%TO.C,R9*%
X148627064Y-62565000D02*
X148172936Y-62565000D01*
X148627064Y-64035000D02*
X148172936Y-64035000D01*
%TO.C,R8*%
X148627064Y-74865000D02*
X148172936Y-74865000D01*
X148627064Y-76335000D02*
X148172936Y-76335000D01*
%TO.C,R7*%
X140027064Y-61565000D02*
X139572936Y-61565000D01*
X140027064Y-63035000D02*
X139572936Y-63035000D01*
%TO.C,R6*%
X143872936Y-63035000D02*
X144327064Y-63035000D01*
X143872936Y-61565000D02*
X144327064Y-61565000D01*
%TO.C,R5*%
X136635000Y-67877064D02*
X136635000Y-67422936D01*
X135165000Y-67877064D02*
X135165000Y-67422936D01*
%TO.C,R3*%
X111622936Y-61185000D02*
X112077064Y-61185000D01*
X111622936Y-59715000D02*
X112077064Y-59715000D01*
%TO.C,R2*%
X98692936Y-57975000D02*
X99147064Y-57975000D01*
X98692936Y-56505000D02*
X99147064Y-56505000D01*
%TO.C,R1*%
X98692936Y-54255000D02*
X99147064Y-54255000D01*
X98692936Y-52785000D02*
X99147064Y-52785000D01*
%TO.C,JP1(LDO/TEST3V3)*%
X128230000Y-47770000D02*
X128230000Y-49100000D01*
X126900000Y-47770000D02*
X128230000Y-47770000D01*
X125630000Y-47770000D02*
X125630000Y-50430000D01*
X125630000Y-50430000D02*
X120490000Y-50430000D01*
X125630000Y-47770000D02*
X120490000Y-47770000D01*
X120490000Y-47770000D02*
X120490000Y-50430000D01*
%TO.C,J7 (TOF)*%
X114430000Y-81570000D02*
X114430000Y-82900000D01*
X113100000Y-81570000D02*
X114430000Y-81570000D01*
X111830000Y-81570000D02*
X111830000Y-84230000D01*
X111830000Y-84230000D02*
X104150000Y-84230000D01*
X111830000Y-81570000D02*
X104150000Y-81570000D01*
X104150000Y-81570000D02*
X104150000Y-84230000D01*
%TO.C,J4*%
X120530000Y-52770000D02*
X120530000Y-54100000D01*
X119200000Y-52770000D02*
X120530000Y-52770000D01*
X117930000Y-52770000D02*
X117930000Y-55430000D01*
X117930000Y-55430000D02*
X105170000Y-55430000D01*
X117930000Y-52770000D02*
X105170000Y-52770000D01*
X105170000Y-52770000D02*
X105170000Y-55430000D01*
%TO.C,J3*%
X152830000Y-54100000D02*
X152830000Y-55430000D01*
X152830000Y-55430000D02*
X151500000Y-55430000D01*
X150230000Y-55430000D02*
X129850000Y-55430000D01*
X129850000Y-52770000D02*
X129850000Y-55430000D01*
X150230000Y-52770000D02*
X129850000Y-52770000D01*
X150230000Y-52770000D02*
X150230000Y-55430000D01*
%TO.C,J2 (TEST3V3-GND)*%
X122310000Y-20890000D02*
X119810000Y-20890000D01*
X122310000Y-23390000D02*
X122310000Y-20890000D01*
X115290000Y-22690000D02*
X115290000Y-21190000D01*
X114290000Y-22690000D02*
X115290000Y-22690000D01*
X121010000Y-22690000D02*
X121010000Y-21190000D01*
X122010000Y-22690000D02*
X121010000Y-22690000D01*
X114790000Y-23500000D02*
X114290000Y-23500000D01*
X114790000Y-24710000D02*
X114790000Y-23500000D01*
X121510000Y-24710000D02*
X114790000Y-24710000D01*
X121510000Y-23500000D02*
X121510000Y-24710000D01*
X122010000Y-23500000D02*
X121510000Y-23500000D01*
X114290000Y-25210000D02*
X122010000Y-25210000D01*
X114290000Y-21190000D02*
X114290000Y-25210000D01*
X122010000Y-21190000D02*
X114290000Y-21190000D01*
X122010000Y-25210000D02*
X122010000Y-21190000D01*
%TO.C,J1*%
X110610000Y-21190000D02*
X108110000Y-21190000D01*
X110610000Y-23690000D02*
X110610000Y-21190000D01*
X103590000Y-22990000D02*
X103590000Y-21490000D01*
X102590000Y-22990000D02*
X103590000Y-22990000D01*
X109310000Y-22990000D02*
X109310000Y-21490000D01*
X110310000Y-22990000D02*
X109310000Y-22990000D01*
X103090000Y-23800000D02*
X102590000Y-23800000D01*
X103090000Y-25010000D02*
X103090000Y-23800000D01*
X109810000Y-25010000D02*
X103090000Y-25010000D01*
X109810000Y-23800000D02*
X109810000Y-25010000D01*
X110310000Y-23800000D02*
X109810000Y-23800000D01*
X102590000Y-25510000D02*
X110310000Y-25510000D01*
X102590000Y-21490000D02*
X102590000Y-25510000D01*
X110310000Y-21490000D02*
X102590000Y-21490000D01*
X110310000Y-25510000D02*
X110310000Y-21490000D01*
%TO.C,D3*%
X113740000Y-40760000D02*
X116600000Y-40760000D01*
X113740000Y-38840000D02*
X113740000Y-40760000D01*
X116600000Y-38840000D02*
X113740000Y-38840000D01*
%TO.C,D2*%
X91710000Y-58200000D02*
X94570000Y-58200000D01*
X91710000Y-56280000D02*
X91710000Y-58200000D01*
X94570000Y-56280000D02*
X91710000Y-56280000D01*
%TO.C,D1*%
X91710000Y-54480000D02*
X94570000Y-54480000D01*
X91710000Y-52560000D02*
X91710000Y-54480000D01*
X94570000Y-52560000D02*
X91710000Y-52560000D01*
%TO.C,C35*%
X145765000Y-25538748D02*
X145765000Y-26061252D01*
X147235000Y-25538748D02*
X147235000Y-26061252D01*
%TO.C,C34*%
X141715000Y-25538748D02*
X141715000Y-26061252D01*
X143185000Y-25538748D02*
X143185000Y-26061252D01*
%TO.C,C33*%
X137415000Y-25538748D02*
X137415000Y-26061252D01*
X138885000Y-25538748D02*
X138885000Y-26061252D01*
%TO.C,C32*%
X145111666Y-33011252D02*
X145111666Y-32488748D01*
X143641666Y-33011252D02*
X143641666Y-32488748D01*
%TO.C,C31*%
X141048333Y-33001252D02*
X141048333Y-32478748D01*
X139578333Y-33001252D02*
X139578333Y-32478748D01*
%TO.C,C30*%
X136985000Y-32991252D02*
X136985000Y-32468748D01*
X135515000Y-32991252D02*
X135515000Y-32468748D01*
%TO.C,C29*%
X132665000Y-44338748D02*
X132665000Y-44861252D01*
X134135000Y-44338748D02*
X134135000Y-44861252D01*
%TO.C,C28*%
X142908748Y-45385000D02*
X143431252Y-45385000D01*
X142908748Y-43915000D02*
X143431252Y-43915000D01*
%TO.C,C27*%
X142908748Y-41907000D02*
X143431252Y-41907000D01*
X142908748Y-40437000D02*
X143431252Y-40437000D01*
%TO.C,C26*%
X142908748Y-38429000D02*
X143431252Y-38429000D01*
X142908748Y-36959000D02*
X143431252Y-36959000D01*
%TO.C,C25*%
X120891252Y-27999000D02*
X120368748Y-27999000D01*
X120891252Y-29469000D02*
X120368748Y-29469000D01*
%TO.C,C24*%
X120891252Y-31477000D02*
X120368748Y-31477000D01*
X120891252Y-32947000D02*
X120368748Y-32947000D01*
%TO.C,C23*%
X120891252Y-34955000D02*
X120368748Y-34955000D01*
X120891252Y-36425000D02*
X120368748Y-36425000D01*
%TO.C,C22*%
X127385000Y-30661252D02*
X127385000Y-30138748D01*
X125915000Y-30661252D02*
X125915000Y-30138748D01*
%TO.C,C21*%
X131135000Y-30631252D02*
X131135000Y-30108748D01*
X129665000Y-30631252D02*
X129665000Y-30108748D01*
%TO.C,C20*%
X115723752Y-28165000D02*
X115201248Y-28165000D01*
X115723752Y-29635000D02*
X115201248Y-29635000D01*
%TO.C,C19*%
X115723752Y-31665000D02*
X115201248Y-31665000D01*
X115723752Y-33135000D02*
X115201248Y-33135000D01*
%TO.C,C18*%
X115723752Y-35105000D02*
X115201248Y-35105000D01*
X115723752Y-36575000D02*
X115201248Y-36575000D01*
%TO.C,C12*%
X97628748Y-79775000D02*
X98151252Y-79775000D01*
X97628748Y-78305000D02*
X98151252Y-78305000D01*
%TO.C,C11*%
X91885000Y-71611252D02*
X91885000Y-71088748D01*
X90415000Y-71611252D02*
X90415000Y-71088748D01*
%TO.C,C10*%
X90415000Y-64651248D02*
X90415000Y-65173752D01*
X91885000Y-64651248D02*
X91885000Y-65173752D01*
%TO.C,C9*%
X112261252Y-85765000D02*
X111738748Y-85765000D01*
X112261252Y-87235000D02*
X111738748Y-87235000D01*
%TO.C,C8*%
X100765000Y-77388748D02*
X100765000Y-77911252D01*
X102235000Y-77388748D02*
X102235000Y-77911252D01*
%TO.C,C7*%
X105838748Y-61135000D02*
X106361252Y-61135000D01*
X105838748Y-59665000D02*
X106361252Y-59665000D01*
%TO.C,C6*%
X132988748Y-79685000D02*
X133511252Y-79685000D01*
X132988748Y-78215000D02*
X133511252Y-78215000D01*
%TO.C,C5*%
X120138748Y-83985000D02*
X120661252Y-83985000D01*
X120138748Y-82515000D02*
X120661252Y-82515000D01*
%TO.C,C4*%
X133188748Y-75935000D02*
X133711252Y-75935000D01*
X133188748Y-74465000D02*
X133711252Y-74465000D01*
%TO.C,C3*%
X120288748Y-79985000D02*
X120811252Y-79985000D01*
X120288748Y-78515000D02*
X120811252Y-78515000D01*
%TO.C,JP3(CHG-BATT)*%
D12*
X93320000Y-21279285D02*
X93320000Y-21815000D01*
X93284285Y-21922142D01*
X93212857Y-21993571D01*
X93105714Y-22029285D01*
X93034285Y-22029285D01*
X93677142Y-22029285D02*
X93677142Y-21279285D01*
X93962857Y-21279285D01*
X94034285Y-21315000D01*
X94070000Y-21350714D01*
X94105714Y-21422142D01*
X94105714Y-21529285D01*
X94070000Y-21600714D01*
X94034285Y-21636428D01*
X93962857Y-21672142D01*
X93677142Y-21672142D01*
X94355714Y-21279285D02*
X94820000Y-21279285D01*
X94570000Y-21565000D01*
X94677142Y-21565000D01*
X94748571Y-21600714D01*
X94784285Y-21636428D01*
X94820000Y-21707857D01*
X94820000Y-21886428D01*
X94784285Y-21957857D01*
X94748571Y-21993571D01*
X94677142Y-22029285D01*
X94462857Y-22029285D01*
X94391428Y-21993571D01*
X94355714Y-21957857D01*
X95355714Y-22315000D02*
X95320000Y-22279285D01*
X95248571Y-22172142D01*
X95212857Y-22100714D01*
X95177142Y-21993571D01*
X95141428Y-21815000D01*
X95141428Y-21672142D01*
X95177142Y-21493571D01*
X95212857Y-21386428D01*
X95248571Y-21315000D01*
X95320000Y-21207857D01*
X95355714Y-21172142D01*
X96070000Y-21957857D02*
X96034285Y-21993571D01*
X95927142Y-22029285D01*
X95855714Y-22029285D01*
X95748571Y-21993571D01*
X95677142Y-21922142D01*
X95641428Y-21850714D01*
X95605714Y-21707857D01*
X95605714Y-21600714D01*
X95641428Y-21457857D01*
X95677142Y-21386428D01*
X95748571Y-21315000D01*
X95855714Y-21279285D01*
X95927142Y-21279285D01*
X96034285Y-21315000D01*
X96070000Y-21350714D01*
X96391428Y-22029285D02*
X96391428Y-21279285D01*
X96391428Y-21636428D02*
X96820000Y-21636428D01*
X96820000Y-22029285D02*
X96820000Y-21279285D01*
X97570000Y-21315000D02*
X97498571Y-21279285D01*
X97391428Y-21279285D01*
X97284285Y-21315000D01*
X97212857Y-21386428D01*
X97177142Y-21457857D01*
X97141428Y-21600714D01*
X97141428Y-21707857D01*
X97177142Y-21850714D01*
X97212857Y-21922142D01*
X97284285Y-21993571D01*
X97391428Y-22029285D01*
X97462857Y-22029285D01*
X97570000Y-21993571D01*
X97605714Y-21957857D01*
X97605714Y-21707857D01*
X97462857Y-21707857D01*
X97927142Y-21743571D02*
X98498571Y-21743571D01*
X99105714Y-21636428D02*
X99212857Y-21672142D01*
X99248571Y-21707857D01*
X99284285Y-21779285D01*
X99284285Y-21886428D01*
X99248571Y-21957857D01*
X99212857Y-21993571D01*
X99141428Y-22029285D01*
X98855714Y-22029285D01*
X98855714Y-21279285D01*
X99105714Y-21279285D01*
X99177142Y-21315000D01*
X99212857Y-21350714D01*
X99248571Y-21422142D01*
X99248571Y-21493571D01*
X99212857Y-21565000D01*
X99177142Y-21600714D01*
X99105714Y-21636428D01*
X98855714Y-21636428D01*
X99570000Y-21815000D02*
X99927142Y-21815000D01*
X99498571Y-22029285D02*
X99748571Y-21279285D01*
X99998571Y-22029285D01*
X100141428Y-21279285D02*
X100570000Y-21279285D01*
X100355714Y-22029285D02*
X100355714Y-21279285D01*
X100712857Y-21279285D02*
X101141428Y-21279285D01*
X100927142Y-22029285D02*
X100927142Y-21279285D01*
X101320000Y-22315000D02*
X101355714Y-22279285D01*
X101427142Y-22172142D01*
X101462857Y-22100714D01*
X101498571Y-21993571D01*
X101534285Y-21815000D01*
X101534285Y-21672142D01*
X101498571Y-21493571D01*
X101462857Y-21386428D01*
X101427142Y-21315000D01*
X101355714Y-21207857D01*
X101320000Y-21172142D01*
%TO.C,U8*%
X92528571Y-34699285D02*
X92528571Y-35306428D01*
X92564285Y-35377857D01*
X92600000Y-35413571D01*
X92671428Y-35449285D01*
X92814285Y-35449285D01*
X92885714Y-35413571D01*
X92921428Y-35377857D01*
X92957142Y-35306428D01*
X92957142Y-34699285D01*
X93421428Y-35020714D02*
X93350000Y-34985000D01*
X93314285Y-34949285D01*
X93278571Y-34877857D01*
X93278571Y-34842142D01*
X93314285Y-34770714D01*
X93350000Y-34735000D01*
X93421428Y-34699285D01*
X93564285Y-34699285D01*
X93635714Y-34735000D01*
X93671428Y-34770714D01*
X93707142Y-34842142D01*
X93707142Y-34877857D01*
X93671428Y-34949285D01*
X93635714Y-34985000D01*
X93564285Y-35020714D01*
X93421428Y-35020714D01*
X93350000Y-35056428D01*
X93314285Y-35092142D01*
X93278571Y-35163571D01*
X93278571Y-35306428D01*
X93314285Y-35377857D01*
X93350000Y-35413571D01*
X93421428Y-35449285D01*
X93564285Y-35449285D01*
X93635714Y-35413571D01*
X93671428Y-35377857D01*
X93707142Y-35306428D01*
X93707142Y-35163571D01*
X93671428Y-35092142D01*
X93635714Y-35056428D01*
X93564285Y-35020714D01*
%TO.C,R22*%
X96917857Y-45589285D02*
X96667857Y-45232142D01*
X96489285Y-45589285D02*
X96489285Y-44839285D01*
X96775000Y-44839285D01*
X96846428Y-44875000D01*
X96882142Y-44910714D01*
X96917857Y-44982142D01*
X96917857Y-45089285D01*
X96882142Y-45160714D01*
X96846428Y-45196428D01*
X96775000Y-45232142D01*
X96489285Y-45232142D01*
X97203571Y-44910714D02*
X97239285Y-44875000D01*
X97310714Y-44839285D01*
X97489285Y-44839285D01*
X97560714Y-44875000D01*
X97596428Y-44910714D01*
X97632142Y-44982142D01*
X97632142Y-45053571D01*
X97596428Y-45160714D01*
X97167857Y-45589285D01*
X97632142Y-45589285D01*
X97917857Y-44910714D02*
X97953571Y-44875000D01*
X98025000Y-44839285D01*
X98203571Y-44839285D01*
X98275000Y-44875000D01*
X98310714Y-44910714D01*
X98346428Y-44982142D01*
X98346428Y-45053571D01*
X98310714Y-45160714D01*
X97882142Y-45589285D01*
X98346428Y-45589285D01*
%TO.C,R21*%
X97017857Y-41589285D02*
X96767857Y-41232142D01*
X96589285Y-41589285D02*
X96589285Y-40839285D01*
X96875000Y-40839285D01*
X96946428Y-40875000D01*
X96982142Y-40910714D01*
X97017857Y-40982142D01*
X97017857Y-41089285D01*
X96982142Y-41160714D01*
X96946428Y-41196428D01*
X96875000Y-41232142D01*
X96589285Y-41232142D01*
X97303571Y-40910714D02*
X97339285Y-40875000D01*
X97410714Y-40839285D01*
X97589285Y-40839285D01*
X97660714Y-40875000D01*
X97696428Y-40910714D01*
X97732142Y-40982142D01*
X97732142Y-41053571D01*
X97696428Y-41160714D01*
X97267857Y-41589285D01*
X97732142Y-41589285D01*
X98446428Y-41589285D02*
X98017857Y-41589285D01*
X98232142Y-41589285D02*
X98232142Y-40839285D01*
X98160714Y-40946428D01*
X98089285Y-41017857D01*
X98017857Y-41053571D01*
%TO.C,R4*%
X94175000Y-26939285D02*
X93925000Y-26582142D01*
X93746428Y-26939285D02*
X93746428Y-26189285D01*
X94032142Y-26189285D01*
X94103571Y-26225000D01*
X94139285Y-26260714D01*
X94175000Y-26332142D01*
X94175000Y-26439285D01*
X94139285Y-26510714D01*
X94103571Y-26546428D01*
X94032142Y-26582142D01*
X93746428Y-26582142D01*
X94817857Y-26439285D02*
X94817857Y-26939285D01*
X94639285Y-26153571D02*
X94460714Y-26689285D01*
X94925000Y-26689285D01*
%TO.C,JP2(BQ-5V)*%
X100984285Y-51199285D02*
X100984285Y-51735000D01*
X100948571Y-51842142D01*
X100877142Y-51913571D01*
X100770000Y-51949285D01*
X100698571Y-51949285D01*
X101341428Y-51949285D02*
X101341428Y-51199285D01*
X101627142Y-51199285D01*
X101698571Y-51235000D01*
X101734285Y-51270714D01*
X101770000Y-51342142D01*
X101770000Y-51449285D01*
X101734285Y-51520714D01*
X101698571Y-51556428D01*
X101627142Y-51592142D01*
X101341428Y-51592142D01*
X102055714Y-51270714D02*
X102091428Y-51235000D01*
X102162857Y-51199285D01*
X102341428Y-51199285D01*
X102412857Y-51235000D01*
X102448571Y-51270714D01*
X102484285Y-51342142D01*
X102484285Y-51413571D01*
X102448571Y-51520714D01*
X102020000Y-51949285D01*
X102484285Y-51949285D01*
X103020000Y-52235000D02*
X102984285Y-52199285D01*
X102912857Y-52092142D01*
X102877142Y-52020714D01*
X102841428Y-51913571D01*
X102805714Y-51735000D01*
X102805714Y-51592142D01*
X102841428Y-51413571D01*
X102877142Y-51306428D01*
X102912857Y-51235000D01*
X102984285Y-51127857D01*
X103020000Y-51092142D01*
X103555714Y-51556428D02*
X103662857Y-51592142D01*
X103698571Y-51627857D01*
X103734285Y-51699285D01*
X103734285Y-51806428D01*
X103698571Y-51877857D01*
X103662857Y-51913571D01*
X103591428Y-51949285D01*
X103305714Y-51949285D01*
X103305714Y-51199285D01*
X103555714Y-51199285D01*
X103627142Y-51235000D01*
X103662857Y-51270714D01*
X103698571Y-51342142D01*
X103698571Y-51413571D01*
X103662857Y-51485000D01*
X103627142Y-51520714D01*
X103555714Y-51556428D01*
X103305714Y-51556428D01*
X104555714Y-52020714D02*
X104484285Y-51985000D01*
X104412857Y-51913571D01*
X104305714Y-51806428D01*
X104234285Y-51770714D01*
X104162857Y-51770714D01*
X104198571Y-51949285D02*
X104127142Y-51913571D01*
X104055714Y-51842142D01*
X104020000Y-51699285D01*
X104020000Y-51449285D01*
X104055714Y-51306428D01*
X104127142Y-51235000D01*
X104198571Y-51199285D01*
X104341428Y-51199285D01*
X104412857Y-51235000D01*
X104484285Y-51306428D01*
X104520000Y-51449285D01*
X104520000Y-51699285D01*
X104484285Y-51842142D01*
X104412857Y-51913571D01*
X104341428Y-51949285D01*
X104198571Y-51949285D01*
X104841428Y-51663571D02*
X105412857Y-51663571D01*
X106127142Y-51199285D02*
X105770000Y-51199285D01*
X105734285Y-51556428D01*
X105770000Y-51520714D01*
X105841428Y-51485000D01*
X106020000Y-51485000D01*
X106091428Y-51520714D01*
X106127142Y-51556428D01*
X106162857Y-51627857D01*
X106162857Y-51806428D01*
X106127142Y-51877857D01*
X106091428Y-51913571D01*
X106020000Y-51949285D01*
X105841428Y-51949285D01*
X105770000Y-51913571D01*
X105734285Y-51877857D01*
X106377142Y-51199285D02*
X106627142Y-51949285D01*
X106877142Y-51199285D01*
X107055714Y-52235000D02*
X107091428Y-52199285D01*
X107162857Y-52092142D01*
X107198571Y-52020714D01*
X107234285Y-51913571D01*
X107270000Y-51735000D01*
X107270000Y-51592142D01*
X107234285Y-51413571D01*
X107198571Y-51306428D01*
X107162857Y-51235000D01*
X107091428Y-51127857D01*
X107055714Y-51092142D01*
%TO.C,D5*%
X92546428Y-48889285D02*
X92546428Y-48139285D01*
X92725000Y-48139285D01*
X92832142Y-48175000D01*
X92903571Y-48246428D01*
X92939285Y-48317857D01*
X92975000Y-48460714D01*
X92975000Y-48567857D01*
X92939285Y-48710714D01*
X92903571Y-48782142D01*
X92832142Y-48853571D01*
X92725000Y-48889285D01*
X92546428Y-48889285D01*
X93653571Y-48139285D02*
X93296428Y-48139285D01*
X93260714Y-48496428D01*
X93296428Y-48460714D01*
X93367857Y-48425000D01*
X93546428Y-48425000D01*
X93617857Y-48460714D01*
X93653571Y-48496428D01*
X93689285Y-48567857D01*
X93689285Y-48746428D01*
X93653571Y-48817857D01*
X93617857Y-48853571D01*
X93546428Y-48889285D01*
X93367857Y-48889285D01*
X93296428Y-48853571D01*
X93260714Y-48817857D01*
%TO.C,D4*%
X92746428Y-41689285D02*
X92746428Y-40939285D01*
X92925000Y-40939285D01*
X93032142Y-40975000D01*
X93103571Y-41046428D01*
X93139285Y-41117857D01*
X93175000Y-41260714D01*
X93175000Y-41367857D01*
X93139285Y-41510714D01*
X93103571Y-41582142D01*
X93032142Y-41653571D01*
X92925000Y-41689285D01*
X92746428Y-41689285D01*
X93817857Y-41189285D02*
X93817857Y-41689285D01*
X93639285Y-40903571D02*
X93460714Y-41439285D01*
X93925000Y-41439285D01*
%TO.C,C14*%
X109817857Y-34967857D02*
X109782142Y-35003571D01*
X109675000Y-35039285D01*
X109603571Y-35039285D01*
X109496428Y-35003571D01*
X109425000Y-34932142D01*
X109389285Y-34860714D01*
X109353571Y-34717857D01*
X109353571Y-34610714D01*
X109389285Y-34467857D01*
X109425000Y-34396428D01*
X109496428Y-34325000D01*
X109603571Y-34289285D01*
X109675000Y-34289285D01*
X109782142Y-34325000D01*
X109817857Y-34360714D01*
X110532142Y-35039285D02*
X110103571Y-35039285D01*
X110317857Y-35039285D02*
X110317857Y-34289285D01*
X110246428Y-34396428D01*
X110175000Y-34467857D01*
X110103571Y-34503571D01*
X111175000Y-34539285D02*
X111175000Y-35039285D01*
X110996428Y-34253571D02*
X110817857Y-34789285D01*
X111282142Y-34789285D01*
%TO.C,C13*%
X105857857Y-34597857D02*
X105822142Y-34633571D01*
X105715000Y-34669285D01*
X105643571Y-34669285D01*
X105536428Y-34633571D01*
X105465000Y-34562142D01*
X105429285Y-34490714D01*
X105393571Y-34347857D01*
X105393571Y-34240714D01*
X105429285Y-34097857D01*
X105465000Y-34026428D01*
X105536428Y-33955000D01*
X105643571Y-33919285D01*
X105715000Y-33919285D01*
X105822142Y-33955000D01*
X105857857Y-33990714D01*
X106572142Y-34669285D02*
X106143571Y-34669285D01*
X106357857Y-34669285D02*
X106357857Y-33919285D01*
X106286428Y-34026428D01*
X106215000Y-34097857D01*
X106143571Y-34133571D01*
X106822142Y-33919285D02*
X107286428Y-33919285D01*
X107036428Y-34205000D01*
X107143571Y-34205000D01*
X107215000Y-34240714D01*
X107250714Y-34276428D01*
X107286428Y-34347857D01*
X107286428Y-34526428D01*
X107250714Y-34597857D01*
X107215000Y-34633571D01*
X107143571Y-34669285D01*
X106929285Y-34669285D01*
X106857857Y-34633571D01*
X106822142Y-34597857D01*
%TO.C,C2*%
X94305000Y-37677857D02*
X94269285Y-37713571D01*
X94162142Y-37749285D01*
X94090714Y-37749285D01*
X93983571Y-37713571D01*
X93912142Y-37642142D01*
X93876428Y-37570714D01*
X93840714Y-37427857D01*
X93840714Y-37320714D01*
X93876428Y-37177857D01*
X93912142Y-37106428D01*
X93983571Y-37035000D01*
X94090714Y-36999285D01*
X94162142Y-36999285D01*
X94269285Y-37035000D01*
X94305000Y-37070714D01*
X94590714Y-37070714D02*
X94626428Y-37035000D01*
X94697857Y-36999285D01*
X94876428Y-36999285D01*
X94947857Y-37035000D01*
X94983571Y-37070714D01*
X95019285Y-37142142D01*
X95019285Y-37213571D01*
X94983571Y-37320714D01*
X94555000Y-37749285D01*
X95019285Y-37749285D01*
%TO.C,C1*%
X101305000Y-35877857D02*
X101269285Y-35913571D01*
X101162142Y-35949285D01*
X101090714Y-35949285D01*
X100983571Y-35913571D01*
X100912142Y-35842142D01*
X100876428Y-35770714D01*
X100840714Y-35627857D01*
X100840714Y-35520714D01*
X100876428Y-35377857D01*
X100912142Y-35306428D01*
X100983571Y-35235000D01*
X101090714Y-35199285D01*
X101162142Y-35199285D01*
X101269285Y-35235000D01*
X101305000Y-35270714D01*
X102019285Y-35949285D02*
X101590714Y-35949285D01*
X101805000Y-35949285D02*
X101805000Y-35199285D01*
X101733571Y-35306428D01*
X101662142Y-35377857D01*
X101590714Y-35413571D01*
%TO.C,U2*%
X105028571Y-43759285D02*
X105028571Y-44366428D01*
X105064285Y-44437857D01*
X105100000Y-44473571D01*
X105171428Y-44509285D01*
X105314285Y-44509285D01*
X105385714Y-44473571D01*
X105421428Y-44437857D01*
X105457142Y-44366428D01*
X105457142Y-43759285D01*
X105778571Y-43830714D02*
X105814285Y-43795000D01*
X105885714Y-43759285D01*
X106064285Y-43759285D01*
X106135714Y-43795000D01*
X106171428Y-43830714D01*
X106207142Y-43902142D01*
X106207142Y-43973571D01*
X106171428Y-44080714D01*
X105742857Y-44509285D01*
X106207142Y-44509285D01*
%TO.C,U5*%
X148088571Y-68899285D02*
X148088571Y-69506428D01*
X148124285Y-69577857D01*
X148160000Y-69613571D01*
X148231428Y-69649285D01*
X148374285Y-69649285D01*
X148445714Y-69613571D01*
X148481428Y-69577857D01*
X148517142Y-69506428D01*
X148517142Y-68899285D01*
X149231428Y-68899285D02*
X148874285Y-68899285D01*
X148838571Y-69256428D01*
X148874285Y-69220714D01*
X148945714Y-69185000D01*
X149124285Y-69185000D01*
X149195714Y-69220714D01*
X149231428Y-69256428D01*
X149267142Y-69327857D01*
X149267142Y-69506428D01*
X149231428Y-69577857D01*
X149195714Y-69613571D01*
X149124285Y-69649285D01*
X148945714Y-69649285D01*
X148874285Y-69613571D01*
X148838571Y-69577857D01*
%TO.C,U4*%
X139368571Y-56309285D02*
X139368571Y-56916428D01*
X139404285Y-56987857D01*
X139440000Y-57023571D01*
X139511428Y-57059285D01*
X139654285Y-57059285D01*
X139725714Y-57023571D01*
X139761428Y-56987857D01*
X139797142Y-56916428D01*
X139797142Y-56309285D01*
X140475714Y-56559285D02*
X140475714Y-57059285D01*
X140297142Y-56273571D02*
X140118571Y-56809285D01*
X140582857Y-56809285D01*
%TO.C,J6 (COIL)*%
X126244285Y-20909285D02*
X126244285Y-21445000D01*
X126208571Y-21552142D01*
X126137142Y-21623571D01*
X126030000Y-21659285D01*
X125958571Y-21659285D01*
X126922857Y-20909285D02*
X126780000Y-20909285D01*
X126708571Y-20945000D01*
X126672857Y-20980714D01*
X126601428Y-21087857D01*
X126565714Y-21230714D01*
X126565714Y-21516428D01*
X126601428Y-21587857D01*
X126637142Y-21623571D01*
X126708571Y-21659285D01*
X126851428Y-21659285D01*
X126922857Y-21623571D01*
X126958571Y-21587857D01*
X126994285Y-21516428D01*
X126994285Y-21337857D01*
X126958571Y-21266428D01*
X126922857Y-21230714D01*
X126851428Y-21195000D01*
X126708571Y-21195000D01*
X126637142Y-21230714D01*
X126601428Y-21266428D01*
X126565714Y-21337857D01*
X128101428Y-21945000D02*
X128065714Y-21909285D01*
X127994285Y-21802142D01*
X127958571Y-21730714D01*
X127922857Y-21623571D01*
X127887142Y-21445000D01*
X127887142Y-21302142D01*
X127922857Y-21123571D01*
X127958571Y-21016428D01*
X127994285Y-20945000D01*
X128065714Y-20837857D01*
X128101428Y-20802142D01*
X128815714Y-21587857D02*
X128780000Y-21623571D01*
X128672857Y-21659285D01*
X128601428Y-21659285D01*
X128494285Y-21623571D01*
X128422857Y-21552142D01*
X128387142Y-21480714D01*
X128351428Y-21337857D01*
X128351428Y-21230714D01*
X128387142Y-21087857D01*
X128422857Y-21016428D01*
X128494285Y-20945000D01*
X128601428Y-20909285D01*
X128672857Y-20909285D01*
X128780000Y-20945000D01*
X128815714Y-20980714D01*
X129280000Y-20909285D02*
X129422857Y-20909285D01*
X129494285Y-20945000D01*
X129565714Y-21016428D01*
X129601428Y-21159285D01*
X129601428Y-21409285D01*
X129565714Y-21552142D01*
X129494285Y-21623571D01*
X129422857Y-21659285D01*
X129280000Y-21659285D01*
X129208571Y-21623571D01*
X129137142Y-21552142D01*
X129101428Y-21409285D01*
X129101428Y-21159285D01*
X129137142Y-21016428D01*
X129208571Y-20945000D01*
X129280000Y-20909285D01*
X129922857Y-21659285D02*
X129922857Y-20909285D01*
X130637142Y-21659285D02*
X130280000Y-21659285D01*
X130280000Y-20909285D01*
X130815714Y-21945000D02*
X130851428Y-21909285D01*
X130922857Y-21802142D01*
X130958571Y-21730714D01*
X130994285Y-21623571D01*
X131030000Y-21445000D01*
X131030000Y-21302142D01*
X130994285Y-21123571D01*
X130958571Y-21016428D01*
X130922857Y-20945000D01*
X130851428Y-20837857D01*
X130815714Y-20802142D01*
%TO.C,U7*%
X127788571Y-32369285D02*
X127788571Y-32976428D01*
X127824285Y-33047857D01*
X127860000Y-33083571D01*
X127931428Y-33119285D01*
X128074285Y-33119285D01*
X128145714Y-33083571D01*
X128181428Y-33047857D01*
X128217142Y-32976428D01*
X128217142Y-32369285D01*
X128502857Y-32369285D02*
X129002857Y-32369285D01*
X128681428Y-33119285D01*
%TO.C,U3*%
X138268571Y-65999285D02*
X138268571Y-66606428D01*
X138304285Y-66677857D01*
X138340000Y-66713571D01*
X138411428Y-66749285D01*
X138554285Y-66749285D01*
X138625714Y-66713571D01*
X138661428Y-66677857D01*
X138697142Y-66606428D01*
X138697142Y-65999285D01*
X138982857Y-65999285D02*
X139447142Y-65999285D01*
X139197142Y-66285000D01*
X139304285Y-66285000D01*
X139375714Y-66320714D01*
X139411428Y-66356428D01*
X139447142Y-66427857D01*
X139447142Y-66606428D01*
X139411428Y-66677857D01*
X139375714Y-66713571D01*
X139304285Y-66749285D01*
X139090000Y-66749285D01*
X139018571Y-66713571D01*
X138982857Y-66677857D01*
%TO.C,SW1*%
X91740000Y-76873571D02*
X91847142Y-76909285D01*
X92025714Y-76909285D01*
X92097142Y-76873571D01*
X92132857Y-76837857D01*
X92168571Y-76766428D01*
X92168571Y-76695000D01*
X92132857Y-76623571D01*
X92097142Y-76587857D01*
X92025714Y-76552142D01*
X91882857Y-76516428D01*
X91811428Y-76480714D01*
X91775714Y-76445000D01*
X91740000Y-76373571D01*
X91740000Y-76302142D01*
X91775714Y-76230714D01*
X91811428Y-76195000D01*
X91882857Y-76159285D01*
X92061428Y-76159285D01*
X92168571Y-76195000D01*
X92418571Y-76159285D02*
X92597142Y-76909285D01*
X92740000Y-76373571D01*
X92882857Y-76909285D01*
X93061428Y-76159285D01*
X93740000Y-76909285D02*
X93311428Y-76909285D01*
X93525714Y-76909285D02*
X93525714Y-76159285D01*
X93454285Y-76266428D01*
X93382857Y-76337857D01*
X93311428Y-76373571D01*
%TO.C,Y1*%
X100262857Y-61282142D02*
X100262857Y-61639285D01*
X100012857Y-60889285D02*
X100262857Y-61282142D01*
X100512857Y-60889285D01*
X101155714Y-61639285D02*
X100727142Y-61639285D01*
X100941428Y-61639285D02*
X100941428Y-60889285D01*
X100870000Y-60996428D01*
X100798571Y-61067857D01*
X100727142Y-61103571D01*
%TO.C,U6*%
X140528571Y-81589285D02*
X140528571Y-82196428D01*
X140564285Y-82267857D01*
X140600000Y-82303571D01*
X140671428Y-82339285D01*
X140814285Y-82339285D01*
X140885714Y-82303571D01*
X140921428Y-82267857D01*
X140957142Y-82196428D01*
X140957142Y-81589285D01*
X141635714Y-81589285D02*
X141492857Y-81589285D01*
X141421428Y-81625000D01*
X141385714Y-81660714D01*
X141314285Y-81767857D01*
X141278571Y-81910714D01*
X141278571Y-82196428D01*
X141314285Y-82267857D01*
X141350000Y-82303571D01*
X141421428Y-82339285D01*
X141564285Y-82339285D01*
X141635714Y-82303571D01*
X141671428Y-82267857D01*
X141707142Y-82196428D01*
X141707142Y-82017857D01*
X141671428Y-81946428D01*
X141635714Y-81910714D01*
X141564285Y-81875000D01*
X141421428Y-81875000D01*
X141350000Y-81910714D01*
X141314285Y-81946428D01*
X141278571Y-82017857D01*
%TO.C,U1*%
X111988571Y-61449285D02*
X111988571Y-62056428D01*
X112024285Y-62127857D01*
X112060000Y-62163571D01*
X112131428Y-62199285D01*
X112274285Y-62199285D01*
X112345714Y-62163571D01*
X112381428Y-62127857D01*
X112417142Y-62056428D01*
X112417142Y-61449285D01*
X113167142Y-62199285D02*
X112738571Y-62199285D01*
X112952857Y-62199285D02*
X112952857Y-61449285D01*
X112881428Y-61556428D01*
X112810000Y-61627857D01*
X112738571Y-61663571D01*
%TO.C,R20*%
X119717857Y-41689285D02*
X119467857Y-41332142D01*
X119289285Y-41689285D02*
X119289285Y-40939285D01*
X119575000Y-40939285D01*
X119646428Y-40975000D01*
X119682142Y-41010714D01*
X119717857Y-41082142D01*
X119717857Y-41189285D01*
X119682142Y-41260714D01*
X119646428Y-41296428D01*
X119575000Y-41332142D01*
X119289285Y-41332142D01*
X120003571Y-41010714D02*
X120039285Y-40975000D01*
X120110714Y-40939285D01*
X120289285Y-40939285D01*
X120360714Y-40975000D01*
X120396428Y-41010714D01*
X120432142Y-41082142D01*
X120432142Y-41153571D01*
X120396428Y-41260714D01*
X119967857Y-41689285D01*
X120432142Y-41689285D01*
X120896428Y-40939285D02*
X120967857Y-40939285D01*
X121039285Y-40975000D01*
X121075000Y-41010714D01*
X121110714Y-41082142D01*
X121146428Y-41225000D01*
X121146428Y-41403571D01*
X121110714Y-41546428D01*
X121075000Y-41617857D01*
X121039285Y-41653571D01*
X120967857Y-41689285D01*
X120896428Y-41689285D01*
X120825000Y-41653571D01*
X120789285Y-41617857D01*
X120753571Y-41546428D01*
X120717857Y-41403571D01*
X120717857Y-41225000D01*
X120753571Y-41082142D01*
X120789285Y-41010714D01*
X120825000Y-40975000D01*
X120896428Y-40939285D01*
%TO.C,R19*%
X147767857Y-30429285D02*
X147517857Y-30072142D01*
X147339285Y-30429285D02*
X147339285Y-29679285D01*
X147625000Y-29679285D01*
X147696428Y-29715000D01*
X147732142Y-29750714D01*
X147767857Y-29822142D01*
X147767857Y-29929285D01*
X147732142Y-30000714D01*
X147696428Y-30036428D01*
X147625000Y-30072142D01*
X147339285Y-30072142D01*
X148482142Y-30429285D02*
X148053571Y-30429285D01*
X148267857Y-30429285D02*
X148267857Y-29679285D01*
X148196428Y-29786428D01*
X148125000Y-29857857D01*
X148053571Y-29893571D01*
X148839285Y-30429285D02*
X148982142Y-30429285D01*
X149053571Y-30393571D01*
X149089285Y-30357857D01*
X149160714Y-30250714D01*
X149196428Y-30107857D01*
X149196428Y-29822142D01*
X149160714Y-29750714D01*
X149125000Y-29715000D01*
X149053571Y-29679285D01*
X148910714Y-29679285D01*
X148839285Y-29715000D01*
X148803571Y-29750714D01*
X148767857Y-29822142D01*
X148767857Y-30000714D01*
X148803571Y-30072142D01*
X148839285Y-30107857D01*
X148910714Y-30143571D01*
X149053571Y-30143571D01*
X149125000Y-30107857D01*
X149160714Y-30072142D01*
X149196428Y-30000714D01*
%TO.C,R18*%
X114087857Y-46599285D02*
X113837857Y-46242142D01*
X113659285Y-46599285D02*
X113659285Y-45849285D01*
X113945000Y-45849285D01*
X114016428Y-45885000D01*
X114052142Y-45920714D01*
X114087857Y-45992142D01*
X114087857Y-46099285D01*
X114052142Y-46170714D01*
X114016428Y-46206428D01*
X113945000Y-46242142D01*
X113659285Y-46242142D01*
X114802142Y-46599285D02*
X114373571Y-46599285D01*
X114587857Y-46599285D02*
X114587857Y-45849285D01*
X114516428Y-45956428D01*
X114445000Y-46027857D01*
X114373571Y-46063571D01*
X115230714Y-46170714D02*
X115159285Y-46135000D01*
X115123571Y-46099285D01*
X115087857Y-46027857D01*
X115087857Y-45992142D01*
X115123571Y-45920714D01*
X115159285Y-45885000D01*
X115230714Y-45849285D01*
X115373571Y-45849285D01*
X115445000Y-45885000D01*
X115480714Y-45920714D01*
X115516428Y-45992142D01*
X115516428Y-46027857D01*
X115480714Y-46099285D01*
X115445000Y-46135000D01*
X115373571Y-46170714D01*
X115230714Y-46170714D01*
X115159285Y-46206428D01*
X115123571Y-46242142D01*
X115087857Y-46313571D01*
X115087857Y-46456428D01*
X115123571Y-46527857D01*
X115159285Y-46563571D01*
X115230714Y-46599285D01*
X115373571Y-46599285D01*
X115445000Y-46563571D01*
X115480714Y-46527857D01*
X115516428Y-46456428D01*
X115516428Y-46313571D01*
X115480714Y-46242142D01*
X115445000Y-46206428D01*
X115373571Y-46170714D01*
%TO.C,R17*%
X121727857Y-46599285D02*
X121477857Y-46242142D01*
X121299285Y-46599285D02*
X121299285Y-45849285D01*
X121585000Y-45849285D01*
X121656428Y-45885000D01*
X121692142Y-45920714D01*
X121727857Y-45992142D01*
X121727857Y-46099285D01*
X121692142Y-46170714D01*
X121656428Y-46206428D01*
X121585000Y-46242142D01*
X121299285Y-46242142D01*
X122442142Y-46599285D02*
X122013571Y-46599285D01*
X122227857Y-46599285D02*
X122227857Y-45849285D01*
X122156428Y-45956428D01*
X122085000Y-46027857D01*
X122013571Y-46063571D01*
X122692142Y-45849285D02*
X123192142Y-45849285D01*
X122870714Y-46599285D01*
%TO.C,R16*%
X117157857Y-46669285D02*
X116907857Y-46312142D01*
X116729285Y-46669285D02*
X116729285Y-45919285D01*
X117015000Y-45919285D01*
X117086428Y-45955000D01*
X117122142Y-45990714D01*
X117157857Y-46062142D01*
X117157857Y-46169285D01*
X117122142Y-46240714D01*
X117086428Y-46276428D01*
X117015000Y-46312142D01*
X116729285Y-46312142D01*
X117872142Y-46669285D02*
X117443571Y-46669285D01*
X117657857Y-46669285D02*
X117657857Y-45919285D01*
X117586428Y-46026428D01*
X117515000Y-46097857D01*
X117443571Y-46133571D01*
X118515000Y-45919285D02*
X118372142Y-45919285D01*
X118300714Y-45955000D01*
X118265000Y-45990714D01*
X118193571Y-46097857D01*
X118157857Y-46240714D01*
X118157857Y-46526428D01*
X118193571Y-46597857D01*
X118229285Y-46633571D01*
X118300714Y-46669285D01*
X118443571Y-46669285D01*
X118515000Y-46633571D01*
X118550714Y-46597857D01*
X118586428Y-46526428D01*
X118586428Y-46347857D01*
X118550714Y-46276428D01*
X118515000Y-46240714D01*
X118443571Y-46205000D01*
X118300714Y-46205000D01*
X118229285Y-46240714D01*
X118193571Y-46276428D01*
X118157857Y-46347857D01*
%TO.C,R15*%
X149817857Y-23739285D02*
X149567857Y-23382142D01*
X149389285Y-23739285D02*
X149389285Y-22989285D01*
X149675000Y-22989285D01*
X149746428Y-23025000D01*
X149782142Y-23060714D01*
X149817857Y-23132142D01*
X149817857Y-23239285D01*
X149782142Y-23310714D01*
X149746428Y-23346428D01*
X149675000Y-23382142D01*
X149389285Y-23382142D01*
X150532142Y-23739285D02*
X150103571Y-23739285D01*
X150317857Y-23739285D02*
X150317857Y-22989285D01*
X150246428Y-23096428D01*
X150175000Y-23167857D01*
X150103571Y-23203571D01*
X151210714Y-22989285D02*
X150853571Y-22989285D01*
X150817857Y-23346428D01*
X150853571Y-23310714D01*
X150925000Y-23275000D01*
X151103571Y-23275000D01*
X151175000Y-23310714D01*
X151210714Y-23346428D01*
X151246428Y-23417857D01*
X151246428Y-23596428D01*
X151210714Y-23667857D01*
X151175000Y-23703571D01*
X151103571Y-23739285D01*
X150925000Y-23739285D01*
X150853571Y-23703571D01*
X150817857Y-23667857D01*
%TO.C,R14*%
X125977857Y-42469285D02*
X125727857Y-42112142D01*
X125549285Y-42469285D02*
X125549285Y-41719285D01*
X125835000Y-41719285D01*
X125906428Y-41755000D01*
X125942142Y-41790714D01*
X125977857Y-41862142D01*
X125977857Y-41969285D01*
X125942142Y-42040714D01*
X125906428Y-42076428D01*
X125835000Y-42112142D01*
X125549285Y-42112142D01*
X126692142Y-42469285D02*
X126263571Y-42469285D01*
X126477857Y-42469285D02*
X126477857Y-41719285D01*
X126406428Y-41826428D01*
X126335000Y-41897857D01*
X126263571Y-41933571D01*
X127335000Y-41969285D02*
X127335000Y-42469285D01*
X127156428Y-41683571D02*
X126977857Y-42219285D01*
X127442142Y-42219285D01*
%TO.C,R13*%
X130107857Y-42509285D02*
X129857857Y-42152142D01*
X129679285Y-42509285D02*
X129679285Y-41759285D01*
X129965000Y-41759285D01*
X130036428Y-41795000D01*
X130072142Y-41830714D01*
X130107857Y-41902142D01*
X130107857Y-42009285D01*
X130072142Y-42080714D01*
X130036428Y-42116428D01*
X129965000Y-42152142D01*
X129679285Y-42152142D01*
X130822142Y-42509285D02*
X130393571Y-42509285D01*
X130607857Y-42509285D02*
X130607857Y-41759285D01*
X130536428Y-41866428D01*
X130465000Y-41937857D01*
X130393571Y-41973571D01*
X131072142Y-41759285D02*
X131536428Y-41759285D01*
X131286428Y-42045000D01*
X131393571Y-42045000D01*
X131465000Y-42080714D01*
X131500714Y-42116428D01*
X131536428Y-42187857D01*
X131536428Y-42366428D01*
X131500714Y-42437857D01*
X131465000Y-42473571D01*
X131393571Y-42509285D01*
X131179285Y-42509285D01*
X131107857Y-42473571D01*
X131072142Y-42437857D01*
%TO.C,R12*%
X136677857Y-39959285D02*
X136427857Y-39602142D01*
X136249285Y-39959285D02*
X136249285Y-39209285D01*
X136535000Y-39209285D01*
X136606428Y-39245000D01*
X136642142Y-39280714D01*
X136677857Y-39352142D01*
X136677857Y-39459285D01*
X136642142Y-39530714D01*
X136606428Y-39566428D01*
X136535000Y-39602142D01*
X136249285Y-39602142D01*
X137392142Y-39959285D02*
X136963571Y-39959285D01*
X137177857Y-39959285D02*
X137177857Y-39209285D01*
X137106428Y-39316428D01*
X137035000Y-39387857D01*
X136963571Y-39423571D01*
X137677857Y-39280714D02*
X137713571Y-39245000D01*
X137785000Y-39209285D01*
X137963571Y-39209285D01*
X138035000Y-39245000D01*
X138070714Y-39280714D01*
X138106428Y-39352142D01*
X138106428Y-39423571D01*
X138070714Y-39530714D01*
X137642142Y-39959285D01*
X138106428Y-39959285D01*
%TO.C,R11*%
X143817857Y-77989285D02*
X143567857Y-77632142D01*
X143389285Y-77989285D02*
X143389285Y-77239285D01*
X143675000Y-77239285D01*
X143746428Y-77275000D01*
X143782142Y-77310714D01*
X143817857Y-77382142D01*
X143817857Y-77489285D01*
X143782142Y-77560714D01*
X143746428Y-77596428D01*
X143675000Y-77632142D01*
X143389285Y-77632142D01*
X144532142Y-77989285D02*
X144103571Y-77989285D01*
X144317857Y-77989285D02*
X144317857Y-77239285D01*
X144246428Y-77346428D01*
X144175000Y-77417857D01*
X144103571Y-77453571D01*
X145246428Y-77989285D02*
X144817857Y-77989285D01*
X145032142Y-77989285D02*
X145032142Y-77239285D01*
X144960714Y-77346428D01*
X144889285Y-77417857D01*
X144817857Y-77453571D01*
%TO.C,R10*%
X137327857Y-78029285D02*
X137077857Y-77672142D01*
X136899285Y-78029285D02*
X136899285Y-77279285D01*
X137185000Y-77279285D01*
X137256428Y-77315000D01*
X137292142Y-77350714D01*
X137327857Y-77422142D01*
X137327857Y-77529285D01*
X137292142Y-77600714D01*
X137256428Y-77636428D01*
X137185000Y-77672142D01*
X136899285Y-77672142D01*
X138042142Y-78029285D02*
X137613571Y-78029285D01*
X137827857Y-78029285D02*
X137827857Y-77279285D01*
X137756428Y-77386428D01*
X137685000Y-77457857D01*
X137613571Y-77493571D01*
X138506428Y-77279285D02*
X138577857Y-77279285D01*
X138649285Y-77315000D01*
X138685000Y-77350714D01*
X138720714Y-77422142D01*
X138756428Y-77565000D01*
X138756428Y-77743571D01*
X138720714Y-77886428D01*
X138685000Y-77957857D01*
X138649285Y-77993571D01*
X138577857Y-78029285D01*
X138506428Y-78029285D01*
X138435000Y-77993571D01*
X138399285Y-77957857D01*
X138363571Y-77886428D01*
X138327857Y-77743571D01*
X138327857Y-77565000D01*
X138363571Y-77422142D01*
X138399285Y-77350714D01*
X138435000Y-77315000D01*
X138506428Y-77279285D01*
%TO.C,R9*%
X148205000Y-62309285D02*
X147955000Y-61952142D01*
X147776428Y-62309285D02*
X147776428Y-61559285D01*
X148062142Y-61559285D01*
X148133571Y-61595000D01*
X148169285Y-61630714D01*
X148205000Y-61702142D01*
X148205000Y-61809285D01*
X148169285Y-61880714D01*
X148133571Y-61916428D01*
X148062142Y-61952142D01*
X147776428Y-61952142D01*
X148562142Y-62309285D02*
X148705000Y-62309285D01*
X148776428Y-62273571D01*
X148812142Y-62237857D01*
X148883571Y-62130714D01*
X148919285Y-61987857D01*
X148919285Y-61702142D01*
X148883571Y-61630714D01*
X148847857Y-61595000D01*
X148776428Y-61559285D01*
X148633571Y-61559285D01*
X148562142Y-61595000D01*
X148526428Y-61630714D01*
X148490714Y-61702142D01*
X148490714Y-61880714D01*
X148526428Y-61952142D01*
X148562142Y-61987857D01*
X148633571Y-62023571D01*
X148776428Y-62023571D01*
X148847857Y-61987857D01*
X148883571Y-61952142D01*
X148919285Y-61880714D01*
%TO.C,R8*%
X148275000Y-77589285D02*
X148025000Y-77232142D01*
X147846428Y-77589285D02*
X147846428Y-76839285D01*
X148132142Y-76839285D01*
X148203571Y-76875000D01*
X148239285Y-76910714D01*
X148275000Y-76982142D01*
X148275000Y-77089285D01*
X148239285Y-77160714D01*
X148203571Y-77196428D01*
X148132142Y-77232142D01*
X147846428Y-77232142D01*
X148703571Y-77160714D02*
X148632142Y-77125000D01*
X148596428Y-77089285D01*
X148560714Y-77017857D01*
X148560714Y-76982142D01*
X148596428Y-76910714D01*
X148632142Y-76875000D01*
X148703571Y-76839285D01*
X148846428Y-76839285D01*
X148917857Y-76875000D01*
X148953571Y-76910714D01*
X148989285Y-76982142D01*
X148989285Y-77017857D01*
X148953571Y-77089285D01*
X148917857Y-77125000D01*
X148846428Y-77160714D01*
X148703571Y-77160714D01*
X148632142Y-77196428D01*
X148596428Y-77232142D01*
X148560714Y-77303571D01*
X148560714Y-77446428D01*
X148596428Y-77517857D01*
X148632142Y-77553571D01*
X148703571Y-77589285D01*
X148846428Y-77589285D01*
X148917857Y-77553571D01*
X148953571Y-77517857D01*
X148989285Y-77446428D01*
X148989285Y-77303571D01*
X148953571Y-77232142D01*
X148917857Y-77196428D01*
X148846428Y-77160714D01*
%TO.C,R7*%
X138945000Y-64149285D02*
X138695000Y-63792142D01*
X138516428Y-64149285D02*
X138516428Y-63399285D01*
X138802142Y-63399285D01*
X138873571Y-63435000D01*
X138909285Y-63470714D01*
X138945000Y-63542142D01*
X138945000Y-63649285D01*
X138909285Y-63720714D01*
X138873571Y-63756428D01*
X138802142Y-63792142D01*
X138516428Y-63792142D01*
X139195000Y-63399285D02*
X139695000Y-63399285D01*
X139373571Y-64149285D01*
%TO.C,R6*%
X143855000Y-64239285D02*
X143605000Y-63882142D01*
X143426428Y-64239285D02*
X143426428Y-63489285D01*
X143712142Y-63489285D01*
X143783571Y-63525000D01*
X143819285Y-63560714D01*
X143855000Y-63632142D01*
X143855000Y-63739285D01*
X143819285Y-63810714D01*
X143783571Y-63846428D01*
X143712142Y-63882142D01*
X143426428Y-63882142D01*
X144497857Y-63489285D02*
X144355000Y-63489285D01*
X144283571Y-63525000D01*
X144247857Y-63560714D01*
X144176428Y-63667857D01*
X144140714Y-63810714D01*
X144140714Y-64096428D01*
X144176428Y-64167857D01*
X144212142Y-64203571D01*
X144283571Y-64239285D01*
X144426428Y-64239285D01*
X144497857Y-64203571D01*
X144533571Y-64167857D01*
X144569285Y-64096428D01*
X144569285Y-63917857D01*
X144533571Y-63846428D01*
X144497857Y-63810714D01*
X144426428Y-63775000D01*
X144283571Y-63775000D01*
X144212142Y-63810714D01*
X144176428Y-63846428D01*
X144140714Y-63917857D01*
%TO.C,R5*%
X135545000Y-65459285D02*
X135295000Y-65102142D01*
X135116428Y-65459285D02*
X135116428Y-64709285D01*
X135402142Y-64709285D01*
X135473571Y-64745000D01*
X135509285Y-64780714D01*
X135545000Y-64852142D01*
X135545000Y-64959285D01*
X135509285Y-65030714D01*
X135473571Y-65066428D01*
X135402142Y-65102142D01*
X135116428Y-65102142D01*
X136223571Y-64709285D02*
X135866428Y-64709285D01*
X135830714Y-65066428D01*
X135866428Y-65030714D01*
X135937857Y-64995000D01*
X136116428Y-64995000D01*
X136187857Y-65030714D01*
X136223571Y-65066428D01*
X136259285Y-65137857D01*
X136259285Y-65316428D01*
X136223571Y-65387857D01*
X136187857Y-65423571D01*
X136116428Y-65459285D01*
X135937857Y-65459285D01*
X135866428Y-65423571D01*
X135830714Y-65387857D01*
%TO.C,R3*%
X110275000Y-57839285D02*
X110025000Y-57482142D01*
X109846428Y-57839285D02*
X109846428Y-57089285D01*
X110132142Y-57089285D01*
X110203571Y-57125000D01*
X110239285Y-57160714D01*
X110275000Y-57232142D01*
X110275000Y-57339285D01*
X110239285Y-57410714D01*
X110203571Y-57446428D01*
X110132142Y-57482142D01*
X109846428Y-57482142D01*
X110525000Y-57089285D02*
X110989285Y-57089285D01*
X110739285Y-57375000D01*
X110846428Y-57375000D01*
X110917857Y-57410714D01*
X110953571Y-57446428D01*
X110989285Y-57517857D01*
X110989285Y-57696428D01*
X110953571Y-57767857D01*
X110917857Y-57803571D01*
X110846428Y-57839285D01*
X110632142Y-57839285D01*
X110560714Y-57803571D01*
X110525000Y-57767857D01*
%TO.C,R2*%
X98795000Y-55929285D02*
X98545000Y-55572142D01*
X98366428Y-55929285D02*
X98366428Y-55179285D01*
X98652142Y-55179285D01*
X98723571Y-55215000D01*
X98759285Y-55250714D01*
X98795000Y-55322142D01*
X98795000Y-55429285D01*
X98759285Y-55500714D01*
X98723571Y-55536428D01*
X98652142Y-55572142D01*
X98366428Y-55572142D01*
X99080714Y-55250714D02*
X99116428Y-55215000D01*
X99187857Y-55179285D01*
X99366428Y-55179285D01*
X99437857Y-55215000D01*
X99473571Y-55250714D01*
X99509285Y-55322142D01*
X99509285Y-55393571D01*
X99473571Y-55500714D01*
X99045000Y-55929285D01*
X99509285Y-55929285D01*
%TO.C,R1*%
X98795000Y-52209285D02*
X98545000Y-51852142D01*
X98366428Y-52209285D02*
X98366428Y-51459285D01*
X98652142Y-51459285D01*
X98723571Y-51495000D01*
X98759285Y-51530714D01*
X98795000Y-51602142D01*
X98795000Y-51709285D01*
X98759285Y-51780714D01*
X98723571Y-51816428D01*
X98652142Y-51852142D01*
X98366428Y-51852142D01*
X99509285Y-52209285D02*
X99080714Y-52209285D01*
X99295000Y-52209285D02*
X99295000Y-51459285D01*
X99223571Y-51566428D01*
X99152142Y-51637857D01*
X99080714Y-51673571D01*
%TO.C,JP1(LDO/TEST3V3)*%
X125137142Y-50759285D02*
X125137142Y-51295000D01*
X125101428Y-51402142D01*
X125030000Y-51473571D01*
X124922857Y-51509285D01*
X124851428Y-51509285D01*
X125494285Y-51509285D02*
X125494285Y-50759285D01*
X125780000Y-50759285D01*
X125851428Y-50795000D01*
X125887142Y-50830714D01*
X125922857Y-50902142D01*
X125922857Y-51009285D01*
X125887142Y-51080714D01*
X125851428Y-51116428D01*
X125780000Y-51152142D01*
X125494285Y-51152142D01*
X126637142Y-51509285D02*
X126208571Y-51509285D01*
X126422857Y-51509285D02*
X126422857Y-50759285D01*
X126351428Y-50866428D01*
X126280000Y-50937857D01*
X126208571Y-50973571D01*
X127172857Y-51795000D02*
X127137142Y-51759285D01*
X127065714Y-51652142D01*
X127030000Y-51580714D01*
X126994285Y-51473571D01*
X126958571Y-51295000D01*
X126958571Y-51152142D01*
X126994285Y-50973571D01*
X127030000Y-50866428D01*
X127065714Y-50795000D01*
X127137142Y-50687857D01*
X127172857Y-50652142D01*
X127815714Y-51509285D02*
X127458571Y-51509285D01*
X127458571Y-50759285D01*
X128065714Y-51509285D02*
X128065714Y-50759285D01*
X128244285Y-50759285D01*
X128351428Y-50795000D01*
X128422857Y-50866428D01*
X128458571Y-50937857D01*
X128494285Y-51080714D01*
X128494285Y-51187857D01*
X128458571Y-51330714D01*
X128422857Y-51402142D01*
X128351428Y-51473571D01*
X128244285Y-51509285D01*
X128065714Y-51509285D01*
X128958571Y-50759285D02*
X129101428Y-50759285D01*
X129172857Y-50795000D01*
X129244285Y-50866428D01*
X129280000Y-51009285D01*
X129280000Y-51259285D01*
X129244285Y-51402142D01*
X129172857Y-51473571D01*
X129101428Y-51509285D01*
X128958571Y-51509285D01*
X128887142Y-51473571D01*
X128815714Y-51402142D01*
X128780000Y-51259285D01*
X128780000Y-51009285D01*
X128815714Y-50866428D01*
X128887142Y-50795000D01*
X128958571Y-50759285D01*
X130137142Y-50723571D02*
X129494285Y-51687857D01*
X130280000Y-50759285D02*
X130708571Y-50759285D01*
X130494285Y-51509285D02*
X130494285Y-50759285D01*
X130958571Y-51116428D02*
X131208571Y-51116428D01*
X131315714Y-51509285D02*
X130958571Y-51509285D01*
X130958571Y-50759285D01*
X131315714Y-50759285D01*
X131601428Y-51473571D02*
X131708571Y-51509285D01*
X131887142Y-51509285D01*
X131958571Y-51473571D01*
X131994285Y-51437857D01*
X132030000Y-51366428D01*
X132030000Y-51295000D01*
X131994285Y-51223571D01*
X131958571Y-51187857D01*
X131887142Y-51152142D01*
X131744285Y-51116428D01*
X131672857Y-51080714D01*
X131637142Y-51045000D01*
X131601428Y-50973571D01*
X131601428Y-50902142D01*
X131637142Y-50830714D01*
X131672857Y-50795000D01*
X131744285Y-50759285D01*
X131922857Y-50759285D01*
X132030000Y-50795000D01*
X132244285Y-50759285D02*
X132672857Y-50759285D01*
X132458571Y-51509285D02*
X132458571Y-50759285D01*
X132851428Y-50759285D02*
X133315714Y-50759285D01*
X133065714Y-51045000D01*
X133172857Y-51045000D01*
X133244285Y-51080714D01*
X133280000Y-51116428D01*
X133315714Y-51187857D01*
X133315714Y-51366428D01*
X133280000Y-51437857D01*
X133244285Y-51473571D01*
X133172857Y-51509285D01*
X132958571Y-51509285D01*
X132887142Y-51473571D01*
X132851428Y-51437857D01*
X133530000Y-50759285D02*
X133780000Y-51509285D01*
X134030000Y-50759285D01*
X134208571Y-50759285D02*
X134672857Y-50759285D01*
X134422857Y-51045000D01*
X134530000Y-51045000D01*
X134601428Y-51080714D01*
X134637142Y-51116428D01*
X134672857Y-51187857D01*
X134672857Y-51366428D01*
X134637142Y-51437857D01*
X134601428Y-51473571D01*
X134530000Y-51509285D01*
X134315714Y-51509285D01*
X134244285Y-51473571D01*
X134208571Y-51437857D01*
X134922857Y-51795000D02*
X134958571Y-51759285D01*
X135030000Y-51652142D01*
X135065714Y-51580714D01*
X135101428Y-51473571D01*
X135137142Y-51295000D01*
X135137142Y-51152142D01*
X135101428Y-50973571D01*
X135065714Y-50866428D01*
X135030000Y-50795000D01*
X134958571Y-50687857D01*
X134922857Y-50652142D01*
%TO.C,J7 (TOF)*%
X102614285Y-80519285D02*
X102614285Y-81055000D01*
X102578571Y-81162142D01*
X102507142Y-81233571D01*
X102400000Y-81269285D01*
X102328571Y-81269285D01*
X102900000Y-80519285D02*
X103400000Y-80519285D01*
X103078571Y-81269285D01*
X104471428Y-81555000D02*
X104435714Y-81519285D01*
X104364285Y-81412142D01*
X104328571Y-81340714D01*
X104292857Y-81233571D01*
X104257142Y-81055000D01*
X104257142Y-80912142D01*
X104292857Y-80733571D01*
X104328571Y-80626428D01*
X104364285Y-80555000D01*
X104435714Y-80447857D01*
X104471428Y-80412142D01*
X104650000Y-80519285D02*
X105078571Y-80519285D01*
X104864285Y-81269285D02*
X104864285Y-80519285D01*
X105471428Y-80519285D02*
X105614285Y-80519285D01*
X105685714Y-80555000D01*
X105757142Y-80626428D01*
X105792857Y-80769285D01*
X105792857Y-81019285D01*
X105757142Y-81162142D01*
X105685714Y-81233571D01*
X105614285Y-81269285D01*
X105471428Y-81269285D01*
X105400000Y-81233571D01*
X105328571Y-81162142D01*
X105292857Y-81019285D01*
X105292857Y-80769285D01*
X105328571Y-80626428D01*
X105400000Y-80555000D01*
X105471428Y-80519285D01*
X106364285Y-80876428D02*
X106114285Y-80876428D01*
X106114285Y-81269285D02*
X106114285Y-80519285D01*
X106471428Y-80519285D01*
X106685714Y-81555000D02*
X106721428Y-81519285D01*
X106792857Y-81412142D01*
X106828571Y-81340714D01*
X106864285Y-81233571D01*
X106900000Y-81055000D01*
X106900000Y-80912142D01*
X106864285Y-80733571D01*
X106828571Y-80626428D01*
X106792857Y-80555000D01*
X106721428Y-80447857D01*
X106685714Y-80412142D01*
%TO.C,J4*%
X118560000Y-51489285D02*
X118560000Y-52025000D01*
X118524285Y-52132142D01*
X118452857Y-52203571D01*
X118345714Y-52239285D01*
X118274285Y-52239285D01*
X119238571Y-51739285D02*
X119238571Y-52239285D01*
X119060000Y-51453571D02*
X118881428Y-51989285D01*
X119345714Y-51989285D01*
%TO.C,J3*%
X151710000Y-51629285D02*
X151710000Y-52165000D01*
X151674285Y-52272142D01*
X151602857Y-52343571D01*
X151495714Y-52379285D01*
X151424285Y-52379285D01*
X151995714Y-51629285D02*
X152460000Y-51629285D01*
X152210000Y-51915000D01*
X152317142Y-51915000D01*
X152388571Y-51950714D01*
X152424285Y-51986428D01*
X152460000Y-52057857D01*
X152460000Y-52236428D01*
X152424285Y-52307857D01*
X152388571Y-52343571D01*
X152317142Y-52379285D01*
X152102857Y-52379285D01*
X152031428Y-52343571D01*
X151995714Y-52307857D01*
%TO.C,J2 (TEST3V3-GND)*%
X115753571Y-25469285D02*
X115753571Y-26005000D01*
X115717857Y-26112142D01*
X115646428Y-26183571D01*
X115539285Y-26219285D01*
X115467857Y-26219285D01*
X116075000Y-25540714D02*
X116110714Y-25505000D01*
X116182142Y-25469285D01*
X116360714Y-25469285D01*
X116432142Y-25505000D01*
X116467857Y-25540714D01*
X116503571Y-25612142D01*
X116503571Y-25683571D01*
X116467857Y-25790714D01*
X116039285Y-26219285D01*
X116503571Y-26219285D01*
X117610714Y-26505000D02*
X117575000Y-26469285D01*
X117503571Y-26362142D01*
X117467857Y-26290714D01*
X117432142Y-26183571D01*
X117396428Y-26005000D01*
X117396428Y-25862142D01*
X117432142Y-25683571D01*
X117467857Y-25576428D01*
X117503571Y-25505000D01*
X117575000Y-25397857D01*
X117610714Y-25362142D01*
X117789285Y-25469285D02*
X118217857Y-25469285D01*
X118003571Y-26219285D02*
X118003571Y-25469285D01*
X118467857Y-25826428D02*
X118717857Y-25826428D01*
X118825000Y-26219285D02*
X118467857Y-26219285D01*
X118467857Y-25469285D01*
X118825000Y-25469285D01*
X119110714Y-26183571D02*
X119217857Y-26219285D01*
X119396428Y-26219285D01*
X119467857Y-26183571D01*
X119503571Y-26147857D01*
X119539285Y-26076428D01*
X119539285Y-26005000D01*
X119503571Y-25933571D01*
X119467857Y-25897857D01*
X119396428Y-25862142D01*
X119253571Y-25826428D01*
X119182142Y-25790714D01*
X119146428Y-25755000D01*
X119110714Y-25683571D01*
X119110714Y-25612142D01*
X119146428Y-25540714D01*
X119182142Y-25505000D01*
X119253571Y-25469285D01*
X119432142Y-25469285D01*
X119539285Y-25505000D01*
X119753571Y-25469285D02*
X120182142Y-25469285D01*
X119967857Y-26219285D02*
X119967857Y-25469285D01*
X120360714Y-25469285D02*
X120825000Y-25469285D01*
X120575000Y-25755000D01*
X120682142Y-25755000D01*
X120753571Y-25790714D01*
X120789285Y-25826428D01*
X120825000Y-25897857D01*
X120825000Y-26076428D01*
X120789285Y-26147857D01*
X120753571Y-26183571D01*
X120682142Y-26219285D01*
X120467857Y-26219285D01*
X120396428Y-26183571D01*
X120360714Y-26147857D01*
X121039285Y-25469285D02*
X121289285Y-26219285D01*
X121539285Y-25469285D01*
X121717857Y-25469285D02*
X122182142Y-25469285D01*
X121932142Y-25755000D01*
X122039285Y-25755000D01*
X122110714Y-25790714D01*
X122146428Y-25826428D01*
X122182142Y-25897857D01*
X122182142Y-26076428D01*
X122146428Y-26147857D01*
X122110714Y-26183571D01*
X122039285Y-26219285D01*
X121825000Y-26219285D01*
X121753571Y-26183571D01*
X121717857Y-26147857D01*
X122503571Y-25933571D02*
X123075000Y-25933571D01*
X123825000Y-25505000D02*
X123753571Y-25469285D01*
X123646428Y-25469285D01*
X123539285Y-25505000D01*
X123467857Y-25576428D01*
X123432142Y-25647857D01*
X123396428Y-25790714D01*
X123396428Y-25897857D01*
X123432142Y-26040714D01*
X123467857Y-26112142D01*
X123539285Y-26183571D01*
X123646428Y-26219285D01*
X123717857Y-26219285D01*
X123825000Y-26183571D01*
X123860714Y-26147857D01*
X123860714Y-25897857D01*
X123717857Y-25897857D01*
X124182142Y-26219285D02*
X124182142Y-25469285D01*
X124610714Y-26219285D01*
X124610714Y-25469285D01*
X124967857Y-26219285D02*
X124967857Y-25469285D01*
X125146428Y-25469285D01*
X125253571Y-25505000D01*
X125325000Y-25576428D01*
X125360714Y-25647857D01*
X125396428Y-25790714D01*
X125396428Y-25897857D01*
X125360714Y-26040714D01*
X125325000Y-26112142D01*
X125253571Y-26183571D01*
X125146428Y-26219285D01*
X124967857Y-26219285D01*
X125646428Y-26505000D02*
X125682142Y-26469285D01*
X125753571Y-26362142D01*
X125789285Y-26290714D01*
X125825000Y-26183571D01*
X125860714Y-26005000D01*
X125860714Y-25862142D01*
X125825000Y-25683571D01*
X125789285Y-25576428D01*
X125753571Y-25505000D01*
X125682142Y-25397857D01*
X125646428Y-25362142D01*
%TO.C,J1*%
X106580000Y-25869285D02*
X106580000Y-26405000D01*
X106544285Y-26512142D01*
X106472857Y-26583571D01*
X106365714Y-26619285D01*
X106294285Y-26619285D01*
X107330000Y-26619285D02*
X106901428Y-26619285D01*
X107115714Y-26619285D02*
X107115714Y-25869285D01*
X107044285Y-25976428D01*
X106972857Y-26047857D01*
X106901428Y-26083571D01*
%TO.C,D3*%
X115146428Y-41839285D02*
X115146428Y-41089285D01*
X115325000Y-41089285D01*
X115432142Y-41125000D01*
X115503571Y-41196428D01*
X115539285Y-41267857D01*
X115575000Y-41410714D01*
X115575000Y-41517857D01*
X115539285Y-41660714D01*
X115503571Y-41732142D01*
X115432142Y-41803571D01*
X115325000Y-41839285D01*
X115146428Y-41839285D01*
X115825000Y-41089285D02*
X116289285Y-41089285D01*
X116039285Y-41375000D01*
X116146428Y-41375000D01*
X116217857Y-41410714D01*
X116253571Y-41446428D01*
X116289285Y-41517857D01*
X116289285Y-41696428D01*
X116253571Y-41767857D01*
X116217857Y-41803571D01*
X116146428Y-41839285D01*
X115932142Y-41839285D01*
X115860714Y-41803571D01*
X115825000Y-41767857D01*
%TO.C,D2*%
X93016428Y-55929285D02*
X93016428Y-55179285D01*
X93195000Y-55179285D01*
X93302142Y-55215000D01*
X93373571Y-55286428D01*
X93409285Y-55357857D01*
X93445000Y-55500714D01*
X93445000Y-55607857D01*
X93409285Y-55750714D01*
X93373571Y-55822142D01*
X93302142Y-55893571D01*
X93195000Y-55929285D01*
X93016428Y-55929285D01*
X93730714Y-55250714D02*
X93766428Y-55215000D01*
X93837857Y-55179285D01*
X94016428Y-55179285D01*
X94087857Y-55215000D01*
X94123571Y-55250714D01*
X94159285Y-55322142D01*
X94159285Y-55393571D01*
X94123571Y-55500714D01*
X93695000Y-55929285D01*
X94159285Y-55929285D01*
%TO.C,D1*%
X93016428Y-52209285D02*
X93016428Y-51459285D01*
X93195000Y-51459285D01*
X93302142Y-51495000D01*
X93373571Y-51566428D01*
X93409285Y-51637857D01*
X93445000Y-51780714D01*
X93445000Y-51887857D01*
X93409285Y-52030714D01*
X93373571Y-52102142D01*
X93302142Y-52173571D01*
X93195000Y-52209285D01*
X93016428Y-52209285D01*
X94159285Y-52209285D02*
X93730714Y-52209285D01*
X93945000Y-52209285D02*
X93945000Y-51459285D01*
X93873571Y-51566428D01*
X93802142Y-51637857D01*
X93730714Y-51673571D01*
%TO.C,C35*%
X146017857Y-23617857D02*
X145982142Y-23653571D01*
X145875000Y-23689285D01*
X145803571Y-23689285D01*
X145696428Y-23653571D01*
X145625000Y-23582142D01*
X145589285Y-23510714D01*
X145553571Y-23367857D01*
X145553571Y-23260714D01*
X145589285Y-23117857D01*
X145625000Y-23046428D01*
X145696428Y-22975000D01*
X145803571Y-22939285D01*
X145875000Y-22939285D01*
X145982142Y-22975000D01*
X146017857Y-23010714D01*
X146267857Y-22939285D02*
X146732142Y-22939285D01*
X146482142Y-23225000D01*
X146589285Y-23225000D01*
X146660714Y-23260714D01*
X146696428Y-23296428D01*
X146732142Y-23367857D01*
X146732142Y-23546428D01*
X146696428Y-23617857D01*
X146660714Y-23653571D01*
X146589285Y-23689285D01*
X146375000Y-23689285D01*
X146303571Y-23653571D01*
X146267857Y-23617857D01*
X147410714Y-22939285D02*
X147053571Y-22939285D01*
X147017857Y-23296428D01*
X147053571Y-23260714D01*
X147125000Y-23225000D01*
X147303571Y-23225000D01*
X147375000Y-23260714D01*
X147410714Y-23296428D01*
X147446428Y-23367857D01*
X147446428Y-23546428D01*
X147410714Y-23617857D01*
X147375000Y-23653571D01*
X147303571Y-23689285D01*
X147125000Y-23689285D01*
X147053571Y-23653571D01*
X147017857Y-23617857D01*
%TO.C,C34*%
X141967857Y-23667857D02*
X141932142Y-23703571D01*
X141825000Y-23739285D01*
X141753571Y-23739285D01*
X141646428Y-23703571D01*
X141575000Y-23632142D01*
X141539285Y-23560714D01*
X141503571Y-23417857D01*
X141503571Y-23310714D01*
X141539285Y-23167857D01*
X141575000Y-23096428D01*
X141646428Y-23025000D01*
X141753571Y-22989285D01*
X141825000Y-22989285D01*
X141932142Y-23025000D01*
X141967857Y-23060714D01*
X142217857Y-22989285D02*
X142682142Y-22989285D01*
X142432142Y-23275000D01*
X142539285Y-23275000D01*
X142610714Y-23310714D01*
X142646428Y-23346428D01*
X142682142Y-23417857D01*
X142682142Y-23596428D01*
X142646428Y-23667857D01*
X142610714Y-23703571D01*
X142539285Y-23739285D01*
X142325000Y-23739285D01*
X142253571Y-23703571D01*
X142217857Y-23667857D01*
X143325000Y-23239285D02*
X143325000Y-23739285D01*
X143146428Y-22953571D02*
X142967857Y-23489285D01*
X143432142Y-23489285D01*
%TO.C,C33*%
X137517857Y-23667857D02*
X137482142Y-23703571D01*
X137375000Y-23739285D01*
X137303571Y-23739285D01*
X137196428Y-23703571D01*
X137125000Y-23632142D01*
X137089285Y-23560714D01*
X137053571Y-23417857D01*
X137053571Y-23310714D01*
X137089285Y-23167857D01*
X137125000Y-23096428D01*
X137196428Y-23025000D01*
X137303571Y-22989285D01*
X137375000Y-22989285D01*
X137482142Y-23025000D01*
X137517857Y-23060714D01*
X137767857Y-22989285D02*
X138232142Y-22989285D01*
X137982142Y-23275000D01*
X138089285Y-23275000D01*
X138160714Y-23310714D01*
X138196428Y-23346428D01*
X138232142Y-23417857D01*
X138232142Y-23596428D01*
X138196428Y-23667857D01*
X138160714Y-23703571D01*
X138089285Y-23739285D01*
X137875000Y-23739285D01*
X137803571Y-23703571D01*
X137767857Y-23667857D01*
X138482142Y-22989285D02*
X138946428Y-22989285D01*
X138696428Y-23275000D01*
X138803571Y-23275000D01*
X138875000Y-23310714D01*
X138910714Y-23346428D01*
X138946428Y-23417857D01*
X138946428Y-23596428D01*
X138910714Y-23667857D01*
X138875000Y-23703571D01*
X138803571Y-23739285D01*
X138589285Y-23739285D01*
X138517857Y-23703571D01*
X138482142Y-23667857D01*
%TO.C,C32*%
X143944523Y-30467857D02*
X143908808Y-30503571D01*
X143801666Y-30539285D01*
X143730237Y-30539285D01*
X143623094Y-30503571D01*
X143551666Y-30432142D01*
X143515951Y-30360714D01*
X143480237Y-30217857D01*
X143480237Y-30110714D01*
X143515951Y-29967857D01*
X143551666Y-29896428D01*
X143623094Y-29825000D01*
X143730237Y-29789285D01*
X143801666Y-29789285D01*
X143908808Y-29825000D01*
X143944523Y-29860714D01*
X144194523Y-29789285D02*
X144658808Y-29789285D01*
X144408808Y-30075000D01*
X144515951Y-30075000D01*
X144587380Y-30110714D01*
X144623094Y-30146428D01*
X144658808Y-30217857D01*
X144658808Y-30396428D01*
X144623094Y-30467857D01*
X144587380Y-30503571D01*
X144515951Y-30539285D01*
X144301666Y-30539285D01*
X144230237Y-30503571D01*
X144194523Y-30467857D01*
X144944523Y-29860714D02*
X144980237Y-29825000D01*
X145051666Y-29789285D01*
X145230237Y-29789285D01*
X145301666Y-29825000D01*
X145337380Y-29860714D01*
X145373094Y-29932142D01*
X145373094Y-30003571D01*
X145337380Y-30110714D01*
X144908808Y-30539285D01*
X145373094Y-30539285D01*
%TO.C,C31*%
X139681190Y-30407857D02*
X139645475Y-30443571D01*
X139538333Y-30479285D01*
X139466904Y-30479285D01*
X139359761Y-30443571D01*
X139288333Y-30372142D01*
X139252618Y-30300714D01*
X139216904Y-30157857D01*
X139216904Y-30050714D01*
X139252618Y-29907857D01*
X139288333Y-29836428D01*
X139359761Y-29765000D01*
X139466904Y-29729285D01*
X139538333Y-29729285D01*
X139645475Y-29765000D01*
X139681190Y-29800714D01*
X139931190Y-29729285D02*
X140395475Y-29729285D01*
X140145475Y-30015000D01*
X140252618Y-30015000D01*
X140324047Y-30050714D01*
X140359761Y-30086428D01*
X140395475Y-30157857D01*
X140395475Y-30336428D01*
X140359761Y-30407857D01*
X140324047Y-30443571D01*
X140252618Y-30479285D01*
X140038333Y-30479285D01*
X139966904Y-30443571D01*
X139931190Y-30407857D01*
X141109761Y-30479285D02*
X140681190Y-30479285D01*
X140895475Y-30479285D02*
X140895475Y-29729285D01*
X140824047Y-29836428D01*
X140752618Y-29907857D01*
X140681190Y-29943571D01*
%TO.C,C30*%
X135817857Y-30447857D02*
X135782142Y-30483571D01*
X135675000Y-30519285D01*
X135603571Y-30519285D01*
X135496428Y-30483571D01*
X135425000Y-30412142D01*
X135389285Y-30340714D01*
X135353571Y-30197857D01*
X135353571Y-30090714D01*
X135389285Y-29947857D01*
X135425000Y-29876428D01*
X135496428Y-29805000D01*
X135603571Y-29769285D01*
X135675000Y-29769285D01*
X135782142Y-29805000D01*
X135817857Y-29840714D01*
X136067857Y-29769285D02*
X136532142Y-29769285D01*
X136282142Y-30055000D01*
X136389285Y-30055000D01*
X136460714Y-30090714D01*
X136496428Y-30126428D01*
X136532142Y-30197857D01*
X136532142Y-30376428D01*
X136496428Y-30447857D01*
X136460714Y-30483571D01*
X136389285Y-30519285D01*
X136175000Y-30519285D01*
X136103571Y-30483571D01*
X136067857Y-30447857D01*
X136996428Y-29769285D02*
X137067857Y-29769285D01*
X137139285Y-29805000D01*
X137175000Y-29840714D01*
X137210714Y-29912142D01*
X137246428Y-30055000D01*
X137246428Y-30233571D01*
X137210714Y-30376428D01*
X137175000Y-30447857D01*
X137139285Y-30483571D01*
X137067857Y-30519285D01*
X136996428Y-30519285D01*
X136925000Y-30483571D01*
X136889285Y-30447857D01*
X136853571Y-30376428D01*
X136817857Y-30233571D01*
X136817857Y-30055000D01*
X136853571Y-29912142D01*
X136889285Y-29840714D01*
X136925000Y-29805000D01*
X136996428Y-29769285D01*
%TO.C,C29*%
X134157857Y-42397857D02*
X134122142Y-42433571D01*
X134015000Y-42469285D01*
X133943571Y-42469285D01*
X133836428Y-42433571D01*
X133765000Y-42362142D01*
X133729285Y-42290714D01*
X133693571Y-42147857D01*
X133693571Y-42040714D01*
X133729285Y-41897857D01*
X133765000Y-41826428D01*
X133836428Y-41755000D01*
X133943571Y-41719285D01*
X134015000Y-41719285D01*
X134122142Y-41755000D01*
X134157857Y-41790714D01*
X134443571Y-41790714D02*
X134479285Y-41755000D01*
X134550714Y-41719285D01*
X134729285Y-41719285D01*
X134800714Y-41755000D01*
X134836428Y-41790714D01*
X134872142Y-41862142D01*
X134872142Y-41933571D01*
X134836428Y-42040714D01*
X134407857Y-42469285D01*
X134872142Y-42469285D01*
X135229285Y-42469285D02*
X135372142Y-42469285D01*
X135443571Y-42433571D01*
X135479285Y-42397857D01*
X135550714Y-42290714D01*
X135586428Y-42147857D01*
X135586428Y-41862142D01*
X135550714Y-41790714D01*
X135515000Y-41755000D01*
X135443571Y-41719285D01*
X135300714Y-41719285D01*
X135229285Y-41755000D01*
X135193571Y-41790714D01*
X135157857Y-41862142D01*
X135157857Y-42040714D01*
X135193571Y-42112142D01*
X135229285Y-42147857D01*
X135300714Y-42183571D01*
X135443571Y-42183571D01*
X135515000Y-42147857D01*
X135550714Y-42112142D01*
X135586428Y-42040714D01*
%TO.C,C28*%
X141447857Y-43467857D02*
X141412142Y-43503571D01*
X141305000Y-43539285D01*
X141233571Y-43539285D01*
X141126428Y-43503571D01*
X141055000Y-43432142D01*
X141019285Y-43360714D01*
X140983571Y-43217857D01*
X140983571Y-43110714D01*
X141019285Y-42967857D01*
X141055000Y-42896428D01*
X141126428Y-42825000D01*
X141233571Y-42789285D01*
X141305000Y-42789285D01*
X141412142Y-42825000D01*
X141447857Y-42860714D01*
X141733571Y-42860714D02*
X141769285Y-42825000D01*
X141840714Y-42789285D01*
X142019285Y-42789285D01*
X142090714Y-42825000D01*
X142126428Y-42860714D01*
X142162142Y-42932142D01*
X142162142Y-43003571D01*
X142126428Y-43110714D01*
X141697857Y-43539285D01*
X142162142Y-43539285D01*
X142590714Y-43110714D02*
X142519285Y-43075000D01*
X142483571Y-43039285D01*
X142447857Y-42967857D01*
X142447857Y-42932142D01*
X142483571Y-42860714D01*
X142519285Y-42825000D01*
X142590714Y-42789285D01*
X142733571Y-42789285D01*
X142805000Y-42825000D01*
X142840714Y-42860714D01*
X142876428Y-42932142D01*
X142876428Y-42967857D01*
X142840714Y-43039285D01*
X142805000Y-43075000D01*
X142733571Y-43110714D01*
X142590714Y-43110714D01*
X142519285Y-43146428D01*
X142483571Y-43182142D01*
X142447857Y-43253571D01*
X142447857Y-43396428D01*
X142483571Y-43467857D01*
X142519285Y-43503571D01*
X142590714Y-43539285D01*
X142733571Y-43539285D01*
X142805000Y-43503571D01*
X142840714Y-43467857D01*
X142876428Y-43396428D01*
X142876428Y-43253571D01*
X142840714Y-43182142D01*
X142805000Y-43146428D01*
X142733571Y-43110714D01*
%TO.C,C27*%
X141507857Y-39767857D02*
X141472142Y-39803571D01*
X141365000Y-39839285D01*
X141293571Y-39839285D01*
X141186428Y-39803571D01*
X141115000Y-39732142D01*
X141079285Y-39660714D01*
X141043571Y-39517857D01*
X141043571Y-39410714D01*
X141079285Y-39267857D01*
X141115000Y-39196428D01*
X141186428Y-39125000D01*
X141293571Y-39089285D01*
X141365000Y-39089285D01*
X141472142Y-39125000D01*
X141507857Y-39160714D01*
X141793571Y-39160714D02*
X141829285Y-39125000D01*
X141900714Y-39089285D01*
X142079285Y-39089285D01*
X142150714Y-39125000D01*
X142186428Y-39160714D01*
X142222142Y-39232142D01*
X142222142Y-39303571D01*
X142186428Y-39410714D01*
X141757857Y-39839285D01*
X142222142Y-39839285D01*
X142472142Y-39089285D02*
X142972142Y-39089285D01*
X142650714Y-39839285D01*
%TO.C,C26*%
X141517857Y-36487857D02*
X141482142Y-36523571D01*
X141375000Y-36559285D01*
X141303571Y-36559285D01*
X141196428Y-36523571D01*
X141125000Y-36452142D01*
X141089285Y-36380714D01*
X141053571Y-36237857D01*
X141053571Y-36130714D01*
X141089285Y-35987857D01*
X141125000Y-35916428D01*
X141196428Y-35845000D01*
X141303571Y-35809285D01*
X141375000Y-35809285D01*
X141482142Y-35845000D01*
X141517857Y-35880714D01*
X141803571Y-35880714D02*
X141839285Y-35845000D01*
X141910714Y-35809285D01*
X142089285Y-35809285D01*
X142160714Y-35845000D01*
X142196428Y-35880714D01*
X142232142Y-35952142D01*
X142232142Y-36023571D01*
X142196428Y-36130714D01*
X141767857Y-36559285D01*
X142232142Y-36559285D01*
X142875000Y-35809285D02*
X142732142Y-35809285D01*
X142660714Y-35845000D01*
X142625000Y-35880714D01*
X142553571Y-35987857D01*
X142517857Y-36130714D01*
X142517857Y-36416428D01*
X142553571Y-36487857D01*
X142589285Y-36523571D01*
X142660714Y-36559285D01*
X142803571Y-36559285D01*
X142875000Y-36523571D01*
X142910714Y-36487857D01*
X142946428Y-36416428D01*
X142946428Y-36237857D01*
X142910714Y-36166428D01*
X142875000Y-36130714D01*
X142803571Y-36095000D01*
X142660714Y-36095000D01*
X142589285Y-36130714D01*
X142553571Y-36166428D01*
X142517857Y-36237857D01*
%TO.C,C25*%
X120147857Y-30681857D02*
X120112142Y-30717571D01*
X120005000Y-30753285D01*
X119933571Y-30753285D01*
X119826428Y-30717571D01*
X119755000Y-30646142D01*
X119719285Y-30574714D01*
X119683571Y-30431857D01*
X119683571Y-30324714D01*
X119719285Y-30181857D01*
X119755000Y-30110428D01*
X119826428Y-30039000D01*
X119933571Y-30003285D01*
X120005000Y-30003285D01*
X120112142Y-30039000D01*
X120147857Y-30074714D01*
X120433571Y-30074714D02*
X120469285Y-30039000D01*
X120540714Y-30003285D01*
X120719285Y-30003285D01*
X120790714Y-30039000D01*
X120826428Y-30074714D01*
X120862142Y-30146142D01*
X120862142Y-30217571D01*
X120826428Y-30324714D01*
X120397857Y-30753285D01*
X120862142Y-30753285D01*
X121540714Y-30003285D02*
X121183571Y-30003285D01*
X121147857Y-30360428D01*
X121183571Y-30324714D01*
X121255000Y-30289000D01*
X121433571Y-30289000D01*
X121505000Y-30324714D01*
X121540714Y-30360428D01*
X121576428Y-30431857D01*
X121576428Y-30610428D01*
X121540714Y-30681857D01*
X121505000Y-30717571D01*
X121433571Y-30753285D01*
X121255000Y-30753285D01*
X121183571Y-30717571D01*
X121147857Y-30681857D01*
%TO.C,C24*%
X120577857Y-33857857D02*
X120542142Y-33893571D01*
X120435000Y-33929285D01*
X120363571Y-33929285D01*
X120256428Y-33893571D01*
X120185000Y-33822142D01*
X120149285Y-33750714D01*
X120113571Y-33607857D01*
X120113571Y-33500714D01*
X120149285Y-33357857D01*
X120185000Y-33286428D01*
X120256428Y-33215000D01*
X120363571Y-33179285D01*
X120435000Y-33179285D01*
X120542142Y-33215000D01*
X120577857Y-33250714D01*
X120863571Y-33250714D02*
X120899285Y-33215000D01*
X120970714Y-33179285D01*
X121149285Y-33179285D01*
X121220714Y-33215000D01*
X121256428Y-33250714D01*
X121292142Y-33322142D01*
X121292142Y-33393571D01*
X121256428Y-33500714D01*
X120827857Y-33929285D01*
X121292142Y-33929285D01*
X121935000Y-33429285D02*
X121935000Y-33929285D01*
X121756428Y-33143571D02*
X121577857Y-33679285D01*
X122042142Y-33679285D01*
%TO.C,C23*%
X120147857Y-37637857D02*
X120112142Y-37673571D01*
X120005000Y-37709285D01*
X119933571Y-37709285D01*
X119826428Y-37673571D01*
X119755000Y-37602142D01*
X119719285Y-37530714D01*
X119683571Y-37387857D01*
X119683571Y-37280714D01*
X119719285Y-37137857D01*
X119755000Y-37066428D01*
X119826428Y-36995000D01*
X119933571Y-36959285D01*
X120005000Y-36959285D01*
X120112142Y-36995000D01*
X120147857Y-37030714D01*
X120433571Y-37030714D02*
X120469285Y-36995000D01*
X120540714Y-36959285D01*
X120719285Y-36959285D01*
X120790714Y-36995000D01*
X120826428Y-37030714D01*
X120862142Y-37102142D01*
X120862142Y-37173571D01*
X120826428Y-37280714D01*
X120397857Y-37709285D01*
X120862142Y-37709285D01*
X121112142Y-36959285D02*
X121576428Y-36959285D01*
X121326428Y-37245000D01*
X121433571Y-37245000D01*
X121505000Y-37280714D01*
X121540714Y-37316428D01*
X121576428Y-37387857D01*
X121576428Y-37566428D01*
X121540714Y-37637857D01*
X121505000Y-37673571D01*
X121433571Y-37709285D01*
X121219285Y-37709285D01*
X121147857Y-37673571D01*
X121112142Y-37637857D01*
%TO.C,C22*%
X125967857Y-28267857D02*
X125932142Y-28303571D01*
X125825000Y-28339285D01*
X125753571Y-28339285D01*
X125646428Y-28303571D01*
X125575000Y-28232142D01*
X125539285Y-28160714D01*
X125503571Y-28017857D01*
X125503571Y-27910714D01*
X125539285Y-27767857D01*
X125575000Y-27696428D01*
X125646428Y-27625000D01*
X125753571Y-27589285D01*
X125825000Y-27589285D01*
X125932142Y-27625000D01*
X125967857Y-27660714D01*
X126253571Y-27660714D02*
X126289285Y-27625000D01*
X126360714Y-27589285D01*
X126539285Y-27589285D01*
X126610714Y-27625000D01*
X126646428Y-27660714D01*
X126682142Y-27732142D01*
X126682142Y-27803571D01*
X126646428Y-27910714D01*
X126217857Y-28339285D01*
X126682142Y-28339285D01*
X126967857Y-27660714D02*
X127003571Y-27625000D01*
X127075000Y-27589285D01*
X127253571Y-27589285D01*
X127325000Y-27625000D01*
X127360714Y-27660714D01*
X127396428Y-27732142D01*
X127396428Y-27803571D01*
X127360714Y-27910714D01*
X126932142Y-28339285D01*
X127396428Y-28339285D01*
%TO.C,C21*%
X130497857Y-28217857D02*
X130462142Y-28253571D01*
X130355000Y-28289285D01*
X130283571Y-28289285D01*
X130176428Y-28253571D01*
X130105000Y-28182142D01*
X130069285Y-28110714D01*
X130033571Y-27967857D01*
X130033571Y-27860714D01*
X130069285Y-27717857D01*
X130105000Y-27646428D01*
X130176428Y-27575000D01*
X130283571Y-27539285D01*
X130355000Y-27539285D01*
X130462142Y-27575000D01*
X130497857Y-27610714D01*
X130783571Y-27610714D02*
X130819285Y-27575000D01*
X130890714Y-27539285D01*
X131069285Y-27539285D01*
X131140714Y-27575000D01*
X131176428Y-27610714D01*
X131212142Y-27682142D01*
X131212142Y-27753571D01*
X131176428Y-27860714D01*
X130747857Y-28289285D01*
X131212142Y-28289285D01*
X131926428Y-28289285D02*
X131497857Y-28289285D01*
X131712142Y-28289285D02*
X131712142Y-27539285D01*
X131640714Y-27646428D01*
X131569285Y-27717857D01*
X131497857Y-27753571D01*
%TO.C,C20*%
X114980357Y-30847857D02*
X114944642Y-30883571D01*
X114837500Y-30919285D01*
X114766071Y-30919285D01*
X114658928Y-30883571D01*
X114587500Y-30812142D01*
X114551785Y-30740714D01*
X114516071Y-30597857D01*
X114516071Y-30490714D01*
X114551785Y-30347857D01*
X114587500Y-30276428D01*
X114658928Y-30205000D01*
X114766071Y-30169285D01*
X114837500Y-30169285D01*
X114944642Y-30205000D01*
X114980357Y-30240714D01*
X115266071Y-30240714D02*
X115301785Y-30205000D01*
X115373214Y-30169285D01*
X115551785Y-30169285D01*
X115623214Y-30205000D01*
X115658928Y-30240714D01*
X115694642Y-30312142D01*
X115694642Y-30383571D01*
X115658928Y-30490714D01*
X115230357Y-30919285D01*
X115694642Y-30919285D01*
X116158928Y-30169285D02*
X116230357Y-30169285D01*
X116301785Y-30205000D01*
X116337500Y-30240714D01*
X116373214Y-30312142D01*
X116408928Y-30455000D01*
X116408928Y-30633571D01*
X116373214Y-30776428D01*
X116337500Y-30847857D01*
X116301785Y-30883571D01*
X116230357Y-30919285D01*
X116158928Y-30919285D01*
X116087500Y-30883571D01*
X116051785Y-30847857D01*
X116016071Y-30776428D01*
X115980357Y-30633571D01*
X115980357Y-30455000D01*
X116016071Y-30312142D01*
X116051785Y-30240714D01*
X116087500Y-30205000D01*
X116158928Y-30169285D01*
%TO.C,C19*%
X114967857Y-34287857D02*
X114932142Y-34323571D01*
X114825000Y-34359285D01*
X114753571Y-34359285D01*
X114646428Y-34323571D01*
X114575000Y-34252142D01*
X114539285Y-34180714D01*
X114503571Y-34037857D01*
X114503571Y-33930714D01*
X114539285Y-33787857D01*
X114575000Y-33716428D01*
X114646428Y-33645000D01*
X114753571Y-33609285D01*
X114825000Y-33609285D01*
X114932142Y-33645000D01*
X114967857Y-33680714D01*
X115682142Y-34359285D02*
X115253571Y-34359285D01*
X115467857Y-34359285D02*
X115467857Y-33609285D01*
X115396428Y-33716428D01*
X115325000Y-33787857D01*
X115253571Y-33823571D01*
X116039285Y-34359285D02*
X116182142Y-34359285D01*
X116253571Y-34323571D01*
X116289285Y-34287857D01*
X116360714Y-34180714D01*
X116396428Y-34037857D01*
X116396428Y-33752142D01*
X116360714Y-33680714D01*
X116325000Y-33645000D01*
X116253571Y-33609285D01*
X116110714Y-33609285D01*
X116039285Y-33645000D01*
X116003571Y-33680714D01*
X115967857Y-33752142D01*
X115967857Y-33930714D01*
X116003571Y-34002142D01*
X116039285Y-34037857D01*
X116110714Y-34073571D01*
X116253571Y-34073571D01*
X116325000Y-34037857D01*
X116360714Y-34002142D01*
X116396428Y-33930714D01*
%TO.C,C18*%
X114980357Y-37787857D02*
X114944642Y-37823571D01*
X114837500Y-37859285D01*
X114766071Y-37859285D01*
X114658928Y-37823571D01*
X114587500Y-37752142D01*
X114551785Y-37680714D01*
X114516071Y-37537857D01*
X114516071Y-37430714D01*
X114551785Y-37287857D01*
X114587500Y-37216428D01*
X114658928Y-37145000D01*
X114766071Y-37109285D01*
X114837500Y-37109285D01*
X114944642Y-37145000D01*
X114980357Y-37180714D01*
X115694642Y-37859285D02*
X115266071Y-37859285D01*
X115480357Y-37859285D02*
X115480357Y-37109285D01*
X115408928Y-37216428D01*
X115337500Y-37287857D01*
X115266071Y-37323571D01*
X116123214Y-37430714D02*
X116051785Y-37395000D01*
X116016071Y-37359285D01*
X115980357Y-37287857D01*
X115980357Y-37252142D01*
X116016071Y-37180714D01*
X116051785Y-37145000D01*
X116123214Y-37109285D01*
X116266071Y-37109285D01*
X116337500Y-37145000D01*
X116373214Y-37180714D01*
X116408928Y-37252142D01*
X116408928Y-37287857D01*
X116373214Y-37359285D01*
X116337500Y-37395000D01*
X116266071Y-37430714D01*
X116123214Y-37430714D01*
X116051785Y-37466428D01*
X116016071Y-37502142D01*
X115980357Y-37573571D01*
X115980357Y-37716428D01*
X116016071Y-37787857D01*
X116051785Y-37823571D01*
X116123214Y-37859285D01*
X116266071Y-37859285D01*
X116337500Y-37823571D01*
X116373214Y-37787857D01*
X116408928Y-37716428D01*
X116408928Y-37573571D01*
X116373214Y-37502142D01*
X116337500Y-37466428D01*
X116266071Y-37430714D01*
%TO.C,C12*%
X97867857Y-77647857D02*
X97832142Y-77683571D01*
X97725000Y-77719285D01*
X97653571Y-77719285D01*
X97546428Y-77683571D01*
X97475000Y-77612142D01*
X97439285Y-77540714D01*
X97403571Y-77397857D01*
X97403571Y-77290714D01*
X97439285Y-77147857D01*
X97475000Y-77076428D01*
X97546428Y-77005000D01*
X97653571Y-76969285D01*
X97725000Y-76969285D01*
X97832142Y-77005000D01*
X97867857Y-77040714D01*
X98582142Y-77719285D02*
X98153571Y-77719285D01*
X98367857Y-77719285D02*
X98367857Y-76969285D01*
X98296428Y-77076428D01*
X98225000Y-77147857D01*
X98153571Y-77183571D01*
X98867857Y-77040714D02*
X98903571Y-77005000D01*
X98975000Y-76969285D01*
X99153571Y-76969285D01*
X99225000Y-77005000D01*
X99260714Y-77040714D01*
X99296428Y-77112142D01*
X99296428Y-77183571D01*
X99260714Y-77290714D01*
X98832142Y-77719285D01*
X99296428Y-77719285D01*
%TO.C,C11*%
X91027857Y-74187857D02*
X90992142Y-74223571D01*
X90885000Y-74259285D01*
X90813571Y-74259285D01*
X90706428Y-74223571D01*
X90635000Y-74152142D01*
X90599285Y-74080714D01*
X90563571Y-73937857D01*
X90563571Y-73830714D01*
X90599285Y-73687857D01*
X90635000Y-73616428D01*
X90706428Y-73545000D01*
X90813571Y-73509285D01*
X90885000Y-73509285D01*
X90992142Y-73545000D01*
X91027857Y-73580714D01*
X91742142Y-74259285D02*
X91313571Y-74259285D01*
X91527857Y-74259285D02*
X91527857Y-73509285D01*
X91456428Y-73616428D01*
X91385000Y-73687857D01*
X91313571Y-73723571D01*
X92456428Y-74259285D02*
X92027857Y-74259285D01*
X92242142Y-74259285D02*
X92242142Y-73509285D01*
X92170714Y-73616428D01*
X92099285Y-73687857D01*
X92027857Y-73723571D01*
%TO.C,C10*%
X90707857Y-62727857D02*
X90672142Y-62763571D01*
X90565000Y-62799285D01*
X90493571Y-62799285D01*
X90386428Y-62763571D01*
X90315000Y-62692142D01*
X90279285Y-62620714D01*
X90243571Y-62477857D01*
X90243571Y-62370714D01*
X90279285Y-62227857D01*
X90315000Y-62156428D01*
X90386428Y-62085000D01*
X90493571Y-62049285D01*
X90565000Y-62049285D01*
X90672142Y-62085000D01*
X90707857Y-62120714D01*
X91422142Y-62799285D02*
X90993571Y-62799285D01*
X91207857Y-62799285D02*
X91207857Y-62049285D01*
X91136428Y-62156428D01*
X91065000Y-62227857D01*
X90993571Y-62263571D01*
X91886428Y-62049285D02*
X91957857Y-62049285D01*
X92029285Y-62085000D01*
X92065000Y-62120714D01*
X92100714Y-62192142D01*
X92136428Y-62335000D01*
X92136428Y-62513571D01*
X92100714Y-62656428D01*
X92065000Y-62727857D01*
X92029285Y-62763571D01*
X91957857Y-62799285D01*
X91886428Y-62799285D01*
X91815000Y-62763571D01*
X91779285Y-62727857D01*
X91743571Y-62656428D01*
X91707857Y-62513571D01*
X91707857Y-62335000D01*
X91743571Y-62192142D01*
X91779285Y-62120714D01*
X91815000Y-62085000D01*
X91886428Y-62049285D01*
%TO.C,C9*%
X111815000Y-88227857D02*
X111779285Y-88263571D01*
X111672142Y-88299285D01*
X111600714Y-88299285D01*
X111493571Y-88263571D01*
X111422142Y-88192142D01*
X111386428Y-88120714D01*
X111350714Y-87977857D01*
X111350714Y-87870714D01*
X111386428Y-87727857D01*
X111422142Y-87656428D01*
X111493571Y-87585000D01*
X111600714Y-87549285D01*
X111672142Y-87549285D01*
X111779285Y-87585000D01*
X111815000Y-87620714D01*
X112172142Y-88299285D02*
X112315000Y-88299285D01*
X112386428Y-88263571D01*
X112422142Y-88227857D01*
X112493571Y-88120714D01*
X112529285Y-87977857D01*
X112529285Y-87692142D01*
X112493571Y-87620714D01*
X112457857Y-87585000D01*
X112386428Y-87549285D01*
X112243571Y-87549285D01*
X112172142Y-87585000D01*
X112136428Y-87620714D01*
X112100714Y-87692142D01*
X112100714Y-87870714D01*
X112136428Y-87942142D01*
X112172142Y-87977857D01*
X112243571Y-88013571D01*
X112386428Y-88013571D01*
X112457857Y-87977857D01*
X112493571Y-87942142D01*
X112529285Y-87870714D01*
%TO.C,C8*%
X103265000Y-77867857D02*
X103229285Y-77903571D01*
X103122142Y-77939285D01*
X103050714Y-77939285D01*
X102943571Y-77903571D01*
X102872142Y-77832142D01*
X102836428Y-77760714D01*
X102800714Y-77617857D01*
X102800714Y-77510714D01*
X102836428Y-77367857D01*
X102872142Y-77296428D01*
X102943571Y-77225000D01*
X103050714Y-77189285D01*
X103122142Y-77189285D01*
X103229285Y-77225000D01*
X103265000Y-77260714D01*
X103693571Y-77510714D02*
X103622142Y-77475000D01*
X103586428Y-77439285D01*
X103550714Y-77367857D01*
X103550714Y-77332142D01*
X103586428Y-77260714D01*
X103622142Y-77225000D01*
X103693571Y-77189285D01*
X103836428Y-77189285D01*
X103907857Y-77225000D01*
X103943571Y-77260714D01*
X103979285Y-77332142D01*
X103979285Y-77367857D01*
X103943571Y-77439285D01*
X103907857Y-77475000D01*
X103836428Y-77510714D01*
X103693571Y-77510714D01*
X103622142Y-77546428D01*
X103586428Y-77582142D01*
X103550714Y-77653571D01*
X103550714Y-77796428D01*
X103586428Y-77867857D01*
X103622142Y-77903571D01*
X103693571Y-77939285D01*
X103836428Y-77939285D01*
X103907857Y-77903571D01*
X103943571Y-77867857D01*
X103979285Y-77796428D01*
X103979285Y-77653571D01*
X103943571Y-77582142D01*
X103907857Y-77546428D01*
X103836428Y-77510714D01*
%TO.C,C7*%
X105975000Y-58987857D02*
X105939285Y-59023571D01*
X105832142Y-59059285D01*
X105760714Y-59059285D01*
X105653571Y-59023571D01*
X105582142Y-58952142D01*
X105546428Y-58880714D01*
X105510714Y-58737857D01*
X105510714Y-58630714D01*
X105546428Y-58487857D01*
X105582142Y-58416428D01*
X105653571Y-58345000D01*
X105760714Y-58309285D01*
X105832142Y-58309285D01*
X105939285Y-58345000D01*
X105975000Y-58380714D01*
X106225000Y-58309285D02*
X106725000Y-58309285D01*
X106403571Y-59059285D01*
%TO.C,C6*%
X133125000Y-77537857D02*
X133089285Y-77573571D01*
X132982142Y-77609285D01*
X132910714Y-77609285D01*
X132803571Y-77573571D01*
X132732142Y-77502142D01*
X132696428Y-77430714D01*
X132660714Y-77287857D01*
X132660714Y-77180714D01*
X132696428Y-77037857D01*
X132732142Y-76966428D01*
X132803571Y-76895000D01*
X132910714Y-76859285D01*
X132982142Y-76859285D01*
X133089285Y-76895000D01*
X133125000Y-76930714D01*
X133767857Y-76859285D02*
X133625000Y-76859285D01*
X133553571Y-76895000D01*
X133517857Y-76930714D01*
X133446428Y-77037857D01*
X133410714Y-77180714D01*
X133410714Y-77466428D01*
X133446428Y-77537857D01*
X133482142Y-77573571D01*
X133553571Y-77609285D01*
X133696428Y-77609285D01*
X133767857Y-77573571D01*
X133803571Y-77537857D01*
X133839285Y-77466428D01*
X133839285Y-77287857D01*
X133803571Y-77216428D01*
X133767857Y-77180714D01*
X133696428Y-77145000D01*
X133553571Y-77145000D01*
X133482142Y-77180714D01*
X133446428Y-77216428D01*
X133410714Y-77287857D01*
%TO.C,C5*%
X120275000Y-81837857D02*
X120239285Y-81873571D01*
X120132142Y-81909285D01*
X120060714Y-81909285D01*
X119953571Y-81873571D01*
X119882142Y-81802142D01*
X119846428Y-81730714D01*
X119810714Y-81587857D01*
X119810714Y-81480714D01*
X119846428Y-81337857D01*
X119882142Y-81266428D01*
X119953571Y-81195000D01*
X120060714Y-81159285D01*
X120132142Y-81159285D01*
X120239285Y-81195000D01*
X120275000Y-81230714D01*
X120953571Y-81159285D02*
X120596428Y-81159285D01*
X120560714Y-81516428D01*
X120596428Y-81480714D01*
X120667857Y-81445000D01*
X120846428Y-81445000D01*
X120917857Y-81480714D01*
X120953571Y-81516428D01*
X120989285Y-81587857D01*
X120989285Y-81766428D01*
X120953571Y-81837857D01*
X120917857Y-81873571D01*
X120846428Y-81909285D01*
X120667857Y-81909285D01*
X120596428Y-81873571D01*
X120560714Y-81837857D01*
%TO.C,C4*%
X133325000Y-73787857D02*
X133289285Y-73823571D01*
X133182142Y-73859285D01*
X133110714Y-73859285D01*
X133003571Y-73823571D01*
X132932142Y-73752142D01*
X132896428Y-73680714D01*
X132860714Y-73537857D01*
X132860714Y-73430714D01*
X132896428Y-73287857D01*
X132932142Y-73216428D01*
X133003571Y-73145000D01*
X133110714Y-73109285D01*
X133182142Y-73109285D01*
X133289285Y-73145000D01*
X133325000Y-73180714D01*
X133967857Y-73359285D02*
X133967857Y-73859285D01*
X133789285Y-73073571D02*
X133610714Y-73609285D01*
X134075000Y-73609285D01*
%TO.C,C3*%
X119855000Y-77967857D02*
X119819285Y-78003571D01*
X119712142Y-78039285D01*
X119640714Y-78039285D01*
X119533571Y-78003571D01*
X119462142Y-77932142D01*
X119426428Y-77860714D01*
X119390714Y-77717857D01*
X119390714Y-77610714D01*
X119426428Y-77467857D01*
X119462142Y-77396428D01*
X119533571Y-77325000D01*
X119640714Y-77289285D01*
X119712142Y-77289285D01*
X119819285Y-77325000D01*
X119855000Y-77360714D01*
X120105000Y-77289285D02*
X120569285Y-77289285D01*
X120319285Y-77575000D01*
X120426428Y-77575000D01*
X120497857Y-77610714D01*
X120533571Y-77646428D01*
X120569285Y-77717857D01*
X120569285Y-77896428D01*
X120533571Y-77967857D01*
X120497857Y-78003571D01*
X120426428Y-78039285D01*
X120212142Y-78039285D01*
X120140714Y-78003571D01*
X120105000Y-77967857D01*
%TD*%
M02*
