%TF.GenerationSoftware,KiCad,Pcbnew,(5.1.8)-1*%
%TF.CreationDate,2021-02-01T14:36:09-08:00*%
%TF.ProjectId,spl_prototype,73706c5f-7072-46f7-946f-747970652e6b,rev?*%
%TF.SameCoordinates,Original*%
%TF.FileFunction,Copper,L1,Top*%
%TF.FilePolarity,Positive*%
%FSLAX46Y46*%
G04 Gerber Fmt 4.6, Leading zero omitted, Abs format (unit mm)*
G04 Created by KiCad (PCBNEW (5.1.8)-1) date 2021-02-01 14:36:09*
%MOMM*%
%LPD*%
G01*
G04 APERTURE LIST*
%TA.AperFunction,ComponentPad*%
%ADD10O,1.700000X1.700000*%
%TD*%
%TA.AperFunction,ComponentPad*%
%ADD11R,1.700000X1.700000*%
%TD*%
%TA.AperFunction,SMDPad,CuDef*%
%ADD12R,0.650000X1.060000*%
%TD*%
%TA.AperFunction,SMDPad,CuDef*%
%ADD13R,2.000000X2.000000*%
%TD*%
%TA.AperFunction,ComponentPad*%
%ADD14C,0.200000*%
%TD*%
%TA.AperFunction,SMDPad,CuDef*%
%ADD15C,0.100000*%
%TD*%
%TA.AperFunction,SMDPad,CuDef*%
%ADD16R,0.240000X1.200000*%
%TD*%
%TA.AperFunction,SMDPad,CuDef*%
%ADD17R,1.200000X0.240000*%
%TD*%
%TA.AperFunction,SMDPad,CuDef*%
%ADD18R,2.600000X2.600000*%
%TD*%
%TA.AperFunction,SMDPad,CuDef*%
%ADD19R,1.000000X0.200000*%
%TD*%
%TA.AperFunction,SMDPad,CuDef*%
%ADD20R,0.200000X1.000000*%
%TD*%
%TA.AperFunction,SMDPad,CuDef*%
%ADD21R,0.450000X0.200000*%
%TD*%
%TA.AperFunction,SMDPad,CuDef*%
%ADD22R,0.900000X1.700000*%
%TD*%
%TA.AperFunction,SMDPad,CuDef*%
%ADD23R,2.000000X4.500000*%
%TD*%
%TA.AperFunction,SMDPad,CuDef*%
%ADD24R,2.400000X1.950000*%
%TD*%
%TA.AperFunction,ComponentPad*%
%ADD25O,1.700000X2.000000*%
%TD*%
%TA.AperFunction,ViaPad*%
%ADD26C,3.000000*%
%TD*%
%TA.AperFunction,ViaPad*%
%ADD27C,0.635000*%
%TD*%
%TA.AperFunction,ViaPad*%
%ADD28C,0.800000*%
%TD*%
%TA.AperFunction,Conductor*%
%ADD29C,0.381000*%
%TD*%
%TA.AperFunction,Conductor*%
%ADD30C,0.635000*%
%TD*%
%TA.AperFunction,Conductor*%
%ADD31C,0.250000*%
%TD*%
%TA.AperFunction,Conductor*%
%ADD32C,0.200000*%
%TD*%
G04 APERTURE END LIST*
D10*
%TO.P,JP3(CHG-BATT),2*%
%TO.N,+BATT*%
X100050000Y-23540000D03*
D11*
%TO.P,JP3(CHG-BATT),1*%
%TO.N,Net-(C2-Pad1)*%
X97510000Y-23540000D03*
%TD*%
D12*
%TO.P,U8,5*%
%TO.N,Net-(R4-Pad2)*%
X94550000Y-32100000D03*
%TO.P,U8,4*%
%TO.N,Net-(C1-Pad2)*%
X96450000Y-32100000D03*
%TO.P,U8,3*%
%TO.N,Net-(C2-Pad1)*%
X96450000Y-34300000D03*
%TO.P,U8,2*%
%TO.N,GND*%
X95500000Y-34300000D03*
%TO.P,U8,1*%
%TO.N,Net-(D4-Pad1)*%
X94550000Y-34300000D03*
%TD*%
%TO.P,R22,2*%
%TO.N,GND*%
%TA.AperFunction,SMDPad,CuDef*%
G36*
G01*
X97800000Y-47350001D02*
X97800000Y-46449999D01*
G75*
G02*
X98049999Y-46200000I249999J0D01*
G01*
X98750001Y-46200000D01*
G75*
G02*
X99000000Y-46449999I0J-249999D01*
G01*
X99000000Y-47350001D01*
G75*
G02*
X98750001Y-47600000I-249999J0D01*
G01*
X98049999Y-47600000D01*
G75*
G02*
X97800000Y-47350001I0J249999D01*
G01*
G37*
%TD.AperFunction*%
%TO.P,R22,1*%
%TO.N,Net-(D5-Pad1)*%
%TA.AperFunction,SMDPad,CuDef*%
G36*
G01*
X95800000Y-47350001D02*
X95800000Y-46449999D01*
G75*
G02*
X96049999Y-46200000I249999J0D01*
G01*
X96750001Y-46200000D01*
G75*
G02*
X97000000Y-46449999I0J-249999D01*
G01*
X97000000Y-47350001D01*
G75*
G02*
X96750001Y-47600000I-249999J0D01*
G01*
X96049999Y-47600000D01*
G75*
G02*
X95800000Y-47350001I0J249999D01*
G01*
G37*
%TD.AperFunction*%
%TD*%
%TO.P,R21,2*%
%TO.N,Net-(C1-Pad2)*%
%TA.AperFunction,SMDPad,CuDef*%
G36*
G01*
X97900000Y-43350001D02*
X97900000Y-42449999D01*
G75*
G02*
X98149999Y-42200000I249999J0D01*
G01*
X98850001Y-42200000D01*
G75*
G02*
X99100000Y-42449999I0J-249999D01*
G01*
X99100000Y-43350001D01*
G75*
G02*
X98850001Y-43600000I-249999J0D01*
G01*
X98149999Y-43600000D01*
G75*
G02*
X97900000Y-43350001I0J249999D01*
G01*
G37*
%TD.AperFunction*%
%TO.P,R21,1*%
%TO.N,Net-(D4-Pad2)*%
%TA.AperFunction,SMDPad,CuDef*%
G36*
G01*
X95900000Y-43350001D02*
X95900000Y-42449999D01*
G75*
G02*
X96149999Y-42200000I249999J0D01*
G01*
X96850001Y-42200000D01*
G75*
G02*
X97100000Y-42449999I0J-249999D01*
G01*
X97100000Y-43350001D01*
G75*
G02*
X96850001Y-43600000I-249999J0D01*
G01*
X96149999Y-43600000D01*
G75*
G02*
X95900000Y-43350001I0J249999D01*
G01*
G37*
%TD.AperFunction*%
%TD*%
%TO.P,R4,2*%
%TO.N,Net-(R4-Pad2)*%
%TA.AperFunction,SMDPad,CuDef*%
G36*
G01*
X94100000Y-27649999D02*
X94100000Y-28550001D01*
G75*
G02*
X93850001Y-28800000I-249999J0D01*
G01*
X93149999Y-28800000D01*
G75*
G02*
X92900000Y-28550001I0J249999D01*
G01*
X92900000Y-27649999D01*
G75*
G02*
X93149999Y-27400000I249999J0D01*
G01*
X93850001Y-27400000D01*
G75*
G02*
X94100000Y-27649999I0J-249999D01*
G01*
G37*
%TD.AperFunction*%
%TO.P,R4,1*%
%TO.N,GND*%
%TA.AperFunction,SMDPad,CuDef*%
G36*
G01*
X96100000Y-27649999D02*
X96100000Y-28550001D01*
G75*
G02*
X95850001Y-28800000I-249999J0D01*
G01*
X95149999Y-28800000D01*
G75*
G02*
X94900000Y-28550001I0J249999D01*
G01*
X94900000Y-27649999D01*
G75*
G02*
X95149999Y-27400000I249999J0D01*
G01*
X95850001Y-27400000D01*
G75*
G02*
X96100000Y-27649999I0J-249999D01*
G01*
G37*
%TD.AperFunction*%
%TD*%
D10*
%TO.P,JP2(BQ-5V),2*%
%TO.N,Net-(C1-Pad2)*%
X102960000Y-49100000D03*
D11*
%TO.P,JP2(BQ-5V),1*%
%TO.N,+5V*%
X105500000Y-49100000D03*
%TD*%
%TO.P,D5,2*%
%TO.N,Net-(D4-Pad1)*%
%TA.AperFunction,SMDPad,CuDef*%
G36*
G01*
X92650000Y-46449999D02*
X92650000Y-47350001D01*
G75*
G02*
X92400001Y-47600000I-249999J0D01*
G01*
X91749999Y-47600000D01*
G75*
G02*
X91500000Y-47350001I0J249999D01*
G01*
X91500000Y-46449999D01*
G75*
G02*
X91749999Y-46200000I249999J0D01*
G01*
X92400001Y-46200000D01*
G75*
G02*
X92650000Y-46449999I0J-249999D01*
G01*
G37*
%TD.AperFunction*%
%TO.P,D5,1*%
%TO.N,Net-(D5-Pad1)*%
%TA.AperFunction,SMDPad,CuDef*%
G36*
G01*
X94700000Y-46449999D02*
X94700000Y-47350001D01*
G75*
G02*
X94450001Y-47600000I-249999J0D01*
G01*
X93799999Y-47600000D01*
G75*
G02*
X93550000Y-47350001I0J249999D01*
G01*
X93550000Y-46449999D01*
G75*
G02*
X93799999Y-46200000I249999J0D01*
G01*
X94450001Y-46200000D01*
G75*
G02*
X94700000Y-46449999I0J-249999D01*
G01*
G37*
%TD.AperFunction*%
%TD*%
%TO.P,D4,2*%
%TO.N,Net-(D4-Pad2)*%
%TA.AperFunction,SMDPad,CuDef*%
G36*
G01*
X93750000Y-43450001D02*
X93750000Y-42549999D01*
G75*
G02*
X93999999Y-42300000I249999J0D01*
G01*
X94650001Y-42300000D01*
G75*
G02*
X94900000Y-42549999I0J-249999D01*
G01*
X94900000Y-43450001D01*
G75*
G02*
X94650001Y-43700000I-249999J0D01*
G01*
X93999999Y-43700000D01*
G75*
G02*
X93750000Y-43450001I0J249999D01*
G01*
G37*
%TD.AperFunction*%
%TO.P,D4,1*%
%TO.N,Net-(D4-Pad1)*%
%TA.AperFunction,SMDPad,CuDef*%
G36*
G01*
X91700000Y-43450001D02*
X91700000Y-42549999D01*
G75*
G02*
X91949999Y-42300000I249999J0D01*
G01*
X92600001Y-42300000D01*
G75*
G02*
X92850000Y-42549999I0J-249999D01*
G01*
X92850000Y-43450001D01*
G75*
G02*
X92600001Y-43700000I-249999J0D01*
G01*
X91949999Y-43700000D01*
G75*
G02*
X91700000Y-43450001I0J249999D01*
G01*
G37*
%TD.AperFunction*%
%TD*%
%TO.P,C14,2*%
%TO.N,GND*%
%TA.AperFunction,SMDPad,CuDef*%
G36*
G01*
X110775000Y-36550000D02*
X109825000Y-36550000D01*
G75*
G02*
X109575000Y-36300000I0J250000D01*
G01*
X109575000Y-35625000D01*
G75*
G02*
X109825000Y-35375000I250000J0D01*
G01*
X110775000Y-35375000D01*
G75*
G02*
X111025000Y-35625000I0J-250000D01*
G01*
X111025000Y-36300000D01*
G75*
G02*
X110775000Y-36550000I-250000J0D01*
G01*
G37*
%TD.AperFunction*%
%TO.P,C14,1*%
%TO.N,/LP2985_Output*%
%TA.AperFunction,SMDPad,CuDef*%
G36*
G01*
X110775000Y-38625000D02*
X109825000Y-38625000D01*
G75*
G02*
X109575000Y-38375000I0J250000D01*
G01*
X109575000Y-37700000D01*
G75*
G02*
X109825000Y-37450000I250000J0D01*
G01*
X110775000Y-37450000D01*
G75*
G02*
X111025000Y-37700000I0J-250000D01*
G01*
X111025000Y-38375000D01*
G75*
G02*
X110775000Y-38625000I-250000J0D01*
G01*
G37*
%TD.AperFunction*%
%TD*%
%TO.P,C13,2*%
%TO.N,GND*%
%TA.AperFunction,SMDPad,CuDef*%
G36*
G01*
X106950000Y-36475000D02*
X106950000Y-35525000D01*
G75*
G02*
X107200000Y-35275000I250000J0D01*
G01*
X107875000Y-35275000D01*
G75*
G02*
X108125000Y-35525000I0J-250000D01*
G01*
X108125000Y-36475000D01*
G75*
G02*
X107875000Y-36725000I-250000J0D01*
G01*
X107200000Y-36725000D01*
G75*
G02*
X106950000Y-36475000I0J250000D01*
G01*
G37*
%TD.AperFunction*%
%TO.P,C13,1*%
%TO.N,+BATT*%
%TA.AperFunction,SMDPad,CuDef*%
G36*
G01*
X104875000Y-36475000D02*
X104875000Y-35525000D01*
G75*
G02*
X105125000Y-35275000I250000J0D01*
G01*
X105800000Y-35275000D01*
G75*
G02*
X106050000Y-35525000I0J-250000D01*
G01*
X106050000Y-36475000D01*
G75*
G02*
X105800000Y-36725000I-250000J0D01*
G01*
X105125000Y-36725000D01*
G75*
G02*
X104875000Y-36475000I0J250000D01*
G01*
G37*
%TD.AperFunction*%
%TD*%
%TO.P,C2,2*%
%TO.N,GND*%
%TA.AperFunction,SMDPad,CuDef*%
G36*
G01*
X95950000Y-37825000D02*
X95950000Y-38775000D01*
G75*
G02*
X95700000Y-39025000I-250000J0D01*
G01*
X95025000Y-39025000D01*
G75*
G02*
X94775000Y-38775000I0J250000D01*
G01*
X94775000Y-37825000D01*
G75*
G02*
X95025000Y-37575000I250000J0D01*
G01*
X95700000Y-37575000D01*
G75*
G02*
X95950000Y-37825000I0J-250000D01*
G01*
G37*
%TD.AperFunction*%
%TO.P,C2,1*%
%TO.N,Net-(C2-Pad1)*%
%TA.AperFunction,SMDPad,CuDef*%
G36*
G01*
X98025000Y-37825000D02*
X98025000Y-38775000D01*
G75*
G02*
X97775000Y-39025000I-250000J0D01*
G01*
X97100000Y-39025000D01*
G75*
G02*
X96850000Y-38775000I0J250000D01*
G01*
X96850000Y-37825000D01*
G75*
G02*
X97100000Y-37575000I250000J0D01*
G01*
X97775000Y-37575000D01*
G75*
G02*
X98025000Y-37825000I0J-250000D01*
G01*
G37*
%TD.AperFunction*%
%TD*%
%TO.P,C1,2*%
%TO.N,Net-(C1-Pad2)*%
%TA.AperFunction,SMDPad,CuDef*%
G36*
G01*
X102075000Y-37350000D02*
X101125000Y-37350000D01*
G75*
G02*
X100875000Y-37100000I0J250000D01*
G01*
X100875000Y-36425000D01*
G75*
G02*
X101125000Y-36175000I250000J0D01*
G01*
X102075000Y-36175000D01*
G75*
G02*
X102325000Y-36425000I0J-250000D01*
G01*
X102325000Y-37100000D01*
G75*
G02*
X102075000Y-37350000I-250000J0D01*
G01*
G37*
%TD.AperFunction*%
%TO.P,C1,1*%
%TO.N,GND*%
%TA.AperFunction,SMDPad,CuDef*%
G36*
G01*
X102075000Y-39425000D02*
X101125000Y-39425000D01*
G75*
G02*
X100875000Y-39175000I0J250000D01*
G01*
X100875000Y-38500000D01*
G75*
G02*
X101125000Y-38250000I250000J0D01*
G01*
X102075000Y-38250000D01*
G75*
G02*
X102325000Y-38500000I0J-250000D01*
G01*
X102325000Y-39175000D01*
G75*
G02*
X102075000Y-39425000I-250000J0D01*
G01*
G37*
%TD.AperFunction*%
%TD*%
D12*
%TO.P,U2,5*%
%TO.N,/LP2985_Output*%
X106650000Y-42700000D03*
%TO.P,U2,4*%
X104750000Y-42700000D03*
%TO.P,U2,3*%
%TO.N,+BATT*%
X104750000Y-40500000D03*
%TO.P,U2,2*%
%TO.N,GND*%
X105700000Y-40500000D03*
%TO.P,U2,1*%
%TO.N,+BATT*%
X106650000Y-40500000D03*
%TD*%
D13*
%TO.P,U5,2*%
%TO.N,Net-(R8-Pad1)*%
X148700000Y-72150000D03*
%TO.P,U5,1*%
%TO.N,Net-(R9-Pad1)*%
X148700000Y-66850000D03*
%TD*%
%TO.P,U4,2*%
%TO.N,Net-(R7-Pad1)*%
X139450000Y-58600000D03*
%TO.P,U4,1*%
%TO.N,Net-(R6-Pad1)*%
X144750000Y-58600000D03*
%TD*%
D10*
%TO.P,J6 (COIL),2*%
%TO.N,Net-(C18-Pad2)*%
X127110000Y-23400000D03*
D11*
%TO.P,J6 (COIL),1*%
%TO.N,Net-(C21-Pad2)*%
X129650000Y-23400000D03*
%TD*%
D14*
%TO.P,U7,*%
%TO.N,*%
X127860000Y-37150000D03*
X128860000Y-37150000D03*
X128860000Y-35150000D03*
X127860000Y-35150000D03*
X128360000Y-37150000D03*
X128360000Y-35150000D03*
%TA.AperFunction,SMDPad,CuDef*%
D15*
G36*
X128735000Y-37680000D02*
G01*
X128735000Y-38450000D01*
X127985000Y-38450000D01*
X127985000Y-37680000D01*
X127330000Y-37680000D01*
X127330000Y-34620000D01*
X127985000Y-34620000D01*
X127985000Y-33850000D01*
X128735000Y-33850000D01*
X128735000Y-34620000D01*
X129390000Y-34620000D01*
X129390000Y-37680000D01*
X128735000Y-37680000D01*
G37*
%TD.AperFunction*%
D16*
%TO.P,U7,11*%
%TO.N,Net-(R16-Pad2)*%
X129110000Y-38450000D03*
%TO.P,U7,10*%
%TO.N,GND*%
X127610000Y-38450000D03*
%TO.P,U7,20*%
X129110000Y-33850000D03*
%TO.P,U7,1*%
X127610000Y-33850000D03*
D17*
%TO.P,U7,9*%
X126410000Y-37900000D03*
%TO.P,U7,12*%
%TO.N,Net-(R13-Pad1)*%
X130310000Y-37900000D03*
%TO.P,U7,8*%
%TO.N,Net-(U7-Pad8)*%
X126410000Y-37400000D03*
%TO.P,U7,13*%
%TO.N,Net-(R18-Pad1)*%
X130310000Y-37400000D03*
%TO.P,U7,7*%
%TO.N,/CHG_LED*%
X126410000Y-36900000D03*
%TO.P,U7,14*%
%TO.N,Net-(C29-Pad1)*%
X130310000Y-36900000D03*
%TO.P,U7,6*%
%TO.N,Net-(C23-Pad1)*%
X126410000Y-36400000D03*
%TO.P,U7,15*%
%TO.N,Net-(C28-Pad1)*%
X130310000Y-36400000D03*
%TO.P,U7,5*%
%TO.N,Net-(C24-Pad1)*%
X126410000Y-35900000D03*
%TO.P,U7,16*%
%TO.N,Net-(C27-Pad1)*%
X130310000Y-35900000D03*
%TO.P,U7,4*%
%TO.N,+5V*%
X126410000Y-35400000D03*
%TO.P,U7,17*%
%TO.N,Net-(C26-Pad1)*%
X130310000Y-35400000D03*
%TO.P,U7,3*%
%TO.N,Net-(C25-Pad1)*%
X126410000Y-34900000D03*
%TO.P,U7,18*%
%TO.N,/VRECT*%
X130310000Y-34900000D03*
%TO.P,U7,2*%
%TO.N,Net-(C18-Pad1)*%
X126410000Y-34400000D03*
%TO.P,U7,19*%
%TO.N,Net-(C21-Pad2)*%
X130310000Y-34400000D03*
%TD*%
D18*
%TO.P,U3,*%
%TO.N,*%
X141500000Y-69000000D03*
D19*
%TO.P,U3,28*%
%TO.N,/SPI1_MISO*%
X139450000Y-70200000D03*
%TO.P,U3,27*%
%TO.N,/SPI1_SCK*%
X139450000Y-69800000D03*
%TO.P,U3,26*%
%TO.N,/STM32SUPPLY*%
X139450000Y-69400000D03*
%TO.P,U3,25*%
%TO.N,Net-(R5-Pad1)*%
X139450000Y-69000000D03*
%TO.P,U3,24*%
%TO.N,Net-(U3-Pad24)*%
X139450000Y-68600000D03*
%TO.P,U3,23*%
%TO.N,/MAG_RDY*%
X139450000Y-68200000D03*
%TO.P,U3,22*%
%TO.N,GND*%
X139450000Y-67800000D03*
D20*
%TO.P,U3,21*%
%TO.N,Net-(U3-Pad21)*%
X140300000Y-66950000D03*
%TO.P,U3,20*%
%TO.N,Net-(U3-Pad20)*%
X140700000Y-66950000D03*
%TO.P,U3,19*%
%TO.N,GND*%
X141100000Y-66950000D03*
%TO.P,U3,18*%
%TO.N,Net-(R7-Pad2)*%
X141500000Y-66950000D03*
%TO.P,U3,17*%
%TO.N,Net-(R7-Pad1)*%
X141900000Y-66950000D03*
%TO.P,U3,16*%
%TO.N,Net-(R6-Pad1)*%
X142300000Y-66950000D03*
%TO.P,U3,15*%
%TO.N,Net-(R6-Pad2)*%
X142700000Y-66950000D03*
D19*
%TO.P,U3,14*%
%TO.N,/STM32SUPPLY*%
X143550000Y-67800000D03*
%TO.P,U3,13*%
%TO.N,Net-(R9-Pad2)*%
X143550000Y-68200000D03*
%TO.P,U3,12*%
%TO.N,Net-(R9-Pad1)*%
X143550000Y-68600000D03*
%TO.P,U3,11*%
%TO.N,Net-(R8-Pad1)*%
X143550000Y-69000000D03*
%TO.P,U3,10*%
%TO.N,Net-(R8-Pad2)*%
X143550000Y-69400000D03*
%TO.P,U3,9*%
%TO.N,Net-(R11-Pad2)*%
X143550000Y-69800000D03*
D21*
%TO.P,U3,8*%
%TO.N,Net-(R11-Pad1)*%
X143275000Y-70200000D03*
D20*
%TO.P,U3,7*%
%TO.N,Net-(R10-Pad1)*%
X142700000Y-71050000D03*
%TO.P,U3,6*%
%TO.N,Net-(R10-Pad2)*%
X142300000Y-71050000D03*
%TO.P,U3,5*%
%TO.N,GND*%
X141900000Y-71050000D03*
%TO.P,U3,4*%
%TO.N,/STM32SUPPLY*%
X141500000Y-71050000D03*
%TO.P,U3,3*%
%TO.N,/SPI1_SSN*%
X141100000Y-71050000D03*
%TO.P,U3,2*%
%TO.N,GND*%
X140700000Y-71050000D03*
%TO.P,U3,1*%
%TO.N,/SPI1_MOSI*%
X140300000Y-71050000D03*
%TD*%
D22*
%TO.P,SW1,2*%
%TO.N,Net-(C12-Pad1)*%
X94090000Y-79040000D03*
%TO.P,SW1,1*%
%TO.N,GND*%
X90690000Y-79040000D03*
%TD*%
D23*
%TO.P,Y1,2*%
%TO.N,Net-(C11-Pad1)*%
X97320000Y-72240000D03*
%TO.P,Y1,1*%
%TO.N,Net-(C10-Pad1)*%
X97320000Y-63740000D03*
%TD*%
D24*
%TO.P,U6,2*%
%TO.N,Net-(R10-Pad1)*%
X139850000Y-80200000D03*
%TO.P,U6,1*%
%TO.N,Net-(R11-Pad1)*%
X142650000Y-80200000D03*
%TD*%
%TO.P,U1,64*%
%TO.N,/STM32SUPPLY*%
%TA.AperFunction,SMDPad,CuDef*%
G36*
G01*
X108660000Y-64285000D02*
X108660000Y-62885000D01*
G75*
G02*
X108735000Y-62810000I75000J0D01*
G01*
X108885000Y-62810000D01*
G75*
G02*
X108960000Y-62885000I0J-75000D01*
G01*
X108960000Y-64285000D01*
G75*
G02*
X108885000Y-64360000I-75000J0D01*
G01*
X108735000Y-64360000D01*
G75*
G02*
X108660000Y-64285000I0J75000D01*
G01*
G37*
%TD.AperFunction*%
%TO.P,U1,63*%
%TO.N,GND*%
%TA.AperFunction,SMDPad,CuDef*%
G36*
G01*
X109160000Y-64285000D02*
X109160000Y-62885000D01*
G75*
G02*
X109235000Y-62810000I75000J0D01*
G01*
X109385000Y-62810000D01*
G75*
G02*
X109460000Y-62885000I0J-75000D01*
G01*
X109460000Y-64285000D01*
G75*
G02*
X109385000Y-64360000I-75000J0D01*
G01*
X109235000Y-64360000D01*
G75*
G02*
X109160000Y-64285000I0J75000D01*
G01*
G37*
%TD.AperFunction*%
%TO.P,U1,62*%
%TO.N,Net-(U1-Pad62)*%
%TA.AperFunction,SMDPad,CuDef*%
G36*
G01*
X109660000Y-64285000D02*
X109660000Y-62885000D01*
G75*
G02*
X109735000Y-62810000I75000J0D01*
G01*
X109885000Y-62810000D01*
G75*
G02*
X109960000Y-62885000I0J-75000D01*
G01*
X109960000Y-64285000D01*
G75*
G02*
X109885000Y-64360000I-75000J0D01*
G01*
X109735000Y-64360000D01*
G75*
G02*
X109660000Y-64285000I0J75000D01*
G01*
G37*
%TD.AperFunction*%
%TO.P,U1,61*%
%TO.N,Net-(U1-Pad61)*%
%TA.AperFunction,SMDPad,CuDef*%
G36*
G01*
X110160000Y-64285000D02*
X110160000Y-62885000D01*
G75*
G02*
X110235000Y-62810000I75000J0D01*
G01*
X110385000Y-62810000D01*
G75*
G02*
X110460000Y-62885000I0J-75000D01*
G01*
X110460000Y-64285000D01*
G75*
G02*
X110385000Y-64360000I-75000J0D01*
G01*
X110235000Y-64360000D01*
G75*
G02*
X110160000Y-64285000I0J75000D01*
G01*
G37*
%TD.AperFunction*%
%TO.P,U1,60*%
%TO.N,Net-(R3-Pad1)*%
%TA.AperFunction,SMDPad,CuDef*%
G36*
G01*
X110660000Y-64285000D02*
X110660000Y-62885000D01*
G75*
G02*
X110735000Y-62810000I75000J0D01*
G01*
X110885000Y-62810000D01*
G75*
G02*
X110960000Y-62885000I0J-75000D01*
G01*
X110960000Y-64285000D01*
G75*
G02*
X110885000Y-64360000I-75000J0D01*
G01*
X110735000Y-64360000D01*
G75*
G02*
X110660000Y-64285000I0J75000D01*
G01*
G37*
%TD.AperFunction*%
%TO.P,U1,59*%
%TO.N,/I2C1_SDA*%
%TA.AperFunction,SMDPad,CuDef*%
G36*
G01*
X111160000Y-64285000D02*
X111160000Y-62885000D01*
G75*
G02*
X111235000Y-62810000I75000J0D01*
G01*
X111385000Y-62810000D01*
G75*
G02*
X111460000Y-62885000I0J-75000D01*
G01*
X111460000Y-64285000D01*
G75*
G02*
X111385000Y-64360000I-75000J0D01*
G01*
X111235000Y-64360000D01*
G75*
G02*
X111160000Y-64285000I0J75000D01*
G01*
G37*
%TD.AperFunction*%
%TO.P,U1,58*%
%TO.N,/I2C1_SCL*%
%TA.AperFunction,SMDPad,CuDef*%
G36*
G01*
X111660000Y-64285000D02*
X111660000Y-62885000D01*
G75*
G02*
X111735000Y-62810000I75000J0D01*
G01*
X111885000Y-62810000D01*
G75*
G02*
X111960000Y-62885000I0J-75000D01*
G01*
X111960000Y-64285000D01*
G75*
G02*
X111885000Y-64360000I-75000J0D01*
G01*
X111735000Y-64360000D01*
G75*
G02*
X111660000Y-64285000I0J75000D01*
G01*
G37*
%TD.AperFunction*%
%TO.P,U1,57*%
%TO.N,Net-(U1-Pad57)*%
%TA.AperFunction,SMDPad,CuDef*%
G36*
G01*
X112160000Y-64285000D02*
X112160000Y-62885000D01*
G75*
G02*
X112235000Y-62810000I75000J0D01*
G01*
X112385000Y-62810000D01*
G75*
G02*
X112460000Y-62885000I0J-75000D01*
G01*
X112460000Y-64285000D01*
G75*
G02*
X112385000Y-64360000I-75000J0D01*
G01*
X112235000Y-64360000D01*
G75*
G02*
X112160000Y-64285000I0J75000D01*
G01*
G37*
%TD.AperFunction*%
%TO.P,U1,56*%
%TO.N,Net-(U1-Pad56)*%
%TA.AperFunction,SMDPad,CuDef*%
G36*
G01*
X112660000Y-64285000D02*
X112660000Y-62885000D01*
G75*
G02*
X112735000Y-62810000I75000J0D01*
G01*
X112885000Y-62810000D01*
G75*
G02*
X112960000Y-62885000I0J-75000D01*
G01*
X112960000Y-64285000D01*
G75*
G02*
X112885000Y-64360000I-75000J0D01*
G01*
X112735000Y-64360000D01*
G75*
G02*
X112660000Y-64285000I0J75000D01*
G01*
G37*
%TD.AperFunction*%
%TO.P,U1,55*%
%TO.N,Net-(U1-Pad55)*%
%TA.AperFunction,SMDPad,CuDef*%
G36*
G01*
X113160000Y-64285000D02*
X113160000Y-62885000D01*
G75*
G02*
X113235000Y-62810000I75000J0D01*
G01*
X113385000Y-62810000D01*
G75*
G02*
X113460000Y-62885000I0J-75000D01*
G01*
X113460000Y-64285000D01*
G75*
G02*
X113385000Y-64360000I-75000J0D01*
G01*
X113235000Y-64360000D01*
G75*
G02*
X113160000Y-64285000I0J75000D01*
G01*
G37*
%TD.AperFunction*%
%TO.P,U1,54*%
%TO.N,Net-(U1-Pad54)*%
%TA.AperFunction,SMDPad,CuDef*%
G36*
G01*
X113660000Y-64285000D02*
X113660000Y-62885000D01*
G75*
G02*
X113735000Y-62810000I75000J0D01*
G01*
X113885000Y-62810000D01*
G75*
G02*
X113960000Y-62885000I0J-75000D01*
G01*
X113960000Y-64285000D01*
G75*
G02*
X113885000Y-64360000I-75000J0D01*
G01*
X113735000Y-64360000D01*
G75*
G02*
X113660000Y-64285000I0J75000D01*
G01*
G37*
%TD.AperFunction*%
%TO.P,U1,53*%
%TO.N,/USER_LED2*%
%TA.AperFunction,SMDPad,CuDef*%
G36*
G01*
X114160000Y-64285000D02*
X114160000Y-62885000D01*
G75*
G02*
X114235000Y-62810000I75000J0D01*
G01*
X114385000Y-62810000D01*
G75*
G02*
X114460000Y-62885000I0J-75000D01*
G01*
X114460000Y-64285000D01*
G75*
G02*
X114385000Y-64360000I-75000J0D01*
G01*
X114235000Y-64360000D01*
G75*
G02*
X114160000Y-64285000I0J75000D01*
G01*
G37*
%TD.AperFunction*%
%TO.P,U1,52*%
%TO.N,/USER_LED1*%
%TA.AperFunction,SMDPad,CuDef*%
G36*
G01*
X114660000Y-64285000D02*
X114660000Y-62885000D01*
G75*
G02*
X114735000Y-62810000I75000J0D01*
G01*
X114885000Y-62810000D01*
G75*
G02*
X114960000Y-62885000I0J-75000D01*
G01*
X114960000Y-64285000D01*
G75*
G02*
X114885000Y-64360000I-75000J0D01*
G01*
X114735000Y-64360000D01*
G75*
G02*
X114660000Y-64285000I0J75000D01*
G01*
G37*
%TD.AperFunction*%
%TO.P,U1,51*%
%TO.N,Net-(U1-Pad51)*%
%TA.AperFunction,SMDPad,CuDef*%
G36*
G01*
X115160000Y-64285000D02*
X115160000Y-62885000D01*
G75*
G02*
X115235000Y-62810000I75000J0D01*
G01*
X115385000Y-62810000D01*
G75*
G02*
X115460000Y-62885000I0J-75000D01*
G01*
X115460000Y-64285000D01*
G75*
G02*
X115385000Y-64360000I-75000J0D01*
G01*
X115235000Y-64360000D01*
G75*
G02*
X115160000Y-64285000I0J75000D01*
G01*
G37*
%TD.AperFunction*%
%TO.P,U1,50*%
%TO.N,Net-(U1-Pad50)*%
%TA.AperFunction,SMDPad,CuDef*%
G36*
G01*
X115660000Y-64285000D02*
X115660000Y-62885000D01*
G75*
G02*
X115735000Y-62810000I75000J0D01*
G01*
X115885000Y-62810000D01*
G75*
G02*
X115960000Y-62885000I0J-75000D01*
G01*
X115960000Y-64285000D01*
G75*
G02*
X115885000Y-64360000I-75000J0D01*
G01*
X115735000Y-64360000D01*
G75*
G02*
X115660000Y-64285000I0J75000D01*
G01*
G37*
%TD.AperFunction*%
%TO.P,U1,49*%
%TO.N,/SWD_SWCLK*%
%TA.AperFunction,SMDPad,CuDef*%
G36*
G01*
X116160000Y-64285000D02*
X116160000Y-62885000D01*
G75*
G02*
X116235000Y-62810000I75000J0D01*
G01*
X116385000Y-62810000D01*
G75*
G02*
X116460000Y-62885000I0J-75000D01*
G01*
X116460000Y-64285000D01*
G75*
G02*
X116385000Y-64360000I-75000J0D01*
G01*
X116235000Y-64360000D01*
G75*
G02*
X116160000Y-64285000I0J75000D01*
G01*
G37*
%TD.AperFunction*%
%TO.P,U1,48*%
%TO.N,/STM32SUPPLY*%
%TA.AperFunction,SMDPad,CuDef*%
G36*
G01*
X117460000Y-65585000D02*
X117460000Y-65435000D01*
G75*
G02*
X117535000Y-65360000I75000J0D01*
G01*
X118935000Y-65360000D01*
G75*
G02*
X119010000Y-65435000I0J-75000D01*
G01*
X119010000Y-65585000D01*
G75*
G02*
X118935000Y-65660000I-75000J0D01*
G01*
X117535000Y-65660000D01*
G75*
G02*
X117460000Y-65585000I0J75000D01*
G01*
G37*
%TD.AperFunction*%
%TO.P,U1,47*%
%TO.N,GND*%
%TA.AperFunction,SMDPad,CuDef*%
G36*
G01*
X117460000Y-66085000D02*
X117460000Y-65935000D01*
G75*
G02*
X117535000Y-65860000I75000J0D01*
G01*
X118935000Y-65860000D01*
G75*
G02*
X119010000Y-65935000I0J-75000D01*
G01*
X119010000Y-66085000D01*
G75*
G02*
X118935000Y-66160000I-75000J0D01*
G01*
X117535000Y-66160000D01*
G75*
G02*
X117460000Y-66085000I0J75000D01*
G01*
G37*
%TD.AperFunction*%
%TO.P,U1,46*%
%TO.N,/SWD_SWDIO*%
%TA.AperFunction,SMDPad,CuDef*%
G36*
G01*
X117460000Y-66585000D02*
X117460000Y-66435000D01*
G75*
G02*
X117535000Y-66360000I75000J0D01*
G01*
X118935000Y-66360000D01*
G75*
G02*
X119010000Y-66435000I0J-75000D01*
G01*
X119010000Y-66585000D01*
G75*
G02*
X118935000Y-66660000I-75000J0D01*
G01*
X117535000Y-66660000D01*
G75*
G02*
X117460000Y-66585000I0J75000D01*
G01*
G37*
%TD.AperFunction*%
%TO.P,U1,45*%
%TO.N,Net-(U1-Pad45)*%
%TA.AperFunction,SMDPad,CuDef*%
G36*
G01*
X117460000Y-67085000D02*
X117460000Y-66935000D01*
G75*
G02*
X117535000Y-66860000I75000J0D01*
G01*
X118935000Y-66860000D01*
G75*
G02*
X119010000Y-66935000I0J-75000D01*
G01*
X119010000Y-67085000D01*
G75*
G02*
X118935000Y-67160000I-75000J0D01*
G01*
X117535000Y-67160000D01*
G75*
G02*
X117460000Y-67085000I0J75000D01*
G01*
G37*
%TD.AperFunction*%
%TO.P,U1,44*%
%TO.N,Net-(U1-Pad44)*%
%TA.AperFunction,SMDPad,CuDef*%
G36*
G01*
X117460000Y-67585000D02*
X117460000Y-67435000D01*
G75*
G02*
X117535000Y-67360000I75000J0D01*
G01*
X118935000Y-67360000D01*
G75*
G02*
X119010000Y-67435000I0J-75000D01*
G01*
X119010000Y-67585000D01*
G75*
G02*
X118935000Y-67660000I-75000J0D01*
G01*
X117535000Y-67660000D01*
G75*
G02*
X117460000Y-67585000I0J75000D01*
G01*
G37*
%TD.AperFunction*%
%TO.P,U1,43*%
%TO.N,Net-(U1-Pad43)*%
%TA.AperFunction,SMDPad,CuDef*%
G36*
G01*
X117460000Y-68085000D02*
X117460000Y-67935000D01*
G75*
G02*
X117535000Y-67860000I75000J0D01*
G01*
X118935000Y-67860000D01*
G75*
G02*
X119010000Y-67935000I0J-75000D01*
G01*
X119010000Y-68085000D01*
G75*
G02*
X118935000Y-68160000I-75000J0D01*
G01*
X117535000Y-68160000D01*
G75*
G02*
X117460000Y-68085000I0J75000D01*
G01*
G37*
%TD.AperFunction*%
%TO.P,U1,42*%
%TO.N,/MAG_RDY*%
%TA.AperFunction,SMDPad,CuDef*%
G36*
G01*
X117460000Y-68585000D02*
X117460000Y-68435000D01*
G75*
G02*
X117535000Y-68360000I75000J0D01*
G01*
X118935000Y-68360000D01*
G75*
G02*
X119010000Y-68435000I0J-75000D01*
G01*
X119010000Y-68585000D01*
G75*
G02*
X118935000Y-68660000I-75000J0D01*
G01*
X117535000Y-68660000D01*
G75*
G02*
X117460000Y-68585000I0J75000D01*
G01*
G37*
%TD.AperFunction*%
%TO.P,U1,41*%
%TO.N,/SPI1_SSN*%
%TA.AperFunction,SMDPad,CuDef*%
G36*
G01*
X117460000Y-69085000D02*
X117460000Y-68935000D01*
G75*
G02*
X117535000Y-68860000I75000J0D01*
G01*
X118935000Y-68860000D01*
G75*
G02*
X119010000Y-68935000I0J-75000D01*
G01*
X119010000Y-69085000D01*
G75*
G02*
X118935000Y-69160000I-75000J0D01*
G01*
X117535000Y-69160000D01*
G75*
G02*
X117460000Y-69085000I0J75000D01*
G01*
G37*
%TD.AperFunction*%
%TO.P,U1,40*%
%TO.N,Net-(U1-Pad40)*%
%TA.AperFunction,SMDPad,CuDef*%
G36*
G01*
X117460000Y-69585000D02*
X117460000Y-69435000D01*
G75*
G02*
X117535000Y-69360000I75000J0D01*
G01*
X118935000Y-69360000D01*
G75*
G02*
X119010000Y-69435000I0J-75000D01*
G01*
X119010000Y-69585000D01*
G75*
G02*
X118935000Y-69660000I-75000J0D01*
G01*
X117535000Y-69660000D01*
G75*
G02*
X117460000Y-69585000I0J75000D01*
G01*
G37*
%TD.AperFunction*%
%TO.P,U1,39*%
%TO.N,Net-(U1-Pad39)*%
%TA.AperFunction,SMDPad,CuDef*%
G36*
G01*
X117460000Y-70085000D02*
X117460000Y-69935000D01*
G75*
G02*
X117535000Y-69860000I75000J0D01*
G01*
X118935000Y-69860000D01*
G75*
G02*
X119010000Y-69935000I0J-75000D01*
G01*
X119010000Y-70085000D01*
G75*
G02*
X118935000Y-70160000I-75000J0D01*
G01*
X117535000Y-70160000D01*
G75*
G02*
X117460000Y-70085000I0J75000D01*
G01*
G37*
%TD.AperFunction*%
%TO.P,U1,38*%
%TO.N,Net-(U1-Pad38)*%
%TA.AperFunction,SMDPad,CuDef*%
G36*
G01*
X117460000Y-70585000D02*
X117460000Y-70435000D01*
G75*
G02*
X117535000Y-70360000I75000J0D01*
G01*
X118935000Y-70360000D01*
G75*
G02*
X119010000Y-70435000I0J-75000D01*
G01*
X119010000Y-70585000D01*
G75*
G02*
X118935000Y-70660000I-75000J0D01*
G01*
X117535000Y-70660000D01*
G75*
G02*
X117460000Y-70585000I0J75000D01*
G01*
G37*
%TD.AperFunction*%
%TO.P,U1,37*%
%TO.N,/LoRaRST*%
%TA.AperFunction,SMDPad,CuDef*%
G36*
G01*
X117460000Y-71085000D02*
X117460000Y-70935000D01*
G75*
G02*
X117535000Y-70860000I75000J0D01*
G01*
X118935000Y-70860000D01*
G75*
G02*
X119010000Y-70935000I0J-75000D01*
G01*
X119010000Y-71085000D01*
G75*
G02*
X118935000Y-71160000I-75000J0D01*
G01*
X117535000Y-71160000D01*
G75*
G02*
X117460000Y-71085000I0J75000D01*
G01*
G37*
%TD.AperFunction*%
%TO.P,U1,36*%
%TO.N,/LoRa_RESET*%
%TA.AperFunction,SMDPad,CuDef*%
G36*
G01*
X117460000Y-71585000D02*
X117460000Y-71435000D01*
G75*
G02*
X117535000Y-71360000I75000J0D01*
G01*
X118935000Y-71360000D01*
G75*
G02*
X119010000Y-71435000I0J-75000D01*
G01*
X119010000Y-71585000D01*
G75*
G02*
X118935000Y-71660000I-75000J0D01*
G01*
X117535000Y-71660000D01*
G75*
G02*
X117460000Y-71585000I0J75000D01*
G01*
G37*
%TD.AperFunction*%
%TO.P,U1,35*%
%TO.N,/SPI2_SSN*%
%TA.AperFunction,SMDPad,CuDef*%
G36*
G01*
X117460000Y-72085000D02*
X117460000Y-71935000D01*
G75*
G02*
X117535000Y-71860000I75000J0D01*
G01*
X118935000Y-71860000D01*
G75*
G02*
X119010000Y-71935000I0J-75000D01*
G01*
X119010000Y-72085000D01*
G75*
G02*
X118935000Y-72160000I-75000J0D01*
G01*
X117535000Y-72160000D01*
G75*
G02*
X117460000Y-72085000I0J75000D01*
G01*
G37*
%TD.AperFunction*%
%TO.P,U1,34*%
%TO.N,/SPI2_SCK*%
%TA.AperFunction,SMDPad,CuDef*%
G36*
G01*
X117460000Y-72585000D02*
X117460000Y-72435000D01*
G75*
G02*
X117535000Y-72360000I75000J0D01*
G01*
X118935000Y-72360000D01*
G75*
G02*
X119010000Y-72435000I0J-75000D01*
G01*
X119010000Y-72585000D01*
G75*
G02*
X118935000Y-72660000I-75000J0D01*
G01*
X117535000Y-72660000D01*
G75*
G02*
X117460000Y-72585000I0J75000D01*
G01*
G37*
%TD.AperFunction*%
%TO.P,U1,33*%
%TO.N,Net-(U1-Pad33)*%
%TA.AperFunction,SMDPad,CuDef*%
G36*
G01*
X117460000Y-73085000D02*
X117460000Y-72935000D01*
G75*
G02*
X117535000Y-72860000I75000J0D01*
G01*
X118935000Y-72860000D01*
G75*
G02*
X119010000Y-72935000I0J-75000D01*
G01*
X119010000Y-73085000D01*
G75*
G02*
X118935000Y-73160000I-75000J0D01*
G01*
X117535000Y-73160000D01*
G75*
G02*
X117460000Y-73085000I0J75000D01*
G01*
G37*
%TD.AperFunction*%
%TO.P,U1,32*%
%TO.N,/STM32SUPPLY*%
%TA.AperFunction,SMDPad,CuDef*%
G36*
G01*
X116160000Y-75635000D02*
X116160000Y-74235000D01*
G75*
G02*
X116235000Y-74160000I75000J0D01*
G01*
X116385000Y-74160000D01*
G75*
G02*
X116460000Y-74235000I0J-75000D01*
G01*
X116460000Y-75635000D01*
G75*
G02*
X116385000Y-75710000I-75000J0D01*
G01*
X116235000Y-75710000D01*
G75*
G02*
X116160000Y-75635000I0J75000D01*
G01*
G37*
%TD.AperFunction*%
%TO.P,U1,31*%
%TO.N,GND*%
%TA.AperFunction,SMDPad,CuDef*%
G36*
G01*
X115660000Y-75635000D02*
X115660000Y-74235000D01*
G75*
G02*
X115735000Y-74160000I75000J0D01*
G01*
X115885000Y-74160000D01*
G75*
G02*
X115960000Y-74235000I0J-75000D01*
G01*
X115960000Y-75635000D01*
G75*
G02*
X115885000Y-75710000I-75000J0D01*
G01*
X115735000Y-75710000D01*
G75*
G02*
X115660000Y-75635000I0J75000D01*
G01*
G37*
%TD.AperFunction*%
%TO.P,U1,30*%
%TO.N,Net-(U1-Pad30)*%
%TA.AperFunction,SMDPad,CuDef*%
G36*
G01*
X115160000Y-75635000D02*
X115160000Y-74235000D01*
G75*
G02*
X115235000Y-74160000I75000J0D01*
G01*
X115385000Y-74160000D01*
G75*
G02*
X115460000Y-74235000I0J-75000D01*
G01*
X115460000Y-75635000D01*
G75*
G02*
X115385000Y-75710000I-75000J0D01*
G01*
X115235000Y-75710000D01*
G75*
G02*
X115160000Y-75635000I0J75000D01*
G01*
G37*
%TD.AperFunction*%
%TO.P,U1,29*%
%TO.N,Net-(U1-Pad29)*%
%TA.AperFunction,SMDPad,CuDef*%
G36*
G01*
X114660000Y-75635000D02*
X114660000Y-74235000D01*
G75*
G02*
X114735000Y-74160000I75000J0D01*
G01*
X114885000Y-74160000D01*
G75*
G02*
X114960000Y-74235000I0J-75000D01*
G01*
X114960000Y-75635000D01*
G75*
G02*
X114885000Y-75710000I-75000J0D01*
G01*
X114735000Y-75710000D01*
G75*
G02*
X114660000Y-75635000I0J75000D01*
G01*
G37*
%TD.AperFunction*%
%TO.P,U1,28*%
%TO.N,Net-(U1-Pad28)*%
%TA.AperFunction,SMDPad,CuDef*%
G36*
G01*
X114160000Y-75635000D02*
X114160000Y-74235000D01*
G75*
G02*
X114235000Y-74160000I75000J0D01*
G01*
X114385000Y-74160000D01*
G75*
G02*
X114460000Y-74235000I0J-75000D01*
G01*
X114460000Y-75635000D01*
G75*
G02*
X114385000Y-75710000I-75000J0D01*
G01*
X114235000Y-75710000D01*
G75*
G02*
X114160000Y-75635000I0J75000D01*
G01*
G37*
%TD.AperFunction*%
%TO.P,U1,27*%
%TO.N,Net-(U1-Pad27)*%
%TA.AperFunction,SMDPad,CuDef*%
G36*
G01*
X113660000Y-75635000D02*
X113660000Y-74235000D01*
G75*
G02*
X113735000Y-74160000I75000J0D01*
G01*
X113885000Y-74160000D01*
G75*
G02*
X113960000Y-74235000I0J-75000D01*
G01*
X113960000Y-75635000D01*
G75*
G02*
X113885000Y-75710000I-75000J0D01*
G01*
X113735000Y-75710000D01*
G75*
G02*
X113660000Y-75635000I0J75000D01*
G01*
G37*
%TD.AperFunction*%
%TO.P,U1,26*%
%TO.N,Net-(U1-Pad26)*%
%TA.AperFunction,SMDPad,CuDef*%
G36*
G01*
X113160000Y-75635000D02*
X113160000Y-74235000D01*
G75*
G02*
X113235000Y-74160000I75000J0D01*
G01*
X113385000Y-74160000D01*
G75*
G02*
X113460000Y-74235000I0J-75000D01*
G01*
X113460000Y-75635000D01*
G75*
G02*
X113385000Y-75710000I-75000J0D01*
G01*
X113235000Y-75710000D01*
G75*
G02*
X113160000Y-75635000I0J75000D01*
G01*
G37*
%TD.AperFunction*%
%TO.P,U1,25*%
%TO.N,/LoRaIRQ*%
%TA.AperFunction,SMDPad,CuDef*%
G36*
G01*
X112660000Y-75635000D02*
X112660000Y-74235000D01*
G75*
G02*
X112735000Y-74160000I75000J0D01*
G01*
X112885000Y-74160000D01*
G75*
G02*
X112960000Y-74235000I0J-75000D01*
G01*
X112960000Y-75635000D01*
G75*
G02*
X112885000Y-75710000I-75000J0D01*
G01*
X112735000Y-75710000D01*
G75*
G02*
X112660000Y-75635000I0J75000D01*
G01*
G37*
%TD.AperFunction*%
%TO.P,U1,24*%
%TO.N,/LoRaEN*%
%TA.AperFunction,SMDPad,CuDef*%
G36*
G01*
X112160000Y-75635000D02*
X112160000Y-74235000D01*
G75*
G02*
X112235000Y-74160000I75000J0D01*
G01*
X112385000Y-74160000D01*
G75*
G02*
X112460000Y-74235000I0J-75000D01*
G01*
X112460000Y-75635000D01*
G75*
G02*
X112385000Y-75710000I-75000J0D01*
G01*
X112235000Y-75710000D01*
G75*
G02*
X112160000Y-75635000I0J75000D01*
G01*
G37*
%TD.AperFunction*%
%TO.P,U1,23*%
%TO.N,/SPI1_MOSI*%
%TA.AperFunction,SMDPad,CuDef*%
G36*
G01*
X111660000Y-75635000D02*
X111660000Y-74235000D01*
G75*
G02*
X111735000Y-74160000I75000J0D01*
G01*
X111885000Y-74160000D01*
G75*
G02*
X111960000Y-74235000I0J-75000D01*
G01*
X111960000Y-75635000D01*
G75*
G02*
X111885000Y-75710000I-75000J0D01*
G01*
X111735000Y-75710000D01*
G75*
G02*
X111660000Y-75635000I0J75000D01*
G01*
G37*
%TD.AperFunction*%
%TO.P,U1,22*%
%TO.N,/SPI1_MISO*%
%TA.AperFunction,SMDPad,CuDef*%
G36*
G01*
X111160000Y-75635000D02*
X111160000Y-74235000D01*
G75*
G02*
X111235000Y-74160000I75000J0D01*
G01*
X111385000Y-74160000D01*
G75*
G02*
X111460000Y-74235000I0J-75000D01*
G01*
X111460000Y-75635000D01*
G75*
G02*
X111385000Y-75710000I-75000J0D01*
G01*
X111235000Y-75710000D01*
G75*
G02*
X111160000Y-75635000I0J75000D01*
G01*
G37*
%TD.AperFunction*%
%TO.P,U1,21*%
%TO.N,/SPI1_SCK*%
%TA.AperFunction,SMDPad,CuDef*%
G36*
G01*
X110660000Y-75635000D02*
X110660000Y-74235000D01*
G75*
G02*
X110735000Y-74160000I75000J0D01*
G01*
X110885000Y-74160000D01*
G75*
G02*
X110960000Y-74235000I0J-75000D01*
G01*
X110960000Y-75635000D01*
G75*
G02*
X110885000Y-75710000I-75000J0D01*
G01*
X110735000Y-75710000D01*
G75*
G02*
X110660000Y-75635000I0J75000D01*
G01*
G37*
%TD.AperFunction*%
%TO.P,U1,20*%
%TO.N,Net-(U1-Pad20)*%
%TA.AperFunction,SMDPad,CuDef*%
G36*
G01*
X110160000Y-75635000D02*
X110160000Y-74235000D01*
G75*
G02*
X110235000Y-74160000I75000J0D01*
G01*
X110385000Y-74160000D01*
G75*
G02*
X110460000Y-74235000I0J-75000D01*
G01*
X110460000Y-75635000D01*
G75*
G02*
X110385000Y-75710000I-75000J0D01*
G01*
X110235000Y-75710000D01*
G75*
G02*
X110160000Y-75635000I0J75000D01*
G01*
G37*
%TD.AperFunction*%
%TO.P,U1,19*%
%TO.N,/STM32SUPPLY*%
%TA.AperFunction,SMDPad,CuDef*%
G36*
G01*
X109660000Y-75635000D02*
X109660000Y-74235000D01*
G75*
G02*
X109735000Y-74160000I75000J0D01*
G01*
X109885000Y-74160000D01*
G75*
G02*
X109960000Y-74235000I0J-75000D01*
G01*
X109960000Y-75635000D01*
G75*
G02*
X109885000Y-75710000I-75000J0D01*
G01*
X109735000Y-75710000D01*
G75*
G02*
X109660000Y-75635000I0J75000D01*
G01*
G37*
%TD.AperFunction*%
%TO.P,U1,18*%
%TO.N,GND*%
%TA.AperFunction,SMDPad,CuDef*%
G36*
G01*
X109160000Y-75635000D02*
X109160000Y-74235000D01*
G75*
G02*
X109235000Y-74160000I75000J0D01*
G01*
X109385000Y-74160000D01*
G75*
G02*
X109460000Y-74235000I0J-75000D01*
G01*
X109460000Y-75635000D01*
G75*
G02*
X109385000Y-75710000I-75000J0D01*
G01*
X109235000Y-75710000D01*
G75*
G02*
X109160000Y-75635000I0J75000D01*
G01*
G37*
%TD.AperFunction*%
%TO.P,U1,17*%
%TO.N,/USART_RX*%
%TA.AperFunction,SMDPad,CuDef*%
G36*
G01*
X108660000Y-75635000D02*
X108660000Y-74235000D01*
G75*
G02*
X108735000Y-74160000I75000J0D01*
G01*
X108885000Y-74160000D01*
G75*
G02*
X108960000Y-74235000I0J-75000D01*
G01*
X108960000Y-75635000D01*
G75*
G02*
X108885000Y-75710000I-75000J0D01*
G01*
X108735000Y-75710000D01*
G75*
G02*
X108660000Y-75635000I0J75000D01*
G01*
G37*
%TD.AperFunction*%
%TO.P,U1,16*%
%TO.N,/USART_TX*%
%TA.AperFunction,SMDPad,CuDef*%
G36*
G01*
X106110000Y-73085000D02*
X106110000Y-72935000D01*
G75*
G02*
X106185000Y-72860000I75000J0D01*
G01*
X107585000Y-72860000D01*
G75*
G02*
X107660000Y-72935000I0J-75000D01*
G01*
X107660000Y-73085000D01*
G75*
G02*
X107585000Y-73160000I-75000J0D01*
G01*
X106185000Y-73160000D01*
G75*
G02*
X106110000Y-73085000I0J75000D01*
G01*
G37*
%TD.AperFunction*%
%TO.P,U1,15*%
%TO.N,Net-(U1-Pad15)*%
%TA.AperFunction,SMDPad,CuDef*%
G36*
G01*
X106110000Y-72585000D02*
X106110000Y-72435000D01*
G75*
G02*
X106185000Y-72360000I75000J0D01*
G01*
X107585000Y-72360000D01*
G75*
G02*
X107660000Y-72435000I0J-75000D01*
G01*
X107660000Y-72585000D01*
G75*
G02*
X107585000Y-72660000I-75000J0D01*
G01*
X106185000Y-72660000D01*
G75*
G02*
X106110000Y-72585000I0J75000D01*
G01*
G37*
%TD.AperFunction*%
%TO.P,U1,14*%
%TO.N,Net-(U1-Pad14)*%
%TA.AperFunction,SMDPad,CuDef*%
G36*
G01*
X106110000Y-72085000D02*
X106110000Y-71935000D01*
G75*
G02*
X106185000Y-71860000I75000J0D01*
G01*
X107585000Y-71860000D01*
G75*
G02*
X107660000Y-71935000I0J-75000D01*
G01*
X107660000Y-72085000D01*
G75*
G02*
X107585000Y-72160000I-75000J0D01*
G01*
X106185000Y-72160000D01*
G75*
G02*
X106110000Y-72085000I0J75000D01*
G01*
G37*
%TD.AperFunction*%
%TO.P,U1,13*%
%TO.N,/STM32SUPPLY*%
%TA.AperFunction,SMDPad,CuDef*%
G36*
G01*
X106110000Y-71585000D02*
X106110000Y-71435000D01*
G75*
G02*
X106185000Y-71360000I75000J0D01*
G01*
X107585000Y-71360000D01*
G75*
G02*
X107660000Y-71435000I0J-75000D01*
G01*
X107660000Y-71585000D01*
G75*
G02*
X107585000Y-71660000I-75000J0D01*
G01*
X106185000Y-71660000D01*
G75*
G02*
X106110000Y-71585000I0J75000D01*
G01*
G37*
%TD.AperFunction*%
%TO.P,U1,12*%
%TO.N,GND*%
%TA.AperFunction,SMDPad,CuDef*%
G36*
G01*
X106110000Y-71085000D02*
X106110000Y-70935000D01*
G75*
G02*
X106185000Y-70860000I75000J0D01*
G01*
X107585000Y-70860000D01*
G75*
G02*
X107660000Y-70935000I0J-75000D01*
G01*
X107660000Y-71085000D01*
G75*
G02*
X107585000Y-71160000I-75000J0D01*
G01*
X106185000Y-71160000D01*
G75*
G02*
X106110000Y-71085000I0J75000D01*
G01*
G37*
%TD.AperFunction*%
%TO.P,U1,11*%
%TO.N,/SPI2_MOSI*%
%TA.AperFunction,SMDPad,CuDef*%
G36*
G01*
X106110000Y-70585000D02*
X106110000Y-70435000D01*
G75*
G02*
X106185000Y-70360000I75000J0D01*
G01*
X107585000Y-70360000D01*
G75*
G02*
X107660000Y-70435000I0J-75000D01*
G01*
X107660000Y-70585000D01*
G75*
G02*
X107585000Y-70660000I-75000J0D01*
G01*
X106185000Y-70660000D01*
G75*
G02*
X106110000Y-70585000I0J75000D01*
G01*
G37*
%TD.AperFunction*%
%TO.P,U1,10*%
%TO.N,/SPI2_MISO*%
%TA.AperFunction,SMDPad,CuDef*%
G36*
G01*
X106110000Y-70085000D02*
X106110000Y-69935000D01*
G75*
G02*
X106185000Y-69860000I75000J0D01*
G01*
X107585000Y-69860000D01*
G75*
G02*
X107660000Y-69935000I0J-75000D01*
G01*
X107660000Y-70085000D01*
G75*
G02*
X107585000Y-70160000I-75000J0D01*
G01*
X106185000Y-70160000D01*
G75*
G02*
X106110000Y-70085000I0J75000D01*
G01*
G37*
%TD.AperFunction*%
%TO.P,U1,9*%
%TO.N,Net-(U1-Pad9)*%
%TA.AperFunction,SMDPad,CuDef*%
G36*
G01*
X106110000Y-69585000D02*
X106110000Y-69435000D01*
G75*
G02*
X106185000Y-69360000I75000J0D01*
G01*
X107585000Y-69360000D01*
G75*
G02*
X107660000Y-69435000I0J-75000D01*
G01*
X107660000Y-69585000D01*
G75*
G02*
X107585000Y-69660000I-75000J0D01*
G01*
X106185000Y-69660000D01*
G75*
G02*
X106110000Y-69585000I0J75000D01*
G01*
G37*
%TD.AperFunction*%
%TO.P,U1,8*%
%TO.N,Net-(U1-Pad8)*%
%TA.AperFunction,SMDPad,CuDef*%
G36*
G01*
X106110000Y-69085000D02*
X106110000Y-68935000D01*
G75*
G02*
X106185000Y-68860000I75000J0D01*
G01*
X107585000Y-68860000D01*
G75*
G02*
X107660000Y-68935000I0J-75000D01*
G01*
X107660000Y-69085000D01*
G75*
G02*
X107585000Y-69160000I-75000J0D01*
G01*
X106185000Y-69160000D01*
G75*
G02*
X106110000Y-69085000I0J75000D01*
G01*
G37*
%TD.AperFunction*%
%TO.P,U1,7*%
%TO.N,Net-(C12-Pad1)*%
%TA.AperFunction,SMDPad,CuDef*%
G36*
G01*
X106110000Y-68585000D02*
X106110000Y-68435000D01*
G75*
G02*
X106185000Y-68360000I75000J0D01*
G01*
X107585000Y-68360000D01*
G75*
G02*
X107660000Y-68435000I0J-75000D01*
G01*
X107660000Y-68585000D01*
G75*
G02*
X107585000Y-68660000I-75000J0D01*
G01*
X106185000Y-68660000D01*
G75*
G02*
X106110000Y-68585000I0J75000D01*
G01*
G37*
%TD.AperFunction*%
%TO.P,U1,6*%
%TO.N,Net-(C11-Pad1)*%
%TA.AperFunction,SMDPad,CuDef*%
G36*
G01*
X106110000Y-68085000D02*
X106110000Y-67935000D01*
G75*
G02*
X106185000Y-67860000I75000J0D01*
G01*
X107585000Y-67860000D01*
G75*
G02*
X107660000Y-67935000I0J-75000D01*
G01*
X107660000Y-68085000D01*
G75*
G02*
X107585000Y-68160000I-75000J0D01*
G01*
X106185000Y-68160000D01*
G75*
G02*
X106110000Y-68085000I0J75000D01*
G01*
G37*
%TD.AperFunction*%
%TO.P,U1,5*%
%TO.N,Net-(C10-Pad1)*%
%TA.AperFunction,SMDPad,CuDef*%
G36*
G01*
X106110000Y-67585000D02*
X106110000Y-67435000D01*
G75*
G02*
X106185000Y-67360000I75000J0D01*
G01*
X107585000Y-67360000D01*
G75*
G02*
X107660000Y-67435000I0J-75000D01*
G01*
X107660000Y-67585000D01*
G75*
G02*
X107585000Y-67660000I-75000J0D01*
G01*
X106185000Y-67660000D01*
G75*
G02*
X106110000Y-67585000I0J75000D01*
G01*
G37*
%TD.AperFunction*%
%TO.P,U1,4*%
%TO.N,Net-(U1-Pad4)*%
%TA.AperFunction,SMDPad,CuDef*%
G36*
G01*
X106110000Y-67085000D02*
X106110000Y-66935000D01*
G75*
G02*
X106185000Y-66860000I75000J0D01*
G01*
X107585000Y-66860000D01*
G75*
G02*
X107660000Y-66935000I0J-75000D01*
G01*
X107660000Y-67085000D01*
G75*
G02*
X107585000Y-67160000I-75000J0D01*
G01*
X106185000Y-67160000D01*
G75*
G02*
X106110000Y-67085000I0J75000D01*
G01*
G37*
%TD.AperFunction*%
%TO.P,U1,3*%
%TO.N,Net-(U1-Pad3)*%
%TA.AperFunction,SMDPad,CuDef*%
G36*
G01*
X106110000Y-66585000D02*
X106110000Y-66435000D01*
G75*
G02*
X106185000Y-66360000I75000J0D01*
G01*
X107585000Y-66360000D01*
G75*
G02*
X107660000Y-66435000I0J-75000D01*
G01*
X107660000Y-66585000D01*
G75*
G02*
X107585000Y-66660000I-75000J0D01*
G01*
X106185000Y-66660000D01*
G75*
G02*
X106110000Y-66585000I0J75000D01*
G01*
G37*
%TD.AperFunction*%
%TO.P,U1,2*%
%TO.N,Net-(U1-Pad2)*%
%TA.AperFunction,SMDPad,CuDef*%
G36*
G01*
X106110000Y-66085000D02*
X106110000Y-65935000D01*
G75*
G02*
X106185000Y-65860000I75000J0D01*
G01*
X107585000Y-65860000D01*
G75*
G02*
X107660000Y-65935000I0J-75000D01*
G01*
X107660000Y-66085000D01*
G75*
G02*
X107585000Y-66160000I-75000J0D01*
G01*
X106185000Y-66160000D01*
G75*
G02*
X106110000Y-66085000I0J75000D01*
G01*
G37*
%TD.AperFunction*%
%TO.P,U1,1*%
%TO.N,Net-(U1-Pad1)*%
%TA.AperFunction,SMDPad,CuDef*%
G36*
G01*
X106110000Y-65585000D02*
X106110000Y-65435000D01*
G75*
G02*
X106185000Y-65360000I75000J0D01*
G01*
X107585000Y-65360000D01*
G75*
G02*
X107660000Y-65435000I0J-75000D01*
G01*
X107660000Y-65585000D01*
G75*
G02*
X107585000Y-65660000I-75000J0D01*
G01*
X106185000Y-65660000D01*
G75*
G02*
X106110000Y-65585000I0J75000D01*
G01*
G37*
%TD.AperFunction*%
%TD*%
%TO.P,R20,2*%
%TO.N,Net-(D3-Pad2)*%
%TA.AperFunction,SMDPad,CuDef*%
G36*
G01*
X119800000Y-39249999D02*
X119800000Y-40150001D01*
G75*
G02*
X119550001Y-40400000I-249999J0D01*
G01*
X118849999Y-40400000D01*
G75*
G02*
X118600000Y-40150001I0J249999D01*
G01*
X118600000Y-39249999D01*
G75*
G02*
X118849999Y-39000000I249999J0D01*
G01*
X119550001Y-39000000D01*
G75*
G02*
X119800000Y-39249999I0J-249999D01*
G01*
G37*
%TD.AperFunction*%
%TO.P,R20,1*%
%TO.N,/CHG_LED*%
%TA.AperFunction,SMDPad,CuDef*%
G36*
G01*
X121800000Y-39249999D02*
X121800000Y-40150001D01*
G75*
G02*
X121550001Y-40400000I-249999J0D01*
G01*
X120849999Y-40400000D01*
G75*
G02*
X120600000Y-40150001I0J249999D01*
G01*
X120600000Y-39249999D01*
G75*
G02*
X120849999Y-39000000I249999J0D01*
G01*
X121550001Y-39000000D01*
G75*
G02*
X121800000Y-39249999I0J-249999D01*
G01*
G37*
%TD.AperFunction*%
%TD*%
%TO.P,R19,2*%
%TO.N,GND*%
%TA.AperFunction,SMDPad,CuDef*%
G36*
G01*
X147959999Y-33120000D02*
X148860001Y-33120000D01*
G75*
G02*
X149110000Y-33369999I0J-249999D01*
G01*
X149110000Y-34070001D01*
G75*
G02*
X148860001Y-34320000I-249999J0D01*
G01*
X147959999Y-34320000D01*
G75*
G02*
X147710000Y-34070001I0J249999D01*
G01*
X147710000Y-33369999D01*
G75*
G02*
X147959999Y-33120000I249999J0D01*
G01*
G37*
%TD.AperFunction*%
%TO.P,R19,1*%
%TO.N,/VRECT*%
%TA.AperFunction,SMDPad,CuDef*%
G36*
G01*
X147959999Y-31120000D02*
X148860001Y-31120000D01*
G75*
G02*
X149110000Y-31369999I0J-249999D01*
G01*
X149110000Y-32070001D01*
G75*
G02*
X148860001Y-32320000I-249999J0D01*
G01*
X147959999Y-32320000D01*
G75*
G02*
X147710000Y-32070001I0J249999D01*
G01*
X147710000Y-31369999D01*
G75*
G02*
X147959999Y-31120000I249999J0D01*
G01*
G37*
%TD.AperFunction*%
%TD*%
%TO.P,R18,2*%
%TO.N,GND*%
%TA.AperFunction,SMDPad,CuDef*%
G36*
G01*
X114800001Y-43650000D02*
X113899999Y-43650000D01*
G75*
G02*
X113650000Y-43400001I0J249999D01*
G01*
X113650000Y-42699999D01*
G75*
G02*
X113899999Y-42450000I249999J0D01*
G01*
X114800001Y-42450000D01*
G75*
G02*
X115050000Y-42699999I0J-249999D01*
G01*
X115050000Y-43400001D01*
G75*
G02*
X114800001Y-43650000I-249999J0D01*
G01*
G37*
%TD.AperFunction*%
%TO.P,R18,1*%
%TO.N,Net-(R18-Pad1)*%
%TA.AperFunction,SMDPad,CuDef*%
G36*
G01*
X114800001Y-45650000D02*
X113899999Y-45650000D01*
G75*
G02*
X113650000Y-45400001I0J249999D01*
G01*
X113650000Y-44699999D01*
G75*
G02*
X113899999Y-44450000I249999J0D01*
G01*
X114800001Y-44450000D01*
G75*
G02*
X115050000Y-44699999I0J-249999D01*
G01*
X115050000Y-45400001D01*
G75*
G02*
X114800001Y-45650000I-249999J0D01*
G01*
G37*
%TD.AperFunction*%
%TD*%
%TO.P,R17,2*%
%TO.N,GND*%
%TA.AperFunction,SMDPad,CuDef*%
G36*
G01*
X119949999Y-44450000D02*
X120850001Y-44450000D01*
G75*
G02*
X121100000Y-44699999I0J-249999D01*
G01*
X121100000Y-45400001D01*
G75*
G02*
X120850001Y-45650000I-249999J0D01*
G01*
X119949999Y-45650000D01*
G75*
G02*
X119700000Y-45400001I0J249999D01*
G01*
X119700000Y-44699999D01*
G75*
G02*
X119949999Y-44450000I249999J0D01*
G01*
G37*
%TD.AperFunction*%
%TO.P,R17,1*%
%TO.N,Net-(R16-Pad2)*%
%TA.AperFunction,SMDPad,CuDef*%
G36*
G01*
X119949999Y-42450000D02*
X120850001Y-42450000D01*
G75*
G02*
X121100000Y-42699999I0J-249999D01*
G01*
X121100000Y-43400001D01*
G75*
G02*
X120850001Y-43650000I-249999J0D01*
G01*
X119949999Y-43650000D01*
G75*
G02*
X119700000Y-43400001I0J249999D01*
G01*
X119700000Y-42699999D01*
G75*
G02*
X119949999Y-42450000I249999J0D01*
G01*
G37*
%TD.AperFunction*%
%TD*%
%TO.P,R16,2*%
%TO.N,Net-(R16-Pad2)*%
%TA.AperFunction,SMDPad,CuDef*%
G36*
G01*
X118250001Y-43650000D02*
X117349999Y-43650000D01*
G75*
G02*
X117100000Y-43400001I0J249999D01*
G01*
X117100000Y-42699999D01*
G75*
G02*
X117349999Y-42450000I249999J0D01*
G01*
X118250001Y-42450000D01*
G75*
G02*
X118500000Y-42699999I0J-249999D01*
G01*
X118500000Y-43400001D01*
G75*
G02*
X118250001Y-43650000I-249999J0D01*
G01*
G37*
%TD.AperFunction*%
%TO.P,R16,1*%
%TO.N,+5V*%
%TA.AperFunction,SMDPad,CuDef*%
G36*
G01*
X118250001Y-45650000D02*
X117349999Y-45650000D01*
G75*
G02*
X117100000Y-45400001I0J249999D01*
G01*
X117100000Y-44699999D01*
G75*
G02*
X117349999Y-44450000I249999J0D01*
G01*
X118250001Y-44450000D01*
G75*
G02*
X118500000Y-44699999I0J-249999D01*
G01*
X118500000Y-45400001D01*
G75*
G02*
X118250001Y-45650000I-249999J0D01*
G01*
G37*
%TD.AperFunction*%
%TD*%
%TO.P,R15,2*%
%TO.N,+5V*%
%TA.AperFunction,SMDPad,CuDef*%
G36*
G01*
X150850001Y-25370000D02*
X149949999Y-25370000D01*
G75*
G02*
X149700000Y-25120001I0J249999D01*
G01*
X149700000Y-24419999D01*
G75*
G02*
X149949999Y-24170000I249999J0D01*
G01*
X150850001Y-24170000D01*
G75*
G02*
X151100000Y-24419999I0J-249999D01*
G01*
X151100000Y-25120001D01*
G75*
G02*
X150850001Y-25370000I-249999J0D01*
G01*
G37*
%TD.AperFunction*%
%TO.P,R15,1*%
%TO.N,Net-(C29-Pad1)*%
%TA.AperFunction,SMDPad,CuDef*%
G36*
G01*
X150850001Y-27370000D02*
X149949999Y-27370000D01*
G75*
G02*
X149700000Y-27120001I0J249999D01*
G01*
X149700000Y-26419999D01*
G75*
G02*
X149949999Y-26170000I249999J0D01*
G01*
X150850001Y-26170000D01*
G75*
G02*
X151100000Y-26419999I0J-249999D01*
G01*
X151100000Y-27120001D01*
G75*
G02*
X150850001Y-27370000I-249999J0D01*
G01*
G37*
%TD.AperFunction*%
%TD*%
%TO.P,R14,2*%
%TO.N,GND*%
%TA.AperFunction,SMDPad,CuDef*%
G36*
G01*
X125949999Y-45000000D02*
X126850001Y-45000000D01*
G75*
G02*
X127100000Y-45249999I0J-249999D01*
G01*
X127100000Y-45950001D01*
G75*
G02*
X126850001Y-46200000I-249999J0D01*
G01*
X125949999Y-46200000D01*
G75*
G02*
X125700000Y-45950001I0J249999D01*
G01*
X125700000Y-45249999D01*
G75*
G02*
X125949999Y-45000000I249999J0D01*
G01*
G37*
%TD.AperFunction*%
%TO.P,R14,1*%
%TO.N,Net-(C29-Pad1)*%
%TA.AperFunction,SMDPad,CuDef*%
G36*
G01*
X125949999Y-43000000D02*
X126850001Y-43000000D01*
G75*
G02*
X127100000Y-43249999I0J-249999D01*
G01*
X127100000Y-43950001D01*
G75*
G02*
X126850001Y-44200000I-249999J0D01*
G01*
X125949999Y-44200000D01*
G75*
G02*
X125700000Y-43950001I0J249999D01*
G01*
X125700000Y-43249999D01*
G75*
G02*
X125949999Y-43000000I249999J0D01*
G01*
G37*
%TD.AperFunction*%
%TD*%
%TO.P,R13,2*%
%TO.N,Net-(C29-Pad1)*%
%TA.AperFunction,SMDPad,CuDef*%
G36*
G01*
X130850001Y-44200000D02*
X129949999Y-44200000D01*
G75*
G02*
X129700000Y-43950001I0J249999D01*
G01*
X129700000Y-43249999D01*
G75*
G02*
X129949999Y-43000000I249999J0D01*
G01*
X130850001Y-43000000D01*
G75*
G02*
X131100000Y-43249999I0J-249999D01*
G01*
X131100000Y-43950001D01*
G75*
G02*
X130850001Y-44200000I-249999J0D01*
G01*
G37*
%TD.AperFunction*%
%TO.P,R13,1*%
%TO.N,Net-(R13-Pad1)*%
%TA.AperFunction,SMDPad,CuDef*%
G36*
G01*
X130850001Y-46200000D02*
X129949999Y-46200000D01*
G75*
G02*
X129700000Y-45950001I0J249999D01*
G01*
X129700000Y-45249999D01*
G75*
G02*
X129949999Y-45000000I249999J0D01*
G01*
X130850001Y-45000000D01*
G75*
G02*
X131100000Y-45249999I0J-249999D01*
G01*
X131100000Y-45950001D01*
G75*
G02*
X130850001Y-46200000I-249999J0D01*
G01*
G37*
%TD.AperFunction*%
%TD*%
%TO.P,R12,2*%
%TO.N,Net-(C29-Pad1)*%
%TA.AperFunction,SMDPad,CuDef*%
G36*
G01*
X135749999Y-37600000D02*
X136650001Y-37600000D01*
G75*
G02*
X136900000Y-37849999I0J-249999D01*
G01*
X136900000Y-38550001D01*
G75*
G02*
X136650001Y-38800000I-249999J0D01*
G01*
X135749999Y-38800000D01*
G75*
G02*
X135500000Y-38550001I0J249999D01*
G01*
X135500000Y-37849999D01*
G75*
G02*
X135749999Y-37600000I249999J0D01*
G01*
G37*
%TD.AperFunction*%
%TO.P,R12,1*%
%TO.N,/VRECT*%
%TA.AperFunction,SMDPad,CuDef*%
G36*
G01*
X135749999Y-35600000D02*
X136650001Y-35600000D01*
G75*
G02*
X136900000Y-35849999I0J-249999D01*
G01*
X136900000Y-36550001D01*
G75*
G02*
X136650001Y-36800000I-249999J0D01*
G01*
X135749999Y-36800000D01*
G75*
G02*
X135500000Y-36550001I0J249999D01*
G01*
X135500000Y-35849999D01*
G75*
G02*
X135749999Y-35600000I249999J0D01*
G01*
G37*
%TD.AperFunction*%
%TD*%
%TO.P,R11,2*%
%TO.N,Net-(R11-Pad2)*%
%TA.AperFunction,SMDPad,CuDef*%
G36*
G01*
X143550000Y-76750001D02*
X143550000Y-75849999D01*
G75*
G02*
X143799999Y-75600000I249999J0D01*
G01*
X144500001Y-75600000D01*
G75*
G02*
X144750000Y-75849999I0J-249999D01*
G01*
X144750000Y-76750001D01*
G75*
G02*
X144500001Y-77000000I-249999J0D01*
G01*
X143799999Y-77000000D01*
G75*
G02*
X143550000Y-76750001I0J249999D01*
G01*
G37*
%TD.AperFunction*%
%TO.P,R11,1*%
%TO.N,Net-(R11-Pad1)*%
%TA.AperFunction,SMDPad,CuDef*%
G36*
G01*
X141550000Y-76750001D02*
X141550000Y-75849999D01*
G75*
G02*
X141799999Y-75600000I249999J0D01*
G01*
X142500001Y-75600000D01*
G75*
G02*
X142750000Y-75849999I0J-249999D01*
G01*
X142750000Y-76750001D01*
G75*
G02*
X142500001Y-77000000I-249999J0D01*
G01*
X141799999Y-77000000D01*
G75*
G02*
X141550000Y-76750001I0J249999D01*
G01*
G37*
%TD.AperFunction*%
%TD*%
%TO.P,R10,2*%
%TO.N,Net-(R10-Pad2)*%
%TA.AperFunction,SMDPad,CuDef*%
G36*
G01*
X138950000Y-75849999D02*
X138950000Y-76750001D01*
G75*
G02*
X138700001Y-77000000I-249999J0D01*
G01*
X137999999Y-77000000D01*
G75*
G02*
X137750000Y-76750001I0J249999D01*
G01*
X137750000Y-75849999D01*
G75*
G02*
X137999999Y-75600000I249999J0D01*
G01*
X138700001Y-75600000D01*
G75*
G02*
X138950000Y-75849999I0J-249999D01*
G01*
G37*
%TD.AperFunction*%
%TO.P,R10,1*%
%TO.N,Net-(R10-Pad1)*%
%TA.AperFunction,SMDPad,CuDef*%
G36*
G01*
X140950000Y-75849999D02*
X140950000Y-76750001D01*
G75*
G02*
X140700001Y-77000000I-249999J0D01*
G01*
X139999999Y-77000000D01*
G75*
G02*
X139750000Y-76750001I0J249999D01*
G01*
X139750000Y-75849999D01*
G75*
G02*
X139999999Y-75600000I249999J0D01*
G01*
X140700001Y-75600000D01*
G75*
G02*
X140950000Y-75849999I0J-249999D01*
G01*
G37*
%TD.AperFunction*%
%TD*%
%TO.P,R9,2*%
%TO.N,Net-(R9-Pad2)*%
%TA.AperFunction,SMDPad,CuDef*%
G36*
G01*
X148000000Y-62849999D02*
X148000000Y-63750001D01*
G75*
G02*
X147750001Y-64000000I-249999J0D01*
G01*
X147049999Y-64000000D01*
G75*
G02*
X146800000Y-63750001I0J249999D01*
G01*
X146800000Y-62849999D01*
G75*
G02*
X147049999Y-62600000I249999J0D01*
G01*
X147750001Y-62600000D01*
G75*
G02*
X148000000Y-62849999I0J-249999D01*
G01*
G37*
%TD.AperFunction*%
%TO.P,R9,1*%
%TO.N,Net-(R9-Pad1)*%
%TA.AperFunction,SMDPad,CuDef*%
G36*
G01*
X150000000Y-62849999D02*
X150000000Y-63750001D01*
G75*
G02*
X149750001Y-64000000I-249999J0D01*
G01*
X149049999Y-64000000D01*
G75*
G02*
X148800000Y-63750001I0J249999D01*
G01*
X148800000Y-62849999D01*
G75*
G02*
X149049999Y-62600000I249999J0D01*
G01*
X149750001Y-62600000D01*
G75*
G02*
X150000000Y-62849999I0J-249999D01*
G01*
G37*
%TD.AperFunction*%
%TD*%
%TO.P,R8,2*%
%TO.N,Net-(R8-Pad2)*%
%TA.AperFunction,SMDPad,CuDef*%
G36*
G01*
X148000000Y-75149999D02*
X148000000Y-76050001D01*
G75*
G02*
X147750001Y-76300000I-249999J0D01*
G01*
X147049999Y-76300000D01*
G75*
G02*
X146800000Y-76050001I0J249999D01*
G01*
X146800000Y-75149999D01*
G75*
G02*
X147049999Y-74900000I249999J0D01*
G01*
X147750001Y-74900000D01*
G75*
G02*
X148000000Y-75149999I0J-249999D01*
G01*
G37*
%TD.AperFunction*%
%TO.P,R8,1*%
%TO.N,Net-(R8-Pad1)*%
%TA.AperFunction,SMDPad,CuDef*%
G36*
G01*
X150000000Y-75149999D02*
X150000000Y-76050001D01*
G75*
G02*
X149750001Y-76300000I-249999J0D01*
G01*
X149049999Y-76300000D01*
G75*
G02*
X148800000Y-76050001I0J249999D01*
G01*
X148800000Y-75149999D01*
G75*
G02*
X149049999Y-74900000I249999J0D01*
G01*
X149750001Y-74900000D01*
G75*
G02*
X150000000Y-75149999I0J-249999D01*
G01*
G37*
%TD.AperFunction*%
%TD*%
%TO.P,R7,2*%
%TO.N,Net-(R7-Pad2)*%
%TA.AperFunction,SMDPad,CuDef*%
G36*
G01*
X139400000Y-61849999D02*
X139400000Y-62750001D01*
G75*
G02*
X139150001Y-63000000I-249999J0D01*
G01*
X138449999Y-63000000D01*
G75*
G02*
X138200000Y-62750001I0J249999D01*
G01*
X138200000Y-61849999D01*
G75*
G02*
X138449999Y-61600000I249999J0D01*
G01*
X139150001Y-61600000D01*
G75*
G02*
X139400000Y-61849999I0J-249999D01*
G01*
G37*
%TD.AperFunction*%
%TO.P,R7,1*%
%TO.N,Net-(R7-Pad1)*%
%TA.AperFunction,SMDPad,CuDef*%
G36*
G01*
X141400000Y-61849999D02*
X141400000Y-62750001D01*
G75*
G02*
X141150001Y-63000000I-249999J0D01*
G01*
X140449999Y-63000000D01*
G75*
G02*
X140200000Y-62750001I0J249999D01*
G01*
X140200000Y-61849999D01*
G75*
G02*
X140449999Y-61600000I249999J0D01*
G01*
X141150001Y-61600000D01*
G75*
G02*
X141400000Y-61849999I0J-249999D01*
G01*
G37*
%TD.AperFunction*%
%TD*%
%TO.P,R6,2*%
%TO.N,Net-(R6-Pad2)*%
%TA.AperFunction,SMDPad,CuDef*%
G36*
G01*
X144500000Y-62750001D02*
X144500000Y-61849999D01*
G75*
G02*
X144749999Y-61600000I249999J0D01*
G01*
X145450001Y-61600000D01*
G75*
G02*
X145700000Y-61849999I0J-249999D01*
G01*
X145700000Y-62750001D01*
G75*
G02*
X145450001Y-63000000I-249999J0D01*
G01*
X144749999Y-63000000D01*
G75*
G02*
X144500000Y-62750001I0J249999D01*
G01*
G37*
%TD.AperFunction*%
%TO.P,R6,1*%
%TO.N,Net-(R6-Pad1)*%
%TA.AperFunction,SMDPad,CuDef*%
G36*
G01*
X142500000Y-62750001D02*
X142500000Y-61849999D01*
G75*
G02*
X142749999Y-61600000I249999J0D01*
G01*
X143450001Y-61600000D01*
G75*
G02*
X143700000Y-61849999I0J-249999D01*
G01*
X143700000Y-62750001D01*
G75*
G02*
X143450001Y-63000000I-249999J0D01*
G01*
X142749999Y-63000000D01*
G75*
G02*
X142500000Y-62750001I0J249999D01*
G01*
G37*
%TD.AperFunction*%
%TD*%
%TO.P,R5,2*%
%TO.N,GND*%
%TA.AperFunction,SMDPad,CuDef*%
G36*
G01*
X136350001Y-67250000D02*
X135449999Y-67250000D01*
G75*
G02*
X135200000Y-67000001I0J249999D01*
G01*
X135200000Y-66299999D01*
G75*
G02*
X135449999Y-66050000I249999J0D01*
G01*
X136350001Y-66050000D01*
G75*
G02*
X136600000Y-66299999I0J-249999D01*
G01*
X136600000Y-67000001D01*
G75*
G02*
X136350001Y-67250000I-249999J0D01*
G01*
G37*
%TD.AperFunction*%
%TO.P,R5,1*%
%TO.N,Net-(R5-Pad1)*%
%TA.AperFunction,SMDPad,CuDef*%
G36*
G01*
X136350001Y-69250000D02*
X135449999Y-69250000D01*
G75*
G02*
X135200000Y-69000001I0J249999D01*
G01*
X135200000Y-68299999D01*
G75*
G02*
X135449999Y-68050000I249999J0D01*
G01*
X136350001Y-68050000D01*
G75*
G02*
X136600000Y-68299999I0J-249999D01*
G01*
X136600000Y-69000001D01*
G75*
G02*
X136350001Y-69250000I-249999J0D01*
G01*
G37*
%TD.AperFunction*%
%TD*%
%TO.P,R3,2*%
%TO.N,GND*%
%TA.AperFunction,SMDPad,CuDef*%
G36*
G01*
X112250000Y-60900001D02*
X112250000Y-59999999D01*
G75*
G02*
X112499999Y-59750000I249999J0D01*
G01*
X113200001Y-59750000D01*
G75*
G02*
X113450000Y-59999999I0J-249999D01*
G01*
X113450000Y-60900001D01*
G75*
G02*
X113200001Y-61150000I-249999J0D01*
G01*
X112499999Y-61150000D01*
G75*
G02*
X112250000Y-60900001I0J249999D01*
G01*
G37*
%TD.AperFunction*%
%TO.P,R3,1*%
%TO.N,Net-(R3-Pad1)*%
%TA.AperFunction,SMDPad,CuDef*%
G36*
G01*
X110250000Y-60900001D02*
X110250000Y-59999999D01*
G75*
G02*
X110499999Y-59750000I249999J0D01*
G01*
X111200001Y-59750000D01*
G75*
G02*
X111450000Y-59999999I0J-249999D01*
G01*
X111450000Y-60900001D01*
G75*
G02*
X111200001Y-61150000I-249999J0D01*
G01*
X110499999Y-61150000D01*
G75*
G02*
X110250000Y-60900001I0J249999D01*
G01*
G37*
%TD.AperFunction*%
%TD*%
%TO.P,R2,2*%
%TO.N,/USER_LED2*%
%TA.AperFunction,SMDPad,CuDef*%
G36*
G01*
X99320000Y-57690001D02*
X99320000Y-56789999D01*
G75*
G02*
X99569999Y-56540000I249999J0D01*
G01*
X100270001Y-56540000D01*
G75*
G02*
X100520000Y-56789999I0J-249999D01*
G01*
X100520000Y-57690001D01*
G75*
G02*
X100270001Y-57940000I-249999J0D01*
G01*
X99569999Y-57940000D01*
G75*
G02*
X99320000Y-57690001I0J249999D01*
G01*
G37*
%TD.AperFunction*%
%TO.P,R2,1*%
%TO.N,Net-(D2-Pad2)*%
%TA.AperFunction,SMDPad,CuDef*%
G36*
G01*
X97320000Y-57690001D02*
X97320000Y-56789999D01*
G75*
G02*
X97569999Y-56540000I249999J0D01*
G01*
X98270001Y-56540000D01*
G75*
G02*
X98520000Y-56789999I0J-249999D01*
G01*
X98520000Y-57690001D01*
G75*
G02*
X98270001Y-57940000I-249999J0D01*
G01*
X97569999Y-57940000D01*
G75*
G02*
X97320000Y-57690001I0J249999D01*
G01*
G37*
%TD.AperFunction*%
%TD*%
%TO.P,R1,2*%
%TO.N,/USER_LED1*%
%TA.AperFunction,SMDPad,CuDef*%
G36*
G01*
X99320000Y-53970001D02*
X99320000Y-53069999D01*
G75*
G02*
X99569999Y-52820000I249999J0D01*
G01*
X100270001Y-52820000D01*
G75*
G02*
X100520000Y-53069999I0J-249999D01*
G01*
X100520000Y-53970001D01*
G75*
G02*
X100270001Y-54220000I-249999J0D01*
G01*
X99569999Y-54220000D01*
G75*
G02*
X99320000Y-53970001I0J249999D01*
G01*
G37*
%TD.AperFunction*%
%TO.P,R1,1*%
%TO.N,Net-(D1-Pad2)*%
%TA.AperFunction,SMDPad,CuDef*%
G36*
G01*
X97320000Y-53970001D02*
X97320000Y-53069999D01*
G75*
G02*
X97569999Y-52820000I249999J0D01*
G01*
X98270001Y-52820000D01*
G75*
G02*
X98520000Y-53069999I0J-249999D01*
G01*
X98520000Y-53970001D01*
G75*
G02*
X98270001Y-54220000I-249999J0D01*
G01*
X97569999Y-54220000D01*
G75*
G02*
X97320000Y-53970001I0J249999D01*
G01*
G37*
%TD.AperFunction*%
%TD*%
D10*
%TO.P,JP1(LDO/TEST3V3),3*%
%TO.N,/LP2985_Output*%
X121820000Y-49100000D03*
%TO.P,JP1(LDO/TEST3V3),2*%
%TO.N,/STM32SUPPLY*%
X124360000Y-49100000D03*
D11*
%TO.P,JP1(LDO/TEST3V3),1*%
%TO.N,+3V3*%
X126900000Y-49100000D03*
%TD*%
D10*
%TO.P,J7 (TOF),4*%
%TO.N,/I2C1_SDA*%
X105480000Y-82900000D03*
%TO.P,J7 (TOF),3*%
%TO.N,/I2C1_SCL*%
X108020000Y-82900000D03*
%TO.P,J7 (TOF),2*%
%TO.N,GND*%
X110560000Y-82900000D03*
D11*
%TO.P,J7 (TOF),1*%
%TO.N,/STM32SUPPLY*%
X113100000Y-82900000D03*
%TD*%
D10*
%TO.P,J4,6*%
%TO.N,/USART_RX*%
X106500000Y-54100000D03*
%TO.P,J4,5*%
%TO.N,/USART_TX*%
X109040000Y-54100000D03*
%TO.P,J4,4*%
%TO.N,GND*%
X111580000Y-54100000D03*
%TO.P,J4,3*%
%TO.N,/SWD_SWCLK*%
X114120000Y-54100000D03*
%TO.P,J4,2*%
%TO.N,/SWD_SWDIO*%
X116660000Y-54100000D03*
D11*
%TO.P,J4,1*%
%TO.N,/STM32SUPPLY*%
X119200000Y-54100000D03*
%TD*%
D10*
%TO.P,J3,9*%
%TO.N,/STM32SUPPLY*%
X131180000Y-54100000D03*
%TO.P,J3,8*%
%TO.N,GND*%
X133720000Y-54100000D03*
%TO.P,J3,7*%
%TO.N,/LoRaEN*%
X136260000Y-54100000D03*
%TO.P,J3,6*%
%TO.N,/LoRaIRQ*%
X138800000Y-54100000D03*
%TO.P,J3,5*%
%TO.N,/SPI2_SCK*%
X141340000Y-54100000D03*
%TO.P,J3,4*%
%TO.N,/SPI2_MISO*%
X143880000Y-54100000D03*
%TO.P,J3,3*%
%TO.N,/SPI2_MOSI*%
X146420000Y-54100000D03*
%TO.P,J3,2*%
%TO.N,/SPI2_SSN*%
X148960000Y-54100000D03*
D11*
%TO.P,J3,1*%
%TO.N,/LoRaRST*%
X151500000Y-54100000D03*
%TD*%
D25*
%TO.P,J2 (TEST3V3-GND),2*%
%TO.N,+3V3*%
X116900000Y-23500000D03*
%TO.P,J2 (TEST3V3-GND),1*%
%TO.N,GND*%
%TA.AperFunction,ComponentPad*%
G36*
G01*
X120250000Y-22750000D02*
X120250000Y-24250000D01*
G75*
G02*
X120000000Y-24500000I-250000J0D01*
G01*
X118800000Y-24500000D01*
G75*
G02*
X118550000Y-24250000I0J250000D01*
G01*
X118550000Y-22750000D01*
G75*
G02*
X118800000Y-22500000I250000J0D01*
G01*
X120000000Y-22500000D01*
G75*
G02*
X120250000Y-22750000I0J-250000D01*
G01*
G37*
%TD.AperFunction*%
%TD*%
%TO.P,J1,2*%
%TO.N,+BATT*%
X105200000Y-23800000D03*
%TO.P,J1,1*%
%TO.N,GND*%
%TA.AperFunction,ComponentPad*%
G36*
G01*
X108550000Y-23050000D02*
X108550000Y-24550000D01*
G75*
G02*
X108300000Y-24800000I-250000J0D01*
G01*
X107100000Y-24800000D01*
G75*
G02*
X106850000Y-24550000I0J250000D01*
G01*
X106850000Y-23050000D01*
G75*
G02*
X107100000Y-22800000I250000J0D01*
G01*
X108300000Y-22800000D01*
G75*
G02*
X108550000Y-23050000I0J-250000D01*
G01*
G37*
%TD.AperFunction*%
%TD*%
%TO.P,D3,2*%
%TO.N,Net-(D3-Pad2)*%
%TA.AperFunction,SMDPad,CuDef*%
G36*
G01*
X116050000Y-40250001D02*
X116050000Y-39349999D01*
G75*
G02*
X116299999Y-39100000I249999J0D01*
G01*
X116950001Y-39100000D01*
G75*
G02*
X117200000Y-39349999I0J-249999D01*
G01*
X117200000Y-40250001D01*
G75*
G02*
X116950001Y-40500000I-249999J0D01*
G01*
X116299999Y-40500000D01*
G75*
G02*
X116050000Y-40250001I0J249999D01*
G01*
G37*
%TD.AperFunction*%
%TO.P,D3,1*%
%TO.N,GND*%
%TA.AperFunction,SMDPad,CuDef*%
G36*
G01*
X114000000Y-40250001D02*
X114000000Y-39349999D01*
G75*
G02*
X114249999Y-39100000I249999J0D01*
G01*
X114900001Y-39100000D01*
G75*
G02*
X115150000Y-39349999I0J-249999D01*
G01*
X115150000Y-40250001D01*
G75*
G02*
X114900001Y-40500000I-249999J0D01*
G01*
X114249999Y-40500000D01*
G75*
G02*
X114000000Y-40250001I0J249999D01*
G01*
G37*
%TD.AperFunction*%
%TD*%
%TO.P,D2,2*%
%TO.N,Net-(D2-Pad2)*%
%TA.AperFunction,SMDPad,CuDef*%
G36*
G01*
X94020000Y-57690001D02*
X94020000Y-56789999D01*
G75*
G02*
X94269999Y-56540000I249999J0D01*
G01*
X94920001Y-56540000D01*
G75*
G02*
X95170000Y-56789999I0J-249999D01*
G01*
X95170000Y-57690001D01*
G75*
G02*
X94920001Y-57940000I-249999J0D01*
G01*
X94269999Y-57940000D01*
G75*
G02*
X94020000Y-57690001I0J249999D01*
G01*
G37*
%TD.AperFunction*%
%TO.P,D2,1*%
%TO.N,GND*%
%TA.AperFunction,SMDPad,CuDef*%
G36*
G01*
X91970000Y-57690001D02*
X91970000Y-56789999D01*
G75*
G02*
X92219999Y-56540000I249999J0D01*
G01*
X92870001Y-56540000D01*
G75*
G02*
X93120000Y-56789999I0J-249999D01*
G01*
X93120000Y-57690001D01*
G75*
G02*
X92870001Y-57940000I-249999J0D01*
G01*
X92219999Y-57940000D01*
G75*
G02*
X91970000Y-57690001I0J249999D01*
G01*
G37*
%TD.AperFunction*%
%TD*%
%TO.P,D1,2*%
%TO.N,Net-(D1-Pad2)*%
%TA.AperFunction,SMDPad,CuDef*%
G36*
G01*
X94020000Y-53970001D02*
X94020000Y-53069999D01*
G75*
G02*
X94269999Y-52820000I249999J0D01*
G01*
X94920001Y-52820000D01*
G75*
G02*
X95170000Y-53069999I0J-249999D01*
G01*
X95170000Y-53970001D01*
G75*
G02*
X94920001Y-54220000I-249999J0D01*
G01*
X94269999Y-54220000D01*
G75*
G02*
X94020000Y-53970001I0J249999D01*
G01*
G37*
%TD.AperFunction*%
%TO.P,D1,1*%
%TO.N,GND*%
%TA.AperFunction,SMDPad,CuDef*%
G36*
G01*
X91970000Y-53970001D02*
X91970000Y-53069999D01*
G75*
G02*
X92219999Y-52820000I249999J0D01*
G01*
X92870001Y-52820000D01*
G75*
G02*
X93120000Y-53069999I0J-249999D01*
G01*
X93120000Y-53970001D01*
G75*
G02*
X92870001Y-54220000I-249999J0D01*
G01*
X92219999Y-54220000D01*
G75*
G02*
X91970000Y-53970001I0J249999D01*
G01*
G37*
%TD.AperFunction*%
%TD*%
%TO.P,C35,2*%
%TO.N,GND*%
%TA.AperFunction,SMDPad,CuDef*%
G36*
G01*
X146025000Y-26250000D02*
X146975000Y-26250000D01*
G75*
G02*
X147225000Y-26500000I0J-250000D01*
G01*
X147225000Y-27175000D01*
G75*
G02*
X146975000Y-27425000I-250000J0D01*
G01*
X146025000Y-27425000D01*
G75*
G02*
X145775000Y-27175000I0J250000D01*
G01*
X145775000Y-26500000D01*
G75*
G02*
X146025000Y-26250000I250000J0D01*
G01*
G37*
%TD.AperFunction*%
%TO.P,C35,1*%
%TO.N,+5V*%
%TA.AperFunction,SMDPad,CuDef*%
G36*
G01*
X146025000Y-24175000D02*
X146975000Y-24175000D01*
G75*
G02*
X147225000Y-24425000I0J-250000D01*
G01*
X147225000Y-25100000D01*
G75*
G02*
X146975000Y-25350000I-250000J0D01*
G01*
X146025000Y-25350000D01*
G75*
G02*
X145775000Y-25100000I0J250000D01*
G01*
X145775000Y-24425000D01*
G75*
G02*
X146025000Y-24175000I250000J0D01*
G01*
G37*
%TD.AperFunction*%
%TD*%
%TO.P,C34,2*%
%TO.N,GND*%
%TA.AperFunction,SMDPad,CuDef*%
G36*
G01*
X141975000Y-26250000D02*
X142925000Y-26250000D01*
G75*
G02*
X143175000Y-26500000I0J-250000D01*
G01*
X143175000Y-27175000D01*
G75*
G02*
X142925000Y-27425000I-250000J0D01*
G01*
X141975000Y-27425000D01*
G75*
G02*
X141725000Y-27175000I0J250000D01*
G01*
X141725000Y-26500000D01*
G75*
G02*
X141975000Y-26250000I250000J0D01*
G01*
G37*
%TD.AperFunction*%
%TO.P,C34,1*%
%TO.N,+5V*%
%TA.AperFunction,SMDPad,CuDef*%
G36*
G01*
X141975000Y-24175000D02*
X142925000Y-24175000D01*
G75*
G02*
X143175000Y-24425000I0J-250000D01*
G01*
X143175000Y-25100000D01*
G75*
G02*
X142925000Y-25350000I-250000J0D01*
G01*
X141975000Y-25350000D01*
G75*
G02*
X141725000Y-25100000I0J250000D01*
G01*
X141725000Y-24425000D01*
G75*
G02*
X141975000Y-24175000I250000J0D01*
G01*
G37*
%TD.AperFunction*%
%TD*%
%TO.P,C33,2*%
%TO.N,GND*%
%TA.AperFunction,SMDPad,CuDef*%
G36*
G01*
X137675000Y-26250000D02*
X138625000Y-26250000D01*
G75*
G02*
X138875000Y-26500000I0J-250000D01*
G01*
X138875000Y-27175000D01*
G75*
G02*
X138625000Y-27425000I-250000J0D01*
G01*
X137675000Y-27425000D01*
G75*
G02*
X137425000Y-27175000I0J250000D01*
G01*
X137425000Y-26500000D01*
G75*
G02*
X137675000Y-26250000I250000J0D01*
G01*
G37*
%TD.AperFunction*%
%TO.P,C33,1*%
%TO.N,+5V*%
%TA.AperFunction,SMDPad,CuDef*%
G36*
G01*
X137675000Y-24175000D02*
X138625000Y-24175000D01*
G75*
G02*
X138875000Y-24425000I0J-250000D01*
G01*
X138875000Y-25100000D01*
G75*
G02*
X138625000Y-25350000I-250000J0D01*
G01*
X137675000Y-25350000D01*
G75*
G02*
X137425000Y-25100000I0J250000D01*
G01*
X137425000Y-24425000D01*
G75*
G02*
X137675000Y-24175000I250000J0D01*
G01*
G37*
%TD.AperFunction*%
%TD*%
%TO.P,C32,2*%
%TO.N,/VRECT*%
%TA.AperFunction,SMDPad,CuDef*%
G36*
G01*
X144851666Y-32300000D02*
X143901666Y-32300000D01*
G75*
G02*
X143651666Y-32050000I0J250000D01*
G01*
X143651666Y-31375000D01*
G75*
G02*
X143901666Y-31125000I250000J0D01*
G01*
X144851666Y-31125000D01*
G75*
G02*
X145101666Y-31375000I0J-250000D01*
G01*
X145101666Y-32050000D01*
G75*
G02*
X144851666Y-32300000I-250000J0D01*
G01*
G37*
%TD.AperFunction*%
%TO.P,C32,1*%
%TO.N,GND*%
%TA.AperFunction,SMDPad,CuDef*%
G36*
G01*
X144851666Y-34375000D02*
X143901666Y-34375000D01*
G75*
G02*
X143651666Y-34125000I0J250000D01*
G01*
X143651666Y-33450000D01*
G75*
G02*
X143901666Y-33200000I250000J0D01*
G01*
X144851666Y-33200000D01*
G75*
G02*
X145101666Y-33450000I0J-250000D01*
G01*
X145101666Y-34125000D01*
G75*
G02*
X144851666Y-34375000I-250000J0D01*
G01*
G37*
%TD.AperFunction*%
%TD*%
%TO.P,C31,2*%
%TO.N,/VRECT*%
%TA.AperFunction,SMDPad,CuDef*%
G36*
G01*
X140788333Y-32290000D02*
X139838333Y-32290000D01*
G75*
G02*
X139588333Y-32040000I0J250000D01*
G01*
X139588333Y-31365000D01*
G75*
G02*
X139838333Y-31115000I250000J0D01*
G01*
X140788333Y-31115000D01*
G75*
G02*
X141038333Y-31365000I0J-250000D01*
G01*
X141038333Y-32040000D01*
G75*
G02*
X140788333Y-32290000I-250000J0D01*
G01*
G37*
%TD.AperFunction*%
%TO.P,C31,1*%
%TO.N,GND*%
%TA.AperFunction,SMDPad,CuDef*%
G36*
G01*
X140788333Y-34365000D02*
X139838333Y-34365000D01*
G75*
G02*
X139588333Y-34115000I0J250000D01*
G01*
X139588333Y-33440000D01*
G75*
G02*
X139838333Y-33190000I250000J0D01*
G01*
X140788333Y-33190000D01*
G75*
G02*
X141038333Y-33440000I0J-250000D01*
G01*
X141038333Y-34115000D01*
G75*
G02*
X140788333Y-34365000I-250000J0D01*
G01*
G37*
%TD.AperFunction*%
%TD*%
%TO.P,C30,2*%
%TO.N,/VRECT*%
%TA.AperFunction,SMDPad,CuDef*%
G36*
G01*
X136725000Y-32280000D02*
X135775000Y-32280000D01*
G75*
G02*
X135525000Y-32030000I0J250000D01*
G01*
X135525000Y-31355000D01*
G75*
G02*
X135775000Y-31105000I250000J0D01*
G01*
X136725000Y-31105000D01*
G75*
G02*
X136975000Y-31355000I0J-250000D01*
G01*
X136975000Y-32030000D01*
G75*
G02*
X136725000Y-32280000I-250000J0D01*
G01*
G37*
%TD.AperFunction*%
%TO.P,C30,1*%
%TO.N,GND*%
%TA.AperFunction,SMDPad,CuDef*%
G36*
G01*
X136725000Y-34355000D02*
X135775000Y-34355000D01*
G75*
G02*
X135525000Y-34105000I0J250000D01*
G01*
X135525000Y-33430000D01*
G75*
G02*
X135775000Y-33180000I250000J0D01*
G01*
X136725000Y-33180000D01*
G75*
G02*
X136975000Y-33430000I0J-250000D01*
G01*
X136975000Y-34105000D01*
G75*
G02*
X136725000Y-34355000I-250000J0D01*
G01*
G37*
%TD.AperFunction*%
%TD*%
%TO.P,C29,2*%
%TO.N,GND*%
%TA.AperFunction,SMDPad,CuDef*%
G36*
G01*
X132925000Y-45050000D02*
X133875000Y-45050000D01*
G75*
G02*
X134125000Y-45300000I0J-250000D01*
G01*
X134125000Y-45975000D01*
G75*
G02*
X133875000Y-46225000I-250000J0D01*
G01*
X132925000Y-46225000D01*
G75*
G02*
X132675000Y-45975000I0J250000D01*
G01*
X132675000Y-45300000D01*
G75*
G02*
X132925000Y-45050000I250000J0D01*
G01*
G37*
%TD.AperFunction*%
%TO.P,C29,1*%
%TO.N,Net-(C29-Pad1)*%
%TA.AperFunction,SMDPad,CuDef*%
G36*
G01*
X132925000Y-42975000D02*
X133875000Y-42975000D01*
G75*
G02*
X134125000Y-43225000I0J-250000D01*
G01*
X134125000Y-43900000D01*
G75*
G02*
X133875000Y-44150000I-250000J0D01*
G01*
X132925000Y-44150000D01*
G75*
G02*
X132675000Y-43900000I0J250000D01*
G01*
X132675000Y-43225000D01*
G75*
G02*
X132925000Y-42975000I250000J0D01*
G01*
G37*
%TD.AperFunction*%
%TD*%
%TO.P,C28,2*%
%TO.N,Net-(C21-Pad2)*%
%TA.AperFunction,SMDPad,CuDef*%
G36*
G01*
X143620000Y-45125000D02*
X143620000Y-44175000D01*
G75*
G02*
X143870000Y-43925000I250000J0D01*
G01*
X144545000Y-43925000D01*
G75*
G02*
X144795000Y-44175000I0J-250000D01*
G01*
X144795000Y-45125000D01*
G75*
G02*
X144545000Y-45375000I-250000J0D01*
G01*
X143870000Y-45375000D01*
G75*
G02*
X143620000Y-45125000I0J250000D01*
G01*
G37*
%TD.AperFunction*%
%TO.P,C28,1*%
%TO.N,Net-(C28-Pad1)*%
%TA.AperFunction,SMDPad,CuDef*%
G36*
G01*
X141545000Y-45125000D02*
X141545000Y-44175000D01*
G75*
G02*
X141795000Y-43925000I250000J0D01*
G01*
X142470000Y-43925000D01*
G75*
G02*
X142720000Y-44175000I0J-250000D01*
G01*
X142720000Y-45125000D01*
G75*
G02*
X142470000Y-45375000I-250000J0D01*
G01*
X141795000Y-45375000D01*
G75*
G02*
X141545000Y-45125000I0J250000D01*
G01*
G37*
%TD.AperFunction*%
%TD*%
%TO.P,C27,2*%
%TO.N,Net-(C21-Pad2)*%
%TA.AperFunction,SMDPad,CuDef*%
G36*
G01*
X143620000Y-41647000D02*
X143620000Y-40697000D01*
G75*
G02*
X143870000Y-40447000I250000J0D01*
G01*
X144545000Y-40447000D01*
G75*
G02*
X144795000Y-40697000I0J-250000D01*
G01*
X144795000Y-41647000D01*
G75*
G02*
X144545000Y-41897000I-250000J0D01*
G01*
X143870000Y-41897000D01*
G75*
G02*
X143620000Y-41647000I0J250000D01*
G01*
G37*
%TD.AperFunction*%
%TO.P,C27,1*%
%TO.N,Net-(C27-Pad1)*%
%TA.AperFunction,SMDPad,CuDef*%
G36*
G01*
X141545000Y-41647000D02*
X141545000Y-40697000D01*
G75*
G02*
X141795000Y-40447000I250000J0D01*
G01*
X142470000Y-40447000D01*
G75*
G02*
X142720000Y-40697000I0J-250000D01*
G01*
X142720000Y-41647000D01*
G75*
G02*
X142470000Y-41897000I-250000J0D01*
G01*
X141795000Y-41897000D01*
G75*
G02*
X141545000Y-41647000I0J250000D01*
G01*
G37*
%TD.AperFunction*%
%TD*%
%TO.P,C26,2*%
%TO.N,Net-(C21-Pad2)*%
%TA.AperFunction,SMDPad,CuDef*%
G36*
G01*
X143620000Y-38169000D02*
X143620000Y-37219000D01*
G75*
G02*
X143870000Y-36969000I250000J0D01*
G01*
X144545000Y-36969000D01*
G75*
G02*
X144795000Y-37219000I0J-250000D01*
G01*
X144795000Y-38169000D01*
G75*
G02*
X144545000Y-38419000I-250000J0D01*
G01*
X143870000Y-38419000D01*
G75*
G02*
X143620000Y-38169000I0J250000D01*
G01*
G37*
%TD.AperFunction*%
%TO.P,C26,1*%
%TO.N,Net-(C26-Pad1)*%
%TA.AperFunction,SMDPad,CuDef*%
G36*
G01*
X141545000Y-38169000D02*
X141545000Y-37219000D01*
G75*
G02*
X141795000Y-36969000I250000J0D01*
G01*
X142470000Y-36969000D01*
G75*
G02*
X142720000Y-37219000I0J-250000D01*
G01*
X142720000Y-38169000D01*
G75*
G02*
X142470000Y-38419000I-250000J0D01*
G01*
X141795000Y-38419000D01*
G75*
G02*
X141545000Y-38169000I0J250000D01*
G01*
G37*
%TD.AperFunction*%
%TD*%
%TO.P,C25,2*%
%TO.N,Net-(C18-Pad1)*%
%TA.AperFunction,SMDPad,CuDef*%
G36*
G01*
X120180000Y-28259000D02*
X120180000Y-29209000D01*
G75*
G02*
X119930000Y-29459000I-250000J0D01*
G01*
X119255000Y-29459000D01*
G75*
G02*
X119005000Y-29209000I0J250000D01*
G01*
X119005000Y-28259000D01*
G75*
G02*
X119255000Y-28009000I250000J0D01*
G01*
X119930000Y-28009000D01*
G75*
G02*
X120180000Y-28259000I0J-250000D01*
G01*
G37*
%TD.AperFunction*%
%TO.P,C25,1*%
%TO.N,Net-(C25-Pad1)*%
%TA.AperFunction,SMDPad,CuDef*%
G36*
G01*
X122255000Y-28259000D02*
X122255000Y-29209000D01*
G75*
G02*
X122005000Y-29459000I-250000J0D01*
G01*
X121330000Y-29459000D01*
G75*
G02*
X121080000Y-29209000I0J250000D01*
G01*
X121080000Y-28259000D01*
G75*
G02*
X121330000Y-28009000I250000J0D01*
G01*
X122005000Y-28009000D01*
G75*
G02*
X122255000Y-28259000I0J-250000D01*
G01*
G37*
%TD.AperFunction*%
%TD*%
%TO.P,C24,2*%
%TO.N,Net-(C18-Pad1)*%
%TA.AperFunction,SMDPad,CuDef*%
G36*
G01*
X120180000Y-31737000D02*
X120180000Y-32687000D01*
G75*
G02*
X119930000Y-32937000I-250000J0D01*
G01*
X119255000Y-32937000D01*
G75*
G02*
X119005000Y-32687000I0J250000D01*
G01*
X119005000Y-31737000D01*
G75*
G02*
X119255000Y-31487000I250000J0D01*
G01*
X119930000Y-31487000D01*
G75*
G02*
X120180000Y-31737000I0J-250000D01*
G01*
G37*
%TD.AperFunction*%
%TO.P,C24,1*%
%TO.N,Net-(C24-Pad1)*%
%TA.AperFunction,SMDPad,CuDef*%
G36*
G01*
X122255000Y-31737000D02*
X122255000Y-32687000D01*
G75*
G02*
X122005000Y-32937000I-250000J0D01*
G01*
X121330000Y-32937000D01*
G75*
G02*
X121080000Y-32687000I0J250000D01*
G01*
X121080000Y-31737000D01*
G75*
G02*
X121330000Y-31487000I250000J0D01*
G01*
X122005000Y-31487000D01*
G75*
G02*
X122255000Y-31737000I0J-250000D01*
G01*
G37*
%TD.AperFunction*%
%TD*%
%TO.P,C23,2*%
%TO.N,Net-(C18-Pad1)*%
%TA.AperFunction,SMDPad,CuDef*%
G36*
G01*
X120180000Y-35215000D02*
X120180000Y-36165000D01*
G75*
G02*
X119930000Y-36415000I-250000J0D01*
G01*
X119255000Y-36415000D01*
G75*
G02*
X119005000Y-36165000I0J250000D01*
G01*
X119005000Y-35215000D01*
G75*
G02*
X119255000Y-34965000I250000J0D01*
G01*
X119930000Y-34965000D01*
G75*
G02*
X120180000Y-35215000I0J-250000D01*
G01*
G37*
%TD.AperFunction*%
%TO.P,C23,1*%
%TO.N,Net-(C23-Pad1)*%
%TA.AperFunction,SMDPad,CuDef*%
G36*
G01*
X122255000Y-35215000D02*
X122255000Y-36165000D01*
G75*
G02*
X122005000Y-36415000I-250000J0D01*
G01*
X121330000Y-36415000D01*
G75*
G02*
X121080000Y-36165000I0J250000D01*
G01*
X121080000Y-35215000D01*
G75*
G02*
X121330000Y-34965000I250000J0D01*
G01*
X122005000Y-34965000D01*
G75*
G02*
X122255000Y-35215000I0J-250000D01*
G01*
G37*
%TD.AperFunction*%
%TD*%
%TO.P,C22,2*%
%TO.N,Net-(C21-Pad2)*%
%TA.AperFunction,SMDPad,CuDef*%
G36*
G01*
X127125000Y-29950000D02*
X126175000Y-29950000D01*
G75*
G02*
X125925000Y-29700000I0J250000D01*
G01*
X125925000Y-29025000D01*
G75*
G02*
X126175000Y-28775000I250000J0D01*
G01*
X127125000Y-28775000D01*
G75*
G02*
X127375000Y-29025000I0J-250000D01*
G01*
X127375000Y-29700000D01*
G75*
G02*
X127125000Y-29950000I-250000J0D01*
G01*
G37*
%TD.AperFunction*%
%TO.P,C22,1*%
%TO.N,Net-(C18-Pad1)*%
%TA.AperFunction,SMDPad,CuDef*%
G36*
G01*
X127125000Y-32025000D02*
X126175000Y-32025000D01*
G75*
G02*
X125925000Y-31775000I0J250000D01*
G01*
X125925000Y-31100000D01*
G75*
G02*
X126175000Y-30850000I250000J0D01*
G01*
X127125000Y-30850000D01*
G75*
G02*
X127375000Y-31100000I0J-250000D01*
G01*
X127375000Y-31775000D01*
G75*
G02*
X127125000Y-32025000I-250000J0D01*
G01*
G37*
%TD.AperFunction*%
%TD*%
%TO.P,C21,2*%
%TO.N,Net-(C21-Pad2)*%
%TA.AperFunction,SMDPad,CuDef*%
G36*
G01*
X130875000Y-29920000D02*
X129925000Y-29920000D01*
G75*
G02*
X129675000Y-29670000I0J250000D01*
G01*
X129675000Y-28995000D01*
G75*
G02*
X129925000Y-28745000I250000J0D01*
G01*
X130875000Y-28745000D01*
G75*
G02*
X131125000Y-28995000I0J-250000D01*
G01*
X131125000Y-29670000D01*
G75*
G02*
X130875000Y-29920000I-250000J0D01*
G01*
G37*
%TD.AperFunction*%
%TO.P,C21,1*%
%TO.N,Net-(C18-Pad1)*%
%TA.AperFunction,SMDPad,CuDef*%
G36*
G01*
X130875000Y-31995000D02*
X129925000Y-31995000D01*
G75*
G02*
X129675000Y-31745000I0J250000D01*
G01*
X129675000Y-31070000D01*
G75*
G02*
X129925000Y-30820000I250000J0D01*
G01*
X130875000Y-30820000D01*
G75*
G02*
X131125000Y-31070000I0J-250000D01*
G01*
X131125000Y-31745000D01*
G75*
G02*
X130875000Y-31995000I-250000J0D01*
G01*
G37*
%TD.AperFunction*%
%TD*%
%TO.P,C20,2*%
%TO.N,Net-(C18-Pad2)*%
%TA.AperFunction,SMDPad,CuDef*%
G36*
G01*
X115012500Y-28425000D02*
X115012500Y-29375000D01*
G75*
G02*
X114762500Y-29625000I-250000J0D01*
G01*
X114087500Y-29625000D01*
G75*
G02*
X113837500Y-29375000I0J250000D01*
G01*
X113837500Y-28425000D01*
G75*
G02*
X114087500Y-28175000I250000J0D01*
G01*
X114762500Y-28175000D01*
G75*
G02*
X115012500Y-28425000I0J-250000D01*
G01*
G37*
%TD.AperFunction*%
%TO.P,C20,1*%
%TO.N,Net-(C18-Pad1)*%
%TA.AperFunction,SMDPad,CuDef*%
G36*
G01*
X117087500Y-28425000D02*
X117087500Y-29375000D01*
G75*
G02*
X116837500Y-29625000I-250000J0D01*
G01*
X116162500Y-29625000D01*
G75*
G02*
X115912500Y-29375000I0J250000D01*
G01*
X115912500Y-28425000D01*
G75*
G02*
X116162500Y-28175000I250000J0D01*
G01*
X116837500Y-28175000D01*
G75*
G02*
X117087500Y-28425000I0J-250000D01*
G01*
G37*
%TD.AperFunction*%
%TD*%
%TO.P,C19,2*%
%TO.N,Net-(C18-Pad2)*%
%TA.AperFunction,SMDPad,CuDef*%
G36*
G01*
X115012500Y-31925000D02*
X115012500Y-32875000D01*
G75*
G02*
X114762500Y-33125000I-250000J0D01*
G01*
X114087500Y-33125000D01*
G75*
G02*
X113837500Y-32875000I0J250000D01*
G01*
X113837500Y-31925000D01*
G75*
G02*
X114087500Y-31675000I250000J0D01*
G01*
X114762500Y-31675000D01*
G75*
G02*
X115012500Y-31925000I0J-250000D01*
G01*
G37*
%TD.AperFunction*%
%TO.P,C19,1*%
%TO.N,Net-(C18-Pad1)*%
%TA.AperFunction,SMDPad,CuDef*%
G36*
G01*
X117087500Y-31925000D02*
X117087500Y-32875000D01*
G75*
G02*
X116837500Y-33125000I-250000J0D01*
G01*
X116162500Y-33125000D01*
G75*
G02*
X115912500Y-32875000I0J250000D01*
G01*
X115912500Y-31925000D01*
G75*
G02*
X116162500Y-31675000I250000J0D01*
G01*
X116837500Y-31675000D01*
G75*
G02*
X117087500Y-31925000I0J-250000D01*
G01*
G37*
%TD.AperFunction*%
%TD*%
%TO.P,C18,2*%
%TO.N,Net-(C18-Pad2)*%
%TA.AperFunction,SMDPad,CuDef*%
G36*
G01*
X115012500Y-35365000D02*
X115012500Y-36315000D01*
G75*
G02*
X114762500Y-36565000I-250000J0D01*
G01*
X114087500Y-36565000D01*
G75*
G02*
X113837500Y-36315000I0J250000D01*
G01*
X113837500Y-35365000D01*
G75*
G02*
X114087500Y-35115000I250000J0D01*
G01*
X114762500Y-35115000D01*
G75*
G02*
X115012500Y-35365000I0J-250000D01*
G01*
G37*
%TD.AperFunction*%
%TO.P,C18,1*%
%TO.N,Net-(C18-Pad1)*%
%TA.AperFunction,SMDPad,CuDef*%
G36*
G01*
X117087500Y-35365000D02*
X117087500Y-36315000D01*
G75*
G02*
X116837500Y-36565000I-250000J0D01*
G01*
X116162500Y-36565000D01*
G75*
G02*
X115912500Y-36315000I0J250000D01*
G01*
X115912500Y-35365000D01*
G75*
G02*
X116162500Y-35115000I250000J0D01*
G01*
X116837500Y-35115000D01*
G75*
G02*
X117087500Y-35365000I0J-250000D01*
G01*
G37*
%TD.AperFunction*%
%TD*%
%TO.P,C12,2*%
%TO.N,GND*%
%TA.AperFunction,SMDPad,CuDef*%
G36*
G01*
X98340000Y-79515000D02*
X98340000Y-78565000D01*
G75*
G02*
X98590000Y-78315000I250000J0D01*
G01*
X99265000Y-78315000D01*
G75*
G02*
X99515000Y-78565000I0J-250000D01*
G01*
X99515000Y-79515000D01*
G75*
G02*
X99265000Y-79765000I-250000J0D01*
G01*
X98590000Y-79765000D01*
G75*
G02*
X98340000Y-79515000I0J250000D01*
G01*
G37*
%TD.AperFunction*%
%TO.P,C12,1*%
%TO.N,Net-(C12-Pad1)*%
%TA.AperFunction,SMDPad,CuDef*%
G36*
G01*
X96265000Y-79515000D02*
X96265000Y-78565000D01*
G75*
G02*
X96515000Y-78315000I250000J0D01*
G01*
X97190000Y-78315000D01*
G75*
G02*
X97440000Y-78565000I0J-250000D01*
G01*
X97440000Y-79515000D01*
G75*
G02*
X97190000Y-79765000I-250000J0D01*
G01*
X96515000Y-79765000D01*
G75*
G02*
X96265000Y-79515000I0J250000D01*
G01*
G37*
%TD.AperFunction*%
%TD*%
%TO.P,C11,2*%
%TO.N,GND*%
%TA.AperFunction,SMDPad,CuDef*%
G36*
G01*
X91625000Y-70900000D02*
X90675000Y-70900000D01*
G75*
G02*
X90425000Y-70650000I0J250000D01*
G01*
X90425000Y-69975000D01*
G75*
G02*
X90675000Y-69725000I250000J0D01*
G01*
X91625000Y-69725000D01*
G75*
G02*
X91875000Y-69975000I0J-250000D01*
G01*
X91875000Y-70650000D01*
G75*
G02*
X91625000Y-70900000I-250000J0D01*
G01*
G37*
%TD.AperFunction*%
%TO.P,C11,1*%
%TO.N,Net-(C11-Pad1)*%
%TA.AperFunction,SMDPad,CuDef*%
G36*
G01*
X91625000Y-72975000D02*
X90675000Y-72975000D01*
G75*
G02*
X90425000Y-72725000I0J250000D01*
G01*
X90425000Y-72050000D01*
G75*
G02*
X90675000Y-71800000I250000J0D01*
G01*
X91625000Y-71800000D01*
G75*
G02*
X91875000Y-72050000I0J-250000D01*
G01*
X91875000Y-72725000D01*
G75*
G02*
X91625000Y-72975000I-250000J0D01*
G01*
G37*
%TD.AperFunction*%
%TD*%
%TO.P,C10,2*%
%TO.N,GND*%
%TA.AperFunction,SMDPad,CuDef*%
G36*
G01*
X90675000Y-65362500D02*
X91625000Y-65362500D01*
G75*
G02*
X91875000Y-65612500I0J-250000D01*
G01*
X91875000Y-66287500D01*
G75*
G02*
X91625000Y-66537500I-250000J0D01*
G01*
X90675000Y-66537500D01*
G75*
G02*
X90425000Y-66287500I0J250000D01*
G01*
X90425000Y-65612500D01*
G75*
G02*
X90675000Y-65362500I250000J0D01*
G01*
G37*
%TD.AperFunction*%
%TO.P,C10,1*%
%TO.N,Net-(C10-Pad1)*%
%TA.AperFunction,SMDPad,CuDef*%
G36*
G01*
X90675000Y-63287500D02*
X91625000Y-63287500D01*
G75*
G02*
X91875000Y-63537500I0J-250000D01*
G01*
X91875000Y-64212500D01*
G75*
G02*
X91625000Y-64462500I-250000J0D01*
G01*
X90675000Y-64462500D01*
G75*
G02*
X90425000Y-64212500I0J250000D01*
G01*
X90425000Y-63537500D01*
G75*
G02*
X90675000Y-63287500I250000J0D01*
G01*
G37*
%TD.AperFunction*%
%TD*%
%TO.P,C9,2*%
%TO.N,GND*%
%TA.AperFunction,SMDPad,CuDef*%
G36*
G01*
X111550000Y-86025000D02*
X111550000Y-86975000D01*
G75*
G02*
X111300000Y-87225000I-250000J0D01*
G01*
X110625000Y-87225000D01*
G75*
G02*
X110375000Y-86975000I0J250000D01*
G01*
X110375000Y-86025000D01*
G75*
G02*
X110625000Y-85775000I250000J0D01*
G01*
X111300000Y-85775000D01*
G75*
G02*
X111550000Y-86025000I0J-250000D01*
G01*
G37*
%TD.AperFunction*%
%TO.P,C9,1*%
%TO.N,/STM32SUPPLY*%
%TA.AperFunction,SMDPad,CuDef*%
G36*
G01*
X113625000Y-86025000D02*
X113625000Y-86975000D01*
G75*
G02*
X113375000Y-87225000I-250000J0D01*
G01*
X112700000Y-87225000D01*
G75*
G02*
X112450000Y-86975000I0J250000D01*
G01*
X112450000Y-86025000D01*
G75*
G02*
X112700000Y-85775000I250000J0D01*
G01*
X113375000Y-85775000D01*
G75*
G02*
X113625000Y-86025000I0J-250000D01*
G01*
G37*
%TD.AperFunction*%
%TD*%
%TO.P,C8,2*%
%TO.N,GND*%
%TA.AperFunction,SMDPad,CuDef*%
G36*
G01*
X101025000Y-78100000D02*
X101975000Y-78100000D01*
G75*
G02*
X102225000Y-78350000I0J-250000D01*
G01*
X102225000Y-79025000D01*
G75*
G02*
X101975000Y-79275000I-250000J0D01*
G01*
X101025000Y-79275000D01*
G75*
G02*
X100775000Y-79025000I0J250000D01*
G01*
X100775000Y-78350000D01*
G75*
G02*
X101025000Y-78100000I250000J0D01*
G01*
G37*
%TD.AperFunction*%
%TO.P,C8,1*%
%TO.N,/STM32SUPPLY*%
%TA.AperFunction,SMDPad,CuDef*%
G36*
G01*
X101025000Y-76025000D02*
X101975000Y-76025000D01*
G75*
G02*
X102225000Y-76275000I0J-250000D01*
G01*
X102225000Y-76950000D01*
G75*
G02*
X101975000Y-77200000I-250000J0D01*
G01*
X101025000Y-77200000D01*
G75*
G02*
X100775000Y-76950000I0J250000D01*
G01*
X100775000Y-76275000D01*
G75*
G02*
X101025000Y-76025000I250000J0D01*
G01*
G37*
%TD.AperFunction*%
%TD*%
%TO.P,C7,2*%
%TO.N,GND*%
%TA.AperFunction,SMDPad,CuDef*%
G36*
G01*
X106550000Y-60875000D02*
X106550000Y-59925000D01*
G75*
G02*
X106800000Y-59675000I250000J0D01*
G01*
X107475000Y-59675000D01*
G75*
G02*
X107725000Y-59925000I0J-250000D01*
G01*
X107725000Y-60875000D01*
G75*
G02*
X107475000Y-61125000I-250000J0D01*
G01*
X106800000Y-61125000D01*
G75*
G02*
X106550000Y-60875000I0J250000D01*
G01*
G37*
%TD.AperFunction*%
%TO.P,C7,1*%
%TO.N,/STM32SUPPLY*%
%TA.AperFunction,SMDPad,CuDef*%
G36*
G01*
X104475000Y-60875000D02*
X104475000Y-59925000D01*
G75*
G02*
X104725000Y-59675000I250000J0D01*
G01*
X105400000Y-59675000D01*
G75*
G02*
X105650000Y-59925000I0J-250000D01*
G01*
X105650000Y-60875000D01*
G75*
G02*
X105400000Y-61125000I-250000J0D01*
G01*
X104725000Y-61125000D01*
G75*
G02*
X104475000Y-60875000I0J250000D01*
G01*
G37*
%TD.AperFunction*%
%TD*%
%TO.P,C6,2*%
%TO.N,GND*%
%TA.AperFunction,SMDPad,CuDef*%
G36*
G01*
X133700000Y-79425000D02*
X133700000Y-78475000D01*
G75*
G02*
X133950000Y-78225000I250000J0D01*
G01*
X134625000Y-78225000D01*
G75*
G02*
X134875000Y-78475000I0J-250000D01*
G01*
X134875000Y-79425000D01*
G75*
G02*
X134625000Y-79675000I-250000J0D01*
G01*
X133950000Y-79675000D01*
G75*
G02*
X133700000Y-79425000I0J250000D01*
G01*
G37*
%TD.AperFunction*%
%TO.P,C6,1*%
%TO.N,/STM32SUPPLY*%
%TA.AperFunction,SMDPad,CuDef*%
G36*
G01*
X131625000Y-79425000D02*
X131625000Y-78475000D01*
G75*
G02*
X131875000Y-78225000I250000J0D01*
G01*
X132550000Y-78225000D01*
G75*
G02*
X132800000Y-78475000I0J-250000D01*
G01*
X132800000Y-79425000D01*
G75*
G02*
X132550000Y-79675000I-250000J0D01*
G01*
X131875000Y-79675000D01*
G75*
G02*
X131625000Y-79425000I0J250000D01*
G01*
G37*
%TD.AperFunction*%
%TD*%
%TO.P,C5,2*%
%TO.N,GND*%
%TA.AperFunction,SMDPad,CuDef*%
G36*
G01*
X120850000Y-83725000D02*
X120850000Y-82775000D01*
G75*
G02*
X121100000Y-82525000I250000J0D01*
G01*
X121775000Y-82525000D01*
G75*
G02*
X122025000Y-82775000I0J-250000D01*
G01*
X122025000Y-83725000D01*
G75*
G02*
X121775000Y-83975000I-250000J0D01*
G01*
X121100000Y-83975000D01*
G75*
G02*
X120850000Y-83725000I0J250000D01*
G01*
G37*
%TD.AperFunction*%
%TO.P,C5,1*%
%TO.N,/STM32SUPPLY*%
%TA.AperFunction,SMDPad,CuDef*%
G36*
G01*
X118775000Y-83725000D02*
X118775000Y-82775000D01*
G75*
G02*
X119025000Y-82525000I250000J0D01*
G01*
X119700000Y-82525000D01*
G75*
G02*
X119950000Y-82775000I0J-250000D01*
G01*
X119950000Y-83725000D01*
G75*
G02*
X119700000Y-83975000I-250000J0D01*
G01*
X119025000Y-83975000D01*
G75*
G02*
X118775000Y-83725000I0J250000D01*
G01*
G37*
%TD.AperFunction*%
%TD*%
%TO.P,C4,2*%
%TO.N,GND*%
%TA.AperFunction,SMDPad,CuDef*%
G36*
G01*
X133900000Y-75675000D02*
X133900000Y-74725000D01*
G75*
G02*
X134150000Y-74475000I250000J0D01*
G01*
X134825000Y-74475000D01*
G75*
G02*
X135075000Y-74725000I0J-250000D01*
G01*
X135075000Y-75675000D01*
G75*
G02*
X134825000Y-75925000I-250000J0D01*
G01*
X134150000Y-75925000D01*
G75*
G02*
X133900000Y-75675000I0J250000D01*
G01*
G37*
%TD.AperFunction*%
%TO.P,C4,1*%
%TO.N,/STM32SUPPLY*%
%TA.AperFunction,SMDPad,CuDef*%
G36*
G01*
X131825000Y-75675000D02*
X131825000Y-74725000D01*
G75*
G02*
X132075000Y-74475000I250000J0D01*
G01*
X132750000Y-74475000D01*
G75*
G02*
X133000000Y-74725000I0J-250000D01*
G01*
X133000000Y-75675000D01*
G75*
G02*
X132750000Y-75925000I-250000J0D01*
G01*
X132075000Y-75925000D01*
G75*
G02*
X131825000Y-75675000I0J250000D01*
G01*
G37*
%TD.AperFunction*%
%TD*%
%TO.P,C3,2*%
%TO.N,GND*%
%TA.AperFunction,SMDPad,CuDef*%
G36*
G01*
X121000000Y-79725000D02*
X121000000Y-78775000D01*
G75*
G02*
X121250000Y-78525000I250000J0D01*
G01*
X121925000Y-78525000D01*
G75*
G02*
X122175000Y-78775000I0J-250000D01*
G01*
X122175000Y-79725000D01*
G75*
G02*
X121925000Y-79975000I-250000J0D01*
G01*
X121250000Y-79975000D01*
G75*
G02*
X121000000Y-79725000I0J250000D01*
G01*
G37*
%TD.AperFunction*%
%TO.P,C3,1*%
%TO.N,/STM32SUPPLY*%
%TA.AperFunction,SMDPad,CuDef*%
G36*
G01*
X118925000Y-79725000D02*
X118925000Y-78775000D01*
G75*
G02*
X119175000Y-78525000I250000J0D01*
G01*
X119850000Y-78525000D01*
G75*
G02*
X120100000Y-78775000I0J-250000D01*
G01*
X120100000Y-79725000D01*
G75*
G02*
X119850000Y-79975000I-250000J0D01*
G01*
X119175000Y-79975000D01*
G75*
G02*
X118925000Y-79725000I0J250000D01*
G01*
G37*
%TD.AperFunction*%
%TD*%
D26*
%TO.N,*%
X90000000Y-24000000D03*
X90000000Y-85000000D03*
X154000000Y-85000000D03*
X154000000Y-24000000D03*
D27*
%TO.N,Net-(C1-Pad2)*%
X98500000Y-44300000D03*
X96500000Y-30300000D03*
D28*
%TO.N,GND*%
X111350000Y-58850000D03*
X105150000Y-70300000D03*
X108450000Y-62050000D03*
X134567500Y-33767500D03*
X129650000Y-32950000D03*
X127950000Y-32008700D03*
D27*
X108584996Y-73555456D03*
X138600000Y-67300000D03*
X139192000Y-71882000D03*
D28*
X124550000Y-39440010D03*
X124563988Y-40770021D03*
D27*
X125025600Y-37925600D03*
X107537500Y-32737500D03*
X99800000Y-38500000D03*
D28*
X133720000Y-49480000D03*
D27*
X121080000Y-85770000D03*
D28*
%TO.N,/STM32SUPPLY*%
X117750000Y-75350000D03*
X108810000Y-67690000D03*
D27*
X109050000Y-71150000D03*
D28*
X131000000Y-75250000D03*
D27*
X139050000Y-73550000D03*
X145637500Y-65437500D03*
X127900001Y-69500000D03*
D28*
%TO.N,Net-(C18-Pad1)*%
X119700000Y-34200000D03*
X125900000Y-33300000D03*
%TO.N,Net-(C21-Pad2)*%
X133350000Y-34750000D03*
X132379990Y-33312000D03*
%TO.N,Net-(C29-Pad1)*%
X138700000Y-38100000D03*
X134150000Y-40700000D03*
X150350000Y-28650000D03*
%TO.N,/LoRaEN*%
X124700000Y-57400000D03*
X115000000Y-67700000D03*
%TO.N,/LoRaIRQ*%
X125300000Y-58200000D03*
X116000000Y-68100000D03*
%TO.N,/SPI2_MISO*%
X112400000Y-68999998D03*
%TO.N,/SPI2_MOSI*%
X111500000Y-70000000D03*
%TO.N,/SPI2_SSN*%
X132300000Y-60600000D03*
%TO.N,/LoRaRST*%
X142200000Y-51000000D03*
D27*
X129000000Y-58554990D03*
%TO.N,/USART_RX*%
X105400000Y-75100000D03*
D28*
%TO.N,/USART_TX*%
X104900000Y-73100000D03*
%TO.N,/I2C1_SDA*%
X110500000Y-65800000D03*
%TO.N,/I2C1_SCL*%
X111800000Y-65600000D03*
%TO.N,Net-(R13-Pad1)*%
X130000000Y-40600000D03*
X128900000Y-45700000D03*
%TO.N,+5V*%
X136200000Y-25050000D03*
D27*
X125100000Y-35300000D03*
X116200000Y-45300000D03*
D28*
%TO.N,Net-(R18-Pad1)*%
X131400000Y-39100000D03*
X122600000Y-40400000D03*
%TO.N,/MAG_RDY*%
X124900000Y-63300000D03*
X133450000Y-66150000D03*
%TO.N,/SPI1_SSN*%
X119900000Y-69200000D03*
D27*
X138850000Y-72800000D03*
D28*
%TO.N,/SPI1_MOSI*%
X112009526Y-73040248D03*
X119126000Y-74168000D03*
%TO.N,/SPI1_MISO*%
X111400000Y-72150000D03*
X120100000Y-73256191D03*
%TO.N,/SPI1_SCK*%
X111050000Y-71200000D03*
X124393217Y-72491298D03*
%TD*%
D29*
%TO.N,Net-(C1-Pad2)*%
X98500000Y-42900000D02*
X98500000Y-44300000D01*
D30*
X102960000Y-38122500D02*
X101600000Y-36762500D01*
X102960000Y-49100000D02*
X102960000Y-38122500D01*
D31*
X96500000Y-32050000D02*
X96450000Y-32100000D01*
X96500000Y-30300000D02*
X96500000Y-32050000D01*
%TO.N,GND*%
X118235000Y-66000000D02*
X118235000Y-66010000D01*
X119300000Y-66000000D02*
X118235000Y-66000000D01*
X121000000Y-64300000D02*
X119300000Y-66000000D01*
X121000000Y-59700000D02*
X121000000Y-64300000D01*
X124300000Y-56400000D02*
X121000000Y-59700000D01*
X129100000Y-56400000D02*
X124300000Y-56400000D01*
X132800000Y-55500000D02*
X130000000Y-55500000D01*
X133720000Y-54580000D02*
X132800000Y-55500000D01*
X130000000Y-55500000D02*
X129100000Y-56400000D01*
X133720000Y-54100000D02*
X133720000Y-54580000D01*
X110962500Y-86500000D02*
X110962500Y-86387500D01*
X110560000Y-85985000D02*
X110560000Y-82900000D01*
X110962500Y-86387500D02*
X110560000Y-85985000D01*
D29*
X92545000Y-53520000D02*
X92280000Y-53520000D01*
D30*
X92545000Y-53520000D02*
X92545000Y-53595000D01*
X92545000Y-53595000D02*
X92545000Y-57240000D01*
X91150000Y-70312500D02*
X91150000Y-70350000D01*
X91150000Y-70350000D02*
X91150000Y-65950000D01*
X90690000Y-79040000D02*
X90590000Y-78940000D01*
X126400000Y-45600000D02*
X125850000Y-45600000D01*
X120400000Y-45050000D02*
X124550000Y-45050000D01*
X125100000Y-45600000D02*
X126400000Y-45600000D01*
X124550000Y-45050000D02*
X125100000Y-45600000D01*
X114350000Y-40025000D02*
X114575000Y-39800000D01*
X114350000Y-43050000D02*
X114350000Y-40025000D01*
X98837500Y-82900000D02*
X100500000Y-82900000D01*
X104100000Y-86500000D02*
X110962500Y-86500000D01*
X100500000Y-82900000D02*
X104100000Y-86500000D01*
X90600000Y-75150000D02*
X89600000Y-74150000D01*
X89600000Y-71862500D02*
X91150000Y-70312500D01*
X89600000Y-74150000D02*
X89600000Y-71862500D01*
X138150000Y-26837500D02*
X146500000Y-26837500D01*
X148410000Y-33720000D02*
X136297500Y-33720000D01*
X120400000Y-46250000D02*
X120400000Y-45050000D01*
X111350000Y-58950000D02*
X112850000Y-60450000D01*
X111350000Y-58850000D02*
X111350000Y-58950000D01*
D31*
X106885000Y-71010000D02*
X106940000Y-71010000D01*
D30*
X146500000Y-26837500D02*
X147087500Y-26837500D01*
X147087500Y-26837500D02*
X150550000Y-30300000D01*
X150550000Y-32650000D02*
X149480000Y-33720000D01*
X150550000Y-30300000D02*
X150550000Y-32650000D01*
X149480000Y-33720000D02*
X148410000Y-33720000D01*
D31*
X129110000Y-34150000D02*
X129110000Y-33410000D01*
X129110000Y-33410000D02*
X128800000Y-33100000D01*
X128800000Y-33100000D02*
X128000000Y-33100000D01*
X127610000Y-33490000D02*
X127610000Y-34150000D01*
X128000000Y-33100000D02*
X127610000Y-33490000D01*
X106885000Y-71010000D02*
X105660000Y-71010000D01*
X105150000Y-70500000D02*
X105150000Y-70300000D01*
X105660000Y-71010000D02*
X105150000Y-70500000D01*
X108450000Y-62050000D02*
X109150000Y-62050000D01*
X109150000Y-62050000D02*
X109310000Y-62210000D01*
X109310000Y-63585000D02*
X109310000Y-62210000D01*
D30*
X119450000Y-47200000D02*
X120400000Y-46250000D01*
D31*
X136250000Y-33767500D02*
X136297500Y-33720000D01*
X136250000Y-33767500D02*
X134567500Y-33767500D01*
X129190000Y-33410000D02*
X129110000Y-33410000D01*
X129650000Y-32950000D02*
X129190000Y-33410000D01*
D29*
X127950000Y-33050000D02*
X128000000Y-33100000D01*
X127950000Y-32008700D02*
X127950000Y-33050000D01*
X101500000Y-81650000D02*
X101500000Y-78687500D01*
X100300000Y-82850000D02*
X101500000Y-81650000D01*
X121587500Y-79250000D02*
X121587500Y-82137500D01*
X121437500Y-82287500D02*
X121437500Y-83250000D01*
X121587500Y-82137500D02*
X121437500Y-82287500D01*
X134287500Y-75400000D02*
X134487500Y-75200000D01*
X134287500Y-78950000D02*
X134287500Y-75400000D01*
X121587500Y-79250000D02*
X130050000Y-79250000D01*
X130050000Y-79250000D02*
X131500000Y-80700000D01*
X132537500Y-80700000D02*
X134287500Y-78950000D01*
X131500000Y-80700000D02*
X132537500Y-80700000D01*
D31*
X107137500Y-60737500D02*
X108450000Y-62050000D01*
X107137500Y-60400000D02*
X107137500Y-60737500D01*
D30*
X90690000Y-79040000D02*
X90690000Y-80790000D01*
X90690000Y-80790000D02*
X91940000Y-82040000D01*
X91940000Y-82040000D02*
X97090000Y-82040000D01*
X98927500Y-80202500D02*
X98927500Y-79040000D01*
X97090000Y-82040000D02*
X98927500Y-80202500D01*
D31*
X92545000Y-52645000D02*
X92545000Y-53520000D01*
X134487500Y-75200000D02*
X134650000Y-75200000D01*
X135388710Y-74298790D02*
X134487500Y-75200000D01*
X138650000Y-67250000D02*
X138600000Y-67300000D01*
X135900000Y-66650000D02*
X138650000Y-66650000D01*
D30*
X112822000Y-46266000D02*
X113756000Y-47200000D01*
X112822000Y-44178000D02*
X112822000Y-46266000D01*
X113950000Y-43050000D02*
X112822000Y-44178000D01*
X114350000Y-43050000D02*
X113950000Y-43050000D01*
D31*
X110314000Y-58850000D02*
X111350000Y-58850000D01*
X109310000Y-59854000D02*
X110314000Y-58850000D01*
X109310000Y-62210000D02*
X109310000Y-59854000D01*
D30*
X91010000Y-57240000D02*
X92545000Y-57240000D01*
X89408000Y-58842000D02*
X91010000Y-57240000D01*
X89408000Y-64791000D02*
X89408000Y-58842000D01*
X90567000Y-65950000D02*
X89408000Y-64791000D01*
X91150000Y-65950000D02*
X90567000Y-65950000D01*
D31*
X109310000Y-74160000D02*
X109310000Y-74935000D01*
X108705456Y-73555456D02*
X109310000Y-74160000D01*
X108584996Y-73555456D02*
X108705456Y-73555456D01*
X115810000Y-73790000D02*
X115810000Y-74935000D01*
X115950000Y-73650000D02*
X115810000Y-73790000D01*
X117265889Y-73650000D02*
X115950000Y-73650000D01*
X121587500Y-77971611D02*
X117265889Y-73650000D01*
X121587500Y-79250000D02*
X121587500Y-77971611D01*
X138800000Y-71900000D02*
X138818000Y-71882000D01*
X137787500Y-71900000D02*
X138800000Y-71900000D01*
X138818000Y-71882000D02*
X139192000Y-71882000D01*
X135388710Y-74298790D02*
X137787500Y-71900000D01*
D32*
X140700000Y-70775000D02*
X140700000Y-71136000D01*
D31*
X93390000Y-51800000D02*
X92545000Y-52645000D01*
D32*
X141100000Y-66750000D02*
X141100000Y-67225000D01*
X141100000Y-66317998D02*
X141100000Y-66750000D01*
X139725000Y-67800000D02*
X139725000Y-66775000D01*
D31*
X138650000Y-66350000D02*
X138650000Y-66750000D01*
X139400000Y-65600000D02*
X138650000Y-66350000D01*
X141100000Y-66317998D02*
X141100000Y-65900000D01*
X141100000Y-65900000D02*
X140800000Y-65600000D01*
X138650000Y-66750000D02*
X138650000Y-67250000D01*
X138650000Y-66650000D02*
X138650000Y-66750000D01*
X139725000Y-65625000D02*
X139700000Y-65600000D01*
X139725000Y-66775000D02*
X139725000Y-65625000D01*
X139700000Y-65600000D02*
X139400000Y-65600000D01*
X140800000Y-65600000D02*
X139700000Y-65600000D01*
X140301210Y-74298790D02*
X135388710Y-74298790D01*
X141900000Y-72700000D02*
X140301210Y-74298790D01*
X141900000Y-70775000D02*
X141900000Y-72700000D01*
D32*
X139310000Y-72000000D02*
X139192000Y-71882000D01*
X140382002Y-72000000D02*
X139310000Y-72000000D01*
X140700000Y-71682002D02*
X140382002Y-72000000D01*
X140700000Y-71100000D02*
X140700000Y-71682002D01*
D31*
X124550000Y-40784009D02*
X124563988Y-40770021D01*
X124550000Y-45050000D02*
X124550000Y-40784009D01*
X124550000Y-38401200D02*
X125025600Y-37925600D01*
X124550000Y-39440010D02*
X124550000Y-38401200D01*
X125700000Y-38600000D02*
X125025600Y-37925600D01*
X127610000Y-38450000D02*
X127460000Y-38600000D01*
X126400000Y-37910000D02*
X126410000Y-37900000D01*
X126400000Y-38600000D02*
X126400000Y-37910000D01*
X127460000Y-38600000D02*
X126400000Y-38600000D01*
X126400000Y-38600000D02*
X125700000Y-38600000D01*
X98400000Y-46900000D02*
X98300000Y-46800000D01*
X98300000Y-46800000D02*
X98100000Y-47000000D01*
X98100000Y-50900000D02*
X97200000Y-51800000D01*
X98100000Y-47000000D02*
X98100000Y-50900000D01*
X97200000Y-51800000D02*
X93390000Y-51800000D01*
D30*
X95500000Y-34300000D02*
X95500000Y-34400000D01*
X95500000Y-38162500D02*
X95362500Y-38300000D01*
X95500000Y-34300000D02*
X95500000Y-38162500D01*
X98400000Y-46900000D02*
X99600000Y-46900000D01*
X101600000Y-44900000D02*
X101600000Y-38837500D01*
X99600000Y-46900000D02*
X101600000Y-44900000D01*
X113756000Y-47200000D02*
X119450000Y-47200000D01*
X110262500Y-36000000D02*
X110300000Y-35962500D01*
X107537500Y-36000000D02*
X110262500Y-36000000D01*
X95500000Y-28100000D02*
X95500000Y-34300000D01*
X105700000Y-40500000D02*
X105700000Y-39300000D01*
X107537500Y-37462500D02*
X107537500Y-36000000D01*
X105700000Y-39300000D02*
X107537500Y-37462500D01*
D31*
X98100000Y-50900000D02*
X109700000Y-50900000D01*
X111580000Y-52780000D02*
X111580000Y-54100000D01*
X109700000Y-50900000D02*
X111580000Y-52780000D01*
D29*
X107537500Y-36000000D02*
X107537500Y-32737500D01*
X101262500Y-38500000D02*
X101600000Y-38837500D01*
X99800000Y-38500000D02*
X101262500Y-38500000D01*
D30*
X98000000Y-40300000D02*
X99800000Y-38500000D01*
X97100000Y-40300000D02*
X98000000Y-40300000D01*
X95362500Y-38562500D02*
X97100000Y-40300000D01*
X95362500Y-38300000D02*
X95362500Y-38562500D01*
D29*
X133720000Y-45957500D02*
X133400000Y-45637500D01*
X133720000Y-49480000D02*
X133720000Y-45957500D01*
D30*
X119200000Y-21900000D02*
X119200000Y-24000000D01*
X113100000Y-21900000D02*
X119200000Y-21900000D01*
X119200000Y-24000000D02*
X119300000Y-24100000D01*
X111200000Y-23800000D02*
X113100000Y-21900000D01*
X107700000Y-23800000D02*
X111200000Y-23800000D01*
D31*
X108800000Y-81140000D02*
X110560000Y-82900000D01*
X108850000Y-76950000D02*
X108800000Y-76950000D01*
X109220000Y-76580000D02*
X108850000Y-76950000D01*
X109220000Y-76200000D02*
X109220000Y-76580000D01*
X109310000Y-76110000D02*
X109220000Y-76200000D01*
X108800000Y-76950000D02*
X108800000Y-81140000D01*
X109310000Y-74935000D02*
X109310000Y-76110000D01*
D29*
X121080000Y-83607500D02*
X121437500Y-83250000D01*
X121080000Y-85770000D02*
X121080000Y-83607500D01*
D30*
X90690000Y-79040000D02*
X90690000Y-75310000D01*
D31*
%TO.N,/STM32SUPPLY*%
X119200000Y-64620000D02*
X119200000Y-54100000D01*
X118310000Y-65510000D02*
X119200000Y-64620000D01*
X118235000Y-65510000D02*
X118310000Y-65510000D01*
X116310000Y-76290000D02*
X116310000Y-74935000D01*
X113100000Y-79500000D02*
X116310000Y-76290000D01*
X113037500Y-82962500D02*
X113100000Y-82900000D01*
X113037500Y-86500000D02*
X113037500Y-82962500D01*
X116725000Y-75350000D02*
X116310000Y-74935000D01*
X117750000Y-75350000D02*
X116725000Y-75350000D01*
X145200000Y-56550000D02*
X146650000Y-58000000D01*
X145200000Y-52450000D02*
X145200000Y-56550000D01*
X144810000Y-52060000D02*
X145200000Y-52450000D01*
X124360000Y-52060000D02*
X144810000Y-52060000D01*
X106885000Y-71510000D02*
X108010000Y-71510000D01*
X108810000Y-63585000D02*
X108810000Y-67690000D01*
X109050000Y-71510000D02*
X109050000Y-71150000D01*
X108010000Y-71510000D02*
X109050000Y-71510000D01*
D29*
X106885000Y-71510000D02*
X104890000Y-71510000D01*
X101500000Y-74900000D02*
X101500000Y-76612500D01*
X104890000Y-71510000D02*
X101500000Y-74900000D01*
X119512500Y-83100000D02*
X119362500Y-83250000D01*
X119512500Y-79250000D02*
X119512500Y-83100000D01*
X119512500Y-79250000D02*
X119512500Y-78362500D01*
X117750000Y-76600000D02*
X117750000Y-75350000D01*
X119512500Y-78362500D02*
X117750000Y-76600000D01*
X132212500Y-75400000D02*
X132412500Y-75200000D01*
X132212500Y-78950000D02*
X132212500Y-75400000D01*
X132362500Y-75250000D02*
X132412500Y-75200000D01*
X131000000Y-75250000D02*
X132362500Y-75250000D01*
D31*
X105062500Y-60400000D02*
X104900000Y-60400000D01*
X108085000Y-63585000D02*
X108810000Y-63585000D01*
X104900000Y-60400000D02*
X108085000Y-63585000D01*
X145637500Y-65437500D02*
X143275000Y-67800000D01*
X108010000Y-71510000D02*
X109110000Y-71510000D01*
X109110000Y-71510000D02*
X109150000Y-71550000D01*
X109150000Y-71550000D02*
X109150000Y-73350000D01*
X109150000Y-73350000D02*
X109810000Y-74010000D01*
X109810000Y-74010000D02*
X109810000Y-74935000D01*
X146650000Y-58000000D02*
X146650000Y-61850000D01*
X146650000Y-61850000D02*
X146000000Y-62500000D01*
X146000000Y-65075000D02*
X145637500Y-65437500D01*
X146000000Y-62500000D02*
X146000000Y-65075000D01*
D32*
X133754840Y-69200000D02*
X128023790Y-69200000D01*
X134028630Y-69473790D02*
X133754840Y-69200000D01*
X139725000Y-69400000D02*
X136642980Y-69400000D01*
X136642980Y-69400000D02*
X136552970Y-69490010D01*
X134090010Y-69490010D02*
X134051210Y-69451210D01*
X128023790Y-69200000D02*
X127750000Y-69473790D01*
X136552970Y-69490010D02*
X134090010Y-69490010D01*
D31*
X127750000Y-69473790D02*
X127873791Y-69473790D01*
X127873791Y-69473790D02*
X127900001Y-69500000D01*
X113100000Y-79600000D02*
X113100000Y-82900000D01*
X109900000Y-76600000D02*
X112900000Y-79600000D01*
X109900000Y-75780848D02*
X109900000Y-76600000D01*
X109894990Y-75775838D02*
X109900000Y-75780848D01*
X109894990Y-75685612D02*
X109894990Y-75775838D01*
X112900000Y-79600000D02*
X113100000Y-79600000D01*
X109810000Y-75600622D02*
X109894990Y-75685612D01*
X140450000Y-73550000D02*
X139050000Y-73550000D01*
X141500000Y-72500000D02*
X140450000Y-73550000D01*
X141500000Y-70775000D02*
X141500000Y-72500000D01*
X130780000Y-54500000D02*
X131180000Y-54100000D01*
D30*
X124360000Y-53980000D02*
X124480000Y-54100000D01*
X124360000Y-49100000D02*
X124360000Y-53980000D01*
X124480000Y-54100000D02*
X131180000Y-54100000D01*
X119200000Y-54100000D02*
X124480000Y-54100000D01*
D31*
%TO.N,Net-(C10-Pad1)*%
X97320000Y-63740000D02*
X100990000Y-63740000D01*
X100990000Y-63740000D02*
X104760000Y-67510000D01*
X104760000Y-67510000D02*
X106885000Y-67510000D01*
X97285000Y-63775000D02*
X97320000Y-63740000D01*
X97185000Y-63875000D02*
X97320000Y-63740000D01*
X91150000Y-63875000D02*
X97185000Y-63875000D01*
%TO.N,Net-(C11-Pad1)*%
X91150000Y-72400000D02*
X91210000Y-72340000D01*
X91150000Y-72387500D02*
X91150000Y-72400000D01*
X97320000Y-72240000D02*
X100710000Y-72240000D01*
X100710000Y-72240000D02*
X104940000Y-68010000D01*
X104940000Y-68010000D02*
X106885000Y-68010000D01*
X97172500Y-72387500D02*
X97320000Y-72240000D01*
X91150000Y-72387500D02*
X97172500Y-72387500D01*
%TO.N,Net-(C12-Pad1)*%
X94090000Y-79040000D02*
X96852500Y-79040000D01*
X105590000Y-68510000D02*
X106885000Y-68510000D01*
X96762500Y-77337500D02*
X105590000Y-68510000D01*
X96762500Y-78950000D02*
X96852500Y-79040000D01*
X96762500Y-77337500D02*
X96762500Y-78950000D01*
%TO.N,Net-(C18-Pad2)*%
X114425000Y-28900000D02*
X114425000Y-35840000D01*
X127110000Y-23400000D02*
X127110000Y-23510000D01*
D29*
X127110000Y-24840000D02*
X127110000Y-23400000D01*
X125250000Y-26700000D02*
X127110000Y-24840000D01*
X116625000Y-26700000D02*
X125250000Y-26700000D01*
X114425000Y-28900000D02*
X116625000Y-26700000D01*
D31*
%TO.N,Net-(C18-Pad1)*%
X116500000Y-35840000D02*
X116500000Y-28900000D01*
X116500000Y-28900000D02*
X116500000Y-28400000D01*
X119426500Y-28900000D02*
X119592500Y-28734000D01*
X116500000Y-28900000D02*
X119426500Y-28900000D01*
X119404500Y-32400000D02*
X119592500Y-32212000D01*
X116500000Y-32400000D02*
X119404500Y-32400000D01*
X116500000Y-35840000D02*
X116500000Y-35900000D01*
X116710000Y-35690000D02*
X119592500Y-35690000D01*
X116500000Y-35900000D02*
X116710000Y-35690000D01*
X119592500Y-34307500D02*
X119700000Y-34200000D01*
X119592500Y-35690000D02*
X119592500Y-34307500D01*
X126710000Y-31497500D02*
X126650000Y-31437500D01*
X126500000Y-33300000D02*
X126710000Y-33510000D01*
X125900000Y-33300000D02*
X126500000Y-33300000D01*
X126710000Y-33510000D02*
X126710000Y-31497500D01*
X126710000Y-34400000D02*
X126710000Y-33510000D01*
X127061500Y-31026000D02*
X126650000Y-31437500D01*
X130018500Y-31026000D02*
X127061500Y-31026000D01*
X130400000Y-31407500D02*
X130018500Y-31026000D01*
%TO.N,Net-(C21-Pad2)*%
X144207500Y-37694000D02*
X144207500Y-44650000D01*
X130400000Y-29332500D02*
X130400000Y-29200000D01*
X126812500Y-29200000D02*
X126650000Y-29362500D01*
X130400000Y-29200000D02*
X126812500Y-29200000D01*
X130400000Y-29332500D02*
X131132500Y-29332500D01*
X131132500Y-29332500D02*
X131500000Y-29700000D01*
X130500000Y-34400000D02*
X130010000Y-34400000D01*
X131500000Y-33400000D02*
X130500000Y-34400000D01*
D29*
X129650000Y-28582500D02*
X130400000Y-29332500D01*
X129650000Y-23400000D02*
X129650000Y-28582500D01*
D31*
X131500000Y-32600000D02*
X131500000Y-33400000D01*
X131500000Y-29700000D02*
X131500000Y-32600000D01*
X131500000Y-32600000D02*
X131667990Y-32600000D01*
X131667990Y-32600000D02*
X132379990Y-33312000D01*
X133450000Y-34750000D02*
X133350000Y-34750000D01*
X142240000Y-34750000D02*
X133450000Y-34750000D01*
X144207500Y-36717500D02*
X142240000Y-34750000D01*
X144207500Y-37694000D02*
X144207500Y-36717500D01*
%TO.N,Net-(C23-Pad1)*%
X121667500Y-35690000D02*
X121877500Y-35900000D01*
X122377500Y-36400000D02*
X126710000Y-36400000D01*
X121667500Y-35690000D02*
X122377500Y-36400000D01*
%TO.N,Net-(C24-Pad1)*%
X121667500Y-32212000D02*
X121812000Y-32212000D01*
X124800000Y-35900000D02*
X126710000Y-35900000D01*
X121667500Y-32767500D02*
X124800000Y-35900000D01*
X121667500Y-32212000D02*
X121667500Y-32767500D01*
%TO.N,Net-(C25-Pad1)*%
X121667500Y-28734000D02*
X121667500Y-28567500D01*
X125600000Y-34900000D02*
X126710000Y-34900000D01*
X122520010Y-31820010D02*
X125600000Y-34900000D01*
X122520010Y-31523674D02*
X122520010Y-31820010D01*
X122218326Y-31221990D02*
X122520010Y-31523674D01*
X122167500Y-31221990D02*
X122218326Y-31221990D01*
X122167500Y-28567500D02*
X122167500Y-31221990D01*
%TO.N,Net-(C26-Pad1)*%
X131900000Y-35400000D02*
X130010000Y-35400000D01*
X133700000Y-37200000D02*
X131900000Y-35400000D01*
X141638500Y-37200000D02*
X133700000Y-37200000D01*
X142132500Y-37694000D02*
X141638500Y-37200000D01*
%TO.N,Net-(C27-Pad1)*%
X141545000Y-41172000D02*
X142132500Y-41172000D01*
X136872000Y-41172000D02*
X141545000Y-41172000D01*
X131600000Y-35900000D02*
X136872000Y-41172000D01*
X130010000Y-35900000D02*
X131600000Y-35900000D01*
%TO.N,Net-(C28-Pad1)*%
X141545000Y-44650000D02*
X142132500Y-44650000D01*
X139550000Y-44650000D02*
X141545000Y-44650000D01*
X131300000Y-36400000D02*
X139550000Y-44650000D01*
X130000000Y-36400000D02*
X131300000Y-36400000D01*
%TO.N,Net-(C29-Pad1)*%
X130362500Y-43562500D02*
X130400000Y-43600000D01*
X133362500Y-43600000D02*
X133400000Y-43562500D01*
X130400000Y-43600000D02*
X133362500Y-43600000D01*
X133400000Y-39740000D02*
X132380000Y-38720000D01*
X132500000Y-38840000D02*
X132380000Y-38720000D01*
X126400000Y-43600000D02*
X130400000Y-43600000D01*
X136200000Y-38200000D02*
X136100000Y-38300000D01*
X150400000Y-26770000D02*
X150400000Y-26800000D01*
X150400000Y-26800000D02*
X150400000Y-28700000D01*
X138600000Y-38200000D02*
X138700000Y-38100000D01*
X136200000Y-38200000D02*
X138600000Y-38200000D01*
X134150000Y-40700000D02*
X133750000Y-40700000D01*
X133450000Y-40700000D02*
X133400000Y-40750000D01*
X134150000Y-40700000D02*
X133450000Y-40700000D01*
X133400000Y-40750000D02*
X133400000Y-39740000D01*
X133400000Y-43562500D02*
X133400000Y-40750000D01*
X150400000Y-28700000D02*
X150350000Y-28650000D01*
X130010000Y-36900000D02*
X130000000Y-36900000D01*
X131100000Y-36900000D02*
X130010000Y-36900000D01*
X132380000Y-38180000D02*
X131100000Y-36900000D01*
X132380000Y-38720000D02*
X132380000Y-38180000D01*
%TO.N,/VRECT*%
X148382500Y-31692500D02*
X148410000Y-31720000D01*
X136250000Y-31692500D02*
X148382500Y-31692500D01*
X130010000Y-34900000D02*
X131400000Y-34900000D01*
X131400000Y-34900000D02*
X131500000Y-34800000D01*
X135462104Y-31692500D02*
X136250000Y-31692500D01*
X132454604Y-34700000D02*
X135462104Y-31692500D01*
X131600000Y-34700000D02*
X132454604Y-34700000D01*
X131500000Y-34800000D02*
X131600000Y-34700000D01*
X133800000Y-36200000D02*
X132300000Y-34700000D01*
X132300000Y-34700000D02*
X131600000Y-34700000D01*
X136200000Y-36200000D02*
X133800000Y-36200000D01*
%TO.N,Net-(D1-Pad2)*%
X97920000Y-53520000D02*
X94595000Y-53520000D01*
%TO.N,Net-(D2-Pad2)*%
X97920000Y-57240000D02*
X94595000Y-57240000D01*
%TO.N,Net-(D3-Pad2)*%
X119100000Y-39800000D02*
X119200000Y-39700000D01*
X116625000Y-39800000D02*
X119100000Y-39800000D01*
D30*
%TO.N,+BATT*%
X104750000Y-36712500D02*
X105462500Y-36000000D01*
X104750000Y-40500000D02*
X104750000Y-38050000D01*
X104750000Y-38050000D02*
X104750000Y-36712500D01*
X105200000Y-35737500D02*
X105462500Y-36000000D01*
X105200000Y-23800000D02*
X105200000Y-35737500D01*
X104750000Y-41228502D02*
X105008999Y-41487501D01*
X104750000Y-40500000D02*
X104750000Y-41228502D01*
X106650000Y-41228502D02*
X106650000Y-40500000D01*
X106391001Y-41487501D02*
X106650000Y-41228502D01*
X105008999Y-41487501D02*
X106391001Y-41487501D01*
X99840000Y-23800000D02*
X105200000Y-23800000D01*
D31*
%TO.N,+3V3*%
X126900000Y-48550000D02*
X126900000Y-49100000D01*
X116800000Y-24100000D02*
X116800000Y-24300000D01*
D29*
X121997858Y-47175000D02*
X124975000Y-47175000D01*
X121072858Y-48100000D02*
X121997858Y-47175000D01*
X113400000Y-48100000D02*
X121072858Y-48100000D01*
X111600000Y-46300000D02*
X113400000Y-48100000D01*
X111600000Y-44483576D02*
X111600000Y-46300000D01*
X112400000Y-43683576D02*
X111600000Y-44483576D01*
X112400000Y-28300000D02*
X112400000Y-43683576D01*
X124975000Y-47175000D02*
X126900000Y-49100000D01*
X116900000Y-23800000D02*
X112400000Y-28300000D01*
X116900000Y-23500000D02*
X116900000Y-23800000D01*
D31*
%TO.N,/LoRaEN*%
X132960000Y-57400000D02*
X124700000Y-57400000D01*
X136260000Y-54100000D02*
X132960000Y-57400000D01*
X112310000Y-74935000D02*
X112310000Y-73890000D01*
X112310000Y-73890000D02*
X113900000Y-72300000D01*
X113900000Y-72300000D02*
X113900000Y-68800000D01*
X113900000Y-68800000D02*
X115000000Y-67700000D01*
%TO.N,/LoRaIRQ*%
X125865685Y-58200000D02*
X125300000Y-58200000D01*
X126155696Y-57909989D02*
X125865685Y-58200000D01*
X134990011Y-57909989D02*
X126155696Y-57909989D01*
X138800000Y-54100000D02*
X134990011Y-57909989D01*
X112810000Y-74935000D02*
X112810000Y-73990000D01*
X112810000Y-73990000D02*
X116000000Y-70800000D01*
X116000000Y-70800000D02*
X116000000Y-68100000D01*
%TO.N,/SPI2_SCK*%
X122930000Y-72510000D02*
X118235000Y-72510000D01*
X141340000Y-54100000D02*
X122930000Y-72510000D01*
%TO.N,/SPI2_MISO*%
X107824315Y-70010000D02*
X108834317Y-68999998D01*
X106885000Y-70010000D02*
X107824315Y-70010000D01*
X108834317Y-68999998D02*
X112400000Y-68999998D01*
%TO.N,/SPI2_MOSI*%
X111100000Y-69600000D02*
X111500000Y-70000000D01*
X108850000Y-69600000D02*
X111100000Y-69600000D01*
X107940000Y-70510000D02*
X108850000Y-69600000D01*
X106885000Y-70510000D02*
X107940000Y-70510000D01*
%TO.N,/SPI2_SSN*%
X131800000Y-60600000D02*
X132300000Y-60600000D01*
X120390000Y-72010000D02*
X131800000Y-60600000D01*
X118235000Y-72010000D02*
X120390000Y-72010000D01*
%TO.N,/LoRaRST*%
X151500000Y-54100000D02*
X151500000Y-54250000D01*
X151500000Y-54100000D02*
X151200000Y-54100000D01*
X151200000Y-54100000D02*
X151100000Y-54000000D01*
X151100000Y-54000000D02*
X148100000Y-51000000D01*
X148100000Y-51000000D02*
X142200000Y-51000000D01*
X129000000Y-61500000D02*
X129000000Y-58554990D01*
X118235000Y-71010000D02*
X119490000Y-71010000D01*
X119490000Y-71010000D02*
X129000000Y-61500000D01*
%TO.N,/USART_RX*%
X106500000Y-54100000D02*
X106400000Y-54100000D01*
X108645000Y-75100000D02*
X108810000Y-74935000D01*
X105400000Y-75100000D02*
X108645000Y-75100000D01*
%TO.N,/USART_TX*%
X109040000Y-54100000D02*
X109040000Y-54240000D01*
X104990000Y-73010000D02*
X106885000Y-73010000D01*
X104900000Y-73100000D02*
X104990000Y-73010000D01*
%TO.N,/SWD_SWCLK*%
X114120000Y-54100000D02*
X114120000Y-54320000D01*
X114120000Y-54320000D02*
X116285010Y-56485010D01*
X116285010Y-63560010D02*
X116310000Y-63585000D01*
X116285010Y-56485010D02*
X116285010Y-63560010D01*
%TO.N,/SWD_SWDIO*%
X116660000Y-54100000D02*
X116660000Y-54340000D01*
X116660000Y-54340000D02*
X116900000Y-54580000D01*
X116900000Y-66065682D02*
X117344318Y-66510000D01*
X117344318Y-66510000D02*
X118235000Y-66510000D01*
X116900000Y-54580000D02*
X116900000Y-66065682D01*
%TO.N,/I2C1_SDA*%
X111310000Y-64990000D02*
X111310000Y-63585000D01*
X110500000Y-65800000D02*
X111310000Y-64990000D01*
%TO.N,/I2C1_SCL*%
X111800000Y-63595000D02*
X111810000Y-63585000D01*
X111800000Y-65600000D02*
X111800000Y-63595000D01*
%TO.N,/USER_LED1*%
X114810000Y-58710000D02*
X114810000Y-63585000D01*
X112600000Y-56500000D02*
X114810000Y-58710000D01*
X102570000Y-53520000D02*
X105550000Y-56500000D01*
X105550000Y-56500000D02*
X112600000Y-56500000D01*
X99920000Y-53520000D02*
X102570000Y-53520000D01*
%TO.N,/USER_LED2*%
X114350000Y-59850000D02*
X114350000Y-63545000D01*
X114350000Y-63545000D02*
X114310000Y-63585000D01*
X111740000Y-57240000D02*
X114350000Y-59850000D01*
X99920000Y-57240000D02*
X111740000Y-57240000D01*
%TO.N,Net-(R3-Pad1)*%
X110850000Y-63545000D02*
X110850000Y-60450000D01*
X110810000Y-63585000D02*
X110850000Y-63545000D01*
%TO.N,Net-(R5-Pad1)*%
X136000000Y-69000000D02*
X139725000Y-69000000D01*
X135800000Y-68800000D02*
X136000000Y-69000000D01*
%TO.N,Net-(R6-Pad2)*%
X145100000Y-63700000D02*
X145100000Y-62300000D01*
X142700000Y-66100000D02*
X145100000Y-63700000D01*
X142700000Y-67225000D02*
X142700000Y-66100000D01*
%TO.N,Net-(R6-Pad1)*%
X145100000Y-58950000D02*
X144750000Y-58600000D01*
X143100000Y-62300000D02*
X143100000Y-61300000D01*
X144750000Y-59650000D02*
X144750000Y-58600000D01*
X143100000Y-61300000D02*
X144750000Y-59650000D01*
X143100000Y-64900000D02*
X143100000Y-62300000D01*
X142300000Y-65700000D02*
X143100000Y-64900000D01*
X142300000Y-67225000D02*
X142300000Y-65700000D01*
%TO.N,Net-(R7-Pad2)*%
X141500000Y-65000000D02*
X141500000Y-67225000D01*
X138800000Y-62300000D02*
X141500000Y-65000000D01*
%TO.N,Net-(R7-Pad1)*%
X138800000Y-59250000D02*
X139450000Y-58600000D01*
X140800000Y-62300000D02*
X140800000Y-62200000D01*
X140800000Y-59950000D02*
X139450000Y-58600000D01*
X140800000Y-62300000D02*
X140800000Y-59950000D01*
X141900000Y-67225000D02*
X141900000Y-64400000D01*
X140800000Y-63300000D02*
X140800000Y-62300000D01*
X141900000Y-64400000D02*
X140800000Y-63300000D01*
%TO.N,Net-(R8-Pad2)*%
X144800000Y-69400000D02*
X143275000Y-69400000D01*
X147400000Y-72000000D02*
X144800000Y-69400000D01*
X147400000Y-75600000D02*
X147400000Y-72000000D01*
%TO.N,Net-(R8-Pad1)*%
X148700000Y-72150000D02*
X148700000Y-72900000D01*
X149400000Y-73600000D02*
X149400000Y-75600000D01*
X148700000Y-72900000D02*
X149400000Y-73600000D01*
X148700000Y-72000000D02*
X145700000Y-69000000D01*
X145700000Y-69000000D02*
X143275000Y-69000000D01*
X148700000Y-72150000D02*
X148700000Y-72000000D01*
%TO.N,Net-(R9-Pad2)*%
X147400000Y-65700000D02*
X147400000Y-63300000D01*
X144900000Y-68200000D02*
X147400000Y-65700000D01*
X143275000Y-68200000D02*
X144900000Y-68200000D01*
%TO.N,Net-(R9-Pad1)*%
X148700000Y-66850000D02*
X148700000Y-66200000D01*
X149400000Y-65500000D02*
X149400000Y-63300000D01*
X148700000Y-66200000D02*
X149400000Y-65500000D01*
X145400000Y-68600000D02*
X143275000Y-68600000D01*
X147150000Y-66850000D02*
X145400000Y-68600000D01*
X148700000Y-66850000D02*
X147150000Y-66850000D01*
%TO.N,Net-(R10-Pad2)*%
X138350000Y-76300000D02*
X138700000Y-76300000D01*
X139550000Y-75100000D02*
X138350000Y-76300000D01*
X140300000Y-75100000D02*
X139550000Y-75100000D01*
X142300000Y-73100000D02*
X140300000Y-75100000D01*
X142300000Y-70775000D02*
X142300000Y-73100000D01*
%TO.N,Net-(R10-Pad1)*%
X139850000Y-80200000D02*
X139850000Y-77800000D01*
X140350000Y-77300000D02*
X139850000Y-77800000D01*
X140350000Y-76300000D02*
X140350000Y-77300000D01*
X142700000Y-72750000D02*
X142700000Y-70775000D01*
X142700000Y-73800000D02*
X142700000Y-72750000D01*
X140350000Y-76150000D02*
X142700000Y-73800000D01*
X140350000Y-76300000D02*
X140350000Y-76150000D01*
%TO.N,Net-(R11-Pad2)*%
X144400000Y-69800000D02*
X143275000Y-69800000D01*
X145400000Y-70800000D02*
X144400000Y-69800000D01*
X145400000Y-75050000D02*
X145400000Y-70800000D01*
X144150000Y-76300000D02*
X145400000Y-75050000D01*
%TO.N,Net-(R11-Pad1)*%
X142850000Y-77000000D02*
X142380665Y-76530665D01*
X142850000Y-80200000D02*
X142850000Y-77000000D01*
X142650000Y-80200000D02*
X142850000Y-80200000D01*
X142150000Y-74950000D02*
X142150000Y-76300000D01*
X143275000Y-73825000D02*
X142150000Y-74950000D01*
X143275000Y-70200000D02*
X143275000Y-73825000D01*
%TO.N,Net-(R13-Pad1)*%
X130010000Y-37900000D02*
X130000000Y-37900000D01*
X129900000Y-38010000D02*
X130010000Y-37900000D01*
X130010000Y-37900000D02*
X130010000Y-40790000D01*
X130010000Y-40610000D02*
X130000000Y-40600000D01*
X130010000Y-40790000D02*
X130010000Y-40610000D01*
X130300000Y-45700000D02*
X130400000Y-45600000D01*
X128900000Y-45700000D02*
X130300000Y-45700000D01*
%TO.N,Net-(R16-Pad2)*%
X117800000Y-43050000D02*
X120400000Y-43050000D01*
X128600000Y-39500000D02*
X129110000Y-38990000D01*
X124869201Y-40105011D02*
X125474212Y-39500000D01*
X121100000Y-43050000D02*
X124044989Y-40105011D01*
X120400000Y-43050000D02*
X121100000Y-43050000D01*
X129110000Y-38990000D02*
X129110000Y-38150000D01*
X124044989Y-40105011D02*
X124869201Y-40105011D01*
X125474212Y-39500000D02*
X128600000Y-39500000D01*
%TO.N,+5V*%
X150392500Y-24762500D02*
X150400000Y-24770000D01*
X142450000Y-24762500D02*
X150392500Y-24762500D01*
X138150000Y-24762500D02*
X138037500Y-24762500D01*
X138037500Y-24762500D02*
X142450000Y-24762500D01*
X137862500Y-25050000D02*
X138150000Y-24762500D01*
X136200000Y-25050000D02*
X137862500Y-25050000D01*
X126710000Y-35400000D02*
X126610000Y-35300000D01*
X126610000Y-35300000D02*
X125100000Y-35300000D01*
D29*
X117550000Y-45300000D02*
X117800000Y-45050000D01*
X116200000Y-45300000D02*
X117550000Y-45300000D01*
D31*
%TO.N,Net-(R18-Pad1)*%
X131400000Y-37792998D02*
X131400000Y-39100000D01*
X131007002Y-37400000D02*
X131400000Y-37792998D01*
X130010000Y-37400000D02*
X131007002Y-37400000D01*
X118434316Y-40799999D02*
X122200001Y-40799999D01*
X114350000Y-45050000D02*
X114350000Y-44884315D01*
X114350000Y-44884315D02*
X118434316Y-40799999D01*
X122200001Y-40799999D02*
X122600000Y-40400000D01*
%TO.N,/CHG_LED*%
X124000000Y-36900000D02*
X126710000Y-36900000D01*
X121200000Y-39700000D02*
X124000000Y-36900000D01*
%TO.N,/MAG_RDY*%
X119690000Y-68510000D02*
X124900000Y-63300000D01*
X118235000Y-68510000D02*
X119690000Y-68510000D01*
X133450000Y-66150000D02*
X133450000Y-66200000D01*
D32*
X137950000Y-68200000D02*
X139250000Y-68200000D01*
X139250000Y-68200000D02*
X139725000Y-68200000D01*
X137314000Y-67564000D02*
X137950000Y-68200000D01*
X134814000Y-67564000D02*
X137314000Y-67564000D01*
X133450000Y-66200000D02*
X134814000Y-67564000D01*
D31*
%TO.N,/SPI1_SSN*%
X119710000Y-69010000D02*
X118235000Y-69010000D01*
X119900000Y-69200000D02*
X119710000Y-69010000D01*
X140500000Y-72800000D02*
X138850000Y-72800000D01*
X141100000Y-72200000D02*
X140500000Y-72800000D01*
X141100000Y-70775000D02*
X141100000Y-72200000D01*
%TO.N,/SPI1_MOSI*%
X111810000Y-74935000D02*
X111810000Y-75010000D01*
X111810000Y-73239774D02*
X111810000Y-74935000D01*
X112009526Y-73040248D02*
X111810000Y-73239774D01*
X137975000Y-70775000D02*
X134582000Y-74168000D01*
X134582000Y-74168000D02*
X119126000Y-74168000D01*
X140300000Y-70775000D02*
X137975000Y-70775000D01*
%TO.N,/SPI1_MISO*%
X111310000Y-72240000D02*
X111400000Y-72150000D01*
X111310000Y-74935000D02*
X111310000Y-72240000D01*
D32*
X129952000Y-70200000D02*
X128778000Y-71374000D01*
X139725000Y-70200000D02*
X129952000Y-70200000D01*
D31*
X120665685Y-73256191D02*
X120100000Y-73256191D01*
X126626000Y-71374000D02*
X124743809Y-73256191D01*
X124743809Y-73256191D02*
X120665685Y-73256191D01*
X128778000Y-71374000D02*
X126626000Y-71374000D01*
%TO.N,/SPI1_SCK*%
X110698799Y-71551201D02*
X111050000Y-71200000D01*
X110698799Y-74096235D02*
X110698799Y-71551201D01*
X110810000Y-74207436D02*
X110698799Y-74096235D01*
X110810000Y-74935000D02*
X110810000Y-74207436D01*
X128524000Y-70612000D02*
X126272515Y-70612000D01*
X126272515Y-70612000D02*
X124393217Y-72491298D01*
D32*
X139725000Y-69800000D02*
X136723828Y-69800000D01*
X136723828Y-69800000D02*
X136693807Y-69830021D01*
X136693807Y-69830021D02*
X133904013Y-69830021D01*
X133904013Y-69830021D02*
X133873992Y-69800000D01*
X133873992Y-69800000D02*
X129336000Y-69800000D01*
X129336000Y-69800000D02*
X128524000Y-70612000D01*
D30*
%TO.N,Net-(C2-Pad1)*%
X96450000Y-34300000D02*
X96450000Y-34450000D01*
X97437500Y-35437500D02*
X97437500Y-38300000D01*
X96450000Y-34450000D02*
X97437500Y-35437500D01*
X97437500Y-23937500D02*
X97300000Y-23800000D01*
X97437500Y-35437500D02*
X97437500Y-23937500D01*
D31*
%TO.N,/LP2985_Output*%
X121820000Y-49100000D02*
X121820000Y-49120000D01*
D30*
X121820000Y-49100000D02*
X113000000Y-49100000D01*
X113000000Y-49100000D02*
X107350000Y-43450000D01*
X107350000Y-43400000D02*
X106650000Y-42700000D01*
X107350000Y-43450000D02*
X107350000Y-43400000D01*
X104750000Y-42700000D02*
X106650000Y-42700000D01*
X110300000Y-38037500D02*
X110300000Y-40100000D01*
X107700000Y-42700000D02*
X106650000Y-42700000D01*
X110300000Y-40100000D02*
X107700000Y-42700000D01*
D31*
%TO.N,Net-(D4-Pad2)*%
X94325000Y-43000000D02*
X94325000Y-43025000D01*
X94450000Y-42900000D02*
X96500000Y-42900000D01*
X94325000Y-43025000D02*
X94450000Y-42900000D01*
%TO.N,Net-(D4-Pad1)*%
X92275000Y-43000000D02*
X92275000Y-43025000D01*
X92075000Y-43225000D02*
X92075000Y-46900000D01*
X92275000Y-43025000D02*
X92075000Y-43225000D01*
X94550000Y-34300000D02*
X94500000Y-34300000D01*
X92275000Y-38121664D02*
X92275000Y-43000000D01*
X94500000Y-35896664D02*
X92275000Y-38121664D01*
X94500000Y-34300000D02*
X94500000Y-35896664D01*
%TO.N,Net-(D5-Pad1)*%
X94125000Y-46900000D02*
X96400000Y-46900000D01*
D30*
%TO.N,Net-(R4-Pad2)*%
X94550000Y-32100000D02*
X94400000Y-32100000D01*
X94400000Y-32100000D02*
X94400000Y-30500000D01*
X93500000Y-29600000D02*
X93500000Y-28100000D01*
X94400000Y-30500000D02*
X93500000Y-29600000D01*
%TD*%
M02*
