%TF.GenerationSoftware,KiCad,Pcbnew,(5.1.8)-1*%
%TF.CreationDate,2021-02-01T14:36:09-08:00*%
%TF.ProjectId,spl_prototype,73706c5f-7072-46f7-946f-747970652e6b,rev?*%
%TF.SameCoordinates,Original*%
%TF.FileFunction,Soldermask,Bot*%
%TF.FilePolarity,Negative*%
%FSLAX46Y46*%
G04 Gerber Fmt 4.6, Leading zero omitted, Abs format (unit mm)*
G04 Created by KiCad (PCBNEW (5.1.8)-1) date 2021-02-01 14:36:09*
%MOMM*%
%LPD*%
G01*
G04 APERTURE LIST*
%ADD10O,1.700000X1.700000*%
%ADD11R,1.700000X1.700000*%
%ADD12C,0.200000*%
%ADD13O,1.700000X2.000000*%
G04 APERTURE END LIST*
D10*
%TO.C,JP3(CHG-BATT)*%
X100050000Y-23540000D03*
D11*
X97510000Y-23540000D03*
%TD*%
D10*
%TO.C,JP2(BQ-5V)*%
X102960000Y-49100000D03*
D11*
X105500000Y-49100000D03*
%TD*%
D10*
%TO.C,J6 (COIL)*%
X127110000Y-23400000D03*
D11*
X129650000Y-23400000D03*
%TD*%
D12*
%TO.C,U7*%
X127860000Y-37150000D03*
X128860000Y-37150000D03*
X128860000Y-35150000D03*
X127860000Y-35150000D03*
X128360000Y-37150000D03*
X128360000Y-35150000D03*
%TD*%
D10*
%TO.C,JP1(LDO/TEST3V3)*%
X121820000Y-49100000D03*
X124360000Y-49100000D03*
D11*
X126900000Y-49100000D03*
%TD*%
D10*
%TO.C,J7 (TOF)*%
X105480000Y-82900000D03*
X108020000Y-82900000D03*
X110560000Y-82900000D03*
D11*
X113100000Y-82900000D03*
%TD*%
D10*
%TO.C,J4*%
X106500000Y-54100000D03*
X109040000Y-54100000D03*
X111580000Y-54100000D03*
X114120000Y-54100000D03*
X116660000Y-54100000D03*
D11*
X119200000Y-54100000D03*
%TD*%
D10*
%TO.C,J3*%
X131180000Y-54100000D03*
X133720000Y-54100000D03*
X136260000Y-54100000D03*
X138800000Y-54100000D03*
X141340000Y-54100000D03*
X143880000Y-54100000D03*
X146420000Y-54100000D03*
X148960000Y-54100000D03*
D11*
X151500000Y-54100000D03*
%TD*%
D13*
%TO.C,J2 (TEST3V3-GND)*%
X116900000Y-23500000D03*
G36*
G01*
X120250000Y-22750000D02*
X120250000Y-24250000D01*
G75*
G02*
X120000000Y-24500000I-250000J0D01*
G01*
X118800000Y-24500000D01*
G75*
G02*
X118550000Y-24250000I0J250000D01*
G01*
X118550000Y-22750000D01*
G75*
G02*
X118800000Y-22500000I250000J0D01*
G01*
X120000000Y-22500000D01*
G75*
G02*
X120250000Y-22750000I0J-250000D01*
G01*
G37*
%TD*%
%TO.C,J1*%
X105200000Y-23800000D03*
G36*
G01*
X108550000Y-23050000D02*
X108550000Y-24550000D01*
G75*
G02*
X108300000Y-24800000I-250000J0D01*
G01*
X107100000Y-24800000D01*
G75*
G02*
X106850000Y-24550000I0J250000D01*
G01*
X106850000Y-23050000D01*
G75*
G02*
X107100000Y-22800000I250000J0D01*
G01*
X108300000Y-22800000D01*
G75*
G02*
X108550000Y-23050000I0J-250000D01*
G01*
G37*
%TD*%
M02*
