%TF.GenerationSoftware,KiCad,Pcbnew,5.1.5+dfsg1-2build2*%
%TF.CreationDate,2021-04-08T10:41:37-07:00*%
%TF.ProjectId,spl_prototype,73706c5f-7072-46f7-946f-747970652e6b,rev?*%
%TF.SameCoordinates,Original*%
%TF.FileFunction,Legend,Bot*%
%TF.FilePolarity,Positive*%
%FSLAX46Y46*%
G04 Gerber Fmt 4.6, Leading zero omitted, Abs format (unit mm)*
G04 Created by KiCad (PCBNEW 5.1.5+dfsg1-2build2) date 2021-04-08 10:41:37*
%MOMM*%
%LPD*%
G04 APERTURE LIST*
%TA.AperFunction,Profile*%
%ADD10C,0.050000*%
%TD*%
%ADD11C,0.010000*%
%ADD12C,0.120000*%
%ADD13C,0.100000*%
G04 APERTURE END LIST*
D10*
X97000000Y-44759201D02*
X96960034Y-25501071D01*
X132420000Y-46300000D02*
X98500649Y-46300000D01*
X134030000Y-25590649D02*
X134027699Y-44839584D01*
X98560000Y-23940799D02*
X132469351Y-23960000D01*
X132468914Y-23957945D02*
G75*
G02X134030000Y-25590649I11087J-1552056D01*
G01*
X134027699Y-44839584D02*
G75*
G02X132420000Y-46300000I-1457700J-10417D01*
G01*
X98500649Y-46300000D02*
G75*
G02X97000000Y-44759201I-10650J1490800D01*
G01*
X96960034Y-25501071D02*
G75*
G02X98560000Y-23940799I1549967J11072D01*
G01*
X89700000Y-78720000D02*
X89709201Y-54740649D01*
X143120000Y-80390000D02*
X91200649Y-80260799D01*
X144640000Y-55030000D02*
X144660799Y-78889351D01*
X91250000Y-53240000D02*
X143140000Y-53490000D01*
X144660799Y-78889351D02*
G75*
G02X143120000Y-80390000I-1490800J-10650D01*
G01*
X91200649Y-80260799D02*
G75*
G02X89700000Y-78720000I-10650J1490800D01*
G01*
X143139351Y-53489201D02*
G75*
G02X144640000Y-55030000I10650J-1490800D01*
G01*
X89709201Y-54740649D02*
G75*
G02X91250000Y-53240000I1490800J10650D01*
G01*
D11*
%TO.C,G\002A\002A\002A*%
G36*
X125959707Y-55764897D02*
G01*
X125728477Y-55877568D01*
X125618779Y-56079982D01*
X125604000Y-56233680D01*
X125654961Y-56471875D01*
X125823125Y-56625917D01*
X126131411Y-56716294D01*
X126146778Y-56718842D01*
X126350940Y-56769568D01*
X126435574Y-56862582D01*
X126450666Y-57011078D01*
X126480044Y-57191987D01*
X126587604Y-57252625D01*
X126620000Y-57254000D01*
X126700452Y-57241267D01*
X126750444Y-57181584D01*
X126777137Y-57042720D01*
X126787693Y-56792447D01*
X126789333Y-56492000D01*
X126789333Y-56190043D01*
X126450666Y-56190043D01*
X126384959Y-56292174D01*
X126189611Y-56322667D01*
X126000284Y-56294020D01*
X125963307Y-56216833D01*
X126059170Y-56122102D01*
X126219899Y-56081774D01*
X126374028Y-56099778D01*
X126450091Y-56180041D01*
X126450666Y-56190043D01*
X126789333Y-56190043D01*
X126789333Y-55730000D01*
X126329714Y-55730000D01*
X125959707Y-55764897D01*
G37*
X125959707Y-55764897D02*
X125728477Y-55877568D01*
X125618779Y-56079982D01*
X125604000Y-56233680D01*
X125654961Y-56471875D01*
X125823125Y-56625917D01*
X126131411Y-56716294D01*
X126146778Y-56718842D01*
X126350940Y-56769568D01*
X126435574Y-56862582D01*
X126450666Y-57011078D01*
X126480044Y-57191987D01*
X126587604Y-57252625D01*
X126620000Y-57254000D01*
X126700452Y-57241267D01*
X126750444Y-57181584D01*
X126777137Y-57042720D01*
X126787693Y-56792447D01*
X126789333Y-56492000D01*
X126789333Y-56190043D01*
X126450666Y-56190043D01*
X126384959Y-56292174D01*
X126189611Y-56322667D01*
X126000284Y-56294020D01*
X125963307Y-56216833D01*
X126059170Y-56122102D01*
X126219899Y-56081774D01*
X126374028Y-56099778D01*
X126450091Y-56180041D01*
X126450666Y-56190043D01*
X126789333Y-56190043D01*
X126789333Y-55730000D01*
X126329714Y-55730000D01*
X125959707Y-55764897D01*
G36*
X119014751Y-56051773D02*
G01*
X119000000Y-56111000D01*
X119067773Y-56223248D01*
X119127000Y-56238000D01*
X119239248Y-56170227D01*
X119254000Y-56111000D01*
X119186227Y-55998751D01*
X119127000Y-55984000D01*
X119014751Y-56051773D01*
G37*
X119014751Y-56051773D02*
X119000000Y-56111000D01*
X119067773Y-56223248D01*
X119127000Y-56238000D01*
X119239248Y-56170227D01*
X119254000Y-56111000D01*
X119186227Y-55998751D01*
X119127000Y-55984000D01*
X119014751Y-56051773D01*
G36*
X118440895Y-56442465D02*
G01*
X118416799Y-56476683D01*
X118307783Y-56520698D01*
X118235765Y-56488827D01*
X117981509Y-56412726D01*
X117744006Y-56496530D01*
X117693714Y-56540381D01*
X117618060Y-56690423D01*
X117570768Y-56928040D01*
X117552251Y-57203561D01*
X117562917Y-57467320D01*
X117603177Y-57669648D01*
X117673441Y-57760876D01*
X117683626Y-57762000D01*
X117757898Y-57713779D01*
X117804555Y-57551248D01*
X117831116Y-57247602D01*
X117831793Y-57233683D01*
X117854063Y-56936124D01*
X117893863Y-56768586D01*
X117964450Y-56691815D01*
X118020737Y-56674143D01*
X118207814Y-56712176D01*
X118338026Y-56896505D01*
X118402179Y-57210947D01*
X118407333Y-57354849D01*
X118421966Y-57615357D01*
X118472314Y-57739556D01*
X118534333Y-57762000D01*
X118601549Y-57728562D01*
X118640894Y-57607790D01*
X118658553Y-57368997D01*
X118661333Y-57131997D01*
X118644572Y-56768084D01*
X118598266Y-56521196D01*
X118528385Y-56407325D01*
X118440895Y-56442465D01*
G37*
X118440895Y-56442465D02*
X118416799Y-56476683D01*
X118307783Y-56520698D01*
X118235765Y-56488827D01*
X117981509Y-56412726D01*
X117744006Y-56496530D01*
X117693714Y-56540381D01*
X117618060Y-56690423D01*
X117570768Y-56928040D01*
X117552251Y-57203561D01*
X117562917Y-57467320D01*
X117603177Y-57669648D01*
X117673441Y-57760876D01*
X117683626Y-57762000D01*
X117757898Y-57713779D01*
X117804555Y-57551248D01*
X117831116Y-57247602D01*
X117831793Y-57233683D01*
X117854063Y-56936124D01*
X117893863Y-56768586D01*
X117964450Y-56691815D01*
X118020737Y-56674143D01*
X118207814Y-56712176D01*
X118338026Y-56896505D01*
X118402179Y-57210947D01*
X118407333Y-57354849D01*
X118421966Y-57615357D01*
X118472314Y-57739556D01*
X118534333Y-57762000D01*
X118601549Y-57728562D01*
X118640894Y-57607790D01*
X118658553Y-57368997D01*
X118661333Y-57131997D01*
X118644572Y-56768084D01*
X118598266Y-56521196D01*
X118528385Y-56407325D01*
X118440895Y-56442465D01*
G36*
X119082480Y-56536248D02*
G01*
X119037328Y-56805894D01*
X119017605Y-57112628D01*
X119010268Y-57447674D01*
X119023275Y-57646158D01*
X119061858Y-57740175D01*
X119123438Y-57762000D01*
X119189796Y-57732796D01*
X119229763Y-57624688D01*
X119249202Y-57406935D01*
X119254000Y-57077611D01*
X119246793Y-56721135D01*
X119222853Y-56512111D01*
X119178697Y-56429173D01*
X119148166Y-56428239D01*
X119082480Y-56536248D01*
G37*
X119082480Y-56536248D02*
X119037328Y-56805894D01*
X119017605Y-57112628D01*
X119010268Y-57447674D01*
X119023275Y-57646158D01*
X119061858Y-57740175D01*
X119123438Y-57762000D01*
X119189796Y-57732796D01*
X119229763Y-57624688D01*
X119249202Y-57406935D01*
X119254000Y-57077611D01*
X119246793Y-56721135D01*
X119222853Y-56512111D01*
X119178697Y-56429173D01*
X119148166Y-56428239D01*
X119082480Y-56536248D01*
G36*
X120426468Y-56004039D02*
G01*
X120375471Y-56090818D01*
X120356588Y-56284332D01*
X120354666Y-56453656D01*
X120354666Y-56923313D01*
X120022452Y-56656338D01*
X119783561Y-56492295D01*
X119636315Y-56441465D01*
X119597323Y-56492730D01*
X119683191Y-56634973D01*
X119829499Y-56785501D01*
X120143000Y-57073951D01*
X119808317Y-57417975D01*
X119627848Y-57613869D01*
X119562070Y-57720061D01*
X119599356Y-57759624D01*
X119634953Y-57762000D01*
X119791033Y-57705820D01*
X119994161Y-57564383D01*
X120075469Y-57491391D01*
X120354666Y-57220782D01*
X120354666Y-57491391D01*
X120377793Y-57684638D01*
X120465668Y-57756982D01*
X120524000Y-57762000D01*
X120599542Y-57750853D01*
X120648535Y-57697455D01*
X120676683Y-57571866D01*
X120689686Y-57344151D01*
X120693249Y-56984369D01*
X120693333Y-56873000D01*
X120691210Y-56476405D01*
X120681039Y-56219190D01*
X120657117Y-56071416D01*
X120613743Y-56003145D01*
X120545213Y-55984440D01*
X120524000Y-55984000D01*
X120426468Y-56004039D01*
G37*
X120426468Y-56004039D02*
X120375471Y-56090818D01*
X120356588Y-56284332D01*
X120354666Y-56453656D01*
X120354666Y-56923313D01*
X120022452Y-56656338D01*
X119783561Y-56492295D01*
X119636315Y-56441465D01*
X119597323Y-56492730D01*
X119683191Y-56634973D01*
X119829499Y-56785501D01*
X120143000Y-57073951D01*
X119808317Y-57417975D01*
X119627848Y-57613869D01*
X119562070Y-57720061D01*
X119599356Y-57759624D01*
X119634953Y-57762000D01*
X119791033Y-57705820D01*
X119994161Y-57564383D01*
X120075469Y-57491391D01*
X120354666Y-57220782D01*
X120354666Y-57491391D01*
X120377793Y-57684638D01*
X120465668Y-57756982D01*
X120524000Y-57762000D01*
X120599542Y-57750853D01*
X120648535Y-57697455D01*
X120676683Y-57571866D01*
X120689686Y-57344151D01*
X120693249Y-56984369D01*
X120693333Y-56873000D01*
X120691210Y-56476405D01*
X120681039Y-56219190D01*
X120657117Y-56071416D01*
X120613743Y-56003145D01*
X120545213Y-55984440D01*
X120524000Y-55984000D01*
X120426468Y-56004039D01*
G36*
X121420044Y-56480827D02*
G01*
X121414925Y-56488885D01*
X121307073Y-56522151D01*
X121208623Y-56476904D01*
X121030851Y-56424583D01*
X120864187Y-56456537D01*
X120779335Y-56556821D01*
X120778000Y-56574009D01*
X120850347Y-56639985D01*
X120986688Y-56661333D01*
X121190885Y-56725527D01*
X121316521Y-56924274D01*
X121368570Y-57266823D01*
X121370666Y-57375434D01*
X121386827Y-57628570D01*
X121441927Y-57745092D01*
X121497666Y-57762000D01*
X121564883Y-57728562D01*
X121604227Y-57607790D01*
X121621886Y-57368997D01*
X121624666Y-57131997D01*
X121609836Y-56761002D01*
X121568066Y-56520462D01*
X121503441Y-56422896D01*
X121420044Y-56480827D01*
G37*
X121420044Y-56480827D02*
X121414925Y-56488885D01*
X121307073Y-56522151D01*
X121208623Y-56476904D01*
X121030851Y-56424583D01*
X120864187Y-56456537D01*
X120779335Y-56556821D01*
X120778000Y-56574009D01*
X120850347Y-56639985D01*
X120986688Y-56661333D01*
X121190885Y-56725527D01*
X121316521Y-56924274D01*
X121368570Y-57266823D01*
X121370666Y-57375434D01*
X121386827Y-57628570D01*
X121441927Y-57745092D01*
X121497666Y-57762000D01*
X121564883Y-57728562D01*
X121604227Y-57607790D01*
X121621886Y-57368997D01*
X121624666Y-57131997D01*
X121609836Y-56761002D01*
X121568066Y-56520462D01*
X121503441Y-56422896D01*
X121420044Y-56480827D01*
G36*
X110748306Y-56482365D02*
G01*
X110545958Y-56671310D01*
X110450413Y-56919937D01*
X110448666Y-56957667D01*
X110460754Y-57078892D01*
X110524643Y-57142014D01*
X110681770Y-57165865D01*
X110914333Y-57169333D01*
X111203702Y-57179623D01*
X111344565Y-57221696D01*
X111357089Y-57312361D01*
X111265887Y-57462361D01*
X111149886Y-57562324D01*
X110969817Y-57587266D01*
X110800220Y-57571266D01*
X110560587Y-57561923D01*
X110457333Y-57604412D01*
X110501985Y-57682197D01*
X110665845Y-57764095D01*
X110915412Y-57835445D01*
X111110050Y-57814822D01*
X111253000Y-57748899D01*
X111510938Y-57537334D01*
X111624620Y-57249152D01*
X111634000Y-57106969D01*
X111579876Y-56881908D01*
X111369676Y-56881908D01*
X111323518Y-56963889D01*
X111116835Y-56998453D01*
X111035125Y-57000000D01*
X110813935Y-56987081D01*
X110722700Y-56936406D01*
X110718490Y-56851833D01*
X110815743Y-56725516D01*
X110998585Y-56673629D01*
X111194534Y-56709878D01*
X111257660Y-56749867D01*
X111369676Y-56881908D01*
X111579876Y-56881908D01*
X111564975Y-56819950D01*
X111387267Y-56578246D01*
X111144920Y-56430684D01*
X111002848Y-56407333D01*
X110748306Y-56482365D01*
G37*
X110748306Y-56482365D02*
X110545958Y-56671310D01*
X110450413Y-56919937D01*
X110448666Y-56957667D01*
X110460754Y-57078892D01*
X110524643Y-57142014D01*
X110681770Y-57165865D01*
X110914333Y-57169333D01*
X111203702Y-57179623D01*
X111344565Y-57221696D01*
X111357089Y-57312361D01*
X111265887Y-57462361D01*
X111149886Y-57562324D01*
X110969817Y-57587266D01*
X110800220Y-57571266D01*
X110560587Y-57561923D01*
X110457333Y-57604412D01*
X110501985Y-57682197D01*
X110665845Y-57764095D01*
X110915412Y-57835445D01*
X111110050Y-57814822D01*
X111253000Y-57748899D01*
X111510938Y-57537334D01*
X111624620Y-57249152D01*
X111634000Y-57106969D01*
X111579876Y-56881908D01*
X111369676Y-56881908D01*
X111323518Y-56963889D01*
X111116835Y-56998453D01*
X111035125Y-57000000D01*
X110813935Y-56987081D01*
X110722700Y-56936406D01*
X110718490Y-56851833D01*
X110815743Y-56725516D01*
X110998585Y-56673629D01*
X111194534Y-56709878D01*
X111257660Y-56749867D01*
X111369676Y-56881908D01*
X111579876Y-56881908D01*
X111564975Y-56819950D01*
X111387267Y-56578246D01*
X111144920Y-56430684D01*
X111002848Y-56407333D01*
X110748306Y-56482365D01*
G36*
X112111556Y-56439117D02*
G01*
X111928271Y-56513320D01*
X111902563Y-56588778D01*
X112024119Y-56644678D01*
X112221670Y-56661333D01*
X112498898Y-56686474D01*
X112616895Y-56753922D01*
X112576835Y-56851721D01*
X112379888Y-56967910D01*
X112184333Y-57042333D01*
X111990363Y-57148728D01*
X111911799Y-57332238D01*
X111904959Y-57386659D01*
X111917135Y-57591516D01*
X112033016Y-57712882D01*
X112099443Y-57746492D01*
X112319282Y-57824160D01*
X112523305Y-57821645D01*
X112671166Y-57788304D01*
X112796959Y-57702080D01*
X112819333Y-57636848D01*
X112768512Y-57566667D01*
X112597115Y-57556817D01*
X112480666Y-57569538D01*
X112263275Y-57588452D01*
X112165705Y-57555112D01*
X112142071Y-57452131D01*
X112142000Y-57441208D01*
X112202958Y-57292709D01*
X112390150Y-57212951D01*
X112668989Y-57095058D01*
X112799738Y-56897810D01*
X112804666Y-56731197D01*
X112702316Y-56551904D01*
X112488264Y-56441297D01*
X112213423Y-56420831D01*
X112111556Y-56439117D01*
G37*
X112111556Y-56439117D02*
X111928271Y-56513320D01*
X111902563Y-56588778D01*
X112024119Y-56644678D01*
X112221670Y-56661333D01*
X112498898Y-56686474D01*
X112616895Y-56753922D01*
X112576835Y-56851721D01*
X112379888Y-56967910D01*
X112184333Y-57042333D01*
X111990363Y-57148728D01*
X111911799Y-57332238D01*
X111904959Y-57386659D01*
X111917135Y-57591516D01*
X112033016Y-57712882D01*
X112099443Y-57746492D01*
X112319282Y-57824160D01*
X112523305Y-57821645D01*
X112671166Y-57788304D01*
X112796959Y-57702080D01*
X112819333Y-57636848D01*
X112768512Y-57566667D01*
X112597115Y-57556817D01*
X112480666Y-57569538D01*
X112263275Y-57588452D01*
X112165705Y-57555112D01*
X112142071Y-57452131D01*
X112142000Y-57441208D01*
X112202958Y-57292709D01*
X112390150Y-57212951D01*
X112668989Y-57095058D01*
X112799738Y-56897810D01*
X112804666Y-56731197D01*
X112702316Y-56551904D01*
X112488264Y-56441297D01*
X112213423Y-56420831D01*
X112111556Y-56439117D01*
G36*
X113387586Y-56502914D02*
G01*
X113231977Y-56725166D01*
X113162897Y-57089548D01*
X113158000Y-57253051D01*
X113162895Y-57534157D01*
X113187467Y-57684400D01*
X113246545Y-57742183D01*
X113348500Y-57746387D01*
X113586934Y-57760862D01*
X113710930Y-57789480D01*
X113927405Y-57784042D01*
X114070763Y-57714677D01*
X114228126Y-57527828D01*
X114245440Y-57324555D01*
X114004666Y-57324555D01*
X113977025Y-57485543D01*
X113948222Y-57536222D01*
X113792329Y-57590932D01*
X113600168Y-57550554D01*
X113513600Y-57491067D01*
X113411457Y-57328691D01*
X113466330Y-57217214D01*
X113670103Y-57170043D01*
X113708333Y-57169333D01*
X113915341Y-57190079D01*
X113997506Y-57266625D01*
X114004666Y-57324555D01*
X114245440Y-57324555D01*
X114245956Y-57318499D01*
X114143641Y-57122676D01*
X113940570Y-56976343D01*
X113656129Y-56915487D01*
X113640105Y-56915333D01*
X113463843Y-56884929D01*
X113433898Y-56809500D01*
X113537654Y-56739540D01*
X113758429Y-56705103D01*
X113822063Y-56703667D01*
X114056357Y-56676721D01*
X114167686Y-56611084D01*
X114140902Y-56529551D01*
X113983500Y-56460697D01*
X113636001Y-56416766D01*
X113387586Y-56502914D01*
G37*
X113387586Y-56502914D02*
X113231977Y-56725166D01*
X113162897Y-57089548D01*
X113158000Y-57253051D01*
X113162895Y-57534157D01*
X113187467Y-57684400D01*
X113246545Y-57742183D01*
X113348500Y-57746387D01*
X113586934Y-57760862D01*
X113710930Y-57789480D01*
X113927405Y-57784042D01*
X114070763Y-57714677D01*
X114228126Y-57527828D01*
X114245440Y-57324555D01*
X114004666Y-57324555D01*
X113977025Y-57485543D01*
X113948222Y-57536222D01*
X113792329Y-57590932D01*
X113600168Y-57550554D01*
X113513600Y-57491067D01*
X113411457Y-57328691D01*
X113466330Y-57217214D01*
X113670103Y-57170043D01*
X113708333Y-57169333D01*
X113915341Y-57190079D01*
X113997506Y-57266625D01*
X114004666Y-57324555D01*
X114245440Y-57324555D01*
X114245956Y-57318499D01*
X114143641Y-57122676D01*
X113940570Y-56976343D01*
X113656129Y-56915487D01*
X113640105Y-56915333D01*
X113463843Y-56884929D01*
X113433898Y-56809500D01*
X113537654Y-56739540D01*
X113758429Y-56705103D01*
X113822063Y-56703667D01*
X114056357Y-56676721D01*
X114167686Y-56611084D01*
X114140902Y-56529551D01*
X113983500Y-56460697D01*
X113636001Y-56416766D01*
X113387586Y-56502914D01*
G36*
X115477504Y-56047578D02*
G01*
X115444319Y-56251153D01*
X115444000Y-56283312D01*
X115434107Y-56476731D01*
X115386883Y-56535191D01*
X115280233Y-56494979D01*
X115079243Y-56417652D01*
X114914579Y-56452878D01*
X114720968Y-56614668D01*
X114720485Y-56615151D01*
X114546914Y-56889802D01*
X114512666Y-57127000D01*
X114581759Y-57450020D01*
X114720485Y-57638848D01*
X114936450Y-57807592D01*
X115124961Y-57832794D01*
X115262872Y-57771081D01*
X115438013Y-57728883D01*
X115538039Y-57739919D01*
X115608994Y-57747137D01*
X115655191Y-57705478D01*
X115681897Y-57586720D01*
X115694378Y-57362646D01*
X115696081Y-57189749D01*
X115427602Y-57189749D01*
X115362175Y-57405529D01*
X115227645Y-57549416D01*
X115054045Y-57589577D01*
X114871408Y-57494178D01*
X114868266Y-57491067D01*
X114786943Y-57314422D01*
X114772408Y-57071688D01*
X114822239Y-56847090D01*
X114889599Y-56749375D01*
X115087997Y-56671701D01*
X115272648Y-56744995D01*
X115393895Y-56933911D01*
X115427602Y-57189749D01*
X115696081Y-57189749D01*
X115697901Y-57005037D01*
X115698000Y-56882875D01*
X115694171Y-56474343D01*
X115680122Y-56207806D01*
X115652008Y-56056048D01*
X115605981Y-55991850D01*
X115571000Y-55984000D01*
X115477504Y-56047578D01*
G37*
X115477504Y-56047578D02*
X115444319Y-56251153D01*
X115444000Y-56283312D01*
X115434107Y-56476731D01*
X115386883Y-56535191D01*
X115280233Y-56494979D01*
X115079243Y-56417652D01*
X114914579Y-56452878D01*
X114720968Y-56614668D01*
X114720485Y-56615151D01*
X114546914Y-56889802D01*
X114512666Y-57127000D01*
X114581759Y-57450020D01*
X114720485Y-57638848D01*
X114936450Y-57807592D01*
X115124961Y-57832794D01*
X115262872Y-57771081D01*
X115438013Y-57728883D01*
X115538039Y-57739919D01*
X115608994Y-57747137D01*
X115655191Y-57705478D01*
X115681897Y-57586720D01*
X115694378Y-57362646D01*
X115696081Y-57189749D01*
X115427602Y-57189749D01*
X115362175Y-57405529D01*
X115227645Y-57549416D01*
X115054045Y-57589577D01*
X114871408Y-57494178D01*
X114868266Y-57491067D01*
X114786943Y-57314422D01*
X114772408Y-57071688D01*
X114822239Y-56847090D01*
X114889599Y-56749375D01*
X115087997Y-56671701D01*
X115272648Y-56744995D01*
X115393895Y-56933911D01*
X115427602Y-57189749D01*
X115696081Y-57189749D01*
X115697901Y-57005037D01*
X115698000Y-56882875D01*
X115694171Y-56474343D01*
X115680122Y-56207806D01*
X115652008Y-56056048D01*
X115605981Y-55991850D01*
X115571000Y-55984000D01*
X115477504Y-56047578D01*
G36*
X122225569Y-56510469D02*
G01*
X122056546Y-56754000D01*
X121972141Y-57134232D01*
X121963333Y-57341702D01*
X121971117Y-57591665D01*
X122007510Y-57715121D01*
X122092078Y-57754657D01*
X122153833Y-57756364D01*
X122387616Y-57774349D01*
X122568880Y-57807932D01*
X122792601Y-57808105D01*
X122971047Y-57685619D01*
X123100262Y-57516319D01*
X123148666Y-57381000D01*
X123133862Y-57342094D01*
X122851117Y-57342094D01*
X122830803Y-57486833D01*
X122721371Y-57576436D01*
X122542725Y-57579486D01*
X122422824Y-57527870D01*
X122316469Y-57399233D01*
X122277315Y-57317500D01*
X122268382Y-57216434D01*
X122367823Y-57175078D01*
X122509268Y-57169333D01*
X122751237Y-57213456D01*
X122851117Y-57342094D01*
X123133862Y-57342094D01*
X123072345Y-57180424D01*
X122876758Y-57016006D01*
X122611975Y-56923875D01*
X122503300Y-56915333D01*
X122309102Y-56906723D01*
X122254865Y-56867338D01*
X122309287Y-56779553D01*
X122457963Y-56687669D01*
X122705425Y-56682269D01*
X122747562Y-56687443D01*
X122971404Y-56688452D01*
X123044393Y-56629084D01*
X122961247Y-56535460D01*
X122793805Y-56458670D01*
X122473293Y-56409930D01*
X122225569Y-56510469D01*
G37*
X122225569Y-56510469D02*
X122056546Y-56754000D01*
X121972141Y-57134232D01*
X121963333Y-57341702D01*
X121971117Y-57591665D01*
X122007510Y-57715121D01*
X122092078Y-57754657D01*
X122153833Y-57756364D01*
X122387616Y-57774349D01*
X122568880Y-57807932D01*
X122792601Y-57808105D01*
X122971047Y-57685619D01*
X123100262Y-57516319D01*
X123148666Y-57381000D01*
X123133862Y-57342094D01*
X122851117Y-57342094D01*
X122830803Y-57486833D01*
X122721371Y-57576436D01*
X122542725Y-57579486D01*
X122422824Y-57527870D01*
X122316469Y-57399233D01*
X122277315Y-57317500D01*
X122268382Y-57216434D01*
X122367823Y-57175078D01*
X122509268Y-57169333D01*
X122751237Y-57213456D01*
X122851117Y-57342094D01*
X123133862Y-57342094D01*
X123072345Y-57180424D01*
X122876758Y-57016006D01*
X122611975Y-56923875D01*
X122503300Y-56915333D01*
X122309102Y-56906723D01*
X122254865Y-56867338D01*
X122309287Y-56779553D01*
X122457963Y-56687669D01*
X122705425Y-56682269D01*
X122747562Y-56687443D01*
X122971404Y-56688452D01*
X123044393Y-56629084D01*
X122961247Y-56535460D01*
X122793805Y-56458670D01*
X122473293Y-56409930D01*
X122225569Y-56510469D01*
G36*
X116115406Y-56479212D02*
G01*
X116062682Y-56694646D01*
X116037840Y-57031874D01*
X116036666Y-57137563D01*
X116062290Y-57622067D01*
X116142112Y-57961129D01*
X116280554Y-58171158D01*
X116324508Y-58205203D01*
X116471947Y-58248662D01*
X116695940Y-58266713D01*
X116920065Y-58258514D01*
X117067902Y-58223221D01*
X117080889Y-58213555D01*
X117135631Y-58100678D01*
X117028613Y-58034659D01*
X116801645Y-58016000D01*
X116542182Y-57986110D01*
X116398387Y-57884882D01*
X116378312Y-57852233D01*
X116301574Y-57676031D01*
X116307605Y-57605576D01*
X116392266Y-57660400D01*
X116586938Y-57750661D01*
X116832742Y-57741555D01*
X117048468Y-57639350D01*
X117081878Y-57607166D01*
X117194073Y-57375776D01*
X117216356Y-57139726D01*
X116968000Y-57139726D01*
X116910242Y-57378497D01*
X116768746Y-57512866D01*
X116591181Y-57533355D01*
X116425214Y-57430487D01*
X116336578Y-57265273D01*
X116325658Y-57051286D01*
X116396338Y-56838758D01*
X116519633Y-56691645D01*
X116610304Y-56661333D01*
X116825500Y-56731981D01*
X116945112Y-56937137D01*
X116968000Y-57139726D01*
X117216356Y-57139726D01*
X117222557Y-57074039D01*
X117169472Y-56777566D01*
X117052666Y-56576667D01*
X116809172Y-56426640D01*
X116553842Y-56442198D01*
X116462234Y-56488827D01*
X116324412Y-56516284D01*
X116281200Y-56476683D01*
X116190186Y-56401311D01*
X116115406Y-56479212D01*
G37*
X116115406Y-56479212D02*
X116062682Y-56694646D01*
X116037840Y-57031874D01*
X116036666Y-57137563D01*
X116062290Y-57622067D01*
X116142112Y-57961129D01*
X116280554Y-58171158D01*
X116324508Y-58205203D01*
X116471947Y-58248662D01*
X116695940Y-58266713D01*
X116920065Y-58258514D01*
X117067902Y-58223221D01*
X117080889Y-58213555D01*
X117135631Y-58100678D01*
X117028613Y-58034659D01*
X116801645Y-58016000D01*
X116542182Y-57986110D01*
X116398387Y-57884882D01*
X116378312Y-57852233D01*
X116301574Y-57676031D01*
X116307605Y-57605576D01*
X116392266Y-57660400D01*
X116586938Y-57750661D01*
X116832742Y-57741555D01*
X117048468Y-57639350D01*
X117081878Y-57607166D01*
X117194073Y-57375776D01*
X117216356Y-57139726D01*
X116968000Y-57139726D01*
X116910242Y-57378497D01*
X116768746Y-57512866D01*
X116591181Y-57533355D01*
X116425214Y-57430487D01*
X116336578Y-57265273D01*
X116325658Y-57051286D01*
X116396338Y-56838758D01*
X116519633Y-56691645D01*
X116610304Y-56661333D01*
X116825500Y-56731981D01*
X116945112Y-56937137D01*
X116968000Y-57139726D01*
X117216356Y-57139726D01*
X117222557Y-57074039D01*
X117169472Y-56777566D01*
X117052666Y-56576667D01*
X116809172Y-56426640D01*
X116553842Y-56442198D01*
X116462234Y-56488827D01*
X116324412Y-56516284D01*
X116281200Y-56476683D01*
X116190186Y-56401311D01*
X116115406Y-56479212D01*
G36*
X123813665Y-56434063D02*
G01*
X123645859Y-56484109D01*
X123514509Y-56604405D01*
X123490753Y-56633882D01*
X123367990Y-56848011D01*
X123318000Y-57048239D01*
X123370990Y-57367944D01*
X123510221Y-57624113D01*
X123706082Y-57788633D01*
X123928964Y-57833386D01*
X124086273Y-57777731D01*
X124194637Y-57726455D01*
X124240067Y-57779792D01*
X124249333Y-57969793D01*
X124249333Y-57972949D01*
X124276736Y-58192406D01*
X124364261Y-58269415D01*
X124376333Y-58270000D01*
X124433744Y-58243082D01*
X124471319Y-58144273D01*
X124492838Y-57946487D01*
X124502079Y-57622639D01*
X124503302Y-57359833D01*
X124503296Y-57155607D01*
X124246005Y-57155607D01*
X124209246Y-57385489D01*
X124147733Y-57491067D01*
X123956170Y-57589747D01*
X123771599Y-57536682D01*
X123651790Y-57368175D01*
X123606428Y-57105893D01*
X123657919Y-56880042D01*
X123780478Y-56724241D01*
X123948319Y-56672109D01*
X124126400Y-56749375D01*
X124217583Y-56915494D01*
X124246005Y-57155607D01*
X124503296Y-57155607D01*
X124503271Y-56449667D01*
X124083389Y-56431964D01*
X123813665Y-56434063D01*
G37*
X123813665Y-56434063D02*
X123645859Y-56484109D01*
X123514509Y-56604405D01*
X123490753Y-56633882D01*
X123367990Y-56848011D01*
X123318000Y-57048239D01*
X123370990Y-57367944D01*
X123510221Y-57624113D01*
X123706082Y-57788633D01*
X123928964Y-57833386D01*
X124086273Y-57777731D01*
X124194637Y-57726455D01*
X124240067Y-57779792D01*
X124249333Y-57969793D01*
X124249333Y-57972949D01*
X124276736Y-58192406D01*
X124364261Y-58269415D01*
X124376333Y-58270000D01*
X124433744Y-58243082D01*
X124471319Y-58144273D01*
X124492838Y-57946487D01*
X124502079Y-57622639D01*
X124503302Y-57359833D01*
X124503296Y-57155607D01*
X124246005Y-57155607D01*
X124209246Y-57385489D01*
X124147733Y-57491067D01*
X123956170Y-57589747D01*
X123771599Y-57536682D01*
X123651790Y-57368175D01*
X123606428Y-57105893D01*
X123657919Y-56880042D01*
X123780478Y-56724241D01*
X123948319Y-56672109D01*
X124126400Y-56749375D01*
X124217583Y-56915494D01*
X124246005Y-57155607D01*
X124503296Y-57155607D01*
X124503271Y-56449667D01*
X124083389Y-56431964D01*
X123813665Y-56434063D01*
G36*
X125686407Y-55225764D02*
G01*
X125316759Y-55493897D01*
X125140761Y-55708239D01*
X124975162Y-56090132D01*
X124924666Y-56546181D01*
X124990684Y-57025054D01*
X125096342Y-57323356D01*
X125222521Y-57570781D01*
X125397828Y-57874996D01*
X125600886Y-58203535D01*
X125810317Y-58523933D01*
X126004743Y-58803728D01*
X126162787Y-59010454D01*
X126263070Y-59111647D01*
X126277229Y-59116667D01*
X126360789Y-59051902D01*
X126512646Y-58878728D01*
X126705968Y-58628821D01*
X126797169Y-58502833D01*
X127225256Y-57849199D01*
X127517193Y-57280550D01*
X127675283Y-56784383D01*
X127695900Y-56445654D01*
X127465839Y-56445654D01*
X127429898Y-56857414D01*
X127344981Y-57074390D01*
X127095001Y-57387453D01*
X126750801Y-57590655D01*
X126356171Y-57672252D01*
X125954903Y-57620497D01*
X125714433Y-57511725D01*
X125380976Y-57230046D01*
X125196197Y-56873939D01*
X125148102Y-56496781D01*
X125219939Y-56085695D01*
X125414877Y-55741806D01*
X125702054Y-55485466D01*
X126050611Y-55337025D01*
X126429688Y-55316836D01*
X126772371Y-55425622D01*
X127123998Y-55692103D01*
X127359513Y-56044665D01*
X127465839Y-56445654D01*
X127695900Y-56445654D01*
X127701833Y-56348197D01*
X127599148Y-55959491D01*
X127369532Y-55605761D01*
X127337975Y-55569943D01*
X126963725Y-55267326D01*
X126542184Y-55110446D01*
X126105647Y-55097269D01*
X125686407Y-55225764D01*
G37*
X125686407Y-55225764D02*
X125316759Y-55493897D01*
X125140761Y-55708239D01*
X124975162Y-56090132D01*
X124924666Y-56546181D01*
X124990684Y-57025054D01*
X125096342Y-57323356D01*
X125222521Y-57570781D01*
X125397828Y-57874996D01*
X125600886Y-58203535D01*
X125810317Y-58523933D01*
X126004743Y-58803728D01*
X126162787Y-59010454D01*
X126263070Y-59111647D01*
X126277229Y-59116667D01*
X126360789Y-59051902D01*
X126512646Y-58878728D01*
X126705968Y-58628821D01*
X126797169Y-58502833D01*
X127225256Y-57849199D01*
X127517193Y-57280550D01*
X127675283Y-56784383D01*
X127695900Y-56445654D01*
X127465839Y-56445654D01*
X127429898Y-56857414D01*
X127344981Y-57074390D01*
X127095001Y-57387453D01*
X126750801Y-57590655D01*
X126356171Y-57672252D01*
X125954903Y-57620497D01*
X125714433Y-57511725D01*
X125380976Y-57230046D01*
X125196197Y-56873939D01*
X125148102Y-56496781D01*
X125219939Y-56085695D01*
X125414877Y-55741806D01*
X125702054Y-55485466D01*
X126050611Y-55337025D01*
X126429688Y-55316836D01*
X126772371Y-55425622D01*
X127123998Y-55692103D01*
X127359513Y-56044665D01*
X127465839Y-56445654D01*
X127695900Y-56445654D01*
X127701833Y-56348197D01*
X127599148Y-55959491D01*
X127369532Y-55605761D01*
X127337975Y-55569943D01*
X126963725Y-55267326D01*
X126542184Y-55110446D01*
X126105647Y-55097269D01*
X125686407Y-55225764D01*
D12*
%TO.C,JP4*%
X118612000Y-63854000D02*
X118612000Y-65854000D01*
X121412000Y-63854000D02*
X118612000Y-63854000D01*
X121412000Y-65854000D02*
X121412000Y-63854000D01*
X118612000Y-65854000D02*
X121412000Y-65854000D01*
%TO.C,JP5*%
X118623001Y-66394000D02*
X118623001Y-68394000D01*
X121423001Y-66394000D02*
X118623001Y-66394000D01*
X121423001Y-68394000D02*
X121423001Y-66394000D01*
X118623001Y-68394000D02*
X121423001Y-68394000D01*
%TO.C,JP6*%
X118655001Y-68934000D02*
X118655001Y-70934000D01*
X121455001Y-68934000D02*
X118655001Y-68934000D01*
X121455001Y-70934000D02*
X121455001Y-68934000D01*
X118655001Y-70934000D02*
X121455001Y-70934000D01*
%TO.C,JP7*%
X121455001Y-63314000D02*
X121455001Y-61314000D01*
X118655001Y-63314000D02*
X121455001Y-63314000D01*
X118655001Y-61314000D02*
X118655001Y-63314000D01*
X121455001Y-61314000D02*
X118655001Y-61314000D01*
%TO.C,R20*%
X111297307Y-34107480D02*
X110954773Y-34107480D01*
X111297307Y-33087480D02*
X110954773Y-33087480D01*
%TO.C,R19*%
X127988680Y-38803507D02*
X127988680Y-38460973D01*
X129008680Y-38803507D02*
X129008680Y-38460973D01*
%TO.C,R18*%
X113638640Y-29750467D02*
X113638640Y-29407933D01*
X114658640Y-29750467D02*
X114658640Y-29407933D01*
%TO.C,R17*%
X111931760Y-29704747D02*
X111931760Y-29362213D01*
X112951760Y-29704747D02*
X112951760Y-29362213D01*
%TO.C,R16*%
X111092480Y-29407933D02*
X111092480Y-29750467D01*
X110072480Y-29407933D02*
X110072480Y-29750467D01*
%TO.C,R14*%
X117037160Y-29679347D02*
X117037160Y-29336813D01*
X118057160Y-29679347D02*
X118057160Y-29336813D01*
%TO.C,R13*%
X119977400Y-29326653D02*
X119977400Y-29669187D01*
X118957400Y-29326653D02*
X118957400Y-29669187D01*
%TO.C,D3*%
X112714920Y-32767840D02*
X110254920Y-32767840D01*
X112714920Y-31297840D02*
X112714920Y-32767840D01*
X110254920Y-31297840D02*
X112714920Y-31297840D01*
%TO.C,C32*%
X127332280Y-38420333D02*
X127332280Y-38762867D01*
X126312280Y-38420333D02*
X126312280Y-38762867D01*
%TO.C,C31*%
X125514600Y-38424933D02*
X125514600Y-38767467D01*
X124494600Y-38424933D02*
X124494600Y-38767467D01*
%TO.C,C30*%
X123680680Y-38374133D02*
X123680680Y-38716667D01*
X122660680Y-38374133D02*
X122660680Y-38716667D01*
%TO.C,C29*%
X120999560Y-29653947D02*
X120999560Y-29311413D01*
X122019560Y-29653947D02*
X122019560Y-29311413D01*
%TO.C,C28*%
X123863053Y-32178160D02*
X124205587Y-32178160D01*
X123863053Y-33198160D02*
X124205587Y-33198160D01*
%TO.C,C27*%
X123858973Y-33825040D02*
X124201507Y-33825040D01*
X123858973Y-34845040D02*
X124201507Y-34845040D01*
%TO.C,C26*%
X123858973Y-35489480D02*
X124201507Y-35489480D01*
X123858973Y-36509480D02*
X124201507Y-36509480D01*
%TO.C,C25*%
X111302387Y-39324640D02*
X110959853Y-39324640D01*
X111302387Y-38304640D02*
X110959853Y-38304640D01*
%TO.C,C24*%
X111348107Y-37607600D02*
X111005573Y-37607600D01*
X111348107Y-36587600D02*
X111005573Y-36587600D01*
%TO.C,C23*%
X111393827Y-35890560D02*
X111051293Y-35890560D01*
X111393827Y-34870560D02*
X111051293Y-34870560D01*
%TO.C,C22*%
X116260000Y-40678733D02*
X116260000Y-41021267D01*
X115240000Y-40678733D02*
X115240000Y-41021267D01*
%TO.C,C21*%
X120010000Y-40708733D02*
X120010000Y-41051267D01*
X118990000Y-40708733D02*
X118990000Y-41051267D01*
%TO.C,U7*%
X115090000Y-32470000D02*
X115090000Y-36640000D01*
X119990000Y-32470000D02*
X115090000Y-32470000D01*
X119990000Y-37670000D02*
X119990000Y-32470000D01*
X115890000Y-37670000D02*
X119990000Y-37670000D01*
X115090000Y-36640000D02*
X115890000Y-37670000D01*
%TD*%
%TO.C,JP4*%
D13*
X117353333Y-64816666D02*
X117353333Y-65316666D01*
X117386666Y-65416666D01*
X117453333Y-65483333D01*
X117553333Y-65516666D01*
X117620000Y-65516666D01*
X117020000Y-65516666D02*
X117020000Y-64816666D01*
X116753333Y-64816666D01*
X116686666Y-64850000D01*
X116653333Y-64883333D01*
X116620000Y-64950000D01*
X116620000Y-65050000D01*
X116653333Y-65116666D01*
X116686666Y-65150000D01*
X116753333Y-65183333D01*
X117020000Y-65183333D01*
X116020000Y-65050000D02*
X116020000Y-65516666D01*
X116186666Y-64783333D02*
X116353333Y-65283333D01*
X115920000Y-65283333D01*
%TO.C,JP5*%
X117273333Y-67146666D02*
X117273333Y-67646666D01*
X117306666Y-67746666D01*
X117373333Y-67813333D01*
X117473333Y-67846666D01*
X117540000Y-67846666D01*
X116940000Y-67846666D02*
X116940000Y-67146666D01*
X116673333Y-67146666D01*
X116606666Y-67180000D01*
X116573333Y-67213333D01*
X116540000Y-67280000D01*
X116540000Y-67380000D01*
X116573333Y-67446666D01*
X116606666Y-67480000D01*
X116673333Y-67513333D01*
X116940000Y-67513333D01*
X115906666Y-67146666D02*
X116240000Y-67146666D01*
X116273333Y-67480000D01*
X116240000Y-67446666D01*
X116173333Y-67413333D01*
X116006666Y-67413333D01*
X115940000Y-67446666D01*
X115906666Y-67480000D01*
X115873333Y-67546666D01*
X115873333Y-67713333D01*
X115906666Y-67780000D01*
X115940000Y-67813333D01*
X116006666Y-67846666D01*
X116173333Y-67846666D01*
X116240000Y-67813333D01*
X116273333Y-67780000D01*
%TO.C,JP6*%
X117333333Y-69826666D02*
X117333333Y-70326666D01*
X117366666Y-70426666D01*
X117433333Y-70493333D01*
X117533333Y-70526666D01*
X117600000Y-70526666D01*
X117000000Y-70526666D02*
X117000000Y-69826666D01*
X116733333Y-69826666D01*
X116666666Y-69860000D01*
X116633333Y-69893333D01*
X116600000Y-69960000D01*
X116600000Y-70060000D01*
X116633333Y-70126666D01*
X116666666Y-70160000D01*
X116733333Y-70193333D01*
X117000000Y-70193333D01*
X116000000Y-69826666D02*
X116133333Y-69826666D01*
X116200000Y-69860000D01*
X116233333Y-69893333D01*
X116300000Y-69993333D01*
X116333333Y-70126666D01*
X116333333Y-70393333D01*
X116300000Y-70460000D01*
X116266666Y-70493333D01*
X116200000Y-70526666D01*
X116066666Y-70526666D01*
X116000000Y-70493333D01*
X115966666Y-70460000D01*
X115933333Y-70393333D01*
X115933333Y-70226666D01*
X115966666Y-70160000D01*
X116000000Y-70126666D01*
X116066666Y-70093333D01*
X116200000Y-70093333D01*
X116266666Y-70126666D01*
X116300000Y-70160000D01*
X116333333Y-70226666D01*
%TO.C,JP7*%
X117393333Y-61956666D02*
X117393333Y-62456666D01*
X117426666Y-62556666D01*
X117493333Y-62623333D01*
X117593333Y-62656666D01*
X117660000Y-62656666D01*
X117060000Y-62656666D02*
X117060000Y-61956666D01*
X116793333Y-61956666D01*
X116726666Y-61990000D01*
X116693333Y-62023333D01*
X116660000Y-62090000D01*
X116660000Y-62190000D01*
X116693333Y-62256666D01*
X116726666Y-62290000D01*
X116793333Y-62323333D01*
X117060000Y-62323333D01*
X116426666Y-61956666D02*
X115960000Y-61956666D01*
X116260000Y-62656666D01*
%TO.C,R20*%
X108950000Y-34066666D02*
X109183333Y-33733333D01*
X109350000Y-34066666D02*
X109350000Y-33366666D01*
X109083333Y-33366666D01*
X109016666Y-33400000D01*
X108983333Y-33433333D01*
X108950000Y-33500000D01*
X108950000Y-33600000D01*
X108983333Y-33666666D01*
X109016666Y-33700000D01*
X109083333Y-33733333D01*
X109350000Y-33733333D01*
X108683333Y-33433333D02*
X108650000Y-33400000D01*
X108583333Y-33366666D01*
X108416666Y-33366666D01*
X108350000Y-33400000D01*
X108316666Y-33433333D01*
X108283333Y-33500000D01*
X108283333Y-33566666D01*
X108316666Y-33666666D01*
X108716666Y-34066666D01*
X108283333Y-34066666D01*
X107850000Y-33366666D02*
X107783333Y-33366666D01*
X107716666Y-33400000D01*
X107683333Y-33433333D01*
X107650000Y-33500000D01*
X107616666Y-33633333D01*
X107616666Y-33800000D01*
X107650000Y-33933333D01*
X107683333Y-34000000D01*
X107716666Y-34033333D01*
X107783333Y-34066666D01*
X107850000Y-34066666D01*
X107916666Y-34033333D01*
X107950000Y-34000000D01*
X107983333Y-33933333D01*
X108016666Y-33800000D01*
X108016666Y-33633333D01*
X107983333Y-33500000D01*
X107950000Y-33433333D01*
X107916666Y-33400000D01*
X107850000Y-33366666D01*
%TO.C,R19*%
X128980000Y-41096666D02*
X129213333Y-40763333D01*
X129380000Y-41096666D02*
X129380000Y-40396666D01*
X129113333Y-40396666D01*
X129046666Y-40430000D01*
X129013333Y-40463333D01*
X128980000Y-40530000D01*
X128980000Y-40630000D01*
X129013333Y-40696666D01*
X129046666Y-40730000D01*
X129113333Y-40763333D01*
X129380000Y-40763333D01*
X128313333Y-41096666D02*
X128713333Y-41096666D01*
X128513333Y-41096666D02*
X128513333Y-40396666D01*
X128580000Y-40496666D01*
X128646666Y-40563333D01*
X128713333Y-40596666D01*
X127980000Y-41096666D02*
X127846666Y-41096666D01*
X127780000Y-41063333D01*
X127746666Y-41030000D01*
X127680000Y-40930000D01*
X127646666Y-40796666D01*
X127646666Y-40530000D01*
X127680000Y-40463333D01*
X127713333Y-40430000D01*
X127780000Y-40396666D01*
X127913333Y-40396666D01*
X127980000Y-40430000D01*
X128013333Y-40463333D01*
X128046666Y-40530000D01*
X128046666Y-40696666D01*
X128013333Y-40763333D01*
X127980000Y-40796666D01*
X127913333Y-40830000D01*
X127780000Y-40830000D01*
X127713333Y-40796666D01*
X127680000Y-40763333D01*
X127646666Y-40696666D01*
%TO.C,R18*%
X115390000Y-27776666D02*
X115623333Y-27443333D01*
X115790000Y-27776666D02*
X115790000Y-27076666D01*
X115523333Y-27076666D01*
X115456666Y-27110000D01*
X115423333Y-27143333D01*
X115390000Y-27210000D01*
X115390000Y-27310000D01*
X115423333Y-27376666D01*
X115456666Y-27410000D01*
X115523333Y-27443333D01*
X115790000Y-27443333D01*
X114723333Y-27776666D02*
X115123333Y-27776666D01*
X114923333Y-27776666D02*
X114923333Y-27076666D01*
X114990000Y-27176666D01*
X115056666Y-27243333D01*
X115123333Y-27276666D01*
X114323333Y-27376666D02*
X114390000Y-27343333D01*
X114423333Y-27310000D01*
X114456666Y-27243333D01*
X114456666Y-27210000D01*
X114423333Y-27143333D01*
X114390000Y-27110000D01*
X114323333Y-27076666D01*
X114190000Y-27076666D01*
X114123333Y-27110000D01*
X114090000Y-27143333D01*
X114056666Y-27210000D01*
X114056666Y-27243333D01*
X114090000Y-27310000D01*
X114123333Y-27343333D01*
X114190000Y-27376666D01*
X114323333Y-27376666D01*
X114390000Y-27410000D01*
X114423333Y-27443333D01*
X114456666Y-27510000D01*
X114456666Y-27643333D01*
X114423333Y-27710000D01*
X114390000Y-27743333D01*
X114323333Y-27776666D01*
X114190000Y-27776666D01*
X114123333Y-27743333D01*
X114090000Y-27710000D01*
X114056666Y-27643333D01*
X114056666Y-27510000D01*
X114090000Y-27443333D01*
X114123333Y-27410000D01*
X114190000Y-27376666D01*
%TO.C,R17*%
X112950000Y-27816666D02*
X113183333Y-27483333D01*
X113350000Y-27816666D02*
X113350000Y-27116666D01*
X113083333Y-27116666D01*
X113016666Y-27150000D01*
X112983333Y-27183333D01*
X112950000Y-27250000D01*
X112950000Y-27350000D01*
X112983333Y-27416666D01*
X113016666Y-27450000D01*
X113083333Y-27483333D01*
X113350000Y-27483333D01*
X112283333Y-27816666D02*
X112683333Y-27816666D01*
X112483333Y-27816666D02*
X112483333Y-27116666D01*
X112550000Y-27216666D01*
X112616666Y-27283333D01*
X112683333Y-27316666D01*
X112050000Y-27116666D02*
X111583333Y-27116666D01*
X111883333Y-27816666D01*
%TO.C,R16*%
X110720000Y-27776666D02*
X110953333Y-27443333D01*
X111120000Y-27776666D02*
X111120000Y-27076666D01*
X110853333Y-27076666D01*
X110786666Y-27110000D01*
X110753333Y-27143333D01*
X110720000Y-27210000D01*
X110720000Y-27310000D01*
X110753333Y-27376666D01*
X110786666Y-27410000D01*
X110853333Y-27443333D01*
X111120000Y-27443333D01*
X110053333Y-27776666D02*
X110453333Y-27776666D01*
X110253333Y-27776666D02*
X110253333Y-27076666D01*
X110320000Y-27176666D01*
X110386666Y-27243333D01*
X110453333Y-27276666D01*
X109453333Y-27076666D02*
X109586666Y-27076666D01*
X109653333Y-27110000D01*
X109686666Y-27143333D01*
X109753333Y-27243333D01*
X109786666Y-27376666D01*
X109786666Y-27643333D01*
X109753333Y-27710000D01*
X109720000Y-27743333D01*
X109653333Y-27776666D01*
X109520000Y-27776666D01*
X109453333Y-27743333D01*
X109420000Y-27710000D01*
X109386666Y-27643333D01*
X109386666Y-27476666D01*
X109420000Y-27410000D01*
X109453333Y-27376666D01*
X109520000Y-27343333D01*
X109653333Y-27343333D01*
X109720000Y-27376666D01*
X109753333Y-27410000D01*
X109786666Y-27476666D01*
%TO.C,R14*%
X117950000Y-31816666D02*
X118183333Y-31483333D01*
X118350000Y-31816666D02*
X118350000Y-31116666D01*
X118083333Y-31116666D01*
X118016666Y-31150000D01*
X117983333Y-31183333D01*
X117950000Y-31250000D01*
X117950000Y-31350000D01*
X117983333Y-31416666D01*
X118016666Y-31450000D01*
X118083333Y-31483333D01*
X118350000Y-31483333D01*
X117283333Y-31816666D02*
X117683333Y-31816666D01*
X117483333Y-31816666D02*
X117483333Y-31116666D01*
X117550000Y-31216666D01*
X117616666Y-31283333D01*
X117683333Y-31316666D01*
X116683333Y-31350000D02*
X116683333Y-31816666D01*
X116850000Y-31083333D02*
X117016666Y-31583333D01*
X116583333Y-31583333D01*
%TO.C,R13*%
X119930000Y-31876666D02*
X120163333Y-31543333D01*
X120330000Y-31876666D02*
X120330000Y-31176666D01*
X120063333Y-31176666D01*
X119996666Y-31210000D01*
X119963333Y-31243333D01*
X119930000Y-31310000D01*
X119930000Y-31410000D01*
X119963333Y-31476666D01*
X119996666Y-31510000D01*
X120063333Y-31543333D01*
X120330000Y-31543333D01*
X119263333Y-31876666D02*
X119663333Y-31876666D01*
X119463333Y-31876666D02*
X119463333Y-31176666D01*
X119530000Y-31276666D01*
X119596666Y-31343333D01*
X119663333Y-31376666D01*
X119030000Y-31176666D02*
X118596666Y-31176666D01*
X118830000Y-31443333D01*
X118730000Y-31443333D01*
X118663333Y-31476666D01*
X118630000Y-31510000D01*
X118596666Y-31576666D01*
X118596666Y-31743333D01*
X118630000Y-31810000D01*
X118663333Y-31843333D01*
X118730000Y-31876666D01*
X118930000Y-31876666D01*
X118996666Y-31843333D01*
X119030000Y-31810000D01*
%TO.C,D3*%
X109266666Y-32316666D02*
X109266666Y-31616666D01*
X109100000Y-31616666D01*
X109000000Y-31650000D01*
X108933333Y-31716666D01*
X108900000Y-31783333D01*
X108866666Y-31916666D01*
X108866666Y-32016666D01*
X108900000Y-32150000D01*
X108933333Y-32216666D01*
X109000000Y-32283333D01*
X109100000Y-32316666D01*
X109266666Y-32316666D01*
X108633333Y-31616666D02*
X108200000Y-31616666D01*
X108433333Y-31883333D01*
X108333333Y-31883333D01*
X108266666Y-31916666D01*
X108233333Y-31950000D01*
X108200000Y-32016666D01*
X108200000Y-32183333D01*
X108233333Y-32250000D01*
X108266666Y-32283333D01*
X108333333Y-32316666D01*
X108533333Y-32316666D01*
X108600000Y-32283333D01*
X108633333Y-32250000D01*
%TO.C,C32*%
X127370000Y-41870000D02*
X127403333Y-41903333D01*
X127503333Y-41936666D01*
X127570000Y-41936666D01*
X127670000Y-41903333D01*
X127736666Y-41836666D01*
X127770000Y-41770000D01*
X127803333Y-41636666D01*
X127803333Y-41536666D01*
X127770000Y-41403333D01*
X127736666Y-41336666D01*
X127670000Y-41270000D01*
X127570000Y-41236666D01*
X127503333Y-41236666D01*
X127403333Y-41270000D01*
X127370000Y-41303333D01*
X127136666Y-41236666D02*
X126703333Y-41236666D01*
X126936666Y-41503333D01*
X126836666Y-41503333D01*
X126770000Y-41536666D01*
X126736666Y-41570000D01*
X126703333Y-41636666D01*
X126703333Y-41803333D01*
X126736666Y-41870000D01*
X126770000Y-41903333D01*
X126836666Y-41936666D01*
X127036666Y-41936666D01*
X127103333Y-41903333D01*
X127136666Y-41870000D01*
X126436666Y-41303333D02*
X126403333Y-41270000D01*
X126336666Y-41236666D01*
X126170000Y-41236666D01*
X126103333Y-41270000D01*
X126070000Y-41303333D01*
X126036666Y-41370000D01*
X126036666Y-41436666D01*
X126070000Y-41536666D01*
X126470000Y-41936666D01*
X126036666Y-41936666D01*
%TO.C,C31*%
X125470000Y-41080000D02*
X125503333Y-41113333D01*
X125603333Y-41146666D01*
X125670000Y-41146666D01*
X125770000Y-41113333D01*
X125836666Y-41046666D01*
X125870000Y-40980000D01*
X125903333Y-40846666D01*
X125903333Y-40746666D01*
X125870000Y-40613333D01*
X125836666Y-40546666D01*
X125770000Y-40480000D01*
X125670000Y-40446666D01*
X125603333Y-40446666D01*
X125503333Y-40480000D01*
X125470000Y-40513333D01*
X125236666Y-40446666D02*
X124803333Y-40446666D01*
X125036666Y-40713333D01*
X124936666Y-40713333D01*
X124870000Y-40746666D01*
X124836666Y-40780000D01*
X124803333Y-40846666D01*
X124803333Y-41013333D01*
X124836666Y-41080000D01*
X124870000Y-41113333D01*
X124936666Y-41146666D01*
X125136666Y-41146666D01*
X125203333Y-41113333D01*
X125236666Y-41080000D01*
X124136666Y-41146666D02*
X124536666Y-41146666D01*
X124336666Y-41146666D02*
X124336666Y-40446666D01*
X124403333Y-40546666D01*
X124470000Y-40613333D01*
X124536666Y-40646666D01*
%TO.C,C30*%
X123500000Y-41910000D02*
X123533333Y-41943333D01*
X123633333Y-41976666D01*
X123700000Y-41976666D01*
X123800000Y-41943333D01*
X123866666Y-41876666D01*
X123900000Y-41810000D01*
X123933333Y-41676666D01*
X123933333Y-41576666D01*
X123900000Y-41443333D01*
X123866666Y-41376666D01*
X123800000Y-41310000D01*
X123700000Y-41276666D01*
X123633333Y-41276666D01*
X123533333Y-41310000D01*
X123500000Y-41343333D01*
X123266666Y-41276666D02*
X122833333Y-41276666D01*
X123066666Y-41543333D01*
X122966666Y-41543333D01*
X122900000Y-41576666D01*
X122866666Y-41610000D01*
X122833333Y-41676666D01*
X122833333Y-41843333D01*
X122866666Y-41910000D01*
X122900000Y-41943333D01*
X122966666Y-41976666D01*
X123166666Y-41976666D01*
X123233333Y-41943333D01*
X123266666Y-41910000D01*
X122400000Y-41276666D02*
X122333333Y-41276666D01*
X122266666Y-41310000D01*
X122233333Y-41343333D01*
X122200000Y-41410000D01*
X122166666Y-41543333D01*
X122166666Y-41710000D01*
X122200000Y-41843333D01*
X122233333Y-41910000D01*
X122266666Y-41943333D01*
X122333333Y-41976666D01*
X122400000Y-41976666D01*
X122466666Y-41943333D01*
X122500000Y-41910000D01*
X122533333Y-41843333D01*
X122566666Y-41710000D01*
X122566666Y-41543333D01*
X122533333Y-41410000D01*
X122500000Y-41343333D01*
X122466666Y-41310000D01*
X122400000Y-41276666D01*
%TO.C,C29*%
X123770000Y-29680000D02*
X123803333Y-29713333D01*
X123903333Y-29746666D01*
X123970000Y-29746666D01*
X124070000Y-29713333D01*
X124136666Y-29646666D01*
X124170000Y-29580000D01*
X124203333Y-29446666D01*
X124203333Y-29346666D01*
X124170000Y-29213333D01*
X124136666Y-29146666D01*
X124070000Y-29080000D01*
X123970000Y-29046666D01*
X123903333Y-29046666D01*
X123803333Y-29080000D01*
X123770000Y-29113333D01*
X123503333Y-29113333D02*
X123470000Y-29080000D01*
X123403333Y-29046666D01*
X123236666Y-29046666D01*
X123170000Y-29080000D01*
X123136666Y-29113333D01*
X123103333Y-29180000D01*
X123103333Y-29246666D01*
X123136666Y-29346666D01*
X123536666Y-29746666D01*
X123103333Y-29746666D01*
X122770000Y-29746666D02*
X122636666Y-29746666D01*
X122570000Y-29713333D01*
X122536666Y-29680000D01*
X122470000Y-29580000D01*
X122436666Y-29446666D01*
X122436666Y-29180000D01*
X122470000Y-29113333D01*
X122503333Y-29080000D01*
X122570000Y-29046666D01*
X122703333Y-29046666D01*
X122770000Y-29080000D01*
X122803333Y-29113333D01*
X122836666Y-29180000D01*
X122836666Y-29346666D01*
X122803333Y-29413333D01*
X122770000Y-29446666D01*
X122703333Y-29480000D01*
X122570000Y-29480000D01*
X122503333Y-29446666D01*
X122470000Y-29413333D01*
X122436666Y-29346666D01*
%TO.C,C28*%
X127850000Y-32970000D02*
X127883333Y-33003333D01*
X127983333Y-33036666D01*
X128050000Y-33036666D01*
X128150000Y-33003333D01*
X128216666Y-32936666D01*
X128250000Y-32870000D01*
X128283333Y-32736666D01*
X128283333Y-32636666D01*
X128250000Y-32503333D01*
X128216666Y-32436666D01*
X128150000Y-32370000D01*
X128050000Y-32336666D01*
X127983333Y-32336666D01*
X127883333Y-32370000D01*
X127850000Y-32403333D01*
X127583333Y-32403333D02*
X127550000Y-32370000D01*
X127483333Y-32336666D01*
X127316666Y-32336666D01*
X127250000Y-32370000D01*
X127216666Y-32403333D01*
X127183333Y-32470000D01*
X127183333Y-32536666D01*
X127216666Y-32636666D01*
X127616666Y-33036666D01*
X127183333Y-33036666D01*
X126783333Y-32636666D02*
X126850000Y-32603333D01*
X126883333Y-32570000D01*
X126916666Y-32503333D01*
X126916666Y-32470000D01*
X126883333Y-32403333D01*
X126850000Y-32370000D01*
X126783333Y-32336666D01*
X126650000Y-32336666D01*
X126583333Y-32370000D01*
X126550000Y-32403333D01*
X126516666Y-32470000D01*
X126516666Y-32503333D01*
X126550000Y-32570000D01*
X126583333Y-32603333D01*
X126650000Y-32636666D01*
X126783333Y-32636666D01*
X126850000Y-32670000D01*
X126883333Y-32703333D01*
X126916666Y-32770000D01*
X126916666Y-32903333D01*
X126883333Y-32970000D01*
X126850000Y-33003333D01*
X126783333Y-33036666D01*
X126650000Y-33036666D01*
X126583333Y-33003333D01*
X126550000Y-32970000D01*
X126516666Y-32903333D01*
X126516666Y-32770000D01*
X126550000Y-32703333D01*
X126583333Y-32670000D01*
X126650000Y-32636666D01*
%TO.C,C27*%
X127850000Y-34750000D02*
X127883333Y-34783333D01*
X127983333Y-34816666D01*
X128050000Y-34816666D01*
X128150000Y-34783333D01*
X128216666Y-34716666D01*
X128250000Y-34650000D01*
X128283333Y-34516666D01*
X128283333Y-34416666D01*
X128250000Y-34283333D01*
X128216666Y-34216666D01*
X128150000Y-34150000D01*
X128050000Y-34116666D01*
X127983333Y-34116666D01*
X127883333Y-34150000D01*
X127850000Y-34183333D01*
X127583333Y-34183333D02*
X127550000Y-34150000D01*
X127483333Y-34116666D01*
X127316666Y-34116666D01*
X127250000Y-34150000D01*
X127216666Y-34183333D01*
X127183333Y-34250000D01*
X127183333Y-34316666D01*
X127216666Y-34416666D01*
X127616666Y-34816666D01*
X127183333Y-34816666D01*
X126950000Y-34116666D02*
X126483333Y-34116666D01*
X126783333Y-34816666D01*
%TO.C,C26*%
X127970000Y-36450000D02*
X128003333Y-36483333D01*
X128103333Y-36516666D01*
X128170000Y-36516666D01*
X128270000Y-36483333D01*
X128336666Y-36416666D01*
X128370000Y-36350000D01*
X128403333Y-36216666D01*
X128403333Y-36116666D01*
X128370000Y-35983333D01*
X128336666Y-35916666D01*
X128270000Y-35850000D01*
X128170000Y-35816666D01*
X128103333Y-35816666D01*
X128003333Y-35850000D01*
X127970000Y-35883333D01*
X127703333Y-35883333D02*
X127670000Y-35850000D01*
X127603333Y-35816666D01*
X127436666Y-35816666D01*
X127370000Y-35850000D01*
X127336666Y-35883333D01*
X127303333Y-35950000D01*
X127303333Y-36016666D01*
X127336666Y-36116666D01*
X127736666Y-36516666D01*
X127303333Y-36516666D01*
X126703333Y-35816666D02*
X126836666Y-35816666D01*
X126903333Y-35850000D01*
X126936666Y-35883333D01*
X127003333Y-35983333D01*
X127036666Y-36116666D01*
X127036666Y-36383333D01*
X127003333Y-36450000D01*
X126970000Y-36483333D01*
X126903333Y-36516666D01*
X126770000Y-36516666D01*
X126703333Y-36483333D01*
X126670000Y-36450000D01*
X126636666Y-36383333D01*
X126636666Y-36216666D01*
X126670000Y-36150000D01*
X126703333Y-36116666D01*
X126770000Y-36083333D01*
X126903333Y-36083333D01*
X126970000Y-36116666D01*
X127003333Y-36150000D01*
X127036666Y-36216666D01*
%TO.C,C25*%
X108900000Y-39070000D02*
X108933333Y-39103333D01*
X109033333Y-39136666D01*
X109100000Y-39136666D01*
X109200000Y-39103333D01*
X109266666Y-39036666D01*
X109300000Y-38970000D01*
X109333333Y-38836666D01*
X109333333Y-38736666D01*
X109300000Y-38603333D01*
X109266666Y-38536666D01*
X109200000Y-38470000D01*
X109100000Y-38436666D01*
X109033333Y-38436666D01*
X108933333Y-38470000D01*
X108900000Y-38503333D01*
X108633333Y-38503333D02*
X108600000Y-38470000D01*
X108533333Y-38436666D01*
X108366666Y-38436666D01*
X108300000Y-38470000D01*
X108266666Y-38503333D01*
X108233333Y-38570000D01*
X108233333Y-38636666D01*
X108266666Y-38736666D01*
X108666666Y-39136666D01*
X108233333Y-39136666D01*
X107600000Y-38436666D02*
X107933333Y-38436666D01*
X107966666Y-38770000D01*
X107933333Y-38736666D01*
X107866666Y-38703333D01*
X107700000Y-38703333D01*
X107633333Y-38736666D01*
X107600000Y-38770000D01*
X107566666Y-38836666D01*
X107566666Y-39003333D01*
X107600000Y-39070000D01*
X107633333Y-39103333D01*
X107700000Y-39136666D01*
X107866666Y-39136666D01*
X107933333Y-39103333D01*
X107966666Y-39070000D01*
%TO.C,C24*%
X109080000Y-37327280D02*
X109113333Y-37360613D01*
X109213333Y-37393946D01*
X109280000Y-37393946D01*
X109380000Y-37360613D01*
X109446666Y-37293946D01*
X109480000Y-37227280D01*
X109513333Y-37093946D01*
X109513333Y-36993946D01*
X109480000Y-36860613D01*
X109446666Y-36793946D01*
X109380000Y-36727280D01*
X109280000Y-36693946D01*
X109213333Y-36693946D01*
X109113333Y-36727280D01*
X109080000Y-36760613D01*
X108813333Y-36760613D02*
X108780000Y-36727280D01*
X108713333Y-36693946D01*
X108546666Y-36693946D01*
X108480000Y-36727280D01*
X108446666Y-36760613D01*
X108413333Y-36827280D01*
X108413333Y-36893946D01*
X108446666Y-36993946D01*
X108846666Y-37393946D01*
X108413333Y-37393946D01*
X107813333Y-36927280D02*
X107813333Y-37393946D01*
X107980000Y-36660613D02*
X108146666Y-37160613D01*
X107713333Y-37160613D01*
%TO.C,C23*%
X108950000Y-35620000D02*
X108983333Y-35653333D01*
X109083333Y-35686666D01*
X109150000Y-35686666D01*
X109250000Y-35653333D01*
X109316666Y-35586666D01*
X109350000Y-35520000D01*
X109383333Y-35386666D01*
X109383333Y-35286666D01*
X109350000Y-35153333D01*
X109316666Y-35086666D01*
X109250000Y-35020000D01*
X109150000Y-34986666D01*
X109083333Y-34986666D01*
X108983333Y-35020000D01*
X108950000Y-35053333D01*
X108683333Y-35053333D02*
X108650000Y-35020000D01*
X108583333Y-34986666D01*
X108416666Y-34986666D01*
X108350000Y-35020000D01*
X108316666Y-35053333D01*
X108283333Y-35120000D01*
X108283333Y-35186666D01*
X108316666Y-35286666D01*
X108716666Y-35686666D01*
X108283333Y-35686666D01*
X108050000Y-34986666D02*
X107616666Y-34986666D01*
X107850000Y-35253333D01*
X107750000Y-35253333D01*
X107683333Y-35286666D01*
X107650000Y-35320000D01*
X107616666Y-35386666D01*
X107616666Y-35553333D01*
X107650000Y-35620000D01*
X107683333Y-35653333D01*
X107750000Y-35686666D01*
X107950000Y-35686666D01*
X108016666Y-35653333D01*
X108050000Y-35620000D01*
%TO.C,C22*%
X116300000Y-43280000D02*
X116333333Y-43313333D01*
X116433333Y-43346666D01*
X116500000Y-43346666D01*
X116600000Y-43313333D01*
X116666666Y-43246666D01*
X116700000Y-43180000D01*
X116733333Y-43046666D01*
X116733333Y-42946666D01*
X116700000Y-42813333D01*
X116666666Y-42746666D01*
X116600000Y-42680000D01*
X116500000Y-42646666D01*
X116433333Y-42646666D01*
X116333333Y-42680000D01*
X116300000Y-42713333D01*
X116033333Y-42713333D02*
X116000000Y-42680000D01*
X115933333Y-42646666D01*
X115766666Y-42646666D01*
X115700000Y-42680000D01*
X115666666Y-42713333D01*
X115633333Y-42780000D01*
X115633333Y-42846666D01*
X115666666Y-42946666D01*
X116066666Y-43346666D01*
X115633333Y-43346666D01*
X115366666Y-42713333D02*
X115333333Y-42680000D01*
X115266666Y-42646666D01*
X115100000Y-42646666D01*
X115033333Y-42680000D01*
X115000000Y-42713333D01*
X114966666Y-42780000D01*
X114966666Y-42846666D01*
X115000000Y-42946666D01*
X115400000Y-43346666D01*
X114966666Y-43346666D01*
%TO.C,C21*%
X119790000Y-43330000D02*
X119823333Y-43363333D01*
X119923333Y-43396666D01*
X119990000Y-43396666D01*
X120090000Y-43363333D01*
X120156666Y-43296666D01*
X120190000Y-43230000D01*
X120223333Y-43096666D01*
X120223333Y-42996666D01*
X120190000Y-42863333D01*
X120156666Y-42796666D01*
X120090000Y-42730000D01*
X119990000Y-42696666D01*
X119923333Y-42696666D01*
X119823333Y-42730000D01*
X119790000Y-42763333D01*
X119523333Y-42763333D02*
X119490000Y-42730000D01*
X119423333Y-42696666D01*
X119256666Y-42696666D01*
X119190000Y-42730000D01*
X119156666Y-42763333D01*
X119123333Y-42830000D01*
X119123333Y-42896666D01*
X119156666Y-42996666D01*
X119556666Y-43396666D01*
X119123333Y-43396666D01*
X118456666Y-43396666D02*
X118856666Y-43396666D01*
X118656666Y-43396666D02*
X118656666Y-42696666D01*
X118723333Y-42796666D01*
X118790000Y-42863333D01*
X118856666Y-42896666D01*
%TO.C,U7*%
X118119853Y-38502906D02*
X118119853Y-39069573D01*
X118086520Y-39136240D01*
X118053186Y-39169573D01*
X117986520Y-39202906D01*
X117853186Y-39202906D01*
X117786520Y-39169573D01*
X117753186Y-39136240D01*
X117719853Y-39069573D01*
X117719853Y-38502906D01*
X117453186Y-38502906D02*
X116986520Y-38502906D01*
X117286520Y-39202906D01*
%TD*%
M02*
