%TF.GenerationSoftware,KiCad,Pcbnew,5.1.5+dfsg1-2build2*%
%TF.CreationDate,2021-04-08T10:41:37-07:00*%
%TF.ProjectId,spl_prototype,73706c5f-7072-46f7-946f-747970652e6b,rev?*%
%TF.SameCoordinates,Original*%
%TF.FileFunction,Copper,L4,Bot*%
%TF.FilePolarity,Positive*%
%FSLAX46Y46*%
G04 Gerber Fmt 4.6, Leading zero omitted, Abs format (unit mm)*
G04 Created by KiCad (PCBNEW 5.1.5+dfsg1-2build2) date 2021-04-08 10:41:37*
%MOMM*%
%LPD*%
G04 APERTURE LIST*
%TA.AperFunction,Profile*%
%ADD10C,0.050000*%
%TD*%
%TA.AperFunction,ComponentPad*%
%ADD11C,0.100000*%
%TD*%
%TA.AperFunction,ComponentPad*%
%ADD12O,2.000000X1.700000*%
%TD*%
%TA.AperFunction,SMDPad,CuDef*%
%ADD13R,1.000000X1.500000*%
%TD*%
%TA.AperFunction,ComponentPad*%
%ADD14O,1.400000X1.400000*%
%TD*%
%TA.AperFunction,ComponentPad*%
%ADD15C,1.400000*%
%TD*%
%TA.AperFunction,ComponentPad*%
%ADD16C,0.920000*%
%TD*%
%TA.AperFunction,SMDPad,CuDef*%
%ADD17C,0.100000*%
%TD*%
%TA.AperFunction,ComponentPad*%
%ADD18R,1.700000X1.700000*%
%TD*%
%TA.AperFunction,ComponentPad*%
%ADD19O,1.700000X1.700000*%
%TD*%
%TA.AperFunction,ComponentPad*%
%ADD20C,0.200000*%
%TD*%
%TA.AperFunction,SMDPad,CuDef*%
%ADD21R,0.240000X1.200000*%
%TD*%
%TA.AperFunction,SMDPad,CuDef*%
%ADD22R,1.200000X0.240000*%
%TD*%
%TA.AperFunction,ViaPad*%
%ADD23C,4.000000*%
%TD*%
%TA.AperFunction,ViaPad*%
%ADD24C,0.635000*%
%TD*%
%TA.AperFunction,ViaPad*%
%ADD25C,0.800000*%
%TD*%
%TA.AperFunction,Conductor*%
%ADD26C,0.250000*%
%TD*%
%TA.AperFunction,Conductor*%
%ADD27C,0.635000*%
%TD*%
%TA.AperFunction,Conductor*%
%ADD28C,0.381000*%
%TD*%
G04 APERTURE END LIST*
D10*
X97000000Y-44759201D02*
X96960034Y-25501071D01*
X132420000Y-46300000D02*
X98500649Y-46300000D01*
X134030000Y-25590649D02*
X134027699Y-44839584D01*
X98560000Y-23940799D02*
X132469351Y-23960000D01*
X132468914Y-23957945D02*
G75*
G02X134030000Y-25590649I11087J-1552056D01*
G01*
X134027699Y-44839584D02*
G75*
G02X132420000Y-46300000I-1457700J-10417D01*
G01*
X98500649Y-46300000D02*
G75*
G02X97000000Y-44759201I-10650J1490800D01*
G01*
X96960034Y-25501071D02*
G75*
G02X98560000Y-23940799I1549967J11072D01*
G01*
X89700000Y-78720000D02*
X89709201Y-54740649D01*
X143120000Y-80390000D02*
X91200649Y-80260799D01*
X144640000Y-55030000D02*
X144660799Y-78889351D01*
X91250000Y-53240000D02*
X143140000Y-53490000D01*
X144660799Y-78889351D02*
G75*
G02X143120000Y-80390000I-1490800J-10650D01*
G01*
X91200649Y-80260799D02*
G75*
G02X89700000Y-78720000I-10650J1490800D01*
G01*
X143139351Y-53489201D02*
G75*
G02X144640000Y-55030000I10650J-1490800D01*
G01*
X89709201Y-54740649D02*
G75*
G02X91250000Y-53240000I1490800J10650D01*
G01*
%TA.AperFunction,ComponentPad*%
D11*
%TO.P,J8,1*%
%TO.N,GNDD*%
G36*
X142454504Y-64601204D02*
G01*
X142478773Y-64604804D01*
X142502571Y-64610765D01*
X142525671Y-64619030D01*
X142547849Y-64629520D01*
X142568893Y-64642133D01*
X142588598Y-64656747D01*
X142606777Y-64673223D01*
X142623253Y-64691402D01*
X142637867Y-64711107D01*
X142650480Y-64732151D01*
X142660970Y-64754329D01*
X142669235Y-64777429D01*
X142675196Y-64801227D01*
X142678796Y-64825496D01*
X142680000Y-64850000D01*
X142680000Y-66050000D01*
X142678796Y-66074504D01*
X142675196Y-66098773D01*
X142669235Y-66122571D01*
X142660970Y-66145671D01*
X142650480Y-66167849D01*
X142637867Y-66188893D01*
X142623253Y-66208598D01*
X142606777Y-66226777D01*
X142588598Y-66243253D01*
X142568893Y-66257867D01*
X142547849Y-66270480D01*
X142525671Y-66280970D01*
X142502571Y-66289235D01*
X142478773Y-66295196D01*
X142454504Y-66298796D01*
X142430000Y-66300000D01*
X140930000Y-66300000D01*
X140905496Y-66298796D01*
X140881227Y-66295196D01*
X140857429Y-66289235D01*
X140834329Y-66280970D01*
X140812151Y-66270480D01*
X140791107Y-66257867D01*
X140771402Y-66243253D01*
X140753223Y-66226777D01*
X140736747Y-66208598D01*
X140722133Y-66188893D01*
X140709520Y-66167849D01*
X140699030Y-66145671D01*
X140690765Y-66122571D01*
X140684804Y-66098773D01*
X140681204Y-66074504D01*
X140680000Y-66050000D01*
X140680000Y-64850000D01*
X140681204Y-64825496D01*
X140684804Y-64801227D01*
X140690765Y-64777429D01*
X140699030Y-64754329D01*
X140709520Y-64732151D01*
X140722133Y-64711107D01*
X140736747Y-64691402D01*
X140753223Y-64673223D01*
X140771402Y-64656747D01*
X140791107Y-64642133D01*
X140812151Y-64629520D01*
X140834329Y-64619030D01*
X140857429Y-64610765D01*
X140881227Y-64604804D01*
X140905496Y-64601204D01*
X140930000Y-64600000D01*
X142430000Y-64600000D01*
X142454504Y-64601204D01*
G37*
%TD.AperFunction*%
D12*
%TO.P,J8,2*%
%TO.N,/STM32SUPPLY*%
X141680000Y-67950000D03*
%TD*%
%TO.P,J5,2*%
%TO.N,/STM32SUPPLY_SRC*%
X130610000Y-33760000D03*
%TA.AperFunction,ComponentPad*%
D11*
%TO.P,J5,1*%
%TO.N,GND*%
G36*
X131384504Y-35411204D02*
G01*
X131408773Y-35414804D01*
X131432571Y-35420765D01*
X131455671Y-35429030D01*
X131477849Y-35439520D01*
X131498893Y-35452133D01*
X131518598Y-35466747D01*
X131536777Y-35483223D01*
X131553253Y-35501402D01*
X131567867Y-35521107D01*
X131580480Y-35542151D01*
X131590970Y-35564329D01*
X131599235Y-35587429D01*
X131605196Y-35611227D01*
X131608796Y-35635496D01*
X131610000Y-35660000D01*
X131610000Y-36860000D01*
X131608796Y-36884504D01*
X131605196Y-36908773D01*
X131599235Y-36932571D01*
X131590970Y-36955671D01*
X131580480Y-36977849D01*
X131567867Y-36998893D01*
X131553253Y-37018598D01*
X131536777Y-37036777D01*
X131518598Y-37053253D01*
X131498893Y-37067867D01*
X131477849Y-37080480D01*
X131455671Y-37090970D01*
X131432571Y-37099235D01*
X131408773Y-37105196D01*
X131384504Y-37108796D01*
X131360000Y-37110000D01*
X129860000Y-37110000D01*
X129835496Y-37108796D01*
X129811227Y-37105196D01*
X129787429Y-37099235D01*
X129764329Y-37090970D01*
X129742151Y-37080480D01*
X129721107Y-37067867D01*
X129701402Y-37053253D01*
X129683223Y-37036777D01*
X129666747Y-37018598D01*
X129652133Y-36998893D01*
X129639520Y-36977849D01*
X129629030Y-36955671D01*
X129620765Y-36932571D01*
X129614804Y-36908773D01*
X129611204Y-36884504D01*
X129610000Y-36860000D01*
X129610000Y-35660000D01*
X129611204Y-35635496D01*
X129614804Y-35611227D01*
X129620765Y-35587429D01*
X129629030Y-35564329D01*
X129639520Y-35542151D01*
X129652133Y-35521107D01*
X129666747Y-35501402D01*
X129683223Y-35483223D01*
X129701402Y-35466747D01*
X129721107Y-35452133D01*
X129742151Y-35439520D01*
X129764329Y-35429030D01*
X129787429Y-35420765D01*
X129811227Y-35414804D01*
X129835496Y-35411204D01*
X129860000Y-35410000D01*
X131360000Y-35410000D01*
X131384504Y-35411204D01*
G37*
%TD.AperFunction*%
%TD*%
D13*
%TO.P,JP4,2*%
%TO.N,/SPI1_SCK*%
X120662000Y-64854000D03*
%TO.P,JP4,1*%
%TO.N,Net-(JP4-Pad1)*%
X119362000Y-64854000D03*
%TD*%
%TO.P,JP5,2*%
%TO.N,/SPI1_MISO*%
X120673001Y-67394000D03*
%TO.P,JP5,1*%
%TO.N,Net-(JP5-Pad1)*%
X119373001Y-67394000D03*
%TD*%
%TO.P,JP6,2*%
%TO.N,/SPI1_MOSI*%
X120705001Y-69934000D03*
%TO.P,JP6,1*%
%TO.N,Net-(JP6-Pad1)*%
X119405001Y-69934000D03*
%TD*%
%TO.P,JP7,2*%
%TO.N,/SPI1_SSN*%
X119405001Y-62314000D03*
%TO.P,JP7,1*%
%TO.N,Net-(JP7-Pad1)*%
X120705001Y-62314000D03*
%TD*%
D14*
%TO.P,J6,2*%
%TO.N,Net-(C18-Pad2)*%
X116940000Y-26570000D03*
D15*
%TO.P,J6,1*%
%TO.N,Net-(C21-Pad2)*%
X122020000Y-26570000D03*
%TD*%
D16*
%TO.P,Y1,2*%
%TO.N,Net-(C11-Pad1)*%
X107022140Y-64066220D03*
%TO.P,Y1,1*%
%TO.N,Net-(C10-Pad1)*%
X107022140Y-62966220D03*
%TD*%
%TA.AperFunction,SMDPad,CuDef*%
D17*
%TO.P,R20,2*%
%TO.N,Net-(D3-Pad2)*%
G36*
X110561819Y-33123624D02*
G01*
X110584874Y-33127043D01*
X110607483Y-33132707D01*
X110629427Y-33140559D01*
X110650497Y-33150524D01*
X110670488Y-33162506D01*
X110689208Y-33176390D01*
X110706478Y-33192042D01*
X110722130Y-33209312D01*
X110736014Y-33228032D01*
X110747996Y-33248023D01*
X110757961Y-33269093D01*
X110765813Y-33291037D01*
X110771477Y-33313646D01*
X110774896Y-33336701D01*
X110776040Y-33359980D01*
X110776040Y-33834980D01*
X110774896Y-33858259D01*
X110771477Y-33881314D01*
X110765813Y-33903923D01*
X110757961Y-33925867D01*
X110747996Y-33946937D01*
X110736014Y-33966928D01*
X110722130Y-33985648D01*
X110706478Y-34002918D01*
X110689208Y-34018570D01*
X110670488Y-34032454D01*
X110650497Y-34044436D01*
X110629427Y-34054401D01*
X110607483Y-34062253D01*
X110584874Y-34067917D01*
X110561819Y-34071336D01*
X110538540Y-34072480D01*
X109963540Y-34072480D01*
X109940261Y-34071336D01*
X109917206Y-34067917D01*
X109894597Y-34062253D01*
X109872653Y-34054401D01*
X109851583Y-34044436D01*
X109831592Y-34032454D01*
X109812872Y-34018570D01*
X109795602Y-34002918D01*
X109779950Y-33985648D01*
X109766066Y-33966928D01*
X109754084Y-33946937D01*
X109744119Y-33925867D01*
X109736267Y-33903923D01*
X109730603Y-33881314D01*
X109727184Y-33858259D01*
X109726040Y-33834980D01*
X109726040Y-33359980D01*
X109727184Y-33336701D01*
X109730603Y-33313646D01*
X109736267Y-33291037D01*
X109744119Y-33269093D01*
X109754084Y-33248023D01*
X109766066Y-33228032D01*
X109779950Y-33209312D01*
X109795602Y-33192042D01*
X109812872Y-33176390D01*
X109831592Y-33162506D01*
X109851583Y-33150524D01*
X109872653Y-33140559D01*
X109894597Y-33132707D01*
X109917206Y-33127043D01*
X109940261Y-33123624D01*
X109963540Y-33122480D01*
X110538540Y-33122480D01*
X110561819Y-33123624D01*
G37*
%TD.AperFunction*%
%TA.AperFunction,SMDPad,CuDef*%
%TO.P,R20,1*%
%TO.N,/CHG_LED*%
G36*
X112311819Y-33123624D02*
G01*
X112334874Y-33127043D01*
X112357483Y-33132707D01*
X112379427Y-33140559D01*
X112400497Y-33150524D01*
X112420488Y-33162506D01*
X112439208Y-33176390D01*
X112456478Y-33192042D01*
X112472130Y-33209312D01*
X112486014Y-33228032D01*
X112497996Y-33248023D01*
X112507961Y-33269093D01*
X112515813Y-33291037D01*
X112521477Y-33313646D01*
X112524896Y-33336701D01*
X112526040Y-33359980D01*
X112526040Y-33834980D01*
X112524896Y-33858259D01*
X112521477Y-33881314D01*
X112515813Y-33903923D01*
X112507961Y-33925867D01*
X112497996Y-33946937D01*
X112486014Y-33966928D01*
X112472130Y-33985648D01*
X112456478Y-34002918D01*
X112439208Y-34018570D01*
X112420488Y-34032454D01*
X112400497Y-34044436D01*
X112379427Y-34054401D01*
X112357483Y-34062253D01*
X112334874Y-34067917D01*
X112311819Y-34071336D01*
X112288540Y-34072480D01*
X111713540Y-34072480D01*
X111690261Y-34071336D01*
X111667206Y-34067917D01*
X111644597Y-34062253D01*
X111622653Y-34054401D01*
X111601583Y-34044436D01*
X111581592Y-34032454D01*
X111562872Y-34018570D01*
X111545602Y-34002918D01*
X111529950Y-33985648D01*
X111516066Y-33966928D01*
X111504084Y-33946937D01*
X111494119Y-33925867D01*
X111486267Y-33903923D01*
X111480603Y-33881314D01*
X111477184Y-33858259D01*
X111476040Y-33834980D01*
X111476040Y-33359980D01*
X111477184Y-33336701D01*
X111480603Y-33313646D01*
X111486267Y-33291037D01*
X111494119Y-33269093D01*
X111504084Y-33248023D01*
X111516066Y-33228032D01*
X111529950Y-33209312D01*
X111545602Y-33192042D01*
X111562872Y-33176390D01*
X111581592Y-33162506D01*
X111601583Y-33150524D01*
X111622653Y-33140559D01*
X111644597Y-33132707D01*
X111667206Y-33127043D01*
X111690261Y-33123624D01*
X111713540Y-33122480D01*
X112288540Y-33122480D01*
X112311819Y-33123624D01*
G37*
%TD.AperFunction*%
%TD*%
%TA.AperFunction,SMDPad,CuDef*%
%TO.P,R19,2*%
%TO.N,GND*%
G36*
X128759459Y-37233384D02*
G01*
X128782514Y-37236803D01*
X128805123Y-37242467D01*
X128827067Y-37250319D01*
X128848137Y-37260284D01*
X128868128Y-37272266D01*
X128886848Y-37286150D01*
X128904118Y-37301802D01*
X128919770Y-37319072D01*
X128933654Y-37337792D01*
X128945636Y-37357783D01*
X128955601Y-37378853D01*
X128963453Y-37400797D01*
X128969117Y-37423406D01*
X128972536Y-37446461D01*
X128973680Y-37469740D01*
X128973680Y-38044740D01*
X128972536Y-38068019D01*
X128969117Y-38091074D01*
X128963453Y-38113683D01*
X128955601Y-38135627D01*
X128945636Y-38156697D01*
X128933654Y-38176688D01*
X128919770Y-38195408D01*
X128904118Y-38212678D01*
X128886848Y-38228330D01*
X128868128Y-38242214D01*
X128848137Y-38254196D01*
X128827067Y-38264161D01*
X128805123Y-38272013D01*
X128782514Y-38277677D01*
X128759459Y-38281096D01*
X128736180Y-38282240D01*
X128261180Y-38282240D01*
X128237901Y-38281096D01*
X128214846Y-38277677D01*
X128192237Y-38272013D01*
X128170293Y-38264161D01*
X128149223Y-38254196D01*
X128129232Y-38242214D01*
X128110512Y-38228330D01*
X128093242Y-38212678D01*
X128077590Y-38195408D01*
X128063706Y-38176688D01*
X128051724Y-38156697D01*
X128041759Y-38135627D01*
X128033907Y-38113683D01*
X128028243Y-38091074D01*
X128024824Y-38068019D01*
X128023680Y-38044740D01*
X128023680Y-37469740D01*
X128024824Y-37446461D01*
X128028243Y-37423406D01*
X128033907Y-37400797D01*
X128041759Y-37378853D01*
X128051724Y-37357783D01*
X128063706Y-37337792D01*
X128077590Y-37319072D01*
X128093242Y-37301802D01*
X128110512Y-37286150D01*
X128129232Y-37272266D01*
X128149223Y-37260284D01*
X128170293Y-37250319D01*
X128192237Y-37242467D01*
X128214846Y-37236803D01*
X128237901Y-37233384D01*
X128261180Y-37232240D01*
X128736180Y-37232240D01*
X128759459Y-37233384D01*
G37*
%TD.AperFunction*%
%TA.AperFunction,SMDPad,CuDef*%
%TO.P,R19,1*%
%TO.N,/VRECT*%
G36*
X128759459Y-38983384D02*
G01*
X128782514Y-38986803D01*
X128805123Y-38992467D01*
X128827067Y-39000319D01*
X128848137Y-39010284D01*
X128868128Y-39022266D01*
X128886848Y-39036150D01*
X128904118Y-39051802D01*
X128919770Y-39069072D01*
X128933654Y-39087792D01*
X128945636Y-39107783D01*
X128955601Y-39128853D01*
X128963453Y-39150797D01*
X128969117Y-39173406D01*
X128972536Y-39196461D01*
X128973680Y-39219740D01*
X128973680Y-39794740D01*
X128972536Y-39818019D01*
X128969117Y-39841074D01*
X128963453Y-39863683D01*
X128955601Y-39885627D01*
X128945636Y-39906697D01*
X128933654Y-39926688D01*
X128919770Y-39945408D01*
X128904118Y-39962678D01*
X128886848Y-39978330D01*
X128868128Y-39992214D01*
X128848137Y-40004196D01*
X128827067Y-40014161D01*
X128805123Y-40022013D01*
X128782514Y-40027677D01*
X128759459Y-40031096D01*
X128736180Y-40032240D01*
X128261180Y-40032240D01*
X128237901Y-40031096D01*
X128214846Y-40027677D01*
X128192237Y-40022013D01*
X128170293Y-40014161D01*
X128149223Y-40004196D01*
X128129232Y-39992214D01*
X128110512Y-39978330D01*
X128093242Y-39962678D01*
X128077590Y-39945408D01*
X128063706Y-39926688D01*
X128051724Y-39906697D01*
X128041759Y-39885627D01*
X128033907Y-39863683D01*
X128028243Y-39841074D01*
X128024824Y-39818019D01*
X128023680Y-39794740D01*
X128023680Y-39219740D01*
X128024824Y-39196461D01*
X128028243Y-39173406D01*
X128033907Y-39150797D01*
X128041759Y-39128853D01*
X128051724Y-39107783D01*
X128063706Y-39087792D01*
X128077590Y-39069072D01*
X128093242Y-39051802D01*
X128110512Y-39036150D01*
X128129232Y-39022266D01*
X128149223Y-39010284D01*
X128170293Y-39000319D01*
X128192237Y-38992467D01*
X128214846Y-38986803D01*
X128237901Y-38983384D01*
X128261180Y-38982240D01*
X128736180Y-38982240D01*
X128759459Y-38983384D01*
G37*
%TD.AperFunction*%
%TD*%
%TA.AperFunction,SMDPad,CuDef*%
%TO.P,R18,2*%
%TO.N,GND*%
G36*
X114409419Y-28180344D02*
G01*
X114432474Y-28183763D01*
X114455083Y-28189427D01*
X114477027Y-28197279D01*
X114498097Y-28207244D01*
X114518088Y-28219226D01*
X114536808Y-28233110D01*
X114554078Y-28248762D01*
X114569730Y-28266032D01*
X114583614Y-28284752D01*
X114595596Y-28304743D01*
X114605561Y-28325813D01*
X114613413Y-28347757D01*
X114619077Y-28370366D01*
X114622496Y-28393421D01*
X114623640Y-28416700D01*
X114623640Y-28991700D01*
X114622496Y-29014979D01*
X114619077Y-29038034D01*
X114613413Y-29060643D01*
X114605561Y-29082587D01*
X114595596Y-29103657D01*
X114583614Y-29123648D01*
X114569730Y-29142368D01*
X114554078Y-29159638D01*
X114536808Y-29175290D01*
X114518088Y-29189174D01*
X114498097Y-29201156D01*
X114477027Y-29211121D01*
X114455083Y-29218973D01*
X114432474Y-29224637D01*
X114409419Y-29228056D01*
X114386140Y-29229200D01*
X113911140Y-29229200D01*
X113887861Y-29228056D01*
X113864806Y-29224637D01*
X113842197Y-29218973D01*
X113820253Y-29211121D01*
X113799183Y-29201156D01*
X113779192Y-29189174D01*
X113760472Y-29175290D01*
X113743202Y-29159638D01*
X113727550Y-29142368D01*
X113713666Y-29123648D01*
X113701684Y-29103657D01*
X113691719Y-29082587D01*
X113683867Y-29060643D01*
X113678203Y-29038034D01*
X113674784Y-29014979D01*
X113673640Y-28991700D01*
X113673640Y-28416700D01*
X113674784Y-28393421D01*
X113678203Y-28370366D01*
X113683867Y-28347757D01*
X113691719Y-28325813D01*
X113701684Y-28304743D01*
X113713666Y-28284752D01*
X113727550Y-28266032D01*
X113743202Y-28248762D01*
X113760472Y-28233110D01*
X113779192Y-28219226D01*
X113799183Y-28207244D01*
X113820253Y-28197279D01*
X113842197Y-28189427D01*
X113864806Y-28183763D01*
X113887861Y-28180344D01*
X113911140Y-28179200D01*
X114386140Y-28179200D01*
X114409419Y-28180344D01*
G37*
%TD.AperFunction*%
%TA.AperFunction,SMDPad,CuDef*%
%TO.P,R18,1*%
%TO.N,Net-(R18-Pad1)*%
G36*
X114409419Y-29930344D02*
G01*
X114432474Y-29933763D01*
X114455083Y-29939427D01*
X114477027Y-29947279D01*
X114498097Y-29957244D01*
X114518088Y-29969226D01*
X114536808Y-29983110D01*
X114554078Y-29998762D01*
X114569730Y-30016032D01*
X114583614Y-30034752D01*
X114595596Y-30054743D01*
X114605561Y-30075813D01*
X114613413Y-30097757D01*
X114619077Y-30120366D01*
X114622496Y-30143421D01*
X114623640Y-30166700D01*
X114623640Y-30741700D01*
X114622496Y-30764979D01*
X114619077Y-30788034D01*
X114613413Y-30810643D01*
X114605561Y-30832587D01*
X114595596Y-30853657D01*
X114583614Y-30873648D01*
X114569730Y-30892368D01*
X114554078Y-30909638D01*
X114536808Y-30925290D01*
X114518088Y-30939174D01*
X114498097Y-30951156D01*
X114477027Y-30961121D01*
X114455083Y-30968973D01*
X114432474Y-30974637D01*
X114409419Y-30978056D01*
X114386140Y-30979200D01*
X113911140Y-30979200D01*
X113887861Y-30978056D01*
X113864806Y-30974637D01*
X113842197Y-30968973D01*
X113820253Y-30961121D01*
X113799183Y-30951156D01*
X113779192Y-30939174D01*
X113760472Y-30925290D01*
X113743202Y-30909638D01*
X113727550Y-30892368D01*
X113713666Y-30873648D01*
X113701684Y-30853657D01*
X113691719Y-30832587D01*
X113683867Y-30810643D01*
X113678203Y-30788034D01*
X113674784Y-30764979D01*
X113673640Y-30741700D01*
X113673640Y-30166700D01*
X113674784Y-30143421D01*
X113678203Y-30120366D01*
X113683867Y-30097757D01*
X113691719Y-30075813D01*
X113701684Y-30054743D01*
X113713666Y-30034752D01*
X113727550Y-30016032D01*
X113743202Y-29998762D01*
X113760472Y-29983110D01*
X113779192Y-29969226D01*
X113799183Y-29957244D01*
X113820253Y-29947279D01*
X113842197Y-29939427D01*
X113864806Y-29933763D01*
X113887861Y-29930344D01*
X113911140Y-29929200D01*
X114386140Y-29929200D01*
X114409419Y-29930344D01*
G37*
%TD.AperFunction*%
%TD*%
%TA.AperFunction,SMDPad,CuDef*%
%TO.P,R17,2*%
%TO.N,GND*%
G36*
X112702539Y-28134624D02*
G01*
X112725594Y-28138043D01*
X112748203Y-28143707D01*
X112770147Y-28151559D01*
X112791217Y-28161524D01*
X112811208Y-28173506D01*
X112829928Y-28187390D01*
X112847198Y-28203042D01*
X112862850Y-28220312D01*
X112876734Y-28239032D01*
X112888716Y-28259023D01*
X112898681Y-28280093D01*
X112906533Y-28302037D01*
X112912197Y-28324646D01*
X112915616Y-28347701D01*
X112916760Y-28370980D01*
X112916760Y-28945980D01*
X112915616Y-28969259D01*
X112912197Y-28992314D01*
X112906533Y-29014923D01*
X112898681Y-29036867D01*
X112888716Y-29057937D01*
X112876734Y-29077928D01*
X112862850Y-29096648D01*
X112847198Y-29113918D01*
X112829928Y-29129570D01*
X112811208Y-29143454D01*
X112791217Y-29155436D01*
X112770147Y-29165401D01*
X112748203Y-29173253D01*
X112725594Y-29178917D01*
X112702539Y-29182336D01*
X112679260Y-29183480D01*
X112204260Y-29183480D01*
X112180981Y-29182336D01*
X112157926Y-29178917D01*
X112135317Y-29173253D01*
X112113373Y-29165401D01*
X112092303Y-29155436D01*
X112072312Y-29143454D01*
X112053592Y-29129570D01*
X112036322Y-29113918D01*
X112020670Y-29096648D01*
X112006786Y-29077928D01*
X111994804Y-29057937D01*
X111984839Y-29036867D01*
X111976987Y-29014923D01*
X111971323Y-28992314D01*
X111967904Y-28969259D01*
X111966760Y-28945980D01*
X111966760Y-28370980D01*
X111967904Y-28347701D01*
X111971323Y-28324646D01*
X111976987Y-28302037D01*
X111984839Y-28280093D01*
X111994804Y-28259023D01*
X112006786Y-28239032D01*
X112020670Y-28220312D01*
X112036322Y-28203042D01*
X112053592Y-28187390D01*
X112072312Y-28173506D01*
X112092303Y-28161524D01*
X112113373Y-28151559D01*
X112135317Y-28143707D01*
X112157926Y-28138043D01*
X112180981Y-28134624D01*
X112204260Y-28133480D01*
X112679260Y-28133480D01*
X112702539Y-28134624D01*
G37*
%TD.AperFunction*%
%TA.AperFunction,SMDPad,CuDef*%
%TO.P,R17,1*%
%TO.N,Net-(R16-Pad2)*%
G36*
X112702539Y-29884624D02*
G01*
X112725594Y-29888043D01*
X112748203Y-29893707D01*
X112770147Y-29901559D01*
X112791217Y-29911524D01*
X112811208Y-29923506D01*
X112829928Y-29937390D01*
X112847198Y-29953042D01*
X112862850Y-29970312D01*
X112876734Y-29989032D01*
X112888716Y-30009023D01*
X112898681Y-30030093D01*
X112906533Y-30052037D01*
X112912197Y-30074646D01*
X112915616Y-30097701D01*
X112916760Y-30120980D01*
X112916760Y-30695980D01*
X112915616Y-30719259D01*
X112912197Y-30742314D01*
X112906533Y-30764923D01*
X112898681Y-30786867D01*
X112888716Y-30807937D01*
X112876734Y-30827928D01*
X112862850Y-30846648D01*
X112847198Y-30863918D01*
X112829928Y-30879570D01*
X112811208Y-30893454D01*
X112791217Y-30905436D01*
X112770147Y-30915401D01*
X112748203Y-30923253D01*
X112725594Y-30928917D01*
X112702539Y-30932336D01*
X112679260Y-30933480D01*
X112204260Y-30933480D01*
X112180981Y-30932336D01*
X112157926Y-30928917D01*
X112135317Y-30923253D01*
X112113373Y-30915401D01*
X112092303Y-30905436D01*
X112072312Y-30893454D01*
X112053592Y-30879570D01*
X112036322Y-30863918D01*
X112020670Y-30846648D01*
X112006786Y-30827928D01*
X111994804Y-30807937D01*
X111984839Y-30786867D01*
X111976987Y-30764923D01*
X111971323Y-30742314D01*
X111967904Y-30719259D01*
X111966760Y-30695980D01*
X111966760Y-30120980D01*
X111967904Y-30097701D01*
X111971323Y-30074646D01*
X111976987Y-30052037D01*
X111984839Y-30030093D01*
X111994804Y-30009023D01*
X112006786Y-29989032D01*
X112020670Y-29970312D01*
X112036322Y-29953042D01*
X112053592Y-29937390D01*
X112072312Y-29923506D01*
X112092303Y-29911524D01*
X112113373Y-29901559D01*
X112135317Y-29893707D01*
X112157926Y-29888043D01*
X112180981Y-29884624D01*
X112204260Y-29883480D01*
X112679260Y-29883480D01*
X112702539Y-29884624D01*
G37*
%TD.AperFunction*%
%TD*%
%TA.AperFunction,SMDPad,CuDef*%
%TO.P,R16,2*%
%TO.N,Net-(R16-Pad2)*%
G36*
X110843259Y-29930344D02*
G01*
X110866314Y-29933763D01*
X110888923Y-29939427D01*
X110910867Y-29947279D01*
X110931937Y-29957244D01*
X110951928Y-29969226D01*
X110970648Y-29983110D01*
X110987918Y-29998762D01*
X111003570Y-30016032D01*
X111017454Y-30034752D01*
X111029436Y-30054743D01*
X111039401Y-30075813D01*
X111047253Y-30097757D01*
X111052917Y-30120366D01*
X111056336Y-30143421D01*
X111057480Y-30166700D01*
X111057480Y-30741700D01*
X111056336Y-30764979D01*
X111052917Y-30788034D01*
X111047253Y-30810643D01*
X111039401Y-30832587D01*
X111029436Y-30853657D01*
X111017454Y-30873648D01*
X111003570Y-30892368D01*
X110987918Y-30909638D01*
X110970648Y-30925290D01*
X110951928Y-30939174D01*
X110931937Y-30951156D01*
X110910867Y-30961121D01*
X110888923Y-30968973D01*
X110866314Y-30974637D01*
X110843259Y-30978056D01*
X110819980Y-30979200D01*
X110344980Y-30979200D01*
X110321701Y-30978056D01*
X110298646Y-30974637D01*
X110276037Y-30968973D01*
X110254093Y-30961121D01*
X110233023Y-30951156D01*
X110213032Y-30939174D01*
X110194312Y-30925290D01*
X110177042Y-30909638D01*
X110161390Y-30892368D01*
X110147506Y-30873648D01*
X110135524Y-30853657D01*
X110125559Y-30832587D01*
X110117707Y-30810643D01*
X110112043Y-30788034D01*
X110108624Y-30764979D01*
X110107480Y-30741700D01*
X110107480Y-30166700D01*
X110108624Y-30143421D01*
X110112043Y-30120366D01*
X110117707Y-30097757D01*
X110125559Y-30075813D01*
X110135524Y-30054743D01*
X110147506Y-30034752D01*
X110161390Y-30016032D01*
X110177042Y-29998762D01*
X110194312Y-29983110D01*
X110213032Y-29969226D01*
X110233023Y-29957244D01*
X110254093Y-29947279D01*
X110276037Y-29939427D01*
X110298646Y-29933763D01*
X110321701Y-29930344D01*
X110344980Y-29929200D01*
X110819980Y-29929200D01*
X110843259Y-29930344D01*
G37*
%TD.AperFunction*%
%TA.AperFunction,SMDPad,CuDef*%
%TO.P,R16,1*%
%TO.N,+5V*%
G36*
X110843259Y-28180344D02*
G01*
X110866314Y-28183763D01*
X110888923Y-28189427D01*
X110910867Y-28197279D01*
X110931937Y-28207244D01*
X110951928Y-28219226D01*
X110970648Y-28233110D01*
X110987918Y-28248762D01*
X111003570Y-28266032D01*
X111017454Y-28284752D01*
X111029436Y-28304743D01*
X111039401Y-28325813D01*
X111047253Y-28347757D01*
X111052917Y-28370366D01*
X111056336Y-28393421D01*
X111057480Y-28416700D01*
X111057480Y-28991700D01*
X111056336Y-29014979D01*
X111052917Y-29038034D01*
X111047253Y-29060643D01*
X111039401Y-29082587D01*
X111029436Y-29103657D01*
X111017454Y-29123648D01*
X111003570Y-29142368D01*
X110987918Y-29159638D01*
X110970648Y-29175290D01*
X110951928Y-29189174D01*
X110931937Y-29201156D01*
X110910867Y-29211121D01*
X110888923Y-29218973D01*
X110866314Y-29224637D01*
X110843259Y-29228056D01*
X110819980Y-29229200D01*
X110344980Y-29229200D01*
X110321701Y-29228056D01*
X110298646Y-29224637D01*
X110276037Y-29218973D01*
X110254093Y-29211121D01*
X110233023Y-29201156D01*
X110213032Y-29189174D01*
X110194312Y-29175290D01*
X110177042Y-29159638D01*
X110161390Y-29142368D01*
X110147506Y-29123648D01*
X110135524Y-29103657D01*
X110125559Y-29082587D01*
X110117707Y-29060643D01*
X110112043Y-29038034D01*
X110108624Y-29014979D01*
X110107480Y-28991700D01*
X110107480Y-28416700D01*
X110108624Y-28393421D01*
X110112043Y-28370366D01*
X110117707Y-28347757D01*
X110125559Y-28325813D01*
X110135524Y-28304743D01*
X110147506Y-28284752D01*
X110161390Y-28266032D01*
X110177042Y-28248762D01*
X110194312Y-28233110D01*
X110213032Y-28219226D01*
X110233023Y-28207244D01*
X110254093Y-28197279D01*
X110276037Y-28189427D01*
X110298646Y-28183763D01*
X110321701Y-28180344D01*
X110344980Y-28179200D01*
X110819980Y-28179200D01*
X110843259Y-28180344D01*
G37*
%TD.AperFunction*%
%TD*%
%TA.AperFunction,SMDPad,CuDef*%
%TO.P,R14,2*%
%TO.N,GND*%
G36*
X117807939Y-28109224D02*
G01*
X117830994Y-28112643D01*
X117853603Y-28118307D01*
X117875547Y-28126159D01*
X117896617Y-28136124D01*
X117916608Y-28148106D01*
X117935328Y-28161990D01*
X117952598Y-28177642D01*
X117968250Y-28194912D01*
X117982134Y-28213632D01*
X117994116Y-28233623D01*
X118004081Y-28254693D01*
X118011933Y-28276637D01*
X118017597Y-28299246D01*
X118021016Y-28322301D01*
X118022160Y-28345580D01*
X118022160Y-28920580D01*
X118021016Y-28943859D01*
X118017597Y-28966914D01*
X118011933Y-28989523D01*
X118004081Y-29011467D01*
X117994116Y-29032537D01*
X117982134Y-29052528D01*
X117968250Y-29071248D01*
X117952598Y-29088518D01*
X117935328Y-29104170D01*
X117916608Y-29118054D01*
X117896617Y-29130036D01*
X117875547Y-29140001D01*
X117853603Y-29147853D01*
X117830994Y-29153517D01*
X117807939Y-29156936D01*
X117784660Y-29158080D01*
X117309660Y-29158080D01*
X117286381Y-29156936D01*
X117263326Y-29153517D01*
X117240717Y-29147853D01*
X117218773Y-29140001D01*
X117197703Y-29130036D01*
X117177712Y-29118054D01*
X117158992Y-29104170D01*
X117141722Y-29088518D01*
X117126070Y-29071248D01*
X117112186Y-29052528D01*
X117100204Y-29032537D01*
X117090239Y-29011467D01*
X117082387Y-28989523D01*
X117076723Y-28966914D01*
X117073304Y-28943859D01*
X117072160Y-28920580D01*
X117072160Y-28345580D01*
X117073304Y-28322301D01*
X117076723Y-28299246D01*
X117082387Y-28276637D01*
X117090239Y-28254693D01*
X117100204Y-28233623D01*
X117112186Y-28213632D01*
X117126070Y-28194912D01*
X117141722Y-28177642D01*
X117158992Y-28161990D01*
X117177712Y-28148106D01*
X117197703Y-28136124D01*
X117218773Y-28126159D01*
X117240717Y-28118307D01*
X117263326Y-28112643D01*
X117286381Y-28109224D01*
X117309660Y-28108080D01*
X117784660Y-28108080D01*
X117807939Y-28109224D01*
G37*
%TD.AperFunction*%
%TA.AperFunction,SMDPad,CuDef*%
%TO.P,R14,1*%
%TO.N,Net-(C29-Pad1)*%
G36*
X117807939Y-29859224D02*
G01*
X117830994Y-29862643D01*
X117853603Y-29868307D01*
X117875547Y-29876159D01*
X117896617Y-29886124D01*
X117916608Y-29898106D01*
X117935328Y-29911990D01*
X117952598Y-29927642D01*
X117968250Y-29944912D01*
X117982134Y-29963632D01*
X117994116Y-29983623D01*
X118004081Y-30004693D01*
X118011933Y-30026637D01*
X118017597Y-30049246D01*
X118021016Y-30072301D01*
X118022160Y-30095580D01*
X118022160Y-30670580D01*
X118021016Y-30693859D01*
X118017597Y-30716914D01*
X118011933Y-30739523D01*
X118004081Y-30761467D01*
X117994116Y-30782537D01*
X117982134Y-30802528D01*
X117968250Y-30821248D01*
X117952598Y-30838518D01*
X117935328Y-30854170D01*
X117916608Y-30868054D01*
X117896617Y-30880036D01*
X117875547Y-30890001D01*
X117853603Y-30897853D01*
X117830994Y-30903517D01*
X117807939Y-30906936D01*
X117784660Y-30908080D01*
X117309660Y-30908080D01*
X117286381Y-30906936D01*
X117263326Y-30903517D01*
X117240717Y-30897853D01*
X117218773Y-30890001D01*
X117197703Y-30880036D01*
X117177712Y-30868054D01*
X117158992Y-30854170D01*
X117141722Y-30838518D01*
X117126070Y-30821248D01*
X117112186Y-30802528D01*
X117100204Y-30782537D01*
X117090239Y-30761467D01*
X117082387Y-30739523D01*
X117076723Y-30716914D01*
X117073304Y-30693859D01*
X117072160Y-30670580D01*
X117072160Y-30095580D01*
X117073304Y-30072301D01*
X117076723Y-30049246D01*
X117082387Y-30026637D01*
X117090239Y-30004693D01*
X117100204Y-29983623D01*
X117112186Y-29963632D01*
X117126070Y-29944912D01*
X117141722Y-29927642D01*
X117158992Y-29911990D01*
X117177712Y-29898106D01*
X117197703Y-29886124D01*
X117218773Y-29876159D01*
X117240717Y-29868307D01*
X117263326Y-29862643D01*
X117286381Y-29859224D01*
X117309660Y-29858080D01*
X117784660Y-29858080D01*
X117807939Y-29859224D01*
G37*
%TD.AperFunction*%
%TD*%
%TA.AperFunction,SMDPad,CuDef*%
%TO.P,R13,2*%
%TO.N,Net-(C29-Pad1)*%
G36*
X119728179Y-29849064D02*
G01*
X119751234Y-29852483D01*
X119773843Y-29858147D01*
X119795787Y-29865999D01*
X119816857Y-29875964D01*
X119836848Y-29887946D01*
X119855568Y-29901830D01*
X119872838Y-29917482D01*
X119888490Y-29934752D01*
X119902374Y-29953472D01*
X119914356Y-29973463D01*
X119924321Y-29994533D01*
X119932173Y-30016477D01*
X119937837Y-30039086D01*
X119941256Y-30062141D01*
X119942400Y-30085420D01*
X119942400Y-30660420D01*
X119941256Y-30683699D01*
X119937837Y-30706754D01*
X119932173Y-30729363D01*
X119924321Y-30751307D01*
X119914356Y-30772377D01*
X119902374Y-30792368D01*
X119888490Y-30811088D01*
X119872838Y-30828358D01*
X119855568Y-30844010D01*
X119836848Y-30857894D01*
X119816857Y-30869876D01*
X119795787Y-30879841D01*
X119773843Y-30887693D01*
X119751234Y-30893357D01*
X119728179Y-30896776D01*
X119704900Y-30897920D01*
X119229900Y-30897920D01*
X119206621Y-30896776D01*
X119183566Y-30893357D01*
X119160957Y-30887693D01*
X119139013Y-30879841D01*
X119117943Y-30869876D01*
X119097952Y-30857894D01*
X119079232Y-30844010D01*
X119061962Y-30828358D01*
X119046310Y-30811088D01*
X119032426Y-30792368D01*
X119020444Y-30772377D01*
X119010479Y-30751307D01*
X119002627Y-30729363D01*
X118996963Y-30706754D01*
X118993544Y-30683699D01*
X118992400Y-30660420D01*
X118992400Y-30085420D01*
X118993544Y-30062141D01*
X118996963Y-30039086D01*
X119002627Y-30016477D01*
X119010479Y-29994533D01*
X119020444Y-29973463D01*
X119032426Y-29953472D01*
X119046310Y-29934752D01*
X119061962Y-29917482D01*
X119079232Y-29901830D01*
X119097952Y-29887946D01*
X119117943Y-29875964D01*
X119139013Y-29865999D01*
X119160957Y-29858147D01*
X119183566Y-29852483D01*
X119206621Y-29849064D01*
X119229900Y-29847920D01*
X119704900Y-29847920D01*
X119728179Y-29849064D01*
G37*
%TD.AperFunction*%
%TA.AperFunction,SMDPad,CuDef*%
%TO.P,R13,1*%
%TO.N,Net-(R13-Pad1)*%
G36*
X119728179Y-28099064D02*
G01*
X119751234Y-28102483D01*
X119773843Y-28108147D01*
X119795787Y-28115999D01*
X119816857Y-28125964D01*
X119836848Y-28137946D01*
X119855568Y-28151830D01*
X119872838Y-28167482D01*
X119888490Y-28184752D01*
X119902374Y-28203472D01*
X119914356Y-28223463D01*
X119924321Y-28244533D01*
X119932173Y-28266477D01*
X119937837Y-28289086D01*
X119941256Y-28312141D01*
X119942400Y-28335420D01*
X119942400Y-28910420D01*
X119941256Y-28933699D01*
X119937837Y-28956754D01*
X119932173Y-28979363D01*
X119924321Y-29001307D01*
X119914356Y-29022377D01*
X119902374Y-29042368D01*
X119888490Y-29061088D01*
X119872838Y-29078358D01*
X119855568Y-29094010D01*
X119836848Y-29107894D01*
X119816857Y-29119876D01*
X119795787Y-29129841D01*
X119773843Y-29137693D01*
X119751234Y-29143357D01*
X119728179Y-29146776D01*
X119704900Y-29147920D01*
X119229900Y-29147920D01*
X119206621Y-29146776D01*
X119183566Y-29143357D01*
X119160957Y-29137693D01*
X119139013Y-29129841D01*
X119117943Y-29119876D01*
X119097952Y-29107894D01*
X119079232Y-29094010D01*
X119061962Y-29078358D01*
X119046310Y-29061088D01*
X119032426Y-29042368D01*
X119020444Y-29022377D01*
X119010479Y-29001307D01*
X119002627Y-28979363D01*
X118996963Y-28956754D01*
X118993544Y-28933699D01*
X118992400Y-28910420D01*
X118992400Y-28335420D01*
X118993544Y-28312141D01*
X118996963Y-28289086D01*
X119002627Y-28266477D01*
X119010479Y-28244533D01*
X119020444Y-28223463D01*
X119032426Y-28203472D01*
X119046310Y-28184752D01*
X119061962Y-28167482D01*
X119079232Y-28151830D01*
X119097952Y-28137946D01*
X119117943Y-28125964D01*
X119139013Y-28115999D01*
X119160957Y-28108147D01*
X119183566Y-28102483D01*
X119206621Y-28099064D01*
X119229900Y-28097920D01*
X119704900Y-28097920D01*
X119728179Y-28099064D01*
G37*
%TD.AperFunction*%
%TD*%
%TA.AperFunction,SMDPad,CuDef*%
%TO.P,D3,2*%
%TO.N,Net-(D3-Pad2)*%
G36*
X110490699Y-31558984D02*
G01*
X110513754Y-31562403D01*
X110536363Y-31568067D01*
X110558307Y-31575919D01*
X110579377Y-31585884D01*
X110599368Y-31597866D01*
X110618088Y-31611750D01*
X110635358Y-31627402D01*
X110651010Y-31644672D01*
X110664894Y-31663392D01*
X110676876Y-31683383D01*
X110686841Y-31704453D01*
X110694693Y-31726397D01*
X110700357Y-31749006D01*
X110703776Y-31772061D01*
X110704920Y-31795340D01*
X110704920Y-32270340D01*
X110703776Y-32293619D01*
X110700357Y-32316674D01*
X110694693Y-32339283D01*
X110686841Y-32361227D01*
X110676876Y-32382297D01*
X110664894Y-32402288D01*
X110651010Y-32421008D01*
X110635358Y-32438278D01*
X110618088Y-32453930D01*
X110599368Y-32467814D01*
X110579377Y-32479796D01*
X110558307Y-32489761D01*
X110536363Y-32497613D01*
X110513754Y-32503277D01*
X110490699Y-32506696D01*
X110467420Y-32507840D01*
X109892420Y-32507840D01*
X109869141Y-32506696D01*
X109846086Y-32503277D01*
X109823477Y-32497613D01*
X109801533Y-32489761D01*
X109780463Y-32479796D01*
X109760472Y-32467814D01*
X109741752Y-32453930D01*
X109724482Y-32438278D01*
X109708830Y-32421008D01*
X109694946Y-32402288D01*
X109682964Y-32382297D01*
X109672999Y-32361227D01*
X109665147Y-32339283D01*
X109659483Y-32316674D01*
X109656064Y-32293619D01*
X109654920Y-32270340D01*
X109654920Y-31795340D01*
X109656064Y-31772061D01*
X109659483Y-31749006D01*
X109665147Y-31726397D01*
X109672999Y-31704453D01*
X109682964Y-31683383D01*
X109694946Y-31663392D01*
X109708830Y-31644672D01*
X109724482Y-31627402D01*
X109741752Y-31611750D01*
X109760472Y-31597866D01*
X109780463Y-31585884D01*
X109801533Y-31575919D01*
X109823477Y-31568067D01*
X109846086Y-31562403D01*
X109869141Y-31558984D01*
X109892420Y-31557840D01*
X110467420Y-31557840D01*
X110490699Y-31558984D01*
G37*
%TD.AperFunction*%
%TA.AperFunction,SMDPad,CuDef*%
%TO.P,D3,1*%
%TO.N,GND*%
G36*
X112240699Y-31558984D02*
G01*
X112263754Y-31562403D01*
X112286363Y-31568067D01*
X112308307Y-31575919D01*
X112329377Y-31585884D01*
X112349368Y-31597866D01*
X112368088Y-31611750D01*
X112385358Y-31627402D01*
X112401010Y-31644672D01*
X112414894Y-31663392D01*
X112426876Y-31683383D01*
X112436841Y-31704453D01*
X112444693Y-31726397D01*
X112450357Y-31749006D01*
X112453776Y-31772061D01*
X112454920Y-31795340D01*
X112454920Y-32270340D01*
X112453776Y-32293619D01*
X112450357Y-32316674D01*
X112444693Y-32339283D01*
X112436841Y-32361227D01*
X112426876Y-32382297D01*
X112414894Y-32402288D01*
X112401010Y-32421008D01*
X112385358Y-32438278D01*
X112368088Y-32453930D01*
X112349368Y-32467814D01*
X112329377Y-32479796D01*
X112308307Y-32489761D01*
X112286363Y-32497613D01*
X112263754Y-32503277D01*
X112240699Y-32506696D01*
X112217420Y-32507840D01*
X111642420Y-32507840D01*
X111619141Y-32506696D01*
X111596086Y-32503277D01*
X111573477Y-32497613D01*
X111551533Y-32489761D01*
X111530463Y-32479796D01*
X111510472Y-32467814D01*
X111491752Y-32453930D01*
X111474482Y-32438278D01*
X111458830Y-32421008D01*
X111444946Y-32402288D01*
X111432964Y-32382297D01*
X111422999Y-32361227D01*
X111415147Y-32339283D01*
X111409483Y-32316674D01*
X111406064Y-32293619D01*
X111404920Y-32270340D01*
X111404920Y-31795340D01*
X111406064Y-31772061D01*
X111409483Y-31749006D01*
X111415147Y-31726397D01*
X111422999Y-31704453D01*
X111432964Y-31683383D01*
X111444946Y-31663392D01*
X111458830Y-31644672D01*
X111474482Y-31627402D01*
X111491752Y-31611750D01*
X111510472Y-31597866D01*
X111530463Y-31585884D01*
X111551533Y-31575919D01*
X111573477Y-31568067D01*
X111596086Y-31562403D01*
X111619141Y-31558984D01*
X111642420Y-31557840D01*
X112217420Y-31557840D01*
X112240699Y-31558984D01*
G37*
%TD.AperFunction*%
%TD*%
%TA.AperFunction,SMDPad,CuDef*%
%TO.P,C32,2*%
%TO.N,/VRECT*%
G36*
X127083059Y-38942744D02*
G01*
X127106114Y-38946163D01*
X127128723Y-38951827D01*
X127150667Y-38959679D01*
X127171737Y-38969644D01*
X127191728Y-38981626D01*
X127210448Y-38995510D01*
X127227718Y-39011162D01*
X127243370Y-39028432D01*
X127257254Y-39047152D01*
X127269236Y-39067143D01*
X127279201Y-39088213D01*
X127287053Y-39110157D01*
X127292717Y-39132766D01*
X127296136Y-39155821D01*
X127297280Y-39179100D01*
X127297280Y-39754100D01*
X127296136Y-39777379D01*
X127292717Y-39800434D01*
X127287053Y-39823043D01*
X127279201Y-39844987D01*
X127269236Y-39866057D01*
X127257254Y-39886048D01*
X127243370Y-39904768D01*
X127227718Y-39922038D01*
X127210448Y-39937690D01*
X127191728Y-39951574D01*
X127171737Y-39963556D01*
X127150667Y-39973521D01*
X127128723Y-39981373D01*
X127106114Y-39987037D01*
X127083059Y-39990456D01*
X127059780Y-39991600D01*
X126584780Y-39991600D01*
X126561501Y-39990456D01*
X126538446Y-39987037D01*
X126515837Y-39981373D01*
X126493893Y-39973521D01*
X126472823Y-39963556D01*
X126452832Y-39951574D01*
X126434112Y-39937690D01*
X126416842Y-39922038D01*
X126401190Y-39904768D01*
X126387306Y-39886048D01*
X126375324Y-39866057D01*
X126365359Y-39844987D01*
X126357507Y-39823043D01*
X126351843Y-39800434D01*
X126348424Y-39777379D01*
X126347280Y-39754100D01*
X126347280Y-39179100D01*
X126348424Y-39155821D01*
X126351843Y-39132766D01*
X126357507Y-39110157D01*
X126365359Y-39088213D01*
X126375324Y-39067143D01*
X126387306Y-39047152D01*
X126401190Y-39028432D01*
X126416842Y-39011162D01*
X126434112Y-38995510D01*
X126452832Y-38981626D01*
X126472823Y-38969644D01*
X126493893Y-38959679D01*
X126515837Y-38951827D01*
X126538446Y-38946163D01*
X126561501Y-38942744D01*
X126584780Y-38941600D01*
X127059780Y-38941600D01*
X127083059Y-38942744D01*
G37*
%TD.AperFunction*%
%TA.AperFunction,SMDPad,CuDef*%
%TO.P,C32,1*%
%TO.N,GND*%
G36*
X127083059Y-37192744D02*
G01*
X127106114Y-37196163D01*
X127128723Y-37201827D01*
X127150667Y-37209679D01*
X127171737Y-37219644D01*
X127191728Y-37231626D01*
X127210448Y-37245510D01*
X127227718Y-37261162D01*
X127243370Y-37278432D01*
X127257254Y-37297152D01*
X127269236Y-37317143D01*
X127279201Y-37338213D01*
X127287053Y-37360157D01*
X127292717Y-37382766D01*
X127296136Y-37405821D01*
X127297280Y-37429100D01*
X127297280Y-38004100D01*
X127296136Y-38027379D01*
X127292717Y-38050434D01*
X127287053Y-38073043D01*
X127279201Y-38094987D01*
X127269236Y-38116057D01*
X127257254Y-38136048D01*
X127243370Y-38154768D01*
X127227718Y-38172038D01*
X127210448Y-38187690D01*
X127191728Y-38201574D01*
X127171737Y-38213556D01*
X127150667Y-38223521D01*
X127128723Y-38231373D01*
X127106114Y-38237037D01*
X127083059Y-38240456D01*
X127059780Y-38241600D01*
X126584780Y-38241600D01*
X126561501Y-38240456D01*
X126538446Y-38237037D01*
X126515837Y-38231373D01*
X126493893Y-38223521D01*
X126472823Y-38213556D01*
X126452832Y-38201574D01*
X126434112Y-38187690D01*
X126416842Y-38172038D01*
X126401190Y-38154768D01*
X126387306Y-38136048D01*
X126375324Y-38116057D01*
X126365359Y-38094987D01*
X126357507Y-38073043D01*
X126351843Y-38050434D01*
X126348424Y-38027379D01*
X126347280Y-38004100D01*
X126347280Y-37429100D01*
X126348424Y-37405821D01*
X126351843Y-37382766D01*
X126357507Y-37360157D01*
X126365359Y-37338213D01*
X126375324Y-37317143D01*
X126387306Y-37297152D01*
X126401190Y-37278432D01*
X126416842Y-37261162D01*
X126434112Y-37245510D01*
X126452832Y-37231626D01*
X126472823Y-37219644D01*
X126493893Y-37209679D01*
X126515837Y-37201827D01*
X126538446Y-37196163D01*
X126561501Y-37192744D01*
X126584780Y-37191600D01*
X127059780Y-37191600D01*
X127083059Y-37192744D01*
G37*
%TD.AperFunction*%
%TD*%
%TA.AperFunction,SMDPad,CuDef*%
%TO.P,C31,2*%
%TO.N,/VRECT*%
G36*
X125265379Y-38947344D02*
G01*
X125288434Y-38950763D01*
X125311043Y-38956427D01*
X125332987Y-38964279D01*
X125354057Y-38974244D01*
X125374048Y-38986226D01*
X125392768Y-39000110D01*
X125410038Y-39015762D01*
X125425690Y-39033032D01*
X125439574Y-39051752D01*
X125451556Y-39071743D01*
X125461521Y-39092813D01*
X125469373Y-39114757D01*
X125475037Y-39137366D01*
X125478456Y-39160421D01*
X125479600Y-39183700D01*
X125479600Y-39758700D01*
X125478456Y-39781979D01*
X125475037Y-39805034D01*
X125469373Y-39827643D01*
X125461521Y-39849587D01*
X125451556Y-39870657D01*
X125439574Y-39890648D01*
X125425690Y-39909368D01*
X125410038Y-39926638D01*
X125392768Y-39942290D01*
X125374048Y-39956174D01*
X125354057Y-39968156D01*
X125332987Y-39978121D01*
X125311043Y-39985973D01*
X125288434Y-39991637D01*
X125265379Y-39995056D01*
X125242100Y-39996200D01*
X124767100Y-39996200D01*
X124743821Y-39995056D01*
X124720766Y-39991637D01*
X124698157Y-39985973D01*
X124676213Y-39978121D01*
X124655143Y-39968156D01*
X124635152Y-39956174D01*
X124616432Y-39942290D01*
X124599162Y-39926638D01*
X124583510Y-39909368D01*
X124569626Y-39890648D01*
X124557644Y-39870657D01*
X124547679Y-39849587D01*
X124539827Y-39827643D01*
X124534163Y-39805034D01*
X124530744Y-39781979D01*
X124529600Y-39758700D01*
X124529600Y-39183700D01*
X124530744Y-39160421D01*
X124534163Y-39137366D01*
X124539827Y-39114757D01*
X124547679Y-39092813D01*
X124557644Y-39071743D01*
X124569626Y-39051752D01*
X124583510Y-39033032D01*
X124599162Y-39015762D01*
X124616432Y-39000110D01*
X124635152Y-38986226D01*
X124655143Y-38974244D01*
X124676213Y-38964279D01*
X124698157Y-38956427D01*
X124720766Y-38950763D01*
X124743821Y-38947344D01*
X124767100Y-38946200D01*
X125242100Y-38946200D01*
X125265379Y-38947344D01*
G37*
%TD.AperFunction*%
%TA.AperFunction,SMDPad,CuDef*%
%TO.P,C31,1*%
%TO.N,GND*%
G36*
X125265379Y-37197344D02*
G01*
X125288434Y-37200763D01*
X125311043Y-37206427D01*
X125332987Y-37214279D01*
X125354057Y-37224244D01*
X125374048Y-37236226D01*
X125392768Y-37250110D01*
X125410038Y-37265762D01*
X125425690Y-37283032D01*
X125439574Y-37301752D01*
X125451556Y-37321743D01*
X125461521Y-37342813D01*
X125469373Y-37364757D01*
X125475037Y-37387366D01*
X125478456Y-37410421D01*
X125479600Y-37433700D01*
X125479600Y-38008700D01*
X125478456Y-38031979D01*
X125475037Y-38055034D01*
X125469373Y-38077643D01*
X125461521Y-38099587D01*
X125451556Y-38120657D01*
X125439574Y-38140648D01*
X125425690Y-38159368D01*
X125410038Y-38176638D01*
X125392768Y-38192290D01*
X125374048Y-38206174D01*
X125354057Y-38218156D01*
X125332987Y-38228121D01*
X125311043Y-38235973D01*
X125288434Y-38241637D01*
X125265379Y-38245056D01*
X125242100Y-38246200D01*
X124767100Y-38246200D01*
X124743821Y-38245056D01*
X124720766Y-38241637D01*
X124698157Y-38235973D01*
X124676213Y-38228121D01*
X124655143Y-38218156D01*
X124635152Y-38206174D01*
X124616432Y-38192290D01*
X124599162Y-38176638D01*
X124583510Y-38159368D01*
X124569626Y-38140648D01*
X124557644Y-38120657D01*
X124547679Y-38099587D01*
X124539827Y-38077643D01*
X124534163Y-38055034D01*
X124530744Y-38031979D01*
X124529600Y-38008700D01*
X124529600Y-37433700D01*
X124530744Y-37410421D01*
X124534163Y-37387366D01*
X124539827Y-37364757D01*
X124547679Y-37342813D01*
X124557644Y-37321743D01*
X124569626Y-37301752D01*
X124583510Y-37283032D01*
X124599162Y-37265762D01*
X124616432Y-37250110D01*
X124635152Y-37236226D01*
X124655143Y-37224244D01*
X124676213Y-37214279D01*
X124698157Y-37206427D01*
X124720766Y-37200763D01*
X124743821Y-37197344D01*
X124767100Y-37196200D01*
X125242100Y-37196200D01*
X125265379Y-37197344D01*
G37*
%TD.AperFunction*%
%TD*%
%TA.AperFunction,SMDPad,CuDef*%
%TO.P,C30,2*%
%TO.N,/VRECT*%
G36*
X123431459Y-38896544D02*
G01*
X123454514Y-38899963D01*
X123477123Y-38905627D01*
X123499067Y-38913479D01*
X123520137Y-38923444D01*
X123540128Y-38935426D01*
X123558848Y-38949310D01*
X123576118Y-38964962D01*
X123591770Y-38982232D01*
X123605654Y-39000952D01*
X123617636Y-39020943D01*
X123627601Y-39042013D01*
X123635453Y-39063957D01*
X123641117Y-39086566D01*
X123644536Y-39109621D01*
X123645680Y-39132900D01*
X123645680Y-39707900D01*
X123644536Y-39731179D01*
X123641117Y-39754234D01*
X123635453Y-39776843D01*
X123627601Y-39798787D01*
X123617636Y-39819857D01*
X123605654Y-39839848D01*
X123591770Y-39858568D01*
X123576118Y-39875838D01*
X123558848Y-39891490D01*
X123540128Y-39905374D01*
X123520137Y-39917356D01*
X123499067Y-39927321D01*
X123477123Y-39935173D01*
X123454514Y-39940837D01*
X123431459Y-39944256D01*
X123408180Y-39945400D01*
X122933180Y-39945400D01*
X122909901Y-39944256D01*
X122886846Y-39940837D01*
X122864237Y-39935173D01*
X122842293Y-39927321D01*
X122821223Y-39917356D01*
X122801232Y-39905374D01*
X122782512Y-39891490D01*
X122765242Y-39875838D01*
X122749590Y-39858568D01*
X122735706Y-39839848D01*
X122723724Y-39819857D01*
X122713759Y-39798787D01*
X122705907Y-39776843D01*
X122700243Y-39754234D01*
X122696824Y-39731179D01*
X122695680Y-39707900D01*
X122695680Y-39132900D01*
X122696824Y-39109621D01*
X122700243Y-39086566D01*
X122705907Y-39063957D01*
X122713759Y-39042013D01*
X122723724Y-39020943D01*
X122735706Y-39000952D01*
X122749590Y-38982232D01*
X122765242Y-38964962D01*
X122782512Y-38949310D01*
X122801232Y-38935426D01*
X122821223Y-38923444D01*
X122842293Y-38913479D01*
X122864237Y-38905627D01*
X122886846Y-38899963D01*
X122909901Y-38896544D01*
X122933180Y-38895400D01*
X123408180Y-38895400D01*
X123431459Y-38896544D01*
G37*
%TD.AperFunction*%
%TA.AperFunction,SMDPad,CuDef*%
%TO.P,C30,1*%
%TO.N,GND*%
G36*
X123431459Y-37146544D02*
G01*
X123454514Y-37149963D01*
X123477123Y-37155627D01*
X123499067Y-37163479D01*
X123520137Y-37173444D01*
X123540128Y-37185426D01*
X123558848Y-37199310D01*
X123576118Y-37214962D01*
X123591770Y-37232232D01*
X123605654Y-37250952D01*
X123617636Y-37270943D01*
X123627601Y-37292013D01*
X123635453Y-37313957D01*
X123641117Y-37336566D01*
X123644536Y-37359621D01*
X123645680Y-37382900D01*
X123645680Y-37957900D01*
X123644536Y-37981179D01*
X123641117Y-38004234D01*
X123635453Y-38026843D01*
X123627601Y-38048787D01*
X123617636Y-38069857D01*
X123605654Y-38089848D01*
X123591770Y-38108568D01*
X123576118Y-38125838D01*
X123558848Y-38141490D01*
X123540128Y-38155374D01*
X123520137Y-38167356D01*
X123499067Y-38177321D01*
X123477123Y-38185173D01*
X123454514Y-38190837D01*
X123431459Y-38194256D01*
X123408180Y-38195400D01*
X122933180Y-38195400D01*
X122909901Y-38194256D01*
X122886846Y-38190837D01*
X122864237Y-38185173D01*
X122842293Y-38177321D01*
X122821223Y-38167356D01*
X122801232Y-38155374D01*
X122782512Y-38141490D01*
X122765242Y-38125838D01*
X122749590Y-38108568D01*
X122735706Y-38089848D01*
X122723724Y-38069857D01*
X122713759Y-38048787D01*
X122705907Y-38026843D01*
X122700243Y-38004234D01*
X122696824Y-37981179D01*
X122695680Y-37957900D01*
X122695680Y-37382900D01*
X122696824Y-37359621D01*
X122700243Y-37336566D01*
X122705907Y-37313957D01*
X122713759Y-37292013D01*
X122723724Y-37270943D01*
X122735706Y-37250952D01*
X122749590Y-37232232D01*
X122765242Y-37214962D01*
X122782512Y-37199310D01*
X122801232Y-37185426D01*
X122821223Y-37173444D01*
X122842293Y-37163479D01*
X122864237Y-37155627D01*
X122886846Y-37149963D01*
X122909901Y-37146544D01*
X122933180Y-37145400D01*
X123408180Y-37145400D01*
X123431459Y-37146544D01*
G37*
%TD.AperFunction*%
%TD*%
%TA.AperFunction,SMDPad,CuDef*%
%TO.P,C29,2*%
%TO.N,GND*%
G36*
X121770339Y-28083824D02*
G01*
X121793394Y-28087243D01*
X121816003Y-28092907D01*
X121837947Y-28100759D01*
X121859017Y-28110724D01*
X121879008Y-28122706D01*
X121897728Y-28136590D01*
X121914998Y-28152242D01*
X121930650Y-28169512D01*
X121944534Y-28188232D01*
X121956516Y-28208223D01*
X121966481Y-28229293D01*
X121974333Y-28251237D01*
X121979997Y-28273846D01*
X121983416Y-28296901D01*
X121984560Y-28320180D01*
X121984560Y-28895180D01*
X121983416Y-28918459D01*
X121979997Y-28941514D01*
X121974333Y-28964123D01*
X121966481Y-28986067D01*
X121956516Y-29007137D01*
X121944534Y-29027128D01*
X121930650Y-29045848D01*
X121914998Y-29063118D01*
X121897728Y-29078770D01*
X121879008Y-29092654D01*
X121859017Y-29104636D01*
X121837947Y-29114601D01*
X121816003Y-29122453D01*
X121793394Y-29128117D01*
X121770339Y-29131536D01*
X121747060Y-29132680D01*
X121272060Y-29132680D01*
X121248781Y-29131536D01*
X121225726Y-29128117D01*
X121203117Y-29122453D01*
X121181173Y-29114601D01*
X121160103Y-29104636D01*
X121140112Y-29092654D01*
X121121392Y-29078770D01*
X121104122Y-29063118D01*
X121088470Y-29045848D01*
X121074586Y-29027128D01*
X121062604Y-29007137D01*
X121052639Y-28986067D01*
X121044787Y-28964123D01*
X121039123Y-28941514D01*
X121035704Y-28918459D01*
X121034560Y-28895180D01*
X121034560Y-28320180D01*
X121035704Y-28296901D01*
X121039123Y-28273846D01*
X121044787Y-28251237D01*
X121052639Y-28229293D01*
X121062604Y-28208223D01*
X121074586Y-28188232D01*
X121088470Y-28169512D01*
X121104122Y-28152242D01*
X121121392Y-28136590D01*
X121140112Y-28122706D01*
X121160103Y-28110724D01*
X121181173Y-28100759D01*
X121203117Y-28092907D01*
X121225726Y-28087243D01*
X121248781Y-28083824D01*
X121272060Y-28082680D01*
X121747060Y-28082680D01*
X121770339Y-28083824D01*
G37*
%TD.AperFunction*%
%TA.AperFunction,SMDPad,CuDef*%
%TO.P,C29,1*%
%TO.N,Net-(C29-Pad1)*%
G36*
X121770339Y-29833824D02*
G01*
X121793394Y-29837243D01*
X121816003Y-29842907D01*
X121837947Y-29850759D01*
X121859017Y-29860724D01*
X121879008Y-29872706D01*
X121897728Y-29886590D01*
X121914998Y-29902242D01*
X121930650Y-29919512D01*
X121944534Y-29938232D01*
X121956516Y-29958223D01*
X121966481Y-29979293D01*
X121974333Y-30001237D01*
X121979997Y-30023846D01*
X121983416Y-30046901D01*
X121984560Y-30070180D01*
X121984560Y-30645180D01*
X121983416Y-30668459D01*
X121979997Y-30691514D01*
X121974333Y-30714123D01*
X121966481Y-30736067D01*
X121956516Y-30757137D01*
X121944534Y-30777128D01*
X121930650Y-30795848D01*
X121914998Y-30813118D01*
X121897728Y-30828770D01*
X121879008Y-30842654D01*
X121859017Y-30854636D01*
X121837947Y-30864601D01*
X121816003Y-30872453D01*
X121793394Y-30878117D01*
X121770339Y-30881536D01*
X121747060Y-30882680D01*
X121272060Y-30882680D01*
X121248781Y-30881536D01*
X121225726Y-30878117D01*
X121203117Y-30872453D01*
X121181173Y-30864601D01*
X121160103Y-30854636D01*
X121140112Y-30842654D01*
X121121392Y-30828770D01*
X121104122Y-30813118D01*
X121088470Y-30795848D01*
X121074586Y-30777128D01*
X121062604Y-30757137D01*
X121052639Y-30736067D01*
X121044787Y-30714123D01*
X121039123Y-30691514D01*
X121035704Y-30668459D01*
X121034560Y-30645180D01*
X121034560Y-30070180D01*
X121035704Y-30046901D01*
X121039123Y-30023846D01*
X121044787Y-30001237D01*
X121052639Y-29979293D01*
X121062604Y-29958223D01*
X121074586Y-29938232D01*
X121088470Y-29919512D01*
X121104122Y-29902242D01*
X121121392Y-29886590D01*
X121140112Y-29872706D01*
X121160103Y-29860724D01*
X121181173Y-29850759D01*
X121203117Y-29842907D01*
X121225726Y-29837243D01*
X121248781Y-29833824D01*
X121272060Y-29832680D01*
X121747060Y-29832680D01*
X121770339Y-29833824D01*
G37*
%TD.AperFunction*%
%TD*%
%TA.AperFunction,SMDPad,CuDef*%
%TO.P,C28,2*%
%TO.N,Net-(C21-Pad2)*%
G36*
X125220099Y-32214304D02*
G01*
X125243154Y-32217723D01*
X125265763Y-32223387D01*
X125287707Y-32231239D01*
X125308777Y-32241204D01*
X125328768Y-32253186D01*
X125347488Y-32267070D01*
X125364758Y-32282722D01*
X125380410Y-32299992D01*
X125394294Y-32318712D01*
X125406276Y-32338703D01*
X125416241Y-32359773D01*
X125424093Y-32381717D01*
X125429757Y-32404326D01*
X125433176Y-32427381D01*
X125434320Y-32450660D01*
X125434320Y-32925660D01*
X125433176Y-32948939D01*
X125429757Y-32971994D01*
X125424093Y-32994603D01*
X125416241Y-33016547D01*
X125406276Y-33037617D01*
X125394294Y-33057608D01*
X125380410Y-33076328D01*
X125364758Y-33093598D01*
X125347488Y-33109250D01*
X125328768Y-33123134D01*
X125308777Y-33135116D01*
X125287707Y-33145081D01*
X125265763Y-33152933D01*
X125243154Y-33158597D01*
X125220099Y-33162016D01*
X125196820Y-33163160D01*
X124621820Y-33163160D01*
X124598541Y-33162016D01*
X124575486Y-33158597D01*
X124552877Y-33152933D01*
X124530933Y-33145081D01*
X124509863Y-33135116D01*
X124489872Y-33123134D01*
X124471152Y-33109250D01*
X124453882Y-33093598D01*
X124438230Y-33076328D01*
X124424346Y-33057608D01*
X124412364Y-33037617D01*
X124402399Y-33016547D01*
X124394547Y-32994603D01*
X124388883Y-32971994D01*
X124385464Y-32948939D01*
X124384320Y-32925660D01*
X124384320Y-32450660D01*
X124385464Y-32427381D01*
X124388883Y-32404326D01*
X124394547Y-32381717D01*
X124402399Y-32359773D01*
X124412364Y-32338703D01*
X124424346Y-32318712D01*
X124438230Y-32299992D01*
X124453882Y-32282722D01*
X124471152Y-32267070D01*
X124489872Y-32253186D01*
X124509863Y-32241204D01*
X124530933Y-32231239D01*
X124552877Y-32223387D01*
X124575486Y-32217723D01*
X124598541Y-32214304D01*
X124621820Y-32213160D01*
X125196820Y-32213160D01*
X125220099Y-32214304D01*
G37*
%TD.AperFunction*%
%TA.AperFunction,SMDPad,CuDef*%
%TO.P,C28,1*%
%TO.N,Net-(C28-Pad1)*%
G36*
X123470099Y-32214304D02*
G01*
X123493154Y-32217723D01*
X123515763Y-32223387D01*
X123537707Y-32231239D01*
X123558777Y-32241204D01*
X123578768Y-32253186D01*
X123597488Y-32267070D01*
X123614758Y-32282722D01*
X123630410Y-32299992D01*
X123644294Y-32318712D01*
X123656276Y-32338703D01*
X123666241Y-32359773D01*
X123674093Y-32381717D01*
X123679757Y-32404326D01*
X123683176Y-32427381D01*
X123684320Y-32450660D01*
X123684320Y-32925660D01*
X123683176Y-32948939D01*
X123679757Y-32971994D01*
X123674093Y-32994603D01*
X123666241Y-33016547D01*
X123656276Y-33037617D01*
X123644294Y-33057608D01*
X123630410Y-33076328D01*
X123614758Y-33093598D01*
X123597488Y-33109250D01*
X123578768Y-33123134D01*
X123558777Y-33135116D01*
X123537707Y-33145081D01*
X123515763Y-33152933D01*
X123493154Y-33158597D01*
X123470099Y-33162016D01*
X123446820Y-33163160D01*
X122871820Y-33163160D01*
X122848541Y-33162016D01*
X122825486Y-33158597D01*
X122802877Y-33152933D01*
X122780933Y-33145081D01*
X122759863Y-33135116D01*
X122739872Y-33123134D01*
X122721152Y-33109250D01*
X122703882Y-33093598D01*
X122688230Y-33076328D01*
X122674346Y-33057608D01*
X122662364Y-33037617D01*
X122652399Y-33016547D01*
X122644547Y-32994603D01*
X122638883Y-32971994D01*
X122635464Y-32948939D01*
X122634320Y-32925660D01*
X122634320Y-32450660D01*
X122635464Y-32427381D01*
X122638883Y-32404326D01*
X122644547Y-32381717D01*
X122652399Y-32359773D01*
X122662364Y-32338703D01*
X122674346Y-32318712D01*
X122688230Y-32299992D01*
X122703882Y-32282722D01*
X122721152Y-32267070D01*
X122739872Y-32253186D01*
X122759863Y-32241204D01*
X122780933Y-32231239D01*
X122802877Y-32223387D01*
X122825486Y-32217723D01*
X122848541Y-32214304D01*
X122871820Y-32213160D01*
X123446820Y-32213160D01*
X123470099Y-32214304D01*
G37*
%TD.AperFunction*%
%TD*%
%TA.AperFunction,SMDPad,CuDef*%
%TO.P,C27,2*%
%TO.N,Net-(C21-Pad2)*%
G36*
X125216019Y-33861184D02*
G01*
X125239074Y-33864603D01*
X125261683Y-33870267D01*
X125283627Y-33878119D01*
X125304697Y-33888084D01*
X125324688Y-33900066D01*
X125343408Y-33913950D01*
X125360678Y-33929602D01*
X125376330Y-33946872D01*
X125390214Y-33965592D01*
X125402196Y-33985583D01*
X125412161Y-34006653D01*
X125420013Y-34028597D01*
X125425677Y-34051206D01*
X125429096Y-34074261D01*
X125430240Y-34097540D01*
X125430240Y-34572540D01*
X125429096Y-34595819D01*
X125425677Y-34618874D01*
X125420013Y-34641483D01*
X125412161Y-34663427D01*
X125402196Y-34684497D01*
X125390214Y-34704488D01*
X125376330Y-34723208D01*
X125360678Y-34740478D01*
X125343408Y-34756130D01*
X125324688Y-34770014D01*
X125304697Y-34781996D01*
X125283627Y-34791961D01*
X125261683Y-34799813D01*
X125239074Y-34805477D01*
X125216019Y-34808896D01*
X125192740Y-34810040D01*
X124617740Y-34810040D01*
X124594461Y-34808896D01*
X124571406Y-34805477D01*
X124548797Y-34799813D01*
X124526853Y-34791961D01*
X124505783Y-34781996D01*
X124485792Y-34770014D01*
X124467072Y-34756130D01*
X124449802Y-34740478D01*
X124434150Y-34723208D01*
X124420266Y-34704488D01*
X124408284Y-34684497D01*
X124398319Y-34663427D01*
X124390467Y-34641483D01*
X124384803Y-34618874D01*
X124381384Y-34595819D01*
X124380240Y-34572540D01*
X124380240Y-34097540D01*
X124381384Y-34074261D01*
X124384803Y-34051206D01*
X124390467Y-34028597D01*
X124398319Y-34006653D01*
X124408284Y-33985583D01*
X124420266Y-33965592D01*
X124434150Y-33946872D01*
X124449802Y-33929602D01*
X124467072Y-33913950D01*
X124485792Y-33900066D01*
X124505783Y-33888084D01*
X124526853Y-33878119D01*
X124548797Y-33870267D01*
X124571406Y-33864603D01*
X124594461Y-33861184D01*
X124617740Y-33860040D01*
X125192740Y-33860040D01*
X125216019Y-33861184D01*
G37*
%TD.AperFunction*%
%TA.AperFunction,SMDPad,CuDef*%
%TO.P,C27,1*%
%TO.N,Net-(C27-Pad1)*%
G36*
X123466019Y-33861184D02*
G01*
X123489074Y-33864603D01*
X123511683Y-33870267D01*
X123533627Y-33878119D01*
X123554697Y-33888084D01*
X123574688Y-33900066D01*
X123593408Y-33913950D01*
X123610678Y-33929602D01*
X123626330Y-33946872D01*
X123640214Y-33965592D01*
X123652196Y-33985583D01*
X123662161Y-34006653D01*
X123670013Y-34028597D01*
X123675677Y-34051206D01*
X123679096Y-34074261D01*
X123680240Y-34097540D01*
X123680240Y-34572540D01*
X123679096Y-34595819D01*
X123675677Y-34618874D01*
X123670013Y-34641483D01*
X123662161Y-34663427D01*
X123652196Y-34684497D01*
X123640214Y-34704488D01*
X123626330Y-34723208D01*
X123610678Y-34740478D01*
X123593408Y-34756130D01*
X123574688Y-34770014D01*
X123554697Y-34781996D01*
X123533627Y-34791961D01*
X123511683Y-34799813D01*
X123489074Y-34805477D01*
X123466019Y-34808896D01*
X123442740Y-34810040D01*
X122867740Y-34810040D01*
X122844461Y-34808896D01*
X122821406Y-34805477D01*
X122798797Y-34799813D01*
X122776853Y-34791961D01*
X122755783Y-34781996D01*
X122735792Y-34770014D01*
X122717072Y-34756130D01*
X122699802Y-34740478D01*
X122684150Y-34723208D01*
X122670266Y-34704488D01*
X122658284Y-34684497D01*
X122648319Y-34663427D01*
X122640467Y-34641483D01*
X122634803Y-34618874D01*
X122631384Y-34595819D01*
X122630240Y-34572540D01*
X122630240Y-34097540D01*
X122631384Y-34074261D01*
X122634803Y-34051206D01*
X122640467Y-34028597D01*
X122648319Y-34006653D01*
X122658284Y-33985583D01*
X122670266Y-33965592D01*
X122684150Y-33946872D01*
X122699802Y-33929602D01*
X122717072Y-33913950D01*
X122735792Y-33900066D01*
X122755783Y-33888084D01*
X122776853Y-33878119D01*
X122798797Y-33870267D01*
X122821406Y-33864603D01*
X122844461Y-33861184D01*
X122867740Y-33860040D01*
X123442740Y-33860040D01*
X123466019Y-33861184D01*
G37*
%TD.AperFunction*%
%TD*%
%TA.AperFunction,SMDPad,CuDef*%
%TO.P,C26,2*%
%TO.N,Net-(C21-Pad2)*%
G36*
X125216019Y-35525624D02*
G01*
X125239074Y-35529043D01*
X125261683Y-35534707D01*
X125283627Y-35542559D01*
X125304697Y-35552524D01*
X125324688Y-35564506D01*
X125343408Y-35578390D01*
X125360678Y-35594042D01*
X125376330Y-35611312D01*
X125390214Y-35630032D01*
X125402196Y-35650023D01*
X125412161Y-35671093D01*
X125420013Y-35693037D01*
X125425677Y-35715646D01*
X125429096Y-35738701D01*
X125430240Y-35761980D01*
X125430240Y-36236980D01*
X125429096Y-36260259D01*
X125425677Y-36283314D01*
X125420013Y-36305923D01*
X125412161Y-36327867D01*
X125402196Y-36348937D01*
X125390214Y-36368928D01*
X125376330Y-36387648D01*
X125360678Y-36404918D01*
X125343408Y-36420570D01*
X125324688Y-36434454D01*
X125304697Y-36446436D01*
X125283627Y-36456401D01*
X125261683Y-36464253D01*
X125239074Y-36469917D01*
X125216019Y-36473336D01*
X125192740Y-36474480D01*
X124617740Y-36474480D01*
X124594461Y-36473336D01*
X124571406Y-36469917D01*
X124548797Y-36464253D01*
X124526853Y-36456401D01*
X124505783Y-36446436D01*
X124485792Y-36434454D01*
X124467072Y-36420570D01*
X124449802Y-36404918D01*
X124434150Y-36387648D01*
X124420266Y-36368928D01*
X124408284Y-36348937D01*
X124398319Y-36327867D01*
X124390467Y-36305923D01*
X124384803Y-36283314D01*
X124381384Y-36260259D01*
X124380240Y-36236980D01*
X124380240Y-35761980D01*
X124381384Y-35738701D01*
X124384803Y-35715646D01*
X124390467Y-35693037D01*
X124398319Y-35671093D01*
X124408284Y-35650023D01*
X124420266Y-35630032D01*
X124434150Y-35611312D01*
X124449802Y-35594042D01*
X124467072Y-35578390D01*
X124485792Y-35564506D01*
X124505783Y-35552524D01*
X124526853Y-35542559D01*
X124548797Y-35534707D01*
X124571406Y-35529043D01*
X124594461Y-35525624D01*
X124617740Y-35524480D01*
X125192740Y-35524480D01*
X125216019Y-35525624D01*
G37*
%TD.AperFunction*%
%TA.AperFunction,SMDPad,CuDef*%
%TO.P,C26,1*%
%TO.N,Net-(C26-Pad1)*%
G36*
X123466019Y-35525624D02*
G01*
X123489074Y-35529043D01*
X123511683Y-35534707D01*
X123533627Y-35542559D01*
X123554697Y-35552524D01*
X123574688Y-35564506D01*
X123593408Y-35578390D01*
X123610678Y-35594042D01*
X123626330Y-35611312D01*
X123640214Y-35630032D01*
X123652196Y-35650023D01*
X123662161Y-35671093D01*
X123670013Y-35693037D01*
X123675677Y-35715646D01*
X123679096Y-35738701D01*
X123680240Y-35761980D01*
X123680240Y-36236980D01*
X123679096Y-36260259D01*
X123675677Y-36283314D01*
X123670013Y-36305923D01*
X123662161Y-36327867D01*
X123652196Y-36348937D01*
X123640214Y-36368928D01*
X123626330Y-36387648D01*
X123610678Y-36404918D01*
X123593408Y-36420570D01*
X123574688Y-36434454D01*
X123554697Y-36446436D01*
X123533627Y-36456401D01*
X123511683Y-36464253D01*
X123489074Y-36469917D01*
X123466019Y-36473336D01*
X123442740Y-36474480D01*
X122867740Y-36474480D01*
X122844461Y-36473336D01*
X122821406Y-36469917D01*
X122798797Y-36464253D01*
X122776853Y-36456401D01*
X122755783Y-36446436D01*
X122735792Y-36434454D01*
X122717072Y-36420570D01*
X122699802Y-36404918D01*
X122684150Y-36387648D01*
X122670266Y-36368928D01*
X122658284Y-36348937D01*
X122648319Y-36327867D01*
X122640467Y-36305923D01*
X122634803Y-36283314D01*
X122631384Y-36260259D01*
X122630240Y-36236980D01*
X122630240Y-35761980D01*
X122631384Y-35738701D01*
X122634803Y-35715646D01*
X122640467Y-35693037D01*
X122648319Y-35671093D01*
X122658284Y-35650023D01*
X122670266Y-35630032D01*
X122684150Y-35611312D01*
X122699802Y-35594042D01*
X122717072Y-35578390D01*
X122735792Y-35564506D01*
X122755783Y-35552524D01*
X122776853Y-35542559D01*
X122798797Y-35534707D01*
X122821406Y-35529043D01*
X122844461Y-35525624D01*
X122867740Y-35524480D01*
X123442740Y-35524480D01*
X123466019Y-35525624D01*
G37*
%TD.AperFunction*%
%TD*%
%TA.AperFunction,SMDPad,CuDef*%
%TO.P,C25,2*%
%TO.N,Net-(C18-Pad1)*%
G36*
X110566899Y-38340784D02*
G01*
X110589954Y-38344203D01*
X110612563Y-38349867D01*
X110634507Y-38357719D01*
X110655577Y-38367684D01*
X110675568Y-38379666D01*
X110694288Y-38393550D01*
X110711558Y-38409202D01*
X110727210Y-38426472D01*
X110741094Y-38445192D01*
X110753076Y-38465183D01*
X110763041Y-38486253D01*
X110770893Y-38508197D01*
X110776557Y-38530806D01*
X110779976Y-38553861D01*
X110781120Y-38577140D01*
X110781120Y-39052140D01*
X110779976Y-39075419D01*
X110776557Y-39098474D01*
X110770893Y-39121083D01*
X110763041Y-39143027D01*
X110753076Y-39164097D01*
X110741094Y-39184088D01*
X110727210Y-39202808D01*
X110711558Y-39220078D01*
X110694288Y-39235730D01*
X110675568Y-39249614D01*
X110655577Y-39261596D01*
X110634507Y-39271561D01*
X110612563Y-39279413D01*
X110589954Y-39285077D01*
X110566899Y-39288496D01*
X110543620Y-39289640D01*
X109968620Y-39289640D01*
X109945341Y-39288496D01*
X109922286Y-39285077D01*
X109899677Y-39279413D01*
X109877733Y-39271561D01*
X109856663Y-39261596D01*
X109836672Y-39249614D01*
X109817952Y-39235730D01*
X109800682Y-39220078D01*
X109785030Y-39202808D01*
X109771146Y-39184088D01*
X109759164Y-39164097D01*
X109749199Y-39143027D01*
X109741347Y-39121083D01*
X109735683Y-39098474D01*
X109732264Y-39075419D01*
X109731120Y-39052140D01*
X109731120Y-38577140D01*
X109732264Y-38553861D01*
X109735683Y-38530806D01*
X109741347Y-38508197D01*
X109749199Y-38486253D01*
X109759164Y-38465183D01*
X109771146Y-38445192D01*
X109785030Y-38426472D01*
X109800682Y-38409202D01*
X109817952Y-38393550D01*
X109836672Y-38379666D01*
X109856663Y-38367684D01*
X109877733Y-38357719D01*
X109899677Y-38349867D01*
X109922286Y-38344203D01*
X109945341Y-38340784D01*
X109968620Y-38339640D01*
X110543620Y-38339640D01*
X110566899Y-38340784D01*
G37*
%TD.AperFunction*%
%TA.AperFunction,SMDPad,CuDef*%
%TO.P,C25,1*%
%TO.N,Net-(C25-Pad1)*%
G36*
X112316899Y-38340784D02*
G01*
X112339954Y-38344203D01*
X112362563Y-38349867D01*
X112384507Y-38357719D01*
X112405577Y-38367684D01*
X112425568Y-38379666D01*
X112444288Y-38393550D01*
X112461558Y-38409202D01*
X112477210Y-38426472D01*
X112491094Y-38445192D01*
X112503076Y-38465183D01*
X112513041Y-38486253D01*
X112520893Y-38508197D01*
X112526557Y-38530806D01*
X112529976Y-38553861D01*
X112531120Y-38577140D01*
X112531120Y-39052140D01*
X112529976Y-39075419D01*
X112526557Y-39098474D01*
X112520893Y-39121083D01*
X112513041Y-39143027D01*
X112503076Y-39164097D01*
X112491094Y-39184088D01*
X112477210Y-39202808D01*
X112461558Y-39220078D01*
X112444288Y-39235730D01*
X112425568Y-39249614D01*
X112405577Y-39261596D01*
X112384507Y-39271561D01*
X112362563Y-39279413D01*
X112339954Y-39285077D01*
X112316899Y-39288496D01*
X112293620Y-39289640D01*
X111718620Y-39289640D01*
X111695341Y-39288496D01*
X111672286Y-39285077D01*
X111649677Y-39279413D01*
X111627733Y-39271561D01*
X111606663Y-39261596D01*
X111586672Y-39249614D01*
X111567952Y-39235730D01*
X111550682Y-39220078D01*
X111535030Y-39202808D01*
X111521146Y-39184088D01*
X111509164Y-39164097D01*
X111499199Y-39143027D01*
X111491347Y-39121083D01*
X111485683Y-39098474D01*
X111482264Y-39075419D01*
X111481120Y-39052140D01*
X111481120Y-38577140D01*
X111482264Y-38553861D01*
X111485683Y-38530806D01*
X111491347Y-38508197D01*
X111499199Y-38486253D01*
X111509164Y-38465183D01*
X111521146Y-38445192D01*
X111535030Y-38426472D01*
X111550682Y-38409202D01*
X111567952Y-38393550D01*
X111586672Y-38379666D01*
X111606663Y-38367684D01*
X111627733Y-38357719D01*
X111649677Y-38349867D01*
X111672286Y-38344203D01*
X111695341Y-38340784D01*
X111718620Y-38339640D01*
X112293620Y-38339640D01*
X112316899Y-38340784D01*
G37*
%TD.AperFunction*%
%TD*%
%TA.AperFunction,SMDPad,CuDef*%
%TO.P,C24,2*%
%TO.N,Net-(C18-Pad1)*%
G36*
X110612619Y-36623744D02*
G01*
X110635674Y-36627163D01*
X110658283Y-36632827D01*
X110680227Y-36640679D01*
X110701297Y-36650644D01*
X110721288Y-36662626D01*
X110740008Y-36676510D01*
X110757278Y-36692162D01*
X110772930Y-36709432D01*
X110786814Y-36728152D01*
X110798796Y-36748143D01*
X110808761Y-36769213D01*
X110816613Y-36791157D01*
X110822277Y-36813766D01*
X110825696Y-36836821D01*
X110826840Y-36860100D01*
X110826840Y-37335100D01*
X110825696Y-37358379D01*
X110822277Y-37381434D01*
X110816613Y-37404043D01*
X110808761Y-37425987D01*
X110798796Y-37447057D01*
X110786814Y-37467048D01*
X110772930Y-37485768D01*
X110757278Y-37503038D01*
X110740008Y-37518690D01*
X110721288Y-37532574D01*
X110701297Y-37544556D01*
X110680227Y-37554521D01*
X110658283Y-37562373D01*
X110635674Y-37568037D01*
X110612619Y-37571456D01*
X110589340Y-37572600D01*
X110014340Y-37572600D01*
X109991061Y-37571456D01*
X109968006Y-37568037D01*
X109945397Y-37562373D01*
X109923453Y-37554521D01*
X109902383Y-37544556D01*
X109882392Y-37532574D01*
X109863672Y-37518690D01*
X109846402Y-37503038D01*
X109830750Y-37485768D01*
X109816866Y-37467048D01*
X109804884Y-37447057D01*
X109794919Y-37425987D01*
X109787067Y-37404043D01*
X109781403Y-37381434D01*
X109777984Y-37358379D01*
X109776840Y-37335100D01*
X109776840Y-36860100D01*
X109777984Y-36836821D01*
X109781403Y-36813766D01*
X109787067Y-36791157D01*
X109794919Y-36769213D01*
X109804884Y-36748143D01*
X109816866Y-36728152D01*
X109830750Y-36709432D01*
X109846402Y-36692162D01*
X109863672Y-36676510D01*
X109882392Y-36662626D01*
X109902383Y-36650644D01*
X109923453Y-36640679D01*
X109945397Y-36632827D01*
X109968006Y-36627163D01*
X109991061Y-36623744D01*
X110014340Y-36622600D01*
X110589340Y-36622600D01*
X110612619Y-36623744D01*
G37*
%TD.AperFunction*%
%TA.AperFunction,SMDPad,CuDef*%
%TO.P,C24,1*%
%TO.N,Net-(C24-Pad1)*%
G36*
X112362619Y-36623744D02*
G01*
X112385674Y-36627163D01*
X112408283Y-36632827D01*
X112430227Y-36640679D01*
X112451297Y-36650644D01*
X112471288Y-36662626D01*
X112490008Y-36676510D01*
X112507278Y-36692162D01*
X112522930Y-36709432D01*
X112536814Y-36728152D01*
X112548796Y-36748143D01*
X112558761Y-36769213D01*
X112566613Y-36791157D01*
X112572277Y-36813766D01*
X112575696Y-36836821D01*
X112576840Y-36860100D01*
X112576840Y-37335100D01*
X112575696Y-37358379D01*
X112572277Y-37381434D01*
X112566613Y-37404043D01*
X112558761Y-37425987D01*
X112548796Y-37447057D01*
X112536814Y-37467048D01*
X112522930Y-37485768D01*
X112507278Y-37503038D01*
X112490008Y-37518690D01*
X112471288Y-37532574D01*
X112451297Y-37544556D01*
X112430227Y-37554521D01*
X112408283Y-37562373D01*
X112385674Y-37568037D01*
X112362619Y-37571456D01*
X112339340Y-37572600D01*
X111764340Y-37572600D01*
X111741061Y-37571456D01*
X111718006Y-37568037D01*
X111695397Y-37562373D01*
X111673453Y-37554521D01*
X111652383Y-37544556D01*
X111632392Y-37532574D01*
X111613672Y-37518690D01*
X111596402Y-37503038D01*
X111580750Y-37485768D01*
X111566866Y-37467048D01*
X111554884Y-37447057D01*
X111544919Y-37425987D01*
X111537067Y-37404043D01*
X111531403Y-37381434D01*
X111527984Y-37358379D01*
X111526840Y-37335100D01*
X111526840Y-36860100D01*
X111527984Y-36836821D01*
X111531403Y-36813766D01*
X111537067Y-36791157D01*
X111544919Y-36769213D01*
X111554884Y-36748143D01*
X111566866Y-36728152D01*
X111580750Y-36709432D01*
X111596402Y-36692162D01*
X111613672Y-36676510D01*
X111632392Y-36662626D01*
X111652383Y-36650644D01*
X111673453Y-36640679D01*
X111695397Y-36632827D01*
X111718006Y-36627163D01*
X111741061Y-36623744D01*
X111764340Y-36622600D01*
X112339340Y-36622600D01*
X112362619Y-36623744D01*
G37*
%TD.AperFunction*%
%TD*%
%TA.AperFunction,SMDPad,CuDef*%
%TO.P,C23,2*%
%TO.N,Net-(C18-Pad1)*%
G36*
X110658339Y-34906704D02*
G01*
X110681394Y-34910123D01*
X110704003Y-34915787D01*
X110725947Y-34923639D01*
X110747017Y-34933604D01*
X110767008Y-34945586D01*
X110785728Y-34959470D01*
X110802998Y-34975122D01*
X110818650Y-34992392D01*
X110832534Y-35011112D01*
X110844516Y-35031103D01*
X110854481Y-35052173D01*
X110862333Y-35074117D01*
X110867997Y-35096726D01*
X110871416Y-35119781D01*
X110872560Y-35143060D01*
X110872560Y-35618060D01*
X110871416Y-35641339D01*
X110867997Y-35664394D01*
X110862333Y-35687003D01*
X110854481Y-35708947D01*
X110844516Y-35730017D01*
X110832534Y-35750008D01*
X110818650Y-35768728D01*
X110802998Y-35785998D01*
X110785728Y-35801650D01*
X110767008Y-35815534D01*
X110747017Y-35827516D01*
X110725947Y-35837481D01*
X110704003Y-35845333D01*
X110681394Y-35850997D01*
X110658339Y-35854416D01*
X110635060Y-35855560D01*
X110060060Y-35855560D01*
X110036781Y-35854416D01*
X110013726Y-35850997D01*
X109991117Y-35845333D01*
X109969173Y-35837481D01*
X109948103Y-35827516D01*
X109928112Y-35815534D01*
X109909392Y-35801650D01*
X109892122Y-35785998D01*
X109876470Y-35768728D01*
X109862586Y-35750008D01*
X109850604Y-35730017D01*
X109840639Y-35708947D01*
X109832787Y-35687003D01*
X109827123Y-35664394D01*
X109823704Y-35641339D01*
X109822560Y-35618060D01*
X109822560Y-35143060D01*
X109823704Y-35119781D01*
X109827123Y-35096726D01*
X109832787Y-35074117D01*
X109840639Y-35052173D01*
X109850604Y-35031103D01*
X109862586Y-35011112D01*
X109876470Y-34992392D01*
X109892122Y-34975122D01*
X109909392Y-34959470D01*
X109928112Y-34945586D01*
X109948103Y-34933604D01*
X109969173Y-34923639D01*
X109991117Y-34915787D01*
X110013726Y-34910123D01*
X110036781Y-34906704D01*
X110060060Y-34905560D01*
X110635060Y-34905560D01*
X110658339Y-34906704D01*
G37*
%TD.AperFunction*%
%TA.AperFunction,SMDPad,CuDef*%
%TO.P,C23,1*%
%TO.N,Net-(C23-Pad1)*%
G36*
X112408339Y-34906704D02*
G01*
X112431394Y-34910123D01*
X112454003Y-34915787D01*
X112475947Y-34923639D01*
X112497017Y-34933604D01*
X112517008Y-34945586D01*
X112535728Y-34959470D01*
X112552998Y-34975122D01*
X112568650Y-34992392D01*
X112582534Y-35011112D01*
X112594516Y-35031103D01*
X112604481Y-35052173D01*
X112612333Y-35074117D01*
X112617997Y-35096726D01*
X112621416Y-35119781D01*
X112622560Y-35143060D01*
X112622560Y-35618060D01*
X112621416Y-35641339D01*
X112617997Y-35664394D01*
X112612333Y-35687003D01*
X112604481Y-35708947D01*
X112594516Y-35730017D01*
X112582534Y-35750008D01*
X112568650Y-35768728D01*
X112552998Y-35785998D01*
X112535728Y-35801650D01*
X112517008Y-35815534D01*
X112497017Y-35827516D01*
X112475947Y-35837481D01*
X112454003Y-35845333D01*
X112431394Y-35850997D01*
X112408339Y-35854416D01*
X112385060Y-35855560D01*
X111810060Y-35855560D01*
X111786781Y-35854416D01*
X111763726Y-35850997D01*
X111741117Y-35845333D01*
X111719173Y-35837481D01*
X111698103Y-35827516D01*
X111678112Y-35815534D01*
X111659392Y-35801650D01*
X111642122Y-35785998D01*
X111626470Y-35768728D01*
X111612586Y-35750008D01*
X111600604Y-35730017D01*
X111590639Y-35708947D01*
X111582787Y-35687003D01*
X111577123Y-35664394D01*
X111573704Y-35641339D01*
X111572560Y-35618060D01*
X111572560Y-35143060D01*
X111573704Y-35119781D01*
X111577123Y-35096726D01*
X111582787Y-35074117D01*
X111590639Y-35052173D01*
X111600604Y-35031103D01*
X111612586Y-35011112D01*
X111626470Y-34992392D01*
X111642122Y-34975122D01*
X111659392Y-34959470D01*
X111678112Y-34945586D01*
X111698103Y-34933604D01*
X111719173Y-34923639D01*
X111741117Y-34915787D01*
X111763726Y-34910123D01*
X111786781Y-34906704D01*
X111810060Y-34905560D01*
X112385060Y-34905560D01*
X112408339Y-34906704D01*
G37*
%TD.AperFunction*%
%TD*%
%TA.AperFunction,SMDPad,CuDef*%
%TO.P,C22,2*%
%TO.N,Net-(C21-Pad2)*%
G36*
X116010779Y-41201144D02*
G01*
X116033834Y-41204563D01*
X116056443Y-41210227D01*
X116078387Y-41218079D01*
X116099457Y-41228044D01*
X116119448Y-41240026D01*
X116138168Y-41253910D01*
X116155438Y-41269562D01*
X116171090Y-41286832D01*
X116184974Y-41305552D01*
X116196956Y-41325543D01*
X116206921Y-41346613D01*
X116214773Y-41368557D01*
X116220437Y-41391166D01*
X116223856Y-41414221D01*
X116225000Y-41437500D01*
X116225000Y-42012500D01*
X116223856Y-42035779D01*
X116220437Y-42058834D01*
X116214773Y-42081443D01*
X116206921Y-42103387D01*
X116196956Y-42124457D01*
X116184974Y-42144448D01*
X116171090Y-42163168D01*
X116155438Y-42180438D01*
X116138168Y-42196090D01*
X116119448Y-42209974D01*
X116099457Y-42221956D01*
X116078387Y-42231921D01*
X116056443Y-42239773D01*
X116033834Y-42245437D01*
X116010779Y-42248856D01*
X115987500Y-42250000D01*
X115512500Y-42250000D01*
X115489221Y-42248856D01*
X115466166Y-42245437D01*
X115443557Y-42239773D01*
X115421613Y-42231921D01*
X115400543Y-42221956D01*
X115380552Y-42209974D01*
X115361832Y-42196090D01*
X115344562Y-42180438D01*
X115328910Y-42163168D01*
X115315026Y-42144448D01*
X115303044Y-42124457D01*
X115293079Y-42103387D01*
X115285227Y-42081443D01*
X115279563Y-42058834D01*
X115276144Y-42035779D01*
X115275000Y-42012500D01*
X115275000Y-41437500D01*
X115276144Y-41414221D01*
X115279563Y-41391166D01*
X115285227Y-41368557D01*
X115293079Y-41346613D01*
X115303044Y-41325543D01*
X115315026Y-41305552D01*
X115328910Y-41286832D01*
X115344562Y-41269562D01*
X115361832Y-41253910D01*
X115380552Y-41240026D01*
X115400543Y-41228044D01*
X115421613Y-41218079D01*
X115443557Y-41210227D01*
X115466166Y-41204563D01*
X115489221Y-41201144D01*
X115512500Y-41200000D01*
X115987500Y-41200000D01*
X116010779Y-41201144D01*
G37*
%TD.AperFunction*%
%TA.AperFunction,SMDPad,CuDef*%
%TO.P,C22,1*%
%TO.N,Net-(C18-Pad1)*%
G36*
X116010779Y-39451144D02*
G01*
X116033834Y-39454563D01*
X116056443Y-39460227D01*
X116078387Y-39468079D01*
X116099457Y-39478044D01*
X116119448Y-39490026D01*
X116138168Y-39503910D01*
X116155438Y-39519562D01*
X116171090Y-39536832D01*
X116184974Y-39555552D01*
X116196956Y-39575543D01*
X116206921Y-39596613D01*
X116214773Y-39618557D01*
X116220437Y-39641166D01*
X116223856Y-39664221D01*
X116225000Y-39687500D01*
X116225000Y-40262500D01*
X116223856Y-40285779D01*
X116220437Y-40308834D01*
X116214773Y-40331443D01*
X116206921Y-40353387D01*
X116196956Y-40374457D01*
X116184974Y-40394448D01*
X116171090Y-40413168D01*
X116155438Y-40430438D01*
X116138168Y-40446090D01*
X116119448Y-40459974D01*
X116099457Y-40471956D01*
X116078387Y-40481921D01*
X116056443Y-40489773D01*
X116033834Y-40495437D01*
X116010779Y-40498856D01*
X115987500Y-40500000D01*
X115512500Y-40500000D01*
X115489221Y-40498856D01*
X115466166Y-40495437D01*
X115443557Y-40489773D01*
X115421613Y-40481921D01*
X115400543Y-40471956D01*
X115380552Y-40459974D01*
X115361832Y-40446090D01*
X115344562Y-40430438D01*
X115328910Y-40413168D01*
X115315026Y-40394448D01*
X115303044Y-40374457D01*
X115293079Y-40353387D01*
X115285227Y-40331443D01*
X115279563Y-40308834D01*
X115276144Y-40285779D01*
X115275000Y-40262500D01*
X115275000Y-39687500D01*
X115276144Y-39664221D01*
X115279563Y-39641166D01*
X115285227Y-39618557D01*
X115293079Y-39596613D01*
X115303044Y-39575543D01*
X115315026Y-39555552D01*
X115328910Y-39536832D01*
X115344562Y-39519562D01*
X115361832Y-39503910D01*
X115380552Y-39490026D01*
X115400543Y-39478044D01*
X115421613Y-39468079D01*
X115443557Y-39460227D01*
X115466166Y-39454563D01*
X115489221Y-39451144D01*
X115512500Y-39450000D01*
X115987500Y-39450000D01*
X116010779Y-39451144D01*
G37*
%TD.AperFunction*%
%TD*%
%TA.AperFunction,SMDPad,CuDef*%
%TO.P,C21,2*%
%TO.N,Net-(C21-Pad2)*%
G36*
X119760779Y-41231144D02*
G01*
X119783834Y-41234563D01*
X119806443Y-41240227D01*
X119828387Y-41248079D01*
X119849457Y-41258044D01*
X119869448Y-41270026D01*
X119888168Y-41283910D01*
X119905438Y-41299562D01*
X119921090Y-41316832D01*
X119934974Y-41335552D01*
X119946956Y-41355543D01*
X119956921Y-41376613D01*
X119964773Y-41398557D01*
X119970437Y-41421166D01*
X119973856Y-41444221D01*
X119975000Y-41467500D01*
X119975000Y-42042500D01*
X119973856Y-42065779D01*
X119970437Y-42088834D01*
X119964773Y-42111443D01*
X119956921Y-42133387D01*
X119946956Y-42154457D01*
X119934974Y-42174448D01*
X119921090Y-42193168D01*
X119905438Y-42210438D01*
X119888168Y-42226090D01*
X119869448Y-42239974D01*
X119849457Y-42251956D01*
X119828387Y-42261921D01*
X119806443Y-42269773D01*
X119783834Y-42275437D01*
X119760779Y-42278856D01*
X119737500Y-42280000D01*
X119262500Y-42280000D01*
X119239221Y-42278856D01*
X119216166Y-42275437D01*
X119193557Y-42269773D01*
X119171613Y-42261921D01*
X119150543Y-42251956D01*
X119130552Y-42239974D01*
X119111832Y-42226090D01*
X119094562Y-42210438D01*
X119078910Y-42193168D01*
X119065026Y-42174448D01*
X119053044Y-42154457D01*
X119043079Y-42133387D01*
X119035227Y-42111443D01*
X119029563Y-42088834D01*
X119026144Y-42065779D01*
X119025000Y-42042500D01*
X119025000Y-41467500D01*
X119026144Y-41444221D01*
X119029563Y-41421166D01*
X119035227Y-41398557D01*
X119043079Y-41376613D01*
X119053044Y-41355543D01*
X119065026Y-41335552D01*
X119078910Y-41316832D01*
X119094562Y-41299562D01*
X119111832Y-41283910D01*
X119130552Y-41270026D01*
X119150543Y-41258044D01*
X119171613Y-41248079D01*
X119193557Y-41240227D01*
X119216166Y-41234563D01*
X119239221Y-41231144D01*
X119262500Y-41230000D01*
X119737500Y-41230000D01*
X119760779Y-41231144D01*
G37*
%TD.AperFunction*%
%TA.AperFunction,SMDPad,CuDef*%
%TO.P,C21,1*%
%TO.N,Net-(C18-Pad1)*%
G36*
X119760779Y-39481144D02*
G01*
X119783834Y-39484563D01*
X119806443Y-39490227D01*
X119828387Y-39498079D01*
X119849457Y-39508044D01*
X119869448Y-39520026D01*
X119888168Y-39533910D01*
X119905438Y-39549562D01*
X119921090Y-39566832D01*
X119934974Y-39585552D01*
X119946956Y-39605543D01*
X119956921Y-39626613D01*
X119964773Y-39648557D01*
X119970437Y-39671166D01*
X119973856Y-39694221D01*
X119975000Y-39717500D01*
X119975000Y-40292500D01*
X119973856Y-40315779D01*
X119970437Y-40338834D01*
X119964773Y-40361443D01*
X119956921Y-40383387D01*
X119946956Y-40404457D01*
X119934974Y-40424448D01*
X119921090Y-40443168D01*
X119905438Y-40460438D01*
X119888168Y-40476090D01*
X119869448Y-40489974D01*
X119849457Y-40501956D01*
X119828387Y-40511921D01*
X119806443Y-40519773D01*
X119783834Y-40525437D01*
X119760779Y-40528856D01*
X119737500Y-40530000D01*
X119262500Y-40530000D01*
X119239221Y-40528856D01*
X119216166Y-40525437D01*
X119193557Y-40519773D01*
X119171613Y-40511921D01*
X119150543Y-40501956D01*
X119130552Y-40489974D01*
X119111832Y-40476090D01*
X119094562Y-40460438D01*
X119078910Y-40443168D01*
X119065026Y-40424448D01*
X119053044Y-40404457D01*
X119043079Y-40383387D01*
X119035227Y-40361443D01*
X119029563Y-40338834D01*
X119026144Y-40315779D01*
X119025000Y-40292500D01*
X119025000Y-39717500D01*
X119026144Y-39694221D01*
X119029563Y-39671166D01*
X119035227Y-39648557D01*
X119043079Y-39626613D01*
X119053044Y-39605543D01*
X119065026Y-39585552D01*
X119078910Y-39566832D01*
X119094562Y-39549562D01*
X119111832Y-39533910D01*
X119130552Y-39520026D01*
X119150543Y-39508044D01*
X119171613Y-39498079D01*
X119193557Y-39490227D01*
X119216166Y-39484563D01*
X119239221Y-39481144D01*
X119262500Y-39480000D01*
X119737500Y-39480000D01*
X119760779Y-39481144D01*
G37*
%TD.AperFunction*%
%TD*%
D18*
%TO.P,J7,1*%
%TO.N,/STM32SUPPLY*%
X101074000Y-57234000D03*
D19*
%TO.P,J7,2*%
%TO.N,GNDD*%
X103614000Y-57234000D03*
%TO.P,J7,3*%
%TO.N,/I2C1_SCL*%
X106154000Y-57234000D03*
%TO.P,J7,4*%
%TO.N,/I2C1_SDA*%
X108694000Y-57234000D03*
%TD*%
D18*
%TO.P,J4 JTAG,1*%
%TO.N,/STM32SUPPLY*%
X96798000Y-57772000D03*
D19*
%TO.P,J4 JTAG,2*%
%TO.N,/SWD_SWDIO*%
X96798000Y-60312000D03*
%TO.P,J4 JTAG,3*%
%TO.N,/SWD_SWCLK*%
X96798000Y-62852000D03*
%TO.P,J4 JTAG,4*%
%TO.N,GNDD*%
X96798000Y-65392000D03*
%TO.P,J4 JTAG,5*%
%TO.N,/USART_TX*%
X96798000Y-67932000D03*
%TO.P,J4 JTAG,6*%
%TO.N,/USART_RX*%
X96798000Y-70472000D03*
%TD*%
D18*
%TO.P,J3,1*%
%TO.N,/LoRaRST*%
X124078000Y-75642000D03*
D19*
%TO.P,J3,2*%
%TO.N,/SPI2_SSN*%
X121538000Y-75642000D03*
%TO.P,J3,3*%
%TO.N,/SPI2_MOSI*%
X118998000Y-75642000D03*
%TO.P,J3,4*%
%TO.N,/SPI2_MISO*%
X116458000Y-75642000D03*
%TO.P,J3,5*%
%TO.N,/SPI2_SCK*%
X113918000Y-75642000D03*
%TO.P,J3,6*%
%TO.N,/LoRaIRQ*%
X111378000Y-75642000D03*
%TO.P,J3,7*%
%TO.N,/LoRaEN*%
X108838000Y-75642000D03*
%TO.P,J3,8*%
%TO.N,GNDD*%
X106298000Y-75642000D03*
%TO.P,J3,9*%
%TO.N,/STM32SUPPLY*%
X103758000Y-75642000D03*
%TD*%
D12*
%TO.P,J1 BATT,2*%
%TO.N,+BATT*%
X100250000Y-36500000D03*
%TA.AperFunction,ComponentPad*%
D11*
%TO.P,J1 BATT,1*%
%TO.N,GND*%
G36*
X101024504Y-33151204D02*
G01*
X101048773Y-33154804D01*
X101072571Y-33160765D01*
X101095671Y-33169030D01*
X101117849Y-33179520D01*
X101138893Y-33192133D01*
X101158598Y-33206747D01*
X101176777Y-33223223D01*
X101193253Y-33241402D01*
X101207867Y-33261107D01*
X101220480Y-33282151D01*
X101230970Y-33304329D01*
X101239235Y-33327429D01*
X101245196Y-33351227D01*
X101248796Y-33375496D01*
X101250000Y-33400000D01*
X101250000Y-34600000D01*
X101248796Y-34624504D01*
X101245196Y-34648773D01*
X101239235Y-34672571D01*
X101230970Y-34695671D01*
X101220480Y-34717849D01*
X101207867Y-34738893D01*
X101193253Y-34758598D01*
X101176777Y-34776777D01*
X101158598Y-34793253D01*
X101138893Y-34807867D01*
X101117849Y-34820480D01*
X101095671Y-34830970D01*
X101072571Y-34839235D01*
X101048773Y-34845196D01*
X101024504Y-34848796D01*
X101000000Y-34850000D01*
X99500000Y-34850000D01*
X99475496Y-34848796D01*
X99451227Y-34845196D01*
X99427429Y-34839235D01*
X99404329Y-34830970D01*
X99382151Y-34820480D01*
X99361107Y-34807867D01*
X99341402Y-34793253D01*
X99323223Y-34776777D01*
X99306747Y-34758598D01*
X99292133Y-34738893D01*
X99279520Y-34717849D01*
X99269030Y-34695671D01*
X99260765Y-34672571D01*
X99254804Y-34648773D01*
X99251204Y-34624504D01*
X99250000Y-34600000D01*
X99250000Y-33400000D01*
X99251204Y-33375496D01*
X99254804Y-33351227D01*
X99260765Y-33327429D01*
X99269030Y-33304329D01*
X99279520Y-33282151D01*
X99292133Y-33261107D01*
X99306747Y-33241402D01*
X99323223Y-33223223D01*
X99341402Y-33206747D01*
X99361107Y-33192133D01*
X99382151Y-33179520D01*
X99404329Y-33169030D01*
X99427429Y-33160765D01*
X99451227Y-33154804D01*
X99475496Y-33151204D01*
X99500000Y-33150000D01*
X101000000Y-33150000D01*
X101024504Y-33151204D01*
G37*
%TD.AperFunction*%
%TD*%
D20*
%TO.P,U7,*%
%TO.N,*%
X117040000Y-34070000D03*
X118040000Y-34070000D03*
X118040000Y-36070000D03*
X117040000Y-36070000D03*
X117540000Y-34070000D03*
X117540000Y-36070000D03*
%TA.AperFunction,SMDPad,CuDef*%
D17*
G36*
X117165000Y-33540000D02*
G01*
X117165000Y-32770000D01*
X117915000Y-32770000D01*
X117915000Y-33540000D01*
X118570000Y-33540000D01*
X118570000Y-36600000D01*
X117915000Y-36600000D01*
X117915000Y-37370000D01*
X117165000Y-37370000D01*
X117165000Y-36600000D01*
X116510000Y-36600000D01*
X116510000Y-33540000D01*
X117165000Y-33540000D01*
G37*
%TD.AperFunction*%
D21*
%TO.P,U7,11*%
%TO.N,Net-(R16-Pad2)*%
X118290000Y-32770000D03*
%TO.P,U7,10*%
%TO.N,GND*%
X116790000Y-32770000D03*
%TO.P,U7,20*%
X118290000Y-37370000D03*
%TO.P,U7,1*%
X116790000Y-37370000D03*
D22*
%TO.P,U7,9*%
X115590000Y-33320000D03*
%TO.P,U7,12*%
%TO.N,Net-(R13-Pad1)*%
X119490000Y-33320000D03*
%TO.P,U7,8*%
%TO.N,Net-(U7-Pad8)*%
X115590000Y-33820000D03*
%TO.P,U7,13*%
%TO.N,Net-(R18-Pad1)*%
X119490000Y-33820000D03*
%TO.P,U7,7*%
%TO.N,/CHG_LED*%
X115590000Y-34320000D03*
%TO.P,U7,14*%
%TO.N,Net-(C29-Pad1)*%
X119490000Y-34320000D03*
%TO.P,U7,6*%
%TO.N,Net-(C23-Pad1)*%
X115590000Y-34820000D03*
%TO.P,U7,15*%
%TO.N,Net-(C28-Pad1)*%
X119490000Y-34820000D03*
%TO.P,U7,5*%
%TO.N,Net-(C24-Pad1)*%
X115590000Y-35320000D03*
%TO.P,U7,16*%
%TO.N,Net-(C27-Pad1)*%
X119490000Y-35320000D03*
%TO.P,U7,4*%
%TO.N,+5V*%
X115590000Y-35820000D03*
%TO.P,U7,17*%
%TO.N,Net-(C26-Pad1)*%
X119490000Y-35820000D03*
%TO.P,U7,3*%
%TO.N,Net-(C25-Pad1)*%
X115590000Y-36320000D03*
%TO.P,U7,18*%
%TO.N,/VRECT*%
X119490000Y-36320000D03*
%TO.P,U7,2*%
%TO.N,Net-(C18-Pad1)*%
X115590000Y-36820000D03*
%TO.P,U7,19*%
%TO.N,Net-(C21-Pad2)*%
X119490000Y-36820000D03*
%TD*%
D23*
%TO.N,*%
X140918000Y-56400000D03*
X140918000Y-77000000D03*
X92918000Y-56400000D03*
X92918000Y-77000000D03*
X100000000Y-27000000D03*
X100076000Y-43100000D03*
X131000000Y-27000000D03*
X131000000Y-43100000D03*
D24*
X113470000Y-33690000D03*
X114370000Y-33690000D03*
X103140000Y-29250000D03*
X104040000Y-29250000D03*
X104940000Y-29250000D03*
X105840000Y-29250000D03*
X106740000Y-29250000D03*
X107640000Y-29250000D03*
X103140000Y-30150000D03*
X104040000Y-30150000D03*
X104940000Y-30150000D03*
X105840000Y-30150000D03*
X106740000Y-30150000D03*
X107640000Y-30150000D03*
X103140000Y-31050000D03*
X104040000Y-31050000D03*
X104940000Y-31050000D03*
X105840000Y-31050000D03*
X106740000Y-31050000D03*
X107640000Y-31050000D03*
X103140000Y-31950000D03*
X104040000Y-31950000D03*
X104940000Y-31950000D03*
X105840000Y-31950000D03*
X106740000Y-31950000D03*
X107640000Y-31950000D03*
X126640000Y-28650000D03*
X125690000Y-26900000D03*
X124790000Y-26000000D03*
X125740000Y-28650000D03*
X124840000Y-27750000D03*
X126640000Y-27750000D03*
X125740000Y-27750000D03*
X127500000Y-28650000D03*
X124790000Y-26900000D03*
X123890000Y-26900000D03*
X123890000Y-26000000D03*
%TO.N,GND*%
X115141960Y-32611960D03*
X115414040Y-28790360D03*
X116005000Y-30560000D03*
X113538000Y-27686000D03*
X126200000Y-37120000D03*
X126260000Y-35240000D03*
X114680000Y-43510000D03*
X114530000Y-41490000D03*
X114300000Y-38140000D03*
X122315000Y-42265000D03*
X126110000Y-42230000D03*
X128450000Y-36640000D03*
X105156000Y-37338000D03*
X108712000Y-40132000D03*
X122280000Y-37666510D03*
X118579720Y-38377500D03*
X104140000Y-34544000D03*
X113430000Y-32050000D03*
X118480000Y-28260000D03*
X122520000Y-28370000D03*
%TO.N,/STM32SUPPLY*%
X135544120Y-55278340D03*
X132246880Y-65294220D03*
X122672260Y-60571180D03*
X112127540Y-59335380D03*
X128627925Y-71886140D03*
X101074000Y-59012000D03*
X98280000Y-57742000D03*
X124696000Y-62822000D03*
X126088401Y-67880739D03*
X135872000Y-60282000D03*
X121648000Y-71204000D03*
X114247260Y-72185260D03*
%TO.N,Net-(C18-Pad1)*%
X119530000Y-37620000D03*
%TO.N,Net-(C21-Pad2)*%
X125910000Y-36170000D03*
X120527936Y-36792520D03*
%TO.N,Net-(C29-Pad1)*%
X122682000Y-30480000D03*
D25*
X121020001Y-33020000D03*
D24*
%TO.N,/VRECT*%
X121666000Y-36501500D03*
%TO.N,/SPI2_MISO*%
X108694000Y-65870000D03*
%TO.N,/SPI2_MOSI*%
X109762040Y-66771640D03*
%TO.N,/SWD_SWCLK*%
X118489494Y-61372502D03*
%TO.N,/SWD_SWDIO*%
X121394000Y-61044000D03*
%TO.N,/USER_LED1*%
X108948000Y-71281840D03*
X109710000Y-67902000D03*
%TO.N,Net-(R3-Pad1)*%
X120124000Y-56980000D03*
X114790000Y-57767399D03*
%TO.N,Net-(R13-Pad1)*%
X120396000Y-29464000D03*
X119634000Y-32512000D03*
%TO.N,+5V*%
X114351890Y-36021890D03*
X111230000Y-29540000D03*
X124460000Y-42418000D03*
X109474000Y-34544000D03*
D25*
X123471800Y-31523800D03*
D24*
%TO.N,/SPI1_SSN*%
X127490000Y-71712000D03*
%TO.N,/SPI1_MOSI*%
X126728006Y-70341940D03*
%TO.N,/SPI1_MISO*%
X126291306Y-69588769D03*
%TO.N,/SPI1_SCK*%
X126084562Y-68841842D03*
%TO.N,Net-(JP4-Pad1)*%
X118092000Y-65108000D03*
%TO.N,Net-(JP5-Pad1)*%
X117838000Y-67394000D03*
%TO.N,Net-(JP6-Pad1)*%
X117076000Y-69172000D03*
%TO.N,Net-(JP7-Pad1)*%
X120632000Y-61372510D03*
%TO.N,GNDD*%
X124395740Y-61763620D03*
X127479300Y-65441540D03*
X128551180Y-63983580D03*
X120247260Y-72038580D03*
X113082580Y-72375740D03*
X100552760Y-64331560D03*
D25*
X125818140Y-73678760D03*
D24*
X113747260Y-57767400D03*
X99912040Y-68421640D03*
X107212040Y-68421640D03*
X112962040Y-66671640D03*
D25*
X98548000Y-65492000D03*
D24*
X129423244Y-71662108D03*
X128350920Y-70442000D03*
X103614000Y-59012000D03*
X100566000Y-62568000D03*
X126220000Y-62822000D03*
X122664000Y-58250000D03*
X137650000Y-60028000D03*
X110218000Y-59774000D03*
%TD*%
D26*
%TO.N,GND*%
X116087160Y-30493080D02*
X116196760Y-30493080D01*
X116196760Y-30493080D02*
X116104040Y-30400360D01*
X116104040Y-30400360D02*
X116104040Y-29400360D01*
X115510000Y-32980000D02*
X115141960Y-32611960D01*
X115510000Y-33350000D02*
X115510000Y-32980000D01*
X115330000Y-32800000D02*
X115141960Y-32611960D01*
X116710000Y-32800000D02*
X115330000Y-32800000D01*
X128458040Y-37716600D02*
X128498680Y-37757240D01*
X126822280Y-37716600D02*
X128458040Y-37716600D01*
X124953800Y-37670400D02*
X125004600Y-37721200D01*
X123170680Y-37670400D02*
X124953800Y-37670400D01*
X128498680Y-37232240D02*
X128450000Y-37183560D01*
X128498680Y-37757240D02*
X128498680Y-37232240D01*
X128450000Y-37183560D02*
X128450000Y-36640000D01*
D27*
X115327880Y-28704200D02*
X115414040Y-28790360D01*
X114148640Y-28704200D02*
X115327880Y-28704200D01*
D26*
X123170680Y-37670400D02*
X122283890Y-37670400D01*
X122283890Y-37670400D02*
X122280000Y-37666510D01*
X112441760Y-28658480D02*
X111716480Y-28658480D01*
X116790000Y-37542000D02*
X116790000Y-37370000D01*
X117094000Y-37846000D02*
X116790000Y-37542000D01*
X117814000Y-37846000D02*
X117094000Y-37846000D01*
X118290000Y-37370000D02*
X117814000Y-37846000D01*
X118290000Y-38220000D02*
X118618000Y-38548000D01*
X118290000Y-37370000D02*
X118290000Y-38220000D01*
X118618000Y-38415780D02*
X118579720Y-38377500D01*
X118618000Y-38548000D02*
X118618000Y-38415780D01*
X112565520Y-28658480D02*
X113538000Y-27686000D01*
X112441760Y-28658480D02*
X112565520Y-28658480D01*
X116871320Y-28633080D02*
X117547160Y-28633080D01*
X116104040Y-29400360D02*
X116871320Y-28633080D01*
X116024040Y-29400360D02*
X116104040Y-29400360D01*
X115414040Y-28790360D02*
X116024040Y-29400360D01*
X113412840Y-32032840D02*
X113430000Y-32050000D01*
X111929920Y-32032840D02*
X113412840Y-32032840D01*
D28*
X117547160Y-28633080D02*
X118106920Y-28633080D01*
X118106920Y-28633080D02*
X118162501Y-28577499D01*
X118162501Y-28577499D02*
X118480000Y-28260000D01*
X121509560Y-28607680D02*
X122282320Y-28607680D01*
X122282320Y-28607680D02*
X122520000Y-28370000D01*
D26*
%TO.N,/STM32SUPPLY*%
X101074000Y-57488000D02*
X101074000Y-59012000D01*
X126088401Y-67880739D02*
X127353990Y-69146328D01*
X127210399Y-72294501D02*
X128219564Y-72294501D01*
X126907499Y-71991601D02*
X127210399Y-72294501D01*
X128219564Y-72294501D02*
X128310426Y-72203639D01*
X126907499Y-71432399D02*
X126907499Y-71991601D01*
X127310507Y-71029391D02*
X126907499Y-71432399D01*
X128310426Y-72203639D02*
X128627925Y-71886140D01*
X127310507Y-70113493D02*
X127310507Y-71029391D01*
X127353990Y-70070010D02*
X127310507Y-70113493D01*
X127353990Y-69146328D02*
X127353990Y-70070010D01*
%TO.N,Net-(C18-Pad1)*%
X115750000Y-36980000D02*
X115590000Y-36820000D01*
X115750000Y-38050000D02*
X115750000Y-36980000D01*
X115750000Y-39975000D02*
X115750000Y-38050000D01*
X110301840Y-35426280D02*
X110347560Y-35380560D01*
X110301840Y-37097600D02*
X110301840Y-35426280D01*
X119500000Y-37650000D02*
X119530000Y-37620000D01*
X119500000Y-40005000D02*
X119500000Y-37650000D01*
D28*
X115275000Y-39975000D02*
X115750000Y-39975000D01*
X110941480Y-39975000D02*
X115275000Y-39975000D01*
X110256120Y-39289640D02*
X110941480Y-39975000D01*
X110256120Y-38814640D02*
X110256120Y-39289640D01*
X119470000Y-39975000D02*
X119500000Y-40005000D01*
X115750000Y-39975000D02*
X119470000Y-39975000D01*
D26*
X110256120Y-37143320D02*
X110301840Y-37097600D01*
X110256120Y-38814640D02*
X110256120Y-37143320D01*
%TO.N,Net-(C21-Pad2)*%
X119470000Y-41725000D02*
X119500000Y-41755000D01*
X115750000Y-41725000D02*
X119470000Y-41725000D01*
X124909320Y-34330960D02*
X124905240Y-34335040D01*
X124909320Y-32688160D02*
X124909320Y-34330960D01*
X124905240Y-34335040D02*
X124905240Y-35999480D01*
X120730000Y-37580000D02*
X119970000Y-36820000D01*
X120730000Y-41000000D02*
X120730000Y-37580000D01*
X119970000Y-36820000D02*
X119490000Y-36820000D01*
X119975000Y-41755000D02*
X120730000Y-41000000D01*
X119500000Y-41755000D02*
X119975000Y-41755000D01*
X125075760Y-36170000D02*
X124905240Y-35999480D01*
X125910000Y-36170000D02*
X125075760Y-36170000D01*
X120527936Y-37241532D02*
X120527936Y-36792520D01*
X120527936Y-37377936D02*
X120527936Y-37241532D01*
X120730000Y-37580000D02*
X120527936Y-37377936D01*
X124909320Y-29459320D02*
X122020000Y-26570000D01*
X124909320Y-32688160D02*
X124909320Y-29459320D01*
%TO.N,Net-(C23-Pad1)*%
X113890000Y-34850000D02*
X114660000Y-34850000D01*
X113359440Y-35380560D02*
X113890000Y-34850000D01*
X114660000Y-34850000D02*
X115510000Y-34850000D01*
X112097560Y-35380560D02*
X113359440Y-35380560D01*
%TO.N,Net-(C24-Pad1)*%
X114200000Y-35350000D02*
X115510000Y-35350000D01*
X112452400Y-37097600D02*
X114200000Y-35350000D01*
X112051840Y-37097600D02*
X112452400Y-37097600D01*
%TO.N,Net-(C25-Pad1)*%
X112475360Y-38814640D02*
X114970000Y-36320000D01*
X114970000Y-36320000D02*
X115590000Y-36320000D01*
X112006120Y-38814640D02*
X112475360Y-38814640D01*
%TO.N,Net-(C26-Pad1)*%
X122906090Y-35820000D02*
X123081921Y-35995831D01*
X119490000Y-35820000D02*
X122906090Y-35820000D01*
%TO.N,Net-(C27-Pad1)*%
X123449320Y-34548160D02*
X123449320Y-34599320D01*
X121881850Y-35320000D02*
X122866810Y-34335040D01*
X119490000Y-35320000D02*
X121881850Y-35320000D01*
%TO.N,Net-(C28-Pad1)*%
X122866810Y-32980670D02*
X122866810Y-32688160D01*
X121027480Y-34820000D02*
X122866810Y-32980670D01*
X119490000Y-34820000D02*
X121027480Y-34820000D01*
%TO.N,Net-(C29-Pad1)*%
X121484160Y-30383080D02*
X121509560Y-30357680D01*
X117547160Y-30383080D02*
X121484160Y-30383080D01*
X121509560Y-30882680D02*
X121509560Y-30357680D01*
X121600009Y-30973129D02*
X121509560Y-30882680D01*
X120780000Y-34320000D02*
X121600009Y-33499991D01*
X119490000Y-34320000D02*
X120780000Y-34320000D01*
D28*
X121631880Y-30480000D02*
X121509560Y-30357680D01*
X122682000Y-30480000D02*
X121631880Y-30480000D01*
D26*
X121020001Y-33020000D02*
X120904000Y-33136001D01*
X121585686Y-33020000D02*
X121020001Y-33020000D01*
X121600009Y-33005677D02*
X121585686Y-33020000D01*
X121600009Y-32954009D02*
X121600009Y-33005677D01*
X121600009Y-33499991D02*
X121600009Y-32954009D01*
X121600009Y-32954009D02*
X121600009Y-30973129D01*
D28*
%TO.N,/VRECT*%
X126921840Y-39500400D02*
X127038680Y-39617240D01*
D26*
X128381840Y-39390400D02*
X128498680Y-39507240D01*
X123230680Y-39390400D02*
X128381840Y-39390400D01*
X119599990Y-36210010D02*
X121042114Y-36210010D01*
X122695680Y-39420400D02*
X123170680Y-39420400D01*
X121122502Y-37847222D02*
X122695680Y-39420400D01*
X121042114Y-36210010D02*
X121122502Y-36290398D01*
X119490000Y-36320000D02*
X119599990Y-36210010D01*
X121122502Y-36562502D02*
X121100000Y-36540000D01*
X121122502Y-36622502D02*
X121122502Y-36562502D01*
X121122502Y-36290398D02*
X121122502Y-36622502D01*
X121122502Y-36622502D02*
X121122502Y-37847222D01*
X121230000Y-36530000D02*
X121637500Y-36530000D01*
X121137498Y-36622502D02*
X121230000Y-36530000D01*
X121637500Y-36530000D02*
X121666000Y-36501500D01*
X121122502Y-36622502D02*
X121137498Y-36622502D01*
%TO.N,Net-(D3-Pad2)*%
X110179920Y-33526360D02*
X110232381Y-33578821D01*
X110179920Y-32032840D02*
X110179920Y-33526360D01*
%TO.N,/SPI2_MISO*%
X108365499Y-71561441D02*
X108365499Y-66198501D01*
X111331057Y-74526999D02*
X108365499Y-71561441D01*
X115342999Y-74526999D02*
X111331057Y-74526999D01*
X116458000Y-75642000D02*
X115342999Y-74526999D01*
X108365499Y-66198501D02*
X108694000Y-65870000D01*
%TO.N,/SPI2_MOSI*%
X110079539Y-67089139D02*
X109762040Y-66771640D01*
X110445139Y-67089139D02*
X118998000Y-75642000D01*
X110079539Y-67089139D02*
X110445139Y-67089139D01*
%TO.N,/SWD_SWCLK*%
X98277498Y-61372502D02*
X118040482Y-61372502D01*
X96798000Y-62852000D02*
X98277498Y-61372502D01*
X118040482Y-61372502D02*
X118489494Y-61372502D01*
%TO.N,/SWD_SWDIO*%
X121013002Y-60790000D02*
X121076501Y-60726501D01*
X97402360Y-60790000D02*
X121013002Y-60790000D01*
X97151700Y-60539340D02*
X97402360Y-60790000D01*
X121076501Y-60726501D02*
X121394000Y-61044000D01*
%TO.N,/USER_LED1*%
X108948000Y-71281840D02*
X109710000Y-70519840D01*
X109710000Y-70519840D02*
X109710000Y-67902000D01*
D28*
%TO.N,Net-(R3-Pad1)*%
X114790000Y-57767399D02*
X115577399Y-56980000D01*
X115577399Y-56980000D02*
X120124000Y-56980000D01*
%TO.N,Net-(R13-Pad1)*%
X119467400Y-28622920D02*
X119554920Y-28622920D01*
X119554920Y-28622920D02*
X120396000Y-29464000D01*
X119634000Y-32512000D02*
X119634000Y-33274000D01*
%TO.N,Net-(R16-Pad2)*%
X110562660Y-30683580D02*
X110475060Y-30683580D01*
X110475060Y-30683580D02*
X110429340Y-30637860D01*
D26*
X110562660Y-30683580D02*
X110620000Y-30626240D01*
X110620000Y-30626240D02*
X110620000Y-30556524D01*
X110620000Y-30556524D02*
X110620000Y-30107512D01*
X112396040Y-30454200D02*
X112441760Y-30408480D01*
X110582480Y-30454200D02*
X112396040Y-30454200D01*
X112828280Y-31320000D02*
X114770000Y-31320000D01*
X112441760Y-30933480D02*
X112828280Y-31320000D01*
X112441760Y-30408480D02*
X112441760Y-30933480D01*
X114770000Y-31320000D02*
X115210000Y-31760000D01*
X118290000Y-31920000D02*
X118290000Y-32770000D01*
X118130000Y-31760000D02*
X118290000Y-31920000D01*
X115210000Y-31760000D02*
X118130000Y-31760000D01*
%TO.N,+5V*%
X115590000Y-35820000D02*
X114430000Y-35820000D01*
X114351890Y-35898110D02*
X114351890Y-36021890D01*
X114430000Y-35820000D02*
X114351890Y-35898110D01*
X111230000Y-29351720D02*
X110582480Y-28704200D01*
X111230000Y-29540000D02*
X111230000Y-29351720D01*
%TO.N,Net-(R18-Pad1)*%
X120355001Y-33804999D02*
X120340000Y-33820000D01*
X120355001Y-32255001D02*
X120355001Y-33804999D01*
X115359440Y-31190000D02*
X119290000Y-31190000D01*
X114623640Y-30454200D02*
X115359440Y-31190000D01*
X120340000Y-33820000D02*
X119490000Y-33820000D01*
X119290000Y-31190000D02*
X120355001Y-32255001D01*
X114148640Y-30454200D02*
X114623640Y-30454200D01*
%TO.N,/CHG_LED*%
X114660000Y-34350000D02*
X115510000Y-34350000D01*
X112526040Y-33597480D02*
X113278560Y-34350000D01*
X113278560Y-34350000D02*
X114660000Y-34350000D01*
X112001040Y-33597480D02*
X112526040Y-33597480D01*
%TO.N,/SPI1_SSN*%
X119405001Y-62314000D02*
X119405001Y-62611001D01*
X127744000Y-68712558D02*
X127744000Y-71458000D01*
X127744000Y-71458000D02*
X127490000Y-71712000D01*
X122360443Y-63329001D02*
X127744000Y-68712558D01*
X119420002Y-63329001D02*
X122360443Y-63329001D01*
X119405001Y-63314000D02*
X119420002Y-63329001D01*
X119405001Y-62314000D02*
X119405001Y-63314000D01*
%TO.N,/SPI1_MOSI*%
X123411444Y-69934000D02*
X123819384Y-70341940D01*
X126278994Y-70341940D02*
X126728006Y-70341940D01*
X120705001Y-69934000D02*
X123411444Y-69934000D01*
X123819384Y-70341940D02*
X126278994Y-70341940D01*
%TO.N,/SPI1_MISO*%
X120673001Y-67394000D02*
X121423001Y-67394000D01*
X121423001Y-67394000D02*
X123617770Y-69588769D01*
X123617770Y-69588769D02*
X125842294Y-69588769D01*
X125842294Y-69588769D02*
X126291306Y-69588769D01*
%TO.N,/SPI1_SCK*%
X120662000Y-64854000D02*
X122096720Y-64854000D01*
X122096720Y-64854000D02*
X125767063Y-68524343D01*
X125767063Y-68524343D02*
X126084562Y-68841842D01*
%TO.N,Net-(JP4-Pad1)*%
X119108000Y-65108000D02*
X119362000Y-64854000D01*
X118092000Y-65108000D02*
X119108000Y-65108000D01*
%TO.N,Net-(JP5-Pad1)*%
X117838000Y-67394000D02*
X119373001Y-67394000D01*
%TO.N,Net-(JP6-Pad1)*%
X117393499Y-69489499D02*
X117076000Y-69172000D01*
X117838000Y-69934000D02*
X117393499Y-69489499D01*
X119405001Y-69934000D02*
X117838000Y-69934000D01*
%TO.N,Net-(JP7-Pad1)*%
X120632000Y-61821522D02*
X120632000Y-61372510D01*
X120632000Y-62240999D02*
X120632000Y-61821522D01*
X120705001Y-62314000D02*
X120632000Y-62240999D01*
%TO.N,GNDD*%
X128350920Y-70589784D02*
X129423244Y-71662108D01*
X128350920Y-70442000D02*
X128350920Y-70589784D01*
%TD*%
M02*
