%TF.GenerationSoftware,KiCad,Pcbnew,5.1.5+dfsg1-2build2*%
%TF.CreationDate,2021-04-08T10:41:37-07:00*%
%TF.ProjectId,spl_prototype,73706c5f-7072-46f7-946f-747970652e6b,rev?*%
%TF.SameCoordinates,Original*%
%TF.FileFunction,Copper,L2,Inr*%
%TF.FilePolarity,Positive*%
%FSLAX46Y46*%
G04 Gerber Fmt 4.6, Leading zero omitted, Abs format (unit mm)*
G04 Created by KiCad (PCBNEW 5.1.5+dfsg1-2build2) date 2021-04-08 10:41:37*
%MOMM*%
%LPD*%
G04 APERTURE LIST*
%TA.AperFunction,Profile*%
%ADD10C,0.050000*%
%TD*%
%TA.AperFunction,ViaPad*%
%ADD11C,0.100000*%
%TD*%
%TA.AperFunction,ViaPad*%
%ADD12O,2.000000X1.700000*%
%TD*%
%TA.AperFunction,ViaPad*%
%ADD13O,1.400000X1.400000*%
%TD*%
%TA.AperFunction,ViaPad*%
%ADD14C,1.400000*%
%TD*%
%TA.AperFunction,ViaPad*%
%ADD15C,0.920000*%
%TD*%
%TA.AperFunction,ViaPad*%
%ADD16R,1.700000X1.700000*%
%TD*%
%TA.AperFunction,ViaPad*%
%ADD17O,1.700000X1.700000*%
%TD*%
%TA.AperFunction,ViaPad*%
%ADD18C,0.200000*%
%TD*%
%TA.AperFunction,ViaPad*%
%ADD19C,4.000000*%
%TD*%
%TA.AperFunction,ViaPad*%
%ADD20C,0.635000*%
%TD*%
%TA.AperFunction,ViaPad*%
%ADD21C,0.800000*%
%TD*%
%TA.AperFunction,Conductor*%
%ADD22C,0.254000*%
%TD*%
G04 APERTURE END LIST*
D10*
X97000000Y-44759201D02*
X96960034Y-25501071D01*
X132420000Y-46300000D02*
X98500649Y-46300000D01*
X134030000Y-25590649D02*
X134027699Y-44839584D01*
X98560000Y-23940799D02*
X132469351Y-23960000D01*
X132468914Y-23957945D02*
G75*
G02X134030000Y-25590649I11087J-1552056D01*
G01*
X134027699Y-44839584D02*
G75*
G02X132420000Y-46300000I-1457700J-10417D01*
G01*
X98500649Y-46300000D02*
G75*
G02X97000000Y-44759201I-10650J1490800D01*
G01*
X96960034Y-25501071D02*
G75*
G02X98560000Y-23940799I1549967J11072D01*
G01*
X89700000Y-78720000D02*
X89709201Y-54740649D01*
X143120000Y-80390000D02*
X91200649Y-80260799D01*
X144640000Y-55030000D02*
X144660799Y-78889351D01*
X91250000Y-53240000D02*
X143140000Y-53490000D01*
X144660799Y-78889351D02*
G75*
G02X143120000Y-80390000I-1490800J-10650D01*
G01*
X91200649Y-80260799D02*
G75*
G02X89700000Y-78720000I-10650J1490800D01*
G01*
X143139351Y-53489201D02*
G75*
G02X144640000Y-55030000I10650J-1490800D01*
G01*
X89709201Y-54740649D02*
G75*
G02X91250000Y-53240000I1490800J10650D01*
G01*
%TA.AperFunction,ViaPad*%
D11*
%TO.N,GNDD*%
%TO.C,J8*%
G36*
X142454504Y-64601204D02*
G01*
X142478773Y-64604804D01*
X142502571Y-64610765D01*
X142525671Y-64619030D01*
X142547849Y-64629520D01*
X142568893Y-64642133D01*
X142588598Y-64656747D01*
X142606777Y-64673223D01*
X142623253Y-64691402D01*
X142637867Y-64711107D01*
X142650480Y-64732151D01*
X142660970Y-64754329D01*
X142669235Y-64777429D01*
X142675196Y-64801227D01*
X142678796Y-64825496D01*
X142680000Y-64850000D01*
X142680000Y-66050000D01*
X142678796Y-66074504D01*
X142675196Y-66098773D01*
X142669235Y-66122571D01*
X142660970Y-66145671D01*
X142650480Y-66167849D01*
X142637867Y-66188893D01*
X142623253Y-66208598D01*
X142606777Y-66226777D01*
X142588598Y-66243253D01*
X142568893Y-66257867D01*
X142547849Y-66270480D01*
X142525671Y-66280970D01*
X142502571Y-66289235D01*
X142478773Y-66295196D01*
X142454504Y-66298796D01*
X142430000Y-66300000D01*
X140930000Y-66300000D01*
X140905496Y-66298796D01*
X140881227Y-66295196D01*
X140857429Y-66289235D01*
X140834329Y-66280970D01*
X140812151Y-66270480D01*
X140791107Y-66257867D01*
X140771402Y-66243253D01*
X140753223Y-66226777D01*
X140736747Y-66208598D01*
X140722133Y-66188893D01*
X140709520Y-66167849D01*
X140699030Y-66145671D01*
X140690765Y-66122571D01*
X140684804Y-66098773D01*
X140681204Y-66074504D01*
X140680000Y-66050000D01*
X140680000Y-64850000D01*
X140681204Y-64825496D01*
X140684804Y-64801227D01*
X140690765Y-64777429D01*
X140699030Y-64754329D01*
X140709520Y-64732151D01*
X140722133Y-64711107D01*
X140736747Y-64691402D01*
X140753223Y-64673223D01*
X140771402Y-64656747D01*
X140791107Y-64642133D01*
X140812151Y-64629520D01*
X140834329Y-64619030D01*
X140857429Y-64610765D01*
X140881227Y-64604804D01*
X140905496Y-64601204D01*
X140930000Y-64600000D01*
X142430000Y-64600000D01*
X142454504Y-64601204D01*
G37*
%TD.AperFunction*%
D12*
%TO.N,/STM32SUPPLY*%
X141680000Y-67950000D03*
%TD*%
%TO.N,/STM32SUPPLY_SRC*%
%TO.C,J5*%
X130610000Y-33760000D03*
%TA.AperFunction,ViaPad*%
D11*
%TO.N,GND*%
G36*
X131384504Y-35411204D02*
G01*
X131408773Y-35414804D01*
X131432571Y-35420765D01*
X131455671Y-35429030D01*
X131477849Y-35439520D01*
X131498893Y-35452133D01*
X131518598Y-35466747D01*
X131536777Y-35483223D01*
X131553253Y-35501402D01*
X131567867Y-35521107D01*
X131580480Y-35542151D01*
X131590970Y-35564329D01*
X131599235Y-35587429D01*
X131605196Y-35611227D01*
X131608796Y-35635496D01*
X131610000Y-35660000D01*
X131610000Y-36860000D01*
X131608796Y-36884504D01*
X131605196Y-36908773D01*
X131599235Y-36932571D01*
X131590970Y-36955671D01*
X131580480Y-36977849D01*
X131567867Y-36998893D01*
X131553253Y-37018598D01*
X131536777Y-37036777D01*
X131518598Y-37053253D01*
X131498893Y-37067867D01*
X131477849Y-37080480D01*
X131455671Y-37090970D01*
X131432571Y-37099235D01*
X131408773Y-37105196D01*
X131384504Y-37108796D01*
X131360000Y-37110000D01*
X129860000Y-37110000D01*
X129835496Y-37108796D01*
X129811227Y-37105196D01*
X129787429Y-37099235D01*
X129764329Y-37090970D01*
X129742151Y-37080480D01*
X129721107Y-37067867D01*
X129701402Y-37053253D01*
X129683223Y-37036777D01*
X129666747Y-37018598D01*
X129652133Y-36998893D01*
X129639520Y-36977849D01*
X129629030Y-36955671D01*
X129620765Y-36932571D01*
X129614804Y-36908773D01*
X129611204Y-36884504D01*
X129610000Y-36860000D01*
X129610000Y-35660000D01*
X129611204Y-35635496D01*
X129614804Y-35611227D01*
X129620765Y-35587429D01*
X129629030Y-35564329D01*
X129639520Y-35542151D01*
X129652133Y-35521107D01*
X129666747Y-35501402D01*
X129683223Y-35483223D01*
X129701402Y-35466747D01*
X129721107Y-35452133D01*
X129742151Y-35439520D01*
X129764329Y-35429030D01*
X129787429Y-35420765D01*
X129811227Y-35414804D01*
X129835496Y-35411204D01*
X129860000Y-35410000D01*
X131360000Y-35410000D01*
X131384504Y-35411204D01*
G37*
%TD.AperFunction*%
%TD*%
D13*
%TO.N,Net-(C18-Pad2)*%
%TO.C,J6*%
X116940000Y-26570000D03*
D14*
%TO.N,Net-(C21-Pad2)*%
X122020000Y-26570000D03*
%TD*%
D15*
%TO.N,Net-(C11-Pad1)*%
%TO.C,Y1*%
X107022140Y-64066220D03*
%TO.N,Net-(C10-Pad1)*%
X107022140Y-62966220D03*
%TD*%
D16*
%TO.N,/STM32SUPPLY*%
%TO.C,J7*%
X101074000Y-57234000D03*
D17*
%TO.N,GNDD*%
X103614000Y-57234000D03*
%TO.N,/I2C1_SCL*%
X106154000Y-57234000D03*
%TO.N,/I2C1_SDA*%
X108694000Y-57234000D03*
%TD*%
D16*
%TO.N,/STM32SUPPLY*%
%TO.C,J4 JTAG*%
X96798000Y-57772000D03*
D17*
%TO.N,/SWD_SWDIO*%
X96798000Y-60312000D03*
%TO.N,/SWD_SWCLK*%
X96798000Y-62852000D03*
%TO.N,GNDD*%
X96798000Y-65392000D03*
%TO.N,/USART_TX*%
X96798000Y-67932000D03*
%TO.N,/USART_RX*%
X96798000Y-70472000D03*
%TD*%
D16*
%TO.N,/LoRaRST*%
%TO.C,J3*%
X124078000Y-75642000D03*
D17*
%TO.N,/SPI2_SSN*%
X121538000Y-75642000D03*
%TO.N,/SPI2_MOSI*%
X118998000Y-75642000D03*
%TO.N,/SPI2_MISO*%
X116458000Y-75642000D03*
%TO.N,/SPI2_SCK*%
X113918000Y-75642000D03*
%TO.N,/LoRaIRQ*%
X111378000Y-75642000D03*
%TO.N,/LoRaEN*%
X108838000Y-75642000D03*
%TO.N,GNDD*%
X106298000Y-75642000D03*
%TO.N,/STM32SUPPLY*%
X103758000Y-75642000D03*
%TD*%
D12*
%TO.N,+BATT*%
%TO.C,J1 BATT*%
X100250000Y-36500000D03*
%TA.AperFunction,ViaPad*%
D11*
%TO.N,GND*%
G36*
X101024504Y-33151204D02*
G01*
X101048773Y-33154804D01*
X101072571Y-33160765D01*
X101095671Y-33169030D01*
X101117849Y-33179520D01*
X101138893Y-33192133D01*
X101158598Y-33206747D01*
X101176777Y-33223223D01*
X101193253Y-33241402D01*
X101207867Y-33261107D01*
X101220480Y-33282151D01*
X101230970Y-33304329D01*
X101239235Y-33327429D01*
X101245196Y-33351227D01*
X101248796Y-33375496D01*
X101250000Y-33400000D01*
X101250000Y-34600000D01*
X101248796Y-34624504D01*
X101245196Y-34648773D01*
X101239235Y-34672571D01*
X101230970Y-34695671D01*
X101220480Y-34717849D01*
X101207867Y-34738893D01*
X101193253Y-34758598D01*
X101176777Y-34776777D01*
X101158598Y-34793253D01*
X101138893Y-34807867D01*
X101117849Y-34820480D01*
X101095671Y-34830970D01*
X101072571Y-34839235D01*
X101048773Y-34845196D01*
X101024504Y-34848796D01*
X101000000Y-34850000D01*
X99500000Y-34850000D01*
X99475496Y-34848796D01*
X99451227Y-34845196D01*
X99427429Y-34839235D01*
X99404329Y-34830970D01*
X99382151Y-34820480D01*
X99361107Y-34807867D01*
X99341402Y-34793253D01*
X99323223Y-34776777D01*
X99306747Y-34758598D01*
X99292133Y-34738893D01*
X99279520Y-34717849D01*
X99269030Y-34695671D01*
X99260765Y-34672571D01*
X99254804Y-34648773D01*
X99251204Y-34624504D01*
X99250000Y-34600000D01*
X99250000Y-33400000D01*
X99251204Y-33375496D01*
X99254804Y-33351227D01*
X99260765Y-33327429D01*
X99269030Y-33304329D01*
X99279520Y-33282151D01*
X99292133Y-33261107D01*
X99306747Y-33241402D01*
X99323223Y-33223223D01*
X99341402Y-33206747D01*
X99361107Y-33192133D01*
X99382151Y-33179520D01*
X99404329Y-33169030D01*
X99427429Y-33160765D01*
X99451227Y-33154804D01*
X99475496Y-33151204D01*
X99500000Y-33150000D01*
X101000000Y-33150000D01*
X101024504Y-33151204D01*
G37*
%TD.AperFunction*%
%TD*%
D18*
%TO.N,*%
%TO.C,U7*%
X117040000Y-34070000D03*
X118040000Y-34070000D03*
X118040000Y-36070000D03*
X117040000Y-36070000D03*
X117540000Y-34070000D03*
X117540000Y-36070000D03*
%TD*%
D19*
%TO.N,*%
X140918000Y-56400000D03*
X140918000Y-77000000D03*
X92918000Y-56400000D03*
X92918000Y-77000000D03*
X100000000Y-27000000D03*
X100076000Y-43100000D03*
X131000000Y-27000000D03*
X131000000Y-43100000D03*
D20*
X113470000Y-33690000D03*
X114370000Y-33690000D03*
X103140000Y-29250000D03*
X104040000Y-29250000D03*
X104940000Y-29250000D03*
X105840000Y-29250000D03*
X106740000Y-29250000D03*
X107640000Y-29250000D03*
X103140000Y-30150000D03*
X104040000Y-30150000D03*
X104940000Y-30150000D03*
X105840000Y-30150000D03*
X106740000Y-30150000D03*
X107640000Y-30150000D03*
X103140000Y-31050000D03*
X104040000Y-31050000D03*
X104940000Y-31050000D03*
X105840000Y-31050000D03*
X106740000Y-31050000D03*
X107640000Y-31050000D03*
X103140000Y-31950000D03*
X104040000Y-31950000D03*
X104940000Y-31950000D03*
X105840000Y-31950000D03*
X106740000Y-31950000D03*
X107640000Y-31950000D03*
X126640000Y-28650000D03*
X125690000Y-26900000D03*
X124790000Y-26000000D03*
X125740000Y-28650000D03*
X124840000Y-27750000D03*
X126640000Y-27750000D03*
X125740000Y-27750000D03*
X127500000Y-28650000D03*
X124790000Y-26900000D03*
X123890000Y-26900000D03*
X123890000Y-26000000D03*
%TO.N,GND*%
X115141960Y-32611960D03*
X115414040Y-28790360D03*
X116005000Y-30560000D03*
X113538000Y-27686000D03*
X126200000Y-37120000D03*
X126260000Y-35240000D03*
X114680000Y-43510000D03*
X114530000Y-41490000D03*
X114300000Y-38140000D03*
X122315000Y-42265000D03*
X126110000Y-42230000D03*
X128450000Y-36640000D03*
X105156000Y-37338000D03*
X108712000Y-40132000D03*
X122280000Y-37666510D03*
X118579720Y-38377500D03*
X104140000Y-34544000D03*
X113430000Y-32050000D03*
X118480000Y-28260000D03*
X122520000Y-28370000D03*
%TO.N,/STM32SUPPLY*%
X135544120Y-55278340D03*
X132246880Y-65294220D03*
X122672260Y-60571180D03*
X112127540Y-59335380D03*
X128627925Y-71886140D03*
X101074000Y-59012000D03*
X98280000Y-57742000D03*
X124696000Y-62822000D03*
X126088401Y-67880739D03*
X135872000Y-60282000D03*
X121648000Y-71204000D03*
X114247260Y-72185260D03*
%TO.N,Net-(C18-Pad1)*%
X119530000Y-37620000D03*
%TO.N,Net-(C21-Pad2)*%
X125910000Y-36170000D03*
X120527936Y-36792520D03*
%TO.N,Net-(C29-Pad1)*%
X122682000Y-30480000D03*
D21*
X121020001Y-33020000D03*
D20*
%TO.N,/VRECT*%
X121666000Y-36501500D03*
%TO.N,/SPI2_MISO*%
X108694000Y-65870000D03*
%TO.N,/SPI2_MOSI*%
X109762040Y-66771640D03*
%TO.N,/SWD_SWCLK*%
X118489494Y-61372502D03*
%TO.N,/SWD_SWDIO*%
X121394000Y-61044000D03*
%TO.N,/USER_LED1*%
X108948000Y-71281840D03*
X109710000Y-67902000D03*
%TO.N,Net-(R3-Pad1)*%
X120124000Y-56980000D03*
X114790000Y-57767399D03*
%TO.N,Net-(R13-Pad1)*%
X120396000Y-29464000D03*
X119634000Y-32512000D03*
%TO.N,+5V*%
X114351890Y-36021890D03*
X111230000Y-29540000D03*
X124460000Y-42418000D03*
X109474000Y-34544000D03*
D21*
X123471800Y-31523800D03*
D20*
%TO.N,/SPI1_SSN*%
X127490000Y-71712000D03*
%TO.N,/SPI1_MOSI*%
X126728006Y-70341940D03*
%TO.N,/SPI1_MISO*%
X126291306Y-69588769D03*
%TO.N,/SPI1_SCK*%
X126084562Y-68841842D03*
%TO.N,Net-(JP4-Pad1)*%
X118092000Y-65108000D03*
%TO.N,Net-(JP5-Pad1)*%
X117838000Y-67394000D03*
%TO.N,Net-(JP6-Pad1)*%
X117076000Y-69172000D03*
%TO.N,Net-(JP7-Pad1)*%
X120632000Y-61372510D03*
%TO.N,GNDD*%
X124395740Y-61763620D03*
X127479300Y-65441540D03*
X128551180Y-63983580D03*
X120247260Y-72038580D03*
X113082580Y-72375740D03*
X100552760Y-64331560D03*
D21*
X125818140Y-73678760D03*
D20*
X113747260Y-57767400D03*
X99912040Y-68421640D03*
X107212040Y-68421640D03*
X112962040Y-66671640D03*
D21*
X98548000Y-65492000D03*
D20*
X129423244Y-71662108D03*
X128350920Y-70442000D03*
X103614000Y-59012000D03*
X100566000Y-62568000D03*
X126220000Y-62822000D03*
X122664000Y-58250000D03*
X137650000Y-60028000D03*
X110218000Y-59774000D03*
%TD*%
D22*
%TO.N,GNDD*%
G36*
X139568231Y-54132799D02*
G01*
X139238285Y-54353262D01*
X138871262Y-54720285D01*
X138582893Y-55151859D01*
X138384261Y-55631399D01*
X138283000Y-56140475D01*
X138283000Y-56659525D01*
X138384261Y-57168601D01*
X138582893Y-57648141D01*
X138871262Y-58079715D01*
X139238285Y-58446738D01*
X139669859Y-58735107D01*
X140149399Y-58933739D01*
X140658475Y-59035000D01*
X141177525Y-59035000D01*
X141686601Y-58933739D01*
X142166141Y-58735107D01*
X142597715Y-58446738D01*
X142964738Y-58079715D01*
X143253107Y-57648141D01*
X143451739Y-57168601D01*
X143553000Y-56659525D01*
X143553000Y-56140475D01*
X143451739Y-55631399D01*
X143253107Y-55151859D01*
X142964738Y-54720285D01*
X142597715Y-54353262D01*
X142287375Y-54145899D01*
X143117099Y-54149897D01*
X143304958Y-54166962D01*
X143459930Y-54212546D01*
X143603093Y-54287360D01*
X143728997Y-54388557D01*
X143832848Y-54512280D01*
X143910692Y-54653821D01*
X143959559Y-54807786D01*
X143980331Y-54992702D01*
X143980312Y-54994676D01*
X143979972Y-54998157D01*
X144000773Y-78859712D01*
X143983037Y-79054960D01*
X143937456Y-79209926D01*
X143862640Y-79353093D01*
X143761443Y-79478997D01*
X143637721Y-79582847D01*
X143496175Y-79660693D01*
X143342215Y-79709559D01*
X143157298Y-79730331D01*
X143156433Y-79730323D01*
X143154061Y-79730083D01*
X93322922Y-79606079D01*
X93686601Y-79533739D01*
X94166141Y-79335107D01*
X94597715Y-79046738D01*
X94964738Y-78679715D01*
X95253107Y-78248141D01*
X95451739Y-77768601D01*
X95553000Y-77259525D01*
X95553000Y-76740475D01*
X95451739Y-76231399D01*
X95253107Y-75751859D01*
X95081974Y-75495740D01*
X102273000Y-75495740D01*
X102273000Y-75788260D01*
X102330068Y-76075158D01*
X102442010Y-76345411D01*
X102604525Y-76588632D01*
X102811368Y-76795475D01*
X103054589Y-76957990D01*
X103324842Y-77069932D01*
X103611740Y-77127000D01*
X103904260Y-77127000D01*
X104191158Y-77069932D01*
X104461411Y-76957990D01*
X104704632Y-76795475D01*
X104911475Y-76588632D01*
X105033195Y-76406466D01*
X105102822Y-76523355D01*
X105297731Y-76739588D01*
X105531080Y-76913641D01*
X105793901Y-77038825D01*
X105941110Y-77083476D01*
X106171000Y-76962155D01*
X106171000Y-75769000D01*
X106151000Y-75769000D01*
X106151000Y-75515000D01*
X106171000Y-75515000D01*
X106171000Y-74321845D01*
X106425000Y-74321845D01*
X106425000Y-75515000D01*
X106445000Y-75515000D01*
X106445000Y-75769000D01*
X106425000Y-75769000D01*
X106425000Y-76962155D01*
X106654890Y-77083476D01*
X106802099Y-77038825D01*
X107064920Y-76913641D01*
X107298269Y-76739588D01*
X107493178Y-76523355D01*
X107562805Y-76406466D01*
X107684525Y-76588632D01*
X107891368Y-76795475D01*
X108134589Y-76957990D01*
X108404842Y-77069932D01*
X108691740Y-77127000D01*
X108984260Y-77127000D01*
X109271158Y-77069932D01*
X109541411Y-76957990D01*
X109784632Y-76795475D01*
X109991475Y-76588632D01*
X110108000Y-76414240D01*
X110224525Y-76588632D01*
X110431368Y-76795475D01*
X110674589Y-76957990D01*
X110944842Y-77069932D01*
X111231740Y-77127000D01*
X111524260Y-77127000D01*
X111811158Y-77069932D01*
X112081411Y-76957990D01*
X112324632Y-76795475D01*
X112531475Y-76588632D01*
X112648000Y-76414240D01*
X112764525Y-76588632D01*
X112971368Y-76795475D01*
X113214589Y-76957990D01*
X113484842Y-77069932D01*
X113771740Y-77127000D01*
X114064260Y-77127000D01*
X114351158Y-77069932D01*
X114621411Y-76957990D01*
X114864632Y-76795475D01*
X115071475Y-76588632D01*
X115188000Y-76414240D01*
X115304525Y-76588632D01*
X115511368Y-76795475D01*
X115754589Y-76957990D01*
X116024842Y-77069932D01*
X116311740Y-77127000D01*
X116604260Y-77127000D01*
X116891158Y-77069932D01*
X117161411Y-76957990D01*
X117404632Y-76795475D01*
X117611475Y-76588632D01*
X117728000Y-76414240D01*
X117844525Y-76588632D01*
X118051368Y-76795475D01*
X118294589Y-76957990D01*
X118564842Y-77069932D01*
X118851740Y-77127000D01*
X119144260Y-77127000D01*
X119431158Y-77069932D01*
X119701411Y-76957990D01*
X119944632Y-76795475D01*
X120151475Y-76588632D01*
X120268000Y-76414240D01*
X120384525Y-76588632D01*
X120591368Y-76795475D01*
X120834589Y-76957990D01*
X121104842Y-77069932D01*
X121391740Y-77127000D01*
X121684260Y-77127000D01*
X121971158Y-77069932D01*
X122241411Y-76957990D01*
X122484632Y-76795475D01*
X122616487Y-76663620D01*
X122638498Y-76736180D01*
X122697463Y-76846494D01*
X122776815Y-76943185D01*
X122873506Y-77022537D01*
X122983820Y-77081502D01*
X123103518Y-77117812D01*
X123228000Y-77130072D01*
X124928000Y-77130072D01*
X125052482Y-77117812D01*
X125172180Y-77081502D01*
X125282494Y-77022537D01*
X125379185Y-76943185D01*
X125458537Y-76846494D01*
X125515206Y-76740475D01*
X138283000Y-76740475D01*
X138283000Y-77259525D01*
X138384261Y-77768601D01*
X138582893Y-78248141D01*
X138871262Y-78679715D01*
X139238285Y-79046738D01*
X139669859Y-79335107D01*
X140149399Y-79533739D01*
X140658475Y-79635000D01*
X141177525Y-79635000D01*
X141686601Y-79533739D01*
X142166141Y-79335107D01*
X142597715Y-79046738D01*
X142964738Y-78679715D01*
X143253107Y-78248141D01*
X143451739Y-77768601D01*
X143553000Y-77259525D01*
X143553000Y-76740475D01*
X143451739Y-76231399D01*
X143253107Y-75751859D01*
X142964738Y-75320285D01*
X142597715Y-74953262D01*
X142166141Y-74664893D01*
X141686601Y-74466261D01*
X141177525Y-74365000D01*
X140658475Y-74365000D01*
X140149399Y-74466261D01*
X139669859Y-74664893D01*
X139238285Y-74953262D01*
X138871262Y-75320285D01*
X138582893Y-75751859D01*
X138384261Y-76231399D01*
X138283000Y-76740475D01*
X125515206Y-76740475D01*
X125517502Y-76736180D01*
X125553812Y-76616482D01*
X125566072Y-76492000D01*
X125566072Y-74792000D01*
X125553812Y-74667518D01*
X125517502Y-74547820D01*
X125458537Y-74437506D01*
X125379185Y-74340815D01*
X125282494Y-74261463D01*
X125172180Y-74202498D01*
X125052482Y-74166188D01*
X124928000Y-74153928D01*
X123228000Y-74153928D01*
X123103518Y-74166188D01*
X122983820Y-74202498D01*
X122873506Y-74261463D01*
X122776815Y-74340815D01*
X122697463Y-74437506D01*
X122638498Y-74547820D01*
X122616487Y-74620380D01*
X122484632Y-74488525D01*
X122241411Y-74326010D01*
X121971158Y-74214068D01*
X121684260Y-74157000D01*
X121391740Y-74157000D01*
X121104842Y-74214068D01*
X120834589Y-74326010D01*
X120591368Y-74488525D01*
X120384525Y-74695368D01*
X120268000Y-74869760D01*
X120151475Y-74695368D01*
X119944632Y-74488525D01*
X119701411Y-74326010D01*
X119431158Y-74214068D01*
X119144260Y-74157000D01*
X118851740Y-74157000D01*
X118564842Y-74214068D01*
X118294589Y-74326010D01*
X118051368Y-74488525D01*
X117844525Y-74695368D01*
X117728000Y-74869760D01*
X117611475Y-74695368D01*
X117404632Y-74488525D01*
X117161411Y-74326010D01*
X116891158Y-74214068D01*
X116604260Y-74157000D01*
X116311740Y-74157000D01*
X116024842Y-74214068D01*
X115754589Y-74326010D01*
X115511368Y-74488525D01*
X115304525Y-74695368D01*
X115188000Y-74869760D01*
X115071475Y-74695368D01*
X114864632Y-74488525D01*
X114621411Y-74326010D01*
X114351158Y-74214068D01*
X114064260Y-74157000D01*
X113771740Y-74157000D01*
X113484842Y-74214068D01*
X113214589Y-74326010D01*
X112971368Y-74488525D01*
X112764525Y-74695368D01*
X112648000Y-74869760D01*
X112531475Y-74695368D01*
X112324632Y-74488525D01*
X112081411Y-74326010D01*
X111811158Y-74214068D01*
X111524260Y-74157000D01*
X111231740Y-74157000D01*
X110944842Y-74214068D01*
X110674589Y-74326010D01*
X110431368Y-74488525D01*
X110224525Y-74695368D01*
X110108000Y-74869760D01*
X109991475Y-74695368D01*
X109784632Y-74488525D01*
X109541411Y-74326010D01*
X109271158Y-74214068D01*
X108984260Y-74157000D01*
X108691740Y-74157000D01*
X108404842Y-74214068D01*
X108134589Y-74326010D01*
X107891368Y-74488525D01*
X107684525Y-74695368D01*
X107562805Y-74877534D01*
X107493178Y-74760645D01*
X107298269Y-74544412D01*
X107064920Y-74370359D01*
X106802099Y-74245175D01*
X106654890Y-74200524D01*
X106425000Y-74321845D01*
X106171000Y-74321845D01*
X105941110Y-74200524D01*
X105793901Y-74245175D01*
X105531080Y-74370359D01*
X105297731Y-74544412D01*
X105102822Y-74760645D01*
X105033195Y-74877534D01*
X104911475Y-74695368D01*
X104704632Y-74488525D01*
X104461411Y-74326010D01*
X104191158Y-74214068D01*
X103904260Y-74157000D01*
X103611740Y-74157000D01*
X103324842Y-74214068D01*
X103054589Y-74326010D01*
X102811368Y-74488525D01*
X102604525Y-74695368D01*
X102442010Y-74938589D01*
X102330068Y-75208842D01*
X102273000Y-75495740D01*
X95081974Y-75495740D01*
X94964738Y-75320285D01*
X94597715Y-74953262D01*
X94166141Y-74664893D01*
X93686601Y-74466261D01*
X93177525Y-74365000D01*
X92658475Y-74365000D01*
X92149399Y-74466261D01*
X91669859Y-74664893D01*
X91238285Y-74953262D01*
X90871262Y-75320285D01*
X90582893Y-75751859D01*
X90384261Y-76231399D01*
X90360909Y-76348796D01*
X90364194Y-67785740D01*
X95313000Y-67785740D01*
X95313000Y-68078260D01*
X95370068Y-68365158D01*
X95482010Y-68635411D01*
X95644525Y-68878632D01*
X95851368Y-69085475D01*
X96025760Y-69202000D01*
X95851368Y-69318525D01*
X95644525Y-69525368D01*
X95482010Y-69768589D01*
X95370068Y-70038842D01*
X95313000Y-70325740D01*
X95313000Y-70618260D01*
X95370068Y-70905158D01*
X95482010Y-71175411D01*
X95644525Y-71418632D01*
X95851368Y-71625475D01*
X96094589Y-71787990D01*
X96364842Y-71899932D01*
X96651740Y-71957000D01*
X96944260Y-71957000D01*
X97231158Y-71899932D01*
X97501411Y-71787990D01*
X97744632Y-71625475D01*
X97951475Y-71418632D01*
X98105560Y-71188027D01*
X107995500Y-71188027D01*
X107995500Y-71375653D01*
X108032104Y-71559674D01*
X108103905Y-71733018D01*
X108208145Y-71889024D01*
X108340816Y-72021695D01*
X108496822Y-72125935D01*
X108670166Y-72197736D01*
X108854187Y-72234340D01*
X109041813Y-72234340D01*
X109225834Y-72197736D01*
X109399178Y-72125935D01*
X109450792Y-72091447D01*
X113294760Y-72091447D01*
X113294760Y-72279073D01*
X113331364Y-72463094D01*
X113403165Y-72636438D01*
X113507405Y-72792444D01*
X113640076Y-72925115D01*
X113796082Y-73029355D01*
X113969426Y-73101156D01*
X114153447Y-73137760D01*
X114341073Y-73137760D01*
X114525094Y-73101156D01*
X114698438Y-73029355D01*
X114854444Y-72925115D01*
X114987115Y-72792444D01*
X115091355Y-72636438D01*
X115163156Y-72463094D01*
X115199760Y-72279073D01*
X115199760Y-72091447D01*
X115163156Y-71907426D01*
X115091355Y-71734082D01*
X114987115Y-71578076D01*
X114854444Y-71445405D01*
X114698438Y-71341165D01*
X114525094Y-71269364D01*
X114341073Y-71232760D01*
X114153447Y-71232760D01*
X113969426Y-71269364D01*
X113796082Y-71341165D01*
X113640076Y-71445405D01*
X113507405Y-71578076D01*
X113403165Y-71734082D01*
X113331364Y-71907426D01*
X113294760Y-72091447D01*
X109450792Y-72091447D01*
X109555184Y-72021695D01*
X109687855Y-71889024D01*
X109792095Y-71733018D01*
X109863896Y-71559674D01*
X109900500Y-71375653D01*
X109900500Y-71188027D01*
X109885017Y-71110187D01*
X120695500Y-71110187D01*
X120695500Y-71297813D01*
X120732104Y-71481834D01*
X120803905Y-71655178D01*
X120908145Y-71811184D01*
X121040816Y-71943855D01*
X121196822Y-72048095D01*
X121370166Y-72119896D01*
X121554187Y-72156500D01*
X121741813Y-72156500D01*
X121925834Y-72119896D01*
X122099178Y-72048095D01*
X122255184Y-71943855D01*
X122387855Y-71811184D01*
X122492095Y-71655178D01*
X122563896Y-71481834D01*
X122600500Y-71297813D01*
X122600500Y-71110187D01*
X122563896Y-70926166D01*
X122492095Y-70752822D01*
X122387855Y-70596816D01*
X122255184Y-70464145D01*
X122099178Y-70359905D01*
X121925834Y-70288104D01*
X121741813Y-70251500D01*
X121554187Y-70251500D01*
X121370166Y-70288104D01*
X121196822Y-70359905D01*
X121040816Y-70464145D01*
X120908145Y-70596816D01*
X120803905Y-70752822D01*
X120732104Y-70926166D01*
X120695500Y-71110187D01*
X109885017Y-71110187D01*
X109863896Y-71004006D01*
X109792095Y-70830662D01*
X109687855Y-70674656D01*
X109555184Y-70541985D01*
X109399178Y-70437745D01*
X109225834Y-70365944D01*
X109041813Y-70329340D01*
X108854187Y-70329340D01*
X108670166Y-70365944D01*
X108496822Y-70437745D01*
X108340816Y-70541985D01*
X108208145Y-70674656D01*
X108103905Y-70830662D01*
X108032104Y-71004006D01*
X107995500Y-71188027D01*
X98105560Y-71188027D01*
X98113990Y-71175411D01*
X98225932Y-70905158D01*
X98283000Y-70618260D01*
X98283000Y-70325740D01*
X98225932Y-70038842D01*
X98113990Y-69768589D01*
X97951475Y-69525368D01*
X97744632Y-69318525D01*
X97570240Y-69202000D01*
X97744632Y-69085475D01*
X97751920Y-69078187D01*
X116123500Y-69078187D01*
X116123500Y-69265813D01*
X116160104Y-69449834D01*
X116231905Y-69623178D01*
X116336145Y-69779184D01*
X116468816Y-69911855D01*
X116624822Y-70016095D01*
X116798166Y-70087896D01*
X116982187Y-70124500D01*
X117169813Y-70124500D01*
X117353834Y-70087896D01*
X117527178Y-70016095D01*
X117683184Y-69911855D01*
X117815855Y-69779184D01*
X117920095Y-69623178D01*
X117991896Y-69449834D01*
X118028500Y-69265813D01*
X118028500Y-69078187D01*
X117991896Y-68894166D01*
X117931365Y-68748029D01*
X125132062Y-68748029D01*
X125132062Y-68935655D01*
X125168666Y-69119676D01*
X125240467Y-69293020D01*
X125344707Y-69449026D01*
X125347405Y-69451724D01*
X125338806Y-69494956D01*
X125338806Y-69682582D01*
X125375410Y-69866603D01*
X125447211Y-70039947D01*
X125551451Y-70195953D01*
X125684122Y-70328624D01*
X125775506Y-70389685D01*
X125775506Y-70435753D01*
X125812110Y-70619774D01*
X125883911Y-70793118D01*
X125988151Y-70949124D01*
X126120822Y-71081795D01*
X126276828Y-71186035D01*
X126450172Y-71257836D01*
X126632149Y-71294033D01*
X126574104Y-71434166D01*
X126537500Y-71618187D01*
X126537500Y-71805813D01*
X126574104Y-71989834D01*
X126645905Y-72163178D01*
X126750145Y-72319184D01*
X126882816Y-72451855D01*
X127038822Y-72556095D01*
X127212166Y-72627896D01*
X127396187Y-72664500D01*
X127583813Y-72664500D01*
X127767834Y-72627896D01*
X127941178Y-72556095D01*
X127946971Y-72552225D01*
X128020741Y-72625995D01*
X128176747Y-72730235D01*
X128350091Y-72802036D01*
X128534112Y-72838640D01*
X128721738Y-72838640D01*
X128905759Y-72802036D01*
X129079103Y-72730235D01*
X129235109Y-72625995D01*
X129367780Y-72493324D01*
X129472020Y-72337318D01*
X129543821Y-72163974D01*
X129580425Y-71979953D01*
X129580425Y-71792327D01*
X129543821Y-71608306D01*
X129472020Y-71434962D01*
X129367780Y-71278956D01*
X129235109Y-71146285D01*
X129079103Y-71042045D01*
X128905759Y-70970244D01*
X128721738Y-70933640D01*
X128534112Y-70933640D01*
X128350091Y-70970244D01*
X128176747Y-71042045D01*
X128170954Y-71045915D01*
X128097184Y-70972145D01*
X127941178Y-70867905D01*
X127767834Y-70796104D01*
X127585857Y-70759907D01*
X127643902Y-70619774D01*
X127680506Y-70435753D01*
X127680506Y-70248127D01*
X127643902Y-70064106D01*
X127572101Y-69890762D01*
X127467861Y-69734756D01*
X127335190Y-69602085D01*
X127243806Y-69541024D01*
X127243806Y-69494956D01*
X127207202Y-69310935D01*
X127135401Y-69137591D01*
X127031161Y-68981585D01*
X127028463Y-68978887D01*
X127037062Y-68935655D01*
X127037062Y-68748029D01*
X127000458Y-68564008D01*
X126928657Y-68390664D01*
X126910950Y-68364163D01*
X126932496Y-68331917D01*
X127004297Y-68158573D01*
X127040901Y-67974552D01*
X127040901Y-67950000D01*
X140037815Y-67950000D01*
X140066487Y-68241111D01*
X140151401Y-68521034D01*
X140289294Y-68779014D01*
X140474866Y-69005134D01*
X140700986Y-69190706D01*
X140958966Y-69328599D01*
X141238889Y-69413513D01*
X141457050Y-69435000D01*
X141902950Y-69435000D01*
X142121111Y-69413513D01*
X142401034Y-69328599D01*
X142659014Y-69190706D01*
X142885134Y-69005134D01*
X143070706Y-68779014D01*
X143208599Y-68521034D01*
X143293513Y-68241111D01*
X143322185Y-67950000D01*
X143293513Y-67658889D01*
X143208599Y-67378966D01*
X143070706Y-67120986D01*
X142889392Y-66900055D01*
X142924180Y-66889502D01*
X143034494Y-66830537D01*
X143131185Y-66751185D01*
X143210537Y-66654494D01*
X143269502Y-66544180D01*
X143305812Y-66424482D01*
X143318072Y-66300000D01*
X143315000Y-65735750D01*
X143156250Y-65577000D01*
X141807000Y-65577000D01*
X141807000Y-65597000D01*
X141553000Y-65597000D01*
X141553000Y-65577000D01*
X140203750Y-65577000D01*
X140045000Y-65735750D01*
X140041928Y-66300000D01*
X140054188Y-66424482D01*
X140090498Y-66544180D01*
X140149463Y-66654494D01*
X140228815Y-66751185D01*
X140325506Y-66830537D01*
X140435820Y-66889502D01*
X140470608Y-66900055D01*
X140289294Y-67120986D01*
X140151401Y-67378966D01*
X140066487Y-67658889D01*
X140037815Y-67950000D01*
X127040901Y-67950000D01*
X127040901Y-67786926D01*
X127004297Y-67602905D01*
X126932496Y-67429561D01*
X126828256Y-67273555D01*
X126695585Y-67140884D01*
X126539579Y-67036644D01*
X126366235Y-66964843D01*
X126182214Y-66928239D01*
X125994588Y-66928239D01*
X125810567Y-66964843D01*
X125637223Y-67036644D01*
X125481217Y-67140884D01*
X125348546Y-67273555D01*
X125244306Y-67429561D01*
X125172505Y-67602905D01*
X125135901Y-67786926D01*
X125135901Y-67974552D01*
X125172505Y-68158573D01*
X125244306Y-68331917D01*
X125262013Y-68358418D01*
X125240467Y-68390664D01*
X125168666Y-68564008D01*
X125132062Y-68748029D01*
X117931365Y-68748029D01*
X117920095Y-68720822D01*
X117815855Y-68564816D01*
X117683184Y-68432145D01*
X117527178Y-68327905D01*
X117353834Y-68256104D01*
X117169813Y-68219500D01*
X116982187Y-68219500D01*
X116798166Y-68256104D01*
X116624822Y-68327905D01*
X116468816Y-68432145D01*
X116336145Y-68564816D01*
X116231905Y-68720822D01*
X116160104Y-68894166D01*
X116123500Y-69078187D01*
X97751920Y-69078187D01*
X97951475Y-68878632D01*
X98113990Y-68635411D01*
X98225932Y-68365158D01*
X98283000Y-68078260D01*
X98283000Y-67785740D01*
X98225932Y-67498842D01*
X98113990Y-67228589D01*
X97951475Y-66985368D01*
X97744632Y-66778525D01*
X97562466Y-66656805D01*
X97679355Y-66587178D01*
X97895588Y-66392269D01*
X98069641Y-66158920D01*
X98194825Y-65896099D01*
X98231196Y-65776187D01*
X107741500Y-65776187D01*
X107741500Y-65963813D01*
X107778104Y-66147834D01*
X107849905Y-66321178D01*
X107954145Y-66477184D01*
X108086816Y-66609855D01*
X108242822Y-66714095D01*
X108416166Y-66785896D01*
X108600187Y-66822500D01*
X108787813Y-66822500D01*
X108809540Y-66818178D01*
X108809540Y-66865453D01*
X108846144Y-67049474D01*
X108917945Y-67222818D01*
X108968099Y-67297878D01*
X108865905Y-67450822D01*
X108794104Y-67624166D01*
X108757500Y-67808187D01*
X108757500Y-67995813D01*
X108794104Y-68179834D01*
X108865905Y-68353178D01*
X108970145Y-68509184D01*
X109102816Y-68641855D01*
X109258822Y-68746095D01*
X109432166Y-68817896D01*
X109616187Y-68854500D01*
X109803813Y-68854500D01*
X109987834Y-68817896D01*
X110161178Y-68746095D01*
X110317184Y-68641855D01*
X110449855Y-68509184D01*
X110554095Y-68353178D01*
X110625896Y-68179834D01*
X110662500Y-67995813D01*
X110662500Y-67808187D01*
X110625896Y-67624166D01*
X110554095Y-67450822D01*
X110503941Y-67375762D01*
X110554438Y-67300187D01*
X116885500Y-67300187D01*
X116885500Y-67487813D01*
X116922104Y-67671834D01*
X116993905Y-67845178D01*
X117098145Y-68001184D01*
X117230816Y-68133855D01*
X117386822Y-68238095D01*
X117560166Y-68309896D01*
X117744187Y-68346500D01*
X117931813Y-68346500D01*
X118115834Y-68309896D01*
X118289178Y-68238095D01*
X118445184Y-68133855D01*
X118577855Y-68001184D01*
X118682095Y-67845178D01*
X118753896Y-67671834D01*
X118790500Y-67487813D01*
X118790500Y-67300187D01*
X118753896Y-67116166D01*
X118682095Y-66942822D01*
X118577855Y-66786816D01*
X118445184Y-66654145D01*
X118289178Y-66549905D01*
X118115834Y-66478104D01*
X117931813Y-66441500D01*
X117744187Y-66441500D01*
X117560166Y-66478104D01*
X117386822Y-66549905D01*
X117230816Y-66654145D01*
X117098145Y-66786816D01*
X116993905Y-66942822D01*
X116922104Y-67116166D01*
X116885500Y-67300187D01*
X110554438Y-67300187D01*
X110606135Y-67222818D01*
X110677936Y-67049474D01*
X110714540Y-66865453D01*
X110714540Y-66677827D01*
X110677936Y-66493806D01*
X110606135Y-66320462D01*
X110501895Y-66164456D01*
X110369224Y-66031785D01*
X110213218Y-65927545D01*
X110039874Y-65855744D01*
X109855853Y-65819140D01*
X109668227Y-65819140D01*
X109646500Y-65823462D01*
X109646500Y-65776187D01*
X109609896Y-65592166D01*
X109538095Y-65418822D01*
X109433855Y-65262816D01*
X109301184Y-65130145D01*
X109145178Y-65025905D01*
X109116889Y-65014187D01*
X117139500Y-65014187D01*
X117139500Y-65201813D01*
X117176104Y-65385834D01*
X117247905Y-65559178D01*
X117352145Y-65715184D01*
X117484816Y-65847855D01*
X117640822Y-65952095D01*
X117814166Y-66023896D01*
X117998187Y-66060500D01*
X118185813Y-66060500D01*
X118369834Y-66023896D01*
X118543178Y-65952095D01*
X118699184Y-65847855D01*
X118831855Y-65715184D01*
X118936095Y-65559178D01*
X119007896Y-65385834D01*
X119044500Y-65201813D01*
X119044500Y-65200407D01*
X131294380Y-65200407D01*
X131294380Y-65388033D01*
X131330984Y-65572054D01*
X131402785Y-65745398D01*
X131507025Y-65901404D01*
X131639696Y-66034075D01*
X131795702Y-66138315D01*
X131969046Y-66210116D01*
X132153067Y-66246720D01*
X132340693Y-66246720D01*
X132524714Y-66210116D01*
X132698058Y-66138315D01*
X132854064Y-66034075D01*
X132986735Y-65901404D01*
X133090975Y-65745398D01*
X133162776Y-65572054D01*
X133199380Y-65388033D01*
X133199380Y-65200407D01*
X133162776Y-65016386D01*
X133090975Y-64843042D01*
X132986735Y-64687036D01*
X132899699Y-64600000D01*
X140041928Y-64600000D01*
X140045000Y-65164250D01*
X140203750Y-65323000D01*
X141553000Y-65323000D01*
X141553000Y-64123750D01*
X141807000Y-64123750D01*
X141807000Y-65323000D01*
X143156250Y-65323000D01*
X143315000Y-65164250D01*
X143318072Y-64600000D01*
X143305812Y-64475518D01*
X143269502Y-64355820D01*
X143210537Y-64245506D01*
X143131185Y-64148815D01*
X143034494Y-64069463D01*
X142924180Y-64010498D01*
X142804482Y-63974188D01*
X142680000Y-63961928D01*
X141965750Y-63965000D01*
X141807000Y-64123750D01*
X141553000Y-64123750D01*
X141394250Y-63965000D01*
X140680000Y-63961928D01*
X140555518Y-63974188D01*
X140435820Y-64010498D01*
X140325506Y-64069463D01*
X140228815Y-64148815D01*
X140149463Y-64245506D01*
X140090498Y-64355820D01*
X140054188Y-64475518D01*
X140041928Y-64600000D01*
X132899699Y-64600000D01*
X132854064Y-64554365D01*
X132698058Y-64450125D01*
X132524714Y-64378324D01*
X132340693Y-64341720D01*
X132153067Y-64341720D01*
X131969046Y-64378324D01*
X131795702Y-64450125D01*
X131639696Y-64554365D01*
X131507025Y-64687036D01*
X131402785Y-64843042D01*
X131330984Y-65016386D01*
X131294380Y-65200407D01*
X119044500Y-65200407D01*
X119044500Y-65014187D01*
X119007896Y-64830166D01*
X118936095Y-64656822D01*
X118831855Y-64500816D01*
X118699184Y-64368145D01*
X118543178Y-64263905D01*
X118369834Y-64192104D01*
X118185813Y-64155500D01*
X117998187Y-64155500D01*
X117814166Y-64192104D01*
X117640822Y-64263905D01*
X117484816Y-64368145D01*
X117352145Y-64500816D01*
X117247905Y-64656822D01*
X117176104Y-64830166D01*
X117139500Y-65014187D01*
X109116889Y-65014187D01*
X108971834Y-64954104D01*
X108787813Y-64917500D01*
X108600187Y-64917500D01*
X108416166Y-64954104D01*
X108242822Y-65025905D01*
X108086816Y-65130145D01*
X107954145Y-65262816D01*
X107849905Y-65418822D01*
X107778104Y-65592166D01*
X107741500Y-65776187D01*
X98231196Y-65776187D01*
X98239476Y-65748890D01*
X98118155Y-65519000D01*
X96925000Y-65519000D01*
X96925000Y-65539000D01*
X96671000Y-65539000D01*
X96671000Y-65519000D01*
X95477845Y-65519000D01*
X95356524Y-65748890D01*
X95401175Y-65896099D01*
X95526359Y-66158920D01*
X95700412Y-66392269D01*
X95916645Y-66587178D01*
X96033534Y-66656805D01*
X95851368Y-66778525D01*
X95644525Y-66985368D01*
X95482010Y-67228589D01*
X95370068Y-67498842D01*
X95313000Y-67785740D01*
X90364194Y-67785740D01*
X90368300Y-57088358D01*
X90384261Y-57168601D01*
X90582893Y-57648141D01*
X90871262Y-58079715D01*
X91238285Y-58446738D01*
X91669859Y-58735107D01*
X92149399Y-58933739D01*
X92658475Y-59035000D01*
X93177525Y-59035000D01*
X93686601Y-58933739D01*
X94166141Y-58735107D01*
X94597715Y-58446738D01*
X94964738Y-58079715D01*
X95253107Y-57648141D01*
X95309928Y-57510963D01*
X95309928Y-58622000D01*
X95322188Y-58746482D01*
X95358498Y-58866180D01*
X95417463Y-58976494D01*
X95496815Y-59073185D01*
X95593506Y-59152537D01*
X95703820Y-59211502D01*
X95776380Y-59233513D01*
X95644525Y-59365368D01*
X95482010Y-59608589D01*
X95370068Y-59878842D01*
X95313000Y-60165740D01*
X95313000Y-60458260D01*
X95370068Y-60745158D01*
X95482010Y-61015411D01*
X95644525Y-61258632D01*
X95851368Y-61465475D01*
X96025760Y-61582000D01*
X95851368Y-61698525D01*
X95644525Y-61905368D01*
X95482010Y-62148589D01*
X95370068Y-62418842D01*
X95313000Y-62705740D01*
X95313000Y-62998260D01*
X95370068Y-63285158D01*
X95482010Y-63555411D01*
X95644525Y-63798632D01*
X95851368Y-64005475D01*
X96033534Y-64127195D01*
X95916645Y-64196822D01*
X95700412Y-64391731D01*
X95526359Y-64625080D01*
X95401175Y-64887901D01*
X95356524Y-65035110D01*
X95477845Y-65265000D01*
X96671000Y-65265000D01*
X96671000Y-65245000D01*
X96925000Y-65245000D01*
X96925000Y-65265000D01*
X98118155Y-65265000D01*
X98239476Y-65035110D01*
X98194825Y-64887901D01*
X98069641Y-64625080D01*
X97895588Y-64391731D01*
X97679355Y-64196822D01*
X97562466Y-64127195D01*
X97744632Y-64005475D01*
X97951475Y-63798632D01*
X98113990Y-63555411D01*
X98225932Y-63285158D01*
X98283000Y-62998260D01*
X98283000Y-62858372D01*
X105927140Y-62858372D01*
X105927140Y-63074068D01*
X105969220Y-63285620D01*
X106051764Y-63484897D01*
X106072693Y-63516220D01*
X106051764Y-63547543D01*
X105969220Y-63746820D01*
X105927140Y-63958372D01*
X105927140Y-64174068D01*
X105969220Y-64385620D01*
X106051764Y-64584897D01*
X106171598Y-64764242D01*
X106324118Y-64916762D01*
X106503463Y-65036596D01*
X106702740Y-65119140D01*
X106914292Y-65161220D01*
X107129988Y-65161220D01*
X107341540Y-65119140D01*
X107540817Y-65036596D01*
X107720162Y-64916762D01*
X107872682Y-64764242D01*
X107992516Y-64584897D01*
X108075060Y-64385620D01*
X108117140Y-64174068D01*
X108117140Y-63958372D01*
X108075060Y-63746820D01*
X107992516Y-63547543D01*
X107971587Y-63516220D01*
X107992516Y-63484897D01*
X108075060Y-63285620D01*
X108117140Y-63074068D01*
X108117140Y-62858372D01*
X108091245Y-62728187D01*
X123743500Y-62728187D01*
X123743500Y-62915813D01*
X123780104Y-63099834D01*
X123851905Y-63273178D01*
X123956145Y-63429184D01*
X124088816Y-63561855D01*
X124244822Y-63666095D01*
X124418166Y-63737896D01*
X124602187Y-63774500D01*
X124789813Y-63774500D01*
X124973834Y-63737896D01*
X125147178Y-63666095D01*
X125303184Y-63561855D01*
X125435855Y-63429184D01*
X125540095Y-63273178D01*
X125611896Y-63099834D01*
X125648500Y-62915813D01*
X125648500Y-62728187D01*
X125611896Y-62544166D01*
X125540095Y-62370822D01*
X125435855Y-62214816D01*
X125303184Y-62082145D01*
X125147178Y-61977905D01*
X124973834Y-61906104D01*
X124789813Y-61869500D01*
X124602187Y-61869500D01*
X124418166Y-61906104D01*
X124244822Y-61977905D01*
X124088816Y-62082145D01*
X123956145Y-62214816D01*
X123851905Y-62370822D01*
X123780104Y-62544166D01*
X123743500Y-62728187D01*
X108091245Y-62728187D01*
X108075060Y-62646820D01*
X107992516Y-62447543D01*
X107872682Y-62268198D01*
X107720162Y-62115678D01*
X107540817Y-61995844D01*
X107341540Y-61913300D01*
X107129988Y-61871220D01*
X106914292Y-61871220D01*
X106702740Y-61913300D01*
X106503463Y-61995844D01*
X106324118Y-62115678D01*
X106171598Y-62268198D01*
X106051764Y-62447543D01*
X105969220Y-62646820D01*
X105927140Y-62858372D01*
X98283000Y-62858372D01*
X98283000Y-62705740D01*
X98225932Y-62418842D01*
X98113990Y-62148589D01*
X97951475Y-61905368D01*
X97744632Y-61698525D01*
X97570240Y-61582000D01*
X97744632Y-61465475D01*
X97931418Y-61278689D01*
X117536994Y-61278689D01*
X117536994Y-61466315D01*
X117573598Y-61650336D01*
X117645399Y-61823680D01*
X117749639Y-61979686D01*
X117882310Y-62112357D01*
X118038316Y-62216597D01*
X118211660Y-62288398D01*
X118395681Y-62325002D01*
X118583307Y-62325002D01*
X118767328Y-62288398D01*
X118940672Y-62216597D01*
X119096678Y-62112357D01*
X119229349Y-61979686D01*
X119333589Y-61823680D01*
X119405390Y-61650336D01*
X119441994Y-61466315D01*
X119441994Y-61278697D01*
X119679500Y-61278697D01*
X119679500Y-61466323D01*
X119716104Y-61650344D01*
X119787905Y-61823688D01*
X119892145Y-61979694D01*
X120024816Y-62112365D01*
X120180822Y-62216605D01*
X120354166Y-62288406D01*
X120538187Y-62325010D01*
X120725813Y-62325010D01*
X120909834Y-62288406D01*
X121083178Y-62216605D01*
X121239184Y-62112365D01*
X121355049Y-61996500D01*
X121487813Y-61996500D01*
X121671834Y-61959896D01*
X121845178Y-61888095D01*
X122001184Y-61783855D01*
X122133855Y-61651184D01*
X122238095Y-61495178D01*
X122263853Y-61432991D01*
X122394426Y-61487076D01*
X122578447Y-61523680D01*
X122766073Y-61523680D01*
X122950094Y-61487076D01*
X123123438Y-61415275D01*
X123279444Y-61311035D01*
X123412115Y-61178364D01*
X123516355Y-61022358D01*
X123588156Y-60849014D01*
X123624760Y-60664993D01*
X123624760Y-60477367D01*
X123588156Y-60293346D01*
X123544598Y-60188187D01*
X134919500Y-60188187D01*
X134919500Y-60375813D01*
X134956104Y-60559834D01*
X135027905Y-60733178D01*
X135132145Y-60889184D01*
X135264816Y-61021855D01*
X135420822Y-61126095D01*
X135594166Y-61197896D01*
X135778187Y-61234500D01*
X135965813Y-61234500D01*
X136149834Y-61197896D01*
X136323178Y-61126095D01*
X136479184Y-61021855D01*
X136611855Y-60889184D01*
X136716095Y-60733178D01*
X136787896Y-60559834D01*
X136824500Y-60375813D01*
X136824500Y-60188187D01*
X136787896Y-60004166D01*
X136716095Y-59830822D01*
X136611855Y-59674816D01*
X136479184Y-59542145D01*
X136323178Y-59437905D01*
X136149834Y-59366104D01*
X135965813Y-59329500D01*
X135778187Y-59329500D01*
X135594166Y-59366104D01*
X135420822Y-59437905D01*
X135264816Y-59542145D01*
X135132145Y-59674816D01*
X135027905Y-59830822D01*
X134956104Y-60004166D01*
X134919500Y-60188187D01*
X123544598Y-60188187D01*
X123516355Y-60120002D01*
X123412115Y-59963996D01*
X123279444Y-59831325D01*
X123123438Y-59727085D01*
X122950094Y-59655284D01*
X122766073Y-59618680D01*
X122578447Y-59618680D01*
X122394426Y-59655284D01*
X122221082Y-59727085D01*
X122065076Y-59831325D01*
X121932405Y-59963996D01*
X121828165Y-60120002D01*
X121802407Y-60182189D01*
X121671834Y-60128104D01*
X121487813Y-60091500D01*
X121300187Y-60091500D01*
X121116166Y-60128104D01*
X120942822Y-60199905D01*
X120786816Y-60304145D01*
X120670951Y-60420010D01*
X120538187Y-60420010D01*
X120354166Y-60456614D01*
X120180822Y-60528415D01*
X120024816Y-60632655D01*
X119892145Y-60765326D01*
X119787905Y-60921332D01*
X119716104Y-61094676D01*
X119679500Y-61278697D01*
X119441994Y-61278697D01*
X119441994Y-61278689D01*
X119405390Y-61094668D01*
X119333589Y-60921324D01*
X119229349Y-60765318D01*
X119096678Y-60632647D01*
X118940672Y-60528407D01*
X118767328Y-60456606D01*
X118583307Y-60420002D01*
X118395681Y-60420002D01*
X118211660Y-60456606D01*
X118038316Y-60528407D01*
X117882310Y-60632647D01*
X117749639Y-60765318D01*
X117645399Y-60921324D01*
X117573598Y-61094668D01*
X117536994Y-61278689D01*
X97931418Y-61278689D01*
X97951475Y-61258632D01*
X98113990Y-61015411D01*
X98225932Y-60745158D01*
X98283000Y-60458260D01*
X98283000Y-60165740D01*
X98225932Y-59878842D01*
X98113990Y-59608589D01*
X97951475Y-59365368D01*
X97819620Y-59233513D01*
X97892180Y-59211502D01*
X98002494Y-59152537D01*
X98099185Y-59073185D01*
X98178537Y-58976494D01*
X98237502Y-58866180D01*
X98273812Y-58746482D01*
X98278932Y-58694500D01*
X98373813Y-58694500D01*
X98557834Y-58657896D01*
X98731178Y-58586095D01*
X98887184Y-58481855D01*
X99019855Y-58349184D01*
X99124095Y-58193178D01*
X99195896Y-58019834D01*
X99232500Y-57835813D01*
X99232500Y-57648187D01*
X99195896Y-57464166D01*
X99124095Y-57290822D01*
X99019855Y-57134816D01*
X98887184Y-57002145D01*
X98731178Y-56897905D01*
X98557834Y-56826104D01*
X98373813Y-56789500D01*
X98271380Y-56789500D01*
X98237502Y-56677820D01*
X98178537Y-56567506D01*
X98099185Y-56470815D01*
X98002494Y-56391463D01*
X97988532Y-56384000D01*
X99585928Y-56384000D01*
X99585928Y-58084000D01*
X99598188Y-58208482D01*
X99634498Y-58328180D01*
X99693463Y-58438494D01*
X99772815Y-58535185D01*
X99869506Y-58614537D01*
X99979820Y-58673502D01*
X100099518Y-58709812D01*
X100165500Y-58716310D01*
X100158104Y-58734166D01*
X100121500Y-58918187D01*
X100121500Y-59105813D01*
X100158104Y-59289834D01*
X100229905Y-59463178D01*
X100334145Y-59619184D01*
X100466816Y-59751855D01*
X100622822Y-59856095D01*
X100796166Y-59927896D01*
X100980187Y-59964500D01*
X101167813Y-59964500D01*
X101351834Y-59927896D01*
X101525178Y-59856095D01*
X101681184Y-59751855D01*
X101813855Y-59619184D01*
X101918095Y-59463178D01*
X101989896Y-59289834D01*
X101999496Y-59241567D01*
X111175040Y-59241567D01*
X111175040Y-59429193D01*
X111211644Y-59613214D01*
X111283445Y-59786558D01*
X111387685Y-59942564D01*
X111520356Y-60075235D01*
X111676362Y-60179475D01*
X111849706Y-60251276D01*
X112033727Y-60287880D01*
X112221353Y-60287880D01*
X112405374Y-60251276D01*
X112578718Y-60179475D01*
X112734724Y-60075235D01*
X112867395Y-59942564D01*
X112971635Y-59786558D01*
X113043436Y-59613214D01*
X113080040Y-59429193D01*
X113080040Y-59241567D01*
X113043436Y-59057546D01*
X112971635Y-58884202D01*
X112867395Y-58728196D01*
X112734724Y-58595525D01*
X112578718Y-58491285D01*
X112405374Y-58419484D01*
X112221353Y-58382880D01*
X112033727Y-58382880D01*
X111849706Y-58419484D01*
X111676362Y-58491285D01*
X111520356Y-58595525D01*
X111387685Y-58728196D01*
X111283445Y-58884202D01*
X111211644Y-59057546D01*
X111175040Y-59241567D01*
X101999496Y-59241567D01*
X102026500Y-59105813D01*
X102026500Y-58918187D01*
X101989896Y-58734166D01*
X101982500Y-58716310D01*
X102048482Y-58709812D01*
X102168180Y-58673502D01*
X102278494Y-58614537D01*
X102375185Y-58535185D01*
X102454537Y-58438494D01*
X102513502Y-58328180D01*
X102537966Y-58247534D01*
X102613731Y-58331588D01*
X102847080Y-58505641D01*
X103109901Y-58630825D01*
X103257110Y-58675476D01*
X103487000Y-58554155D01*
X103487000Y-57361000D01*
X103467000Y-57361000D01*
X103467000Y-57107000D01*
X103487000Y-57107000D01*
X103487000Y-55913845D01*
X103741000Y-55913845D01*
X103741000Y-57107000D01*
X103761000Y-57107000D01*
X103761000Y-57361000D01*
X103741000Y-57361000D01*
X103741000Y-58554155D01*
X103970890Y-58675476D01*
X104118099Y-58630825D01*
X104380920Y-58505641D01*
X104614269Y-58331588D01*
X104809178Y-58115355D01*
X104878805Y-57998466D01*
X105000525Y-58180632D01*
X105207368Y-58387475D01*
X105450589Y-58549990D01*
X105720842Y-58661932D01*
X106007740Y-58719000D01*
X106300260Y-58719000D01*
X106587158Y-58661932D01*
X106857411Y-58549990D01*
X107100632Y-58387475D01*
X107307475Y-58180632D01*
X107424000Y-58006240D01*
X107540525Y-58180632D01*
X107747368Y-58387475D01*
X107990589Y-58549990D01*
X108260842Y-58661932D01*
X108547740Y-58719000D01*
X108840260Y-58719000D01*
X109127158Y-58661932D01*
X109397411Y-58549990D01*
X109640632Y-58387475D01*
X109847475Y-58180632D01*
X110009990Y-57937411D01*
X110119269Y-57673586D01*
X113837500Y-57673586D01*
X113837500Y-57861212D01*
X113874104Y-58045233D01*
X113945905Y-58218577D01*
X114050145Y-58374583D01*
X114182816Y-58507254D01*
X114338822Y-58611494D01*
X114512166Y-58683295D01*
X114696187Y-58719899D01*
X114883813Y-58719899D01*
X115067834Y-58683295D01*
X115241178Y-58611494D01*
X115397184Y-58507254D01*
X115529855Y-58374583D01*
X115634095Y-58218577D01*
X115705896Y-58045233D01*
X115742500Y-57861212D01*
X115742500Y-57673586D01*
X115705896Y-57489565D01*
X115634095Y-57316221D01*
X115529855Y-57160215D01*
X115397184Y-57027544D01*
X115241178Y-56923304D01*
X115151570Y-56886187D01*
X119171500Y-56886187D01*
X119171500Y-57073813D01*
X119208104Y-57257834D01*
X119279905Y-57431178D01*
X119384145Y-57587184D01*
X119516816Y-57719855D01*
X119672822Y-57824095D01*
X119846166Y-57895896D01*
X120030187Y-57932500D01*
X120217813Y-57932500D01*
X120401834Y-57895896D01*
X120575178Y-57824095D01*
X120731184Y-57719855D01*
X120863855Y-57587184D01*
X120968095Y-57431178D01*
X121039896Y-57257834D01*
X121076500Y-57073813D01*
X121076500Y-56886187D01*
X121039896Y-56702166D01*
X120968095Y-56528822D01*
X120863855Y-56372816D01*
X120731184Y-56240145D01*
X120575178Y-56135905D01*
X120401834Y-56064104D01*
X120217813Y-56027500D01*
X120030187Y-56027500D01*
X119846166Y-56064104D01*
X119672822Y-56135905D01*
X119516816Y-56240145D01*
X119384145Y-56372816D01*
X119279905Y-56528822D01*
X119208104Y-56702166D01*
X119171500Y-56886187D01*
X115151570Y-56886187D01*
X115067834Y-56851503D01*
X114883813Y-56814899D01*
X114696187Y-56814899D01*
X114512166Y-56851503D01*
X114338822Y-56923304D01*
X114182816Y-57027544D01*
X114050145Y-57160215D01*
X113945905Y-57316221D01*
X113874104Y-57489565D01*
X113837500Y-57673586D01*
X110119269Y-57673586D01*
X110121932Y-57667158D01*
X110179000Y-57380260D01*
X110179000Y-57087740D01*
X110121932Y-56800842D01*
X110009990Y-56530589D01*
X109847475Y-56287368D01*
X109640632Y-56080525D01*
X109397411Y-55918010D01*
X109127158Y-55806068D01*
X108840260Y-55749000D01*
X108547740Y-55749000D01*
X108260842Y-55806068D01*
X107990589Y-55918010D01*
X107747368Y-56080525D01*
X107540525Y-56287368D01*
X107424000Y-56461760D01*
X107307475Y-56287368D01*
X107100632Y-56080525D01*
X106857411Y-55918010D01*
X106587158Y-55806068D01*
X106300260Y-55749000D01*
X106007740Y-55749000D01*
X105720842Y-55806068D01*
X105450589Y-55918010D01*
X105207368Y-56080525D01*
X105000525Y-56287368D01*
X104878805Y-56469534D01*
X104809178Y-56352645D01*
X104614269Y-56136412D01*
X104380920Y-55962359D01*
X104118099Y-55837175D01*
X103970890Y-55792524D01*
X103741000Y-55913845D01*
X103487000Y-55913845D01*
X103257110Y-55792524D01*
X103109901Y-55837175D01*
X102847080Y-55962359D01*
X102613731Y-56136412D01*
X102537966Y-56220466D01*
X102513502Y-56139820D01*
X102454537Y-56029506D01*
X102375185Y-55932815D01*
X102278494Y-55853463D01*
X102168180Y-55794498D01*
X102048482Y-55758188D01*
X101924000Y-55745928D01*
X100224000Y-55745928D01*
X100099518Y-55758188D01*
X99979820Y-55794498D01*
X99869506Y-55853463D01*
X99772815Y-55932815D01*
X99693463Y-56029506D01*
X99634498Y-56139820D01*
X99598188Y-56259518D01*
X99585928Y-56384000D01*
X97988532Y-56384000D01*
X97892180Y-56332498D01*
X97772482Y-56296188D01*
X97648000Y-56283928D01*
X95948000Y-56283928D01*
X95823518Y-56296188D01*
X95703820Y-56332498D01*
X95593506Y-56391463D01*
X95553000Y-56424705D01*
X95553000Y-56140475D01*
X95451739Y-55631399D01*
X95266639Y-55184527D01*
X134591620Y-55184527D01*
X134591620Y-55372153D01*
X134628224Y-55556174D01*
X134700025Y-55729518D01*
X134804265Y-55885524D01*
X134936936Y-56018195D01*
X135092942Y-56122435D01*
X135266286Y-56194236D01*
X135450307Y-56230840D01*
X135637933Y-56230840D01*
X135821954Y-56194236D01*
X135995298Y-56122435D01*
X136151304Y-56018195D01*
X136283975Y-55885524D01*
X136388215Y-55729518D01*
X136460016Y-55556174D01*
X136496620Y-55372153D01*
X136496620Y-55184527D01*
X136460016Y-55000506D01*
X136388215Y-54827162D01*
X136283975Y-54671156D01*
X136151304Y-54538485D01*
X135995298Y-54434245D01*
X135821954Y-54362444D01*
X135637933Y-54325840D01*
X135450307Y-54325840D01*
X135266286Y-54362444D01*
X135092942Y-54434245D01*
X134936936Y-54538485D01*
X134804265Y-54671156D01*
X134700025Y-54827162D01*
X134628224Y-55000506D01*
X134591620Y-55184527D01*
X95266639Y-55184527D01*
X95253107Y-55151859D01*
X94964738Y-54720285D01*
X94597715Y-54353262D01*
X94166141Y-54064893D01*
X93797706Y-53912282D01*
X139568231Y-54132799D01*
G37*
X139568231Y-54132799D02*
X139238285Y-54353262D01*
X138871262Y-54720285D01*
X138582893Y-55151859D01*
X138384261Y-55631399D01*
X138283000Y-56140475D01*
X138283000Y-56659525D01*
X138384261Y-57168601D01*
X138582893Y-57648141D01*
X138871262Y-58079715D01*
X139238285Y-58446738D01*
X139669859Y-58735107D01*
X140149399Y-58933739D01*
X140658475Y-59035000D01*
X141177525Y-59035000D01*
X141686601Y-58933739D01*
X142166141Y-58735107D01*
X142597715Y-58446738D01*
X142964738Y-58079715D01*
X143253107Y-57648141D01*
X143451739Y-57168601D01*
X143553000Y-56659525D01*
X143553000Y-56140475D01*
X143451739Y-55631399D01*
X143253107Y-55151859D01*
X142964738Y-54720285D01*
X142597715Y-54353262D01*
X142287375Y-54145899D01*
X143117099Y-54149897D01*
X143304958Y-54166962D01*
X143459930Y-54212546D01*
X143603093Y-54287360D01*
X143728997Y-54388557D01*
X143832848Y-54512280D01*
X143910692Y-54653821D01*
X143959559Y-54807786D01*
X143980331Y-54992702D01*
X143980312Y-54994676D01*
X143979972Y-54998157D01*
X144000773Y-78859712D01*
X143983037Y-79054960D01*
X143937456Y-79209926D01*
X143862640Y-79353093D01*
X143761443Y-79478997D01*
X143637721Y-79582847D01*
X143496175Y-79660693D01*
X143342215Y-79709559D01*
X143157298Y-79730331D01*
X143156433Y-79730323D01*
X143154061Y-79730083D01*
X93322922Y-79606079D01*
X93686601Y-79533739D01*
X94166141Y-79335107D01*
X94597715Y-79046738D01*
X94964738Y-78679715D01*
X95253107Y-78248141D01*
X95451739Y-77768601D01*
X95553000Y-77259525D01*
X95553000Y-76740475D01*
X95451739Y-76231399D01*
X95253107Y-75751859D01*
X95081974Y-75495740D01*
X102273000Y-75495740D01*
X102273000Y-75788260D01*
X102330068Y-76075158D01*
X102442010Y-76345411D01*
X102604525Y-76588632D01*
X102811368Y-76795475D01*
X103054589Y-76957990D01*
X103324842Y-77069932D01*
X103611740Y-77127000D01*
X103904260Y-77127000D01*
X104191158Y-77069932D01*
X104461411Y-76957990D01*
X104704632Y-76795475D01*
X104911475Y-76588632D01*
X105033195Y-76406466D01*
X105102822Y-76523355D01*
X105297731Y-76739588D01*
X105531080Y-76913641D01*
X105793901Y-77038825D01*
X105941110Y-77083476D01*
X106171000Y-76962155D01*
X106171000Y-75769000D01*
X106151000Y-75769000D01*
X106151000Y-75515000D01*
X106171000Y-75515000D01*
X106171000Y-74321845D01*
X106425000Y-74321845D01*
X106425000Y-75515000D01*
X106445000Y-75515000D01*
X106445000Y-75769000D01*
X106425000Y-75769000D01*
X106425000Y-76962155D01*
X106654890Y-77083476D01*
X106802099Y-77038825D01*
X107064920Y-76913641D01*
X107298269Y-76739588D01*
X107493178Y-76523355D01*
X107562805Y-76406466D01*
X107684525Y-76588632D01*
X107891368Y-76795475D01*
X108134589Y-76957990D01*
X108404842Y-77069932D01*
X108691740Y-77127000D01*
X108984260Y-77127000D01*
X109271158Y-77069932D01*
X109541411Y-76957990D01*
X109784632Y-76795475D01*
X109991475Y-76588632D01*
X110108000Y-76414240D01*
X110224525Y-76588632D01*
X110431368Y-76795475D01*
X110674589Y-76957990D01*
X110944842Y-77069932D01*
X111231740Y-77127000D01*
X111524260Y-77127000D01*
X111811158Y-77069932D01*
X112081411Y-76957990D01*
X112324632Y-76795475D01*
X112531475Y-76588632D01*
X112648000Y-76414240D01*
X112764525Y-76588632D01*
X112971368Y-76795475D01*
X113214589Y-76957990D01*
X113484842Y-77069932D01*
X113771740Y-77127000D01*
X114064260Y-77127000D01*
X114351158Y-77069932D01*
X114621411Y-76957990D01*
X114864632Y-76795475D01*
X115071475Y-76588632D01*
X115188000Y-76414240D01*
X115304525Y-76588632D01*
X115511368Y-76795475D01*
X115754589Y-76957990D01*
X116024842Y-77069932D01*
X116311740Y-77127000D01*
X116604260Y-77127000D01*
X116891158Y-77069932D01*
X117161411Y-76957990D01*
X117404632Y-76795475D01*
X117611475Y-76588632D01*
X117728000Y-76414240D01*
X117844525Y-76588632D01*
X118051368Y-76795475D01*
X118294589Y-76957990D01*
X118564842Y-77069932D01*
X118851740Y-77127000D01*
X119144260Y-77127000D01*
X119431158Y-77069932D01*
X119701411Y-76957990D01*
X119944632Y-76795475D01*
X120151475Y-76588632D01*
X120268000Y-76414240D01*
X120384525Y-76588632D01*
X120591368Y-76795475D01*
X120834589Y-76957990D01*
X121104842Y-77069932D01*
X121391740Y-77127000D01*
X121684260Y-77127000D01*
X121971158Y-77069932D01*
X122241411Y-76957990D01*
X122484632Y-76795475D01*
X122616487Y-76663620D01*
X122638498Y-76736180D01*
X122697463Y-76846494D01*
X122776815Y-76943185D01*
X122873506Y-77022537D01*
X122983820Y-77081502D01*
X123103518Y-77117812D01*
X123228000Y-77130072D01*
X124928000Y-77130072D01*
X125052482Y-77117812D01*
X125172180Y-77081502D01*
X125282494Y-77022537D01*
X125379185Y-76943185D01*
X125458537Y-76846494D01*
X125515206Y-76740475D01*
X138283000Y-76740475D01*
X138283000Y-77259525D01*
X138384261Y-77768601D01*
X138582893Y-78248141D01*
X138871262Y-78679715D01*
X139238285Y-79046738D01*
X139669859Y-79335107D01*
X140149399Y-79533739D01*
X140658475Y-79635000D01*
X141177525Y-79635000D01*
X141686601Y-79533739D01*
X142166141Y-79335107D01*
X142597715Y-79046738D01*
X142964738Y-78679715D01*
X143253107Y-78248141D01*
X143451739Y-77768601D01*
X143553000Y-77259525D01*
X143553000Y-76740475D01*
X143451739Y-76231399D01*
X143253107Y-75751859D01*
X142964738Y-75320285D01*
X142597715Y-74953262D01*
X142166141Y-74664893D01*
X141686601Y-74466261D01*
X141177525Y-74365000D01*
X140658475Y-74365000D01*
X140149399Y-74466261D01*
X139669859Y-74664893D01*
X139238285Y-74953262D01*
X138871262Y-75320285D01*
X138582893Y-75751859D01*
X138384261Y-76231399D01*
X138283000Y-76740475D01*
X125515206Y-76740475D01*
X125517502Y-76736180D01*
X125553812Y-76616482D01*
X125566072Y-76492000D01*
X125566072Y-74792000D01*
X125553812Y-74667518D01*
X125517502Y-74547820D01*
X125458537Y-74437506D01*
X125379185Y-74340815D01*
X125282494Y-74261463D01*
X125172180Y-74202498D01*
X125052482Y-74166188D01*
X124928000Y-74153928D01*
X123228000Y-74153928D01*
X123103518Y-74166188D01*
X122983820Y-74202498D01*
X122873506Y-74261463D01*
X122776815Y-74340815D01*
X122697463Y-74437506D01*
X122638498Y-74547820D01*
X122616487Y-74620380D01*
X122484632Y-74488525D01*
X122241411Y-74326010D01*
X121971158Y-74214068D01*
X121684260Y-74157000D01*
X121391740Y-74157000D01*
X121104842Y-74214068D01*
X120834589Y-74326010D01*
X120591368Y-74488525D01*
X120384525Y-74695368D01*
X120268000Y-74869760D01*
X120151475Y-74695368D01*
X119944632Y-74488525D01*
X119701411Y-74326010D01*
X119431158Y-74214068D01*
X119144260Y-74157000D01*
X118851740Y-74157000D01*
X118564842Y-74214068D01*
X118294589Y-74326010D01*
X118051368Y-74488525D01*
X117844525Y-74695368D01*
X117728000Y-74869760D01*
X117611475Y-74695368D01*
X117404632Y-74488525D01*
X117161411Y-74326010D01*
X116891158Y-74214068D01*
X116604260Y-74157000D01*
X116311740Y-74157000D01*
X116024842Y-74214068D01*
X115754589Y-74326010D01*
X115511368Y-74488525D01*
X115304525Y-74695368D01*
X115188000Y-74869760D01*
X115071475Y-74695368D01*
X114864632Y-74488525D01*
X114621411Y-74326010D01*
X114351158Y-74214068D01*
X114064260Y-74157000D01*
X113771740Y-74157000D01*
X113484842Y-74214068D01*
X113214589Y-74326010D01*
X112971368Y-74488525D01*
X112764525Y-74695368D01*
X112648000Y-74869760D01*
X112531475Y-74695368D01*
X112324632Y-74488525D01*
X112081411Y-74326010D01*
X111811158Y-74214068D01*
X111524260Y-74157000D01*
X111231740Y-74157000D01*
X110944842Y-74214068D01*
X110674589Y-74326010D01*
X110431368Y-74488525D01*
X110224525Y-74695368D01*
X110108000Y-74869760D01*
X109991475Y-74695368D01*
X109784632Y-74488525D01*
X109541411Y-74326010D01*
X109271158Y-74214068D01*
X108984260Y-74157000D01*
X108691740Y-74157000D01*
X108404842Y-74214068D01*
X108134589Y-74326010D01*
X107891368Y-74488525D01*
X107684525Y-74695368D01*
X107562805Y-74877534D01*
X107493178Y-74760645D01*
X107298269Y-74544412D01*
X107064920Y-74370359D01*
X106802099Y-74245175D01*
X106654890Y-74200524D01*
X106425000Y-74321845D01*
X106171000Y-74321845D01*
X105941110Y-74200524D01*
X105793901Y-74245175D01*
X105531080Y-74370359D01*
X105297731Y-74544412D01*
X105102822Y-74760645D01*
X105033195Y-74877534D01*
X104911475Y-74695368D01*
X104704632Y-74488525D01*
X104461411Y-74326010D01*
X104191158Y-74214068D01*
X103904260Y-74157000D01*
X103611740Y-74157000D01*
X103324842Y-74214068D01*
X103054589Y-74326010D01*
X102811368Y-74488525D01*
X102604525Y-74695368D01*
X102442010Y-74938589D01*
X102330068Y-75208842D01*
X102273000Y-75495740D01*
X95081974Y-75495740D01*
X94964738Y-75320285D01*
X94597715Y-74953262D01*
X94166141Y-74664893D01*
X93686601Y-74466261D01*
X93177525Y-74365000D01*
X92658475Y-74365000D01*
X92149399Y-74466261D01*
X91669859Y-74664893D01*
X91238285Y-74953262D01*
X90871262Y-75320285D01*
X90582893Y-75751859D01*
X90384261Y-76231399D01*
X90360909Y-76348796D01*
X90364194Y-67785740D01*
X95313000Y-67785740D01*
X95313000Y-68078260D01*
X95370068Y-68365158D01*
X95482010Y-68635411D01*
X95644525Y-68878632D01*
X95851368Y-69085475D01*
X96025760Y-69202000D01*
X95851368Y-69318525D01*
X95644525Y-69525368D01*
X95482010Y-69768589D01*
X95370068Y-70038842D01*
X95313000Y-70325740D01*
X95313000Y-70618260D01*
X95370068Y-70905158D01*
X95482010Y-71175411D01*
X95644525Y-71418632D01*
X95851368Y-71625475D01*
X96094589Y-71787990D01*
X96364842Y-71899932D01*
X96651740Y-71957000D01*
X96944260Y-71957000D01*
X97231158Y-71899932D01*
X97501411Y-71787990D01*
X97744632Y-71625475D01*
X97951475Y-71418632D01*
X98105560Y-71188027D01*
X107995500Y-71188027D01*
X107995500Y-71375653D01*
X108032104Y-71559674D01*
X108103905Y-71733018D01*
X108208145Y-71889024D01*
X108340816Y-72021695D01*
X108496822Y-72125935D01*
X108670166Y-72197736D01*
X108854187Y-72234340D01*
X109041813Y-72234340D01*
X109225834Y-72197736D01*
X109399178Y-72125935D01*
X109450792Y-72091447D01*
X113294760Y-72091447D01*
X113294760Y-72279073D01*
X113331364Y-72463094D01*
X113403165Y-72636438D01*
X113507405Y-72792444D01*
X113640076Y-72925115D01*
X113796082Y-73029355D01*
X113969426Y-73101156D01*
X114153447Y-73137760D01*
X114341073Y-73137760D01*
X114525094Y-73101156D01*
X114698438Y-73029355D01*
X114854444Y-72925115D01*
X114987115Y-72792444D01*
X115091355Y-72636438D01*
X115163156Y-72463094D01*
X115199760Y-72279073D01*
X115199760Y-72091447D01*
X115163156Y-71907426D01*
X115091355Y-71734082D01*
X114987115Y-71578076D01*
X114854444Y-71445405D01*
X114698438Y-71341165D01*
X114525094Y-71269364D01*
X114341073Y-71232760D01*
X114153447Y-71232760D01*
X113969426Y-71269364D01*
X113796082Y-71341165D01*
X113640076Y-71445405D01*
X113507405Y-71578076D01*
X113403165Y-71734082D01*
X113331364Y-71907426D01*
X113294760Y-72091447D01*
X109450792Y-72091447D01*
X109555184Y-72021695D01*
X109687855Y-71889024D01*
X109792095Y-71733018D01*
X109863896Y-71559674D01*
X109900500Y-71375653D01*
X109900500Y-71188027D01*
X109885017Y-71110187D01*
X120695500Y-71110187D01*
X120695500Y-71297813D01*
X120732104Y-71481834D01*
X120803905Y-71655178D01*
X120908145Y-71811184D01*
X121040816Y-71943855D01*
X121196822Y-72048095D01*
X121370166Y-72119896D01*
X121554187Y-72156500D01*
X121741813Y-72156500D01*
X121925834Y-72119896D01*
X122099178Y-72048095D01*
X122255184Y-71943855D01*
X122387855Y-71811184D01*
X122492095Y-71655178D01*
X122563896Y-71481834D01*
X122600500Y-71297813D01*
X122600500Y-71110187D01*
X122563896Y-70926166D01*
X122492095Y-70752822D01*
X122387855Y-70596816D01*
X122255184Y-70464145D01*
X122099178Y-70359905D01*
X121925834Y-70288104D01*
X121741813Y-70251500D01*
X121554187Y-70251500D01*
X121370166Y-70288104D01*
X121196822Y-70359905D01*
X121040816Y-70464145D01*
X120908145Y-70596816D01*
X120803905Y-70752822D01*
X120732104Y-70926166D01*
X120695500Y-71110187D01*
X109885017Y-71110187D01*
X109863896Y-71004006D01*
X109792095Y-70830662D01*
X109687855Y-70674656D01*
X109555184Y-70541985D01*
X109399178Y-70437745D01*
X109225834Y-70365944D01*
X109041813Y-70329340D01*
X108854187Y-70329340D01*
X108670166Y-70365944D01*
X108496822Y-70437745D01*
X108340816Y-70541985D01*
X108208145Y-70674656D01*
X108103905Y-70830662D01*
X108032104Y-71004006D01*
X107995500Y-71188027D01*
X98105560Y-71188027D01*
X98113990Y-71175411D01*
X98225932Y-70905158D01*
X98283000Y-70618260D01*
X98283000Y-70325740D01*
X98225932Y-70038842D01*
X98113990Y-69768589D01*
X97951475Y-69525368D01*
X97744632Y-69318525D01*
X97570240Y-69202000D01*
X97744632Y-69085475D01*
X97751920Y-69078187D01*
X116123500Y-69078187D01*
X116123500Y-69265813D01*
X116160104Y-69449834D01*
X116231905Y-69623178D01*
X116336145Y-69779184D01*
X116468816Y-69911855D01*
X116624822Y-70016095D01*
X116798166Y-70087896D01*
X116982187Y-70124500D01*
X117169813Y-70124500D01*
X117353834Y-70087896D01*
X117527178Y-70016095D01*
X117683184Y-69911855D01*
X117815855Y-69779184D01*
X117920095Y-69623178D01*
X117991896Y-69449834D01*
X118028500Y-69265813D01*
X118028500Y-69078187D01*
X117991896Y-68894166D01*
X117931365Y-68748029D01*
X125132062Y-68748029D01*
X125132062Y-68935655D01*
X125168666Y-69119676D01*
X125240467Y-69293020D01*
X125344707Y-69449026D01*
X125347405Y-69451724D01*
X125338806Y-69494956D01*
X125338806Y-69682582D01*
X125375410Y-69866603D01*
X125447211Y-70039947D01*
X125551451Y-70195953D01*
X125684122Y-70328624D01*
X125775506Y-70389685D01*
X125775506Y-70435753D01*
X125812110Y-70619774D01*
X125883911Y-70793118D01*
X125988151Y-70949124D01*
X126120822Y-71081795D01*
X126276828Y-71186035D01*
X126450172Y-71257836D01*
X126632149Y-71294033D01*
X126574104Y-71434166D01*
X126537500Y-71618187D01*
X126537500Y-71805813D01*
X126574104Y-71989834D01*
X126645905Y-72163178D01*
X126750145Y-72319184D01*
X126882816Y-72451855D01*
X127038822Y-72556095D01*
X127212166Y-72627896D01*
X127396187Y-72664500D01*
X127583813Y-72664500D01*
X127767834Y-72627896D01*
X127941178Y-72556095D01*
X127946971Y-72552225D01*
X128020741Y-72625995D01*
X128176747Y-72730235D01*
X128350091Y-72802036D01*
X128534112Y-72838640D01*
X128721738Y-72838640D01*
X128905759Y-72802036D01*
X129079103Y-72730235D01*
X129235109Y-72625995D01*
X129367780Y-72493324D01*
X129472020Y-72337318D01*
X129543821Y-72163974D01*
X129580425Y-71979953D01*
X129580425Y-71792327D01*
X129543821Y-71608306D01*
X129472020Y-71434962D01*
X129367780Y-71278956D01*
X129235109Y-71146285D01*
X129079103Y-71042045D01*
X128905759Y-70970244D01*
X128721738Y-70933640D01*
X128534112Y-70933640D01*
X128350091Y-70970244D01*
X128176747Y-71042045D01*
X128170954Y-71045915D01*
X128097184Y-70972145D01*
X127941178Y-70867905D01*
X127767834Y-70796104D01*
X127585857Y-70759907D01*
X127643902Y-70619774D01*
X127680506Y-70435753D01*
X127680506Y-70248127D01*
X127643902Y-70064106D01*
X127572101Y-69890762D01*
X127467861Y-69734756D01*
X127335190Y-69602085D01*
X127243806Y-69541024D01*
X127243806Y-69494956D01*
X127207202Y-69310935D01*
X127135401Y-69137591D01*
X127031161Y-68981585D01*
X127028463Y-68978887D01*
X127037062Y-68935655D01*
X127037062Y-68748029D01*
X127000458Y-68564008D01*
X126928657Y-68390664D01*
X126910950Y-68364163D01*
X126932496Y-68331917D01*
X127004297Y-68158573D01*
X127040901Y-67974552D01*
X127040901Y-67950000D01*
X140037815Y-67950000D01*
X140066487Y-68241111D01*
X140151401Y-68521034D01*
X140289294Y-68779014D01*
X140474866Y-69005134D01*
X140700986Y-69190706D01*
X140958966Y-69328599D01*
X141238889Y-69413513D01*
X141457050Y-69435000D01*
X141902950Y-69435000D01*
X142121111Y-69413513D01*
X142401034Y-69328599D01*
X142659014Y-69190706D01*
X142885134Y-69005134D01*
X143070706Y-68779014D01*
X143208599Y-68521034D01*
X143293513Y-68241111D01*
X143322185Y-67950000D01*
X143293513Y-67658889D01*
X143208599Y-67378966D01*
X143070706Y-67120986D01*
X142889392Y-66900055D01*
X142924180Y-66889502D01*
X143034494Y-66830537D01*
X143131185Y-66751185D01*
X143210537Y-66654494D01*
X143269502Y-66544180D01*
X143305812Y-66424482D01*
X143318072Y-66300000D01*
X143315000Y-65735750D01*
X143156250Y-65577000D01*
X141807000Y-65577000D01*
X141807000Y-65597000D01*
X141553000Y-65597000D01*
X141553000Y-65577000D01*
X140203750Y-65577000D01*
X140045000Y-65735750D01*
X140041928Y-66300000D01*
X140054188Y-66424482D01*
X140090498Y-66544180D01*
X140149463Y-66654494D01*
X140228815Y-66751185D01*
X140325506Y-66830537D01*
X140435820Y-66889502D01*
X140470608Y-66900055D01*
X140289294Y-67120986D01*
X140151401Y-67378966D01*
X140066487Y-67658889D01*
X140037815Y-67950000D01*
X127040901Y-67950000D01*
X127040901Y-67786926D01*
X127004297Y-67602905D01*
X126932496Y-67429561D01*
X126828256Y-67273555D01*
X126695585Y-67140884D01*
X126539579Y-67036644D01*
X126366235Y-66964843D01*
X126182214Y-66928239D01*
X125994588Y-66928239D01*
X125810567Y-66964843D01*
X125637223Y-67036644D01*
X125481217Y-67140884D01*
X125348546Y-67273555D01*
X125244306Y-67429561D01*
X125172505Y-67602905D01*
X125135901Y-67786926D01*
X125135901Y-67974552D01*
X125172505Y-68158573D01*
X125244306Y-68331917D01*
X125262013Y-68358418D01*
X125240467Y-68390664D01*
X125168666Y-68564008D01*
X125132062Y-68748029D01*
X117931365Y-68748029D01*
X117920095Y-68720822D01*
X117815855Y-68564816D01*
X117683184Y-68432145D01*
X117527178Y-68327905D01*
X117353834Y-68256104D01*
X117169813Y-68219500D01*
X116982187Y-68219500D01*
X116798166Y-68256104D01*
X116624822Y-68327905D01*
X116468816Y-68432145D01*
X116336145Y-68564816D01*
X116231905Y-68720822D01*
X116160104Y-68894166D01*
X116123500Y-69078187D01*
X97751920Y-69078187D01*
X97951475Y-68878632D01*
X98113990Y-68635411D01*
X98225932Y-68365158D01*
X98283000Y-68078260D01*
X98283000Y-67785740D01*
X98225932Y-67498842D01*
X98113990Y-67228589D01*
X97951475Y-66985368D01*
X97744632Y-66778525D01*
X97562466Y-66656805D01*
X97679355Y-66587178D01*
X97895588Y-66392269D01*
X98069641Y-66158920D01*
X98194825Y-65896099D01*
X98231196Y-65776187D01*
X107741500Y-65776187D01*
X107741500Y-65963813D01*
X107778104Y-66147834D01*
X107849905Y-66321178D01*
X107954145Y-66477184D01*
X108086816Y-66609855D01*
X108242822Y-66714095D01*
X108416166Y-66785896D01*
X108600187Y-66822500D01*
X108787813Y-66822500D01*
X108809540Y-66818178D01*
X108809540Y-66865453D01*
X108846144Y-67049474D01*
X108917945Y-67222818D01*
X108968099Y-67297878D01*
X108865905Y-67450822D01*
X108794104Y-67624166D01*
X108757500Y-67808187D01*
X108757500Y-67995813D01*
X108794104Y-68179834D01*
X108865905Y-68353178D01*
X108970145Y-68509184D01*
X109102816Y-68641855D01*
X109258822Y-68746095D01*
X109432166Y-68817896D01*
X109616187Y-68854500D01*
X109803813Y-68854500D01*
X109987834Y-68817896D01*
X110161178Y-68746095D01*
X110317184Y-68641855D01*
X110449855Y-68509184D01*
X110554095Y-68353178D01*
X110625896Y-68179834D01*
X110662500Y-67995813D01*
X110662500Y-67808187D01*
X110625896Y-67624166D01*
X110554095Y-67450822D01*
X110503941Y-67375762D01*
X110554438Y-67300187D01*
X116885500Y-67300187D01*
X116885500Y-67487813D01*
X116922104Y-67671834D01*
X116993905Y-67845178D01*
X117098145Y-68001184D01*
X117230816Y-68133855D01*
X117386822Y-68238095D01*
X117560166Y-68309896D01*
X117744187Y-68346500D01*
X117931813Y-68346500D01*
X118115834Y-68309896D01*
X118289178Y-68238095D01*
X118445184Y-68133855D01*
X118577855Y-68001184D01*
X118682095Y-67845178D01*
X118753896Y-67671834D01*
X118790500Y-67487813D01*
X118790500Y-67300187D01*
X118753896Y-67116166D01*
X118682095Y-66942822D01*
X118577855Y-66786816D01*
X118445184Y-66654145D01*
X118289178Y-66549905D01*
X118115834Y-66478104D01*
X117931813Y-66441500D01*
X117744187Y-66441500D01*
X117560166Y-66478104D01*
X117386822Y-66549905D01*
X117230816Y-66654145D01*
X117098145Y-66786816D01*
X116993905Y-66942822D01*
X116922104Y-67116166D01*
X116885500Y-67300187D01*
X110554438Y-67300187D01*
X110606135Y-67222818D01*
X110677936Y-67049474D01*
X110714540Y-66865453D01*
X110714540Y-66677827D01*
X110677936Y-66493806D01*
X110606135Y-66320462D01*
X110501895Y-66164456D01*
X110369224Y-66031785D01*
X110213218Y-65927545D01*
X110039874Y-65855744D01*
X109855853Y-65819140D01*
X109668227Y-65819140D01*
X109646500Y-65823462D01*
X109646500Y-65776187D01*
X109609896Y-65592166D01*
X109538095Y-65418822D01*
X109433855Y-65262816D01*
X109301184Y-65130145D01*
X109145178Y-65025905D01*
X109116889Y-65014187D01*
X117139500Y-65014187D01*
X117139500Y-65201813D01*
X117176104Y-65385834D01*
X117247905Y-65559178D01*
X117352145Y-65715184D01*
X117484816Y-65847855D01*
X117640822Y-65952095D01*
X117814166Y-66023896D01*
X117998187Y-66060500D01*
X118185813Y-66060500D01*
X118369834Y-66023896D01*
X118543178Y-65952095D01*
X118699184Y-65847855D01*
X118831855Y-65715184D01*
X118936095Y-65559178D01*
X119007896Y-65385834D01*
X119044500Y-65201813D01*
X119044500Y-65200407D01*
X131294380Y-65200407D01*
X131294380Y-65388033D01*
X131330984Y-65572054D01*
X131402785Y-65745398D01*
X131507025Y-65901404D01*
X131639696Y-66034075D01*
X131795702Y-66138315D01*
X131969046Y-66210116D01*
X132153067Y-66246720D01*
X132340693Y-66246720D01*
X132524714Y-66210116D01*
X132698058Y-66138315D01*
X132854064Y-66034075D01*
X132986735Y-65901404D01*
X133090975Y-65745398D01*
X133162776Y-65572054D01*
X133199380Y-65388033D01*
X133199380Y-65200407D01*
X133162776Y-65016386D01*
X133090975Y-64843042D01*
X132986735Y-64687036D01*
X132899699Y-64600000D01*
X140041928Y-64600000D01*
X140045000Y-65164250D01*
X140203750Y-65323000D01*
X141553000Y-65323000D01*
X141553000Y-64123750D01*
X141807000Y-64123750D01*
X141807000Y-65323000D01*
X143156250Y-65323000D01*
X143315000Y-65164250D01*
X143318072Y-64600000D01*
X143305812Y-64475518D01*
X143269502Y-64355820D01*
X143210537Y-64245506D01*
X143131185Y-64148815D01*
X143034494Y-64069463D01*
X142924180Y-64010498D01*
X142804482Y-63974188D01*
X142680000Y-63961928D01*
X141965750Y-63965000D01*
X141807000Y-64123750D01*
X141553000Y-64123750D01*
X141394250Y-63965000D01*
X140680000Y-63961928D01*
X140555518Y-63974188D01*
X140435820Y-64010498D01*
X140325506Y-64069463D01*
X140228815Y-64148815D01*
X140149463Y-64245506D01*
X140090498Y-64355820D01*
X140054188Y-64475518D01*
X140041928Y-64600000D01*
X132899699Y-64600000D01*
X132854064Y-64554365D01*
X132698058Y-64450125D01*
X132524714Y-64378324D01*
X132340693Y-64341720D01*
X132153067Y-64341720D01*
X131969046Y-64378324D01*
X131795702Y-64450125D01*
X131639696Y-64554365D01*
X131507025Y-64687036D01*
X131402785Y-64843042D01*
X131330984Y-65016386D01*
X131294380Y-65200407D01*
X119044500Y-65200407D01*
X119044500Y-65014187D01*
X119007896Y-64830166D01*
X118936095Y-64656822D01*
X118831855Y-64500816D01*
X118699184Y-64368145D01*
X118543178Y-64263905D01*
X118369834Y-64192104D01*
X118185813Y-64155500D01*
X117998187Y-64155500D01*
X117814166Y-64192104D01*
X117640822Y-64263905D01*
X117484816Y-64368145D01*
X117352145Y-64500816D01*
X117247905Y-64656822D01*
X117176104Y-64830166D01*
X117139500Y-65014187D01*
X109116889Y-65014187D01*
X108971834Y-64954104D01*
X108787813Y-64917500D01*
X108600187Y-64917500D01*
X108416166Y-64954104D01*
X108242822Y-65025905D01*
X108086816Y-65130145D01*
X107954145Y-65262816D01*
X107849905Y-65418822D01*
X107778104Y-65592166D01*
X107741500Y-65776187D01*
X98231196Y-65776187D01*
X98239476Y-65748890D01*
X98118155Y-65519000D01*
X96925000Y-65519000D01*
X96925000Y-65539000D01*
X96671000Y-65539000D01*
X96671000Y-65519000D01*
X95477845Y-65519000D01*
X95356524Y-65748890D01*
X95401175Y-65896099D01*
X95526359Y-66158920D01*
X95700412Y-66392269D01*
X95916645Y-66587178D01*
X96033534Y-66656805D01*
X95851368Y-66778525D01*
X95644525Y-66985368D01*
X95482010Y-67228589D01*
X95370068Y-67498842D01*
X95313000Y-67785740D01*
X90364194Y-67785740D01*
X90368300Y-57088358D01*
X90384261Y-57168601D01*
X90582893Y-57648141D01*
X90871262Y-58079715D01*
X91238285Y-58446738D01*
X91669859Y-58735107D01*
X92149399Y-58933739D01*
X92658475Y-59035000D01*
X93177525Y-59035000D01*
X93686601Y-58933739D01*
X94166141Y-58735107D01*
X94597715Y-58446738D01*
X94964738Y-58079715D01*
X95253107Y-57648141D01*
X95309928Y-57510963D01*
X95309928Y-58622000D01*
X95322188Y-58746482D01*
X95358498Y-58866180D01*
X95417463Y-58976494D01*
X95496815Y-59073185D01*
X95593506Y-59152537D01*
X95703820Y-59211502D01*
X95776380Y-59233513D01*
X95644525Y-59365368D01*
X95482010Y-59608589D01*
X95370068Y-59878842D01*
X95313000Y-60165740D01*
X95313000Y-60458260D01*
X95370068Y-60745158D01*
X95482010Y-61015411D01*
X95644525Y-61258632D01*
X95851368Y-61465475D01*
X96025760Y-61582000D01*
X95851368Y-61698525D01*
X95644525Y-61905368D01*
X95482010Y-62148589D01*
X95370068Y-62418842D01*
X95313000Y-62705740D01*
X95313000Y-62998260D01*
X95370068Y-63285158D01*
X95482010Y-63555411D01*
X95644525Y-63798632D01*
X95851368Y-64005475D01*
X96033534Y-64127195D01*
X95916645Y-64196822D01*
X95700412Y-64391731D01*
X95526359Y-64625080D01*
X95401175Y-64887901D01*
X95356524Y-65035110D01*
X95477845Y-65265000D01*
X96671000Y-65265000D01*
X96671000Y-65245000D01*
X96925000Y-65245000D01*
X96925000Y-65265000D01*
X98118155Y-65265000D01*
X98239476Y-65035110D01*
X98194825Y-64887901D01*
X98069641Y-64625080D01*
X97895588Y-64391731D01*
X97679355Y-64196822D01*
X97562466Y-64127195D01*
X97744632Y-64005475D01*
X97951475Y-63798632D01*
X98113990Y-63555411D01*
X98225932Y-63285158D01*
X98283000Y-62998260D01*
X98283000Y-62858372D01*
X105927140Y-62858372D01*
X105927140Y-63074068D01*
X105969220Y-63285620D01*
X106051764Y-63484897D01*
X106072693Y-63516220D01*
X106051764Y-63547543D01*
X105969220Y-63746820D01*
X105927140Y-63958372D01*
X105927140Y-64174068D01*
X105969220Y-64385620D01*
X106051764Y-64584897D01*
X106171598Y-64764242D01*
X106324118Y-64916762D01*
X106503463Y-65036596D01*
X106702740Y-65119140D01*
X106914292Y-65161220D01*
X107129988Y-65161220D01*
X107341540Y-65119140D01*
X107540817Y-65036596D01*
X107720162Y-64916762D01*
X107872682Y-64764242D01*
X107992516Y-64584897D01*
X108075060Y-64385620D01*
X108117140Y-64174068D01*
X108117140Y-63958372D01*
X108075060Y-63746820D01*
X107992516Y-63547543D01*
X107971587Y-63516220D01*
X107992516Y-63484897D01*
X108075060Y-63285620D01*
X108117140Y-63074068D01*
X108117140Y-62858372D01*
X108091245Y-62728187D01*
X123743500Y-62728187D01*
X123743500Y-62915813D01*
X123780104Y-63099834D01*
X123851905Y-63273178D01*
X123956145Y-63429184D01*
X124088816Y-63561855D01*
X124244822Y-63666095D01*
X124418166Y-63737896D01*
X124602187Y-63774500D01*
X124789813Y-63774500D01*
X124973834Y-63737896D01*
X125147178Y-63666095D01*
X125303184Y-63561855D01*
X125435855Y-63429184D01*
X125540095Y-63273178D01*
X125611896Y-63099834D01*
X125648500Y-62915813D01*
X125648500Y-62728187D01*
X125611896Y-62544166D01*
X125540095Y-62370822D01*
X125435855Y-62214816D01*
X125303184Y-62082145D01*
X125147178Y-61977905D01*
X124973834Y-61906104D01*
X124789813Y-61869500D01*
X124602187Y-61869500D01*
X124418166Y-61906104D01*
X124244822Y-61977905D01*
X124088816Y-62082145D01*
X123956145Y-62214816D01*
X123851905Y-62370822D01*
X123780104Y-62544166D01*
X123743500Y-62728187D01*
X108091245Y-62728187D01*
X108075060Y-62646820D01*
X107992516Y-62447543D01*
X107872682Y-62268198D01*
X107720162Y-62115678D01*
X107540817Y-61995844D01*
X107341540Y-61913300D01*
X107129988Y-61871220D01*
X106914292Y-61871220D01*
X106702740Y-61913300D01*
X106503463Y-61995844D01*
X106324118Y-62115678D01*
X106171598Y-62268198D01*
X106051764Y-62447543D01*
X105969220Y-62646820D01*
X105927140Y-62858372D01*
X98283000Y-62858372D01*
X98283000Y-62705740D01*
X98225932Y-62418842D01*
X98113990Y-62148589D01*
X97951475Y-61905368D01*
X97744632Y-61698525D01*
X97570240Y-61582000D01*
X97744632Y-61465475D01*
X97931418Y-61278689D01*
X117536994Y-61278689D01*
X117536994Y-61466315D01*
X117573598Y-61650336D01*
X117645399Y-61823680D01*
X117749639Y-61979686D01*
X117882310Y-62112357D01*
X118038316Y-62216597D01*
X118211660Y-62288398D01*
X118395681Y-62325002D01*
X118583307Y-62325002D01*
X118767328Y-62288398D01*
X118940672Y-62216597D01*
X119096678Y-62112357D01*
X119229349Y-61979686D01*
X119333589Y-61823680D01*
X119405390Y-61650336D01*
X119441994Y-61466315D01*
X119441994Y-61278697D01*
X119679500Y-61278697D01*
X119679500Y-61466323D01*
X119716104Y-61650344D01*
X119787905Y-61823688D01*
X119892145Y-61979694D01*
X120024816Y-62112365D01*
X120180822Y-62216605D01*
X120354166Y-62288406D01*
X120538187Y-62325010D01*
X120725813Y-62325010D01*
X120909834Y-62288406D01*
X121083178Y-62216605D01*
X121239184Y-62112365D01*
X121355049Y-61996500D01*
X121487813Y-61996500D01*
X121671834Y-61959896D01*
X121845178Y-61888095D01*
X122001184Y-61783855D01*
X122133855Y-61651184D01*
X122238095Y-61495178D01*
X122263853Y-61432991D01*
X122394426Y-61487076D01*
X122578447Y-61523680D01*
X122766073Y-61523680D01*
X122950094Y-61487076D01*
X123123438Y-61415275D01*
X123279444Y-61311035D01*
X123412115Y-61178364D01*
X123516355Y-61022358D01*
X123588156Y-60849014D01*
X123624760Y-60664993D01*
X123624760Y-60477367D01*
X123588156Y-60293346D01*
X123544598Y-60188187D01*
X134919500Y-60188187D01*
X134919500Y-60375813D01*
X134956104Y-60559834D01*
X135027905Y-60733178D01*
X135132145Y-60889184D01*
X135264816Y-61021855D01*
X135420822Y-61126095D01*
X135594166Y-61197896D01*
X135778187Y-61234500D01*
X135965813Y-61234500D01*
X136149834Y-61197896D01*
X136323178Y-61126095D01*
X136479184Y-61021855D01*
X136611855Y-60889184D01*
X136716095Y-60733178D01*
X136787896Y-60559834D01*
X136824500Y-60375813D01*
X136824500Y-60188187D01*
X136787896Y-60004166D01*
X136716095Y-59830822D01*
X136611855Y-59674816D01*
X136479184Y-59542145D01*
X136323178Y-59437905D01*
X136149834Y-59366104D01*
X135965813Y-59329500D01*
X135778187Y-59329500D01*
X135594166Y-59366104D01*
X135420822Y-59437905D01*
X135264816Y-59542145D01*
X135132145Y-59674816D01*
X135027905Y-59830822D01*
X134956104Y-60004166D01*
X134919500Y-60188187D01*
X123544598Y-60188187D01*
X123516355Y-60120002D01*
X123412115Y-59963996D01*
X123279444Y-59831325D01*
X123123438Y-59727085D01*
X122950094Y-59655284D01*
X122766073Y-59618680D01*
X122578447Y-59618680D01*
X122394426Y-59655284D01*
X122221082Y-59727085D01*
X122065076Y-59831325D01*
X121932405Y-59963996D01*
X121828165Y-60120002D01*
X121802407Y-60182189D01*
X121671834Y-60128104D01*
X121487813Y-60091500D01*
X121300187Y-60091500D01*
X121116166Y-60128104D01*
X120942822Y-60199905D01*
X120786816Y-60304145D01*
X120670951Y-60420010D01*
X120538187Y-60420010D01*
X120354166Y-60456614D01*
X120180822Y-60528415D01*
X120024816Y-60632655D01*
X119892145Y-60765326D01*
X119787905Y-60921332D01*
X119716104Y-61094676D01*
X119679500Y-61278697D01*
X119441994Y-61278697D01*
X119441994Y-61278689D01*
X119405390Y-61094668D01*
X119333589Y-60921324D01*
X119229349Y-60765318D01*
X119096678Y-60632647D01*
X118940672Y-60528407D01*
X118767328Y-60456606D01*
X118583307Y-60420002D01*
X118395681Y-60420002D01*
X118211660Y-60456606D01*
X118038316Y-60528407D01*
X117882310Y-60632647D01*
X117749639Y-60765318D01*
X117645399Y-60921324D01*
X117573598Y-61094668D01*
X117536994Y-61278689D01*
X97931418Y-61278689D01*
X97951475Y-61258632D01*
X98113990Y-61015411D01*
X98225932Y-60745158D01*
X98283000Y-60458260D01*
X98283000Y-60165740D01*
X98225932Y-59878842D01*
X98113990Y-59608589D01*
X97951475Y-59365368D01*
X97819620Y-59233513D01*
X97892180Y-59211502D01*
X98002494Y-59152537D01*
X98099185Y-59073185D01*
X98178537Y-58976494D01*
X98237502Y-58866180D01*
X98273812Y-58746482D01*
X98278932Y-58694500D01*
X98373813Y-58694500D01*
X98557834Y-58657896D01*
X98731178Y-58586095D01*
X98887184Y-58481855D01*
X99019855Y-58349184D01*
X99124095Y-58193178D01*
X99195896Y-58019834D01*
X99232500Y-57835813D01*
X99232500Y-57648187D01*
X99195896Y-57464166D01*
X99124095Y-57290822D01*
X99019855Y-57134816D01*
X98887184Y-57002145D01*
X98731178Y-56897905D01*
X98557834Y-56826104D01*
X98373813Y-56789500D01*
X98271380Y-56789500D01*
X98237502Y-56677820D01*
X98178537Y-56567506D01*
X98099185Y-56470815D01*
X98002494Y-56391463D01*
X97988532Y-56384000D01*
X99585928Y-56384000D01*
X99585928Y-58084000D01*
X99598188Y-58208482D01*
X99634498Y-58328180D01*
X99693463Y-58438494D01*
X99772815Y-58535185D01*
X99869506Y-58614537D01*
X99979820Y-58673502D01*
X100099518Y-58709812D01*
X100165500Y-58716310D01*
X100158104Y-58734166D01*
X100121500Y-58918187D01*
X100121500Y-59105813D01*
X100158104Y-59289834D01*
X100229905Y-59463178D01*
X100334145Y-59619184D01*
X100466816Y-59751855D01*
X100622822Y-59856095D01*
X100796166Y-59927896D01*
X100980187Y-59964500D01*
X101167813Y-59964500D01*
X101351834Y-59927896D01*
X101525178Y-59856095D01*
X101681184Y-59751855D01*
X101813855Y-59619184D01*
X101918095Y-59463178D01*
X101989896Y-59289834D01*
X101999496Y-59241567D01*
X111175040Y-59241567D01*
X111175040Y-59429193D01*
X111211644Y-59613214D01*
X111283445Y-59786558D01*
X111387685Y-59942564D01*
X111520356Y-60075235D01*
X111676362Y-60179475D01*
X111849706Y-60251276D01*
X112033727Y-60287880D01*
X112221353Y-60287880D01*
X112405374Y-60251276D01*
X112578718Y-60179475D01*
X112734724Y-60075235D01*
X112867395Y-59942564D01*
X112971635Y-59786558D01*
X113043436Y-59613214D01*
X113080040Y-59429193D01*
X113080040Y-59241567D01*
X113043436Y-59057546D01*
X112971635Y-58884202D01*
X112867395Y-58728196D01*
X112734724Y-58595525D01*
X112578718Y-58491285D01*
X112405374Y-58419484D01*
X112221353Y-58382880D01*
X112033727Y-58382880D01*
X111849706Y-58419484D01*
X111676362Y-58491285D01*
X111520356Y-58595525D01*
X111387685Y-58728196D01*
X111283445Y-58884202D01*
X111211644Y-59057546D01*
X111175040Y-59241567D01*
X101999496Y-59241567D01*
X102026500Y-59105813D01*
X102026500Y-58918187D01*
X101989896Y-58734166D01*
X101982500Y-58716310D01*
X102048482Y-58709812D01*
X102168180Y-58673502D01*
X102278494Y-58614537D01*
X102375185Y-58535185D01*
X102454537Y-58438494D01*
X102513502Y-58328180D01*
X102537966Y-58247534D01*
X102613731Y-58331588D01*
X102847080Y-58505641D01*
X103109901Y-58630825D01*
X103257110Y-58675476D01*
X103487000Y-58554155D01*
X103487000Y-57361000D01*
X103467000Y-57361000D01*
X103467000Y-57107000D01*
X103487000Y-57107000D01*
X103487000Y-55913845D01*
X103741000Y-55913845D01*
X103741000Y-57107000D01*
X103761000Y-57107000D01*
X103761000Y-57361000D01*
X103741000Y-57361000D01*
X103741000Y-58554155D01*
X103970890Y-58675476D01*
X104118099Y-58630825D01*
X104380920Y-58505641D01*
X104614269Y-58331588D01*
X104809178Y-58115355D01*
X104878805Y-57998466D01*
X105000525Y-58180632D01*
X105207368Y-58387475D01*
X105450589Y-58549990D01*
X105720842Y-58661932D01*
X106007740Y-58719000D01*
X106300260Y-58719000D01*
X106587158Y-58661932D01*
X106857411Y-58549990D01*
X107100632Y-58387475D01*
X107307475Y-58180632D01*
X107424000Y-58006240D01*
X107540525Y-58180632D01*
X107747368Y-58387475D01*
X107990589Y-58549990D01*
X108260842Y-58661932D01*
X108547740Y-58719000D01*
X108840260Y-58719000D01*
X109127158Y-58661932D01*
X109397411Y-58549990D01*
X109640632Y-58387475D01*
X109847475Y-58180632D01*
X110009990Y-57937411D01*
X110119269Y-57673586D01*
X113837500Y-57673586D01*
X113837500Y-57861212D01*
X113874104Y-58045233D01*
X113945905Y-58218577D01*
X114050145Y-58374583D01*
X114182816Y-58507254D01*
X114338822Y-58611494D01*
X114512166Y-58683295D01*
X114696187Y-58719899D01*
X114883813Y-58719899D01*
X115067834Y-58683295D01*
X115241178Y-58611494D01*
X115397184Y-58507254D01*
X115529855Y-58374583D01*
X115634095Y-58218577D01*
X115705896Y-58045233D01*
X115742500Y-57861212D01*
X115742500Y-57673586D01*
X115705896Y-57489565D01*
X115634095Y-57316221D01*
X115529855Y-57160215D01*
X115397184Y-57027544D01*
X115241178Y-56923304D01*
X115151570Y-56886187D01*
X119171500Y-56886187D01*
X119171500Y-57073813D01*
X119208104Y-57257834D01*
X119279905Y-57431178D01*
X119384145Y-57587184D01*
X119516816Y-57719855D01*
X119672822Y-57824095D01*
X119846166Y-57895896D01*
X120030187Y-57932500D01*
X120217813Y-57932500D01*
X120401834Y-57895896D01*
X120575178Y-57824095D01*
X120731184Y-57719855D01*
X120863855Y-57587184D01*
X120968095Y-57431178D01*
X121039896Y-57257834D01*
X121076500Y-57073813D01*
X121076500Y-56886187D01*
X121039896Y-56702166D01*
X120968095Y-56528822D01*
X120863855Y-56372816D01*
X120731184Y-56240145D01*
X120575178Y-56135905D01*
X120401834Y-56064104D01*
X120217813Y-56027500D01*
X120030187Y-56027500D01*
X119846166Y-56064104D01*
X119672822Y-56135905D01*
X119516816Y-56240145D01*
X119384145Y-56372816D01*
X119279905Y-56528822D01*
X119208104Y-56702166D01*
X119171500Y-56886187D01*
X115151570Y-56886187D01*
X115067834Y-56851503D01*
X114883813Y-56814899D01*
X114696187Y-56814899D01*
X114512166Y-56851503D01*
X114338822Y-56923304D01*
X114182816Y-57027544D01*
X114050145Y-57160215D01*
X113945905Y-57316221D01*
X113874104Y-57489565D01*
X113837500Y-57673586D01*
X110119269Y-57673586D01*
X110121932Y-57667158D01*
X110179000Y-57380260D01*
X110179000Y-57087740D01*
X110121932Y-56800842D01*
X110009990Y-56530589D01*
X109847475Y-56287368D01*
X109640632Y-56080525D01*
X109397411Y-55918010D01*
X109127158Y-55806068D01*
X108840260Y-55749000D01*
X108547740Y-55749000D01*
X108260842Y-55806068D01*
X107990589Y-55918010D01*
X107747368Y-56080525D01*
X107540525Y-56287368D01*
X107424000Y-56461760D01*
X107307475Y-56287368D01*
X107100632Y-56080525D01*
X106857411Y-55918010D01*
X106587158Y-55806068D01*
X106300260Y-55749000D01*
X106007740Y-55749000D01*
X105720842Y-55806068D01*
X105450589Y-55918010D01*
X105207368Y-56080525D01*
X105000525Y-56287368D01*
X104878805Y-56469534D01*
X104809178Y-56352645D01*
X104614269Y-56136412D01*
X104380920Y-55962359D01*
X104118099Y-55837175D01*
X103970890Y-55792524D01*
X103741000Y-55913845D01*
X103487000Y-55913845D01*
X103257110Y-55792524D01*
X103109901Y-55837175D01*
X102847080Y-55962359D01*
X102613731Y-56136412D01*
X102537966Y-56220466D01*
X102513502Y-56139820D01*
X102454537Y-56029506D01*
X102375185Y-55932815D01*
X102278494Y-55853463D01*
X102168180Y-55794498D01*
X102048482Y-55758188D01*
X101924000Y-55745928D01*
X100224000Y-55745928D01*
X100099518Y-55758188D01*
X99979820Y-55794498D01*
X99869506Y-55853463D01*
X99772815Y-55932815D01*
X99693463Y-56029506D01*
X99634498Y-56139820D01*
X99598188Y-56259518D01*
X99585928Y-56384000D01*
X97988532Y-56384000D01*
X97892180Y-56332498D01*
X97772482Y-56296188D01*
X97648000Y-56283928D01*
X95948000Y-56283928D01*
X95823518Y-56296188D01*
X95703820Y-56332498D01*
X95593506Y-56391463D01*
X95553000Y-56424705D01*
X95553000Y-56140475D01*
X95451739Y-55631399D01*
X95266639Y-55184527D01*
X134591620Y-55184527D01*
X134591620Y-55372153D01*
X134628224Y-55556174D01*
X134700025Y-55729518D01*
X134804265Y-55885524D01*
X134936936Y-56018195D01*
X135092942Y-56122435D01*
X135266286Y-56194236D01*
X135450307Y-56230840D01*
X135637933Y-56230840D01*
X135821954Y-56194236D01*
X135995298Y-56122435D01*
X136151304Y-56018195D01*
X136283975Y-55885524D01*
X136388215Y-55729518D01*
X136460016Y-55556174D01*
X136496620Y-55372153D01*
X136496620Y-55184527D01*
X136460016Y-55000506D01*
X136388215Y-54827162D01*
X136283975Y-54671156D01*
X136151304Y-54538485D01*
X135995298Y-54434245D01*
X135821954Y-54362444D01*
X135637933Y-54325840D01*
X135450307Y-54325840D01*
X135266286Y-54362444D01*
X135092942Y-54434245D01*
X134936936Y-54538485D01*
X134804265Y-54671156D01*
X134700025Y-54827162D01*
X134628224Y-55000506D01*
X134591620Y-55184527D01*
X95266639Y-55184527D01*
X95253107Y-55151859D01*
X94964738Y-54720285D01*
X94597715Y-54353262D01*
X94166141Y-54064893D01*
X93797706Y-53912282D01*
X139568231Y-54132799D01*
%TO.N,GND*%
G36*
X129863803Y-24618524D02*
G01*
X129751859Y-24664893D01*
X129320285Y-24953262D01*
X128953262Y-25320285D01*
X128664893Y-25751859D01*
X128466261Y-26231399D01*
X128365000Y-26740475D01*
X128365000Y-27259525D01*
X128466261Y-27768601D01*
X128664893Y-28248141D01*
X128953262Y-28679715D01*
X129320285Y-29046738D01*
X129751859Y-29335107D01*
X130231399Y-29533739D01*
X130740475Y-29635000D01*
X131259525Y-29635000D01*
X131768601Y-29533739D01*
X132248141Y-29335107D01*
X132679715Y-29046738D01*
X133046738Y-28679715D01*
X133335107Y-28248141D01*
X133369693Y-28164644D01*
X133368047Y-41931384D01*
X133335107Y-41851859D01*
X133046738Y-41420285D01*
X132679715Y-41053262D01*
X132248141Y-40764893D01*
X131768601Y-40566261D01*
X131259525Y-40465000D01*
X130740475Y-40465000D01*
X130231399Y-40566261D01*
X129751859Y-40764893D01*
X129320285Y-41053262D01*
X128953262Y-41420285D01*
X128664893Y-41851859D01*
X128466261Y-42331399D01*
X128365000Y-42840475D01*
X128365000Y-43359525D01*
X128466261Y-43868601D01*
X128664893Y-44348141D01*
X128953262Y-44779715D01*
X129320285Y-45146738D01*
X129751859Y-45435107D01*
X130231399Y-45633739D01*
X130262875Y-45640000D01*
X100813125Y-45640000D01*
X100844601Y-45633739D01*
X101324141Y-45435107D01*
X101755715Y-45146738D01*
X102122738Y-44779715D01*
X102411107Y-44348141D01*
X102609739Y-43868601D01*
X102711000Y-43359525D01*
X102711000Y-42840475D01*
X102609739Y-42331399D01*
X102606752Y-42324187D01*
X123507500Y-42324187D01*
X123507500Y-42511813D01*
X123544104Y-42695834D01*
X123615905Y-42869178D01*
X123720145Y-43025184D01*
X123852816Y-43157855D01*
X124008822Y-43262095D01*
X124182166Y-43333896D01*
X124366187Y-43370500D01*
X124553813Y-43370500D01*
X124737834Y-43333896D01*
X124911178Y-43262095D01*
X125067184Y-43157855D01*
X125199855Y-43025184D01*
X125304095Y-42869178D01*
X125375896Y-42695834D01*
X125412500Y-42511813D01*
X125412500Y-42324187D01*
X125375896Y-42140166D01*
X125304095Y-41966822D01*
X125199855Y-41810816D01*
X125067184Y-41678145D01*
X124911178Y-41573905D01*
X124737834Y-41502104D01*
X124553813Y-41465500D01*
X124366187Y-41465500D01*
X124182166Y-41502104D01*
X124008822Y-41573905D01*
X123852816Y-41678145D01*
X123720145Y-41810816D01*
X123615905Y-41966822D01*
X123544104Y-42140166D01*
X123507500Y-42324187D01*
X102606752Y-42324187D01*
X102411107Y-41851859D01*
X102122738Y-41420285D01*
X101755715Y-41053262D01*
X101324141Y-40764893D01*
X100844601Y-40566261D01*
X100335525Y-40465000D01*
X99816475Y-40465000D01*
X99307399Y-40566261D01*
X98827859Y-40764893D01*
X98396285Y-41053262D01*
X98029262Y-41420285D01*
X97740893Y-41851859D01*
X97654400Y-42060670D01*
X97642861Y-36500000D01*
X98607815Y-36500000D01*
X98636487Y-36791111D01*
X98721401Y-37071034D01*
X98859294Y-37329014D01*
X99044866Y-37555134D01*
X99270986Y-37740706D01*
X99528966Y-37878599D01*
X99808889Y-37963513D01*
X100027050Y-37985000D01*
X100472950Y-37985000D01*
X100691111Y-37963513D01*
X100971034Y-37878599D01*
X101229014Y-37740706D01*
X101455134Y-37555134D01*
X101478890Y-37526187D01*
X118577500Y-37526187D01*
X118577500Y-37713813D01*
X118614104Y-37897834D01*
X118685905Y-38071178D01*
X118790145Y-38227184D01*
X118922816Y-38359855D01*
X119078822Y-38464095D01*
X119252166Y-38535896D01*
X119436187Y-38572500D01*
X119623813Y-38572500D01*
X119807834Y-38535896D01*
X119981178Y-38464095D01*
X120137184Y-38359855D01*
X120269855Y-38227184D01*
X120374095Y-38071178D01*
X120445896Y-37897834D01*
X120476293Y-37745020D01*
X120621749Y-37745020D01*
X120805770Y-37708416D01*
X120979114Y-37636615D01*
X121135120Y-37532375D01*
X121267791Y-37399704D01*
X121284626Y-37374509D01*
X121388166Y-37417396D01*
X121572187Y-37454000D01*
X121759813Y-37454000D01*
X121943834Y-37417396D01*
X122117178Y-37345595D01*
X122273184Y-37241355D01*
X122405855Y-37108684D01*
X122510095Y-36952678D01*
X122581896Y-36779334D01*
X122618500Y-36595313D01*
X122618500Y-36407687D01*
X122581896Y-36223666D01*
X122520809Y-36076187D01*
X124957500Y-36076187D01*
X124957500Y-36263813D01*
X124994104Y-36447834D01*
X125065905Y-36621178D01*
X125170145Y-36777184D01*
X125302816Y-36909855D01*
X125458822Y-37014095D01*
X125632166Y-37085896D01*
X125816187Y-37122500D01*
X126003813Y-37122500D01*
X126066654Y-37110000D01*
X128971928Y-37110000D01*
X128984188Y-37234482D01*
X129020498Y-37354180D01*
X129079463Y-37464494D01*
X129158815Y-37561185D01*
X129255506Y-37640537D01*
X129365820Y-37699502D01*
X129485518Y-37735812D01*
X129610000Y-37748072D01*
X130324250Y-37745000D01*
X130483000Y-37586250D01*
X130483000Y-36387000D01*
X130737000Y-36387000D01*
X130737000Y-37586250D01*
X130895750Y-37745000D01*
X131610000Y-37748072D01*
X131734482Y-37735812D01*
X131854180Y-37699502D01*
X131964494Y-37640537D01*
X132061185Y-37561185D01*
X132140537Y-37464494D01*
X132199502Y-37354180D01*
X132235812Y-37234482D01*
X132248072Y-37110000D01*
X132245000Y-36545750D01*
X132086250Y-36387000D01*
X130737000Y-36387000D01*
X130483000Y-36387000D01*
X129133750Y-36387000D01*
X128975000Y-36545750D01*
X128971928Y-37110000D01*
X126066654Y-37110000D01*
X126187834Y-37085896D01*
X126361178Y-37014095D01*
X126517184Y-36909855D01*
X126649855Y-36777184D01*
X126754095Y-36621178D01*
X126825896Y-36447834D01*
X126862500Y-36263813D01*
X126862500Y-36076187D01*
X126825896Y-35892166D01*
X126754095Y-35718822D01*
X126649855Y-35562816D01*
X126517184Y-35430145D01*
X126361178Y-35325905D01*
X126187834Y-35254104D01*
X126003813Y-35217500D01*
X125816187Y-35217500D01*
X125632166Y-35254104D01*
X125458822Y-35325905D01*
X125302816Y-35430145D01*
X125170145Y-35562816D01*
X125065905Y-35718822D01*
X124994104Y-35892166D01*
X124957500Y-36076187D01*
X122520809Y-36076187D01*
X122510095Y-36050322D01*
X122405855Y-35894316D01*
X122273184Y-35761645D01*
X122117178Y-35657405D01*
X121943834Y-35585604D01*
X121759813Y-35549000D01*
X121572187Y-35549000D01*
X121388166Y-35585604D01*
X121214822Y-35657405D01*
X121058816Y-35761645D01*
X120926145Y-35894316D01*
X120909310Y-35919511D01*
X120805770Y-35876624D01*
X120621749Y-35840020D01*
X120434123Y-35840020D01*
X120250102Y-35876624D01*
X120076758Y-35948425D01*
X119920752Y-36052665D01*
X119788081Y-36185336D01*
X119683841Y-36341342D01*
X119612040Y-36514686D01*
X119581643Y-36667500D01*
X119436187Y-36667500D01*
X119252166Y-36704104D01*
X119078822Y-36775905D01*
X118922816Y-36880145D01*
X118790145Y-37012816D01*
X118685905Y-37168822D01*
X118614104Y-37342166D01*
X118577500Y-37526187D01*
X101478890Y-37526187D01*
X101640706Y-37329014D01*
X101778599Y-37071034D01*
X101863513Y-36791111D01*
X101892185Y-36500000D01*
X101863513Y-36208889D01*
X101778599Y-35928966D01*
X101778124Y-35928077D01*
X113399390Y-35928077D01*
X113399390Y-36115703D01*
X113435994Y-36299724D01*
X113507795Y-36473068D01*
X113612035Y-36629074D01*
X113744706Y-36761745D01*
X113900712Y-36865985D01*
X114074056Y-36937786D01*
X114258077Y-36974390D01*
X114445703Y-36974390D01*
X114629724Y-36937786D01*
X114803068Y-36865985D01*
X114959074Y-36761745D01*
X115091745Y-36629074D01*
X115195985Y-36473068D01*
X115267786Y-36299724D01*
X115304390Y-36115703D01*
X115304390Y-35997609D01*
X116305000Y-35997609D01*
X116305000Y-36142391D01*
X116333246Y-36284391D01*
X116388652Y-36418153D01*
X116469088Y-36538535D01*
X116571465Y-36640912D01*
X116691847Y-36721348D01*
X116825609Y-36776754D01*
X116967609Y-36805000D01*
X117112391Y-36805000D01*
X117254391Y-36776754D01*
X117290000Y-36762004D01*
X117325609Y-36776754D01*
X117467609Y-36805000D01*
X117612391Y-36805000D01*
X117754391Y-36776754D01*
X117790000Y-36762004D01*
X117825609Y-36776754D01*
X117967609Y-36805000D01*
X118112391Y-36805000D01*
X118254391Y-36776754D01*
X118388153Y-36721348D01*
X118508535Y-36640912D01*
X118610912Y-36538535D01*
X118691348Y-36418153D01*
X118746754Y-36284391D01*
X118775000Y-36142391D01*
X118775000Y-35997609D01*
X118746754Y-35855609D01*
X118691348Y-35721847D01*
X118610912Y-35601465D01*
X118508535Y-35499088D01*
X118388153Y-35418652D01*
X118254391Y-35363246D01*
X118112391Y-35335000D01*
X117967609Y-35335000D01*
X117825609Y-35363246D01*
X117790000Y-35377996D01*
X117754391Y-35363246D01*
X117612391Y-35335000D01*
X117467609Y-35335000D01*
X117325609Y-35363246D01*
X117290000Y-35377996D01*
X117254391Y-35363246D01*
X117112391Y-35335000D01*
X116967609Y-35335000D01*
X116825609Y-35363246D01*
X116691847Y-35418652D01*
X116571465Y-35499088D01*
X116469088Y-35601465D01*
X116388652Y-35721847D01*
X116333246Y-35855609D01*
X116305000Y-35997609D01*
X115304390Y-35997609D01*
X115304390Y-35928077D01*
X115267786Y-35744056D01*
X115195985Y-35570712D01*
X115091745Y-35414706D01*
X114959074Y-35282035D01*
X114803068Y-35177795D01*
X114629724Y-35105994D01*
X114445703Y-35069390D01*
X114258077Y-35069390D01*
X114074056Y-35105994D01*
X113900712Y-35177795D01*
X113744706Y-35282035D01*
X113612035Y-35414706D01*
X113507795Y-35570712D01*
X113435994Y-35744056D01*
X113399390Y-35928077D01*
X101778124Y-35928077D01*
X101640706Y-35670986D01*
X101459392Y-35450055D01*
X101494180Y-35439502D01*
X101604494Y-35380537D01*
X101701185Y-35301185D01*
X101780537Y-35204494D01*
X101839502Y-35094180D01*
X101875812Y-34974482D01*
X101888072Y-34850000D01*
X101885896Y-34450187D01*
X108521500Y-34450187D01*
X108521500Y-34637813D01*
X108558104Y-34821834D01*
X108629905Y-34995178D01*
X108734145Y-35151184D01*
X108866816Y-35283855D01*
X109022822Y-35388095D01*
X109196166Y-35459896D01*
X109380187Y-35496500D01*
X109567813Y-35496500D01*
X109751834Y-35459896D01*
X109925178Y-35388095D01*
X110081184Y-35283855D01*
X110213855Y-35151184D01*
X110318095Y-34995178D01*
X110389896Y-34821834D01*
X110426500Y-34637813D01*
X110426500Y-34450187D01*
X110389896Y-34266166D01*
X110318095Y-34092822D01*
X110213855Y-33936816D01*
X110081184Y-33804145D01*
X109925178Y-33699905D01*
X109751834Y-33628104D01*
X109591377Y-33596187D01*
X112517500Y-33596187D01*
X112517500Y-33783813D01*
X112554104Y-33967834D01*
X112625905Y-34141178D01*
X112730145Y-34297184D01*
X112862816Y-34429855D01*
X113018822Y-34534095D01*
X113192166Y-34605896D01*
X113376187Y-34642500D01*
X113563813Y-34642500D01*
X113747834Y-34605896D01*
X113920000Y-34534583D01*
X114092166Y-34605896D01*
X114276187Y-34642500D01*
X114463813Y-34642500D01*
X114647834Y-34605896D01*
X114821178Y-34534095D01*
X114977184Y-34429855D01*
X115109855Y-34297184D01*
X115214095Y-34141178D01*
X115273562Y-33997609D01*
X116305000Y-33997609D01*
X116305000Y-34142391D01*
X116333246Y-34284391D01*
X116388652Y-34418153D01*
X116469088Y-34538535D01*
X116571465Y-34640912D01*
X116691847Y-34721348D01*
X116825609Y-34776754D01*
X116967609Y-34805000D01*
X117112391Y-34805000D01*
X117254391Y-34776754D01*
X117290000Y-34762004D01*
X117325609Y-34776754D01*
X117467609Y-34805000D01*
X117612391Y-34805000D01*
X117754391Y-34776754D01*
X117790000Y-34762004D01*
X117825609Y-34776754D01*
X117967609Y-34805000D01*
X118112391Y-34805000D01*
X118254391Y-34776754D01*
X118388153Y-34721348D01*
X118508535Y-34640912D01*
X118610912Y-34538535D01*
X118691348Y-34418153D01*
X118746754Y-34284391D01*
X118775000Y-34142391D01*
X118775000Y-33997609D01*
X118746754Y-33855609D01*
X118691348Y-33721847D01*
X118610912Y-33601465D01*
X118508535Y-33499088D01*
X118388153Y-33418652D01*
X118254391Y-33363246D01*
X118112391Y-33335000D01*
X117967609Y-33335000D01*
X117825609Y-33363246D01*
X117790000Y-33377996D01*
X117754391Y-33363246D01*
X117612391Y-33335000D01*
X117467609Y-33335000D01*
X117325609Y-33363246D01*
X117290000Y-33377996D01*
X117254391Y-33363246D01*
X117112391Y-33335000D01*
X116967609Y-33335000D01*
X116825609Y-33363246D01*
X116691847Y-33418652D01*
X116571465Y-33499088D01*
X116469088Y-33601465D01*
X116388652Y-33721847D01*
X116333246Y-33855609D01*
X116305000Y-33997609D01*
X115273562Y-33997609D01*
X115285896Y-33967834D01*
X115322500Y-33783813D01*
X115322500Y-33596187D01*
X115285896Y-33412166D01*
X115214095Y-33238822D01*
X115109855Y-33082816D01*
X114977184Y-32950145D01*
X114821178Y-32845905D01*
X114647834Y-32774104D01*
X114463813Y-32737500D01*
X114276187Y-32737500D01*
X114092166Y-32774104D01*
X113920000Y-32845417D01*
X113747834Y-32774104D01*
X113563813Y-32737500D01*
X113376187Y-32737500D01*
X113192166Y-32774104D01*
X113018822Y-32845905D01*
X112862816Y-32950145D01*
X112730145Y-33082816D01*
X112625905Y-33238822D01*
X112554104Y-33412166D01*
X112517500Y-33596187D01*
X109591377Y-33596187D01*
X109567813Y-33591500D01*
X109380187Y-33591500D01*
X109196166Y-33628104D01*
X109022822Y-33699905D01*
X108866816Y-33804145D01*
X108734145Y-33936816D01*
X108629905Y-34092822D01*
X108558104Y-34266166D01*
X108521500Y-34450187D01*
X101885896Y-34450187D01*
X101885000Y-34285750D01*
X101726250Y-34127000D01*
X100377000Y-34127000D01*
X100377000Y-34147000D01*
X100123000Y-34147000D01*
X100123000Y-34127000D01*
X98773750Y-34127000D01*
X98615000Y-34285750D01*
X98611928Y-34850000D01*
X98624188Y-34974482D01*
X98660498Y-35094180D01*
X98719463Y-35204494D01*
X98798815Y-35301185D01*
X98895506Y-35380537D01*
X99005820Y-35439502D01*
X99040608Y-35450055D01*
X98859294Y-35670986D01*
X98721401Y-35928966D01*
X98636487Y-36208889D01*
X98607815Y-36500000D01*
X97642861Y-36500000D01*
X97635909Y-33150000D01*
X98611928Y-33150000D01*
X98615000Y-33714250D01*
X98773750Y-33873000D01*
X100123000Y-33873000D01*
X100123000Y-32673750D01*
X100377000Y-32673750D01*
X100377000Y-33873000D01*
X101726250Y-33873000D01*
X101885000Y-33714250D01*
X101888072Y-33150000D01*
X101875812Y-33025518D01*
X101839502Y-32905820D01*
X101780537Y-32795506D01*
X101701185Y-32698815D01*
X101604494Y-32619463D01*
X101494180Y-32560498D01*
X101374482Y-32524188D01*
X101250000Y-32511928D01*
X100535750Y-32515000D01*
X100377000Y-32673750D01*
X100123000Y-32673750D01*
X99964250Y-32515000D01*
X99250000Y-32511928D01*
X99125518Y-32524188D01*
X99005820Y-32560498D01*
X98895506Y-32619463D01*
X98798815Y-32698815D01*
X98719463Y-32795506D01*
X98660498Y-32905820D01*
X98624188Y-33025518D01*
X98611928Y-33150000D01*
X97635909Y-33150000D01*
X97625539Y-28153132D01*
X97664893Y-28248141D01*
X97953262Y-28679715D01*
X98320285Y-29046738D01*
X98751859Y-29335107D01*
X99231399Y-29533739D01*
X99740475Y-29635000D01*
X100259525Y-29635000D01*
X100768601Y-29533739D01*
X101248141Y-29335107D01*
X101515913Y-29156187D01*
X102187500Y-29156187D01*
X102187500Y-29343813D01*
X102224104Y-29527834D01*
X102295417Y-29700000D01*
X102224104Y-29872166D01*
X102187500Y-30056187D01*
X102187500Y-30243813D01*
X102224104Y-30427834D01*
X102295417Y-30600000D01*
X102224104Y-30772166D01*
X102187500Y-30956187D01*
X102187500Y-31143813D01*
X102224104Y-31327834D01*
X102295417Y-31500000D01*
X102224104Y-31672166D01*
X102187500Y-31856187D01*
X102187500Y-32043813D01*
X102224104Y-32227834D01*
X102295905Y-32401178D01*
X102400145Y-32557184D01*
X102532816Y-32689855D01*
X102688822Y-32794095D01*
X102862166Y-32865896D01*
X103046187Y-32902500D01*
X103233813Y-32902500D01*
X103417834Y-32865896D01*
X103590000Y-32794583D01*
X103762166Y-32865896D01*
X103946187Y-32902500D01*
X104133813Y-32902500D01*
X104317834Y-32865896D01*
X104490000Y-32794583D01*
X104662166Y-32865896D01*
X104846187Y-32902500D01*
X105033813Y-32902500D01*
X105217834Y-32865896D01*
X105390000Y-32794583D01*
X105562166Y-32865896D01*
X105746187Y-32902500D01*
X105933813Y-32902500D01*
X106117834Y-32865896D01*
X106290000Y-32794583D01*
X106462166Y-32865896D01*
X106646187Y-32902500D01*
X106833813Y-32902500D01*
X107017834Y-32865896D01*
X107190000Y-32794583D01*
X107362166Y-32865896D01*
X107546187Y-32902500D01*
X107733813Y-32902500D01*
X107917834Y-32865896D01*
X108091178Y-32794095D01*
X108247184Y-32689855D01*
X108379855Y-32557184D01*
X108472729Y-32418187D01*
X118681500Y-32418187D01*
X118681500Y-32605813D01*
X118718104Y-32789834D01*
X118789905Y-32963178D01*
X118894145Y-33119184D01*
X119026816Y-33251855D01*
X119182822Y-33356095D01*
X119356166Y-33427896D01*
X119540187Y-33464500D01*
X119727813Y-33464500D01*
X119911834Y-33427896D01*
X120045711Y-33372443D01*
X120102796Y-33510256D01*
X120216064Y-33679774D01*
X120360227Y-33823937D01*
X120529745Y-33937205D01*
X120718103Y-34015226D01*
X120918062Y-34055000D01*
X121121940Y-34055000D01*
X121321899Y-34015226D01*
X121510257Y-33937205D01*
X121679775Y-33823937D01*
X121743712Y-33760000D01*
X128967815Y-33760000D01*
X128996487Y-34051111D01*
X129081401Y-34331034D01*
X129219294Y-34589014D01*
X129400608Y-34809945D01*
X129365820Y-34820498D01*
X129255506Y-34879463D01*
X129158815Y-34958815D01*
X129079463Y-35055506D01*
X129020498Y-35165820D01*
X128984188Y-35285518D01*
X128971928Y-35410000D01*
X128975000Y-35974250D01*
X129133750Y-36133000D01*
X130483000Y-36133000D01*
X130483000Y-36113000D01*
X130737000Y-36113000D01*
X130737000Y-36133000D01*
X132086250Y-36133000D01*
X132245000Y-35974250D01*
X132248072Y-35410000D01*
X132235812Y-35285518D01*
X132199502Y-35165820D01*
X132140537Y-35055506D01*
X132061185Y-34958815D01*
X131964494Y-34879463D01*
X131854180Y-34820498D01*
X131819392Y-34809945D01*
X132000706Y-34589014D01*
X132138599Y-34331034D01*
X132223513Y-34051111D01*
X132252185Y-33760000D01*
X132223513Y-33468889D01*
X132138599Y-33188966D01*
X132000706Y-32930986D01*
X131815134Y-32704866D01*
X131589014Y-32519294D01*
X131331034Y-32381401D01*
X131051111Y-32296487D01*
X130832950Y-32275000D01*
X130387050Y-32275000D01*
X130168889Y-32296487D01*
X129888966Y-32381401D01*
X129630986Y-32519294D01*
X129404866Y-32704866D01*
X129219294Y-32930986D01*
X129081401Y-33188966D01*
X128996487Y-33468889D01*
X128967815Y-33760000D01*
X121743712Y-33760000D01*
X121823938Y-33679774D01*
X121937206Y-33510256D01*
X122015227Y-33321898D01*
X122055001Y-33121939D01*
X122055001Y-32918061D01*
X122015227Y-32718102D01*
X121937206Y-32529744D01*
X121823938Y-32360226D01*
X121679775Y-32216063D01*
X121510257Y-32102795D01*
X121321899Y-32024774D01*
X121121940Y-31985000D01*
X120918062Y-31985000D01*
X120718103Y-32024774D01*
X120529745Y-32102795D01*
X120502908Y-32120727D01*
X120478095Y-32060822D01*
X120373855Y-31904816D01*
X120241184Y-31772145D01*
X120085178Y-31667905D01*
X119911834Y-31596104D01*
X119727813Y-31559500D01*
X119540187Y-31559500D01*
X119356166Y-31596104D01*
X119182822Y-31667905D01*
X119026816Y-31772145D01*
X118894145Y-31904816D01*
X118789905Y-32060822D01*
X118718104Y-32234166D01*
X118681500Y-32418187D01*
X108472729Y-32418187D01*
X108484095Y-32401178D01*
X108555896Y-32227834D01*
X108592500Y-32043813D01*
X108592500Y-31856187D01*
X108555896Y-31672166D01*
X108484583Y-31500000D01*
X108555896Y-31327834D01*
X108592500Y-31143813D01*
X108592500Y-30956187D01*
X108555896Y-30772166D01*
X108484583Y-30600000D01*
X108555896Y-30427834D01*
X108592500Y-30243813D01*
X108592500Y-30056187D01*
X108555896Y-29872166D01*
X108484583Y-29700000D01*
X108555896Y-29527834D01*
X108572136Y-29446187D01*
X110277500Y-29446187D01*
X110277500Y-29633813D01*
X110314104Y-29817834D01*
X110385905Y-29991178D01*
X110490145Y-30147184D01*
X110622816Y-30279855D01*
X110778822Y-30384095D01*
X110952166Y-30455896D01*
X111136187Y-30492500D01*
X111323813Y-30492500D01*
X111507834Y-30455896D01*
X111681178Y-30384095D01*
X111837184Y-30279855D01*
X111969855Y-30147184D01*
X112074095Y-29991178D01*
X112145896Y-29817834D01*
X112182500Y-29633813D01*
X112182500Y-29446187D01*
X112167383Y-29370187D01*
X119443500Y-29370187D01*
X119443500Y-29557813D01*
X119480104Y-29741834D01*
X119551905Y-29915178D01*
X119656145Y-30071184D01*
X119788816Y-30203855D01*
X119944822Y-30308095D01*
X120118166Y-30379896D01*
X120302187Y-30416500D01*
X120489813Y-30416500D01*
X120642206Y-30386187D01*
X121729500Y-30386187D01*
X121729500Y-30573813D01*
X121766104Y-30757834D01*
X121837905Y-30931178D01*
X121942145Y-31087184D01*
X122074816Y-31219855D01*
X122230822Y-31324095D01*
X122404166Y-31395896D01*
X122440526Y-31403128D01*
X122436800Y-31421861D01*
X122436800Y-31625739D01*
X122476574Y-31825698D01*
X122554595Y-32014056D01*
X122667863Y-32183574D01*
X122812026Y-32327737D01*
X122981544Y-32441005D01*
X123169902Y-32519026D01*
X123369861Y-32558800D01*
X123573739Y-32558800D01*
X123773698Y-32519026D01*
X123962056Y-32441005D01*
X124131574Y-32327737D01*
X124275737Y-32183574D01*
X124389005Y-32014056D01*
X124467026Y-31825698D01*
X124506800Y-31625739D01*
X124506800Y-31421861D01*
X124467026Y-31221902D01*
X124389005Y-31033544D01*
X124275737Y-30864026D01*
X124131574Y-30719863D01*
X123962056Y-30606595D01*
X123773698Y-30528574D01*
X123634500Y-30500886D01*
X123634500Y-30386187D01*
X123597896Y-30202166D01*
X123526095Y-30028822D01*
X123421855Y-29872816D01*
X123289184Y-29740145D01*
X123133178Y-29635905D01*
X122959834Y-29564104D01*
X122775813Y-29527500D01*
X122588187Y-29527500D01*
X122404166Y-29564104D01*
X122230822Y-29635905D01*
X122074816Y-29740145D01*
X121942145Y-29872816D01*
X121837905Y-30028822D01*
X121766104Y-30202166D01*
X121729500Y-30386187D01*
X120642206Y-30386187D01*
X120673834Y-30379896D01*
X120847178Y-30308095D01*
X121003184Y-30203855D01*
X121135855Y-30071184D01*
X121240095Y-29915178D01*
X121311896Y-29741834D01*
X121348500Y-29557813D01*
X121348500Y-29370187D01*
X121311896Y-29186166D01*
X121240095Y-29012822D01*
X121135855Y-28856816D01*
X121003184Y-28724145D01*
X120847178Y-28619905D01*
X120673834Y-28548104D01*
X120489813Y-28511500D01*
X120302187Y-28511500D01*
X120118166Y-28548104D01*
X119944822Y-28619905D01*
X119788816Y-28724145D01*
X119656145Y-28856816D01*
X119551905Y-29012822D01*
X119480104Y-29186166D01*
X119443500Y-29370187D01*
X112167383Y-29370187D01*
X112145896Y-29262166D01*
X112074095Y-29088822D01*
X111969855Y-28932816D01*
X111837184Y-28800145D01*
X111681178Y-28695905D01*
X111507834Y-28624104D01*
X111323813Y-28587500D01*
X111136187Y-28587500D01*
X110952166Y-28624104D01*
X110778822Y-28695905D01*
X110622816Y-28800145D01*
X110490145Y-28932816D01*
X110385905Y-29088822D01*
X110314104Y-29262166D01*
X110277500Y-29446187D01*
X108572136Y-29446187D01*
X108592500Y-29343813D01*
X108592500Y-29156187D01*
X108555896Y-28972166D01*
X108484095Y-28798822D01*
X108379855Y-28642816D01*
X108247184Y-28510145D01*
X108091178Y-28405905D01*
X107917834Y-28334104D01*
X107733813Y-28297500D01*
X107546187Y-28297500D01*
X107362166Y-28334104D01*
X107190000Y-28405417D01*
X107017834Y-28334104D01*
X106833813Y-28297500D01*
X106646187Y-28297500D01*
X106462166Y-28334104D01*
X106290000Y-28405417D01*
X106117834Y-28334104D01*
X105933813Y-28297500D01*
X105746187Y-28297500D01*
X105562166Y-28334104D01*
X105390000Y-28405417D01*
X105217834Y-28334104D01*
X105033813Y-28297500D01*
X104846187Y-28297500D01*
X104662166Y-28334104D01*
X104490000Y-28405417D01*
X104317834Y-28334104D01*
X104133813Y-28297500D01*
X103946187Y-28297500D01*
X103762166Y-28334104D01*
X103590000Y-28405417D01*
X103417834Y-28334104D01*
X103233813Y-28297500D01*
X103046187Y-28297500D01*
X102862166Y-28334104D01*
X102688822Y-28405905D01*
X102532816Y-28510145D01*
X102400145Y-28642816D01*
X102295905Y-28798822D01*
X102224104Y-28972166D01*
X102187500Y-29156187D01*
X101515913Y-29156187D01*
X101679715Y-29046738D01*
X102046738Y-28679715D01*
X102335107Y-28248141D01*
X102533739Y-27768601D01*
X102635000Y-27259525D01*
X102635000Y-26740475D01*
X102574937Y-26438514D01*
X115605000Y-26438514D01*
X115605000Y-26701486D01*
X115656304Y-26959405D01*
X115756939Y-27202359D01*
X115903038Y-27421013D01*
X116088987Y-27606962D01*
X116307641Y-27753061D01*
X116550595Y-27853696D01*
X116808514Y-27905000D01*
X117071486Y-27905000D01*
X117329405Y-27853696D01*
X117572359Y-27753061D01*
X117791013Y-27606962D01*
X117976962Y-27421013D01*
X118123061Y-27202359D01*
X118223696Y-26959405D01*
X118275000Y-26701486D01*
X118275000Y-26438514D01*
X120685000Y-26438514D01*
X120685000Y-26701486D01*
X120736304Y-26959405D01*
X120836939Y-27202359D01*
X120983038Y-27421013D01*
X121168987Y-27606962D01*
X121387641Y-27753061D01*
X121630595Y-27853696D01*
X121888514Y-27905000D01*
X122151486Y-27905000D01*
X122409405Y-27853696D01*
X122652359Y-27753061D01*
X122871013Y-27606962D01*
X123056962Y-27421013D01*
X123074765Y-27394369D01*
X123150145Y-27507184D01*
X123282816Y-27639855D01*
X123438822Y-27744095D01*
X123612166Y-27815896D01*
X123796187Y-27852500D01*
X123889228Y-27852500D01*
X123924104Y-28027834D01*
X123995905Y-28201178D01*
X124100145Y-28357184D01*
X124232816Y-28489855D01*
X124388822Y-28594095D01*
X124562166Y-28665896D01*
X124746187Y-28702500D01*
X124787500Y-28702500D01*
X124787500Y-28743813D01*
X124824104Y-28927834D01*
X124895905Y-29101178D01*
X125000145Y-29257184D01*
X125132816Y-29389855D01*
X125288822Y-29494095D01*
X125462166Y-29565896D01*
X125646187Y-29602500D01*
X125833813Y-29602500D01*
X126017834Y-29565896D01*
X126190000Y-29494583D01*
X126362166Y-29565896D01*
X126546187Y-29602500D01*
X126733813Y-29602500D01*
X126917834Y-29565896D01*
X127070000Y-29502867D01*
X127222166Y-29565896D01*
X127406187Y-29602500D01*
X127593813Y-29602500D01*
X127777834Y-29565896D01*
X127951178Y-29494095D01*
X128107184Y-29389855D01*
X128239855Y-29257184D01*
X128344095Y-29101178D01*
X128415896Y-28927834D01*
X128452500Y-28743813D01*
X128452500Y-28556187D01*
X128415896Y-28372166D01*
X128344095Y-28198822D01*
X128239855Y-28042816D01*
X128107184Y-27910145D01*
X127951178Y-27805905D01*
X127777834Y-27734104D01*
X127593813Y-27697500D01*
X127592500Y-27697500D01*
X127592500Y-27656187D01*
X127555896Y-27472166D01*
X127484095Y-27298822D01*
X127379855Y-27142816D01*
X127247184Y-27010145D01*
X127091178Y-26905905D01*
X126917834Y-26834104D01*
X126733813Y-26797500D01*
X126640772Y-26797500D01*
X126605896Y-26622166D01*
X126534095Y-26448822D01*
X126429855Y-26292816D01*
X126297184Y-26160145D01*
X126141178Y-26055905D01*
X125967834Y-25984104D01*
X125783813Y-25947500D01*
X125742500Y-25947500D01*
X125742500Y-25906187D01*
X125705896Y-25722166D01*
X125634095Y-25548822D01*
X125529855Y-25392816D01*
X125397184Y-25260145D01*
X125241178Y-25155905D01*
X125067834Y-25084104D01*
X124883813Y-25047500D01*
X124696187Y-25047500D01*
X124512166Y-25084104D01*
X124340000Y-25155417D01*
X124167834Y-25084104D01*
X123983813Y-25047500D01*
X123796187Y-25047500D01*
X123612166Y-25084104D01*
X123438822Y-25155905D01*
X123282816Y-25260145D01*
X123150145Y-25392816D01*
X123045905Y-25548822D01*
X122999304Y-25661329D01*
X122871013Y-25533038D01*
X122652359Y-25386939D01*
X122409405Y-25286304D01*
X122151486Y-25235000D01*
X121888514Y-25235000D01*
X121630595Y-25286304D01*
X121387641Y-25386939D01*
X121168987Y-25533038D01*
X120983038Y-25718987D01*
X120836939Y-25937641D01*
X120736304Y-26180595D01*
X120685000Y-26438514D01*
X118275000Y-26438514D01*
X118223696Y-26180595D01*
X118123061Y-25937641D01*
X117976962Y-25718987D01*
X117791013Y-25533038D01*
X117572359Y-25386939D01*
X117329405Y-25286304D01*
X117071486Y-25235000D01*
X116808514Y-25235000D01*
X116550595Y-25286304D01*
X116307641Y-25386939D01*
X116088987Y-25533038D01*
X115903038Y-25718987D01*
X115756939Y-25937641D01*
X115656304Y-26180595D01*
X115605000Y-26438514D01*
X102574937Y-26438514D01*
X102533739Y-26231399D01*
X102335107Y-25751859D01*
X102046738Y-25320285D01*
X101679715Y-24953262D01*
X101248141Y-24664893D01*
X101096871Y-24602235D01*
X129863803Y-24618524D01*
G37*
X129863803Y-24618524D02*
X129751859Y-24664893D01*
X129320285Y-24953262D01*
X128953262Y-25320285D01*
X128664893Y-25751859D01*
X128466261Y-26231399D01*
X128365000Y-26740475D01*
X128365000Y-27259525D01*
X128466261Y-27768601D01*
X128664893Y-28248141D01*
X128953262Y-28679715D01*
X129320285Y-29046738D01*
X129751859Y-29335107D01*
X130231399Y-29533739D01*
X130740475Y-29635000D01*
X131259525Y-29635000D01*
X131768601Y-29533739D01*
X132248141Y-29335107D01*
X132679715Y-29046738D01*
X133046738Y-28679715D01*
X133335107Y-28248141D01*
X133369693Y-28164644D01*
X133368047Y-41931384D01*
X133335107Y-41851859D01*
X133046738Y-41420285D01*
X132679715Y-41053262D01*
X132248141Y-40764893D01*
X131768601Y-40566261D01*
X131259525Y-40465000D01*
X130740475Y-40465000D01*
X130231399Y-40566261D01*
X129751859Y-40764893D01*
X129320285Y-41053262D01*
X128953262Y-41420285D01*
X128664893Y-41851859D01*
X128466261Y-42331399D01*
X128365000Y-42840475D01*
X128365000Y-43359525D01*
X128466261Y-43868601D01*
X128664893Y-44348141D01*
X128953262Y-44779715D01*
X129320285Y-45146738D01*
X129751859Y-45435107D01*
X130231399Y-45633739D01*
X130262875Y-45640000D01*
X100813125Y-45640000D01*
X100844601Y-45633739D01*
X101324141Y-45435107D01*
X101755715Y-45146738D01*
X102122738Y-44779715D01*
X102411107Y-44348141D01*
X102609739Y-43868601D01*
X102711000Y-43359525D01*
X102711000Y-42840475D01*
X102609739Y-42331399D01*
X102606752Y-42324187D01*
X123507500Y-42324187D01*
X123507500Y-42511813D01*
X123544104Y-42695834D01*
X123615905Y-42869178D01*
X123720145Y-43025184D01*
X123852816Y-43157855D01*
X124008822Y-43262095D01*
X124182166Y-43333896D01*
X124366187Y-43370500D01*
X124553813Y-43370500D01*
X124737834Y-43333896D01*
X124911178Y-43262095D01*
X125067184Y-43157855D01*
X125199855Y-43025184D01*
X125304095Y-42869178D01*
X125375896Y-42695834D01*
X125412500Y-42511813D01*
X125412500Y-42324187D01*
X125375896Y-42140166D01*
X125304095Y-41966822D01*
X125199855Y-41810816D01*
X125067184Y-41678145D01*
X124911178Y-41573905D01*
X124737834Y-41502104D01*
X124553813Y-41465500D01*
X124366187Y-41465500D01*
X124182166Y-41502104D01*
X124008822Y-41573905D01*
X123852816Y-41678145D01*
X123720145Y-41810816D01*
X123615905Y-41966822D01*
X123544104Y-42140166D01*
X123507500Y-42324187D01*
X102606752Y-42324187D01*
X102411107Y-41851859D01*
X102122738Y-41420285D01*
X101755715Y-41053262D01*
X101324141Y-40764893D01*
X100844601Y-40566261D01*
X100335525Y-40465000D01*
X99816475Y-40465000D01*
X99307399Y-40566261D01*
X98827859Y-40764893D01*
X98396285Y-41053262D01*
X98029262Y-41420285D01*
X97740893Y-41851859D01*
X97654400Y-42060670D01*
X97642861Y-36500000D01*
X98607815Y-36500000D01*
X98636487Y-36791111D01*
X98721401Y-37071034D01*
X98859294Y-37329014D01*
X99044866Y-37555134D01*
X99270986Y-37740706D01*
X99528966Y-37878599D01*
X99808889Y-37963513D01*
X100027050Y-37985000D01*
X100472950Y-37985000D01*
X100691111Y-37963513D01*
X100971034Y-37878599D01*
X101229014Y-37740706D01*
X101455134Y-37555134D01*
X101478890Y-37526187D01*
X118577500Y-37526187D01*
X118577500Y-37713813D01*
X118614104Y-37897834D01*
X118685905Y-38071178D01*
X118790145Y-38227184D01*
X118922816Y-38359855D01*
X119078822Y-38464095D01*
X119252166Y-38535896D01*
X119436187Y-38572500D01*
X119623813Y-38572500D01*
X119807834Y-38535896D01*
X119981178Y-38464095D01*
X120137184Y-38359855D01*
X120269855Y-38227184D01*
X120374095Y-38071178D01*
X120445896Y-37897834D01*
X120476293Y-37745020D01*
X120621749Y-37745020D01*
X120805770Y-37708416D01*
X120979114Y-37636615D01*
X121135120Y-37532375D01*
X121267791Y-37399704D01*
X121284626Y-37374509D01*
X121388166Y-37417396D01*
X121572187Y-37454000D01*
X121759813Y-37454000D01*
X121943834Y-37417396D01*
X122117178Y-37345595D01*
X122273184Y-37241355D01*
X122405855Y-37108684D01*
X122510095Y-36952678D01*
X122581896Y-36779334D01*
X122618500Y-36595313D01*
X122618500Y-36407687D01*
X122581896Y-36223666D01*
X122520809Y-36076187D01*
X124957500Y-36076187D01*
X124957500Y-36263813D01*
X124994104Y-36447834D01*
X125065905Y-36621178D01*
X125170145Y-36777184D01*
X125302816Y-36909855D01*
X125458822Y-37014095D01*
X125632166Y-37085896D01*
X125816187Y-37122500D01*
X126003813Y-37122500D01*
X126066654Y-37110000D01*
X128971928Y-37110000D01*
X128984188Y-37234482D01*
X129020498Y-37354180D01*
X129079463Y-37464494D01*
X129158815Y-37561185D01*
X129255506Y-37640537D01*
X129365820Y-37699502D01*
X129485518Y-37735812D01*
X129610000Y-37748072D01*
X130324250Y-37745000D01*
X130483000Y-37586250D01*
X130483000Y-36387000D01*
X130737000Y-36387000D01*
X130737000Y-37586250D01*
X130895750Y-37745000D01*
X131610000Y-37748072D01*
X131734482Y-37735812D01*
X131854180Y-37699502D01*
X131964494Y-37640537D01*
X132061185Y-37561185D01*
X132140537Y-37464494D01*
X132199502Y-37354180D01*
X132235812Y-37234482D01*
X132248072Y-37110000D01*
X132245000Y-36545750D01*
X132086250Y-36387000D01*
X130737000Y-36387000D01*
X130483000Y-36387000D01*
X129133750Y-36387000D01*
X128975000Y-36545750D01*
X128971928Y-37110000D01*
X126066654Y-37110000D01*
X126187834Y-37085896D01*
X126361178Y-37014095D01*
X126517184Y-36909855D01*
X126649855Y-36777184D01*
X126754095Y-36621178D01*
X126825896Y-36447834D01*
X126862500Y-36263813D01*
X126862500Y-36076187D01*
X126825896Y-35892166D01*
X126754095Y-35718822D01*
X126649855Y-35562816D01*
X126517184Y-35430145D01*
X126361178Y-35325905D01*
X126187834Y-35254104D01*
X126003813Y-35217500D01*
X125816187Y-35217500D01*
X125632166Y-35254104D01*
X125458822Y-35325905D01*
X125302816Y-35430145D01*
X125170145Y-35562816D01*
X125065905Y-35718822D01*
X124994104Y-35892166D01*
X124957500Y-36076187D01*
X122520809Y-36076187D01*
X122510095Y-36050322D01*
X122405855Y-35894316D01*
X122273184Y-35761645D01*
X122117178Y-35657405D01*
X121943834Y-35585604D01*
X121759813Y-35549000D01*
X121572187Y-35549000D01*
X121388166Y-35585604D01*
X121214822Y-35657405D01*
X121058816Y-35761645D01*
X120926145Y-35894316D01*
X120909310Y-35919511D01*
X120805770Y-35876624D01*
X120621749Y-35840020D01*
X120434123Y-35840020D01*
X120250102Y-35876624D01*
X120076758Y-35948425D01*
X119920752Y-36052665D01*
X119788081Y-36185336D01*
X119683841Y-36341342D01*
X119612040Y-36514686D01*
X119581643Y-36667500D01*
X119436187Y-36667500D01*
X119252166Y-36704104D01*
X119078822Y-36775905D01*
X118922816Y-36880145D01*
X118790145Y-37012816D01*
X118685905Y-37168822D01*
X118614104Y-37342166D01*
X118577500Y-37526187D01*
X101478890Y-37526187D01*
X101640706Y-37329014D01*
X101778599Y-37071034D01*
X101863513Y-36791111D01*
X101892185Y-36500000D01*
X101863513Y-36208889D01*
X101778599Y-35928966D01*
X101778124Y-35928077D01*
X113399390Y-35928077D01*
X113399390Y-36115703D01*
X113435994Y-36299724D01*
X113507795Y-36473068D01*
X113612035Y-36629074D01*
X113744706Y-36761745D01*
X113900712Y-36865985D01*
X114074056Y-36937786D01*
X114258077Y-36974390D01*
X114445703Y-36974390D01*
X114629724Y-36937786D01*
X114803068Y-36865985D01*
X114959074Y-36761745D01*
X115091745Y-36629074D01*
X115195985Y-36473068D01*
X115267786Y-36299724D01*
X115304390Y-36115703D01*
X115304390Y-35997609D01*
X116305000Y-35997609D01*
X116305000Y-36142391D01*
X116333246Y-36284391D01*
X116388652Y-36418153D01*
X116469088Y-36538535D01*
X116571465Y-36640912D01*
X116691847Y-36721348D01*
X116825609Y-36776754D01*
X116967609Y-36805000D01*
X117112391Y-36805000D01*
X117254391Y-36776754D01*
X117290000Y-36762004D01*
X117325609Y-36776754D01*
X117467609Y-36805000D01*
X117612391Y-36805000D01*
X117754391Y-36776754D01*
X117790000Y-36762004D01*
X117825609Y-36776754D01*
X117967609Y-36805000D01*
X118112391Y-36805000D01*
X118254391Y-36776754D01*
X118388153Y-36721348D01*
X118508535Y-36640912D01*
X118610912Y-36538535D01*
X118691348Y-36418153D01*
X118746754Y-36284391D01*
X118775000Y-36142391D01*
X118775000Y-35997609D01*
X118746754Y-35855609D01*
X118691348Y-35721847D01*
X118610912Y-35601465D01*
X118508535Y-35499088D01*
X118388153Y-35418652D01*
X118254391Y-35363246D01*
X118112391Y-35335000D01*
X117967609Y-35335000D01*
X117825609Y-35363246D01*
X117790000Y-35377996D01*
X117754391Y-35363246D01*
X117612391Y-35335000D01*
X117467609Y-35335000D01*
X117325609Y-35363246D01*
X117290000Y-35377996D01*
X117254391Y-35363246D01*
X117112391Y-35335000D01*
X116967609Y-35335000D01*
X116825609Y-35363246D01*
X116691847Y-35418652D01*
X116571465Y-35499088D01*
X116469088Y-35601465D01*
X116388652Y-35721847D01*
X116333246Y-35855609D01*
X116305000Y-35997609D01*
X115304390Y-35997609D01*
X115304390Y-35928077D01*
X115267786Y-35744056D01*
X115195985Y-35570712D01*
X115091745Y-35414706D01*
X114959074Y-35282035D01*
X114803068Y-35177795D01*
X114629724Y-35105994D01*
X114445703Y-35069390D01*
X114258077Y-35069390D01*
X114074056Y-35105994D01*
X113900712Y-35177795D01*
X113744706Y-35282035D01*
X113612035Y-35414706D01*
X113507795Y-35570712D01*
X113435994Y-35744056D01*
X113399390Y-35928077D01*
X101778124Y-35928077D01*
X101640706Y-35670986D01*
X101459392Y-35450055D01*
X101494180Y-35439502D01*
X101604494Y-35380537D01*
X101701185Y-35301185D01*
X101780537Y-35204494D01*
X101839502Y-35094180D01*
X101875812Y-34974482D01*
X101888072Y-34850000D01*
X101885896Y-34450187D01*
X108521500Y-34450187D01*
X108521500Y-34637813D01*
X108558104Y-34821834D01*
X108629905Y-34995178D01*
X108734145Y-35151184D01*
X108866816Y-35283855D01*
X109022822Y-35388095D01*
X109196166Y-35459896D01*
X109380187Y-35496500D01*
X109567813Y-35496500D01*
X109751834Y-35459896D01*
X109925178Y-35388095D01*
X110081184Y-35283855D01*
X110213855Y-35151184D01*
X110318095Y-34995178D01*
X110389896Y-34821834D01*
X110426500Y-34637813D01*
X110426500Y-34450187D01*
X110389896Y-34266166D01*
X110318095Y-34092822D01*
X110213855Y-33936816D01*
X110081184Y-33804145D01*
X109925178Y-33699905D01*
X109751834Y-33628104D01*
X109591377Y-33596187D01*
X112517500Y-33596187D01*
X112517500Y-33783813D01*
X112554104Y-33967834D01*
X112625905Y-34141178D01*
X112730145Y-34297184D01*
X112862816Y-34429855D01*
X113018822Y-34534095D01*
X113192166Y-34605896D01*
X113376187Y-34642500D01*
X113563813Y-34642500D01*
X113747834Y-34605896D01*
X113920000Y-34534583D01*
X114092166Y-34605896D01*
X114276187Y-34642500D01*
X114463813Y-34642500D01*
X114647834Y-34605896D01*
X114821178Y-34534095D01*
X114977184Y-34429855D01*
X115109855Y-34297184D01*
X115214095Y-34141178D01*
X115273562Y-33997609D01*
X116305000Y-33997609D01*
X116305000Y-34142391D01*
X116333246Y-34284391D01*
X116388652Y-34418153D01*
X116469088Y-34538535D01*
X116571465Y-34640912D01*
X116691847Y-34721348D01*
X116825609Y-34776754D01*
X116967609Y-34805000D01*
X117112391Y-34805000D01*
X117254391Y-34776754D01*
X117290000Y-34762004D01*
X117325609Y-34776754D01*
X117467609Y-34805000D01*
X117612391Y-34805000D01*
X117754391Y-34776754D01*
X117790000Y-34762004D01*
X117825609Y-34776754D01*
X117967609Y-34805000D01*
X118112391Y-34805000D01*
X118254391Y-34776754D01*
X118388153Y-34721348D01*
X118508535Y-34640912D01*
X118610912Y-34538535D01*
X118691348Y-34418153D01*
X118746754Y-34284391D01*
X118775000Y-34142391D01*
X118775000Y-33997609D01*
X118746754Y-33855609D01*
X118691348Y-33721847D01*
X118610912Y-33601465D01*
X118508535Y-33499088D01*
X118388153Y-33418652D01*
X118254391Y-33363246D01*
X118112391Y-33335000D01*
X117967609Y-33335000D01*
X117825609Y-33363246D01*
X117790000Y-33377996D01*
X117754391Y-33363246D01*
X117612391Y-33335000D01*
X117467609Y-33335000D01*
X117325609Y-33363246D01*
X117290000Y-33377996D01*
X117254391Y-33363246D01*
X117112391Y-33335000D01*
X116967609Y-33335000D01*
X116825609Y-33363246D01*
X116691847Y-33418652D01*
X116571465Y-33499088D01*
X116469088Y-33601465D01*
X116388652Y-33721847D01*
X116333246Y-33855609D01*
X116305000Y-33997609D01*
X115273562Y-33997609D01*
X115285896Y-33967834D01*
X115322500Y-33783813D01*
X115322500Y-33596187D01*
X115285896Y-33412166D01*
X115214095Y-33238822D01*
X115109855Y-33082816D01*
X114977184Y-32950145D01*
X114821178Y-32845905D01*
X114647834Y-32774104D01*
X114463813Y-32737500D01*
X114276187Y-32737500D01*
X114092166Y-32774104D01*
X113920000Y-32845417D01*
X113747834Y-32774104D01*
X113563813Y-32737500D01*
X113376187Y-32737500D01*
X113192166Y-32774104D01*
X113018822Y-32845905D01*
X112862816Y-32950145D01*
X112730145Y-33082816D01*
X112625905Y-33238822D01*
X112554104Y-33412166D01*
X112517500Y-33596187D01*
X109591377Y-33596187D01*
X109567813Y-33591500D01*
X109380187Y-33591500D01*
X109196166Y-33628104D01*
X109022822Y-33699905D01*
X108866816Y-33804145D01*
X108734145Y-33936816D01*
X108629905Y-34092822D01*
X108558104Y-34266166D01*
X108521500Y-34450187D01*
X101885896Y-34450187D01*
X101885000Y-34285750D01*
X101726250Y-34127000D01*
X100377000Y-34127000D01*
X100377000Y-34147000D01*
X100123000Y-34147000D01*
X100123000Y-34127000D01*
X98773750Y-34127000D01*
X98615000Y-34285750D01*
X98611928Y-34850000D01*
X98624188Y-34974482D01*
X98660498Y-35094180D01*
X98719463Y-35204494D01*
X98798815Y-35301185D01*
X98895506Y-35380537D01*
X99005820Y-35439502D01*
X99040608Y-35450055D01*
X98859294Y-35670986D01*
X98721401Y-35928966D01*
X98636487Y-36208889D01*
X98607815Y-36500000D01*
X97642861Y-36500000D01*
X97635909Y-33150000D01*
X98611928Y-33150000D01*
X98615000Y-33714250D01*
X98773750Y-33873000D01*
X100123000Y-33873000D01*
X100123000Y-32673750D01*
X100377000Y-32673750D01*
X100377000Y-33873000D01*
X101726250Y-33873000D01*
X101885000Y-33714250D01*
X101888072Y-33150000D01*
X101875812Y-33025518D01*
X101839502Y-32905820D01*
X101780537Y-32795506D01*
X101701185Y-32698815D01*
X101604494Y-32619463D01*
X101494180Y-32560498D01*
X101374482Y-32524188D01*
X101250000Y-32511928D01*
X100535750Y-32515000D01*
X100377000Y-32673750D01*
X100123000Y-32673750D01*
X99964250Y-32515000D01*
X99250000Y-32511928D01*
X99125518Y-32524188D01*
X99005820Y-32560498D01*
X98895506Y-32619463D01*
X98798815Y-32698815D01*
X98719463Y-32795506D01*
X98660498Y-32905820D01*
X98624188Y-33025518D01*
X98611928Y-33150000D01*
X97635909Y-33150000D01*
X97625539Y-28153132D01*
X97664893Y-28248141D01*
X97953262Y-28679715D01*
X98320285Y-29046738D01*
X98751859Y-29335107D01*
X99231399Y-29533739D01*
X99740475Y-29635000D01*
X100259525Y-29635000D01*
X100768601Y-29533739D01*
X101248141Y-29335107D01*
X101515913Y-29156187D01*
X102187500Y-29156187D01*
X102187500Y-29343813D01*
X102224104Y-29527834D01*
X102295417Y-29700000D01*
X102224104Y-29872166D01*
X102187500Y-30056187D01*
X102187500Y-30243813D01*
X102224104Y-30427834D01*
X102295417Y-30600000D01*
X102224104Y-30772166D01*
X102187500Y-30956187D01*
X102187500Y-31143813D01*
X102224104Y-31327834D01*
X102295417Y-31500000D01*
X102224104Y-31672166D01*
X102187500Y-31856187D01*
X102187500Y-32043813D01*
X102224104Y-32227834D01*
X102295905Y-32401178D01*
X102400145Y-32557184D01*
X102532816Y-32689855D01*
X102688822Y-32794095D01*
X102862166Y-32865896D01*
X103046187Y-32902500D01*
X103233813Y-32902500D01*
X103417834Y-32865896D01*
X103590000Y-32794583D01*
X103762166Y-32865896D01*
X103946187Y-32902500D01*
X104133813Y-32902500D01*
X104317834Y-32865896D01*
X104490000Y-32794583D01*
X104662166Y-32865896D01*
X104846187Y-32902500D01*
X105033813Y-32902500D01*
X105217834Y-32865896D01*
X105390000Y-32794583D01*
X105562166Y-32865896D01*
X105746187Y-32902500D01*
X105933813Y-32902500D01*
X106117834Y-32865896D01*
X106290000Y-32794583D01*
X106462166Y-32865896D01*
X106646187Y-32902500D01*
X106833813Y-32902500D01*
X107017834Y-32865896D01*
X107190000Y-32794583D01*
X107362166Y-32865896D01*
X107546187Y-32902500D01*
X107733813Y-32902500D01*
X107917834Y-32865896D01*
X108091178Y-32794095D01*
X108247184Y-32689855D01*
X108379855Y-32557184D01*
X108472729Y-32418187D01*
X118681500Y-32418187D01*
X118681500Y-32605813D01*
X118718104Y-32789834D01*
X118789905Y-32963178D01*
X118894145Y-33119184D01*
X119026816Y-33251855D01*
X119182822Y-33356095D01*
X119356166Y-33427896D01*
X119540187Y-33464500D01*
X119727813Y-33464500D01*
X119911834Y-33427896D01*
X120045711Y-33372443D01*
X120102796Y-33510256D01*
X120216064Y-33679774D01*
X120360227Y-33823937D01*
X120529745Y-33937205D01*
X120718103Y-34015226D01*
X120918062Y-34055000D01*
X121121940Y-34055000D01*
X121321899Y-34015226D01*
X121510257Y-33937205D01*
X121679775Y-33823937D01*
X121743712Y-33760000D01*
X128967815Y-33760000D01*
X128996487Y-34051111D01*
X129081401Y-34331034D01*
X129219294Y-34589014D01*
X129400608Y-34809945D01*
X129365820Y-34820498D01*
X129255506Y-34879463D01*
X129158815Y-34958815D01*
X129079463Y-35055506D01*
X129020498Y-35165820D01*
X128984188Y-35285518D01*
X128971928Y-35410000D01*
X128975000Y-35974250D01*
X129133750Y-36133000D01*
X130483000Y-36133000D01*
X130483000Y-36113000D01*
X130737000Y-36113000D01*
X130737000Y-36133000D01*
X132086250Y-36133000D01*
X132245000Y-35974250D01*
X132248072Y-35410000D01*
X132235812Y-35285518D01*
X132199502Y-35165820D01*
X132140537Y-35055506D01*
X132061185Y-34958815D01*
X131964494Y-34879463D01*
X131854180Y-34820498D01*
X131819392Y-34809945D01*
X132000706Y-34589014D01*
X132138599Y-34331034D01*
X132223513Y-34051111D01*
X132252185Y-33760000D01*
X132223513Y-33468889D01*
X132138599Y-33188966D01*
X132000706Y-32930986D01*
X131815134Y-32704866D01*
X131589014Y-32519294D01*
X131331034Y-32381401D01*
X131051111Y-32296487D01*
X130832950Y-32275000D01*
X130387050Y-32275000D01*
X130168889Y-32296487D01*
X129888966Y-32381401D01*
X129630986Y-32519294D01*
X129404866Y-32704866D01*
X129219294Y-32930986D01*
X129081401Y-33188966D01*
X128996487Y-33468889D01*
X128967815Y-33760000D01*
X121743712Y-33760000D01*
X121823938Y-33679774D01*
X121937206Y-33510256D01*
X122015227Y-33321898D01*
X122055001Y-33121939D01*
X122055001Y-32918061D01*
X122015227Y-32718102D01*
X121937206Y-32529744D01*
X121823938Y-32360226D01*
X121679775Y-32216063D01*
X121510257Y-32102795D01*
X121321899Y-32024774D01*
X121121940Y-31985000D01*
X120918062Y-31985000D01*
X120718103Y-32024774D01*
X120529745Y-32102795D01*
X120502908Y-32120727D01*
X120478095Y-32060822D01*
X120373855Y-31904816D01*
X120241184Y-31772145D01*
X120085178Y-31667905D01*
X119911834Y-31596104D01*
X119727813Y-31559500D01*
X119540187Y-31559500D01*
X119356166Y-31596104D01*
X119182822Y-31667905D01*
X119026816Y-31772145D01*
X118894145Y-31904816D01*
X118789905Y-32060822D01*
X118718104Y-32234166D01*
X118681500Y-32418187D01*
X108472729Y-32418187D01*
X108484095Y-32401178D01*
X108555896Y-32227834D01*
X108592500Y-32043813D01*
X108592500Y-31856187D01*
X108555896Y-31672166D01*
X108484583Y-31500000D01*
X108555896Y-31327834D01*
X108592500Y-31143813D01*
X108592500Y-30956187D01*
X108555896Y-30772166D01*
X108484583Y-30600000D01*
X108555896Y-30427834D01*
X108592500Y-30243813D01*
X108592500Y-30056187D01*
X108555896Y-29872166D01*
X108484583Y-29700000D01*
X108555896Y-29527834D01*
X108572136Y-29446187D01*
X110277500Y-29446187D01*
X110277500Y-29633813D01*
X110314104Y-29817834D01*
X110385905Y-29991178D01*
X110490145Y-30147184D01*
X110622816Y-30279855D01*
X110778822Y-30384095D01*
X110952166Y-30455896D01*
X111136187Y-30492500D01*
X111323813Y-30492500D01*
X111507834Y-30455896D01*
X111681178Y-30384095D01*
X111837184Y-30279855D01*
X111969855Y-30147184D01*
X112074095Y-29991178D01*
X112145896Y-29817834D01*
X112182500Y-29633813D01*
X112182500Y-29446187D01*
X112167383Y-29370187D01*
X119443500Y-29370187D01*
X119443500Y-29557813D01*
X119480104Y-29741834D01*
X119551905Y-29915178D01*
X119656145Y-30071184D01*
X119788816Y-30203855D01*
X119944822Y-30308095D01*
X120118166Y-30379896D01*
X120302187Y-30416500D01*
X120489813Y-30416500D01*
X120642206Y-30386187D01*
X121729500Y-30386187D01*
X121729500Y-30573813D01*
X121766104Y-30757834D01*
X121837905Y-30931178D01*
X121942145Y-31087184D01*
X122074816Y-31219855D01*
X122230822Y-31324095D01*
X122404166Y-31395896D01*
X122440526Y-31403128D01*
X122436800Y-31421861D01*
X122436800Y-31625739D01*
X122476574Y-31825698D01*
X122554595Y-32014056D01*
X122667863Y-32183574D01*
X122812026Y-32327737D01*
X122981544Y-32441005D01*
X123169902Y-32519026D01*
X123369861Y-32558800D01*
X123573739Y-32558800D01*
X123773698Y-32519026D01*
X123962056Y-32441005D01*
X124131574Y-32327737D01*
X124275737Y-32183574D01*
X124389005Y-32014056D01*
X124467026Y-31825698D01*
X124506800Y-31625739D01*
X124506800Y-31421861D01*
X124467026Y-31221902D01*
X124389005Y-31033544D01*
X124275737Y-30864026D01*
X124131574Y-30719863D01*
X123962056Y-30606595D01*
X123773698Y-30528574D01*
X123634500Y-30500886D01*
X123634500Y-30386187D01*
X123597896Y-30202166D01*
X123526095Y-30028822D01*
X123421855Y-29872816D01*
X123289184Y-29740145D01*
X123133178Y-29635905D01*
X122959834Y-29564104D01*
X122775813Y-29527500D01*
X122588187Y-29527500D01*
X122404166Y-29564104D01*
X122230822Y-29635905D01*
X122074816Y-29740145D01*
X121942145Y-29872816D01*
X121837905Y-30028822D01*
X121766104Y-30202166D01*
X121729500Y-30386187D01*
X120642206Y-30386187D01*
X120673834Y-30379896D01*
X120847178Y-30308095D01*
X121003184Y-30203855D01*
X121135855Y-30071184D01*
X121240095Y-29915178D01*
X121311896Y-29741834D01*
X121348500Y-29557813D01*
X121348500Y-29370187D01*
X121311896Y-29186166D01*
X121240095Y-29012822D01*
X121135855Y-28856816D01*
X121003184Y-28724145D01*
X120847178Y-28619905D01*
X120673834Y-28548104D01*
X120489813Y-28511500D01*
X120302187Y-28511500D01*
X120118166Y-28548104D01*
X119944822Y-28619905D01*
X119788816Y-28724145D01*
X119656145Y-28856816D01*
X119551905Y-29012822D01*
X119480104Y-29186166D01*
X119443500Y-29370187D01*
X112167383Y-29370187D01*
X112145896Y-29262166D01*
X112074095Y-29088822D01*
X111969855Y-28932816D01*
X111837184Y-28800145D01*
X111681178Y-28695905D01*
X111507834Y-28624104D01*
X111323813Y-28587500D01*
X111136187Y-28587500D01*
X110952166Y-28624104D01*
X110778822Y-28695905D01*
X110622816Y-28800145D01*
X110490145Y-28932816D01*
X110385905Y-29088822D01*
X110314104Y-29262166D01*
X110277500Y-29446187D01*
X108572136Y-29446187D01*
X108592500Y-29343813D01*
X108592500Y-29156187D01*
X108555896Y-28972166D01*
X108484095Y-28798822D01*
X108379855Y-28642816D01*
X108247184Y-28510145D01*
X108091178Y-28405905D01*
X107917834Y-28334104D01*
X107733813Y-28297500D01*
X107546187Y-28297500D01*
X107362166Y-28334104D01*
X107190000Y-28405417D01*
X107017834Y-28334104D01*
X106833813Y-28297500D01*
X106646187Y-28297500D01*
X106462166Y-28334104D01*
X106290000Y-28405417D01*
X106117834Y-28334104D01*
X105933813Y-28297500D01*
X105746187Y-28297500D01*
X105562166Y-28334104D01*
X105390000Y-28405417D01*
X105217834Y-28334104D01*
X105033813Y-28297500D01*
X104846187Y-28297500D01*
X104662166Y-28334104D01*
X104490000Y-28405417D01*
X104317834Y-28334104D01*
X104133813Y-28297500D01*
X103946187Y-28297500D01*
X103762166Y-28334104D01*
X103590000Y-28405417D01*
X103417834Y-28334104D01*
X103233813Y-28297500D01*
X103046187Y-28297500D01*
X102862166Y-28334104D01*
X102688822Y-28405905D01*
X102532816Y-28510145D01*
X102400145Y-28642816D01*
X102295905Y-28798822D01*
X102224104Y-28972166D01*
X102187500Y-29156187D01*
X101515913Y-29156187D01*
X101679715Y-29046738D01*
X102046738Y-28679715D01*
X102335107Y-28248141D01*
X102533739Y-27768601D01*
X102635000Y-27259525D01*
X102635000Y-26740475D01*
X102574937Y-26438514D01*
X115605000Y-26438514D01*
X115605000Y-26701486D01*
X115656304Y-26959405D01*
X115756939Y-27202359D01*
X115903038Y-27421013D01*
X116088987Y-27606962D01*
X116307641Y-27753061D01*
X116550595Y-27853696D01*
X116808514Y-27905000D01*
X117071486Y-27905000D01*
X117329405Y-27853696D01*
X117572359Y-27753061D01*
X117791013Y-27606962D01*
X117976962Y-27421013D01*
X118123061Y-27202359D01*
X118223696Y-26959405D01*
X118275000Y-26701486D01*
X118275000Y-26438514D01*
X120685000Y-26438514D01*
X120685000Y-26701486D01*
X120736304Y-26959405D01*
X120836939Y-27202359D01*
X120983038Y-27421013D01*
X121168987Y-27606962D01*
X121387641Y-27753061D01*
X121630595Y-27853696D01*
X121888514Y-27905000D01*
X122151486Y-27905000D01*
X122409405Y-27853696D01*
X122652359Y-27753061D01*
X122871013Y-27606962D01*
X123056962Y-27421013D01*
X123074765Y-27394369D01*
X123150145Y-27507184D01*
X123282816Y-27639855D01*
X123438822Y-27744095D01*
X123612166Y-27815896D01*
X123796187Y-27852500D01*
X123889228Y-27852500D01*
X123924104Y-28027834D01*
X123995905Y-28201178D01*
X124100145Y-28357184D01*
X124232816Y-28489855D01*
X124388822Y-28594095D01*
X124562166Y-28665896D01*
X124746187Y-28702500D01*
X124787500Y-28702500D01*
X124787500Y-28743813D01*
X124824104Y-28927834D01*
X124895905Y-29101178D01*
X125000145Y-29257184D01*
X125132816Y-29389855D01*
X125288822Y-29494095D01*
X125462166Y-29565896D01*
X125646187Y-29602500D01*
X125833813Y-29602500D01*
X126017834Y-29565896D01*
X126190000Y-29494583D01*
X126362166Y-29565896D01*
X126546187Y-29602500D01*
X126733813Y-29602500D01*
X126917834Y-29565896D01*
X127070000Y-29502867D01*
X127222166Y-29565896D01*
X127406187Y-29602500D01*
X127593813Y-29602500D01*
X127777834Y-29565896D01*
X127951178Y-29494095D01*
X128107184Y-29389855D01*
X128239855Y-29257184D01*
X128344095Y-29101178D01*
X128415896Y-28927834D01*
X128452500Y-28743813D01*
X128452500Y-28556187D01*
X128415896Y-28372166D01*
X128344095Y-28198822D01*
X128239855Y-28042816D01*
X128107184Y-27910145D01*
X127951178Y-27805905D01*
X127777834Y-27734104D01*
X127593813Y-27697500D01*
X127592500Y-27697500D01*
X127592500Y-27656187D01*
X127555896Y-27472166D01*
X127484095Y-27298822D01*
X127379855Y-27142816D01*
X127247184Y-27010145D01*
X127091178Y-26905905D01*
X126917834Y-26834104D01*
X126733813Y-26797500D01*
X126640772Y-26797500D01*
X126605896Y-26622166D01*
X126534095Y-26448822D01*
X126429855Y-26292816D01*
X126297184Y-26160145D01*
X126141178Y-26055905D01*
X125967834Y-25984104D01*
X125783813Y-25947500D01*
X125742500Y-25947500D01*
X125742500Y-25906187D01*
X125705896Y-25722166D01*
X125634095Y-25548822D01*
X125529855Y-25392816D01*
X125397184Y-25260145D01*
X125241178Y-25155905D01*
X125067834Y-25084104D01*
X124883813Y-25047500D01*
X124696187Y-25047500D01*
X124512166Y-25084104D01*
X124340000Y-25155417D01*
X124167834Y-25084104D01*
X123983813Y-25047500D01*
X123796187Y-25047500D01*
X123612166Y-25084104D01*
X123438822Y-25155905D01*
X123282816Y-25260145D01*
X123150145Y-25392816D01*
X123045905Y-25548822D01*
X122999304Y-25661329D01*
X122871013Y-25533038D01*
X122652359Y-25386939D01*
X122409405Y-25286304D01*
X122151486Y-25235000D01*
X121888514Y-25235000D01*
X121630595Y-25286304D01*
X121387641Y-25386939D01*
X121168987Y-25533038D01*
X120983038Y-25718987D01*
X120836939Y-25937641D01*
X120736304Y-26180595D01*
X120685000Y-26438514D01*
X118275000Y-26438514D01*
X118223696Y-26180595D01*
X118123061Y-25937641D01*
X117976962Y-25718987D01*
X117791013Y-25533038D01*
X117572359Y-25386939D01*
X117329405Y-25286304D01*
X117071486Y-25235000D01*
X116808514Y-25235000D01*
X116550595Y-25286304D01*
X116307641Y-25386939D01*
X116088987Y-25533038D01*
X115903038Y-25718987D01*
X115756939Y-25937641D01*
X115656304Y-26180595D01*
X115605000Y-26438514D01*
X102574937Y-26438514D01*
X102533739Y-26231399D01*
X102335107Y-25751859D01*
X102046738Y-25320285D01*
X101679715Y-24953262D01*
X101248141Y-24664893D01*
X101096871Y-24602235D01*
X129863803Y-24618524D01*
%TD*%
M02*
