%TF.GenerationSoftware,KiCad,Pcbnew,(5.1.8)-1*%
%TF.CreationDate,2021-02-01T14:36:09-08:00*%
%TF.ProjectId,spl_prototype,73706c5f-7072-46f7-946f-747970652e6b,rev?*%
%TF.SameCoordinates,Original*%
%TF.FileFunction,Soldermask,Top*%
%TF.FilePolarity,Negative*%
%FSLAX46Y46*%
G04 Gerber Fmt 4.6, Leading zero omitted, Abs format (unit mm)*
G04 Created by KiCad (PCBNEW (5.1.8)-1) date 2021-02-01 14:36:09*
%MOMM*%
%LPD*%
G01*
G04 APERTURE LIST*
%ADD10O,1.700000X1.700000*%
%ADD11R,1.700000X1.700000*%
%ADD12R,0.650000X1.060000*%
%ADD13R,2.000000X2.000000*%
%ADD14C,0.200000*%
%ADD15C,0.100000*%
%ADD16R,0.240000X1.200000*%
%ADD17R,1.200000X0.240000*%
%ADD18R,2.600000X2.600000*%
%ADD19R,1.000000X0.200000*%
%ADD20R,0.200000X1.000000*%
%ADD21R,0.450000X0.200000*%
%ADD22R,0.900000X1.700000*%
%ADD23R,2.000000X4.500000*%
%ADD24R,2.400000X1.950000*%
%ADD25O,1.700000X2.000000*%
G04 APERTURE END LIST*
D10*
%TO.C,JP3(CHG-BATT)*%
X100050000Y-23540000D03*
D11*
X97510000Y-23540000D03*
%TD*%
D12*
%TO.C,U8*%
X94550000Y-32100000D03*
X96450000Y-32100000D03*
X96450000Y-34300000D03*
X95500000Y-34300000D03*
X94550000Y-34300000D03*
%TD*%
%TO.C,R22*%
G36*
G01*
X97800000Y-47350001D02*
X97800000Y-46449999D01*
G75*
G02*
X98049999Y-46200000I249999J0D01*
G01*
X98750001Y-46200000D01*
G75*
G02*
X99000000Y-46449999I0J-249999D01*
G01*
X99000000Y-47350001D01*
G75*
G02*
X98750001Y-47600000I-249999J0D01*
G01*
X98049999Y-47600000D01*
G75*
G02*
X97800000Y-47350001I0J249999D01*
G01*
G37*
G36*
G01*
X95800000Y-47350001D02*
X95800000Y-46449999D01*
G75*
G02*
X96049999Y-46200000I249999J0D01*
G01*
X96750001Y-46200000D01*
G75*
G02*
X97000000Y-46449999I0J-249999D01*
G01*
X97000000Y-47350001D01*
G75*
G02*
X96750001Y-47600000I-249999J0D01*
G01*
X96049999Y-47600000D01*
G75*
G02*
X95800000Y-47350001I0J249999D01*
G01*
G37*
%TD*%
%TO.C,R21*%
G36*
G01*
X97900000Y-43350001D02*
X97900000Y-42449999D01*
G75*
G02*
X98149999Y-42200000I249999J0D01*
G01*
X98850001Y-42200000D01*
G75*
G02*
X99100000Y-42449999I0J-249999D01*
G01*
X99100000Y-43350001D01*
G75*
G02*
X98850001Y-43600000I-249999J0D01*
G01*
X98149999Y-43600000D01*
G75*
G02*
X97900000Y-43350001I0J249999D01*
G01*
G37*
G36*
G01*
X95900000Y-43350001D02*
X95900000Y-42449999D01*
G75*
G02*
X96149999Y-42200000I249999J0D01*
G01*
X96850001Y-42200000D01*
G75*
G02*
X97100000Y-42449999I0J-249999D01*
G01*
X97100000Y-43350001D01*
G75*
G02*
X96850001Y-43600000I-249999J0D01*
G01*
X96149999Y-43600000D01*
G75*
G02*
X95900000Y-43350001I0J249999D01*
G01*
G37*
%TD*%
%TO.C,R4*%
G36*
G01*
X94100000Y-27649999D02*
X94100000Y-28550001D01*
G75*
G02*
X93850001Y-28800000I-249999J0D01*
G01*
X93149999Y-28800000D01*
G75*
G02*
X92900000Y-28550001I0J249999D01*
G01*
X92900000Y-27649999D01*
G75*
G02*
X93149999Y-27400000I249999J0D01*
G01*
X93850001Y-27400000D01*
G75*
G02*
X94100000Y-27649999I0J-249999D01*
G01*
G37*
G36*
G01*
X96100000Y-27649999D02*
X96100000Y-28550001D01*
G75*
G02*
X95850001Y-28800000I-249999J0D01*
G01*
X95149999Y-28800000D01*
G75*
G02*
X94900000Y-28550001I0J249999D01*
G01*
X94900000Y-27649999D01*
G75*
G02*
X95149999Y-27400000I249999J0D01*
G01*
X95850001Y-27400000D01*
G75*
G02*
X96100000Y-27649999I0J-249999D01*
G01*
G37*
%TD*%
D10*
%TO.C,JP2(BQ-5V)*%
X102960000Y-49100000D03*
D11*
X105500000Y-49100000D03*
%TD*%
%TO.C,D5*%
G36*
G01*
X92650000Y-46449999D02*
X92650000Y-47350001D01*
G75*
G02*
X92400001Y-47600000I-249999J0D01*
G01*
X91749999Y-47600000D01*
G75*
G02*
X91500000Y-47350001I0J249999D01*
G01*
X91500000Y-46449999D01*
G75*
G02*
X91749999Y-46200000I249999J0D01*
G01*
X92400001Y-46200000D01*
G75*
G02*
X92650000Y-46449999I0J-249999D01*
G01*
G37*
G36*
G01*
X94700000Y-46449999D02*
X94700000Y-47350001D01*
G75*
G02*
X94450001Y-47600000I-249999J0D01*
G01*
X93799999Y-47600000D01*
G75*
G02*
X93550000Y-47350001I0J249999D01*
G01*
X93550000Y-46449999D01*
G75*
G02*
X93799999Y-46200000I249999J0D01*
G01*
X94450001Y-46200000D01*
G75*
G02*
X94700000Y-46449999I0J-249999D01*
G01*
G37*
%TD*%
%TO.C,D4*%
G36*
G01*
X93750000Y-43450001D02*
X93750000Y-42549999D01*
G75*
G02*
X93999999Y-42300000I249999J0D01*
G01*
X94650001Y-42300000D01*
G75*
G02*
X94900000Y-42549999I0J-249999D01*
G01*
X94900000Y-43450001D01*
G75*
G02*
X94650001Y-43700000I-249999J0D01*
G01*
X93999999Y-43700000D01*
G75*
G02*
X93750000Y-43450001I0J249999D01*
G01*
G37*
G36*
G01*
X91700000Y-43450001D02*
X91700000Y-42549999D01*
G75*
G02*
X91949999Y-42300000I249999J0D01*
G01*
X92600001Y-42300000D01*
G75*
G02*
X92850000Y-42549999I0J-249999D01*
G01*
X92850000Y-43450001D01*
G75*
G02*
X92600001Y-43700000I-249999J0D01*
G01*
X91949999Y-43700000D01*
G75*
G02*
X91700000Y-43450001I0J249999D01*
G01*
G37*
%TD*%
%TO.C,C14*%
G36*
G01*
X110775000Y-36550000D02*
X109825000Y-36550000D01*
G75*
G02*
X109575000Y-36300000I0J250000D01*
G01*
X109575000Y-35625000D01*
G75*
G02*
X109825000Y-35375000I250000J0D01*
G01*
X110775000Y-35375000D01*
G75*
G02*
X111025000Y-35625000I0J-250000D01*
G01*
X111025000Y-36300000D01*
G75*
G02*
X110775000Y-36550000I-250000J0D01*
G01*
G37*
G36*
G01*
X110775000Y-38625000D02*
X109825000Y-38625000D01*
G75*
G02*
X109575000Y-38375000I0J250000D01*
G01*
X109575000Y-37700000D01*
G75*
G02*
X109825000Y-37450000I250000J0D01*
G01*
X110775000Y-37450000D01*
G75*
G02*
X111025000Y-37700000I0J-250000D01*
G01*
X111025000Y-38375000D01*
G75*
G02*
X110775000Y-38625000I-250000J0D01*
G01*
G37*
%TD*%
%TO.C,C13*%
G36*
G01*
X106950000Y-36475000D02*
X106950000Y-35525000D01*
G75*
G02*
X107200000Y-35275000I250000J0D01*
G01*
X107875000Y-35275000D01*
G75*
G02*
X108125000Y-35525000I0J-250000D01*
G01*
X108125000Y-36475000D01*
G75*
G02*
X107875000Y-36725000I-250000J0D01*
G01*
X107200000Y-36725000D01*
G75*
G02*
X106950000Y-36475000I0J250000D01*
G01*
G37*
G36*
G01*
X104875000Y-36475000D02*
X104875000Y-35525000D01*
G75*
G02*
X105125000Y-35275000I250000J0D01*
G01*
X105800000Y-35275000D01*
G75*
G02*
X106050000Y-35525000I0J-250000D01*
G01*
X106050000Y-36475000D01*
G75*
G02*
X105800000Y-36725000I-250000J0D01*
G01*
X105125000Y-36725000D01*
G75*
G02*
X104875000Y-36475000I0J250000D01*
G01*
G37*
%TD*%
%TO.C,C2*%
G36*
G01*
X95950000Y-37825000D02*
X95950000Y-38775000D01*
G75*
G02*
X95700000Y-39025000I-250000J0D01*
G01*
X95025000Y-39025000D01*
G75*
G02*
X94775000Y-38775000I0J250000D01*
G01*
X94775000Y-37825000D01*
G75*
G02*
X95025000Y-37575000I250000J0D01*
G01*
X95700000Y-37575000D01*
G75*
G02*
X95950000Y-37825000I0J-250000D01*
G01*
G37*
G36*
G01*
X98025000Y-37825000D02*
X98025000Y-38775000D01*
G75*
G02*
X97775000Y-39025000I-250000J0D01*
G01*
X97100000Y-39025000D01*
G75*
G02*
X96850000Y-38775000I0J250000D01*
G01*
X96850000Y-37825000D01*
G75*
G02*
X97100000Y-37575000I250000J0D01*
G01*
X97775000Y-37575000D01*
G75*
G02*
X98025000Y-37825000I0J-250000D01*
G01*
G37*
%TD*%
%TO.C,C1*%
G36*
G01*
X102075000Y-37350000D02*
X101125000Y-37350000D01*
G75*
G02*
X100875000Y-37100000I0J250000D01*
G01*
X100875000Y-36425000D01*
G75*
G02*
X101125000Y-36175000I250000J0D01*
G01*
X102075000Y-36175000D01*
G75*
G02*
X102325000Y-36425000I0J-250000D01*
G01*
X102325000Y-37100000D01*
G75*
G02*
X102075000Y-37350000I-250000J0D01*
G01*
G37*
G36*
G01*
X102075000Y-39425000D02*
X101125000Y-39425000D01*
G75*
G02*
X100875000Y-39175000I0J250000D01*
G01*
X100875000Y-38500000D01*
G75*
G02*
X101125000Y-38250000I250000J0D01*
G01*
X102075000Y-38250000D01*
G75*
G02*
X102325000Y-38500000I0J-250000D01*
G01*
X102325000Y-39175000D01*
G75*
G02*
X102075000Y-39425000I-250000J0D01*
G01*
G37*
%TD*%
D12*
%TO.C,U2*%
X106650000Y-42700000D03*
X104750000Y-42700000D03*
X104750000Y-40500000D03*
X105700000Y-40500000D03*
X106650000Y-40500000D03*
%TD*%
D13*
%TO.C,U5*%
X148700000Y-72150000D03*
X148700000Y-66850000D03*
%TD*%
%TO.C,U4*%
X139450000Y-58600000D03*
X144750000Y-58600000D03*
%TD*%
D10*
%TO.C,J6 (COIL)*%
X127110000Y-23400000D03*
D11*
X129650000Y-23400000D03*
%TD*%
D14*
%TO.C,U7*%
X127860000Y-37150000D03*
X128860000Y-37150000D03*
X128860000Y-35150000D03*
X127860000Y-35150000D03*
X128360000Y-37150000D03*
X128360000Y-35150000D03*
D15*
G36*
X128735000Y-37680000D02*
G01*
X128735000Y-38450000D01*
X127985000Y-38450000D01*
X127985000Y-37680000D01*
X127330000Y-37680000D01*
X127330000Y-34620000D01*
X127985000Y-34620000D01*
X127985000Y-33850000D01*
X128735000Y-33850000D01*
X128735000Y-34620000D01*
X129390000Y-34620000D01*
X129390000Y-37680000D01*
X128735000Y-37680000D01*
G37*
D16*
X129110000Y-38450000D03*
X127610000Y-38450000D03*
X129110000Y-33850000D03*
X127610000Y-33850000D03*
D17*
X126410000Y-37900000D03*
X130310000Y-37900000D03*
X126410000Y-37400000D03*
X130310000Y-37400000D03*
X126410000Y-36900000D03*
X130310000Y-36900000D03*
X126410000Y-36400000D03*
X130310000Y-36400000D03*
X126410000Y-35900000D03*
X130310000Y-35900000D03*
X126410000Y-35400000D03*
X130310000Y-35400000D03*
X126410000Y-34900000D03*
X130310000Y-34900000D03*
X126410000Y-34400000D03*
X130310000Y-34400000D03*
%TD*%
D18*
%TO.C,U3*%
X141500000Y-69000000D03*
D19*
X139450000Y-70200000D03*
X139450000Y-69800000D03*
X139450000Y-69400000D03*
X139450000Y-69000000D03*
X139450000Y-68600000D03*
X139450000Y-68200000D03*
X139450000Y-67800000D03*
D20*
X140300000Y-66950000D03*
X140700000Y-66950000D03*
X141100000Y-66950000D03*
X141500000Y-66950000D03*
X141900000Y-66950000D03*
X142300000Y-66950000D03*
X142700000Y-66950000D03*
D19*
X143550000Y-67800000D03*
X143550000Y-68200000D03*
X143550000Y-68600000D03*
X143550000Y-69000000D03*
X143550000Y-69400000D03*
X143550000Y-69800000D03*
D21*
X143275000Y-70200000D03*
D20*
X142700000Y-71050000D03*
X142300000Y-71050000D03*
X141900000Y-71050000D03*
X141500000Y-71050000D03*
X141100000Y-71050000D03*
X140700000Y-71050000D03*
X140300000Y-71050000D03*
%TD*%
D22*
%TO.C,SW1*%
X94090000Y-79040000D03*
X90690000Y-79040000D03*
%TD*%
D23*
%TO.C,Y1*%
X97320000Y-72240000D03*
X97320000Y-63740000D03*
%TD*%
D24*
%TO.C,U6*%
X139850000Y-80200000D03*
X142650000Y-80200000D03*
%TD*%
%TO.C,U1*%
G36*
G01*
X108660000Y-64285000D02*
X108660000Y-62885000D01*
G75*
G02*
X108735000Y-62810000I75000J0D01*
G01*
X108885000Y-62810000D01*
G75*
G02*
X108960000Y-62885000I0J-75000D01*
G01*
X108960000Y-64285000D01*
G75*
G02*
X108885000Y-64360000I-75000J0D01*
G01*
X108735000Y-64360000D01*
G75*
G02*
X108660000Y-64285000I0J75000D01*
G01*
G37*
G36*
G01*
X109160000Y-64285000D02*
X109160000Y-62885000D01*
G75*
G02*
X109235000Y-62810000I75000J0D01*
G01*
X109385000Y-62810000D01*
G75*
G02*
X109460000Y-62885000I0J-75000D01*
G01*
X109460000Y-64285000D01*
G75*
G02*
X109385000Y-64360000I-75000J0D01*
G01*
X109235000Y-64360000D01*
G75*
G02*
X109160000Y-64285000I0J75000D01*
G01*
G37*
G36*
G01*
X109660000Y-64285000D02*
X109660000Y-62885000D01*
G75*
G02*
X109735000Y-62810000I75000J0D01*
G01*
X109885000Y-62810000D01*
G75*
G02*
X109960000Y-62885000I0J-75000D01*
G01*
X109960000Y-64285000D01*
G75*
G02*
X109885000Y-64360000I-75000J0D01*
G01*
X109735000Y-64360000D01*
G75*
G02*
X109660000Y-64285000I0J75000D01*
G01*
G37*
G36*
G01*
X110160000Y-64285000D02*
X110160000Y-62885000D01*
G75*
G02*
X110235000Y-62810000I75000J0D01*
G01*
X110385000Y-62810000D01*
G75*
G02*
X110460000Y-62885000I0J-75000D01*
G01*
X110460000Y-64285000D01*
G75*
G02*
X110385000Y-64360000I-75000J0D01*
G01*
X110235000Y-64360000D01*
G75*
G02*
X110160000Y-64285000I0J75000D01*
G01*
G37*
G36*
G01*
X110660000Y-64285000D02*
X110660000Y-62885000D01*
G75*
G02*
X110735000Y-62810000I75000J0D01*
G01*
X110885000Y-62810000D01*
G75*
G02*
X110960000Y-62885000I0J-75000D01*
G01*
X110960000Y-64285000D01*
G75*
G02*
X110885000Y-64360000I-75000J0D01*
G01*
X110735000Y-64360000D01*
G75*
G02*
X110660000Y-64285000I0J75000D01*
G01*
G37*
G36*
G01*
X111160000Y-64285000D02*
X111160000Y-62885000D01*
G75*
G02*
X111235000Y-62810000I75000J0D01*
G01*
X111385000Y-62810000D01*
G75*
G02*
X111460000Y-62885000I0J-75000D01*
G01*
X111460000Y-64285000D01*
G75*
G02*
X111385000Y-64360000I-75000J0D01*
G01*
X111235000Y-64360000D01*
G75*
G02*
X111160000Y-64285000I0J75000D01*
G01*
G37*
G36*
G01*
X111660000Y-64285000D02*
X111660000Y-62885000D01*
G75*
G02*
X111735000Y-62810000I75000J0D01*
G01*
X111885000Y-62810000D01*
G75*
G02*
X111960000Y-62885000I0J-75000D01*
G01*
X111960000Y-64285000D01*
G75*
G02*
X111885000Y-64360000I-75000J0D01*
G01*
X111735000Y-64360000D01*
G75*
G02*
X111660000Y-64285000I0J75000D01*
G01*
G37*
G36*
G01*
X112160000Y-64285000D02*
X112160000Y-62885000D01*
G75*
G02*
X112235000Y-62810000I75000J0D01*
G01*
X112385000Y-62810000D01*
G75*
G02*
X112460000Y-62885000I0J-75000D01*
G01*
X112460000Y-64285000D01*
G75*
G02*
X112385000Y-64360000I-75000J0D01*
G01*
X112235000Y-64360000D01*
G75*
G02*
X112160000Y-64285000I0J75000D01*
G01*
G37*
G36*
G01*
X112660000Y-64285000D02*
X112660000Y-62885000D01*
G75*
G02*
X112735000Y-62810000I75000J0D01*
G01*
X112885000Y-62810000D01*
G75*
G02*
X112960000Y-62885000I0J-75000D01*
G01*
X112960000Y-64285000D01*
G75*
G02*
X112885000Y-64360000I-75000J0D01*
G01*
X112735000Y-64360000D01*
G75*
G02*
X112660000Y-64285000I0J75000D01*
G01*
G37*
G36*
G01*
X113160000Y-64285000D02*
X113160000Y-62885000D01*
G75*
G02*
X113235000Y-62810000I75000J0D01*
G01*
X113385000Y-62810000D01*
G75*
G02*
X113460000Y-62885000I0J-75000D01*
G01*
X113460000Y-64285000D01*
G75*
G02*
X113385000Y-64360000I-75000J0D01*
G01*
X113235000Y-64360000D01*
G75*
G02*
X113160000Y-64285000I0J75000D01*
G01*
G37*
G36*
G01*
X113660000Y-64285000D02*
X113660000Y-62885000D01*
G75*
G02*
X113735000Y-62810000I75000J0D01*
G01*
X113885000Y-62810000D01*
G75*
G02*
X113960000Y-62885000I0J-75000D01*
G01*
X113960000Y-64285000D01*
G75*
G02*
X113885000Y-64360000I-75000J0D01*
G01*
X113735000Y-64360000D01*
G75*
G02*
X113660000Y-64285000I0J75000D01*
G01*
G37*
G36*
G01*
X114160000Y-64285000D02*
X114160000Y-62885000D01*
G75*
G02*
X114235000Y-62810000I75000J0D01*
G01*
X114385000Y-62810000D01*
G75*
G02*
X114460000Y-62885000I0J-75000D01*
G01*
X114460000Y-64285000D01*
G75*
G02*
X114385000Y-64360000I-75000J0D01*
G01*
X114235000Y-64360000D01*
G75*
G02*
X114160000Y-64285000I0J75000D01*
G01*
G37*
G36*
G01*
X114660000Y-64285000D02*
X114660000Y-62885000D01*
G75*
G02*
X114735000Y-62810000I75000J0D01*
G01*
X114885000Y-62810000D01*
G75*
G02*
X114960000Y-62885000I0J-75000D01*
G01*
X114960000Y-64285000D01*
G75*
G02*
X114885000Y-64360000I-75000J0D01*
G01*
X114735000Y-64360000D01*
G75*
G02*
X114660000Y-64285000I0J75000D01*
G01*
G37*
G36*
G01*
X115160000Y-64285000D02*
X115160000Y-62885000D01*
G75*
G02*
X115235000Y-62810000I75000J0D01*
G01*
X115385000Y-62810000D01*
G75*
G02*
X115460000Y-62885000I0J-75000D01*
G01*
X115460000Y-64285000D01*
G75*
G02*
X115385000Y-64360000I-75000J0D01*
G01*
X115235000Y-64360000D01*
G75*
G02*
X115160000Y-64285000I0J75000D01*
G01*
G37*
G36*
G01*
X115660000Y-64285000D02*
X115660000Y-62885000D01*
G75*
G02*
X115735000Y-62810000I75000J0D01*
G01*
X115885000Y-62810000D01*
G75*
G02*
X115960000Y-62885000I0J-75000D01*
G01*
X115960000Y-64285000D01*
G75*
G02*
X115885000Y-64360000I-75000J0D01*
G01*
X115735000Y-64360000D01*
G75*
G02*
X115660000Y-64285000I0J75000D01*
G01*
G37*
G36*
G01*
X116160000Y-64285000D02*
X116160000Y-62885000D01*
G75*
G02*
X116235000Y-62810000I75000J0D01*
G01*
X116385000Y-62810000D01*
G75*
G02*
X116460000Y-62885000I0J-75000D01*
G01*
X116460000Y-64285000D01*
G75*
G02*
X116385000Y-64360000I-75000J0D01*
G01*
X116235000Y-64360000D01*
G75*
G02*
X116160000Y-64285000I0J75000D01*
G01*
G37*
G36*
G01*
X117460000Y-65585000D02*
X117460000Y-65435000D01*
G75*
G02*
X117535000Y-65360000I75000J0D01*
G01*
X118935000Y-65360000D01*
G75*
G02*
X119010000Y-65435000I0J-75000D01*
G01*
X119010000Y-65585000D01*
G75*
G02*
X118935000Y-65660000I-75000J0D01*
G01*
X117535000Y-65660000D01*
G75*
G02*
X117460000Y-65585000I0J75000D01*
G01*
G37*
G36*
G01*
X117460000Y-66085000D02*
X117460000Y-65935000D01*
G75*
G02*
X117535000Y-65860000I75000J0D01*
G01*
X118935000Y-65860000D01*
G75*
G02*
X119010000Y-65935000I0J-75000D01*
G01*
X119010000Y-66085000D01*
G75*
G02*
X118935000Y-66160000I-75000J0D01*
G01*
X117535000Y-66160000D01*
G75*
G02*
X117460000Y-66085000I0J75000D01*
G01*
G37*
G36*
G01*
X117460000Y-66585000D02*
X117460000Y-66435000D01*
G75*
G02*
X117535000Y-66360000I75000J0D01*
G01*
X118935000Y-66360000D01*
G75*
G02*
X119010000Y-66435000I0J-75000D01*
G01*
X119010000Y-66585000D01*
G75*
G02*
X118935000Y-66660000I-75000J0D01*
G01*
X117535000Y-66660000D01*
G75*
G02*
X117460000Y-66585000I0J75000D01*
G01*
G37*
G36*
G01*
X117460000Y-67085000D02*
X117460000Y-66935000D01*
G75*
G02*
X117535000Y-66860000I75000J0D01*
G01*
X118935000Y-66860000D01*
G75*
G02*
X119010000Y-66935000I0J-75000D01*
G01*
X119010000Y-67085000D01*
G75*
G02*
X118935000Y-67160000I-75000J0D01*
G01*
X117535000Y-67160000D01*
G75*
G02*
X117460000Y-67085000I0J75000D01*
G01*
G37*
G36*
G01*
X117460000Y-67585000D02*
X117460000Y-67435000D01*
G75*
G02*
X117535000Y-67360000I75000J0D01*
G01*
X118935000Y-67360000D01*
G75*
G02*
X119010000Y-67435000I0J-75000D01*
G01*
X119010000Y-67585000D01*
G75*
G02*
X118935000Y-67660000I-75000J0D01*
G01*
X117535000Y-67660000D01*
G75*
G02*
X117460000Y-67585000I0J75000D01*
G01*
G37*
G36*
G01*
X117460000Y-68085000D02*
X117460000Y-67935000D01*
G75*
G02*
X117535000Y-67860000I75000J0D01*
G01*
X118935000Y-67860000D01*
G75*
G02*
X119010000Y-67935000I0J-75000D01*
G01*
X119010000Y-68085000D01*
G75*
G02*
X118935000Y-68160000I-75000J0D01*
G01*
X117535000Y-68160000D01*
G75*
G02*
X117460000Y-68085000I0J75000D01*
G01*
G37*
G36*
G01*
X117460000Y-68585000D02*
X117460000Y-68435000D01*
G75*
G02*
X117535000Y-68360000I75000J0D01*
G01*
X118935000Y-68360000D01*
G75*
G02*
X119010000Y-68435000I0J-75000D01*
G01*
X119010000Y-68585000D01*
G75*
G02*
X118935000Y-68660000I-75000J0D01*
G01*
X117535000Y-68660000D01*
G75*
G02*
X117460000Y-68585000I0J75000D01*
G01*
G37*
G36*
G01*
X117460000Y-69085000D02*
X117460000Y-68935000D01*
G75*
G02*
X117535000Y-68860000I75000J0D01*
G01*
X118935000Y-68860000D01*
G75*
G02*
X119010000Y-68935000I0J-75000D01*
G01*
X119010000Y-69085000D01*
G75*
G02*
X118935000Y-69160000I-75000J0D01*
G01*
X117535000Y-69160000D01*
G75*
G02*
X117460000Y-69085000I0J75000D01*
G01*
G37*
G36*
G01*
X117460000Y-69585000D02*
X117460000Y-69435000D01*
G75*
G02*
X117535000Y-69360000I75000J0D01*
G01*
X118935000Y-69360000D01*
G75*
G02*
X119010000Y-69435000I0J-75000D01*
G01*
X119010000Y-69585000D01*
G75*
G02*
X118935000Y-69660000I-75000J0D01*
G01*
X117535000Y-69660000D01*
G75*
G02*
X117460000Y-69585000I0J75000D01*
G01*
G37*
G36*
G01*
X117460000Y-70085000D02*
X117460000Y-69935000D01*
G75*
G02*
X117535000Y-69860000I75000J0D01*
G01*
X118935000Y-69860000D01*
G75*
G02*
X119010000Y-69935000I0J-75000D01*
G01*
X119010000Y-70085000D01*
G75*
G02*
X118935000Y-70160000I-75000J0D01*
G01*
X117535000Y-70160000D01*
G75*
G02*
X117460000Y-70085000I0J75000D01*
G01*
G37*
G36*
G01*
X117460000Y-70585000D02*
X117460000Y-70435000D01*
G75*
G02*
X117535000Y-70360000I75000J0D01*
G01*
X118935000Y-70360000D01*
G75*
G02*
X119010000Y-70435000I0J-75000D01*
G01*
X119010000Y-70585000D01*
G75*
G02*
X118935000Y-70660000I-75000J0D01*
G01*
X117535000Y-70660000D01*
G75*
G02*
X117460000Y-70585000I0J75000D01*
G01*
G37*
G36*
G01*
X117460000Y-71085000D02*
X117460000Y-70935000D01*
G75*
G02*
X117535000Y-70860000I75000J0D01*
G01*
X118935000Y-70860000D01*
G75*
G02*
X119010000Y-70935000I0J-75000D01*
G01*
X119010000Y-71085000D01*
G75*
G02*
X118935000Y-71160000I-75000J0D01*
G01*
X117535000Y-71160000D01*
G75*
G02*
X117460000Y-71085000I0J75000D01*
G01*
G37*
G36*
G01*
X117460000Y-71585000D02*
X117460000Y-71435000D01*
G75*
G02*
X117535000Y-71360000I75000J0D01*
G01*
X118935000Y-71360000D01*
G75*
G02*
X119010000Y-71435000I0J-75000D01*
G01*
X119010000Y-71585000D01*
G75*
G02*
X118935000Y-71660000I-75000J0D01*
G01*
X117535000Y-71660000D01*
G75*
G02*
X117460000Y-71585000I0J75000D01*
G01*
G37*
G36*
G01*
X117460000Y-72085000D02*
X117460000Y-71935000D01*
G75*
G02*
X117535000Y-71860000I75000J0D01*
G01*
X118935000Y-71860000D01*
G75*
G02*
X119010000Y-71935000I0J-75000D01*
G01*
X119010000Y-72085000D01*
G75*
G02*
X118935000Y-72160000I-75000J0D01*
G01*
X117535000Y-72160000D01*
G75*
G02*
X117460000Y-72085000I0J75000D01*
G01*
G37*
G36*
G01*
X117460000Y-72585000D02*
X117460000Y-72435000D01*
G75*
G02*
X117535000Y-72360000I75000J0D01*
G01*
X118935000Y-72360000D01*
G75*
G02*
X119010000Y-72435000I0J-75000D01*
G01*
X119010000Y-72585000D01*
G75*
G02*
X118935000Y-72660000I-75000J0D01*
G01*
X117535000Y-72660000D01*
G75*
G02*
X117460000Y-72585000I0J75000D01*
G01*
G37*
G36*
G01*
X117460000Y-73085000D02*
X117460000Y-72935000D01*
G75*
G02*
X117535000Y-72860000I75000J0D01*
G01*
X118935000Y-72860000D01*
G75*
G02*
X119010000Y-72935000I0J-75000D01*
G01*
X119010000Y-73085000D01*
G75*
G02*
X118935000Y-73160000I-75000J0D01*
G01*
X117535000Y-73160000D01*
G75*
G02*
X117460000Y-73085000I0J75000D01*
G01*
G37*
G36*
G01*
X116160000Y-75635000D02*
X116160000Y-74235000D01*
G75*
G02*
X116235000Y-74160000I75000J0D01*
G01*
X116385000Y-74160000D01*
G75*
G02*
X116460000Y-74235000I0J-75000D01*
G01*
X116460000Y-75635000D01*
G75*
G02*
X116385000Y-75710000I-75000J0D01*
G01*
X116235000Y-75710000D01*
G75*
G02*
X116160000Y-75635000I0J75000D01*
G01*
G37*
G36*
G01*
X115660000Y-75635000D02*
X115660000Y-74235000D01*
G75*
G02*
X115735000Y-74160000I75000J0D01*
G01*
X115885000Y-74160000D01*
G75*
G02*
X115960000Y-74235000I0J-75000D01*
G01*
X115960000Y-75635000D01*
G75*
G02*
X115885000Y-75710000I-75000J0D01*
G01*
X115735000Y-75710000D01*
G75*
G02*
X115660000Y-75635000I0J75000D01*
G01*
G37*
G36*
G01*
X115160000Y-75635000D02*
X115160000Y-74235000D01*
G75*
G02*
X115235000Y-74160000I75000J0D01*
G01*
X115385000Y-74160000D01*
G75*
G02*
X115460000Y-74235000I0J-75000D01*
G01*
X115460000Y-75635000D01*
G75*
G02*
X115385000Y-75710000I-75000J0D01*
G01*
X115235000Y-75710000D01*
G75*
G02*
X115160000Y-75635000I0J75000D01*
G01*
G37*
G36*
G01*
X114660000Y-75635000D02*
X114660000Y-74235000D01*
G75*
G02*
X114735000Y-74160000I75000J0D01*
G01*
X114885000Y-74160000D01*
G75*
G02*
X114960000Y-74235000I0J-75000D01*
G01*
X114960000Y-75635000D01*
G75*
G02*
X114885000Y-75710000I-75000J0D01*
G01*
X114735000Y-75710000D01*
G75*
G02*
X114660000Y-75635000I0J75000D01*
G01*
G37*
G36*
G01*
X114160000Y-75635000D02*
X114160000Y-74235000D01*
G75*
G02*
X114235000Y-74160000I75000J0D01*
G01*
X114385000Y-74160000D01*
G75*
G02*
X114460000Y-74235000I0J-75000D01*
G01*
X114460000Y-75635000D01*
G75*
G02*
X114385000Y-75710000I-75000J0D01*
G01*
X114235000Y-75710000D01*
G75*
G02*
X114160000Y-75635000I0J75000D01*
G01*
G37*
G36*
G01*
X113660000Y-75635000D02*
X113660000Y-74235000D01*
G75*
G02*
X113735000Y-74160000I75000J0D01*
G01*
X113885000Y-74160000D01*
G75*
G02*
X113960000Y-74235000I0J-75000D01*
G01*
X113960000Y-75635000D01*
G75*
G02*
X113885000Y-75710000I-75000J0D01*
G01*
X113735000Y-75710000D01*
G75*
G02*
X113660000Y-75635000I0J75000D01*
G01*
G37*
G36*
G01*
X113160000Y-75635000D02*
X113160000Y-74235000D01*
G75*
G02*
X113235000Y-74160000I75000J0D01*
G01*
X113385000Y-74160000D01*
G75*
G02*
X113460000Y-74235000I0J-75000D01*
G01*
X113460000Y-75635000D01*
G75*
G02*
X113385000Y-75710000I-75000J0D01*
G01*
X113235000Y-75710000D01*
G75*
G02*
X113160000Y-75635000I0J75000D01*
G01*
G37*
G36*
G01*
X112660000Y-75635000D02*
X112660000Y-74235000D01*
G75*
G02*
X112735000Y-74160000I75000J0D01*
G01*
X112885000Y-74160000D01*
G75*
G02*
X112960000Y-74235000I0J-75000D01*
G01*
X112960000Y-75635000D01*
G75*
G02*
X112885000Y-75710000I-75000J0D01*
G01*
X112735000Y-75710000D01*
G75*
G02*
X112660000Y-75635000I0J75000D01*
G01*
G37*
G36*
G01*
X112160000Y-75635000D02*
X112160000Y-74235000D01*
G75*
G02*
X112235000Y-74160000I75000J0D01*
G01*
X112385000Y-74160000D01*
G75*
G02*
X112460000Y-74235000I0J-75000D01*
G01*
X112460000Y-75635000D01*
G75*
G02*
X112385000Y-75710000I-75000J0D01*
G01*
X112235000Y-75710000D01*
G75*
G02*
X112160000Y-75635000I0J75000D01*
G01*
G37*
G36*
G01*
X111660000Y-75635000D02*
X111660000Y-74235000D01*
G75*
G02*
X111735000Y-74160000I75000J0D01*
G01*
X111885000Y-74160000D01*
G75*
G02*
X111960000Y-74235000I0J-75000D01*
G01*
X111960000Y-75635000D01*
G75*
G02*
X111885000Y-75710000I-75000J0D01*
G01*
X111735000Y-75710000D01*
G75*
G02*
X111660000Y-75635000I0J75000D01*
G01*
G37*
G36*
G01*
X111160000Y-75635000D02*
X111160000Y-74235000D01*
G75*
G02*
X111235000Y-74160000I75000J0D01*
G01*
X111385000Y-74160000D01*
G75*
G02*
X111460000Y-74235000I0J-75000D01*
G01*
X111460000Y-75635000D01*
G75*
G02*
X111385000Y-75710000I-75000J0D01*
G01*
X111235000Y-75710000D01*
G75*
G02*
X111160000Y-75635000I0J75000D01*
G01*
G37*
G36*
G01*
X110660000Y-75635000D02*
X110660000Y-74235000D01*
G75*
G02*
X110735000Y-74160000I75000J0D01*
G01*
X110885000Y-74160000D01*
G75*
G02*
X110960000Y-74235000I0J-75000D01*
G01*
X110960000Y-75635000D01*
G75*
G02*
X110885000Y-75710000I-75000J0D01*
G01*
X110735000Y-75710000D01*
G75*
G02*
X110660000Y-75635000I0J75000D01*
G01*
G37*
G36*
G01*
X110160000Y-75635000D02*
X110160000Y-74235000D01*
G75*
G02*
X110235000Y-74160000I75000J0D01*
G01*
X110385000Y-74160000D01*
G75*
G02*
X110460000Y-74235000I0J-75000D01*
G01*
X110460000Y-75635000D01*
G75*
G02*
X110385000Y-75710000I-75000J0D01*
G01*
X110235000Y-75710000D01*
G75*
G02*
X110160000Y-75635000I0J75000D01*
G01*
G37*
G36*
G01*
X109660000Y-75635000D02*
X109660000Y-74235000D01*
G75*
G02*
X109735000Y-74160000I75000J0D01*
G01*
X109885000Y-74160000D01*
G75*
G02*
X109960000Y-74235000I0J-75000D01*
G01*
X109960000Y-75635000D01*
G75*
G02*
X109885000Y-75710000I-75000J0D01*
G01*
X109735000Y-75710000D01*
G75*
G02*
X109660000Y-75635000I0J75000D01*
G01*
G37*
G36*
G01*
X109160000Y-75635000D02*
X109160000Y-74235000D01*
G75*
G02*
X109235000Y-74160000I75000J0D01*
G01*
X109385000Y-74160000D01*
G75*
G02*
X109460000Y-74235000I0J-75000D01*
G01*
X109460000Y-75635000D01*
G75*
G02*
X109385000Y-75710000I-75000J0D01*
G01*
X109235000Y-75710000D01*
G75*
G02*
X109160000Y-75635000I0J75000D01*
G01*
G37*
G36*
G01*
X108660000Y-75635000D02*
X108660000Y-74235000D01*
G75*
G02*
X108735000Y-74160000I75000J0D01*
G01*
X108885000Y-74160000D01*
G75*
G02*
X108960000Y-74235000I0J-75000D01*
G01*
X108960000Y-75635000D01*
G75*
G02*
X108885000Y-75710000I-75000J0D01*
G01*
X108735000Y-75710000D01*
G75*
G02*
X108660000Y-75635000I0J75000D01*
G01*
G37*
G36*
G01*
X106110000Y-73085000D02*
X106110000Y-72935000D01*
G75*
G02*
X106185000Y-72860000I75000J0D01*
G01*
X107585000Y-72860000D01*
G75*
G02*
X107660000Y-72935000I0J-75000D01*
G01*
X107660000Y-73085000D01*
G75*
G02*
X107585000Y-73160000I-75000J0D01*
G01*
X106185000Y-73160000D01*
G75*
G02*
X106110000Y-73085000I0J75000D01*
G01*
G37*
G36*
G01*
X106110000Y-72585000D02*
X106110000Y-72435000D01*
G75*
G02*
X106185000Y-72360000I75000J0D01*
G01*
X107585000Y-72360000D01*
G75*
G02*
X107660000Y-72435000I0J-75000D01*
G01*
X107660000Y-72585000D01*
G75*
G02*
X107585000Y-72660000I-75000J0D01*
G01*
X106185000Y-72660000D01*
G75*
G02*
X106110000Y-72585000I0J75000D01*
G01*
G37*
G36*
G01*
X106110000Y-72085000D02*
X106110000Y-71935000D01*
G75*
G02*
X106185000Y-71860000I75000J0D01*
G01*
X107585000Y-71860000D01*
G75*
G02*
X107660000Y-71935000I0J-75000D01*
G01*
X107660000Y-72085000D01*
G75*
G02*
X107585000Y-72160000I-75000J0D01*
G01*
X106185000Y-72160000D01*
G75*
G02*
X106110000Y-72085000I0J75000D01*
G01*
G37*
G36*
G01*
X106110000Y-71585000D02*
X106110000Y-71435000D01*
G75*
G02*
X106185000Y-71360000I75000J0D01*
G01*
X107585000Y-71360000D01*
G75*
G02*
X107660000Y-71435000I0J-75000D01*
G01*
X107660000Y-71585000D01*
G75*
G02*
X107585000Y-71660000I-75000J0D01*
G01*
X106185000Y-71660000D01*
G75*
G02*
X106110000Y-71585000I0J75000D01*
G01*
G37*
G36*
G01*
X106110000Y-71085000D02*
X106110000Y-70935000D01*
G75*
G02*
X106185000Y-70860000I75000J0D01*
G01*
X107585000Y-70860000D01*
G75*
G02*
X107660000Y-70935000I0J-75000D01*
G01*
X107660000Y-71085000D01*
G75*
G02*
X107585000Y-71160000I-75000J0D01*
G01*
X106185000Y-71160000D01*
G75*
G02*
X106110000Y-71085000I0J75000D01*
G01*
G37*
G36*
G01*
X106110000Y-70585000D02*
X106110000Y-70435000D01*
G75*
G02*
X106185000Y-70360000I75000J0D01*
G01*
X107585000Y-70360000D01*
G75*
G02*
X107660000Y-70435000I0J-75000D01*
G01*
X107660000Y-70585000D01*
G75*
G02*
X107585000Y-70660000I-75000J0D01*
G01*
X106185000Y-70660000D01*
G75*
G02*
X106110000Y-70585000I0J75000D01*
G01*
G37*
G36*
G01*
X106110000Y-70085000D02*
X106110000Y-69935000D01*
G75*
G02*
X106185000Y-69860000I75000J0D01*
G01*
X107585000Y-69860000D01*
G75*
G02*
X107660000Y-69935000I0J-75000D01*
G01*
X107660000Y-70085000D01*
G75*
G02*
X107585000Y-70160000I-75000J0D01*
G01*
X106185000Y-70160000D01*
G75*
G02*
X106110000Y-70085000I0J75000D01*
G01*
G37*
G36*
G01*
X106110000Y-69585000D02*
X106110000Y-69435000D01*
G75*
G02*
X106185000Y-69360000I75000J0D01*
G01*
X107585000Y-69360000D01*
G75*
G02*
X107660000Y-69435000I0J-75000D01*
G01*
X107660000Y-69585000D01*
G75*
G02*
X107585000Y-69660000I-75000J0D01*
G01*
X106185000Y-69660000D01*
G75*
G02*
X106110000Y-69585000I0J75000D01*
G01*
G37*
G36*
G01*
X106110000Y-69085000D02*
X106110000Y-68935000D01*
G75*
G02*
X106185000Y-68860000I75000J0D01*
G01*
X107585000Y-68860000D01*
G75*
G02*
X107660000Y-68935000I0J-75000D01*
G01*
X107660000Y-69085000D01*
G75*
G02*
X107585000Y-69160000I-75000J0D01*
G01*
X106185000Y-69160000D01*
G75*
G02*
X106110000Y-69085000I0J75000D01*
G01*
G37*
G36*
G01*
X106110000Y-68585000D02*
X106110000Y-68435000D01*
G75*
G02*
X106185000Y-68360000I75000J0D01*
G01*
X107585000Y-68360000D01*
G75*
G02*
X107660000Y-68435000I0J-75000D01*
G01*
X107660000Y-68585000D01*
G75*
G02*
X107585000Y-68660000I-75000J0D01*
G01*
X106185000Y-68660000D01*
G75*
G02*
X106110000Y-68585000I0J75000D01*
G01*
G37*
G36*
G01*
X106110000Y-68085000D02*
X106110000Y-67935000D01*
G75*
G02*
X106185000Y-67860000I75000J0D01*
G01*
X107585000Y-67860000D01*
G75*
G02*
X107660000Y-67935000I0J-75000D01*
G01*
X107660000Y-68085000D01*
G75*
G02*
X107585000Y-68160000I-75000J0D01*
G01*
X106185000Y-68160000D01*
G75*
G02*
X106110000Y-68085000I0J75000D01*
G01*
G37*
G36*
G01*
X106110000Y-67585000D02*
X106110000Y-67435000D01*
G75*
G02*
X106185000Y-67360000I75000J0D01*
G01*
X107585000Y-67360000D01*
G75*
G02*
X107660000Y-67435000I0J-75000D01*
G01*
X107660000Y-67585000D01*
G75*
G02*
X107585000Y-67660000I-75000J0D01*
G01*
X106185000Y-67660000D01*
G75*
G02*
X106110000Y-67585000I0J75000D01*
G01*
G37*
G36*
G01*
X106110000Y-67085000D02*
X106110000Y-66935000D01*
G75*
G02*
X106185000Y-66860000I75000J0D01*
G01*
X107585000Y-66860000D01*
G75*
G02*
X107660000Y-66935000I0J-75000D01*
G01*
X107660000Y-67085000D01*
G75*
G02*
X107585000Y-67160000I-75000J0D01*
G01*
X106185000Y-67160000D01*
G75*
G02*
X106110000Y-67085000I0J75000D01*
G01*
G37*
G36*
G01*
X106110000Y-66585000D02*
X106110000Y-66435000D01*
G75*
G02*
X106185000Y-66360000I75000J0D01*
G01*
X107585000Y-66360000D01*
G75*
G02*
X107660000Y-66435000I0J-75000D01*
G01*
X107660000Y-66585000D01*
G75*
G02*
X107585000Y-66660000I-75000J0D01*
G01*
X106185000Y-66660000D01*
G75*
G02*
X106110000Y-66585000I0J75000D01*
G01*
G37*
G36*
G01*
X106110000Y-66085000D02*
X106110000Y-65935000D01*
G75*
G02*
X106185000Y-65860000I75000J0D01*
G01*
X107585000Y-65860000D01*
G75*
G02*
X107660000Y-65935000I0J-75000D01*
G01*
X107660000Y-66085000D01*
G75*
G02*
X107585000Y-66160000I-75000J0D01*
G01*
X106185000Y-66160000D01*
G75*
G02*
X106110000Y-66085000I0J75000D01*
G01*
G37*
G36*
G01*
X106110000Y-65585000D02*
X106110000Y-65435000D01*
G75*
G02*
X106185000Y-65360000I75000J0D01*
G01*
X107585000Y-65360000D01*
G75*
G02*
X107660000Y-65435000I0J-75000D01*
G01*
X107660000Y-65585000D01*
G75*
G02*
X107585000Y-65660000I-75000J0D01*
G01*
X106185000Y-65660000D01*
G75*
G02*
X106110000Y-65585000I0J75000D01*
G01*
G37*
%TD*%
%TO.C,R20*%
G36*
G01*
X119800000Y-39249999D02*
X119800000Y-40150001D01*
G75*
G02*
X119550001Y-40400000I-249999J0D01*
G01*
X118849999Y-40400000D01*
G75*
G02*
X118600000Y-40150001I0J249999D01*
G01*
X118600000Y-39249999D01*
G75*
G02*
X118849999Y-39000000I249999J0D01*
G01*
X119550001Y-39000000D01*
G75*
G02*
X119800000Y-39249999I0J-249999D01*
G01*
G37*
G36*
G01*
X121800000Y-39249999D02*
X121800000Y-40150001D01*
G75*
G02*
X121550001Y-40400000I-249999J0D01*
G01*
X120849999Y-40400000D01*
G75*
G02*
X120600000Y-40150001I0J249999D01*
G01*
X120600000Y-39249999D01*
G75*
G02*
X120849999Y-39000000I249999J0D01*
G01*
X121550001Y-39000000D01*
G75*
G02*
X121800000Y-39249999I0J-249999D01*
G01*
G37*
%TD*%
%TO.C,R19*%
G36*
G01*
X147959999Y-33120000D02*
X148860001Y-33120000D01*
G75*
G02*
X149110000Y-33369999I0J-249999D01*
G01*
X149110000Y-34070001D01*
G75*
G02*
X148860001Y-34320000I-249999J0D01*
G01*
X147959999Y-34320000D01*
G75*
G02*
X147710000Y-34070001I0J249999D01*
G01*
X147710000Y-33369999D01*
G75*
G02*
X147959999Y-33120000I249999J0D01*
G01*
G37*
G36*
G01*
X147959999Y-31120000D02*
X148860001Y-31120000D01*
G75*
G02*
X149110000Y-31369999I0J-249999D01*
G01*
X149110000Y-32070001D01*
G75*
G02*
X148860001Y-32320000I-249999J0D01*
G01*
X147959999Y-32320000D01*
G75*
G02*
X147710000Y-32070001I0J249999D01*
G01*
X147710000Y-31369999D01*
G75*
G02*
X147959999Y-31120000I249999J0D01*
G01*
G37*
%TD*%
%TO.C,R18*%
G36*
G01*
X114800001Y-43650000D02*
X113899999Y-43650000D01*
G75*
G02*
X113650000Y-43400001I0J249999D01*
G01*
X113650000Y-42699999D01*
G75*
G02*
X113899999Y-42450000I249999J0D01*
G01*
X114800001Y-42450000D01*
G75*
G02*
X115050000Y-42699999I0J-249999D01*
G01*
X115050000Y-43400001D01*
G75*
G02*
X114800001Y-43650000I-249999J0D01*
G01*
G37*
G36*
G01*
X114800001Y-45650000D02*
X113899999Y-45650000D01*
G75*
G02*
X113650000Y-45400001I0J249999D01*
G01*
X113650000Y-44699999D01*
G75*
G02*
X113899999Y-44450000I249999J0D01*
G01*
X114800001Y-44450000D01*
G75*
G02*
X115050000Y-44699999I0J-249999D01*
G01*
X115050000Y-45400001D01*
G75*
G02*
X114800001Y-45650000I-249999J0D01*
G01*
G37*
%TD*%
%TO.C,R17*%
G36*
G01*
X119949999Y-44450000D02*
X120850001Y-44450000D01*
G75*
G02*
X121100000Y-44699999I0J-249999D01*
G01*
X121100000Y-45400001D01*
G75*
G02*
X120850001Y-45650000I-249999J0D01*
G01*
X119949999Y-45650000D01*
G75*
G02*
X119700000Y-45400001I0J249999D01*
G01*
X119700000Y-44699999D01*
G75*
G02*
X119949999Y-44450000I249999J0D01*
G01*
G37*
G36*
G01*
X119949999Y-42450000D02*
X120850001Y-42450000D01*
G75*
G02*
X121100000Y-42699999I0J-249999D01*
G01*
X121100000Y-43400001D01*
G75*
G02*
X120850001Y-43650000I-249999J0D01*
G01*
X119949999Y-43650000D01*
G75*
G02*
X119700000Y-43400001I0J249999D01*
G01*
X119700000Y-42699999D01*
G75*
G02*
X119949999Y-42450000I249999J0D01*
G01*
G37*
%TD*%
%TO.C,R16*%
G36*
G01*
X118250001Y-43650000D02*
X117349999Y-43650000D01*
G75*
G02*
X117100000Y-43400001I0J249999D01*
G01*
X117100000Y-42699999D01*
G75*
G02*
X117349999Y-42450000I249999J0D01*
G01*
X118250001Y-42450000D01*
G75*
G02*
X118500000Y-42699999I0J-249999D01*
G01*
X118500000Y-43400001D01*
G75*
G02*
X118250001Y-43650000I-249999J0D01*
G01*
G37*
G36*
G01*
X118250001Y-45650000D02*
X117349999Y-45650000D01*
G75*
G02*
X117100000Y-45400001I0J249999D01*
G01*
X117100000Y-44699999D01*
G75*
G02*
X117349999Y-44450000I249999J0D01*
G01*
X118250001Y-44450000D01*
G75*
G02*
X118500000Y-44699999I0J-249999D01*
G01*
X118500000Y-45400001D01*
G75*
G02*
X118250001Y-45650000I-249999J0D01*
G01*
G37*
%TD*%
%TO.C,R15*%
G36*
G01*
X150850001Y-25370000D02*
X149949999Y-25370000D01*
G75*
G02*
X149700000Y-25120001I0J249999D01*
G01*
X149700000Y-24419999D01*
G75*
G02*
X149949999Y-24170000I249999J0D01*
G01*
X150850001Y-24170000D01*
G75*
G02*
X151100000Y-24419999I0J-249999D01*
G01*
X151100000Y-25120001D01*
G75*
G02*
X150850001Y-25370000I-249999J0D01*
G01*
G37*
G36*
G01*
X150850001Y-27370000D02*
X149949999Y-27370000D01*
G75*
G02*
X149700000Y-27120001I0J249999D01*
G01*
X149700000Y-26419999D01*
G75*
G02*
X149949999Y-26170000I249999J0D01*
G01*
X150850001Y-26170000D01*
G75*
G02*
X151100000Y-26419999I0J-249999D01*
G01*
X151100000Y-27120001D01*
G75*
G02*
X150850001Y-27370000I-249999J0D01*
G01*
G37*
%TD*%
%TO.C,R14*%
G36*
G01*
X125949999Y-45000000D02*
X126850001Y-45000000D01*
G75*
G02*
X127100000Y-45249999I0J-249999D01*
G01*
X127100000Y-45950001D01*
G75*
G02*
X126850001Y-46200000I-249999J0D01*
G01*
X125949999Y-46200000D01*
G75*
G02*
X125700000Y-45950001I0J249999D01*
G01*
X125700000Y-45249999D01*
G75*
G02*
X125949999Y-45000000I249999J0D01*
G01*
G37*
G36*
G01*
X125949999Y-43000000D02*
X126850001Y-43000000D01*
G75*
G02*
X127100000Y-43249999I0J-249999D01*
G01*
X127100000Y-43950001D01*
G75*
G02*
X126850001Y-44200000I-249999J0D01*
G01*
X125949999Y-44200000D01*
G75*
G02*
X125700000Y-43950001I0J249999D01*
G01*
X125700000Y-43249999D01*
G75*
G02*
X125949999Y-43000000I249999J0D01*
G01*
G37*
%TD*%
%TO.C,R13*%
G36*
G01*
X130850001Y-44200000D02*
X129949999Y-44200000D01*
G75*
G02*
X129700000Y-43950001I0J249999D01*
G01*
X129700000Y-43249999D01*
G75*
G02*
X129949999Y-43000000I249999J0D01*
G01*
X130850001Y-43000000D01*
G75*
G02*
X131100000Y-43249999I0J-249999D01*
G01*
X131100000Y-43950001D01*
G75*
G02*
X130850001Y-44200000I-249999J0D01*
G01*
G37*
G36*
G01*
X130850001Y-46200000D02*
X129949999Y-46200000D01*
G75*
G02*
X129700000Y-45950001I0J249999D01*
G01*
X129700000Y-45249999D01*
G75*
G02*
X129949999Y-45000000I249999J0D01*
G01*
X130850001Y-45000000D01*
G75*
G02*
X131100000Y-45249999I0J-249999D01*
G01*
X131100000Y-45950001D01*
G75*
G02*
X130850001Y-46200000I-249999J0D01*
G01*
G37*
%TD*%
%TO.C,R12*%
G36*
G01*
X135749999Y-37600000D02*
X136650001Y-37600000D01*
G75*
G02*
X136900000Y-37849999I0J-249999D01*
G01*
X136900000Y-38550001D01*
G75*
G02*
X136650001Y-38800000I-249999J0D01*
G01*
X135749999Y-38800000D01*
G75*
G02*
X135500000Y-38550001I0J249999D01*
G01*
X135500000Y-37849999D01*
G75*
G02*
X135749999Y-37600000I249999J0D01*
G01*
G37*
G36*
G01*
X135749999Y-35600000D02*
X136650001Y-35600000D01*
G75*
G02*
X136900000Y-35849999I0J-249999D01*
G01*
X136900000Y-36550001D01*
G75*
G02*
X136650001Y-36800000I-249999J0D01*
G01*
X135749999Y-36800000D01*
G75*
G02*
X135500000Y-36550001I0J249999D01*
G01*
X135500000Y-35849999D01*
G75*
G02*
X135749999Y-35600000I249999J0D01*
G01*
G37*
%TD*%
%TO.C,R11*%
G36*
G01*
X143550000Y-76750001D02*
X143550000Y-75849999D01*
G75*
G02*
X143799999Y-75600000I249999J0D01*
G01*
X144500001Y-75600000D01*
G75*
G02*
X144750000Y-75849999I0J-249999D01*
G01*
X144750000Y-76750001D01*
G75*
G02*
X144500001Y-77000000I-249999J0D01*
G01*
X143799999Y-77000000D01*
G75*
G02*
X143550000Y-76750001I0J249999D01*
G01*
G37*
G36*
G01*
X141550000Y-76750001D02*
X141550000Y-75849999D01*
G75*
G02*
X141799999Y-75600000I249999J0D01*
G01*
X142500001Y-75600000D01*
G75*
G02*
X142750000Y-75849999I0J-249999D01*
G01*
X142750000Y-76750001D01*
G75*
G02*
X142500001Y-77000000I-249999J0D01*
G01*
X141799999Y-77000000D01*
G75*
G02*
X141550000Y-76750001I0J249999D01*
G01*
G37*
%TD*%
%TO.C,R10*%
G36*
G01*
X138950000Y-75849999D02*
X138950000Y-76750001D01*
G75*
G02*
X138700001Y-77000000I-249999J0D01*
G01*
X137999999Y-77000000D01*
G75*
G02*
X137750000Y-76750001I0J249999D01*
G01*
X137750000Y-75849999D01*
G75*
G02*
X137999999Y-75600000I249999J0D01*
G01*
X138700001Y-75600000D01*
G75*
G02*
X138950000Y-75849999I0J-249999D01*
G01*
G37*
G36*
G01*
X140950000Y-75849999D02*
X140950000Y-76750001D01*
G75*
G02*
X140700001Y-77000000I-249999J0D01*
G01*
X139999999Y-77000000D01*
G75*
G02*
X139750000Y-76750001I0J249999D01*
G01*
X139750000Y-75849999D01*
G75*
G02*
X139999999Y-75600000I249999J0D01*
G01*
X140700001Y-75600000D01*
G75*
G02*
X140950000Y-75849999I0J-249999D01*
G01*
G37*
%TD*%
%TO.C,R9*%
G36*
G01*
X148000000Y-62849999D02*
X148000000Y-63750001D01*
G75*
G02*
X147750001Y-64000000I-249999J0D01*
G01*
X147049999Y-64000000D01*
G75*
G02*
X146800000Y-63750001I0J249999D01*
G01*
X146800000Y-62849999D01*
G75*
G02*
X147049999Y-62600000I249999J0D01*
G01*
X147750001Y-62600000D01*
G75*
G02*
X148000000Y-62849999I0J-249999D01*
G01*
G37*
G36*
G01*
X150000000Y-62849999D02*
X150000000Y-63750001D01*
G75*
G02*
X149750001Y-64000000I-249999J0D01*
G01*
X149049999Y-64000000D01*
G75*
G02*
X148800000Y-63750001I0J249999D01*
G01*
X148800000Y-62849999D01*
G75*
G02*
X149049999Y-62600000I249999J0D01*
G01*
X149750001Y-62600000D01*
G75*
G02*
X150000000Y-62849999I0J-249999D01*
G01*
G37*
%TD*%
%TO.C,R8*%
G36*
G01*
X148000000Y-75149999D02*
X148000000Y-76050001D01*
G75*
G02*
X147750001Y-76300000I-249999J0D01*
G01*
X147049999Y-76300000D01*
G75*
G02*
X146800000Y-76050001I0J249999D01*
G01*
X146800000Y-75149999D01*
G75*
G02*
X147049999Y-74900000I249999J0D01*
G01*
X147750001Y-74900000D01*
G75*
G02*
X148000000Y-75149999I0J-249999D01*
G01*
G37*
G36*
G01*
X150000000Y-75149999D02*
X150000000Y-76050001D01*
G75*
G02*
X149750001Y-76300000I-249999J0D01*
G01*
X149049999Y-76300000D01*
G75*
G02*
X148800000Y-76050001I0J249999D01*
G01*
X148800000Y-75149999D01*
G75*
G02*
X149049999Y-74900000I249999J0D01*
G01*
X149750001Y-74900000D01*
G75*
G02*
X150000000Y-75149999I0J-249999D01*
G01*
G37*
%TD*%
%TO.C,R7*%
G36*
G01*
X139400000Y-61849999D02*
X139400000Y-62750001D01*
G75*
G02*
X139150001Y-63000000I-249999J0D01*
G01*
X138449999Y-63000000D01*
G75*
G02*
X138200000Y-62750001I0J249999D01*
G01*
X138200000Y-61849999D01*
G75*
G02*
X138449999Y-61600000I249999J0D01*
G01*
X139150001Y-61600000D01*
G75*
G02*
X139400000Y-61849999I0J-249999D01*
G01*
G37*
G36*
G01*
X141400000Y-61849999D02*
X141400000Y-62750001D01*
G75*
G02*
X141150001Y-63000000I-249999J0D01*
G01*
X140449999Y-63000000D01*
G75*
G02*
X140200000Y-62750001I0J249999D01*
G01*
X140200000Y-61849999D01*
G75*
G02*
X140449999Y-61600000I249999J0D01*
G01*
X141150001Y-61600000D01*
G75*
G02*
X141400000Y-61849999I0J-249999D01*
G01*
G37*
%TD*%
%TO.C,R6*%
G36*
G01*
X144500000Y-62750001D02*
X144500000Y-61849999D01*
G75*
G02*
X144749999Y-61600000I249999J0D01*
G01*
X145450001Y-61600000D01*
G75*
G02*
X145700000Y-61849999I0J-249999D01*
G01*
X145700000Y-62750001D01*
G75*
G02*
X145450001Y-63000000I-249999J0D01*
G01*
X144749999Y-63000000D01*
G75*
G02*
X144500000Y-62750001I0J249999D01*
G01*
G37*
G36*
G01*
X142500000Y-62750001D02*
X142500000Y-61849999D01*
G75*
G02*
X142749999Y-61600000I249999J0D01*
G01*
X143450001Y-61600000D01*
G75*
G02*
X143700000Y-61849999I0J-249999D01*
G01*
X143700000Y-62750001D01*
G75*
G02*
X143450001Y-63000000I-249999J0D01*
G01*
X142749999Y-63000000D01*
G75*
G02*
X142500000Y-62750001I0J249999D01*
G01*
G37*
%TD*%
%TO.C,R5*%
G36*
G01*
X136350001Y-67250000D02*
X135449999Y-67250000D01*
G75*
G02*
X135200000Y-67000001I0J249999D01*
G01*
X135200000Y-66299999D01*
G75*
G02*
X135449999Y-66050000I249999J0D01*
G01*
X136350001Y-66050000D01*
G75*
G02*
X136600000Y-66299999I0J-249999D01*
G01*
X136600000Y-67000001D01*
G75*
G02*
X136350001Y-67250000I-249999J0D01*
G01*
G37*
G36*
G01*
X136350001Y-69250000D02*
X135449999Y-69250000D01*
G75*
G02*
X135200000Y-69000001I0J249999D01*
G01*
X135200000Y-68299999D01*
G75*
G02*
X135449999Y-68050000I249999J0D01*
G01*
X136350001Y-68050000D01*
G75*
G02*
X136600000Y-68299999I0J-249999D01*
G01*
X136600000Y-69000001D01*
G75*
G02*
X136350001Y-69250000I-249999J0D01*
G01*
G37*
%TD*%
%TO.C,R3*%
G36*
G01*
X112250000Y-60900001D02*
X112250000Y-59999999D01*
G75*
G02*
X112499999Y-59750000I249999J0D01*
G01*
X113200001Y-59750000D01*
G75*
G02*
X113450000Y-59999999I0J-249999D01*
G01*
X113450000Y-60900001D01*
G75*
G02*
X113200001Y-61150000I-249999J0D01*
G01*
X112499999Y-61150000D01*
G75*
G02*
X112250000Y-60900001I0J249999D01*
G01*
G37*
G36*
G01*
X110250000Y-60900001D02*
X110250000Y-59999999D01*
G75*
G02*
X110499999Y-59750000I249999J0D01*
G01*
X111200001Y-59750000D01*
G75*
G02*
X111450000Y-59999999I0J-249999D01*
G01*
X111450000Y-60900001D01*
G75*
G02*
X111200001Y-61150000I-249999J0D01*
G01*
X110499999Y-61150000D01*
G75*
G02*
X110250000Y-60900001I0J249999D01*
G01*
G37*
%TD*%
%TO.C,R2*%
G36*
G01*
X99320000Y-57690001D02*
X99320000Y-56789999D01*
G75*
G02*
X99569999Y-56540000I249999J0D01*
G01*
X100270001Y-56540000D01*
G75*
G02*
X100520000Y-56789999I0J-249999D01*
G01*
X100520000Y-57690001D01*
G75*
G02*
X100270001Y-57940000I-249999J0D01*
G01*
X99569999Y-57940000D01*
G75*
G02*
X99320000Y-57690001I0J249999D01*
G01*
G37*
G36*
G01*
X97320000Y-57690001D02*
X97320000Y-56789999D01*
G75*
G02*
X97569999Y-56540000I249999J0D01*
G01*
X98270001Y-56540000D01*
G75*
G02*
X98520000Y-56789999I0J-249999D01*
G01*
X98520000Y-57690001D01*
G75*
G02*
X98270001Y-57940000I-249999J0D01*
G01*
X97569999Y-57940000D01*
G75*
G02*
X97320000Y-57690001I0J249999D01*
G01*
G37*
%TD*%
%TO.C,R1*%
G36*
G01*
X99320000Y-53970001D02*
X99320000Y-53069999D01*
G75*
G02*
X99569999Y-52820000I249999J0D01*
G01*
X100270001Y-52820000D01*
G75*
G02*
X100520000Y-53069999I0J-249999D01*
G01*
X100520000Y-53970001D01*
G75*
G02*
X100270001Y-54220000I-249999J0D01*
G01*
X99569999Y-54220000D01*
G75*
G02*
X99320000Y-53970001I0J249999D01*
G01*
G37*
G36*
G01*
X97320000Y-53970001D02*
X97320000Y-53069999D01*
G75*
G02*
X97569999Y-52820000I249999J0D01*
G01*
X98270001Y-52820000D01*
G75*
G02*
X98520000Y-53069999I0J-249999D01*
G01*
X98520000Y-53970001D01*
G75*
G02*
X98270001Y-54220000I-249999J0D01*
G01*
X97569999Y-54220000D01*
G75*
G02*
X97320000Y-53970001I0J249999D01*
G01*
G37*
%TD*%
D10*
%TO.C,JP1(LDO/TEST3V3)*%
X121820000Y-49100000D03*
X124360000Y-49100000D03*
D11*
X126900000Y-49100000D03*
%TD*%
D10*
%TO.C,J7 (TOF)*%
X105480000Y-82900000D03*
X108020000Y-82900000D03*
X110560000Y-82900000D03*
D11*
X113100000Y-82900000D03*
%TD*%
D10*
%TO.C,J4*%
X106500000Y-54100000D03*
X109040000Y-54100000D03*
X111580000Y-54100000D03*
X114120000Y-54100000D03*
X116660000Y-54100000D03*
D11*
X119200000Y-54100000D03*
%TD*%
D10*
%TO.C,J3*%
X131180000Y-54100000D03*
X133720000Y-54100000D03*
X136260000Y-54100000D03*
X138800000Y-54100000D03*
X141340000Y-54100000D03*
X143880000Y-54100000D03*
X146420000Y-54100000D03*
X148960000Y-54100000D03*
D11*
X151500000Y-54100000D03*
%TD*%
D25*
%TO.C,J2 (TEST3V3-GND)*%
X116900000Y-23500000D03*
G36*
G01*
X120250000Y-22750000D02*
X120250000Y-24250000D01*
G75*
G02*
X120000000Y-24500000I-250000J0D01*
G01*
X118800000Y-24500000D01*
G75*
G02*
X118550000Y-24250000I0J250000D01*
G01*
X118550000Y-22750000D01*
G75*
G02*
X118800000Y-22500000I250000J0D01*
G01*
X120000000Y-22500000D01*
G75*
G02*
X120250000Y-22750000I0J-250000D01*
G01*
G37*
%TD*%
%TO.C,J1*%
X105200000Y-23800000D03*
G36*
G01*
X108550000Y-23050000D02*
X108550000Y-24550000D01*
G75*
G02*
X108300000Y-24800000I-250000J0D01*
G01*
X107100000Y-24800000D01*
G75*
G02*
X106850000Y-24550000I0J250000D01*
G01*
X106850000Y-23050000D01*
G75*
G02*
X107100000Y-22800000I250000J0D01*
G01*
X108300000Y-22800000D01*
G75*
G02*
X108550000Y-23050000I0J-250000D01*
G01*
G37*
%TD*%
%TO.C,D3*%
G36*
G01*
X116050000Y-40250001D02*
X116050000Y-39349999D01*
G75*
G02*
X116299999Y-39100000I249999J0D01*
G01*
X116950001Y-39100000D01*
G75*
G02*
X117200000Y-39349999I0J-249999D01*
G01*
X117200000Y-40250001D01*
G75*
G02*
X116950001Y-40500000I-249999J0D01*
G01*
X116299999Y-40500000D01*
G75*
G02*
X116050000Y-40250001I0J249999D01*
G01*
G37*
G36*
G01*
X114000000Y-40250001D02*
X114000000Y-39349999D01*
G75*
G02*
X114249999Y-39100000I249999J0D01*
G01*
X114900001Y-39100000D01*
G75*
G02*
X115150000Y-39349999I0J-249999D01*
G01*
X115150000Y-40250001D01*
G75*
G02*
X114900001Y-40500000I-249999J0D01*
G01*
X114249999Y-40500000D01*
G75*
G02*
X114000000Y-40250001I0J249999D01*
G01*
G37*
%TD*%
%TO.C,D2*%
G36*
G01*
X94020000Y-57690001D02*
X94020000Y-56789999D01*
G75*
G02*
X94269999Y-56540000I249999J0D01*
G01*
X94920001Y-56540000D01*
G75*
G02*
X95170000Y-56789999I0J-249999D01*
G01*
X95170000Y-57690001D01*
G75*
G02*
X94920001Y-57940000I-249999J0D01*
G01*
X94269999Y-57940000D01*
G75*
G02*
X94020000Y-57690001I0J249999D01*
G01*
G37*
G36*
G01*
X91970000Y-57690001D02*
X91970000Y-56789999D01*
G75*
G02*
X92219999Y-56540000I249999J0D01*
G01*
X92870001Y-56540000D01*
G75*
G02*
X93120000Y-56789999I0J-249999D01*
G01*
X93120000Y-57690001D01*
G75*
G02*
X92870001Y-57940000I-249999J0D01*
G01*
X92219999Y-57940000D01*
G75*
G02*
X91970000Y-57690001I0J249999D01*
G01*
G37*
%TD*%
%TO.C,D1*%
G36*
G01*
X94020000Y-53970001D02*
X94020000Y-53069999D01*
G75*
G02*
X94269999Y-52820000I249999J0D01*
G01*
X94920001Y-52820000D01*
G75*
G02*
X95170000Y-53069999I0J-249999D01*
G01*
X95170000Y-53970001D01*
G75*
G02*
X94920001Y-54220000I-249999J0D01*
G01*
X94269999Y-54220000D01*
G75*
G02*
X94020000Y-53970001I0J249999D01*
G01*
G37*
G36*
G01*
X91970000Y-53970001D02*
X91970000Y-53069999D01*
G75*
G02*
X92219999Y-52820000I249999J0D01*
G01*
X92870001Y-52820000D01*
G75*
G02*
X93120000Y-53069999I0J-249999D01*
G01*
X93120000Y-53970001D01*
G75*
G02*
X92870001Y-54220000I-249999J0D01*
G01*
X92219999Y-54220000D01*
G75*
G02*
X91970000Y-53970001I0J249999D01*
G01*
G37*
%TD*%
%TO.C,C35*%
G36*
G01*
X146025000Y-26250000D02*
X146975000Y-26250000D01*
G75*
G02*
X147225000Y-26500000I0J-250000D01*
G01*
X147225000Y-27175000D01*
G75*
G02*
X146975000Y-27425000I-250000J0D01*
G01*
X146025000Y-27425000D01*
G75*
G02*
X145775000Y-27175000I0J250000D01*
G01*
X145775000Y-26500000D01*
G75*
G02*
X146025000Y-26250000I250000J0D01*
G01*
G37*
G36*
G01*
X146025000Y-24175000D02*
X146975000Y-24175000D01*
G75*
G02*
X147225000Y-24425000I0J-250000D01*
G01*
X147225000Y-25100000D01*
G75*
G02*
X146975000Y-25350000I-250000J0D01*
G01*
X146025000Y-25350000D01*
G75*
G02*
X145775000Y-25100000I0J250000D01*
G01*
X145775000Y-24425000D01*
G75*
G02*
X146025000Y-24175000I250000J0D01*
G01*
G37*
%TD*%
%TO.C,C34*%
G36*
G01*
X141975000Y-26250000D02*
X142925000Y-26250000D01*
G75*
G02*
X143175000Y-26500000I0J-250000D01*
G01*
X143175000Y-27175000D01*
G75*
G02*
X142925000Y-27425000I-250000J0D01*
G01*
X141975000Y-27425000D01*
G75*
G02*
X141725000Y-27175000I0J250000D01*
G01*
X141725000Y-26500000D01*
G75*
G02*
X141975000Y-26250000I250000J0D01*
G01*
G37*
G36*
G01*
X141975000Y-24175000D02*
X142925000Y-24175000D01*
G75*
G02*
X143175000Y-24425000I0J-250000D01*
G01*
X143175000Y-25100000D01*
G75*
G02*
X142925000Y-25350000I-250000J0D01*
G01*
X141975000Y-25350000D01*
G75*
G02*
X141725000Y-25100000I0J250000D01*
G01*
X141725000Y-24425000D01*
G75*
G02*
X141975000Y-24175000I250000J0D01*
G01*
G37*
%TD*%
%TO.C,C33*%
G36*
G01*
X137675000Y-26250000D02*
X138625000Y-26250000D01*
G75*
G02*
X138875000Y-26500000I0J-250000D01*
G01*
X138875000Y-27175000D01*
G75*
G02*
X138625000Y-27425000I-250000J0D01*
G01*
X137675000Y-27425000D01*
G75*
G02*
X137425000Y-27175000I0J250000D01*
G01*
X137425000Y-26500000D01*
G75*
G02*
X137675000Y-26250000I250000J0D01*
G01*
G37*
G36*
G01*
X137675000Y-24175000D02*
X138625000Y-24175000D01*
G75*
G02*
X138875000Y-24425000I0J-250000D01*
G01*
X138875000Y-25100000D01*
G75*
G02*
X138625000Y-25350000I-250000J0D01*
G01*
X137675000Y-25350000D01*
G75*
G02*
X137425000Y-25100000I0J250000D01*
G01*
X137425000Y-24425000D01*
G75*
G02*
X137675000Y-24175000I250000J0D01*
G01*
G37*
%TD*%
%TO.C,C32*%
G36*
G01*
X144851666Y-32300000D02*
X143901666Y-32300000D01*
G75*
G02*
X143651666Y-32050000I0J250000D01*
G01*
X143651666Y-31375000D01*
G75*
G02*
X143901666Y-31125000I250000J0D01*
G01*
X144851666Y-31125000D01*
G75*
G02*
X145101666Y-31375000I0J-250000D01*
G01*
X145101666Y-32050000D01*
G75*
G02*
X144851666Y-32300000I-250000J0D01*
G01*
G37*
G36*
G01*
X144851666Y-34375000D02*
X143901666Y-34375000D01*
G75*
G02*
X143651666Y-34125000I0J250000D01*
G01*
X143651666Y-33450000D01*
G75*
G02*
X143901666Y-33200000I250000J0D01*
G01*
X144851666Y-33200000D01*
G75*
G02*
X145101666Y-33450000I0J-250000D01*
G01*
X145101666Y-34125000D01*
G75*
G02*
X144851666Y-34375000I-250000J0D01*
G01*
G37*
%TD*%
%TO.C,C31*%
G36*
G01*
X140788333Y-32290000D02*
X139838333Y-32290000D01*
G75*
G02*
X139588333Y-32040000I0J250000D01*
G01*
X139588333Y-31365000D01*
G75*
G02*
X139838333Y-31115000I250000J0D01*
G01*
X140788333Y-31115000D01*
G75*
G02*
X141038333Y-31365000I0J-250000D01*
G01*
X141038333Y-32040000D01*
G75*
G02*
X140788333Y-32290000I-250000J0D01*
G01*
G37*
G36*
G01*
X140788333Y-34365000D02*
X139838333Y-34365000D01*
G75*
G02*
X139588333Y-34115000I0J250000D01*
G01*
X139588333Y-33440000D01*
G75*
G02*
X139838333Y-33190000I250000J0D01*
G01*
X140788333Y-33190000D01*
G75*
G02*
X141038333Y-33440000I0J-250000D01*
G01*
X141038333Y-34115000D01*
G75*
G02*
X140788333Y-34365000I-250000J0D01*
G01*
G37*
%TD*%
%TO.C,C30*%
G36*
G01*
X136725000Y-32280000D02*
X135775000Y-32280000D01*
G75*
G02*
X135525000Y-32030000I0J250000D01*
G01*
X135525000Y-31355000D01*
G75*
G02*
X135775000Y-31105000I250000J0D01*
G01*
X136725000Y-31105000D01*
G75*
G02*
X136975000Y-31355000I0J-250000D01*
G01*
X136975000Y-32030000D01*
G75*
G02*
X136725000Y-32280000I-250000J0D01*
G01*
G37*
G36*
G01*
X136725000Y-34355000D02*
X135775000Y-34355000D01*
G75*
G02*
X135525000Y-34105000I0J250000D01*
G01*
X135525000Y-33430000D01*
G75*
G02*
X135775000Y-33180000I250000J0D01*
G01*
X136725000Y-33180000D01*
G75*
G02*
X136975000Y-33430000I0J-250000D01*
G01*
X136975000Y-34105000D01*
G75*
G02*
X136725000Y-34355000I-250000J0D01*
G01*
G37*
%TD*%
%TO.C,C29*%
G36*
G01*
X132925000Y-45050000D02*
X133875000Y-45050000D01*
G75*
G02*
X134125000Y-45300000I0J-250000D01*
G01*
X134125000Y-45975000D01*
G75*
G02*
X133875000Y-46225000I-250000J0D01*
G01*
X132925000Y-46225000D01*
G75*
G02*
X132675000Y-45975000I0J250000D01*
G01*
X132675000Y-45300000D01*
G75*
G02*
X132925000Y-45050000I250000J0D01*
G01*
G37*
G36*
G01*
X132925000Y-42975000D02*
X133875000Y-42975000D01*
G75*
G02*
X134125000Y-43225000I0J-250000D01*
G01*
X134125000Y-43900000D01*
G75*
G02*
X133875000Y-44150000I-250000J0D01*
G01*
X132925000Y-44150000D01*
G75*
G02*
X132675000Y-43900000I0J250000D01*
G01*
X132675000Y-43225000D01*
G75*
G02*
X132925000Y-42975000I250000J0D01*
G01*
G37*
%TD*%
%TO.C,C28*%
G36*
G01*
X143620000Y-45125000D02*
X143620000Y-44175000D01*
G75*
G02*
X143870000Y-43925000I250000J0D01*
G01*
X144545000Y-43925000D01*
G75*
G02*
X144795000Y-44175000I0J-250000D01*
G01*
X144795000Y-45125000D01*
G75*
G02*
X144545000Y-45375000I-250000J0D01*
G01*
X143870000Y-45375000D01*
G75*
G02*
X143620000Y-45125000I0J250000D01*
G01*
G37*
G36*
G01*
X141545000Y-45125000D02*
X141545000Y-44175000D01*
G75*
G02*
X141795000Y-43925000I250000J0D01*
G01*
X142470000Y-43925000D01*
G75*
G02*
X142720000Y-44175000I0J-250000D01*
G01*
X142720000Y-45125000D01*
G75*
G02*
X142470000Y-45375000I-250000J0D01*
G01*
X141795000Y-45375000D01*
G75*
G02*
X141545000Y-45125000I0J250000D01*
G01*
G37*
%TD*%
%TO.C,C27*%
G36*
G01*
X143620000Y-41647000D02*
X143620000Y-40697000D01*
G75*
G02*
X143870000Y-40447000I250000J0D01*
G01*
X144545000Y-40447000D01*
G75*
G02*
X144795000Y-40697000I0J-250000D01*
G01*
X144795000Y-41647000D01*
G75*
G02*
X144545000Y-41897000I-250000J0D01*
G01*
X143870000Y-41897000D01*
G75*
G02*
X143620000Y-41647000I0J250000D01*
G01*
G37*
G36*
G01*
X141545000Y-41647000D02*
X141545000Y-40697000D01*
G75*
G02*
X141795000Y-40447000I250000J0D01*
G01*
X142470000Y-40447000D01*
G75*
G02*
X142720000Y-40697000I0J-250000D01*
G01*
X142720000Y-41647000D01*
G75*
G02*
X142470000Y-41897000I-250000J0D01*
G01*
X141795000Y-41897000D01*
G75*
G02*
X141545000Y-41647000I0J250000D01*
G01*
G37*
%TD*%
%TO.C,C26*%
G36*
G01*
X143620000Y-38169000D02*
X143620000Y-37219000D01*
G75*
G02*
X143870000Y-36969000I250000J0D01*
G01*
X144545000Y-36969000D01*
G75*
G02*
X144795000Y-37219000I0J-250000D01*
G01*
X144795000Y-38169000D01*
G75*
G02*
X144545000Y-38419000I-250000J0D01*
G01*
X143870000Y-38419000D01*
G75*
G02*
X143620000Y-38169000I0J250000D01*
G01*
G37*
G36*
G01*
X141545000Y-38169000D02*
X141545000Y-37219000D01*
G75*
G02*
X141795000Y-36969000I250000J0D01*
G01*
X142470000Y-36969000D01*
G75*
G02*
X142720000Y-37219000I0J-250000D01*
G01*
X142720000Y-38169000D01*
G75*
G02*
X142470000Y-38419000I-250000J0D01*
G01*
X141795000Y-38419000D01*
G75*
G02*
X141545000Y-38169000I0J250000D01*
G01*
G37*
%TD*%
%TO.C,C25*%
G36*
G01*
X120180000Y-28259000D02*
X120180000Y-29209000D01*
G75*
G02*
X119930000Y-29459000I-250000J0D01*
G01*
X119255000Y-29459000D01*
G75*
G02*
X119005000Y-29209000I0J250000D01*
G01*
X119005000Y-28259000D01*
G75*
G02*
X119255000Y-28009000I250000J0D01*
G01*
X119930000Y-28009000D01*
G75*
G02*
X120180000Y-28259000I0J-250000D01*
G01*
G37*
G36*
G01*
X122255000Y-28259000D02*
X122255000Y-29209000D01*
G75*
G02*
X122005000Y-29459000I-250000J0D01*
G01*
X121330000Y-29459000D01*
G75*
G02*
X121080000Y-29209000I0J250000D01*
G01*
X121080000Y-28259000D01*
G75*
G02*
X121330000Y-28009000I250000J0D01*
G01*
X122005000Y-28009000D01*
G75*
G02*
X122255000Y-28259000I0J-250000D01*
G01*
G37*
%TD*%
%TO.C,C24*%
G36*
G01*
X120180000Y-31737000D02*
X120180000Y-32687000D01*
G75*
G02*
X119930000Y-32937000I-250000J0D01*
G01*
X119255000Y-32937000D01*
G75*
G02*
X119005000Y-32687000I0J250000D01*
G01*
X119005000Y-31737000D01*
G75*
G02*
X119255000Y-31487000I250000J0D01*
G01*
X119930000Y-31487000D01*
G75*
G02*
X120180000Y-31737000I0J-250000D01*
G01*
G37*
G36*
G01*
X122255000Y-31737000D02*
X122255000Y-32687000D01*
G75*
G02*
X122005000Y-32937000I-250000J0D01*
G01*
X121330000Y-32937000D01*
G75*
G02*
X121080000Y-32687000I0J250000D01*
G01*
X121080000Y-31737000D01*
G75*
G02*
X121330000Y-31487000I250000J0D01*
G01*
X122005000Y-31487000D01*
G75*
G02*
X122255000Y-31737000I0J-250000D01*
G01*
G37*
%TD*%
%TO.C,C23*%
G36*
G01*
X120180000Y-35215000D02*
X120180000Y-36165000D01*
G75*
G02*
X119930000Y-36415000I-250000J0D01*
G01*
X119255000Y-36415000D01*
G75*
G02*
X119005000Y-36165000I0J250000D01*
G01*
X119005000Y-35215000D01*
G75*
G02*
X119255000Y-34965000I250000J0D01*
G01*
X119930000Y-34965000D01*
G75*
G02*
X120180000Y-35215000I0J-250000D01*
G01*
G37*
G36*
G01*
X122255000Y-35215000D02*
X122255000Y-36165000D01*
G75*
G02*
X122005000Y-36415000I-250000J0D01*
G01*
X121330000Y-36415000D01*
G75*
G02*
X121080000Y-36165000I0J250000D01*
G01*
X121080000Y-35215000D01*
G75*
G02*
X121330000Y-34965000I250000J0D01*
G01*
X122005000Y-34965000D01*
G75*
G02*
X122255000Y-35215000I0J-250000D01*
G01*
G37*
%TD*%
%TO.C,C22*%
G36*
G01*
X127125000Y-29950000D02*
X126175000Y-29950000D01*
G75*
G02*
X125925000Y-29700000I0J250000D01*
G01*
X125925000Y-29025000D01*
G75*
G02*
X126175000Y-28775000I250000J0D01*
G01*
X127125000Y-28775000D01*
G75*
G02*
X127375000Y-29025000I0J-250000D01*
G01*
X127375000Y-29700000D01*
G75*
G02*
X127125000Y-29950000I-250000J0D01*
G01*
G37*
G36*
G01*
X127125000Y-32025000D02*
X126175000Y-32025000D01*
G75*
G02*
X125925000Y-31775000I0J250000D01*
G01*
X125925000Y-31100000D01*
G75*
G02*
X126175000Y-30850000I250000J0D01*
G01*
X127125000Y-30850000D01*
G75*
G02*
X127375000Y-31100000I0J-250000D01*
G01*
X127375000Y-31775000D01*
G75*
G02*
X127125000Y-32025000I-250000J0D01*
G01*
G37*
%TD*%
%TO.C,C21*%
G36*
G01*
X130875000Y-29920000D02*
X129925000Y-29920000D01*
G75*
G02*
X129675000Y-29670000I0J250000D01*
G01*
X129675000Y-28995000D01*
G75*
G02*
X129925000Y-28745000I250000J0D01*
G01*
X130875000Y-28745000D01*
G75*
G02*
X131125000Y-28995000I0J-250000D01*
G01*
X131125000Y-29670000D01*
G75*
G02*
X130875000Y-29920000I-250000J0D01*
G01*
G37*
G36*
G01*
X130875000Y-31995000D02*
X129925000Y-31995000D01*
G75*
G02*
X129675000Y-31745000I0J250000D01*
G01*
X129675000Y-31070000D01*
G75*
G02*
X129925000Y-30820000I250000J0D01*
G01*
X130875000Y-30820000D01*
G75*
G02*
X131125000Y-31070000I0J-250000D01*
G01*
X131125000Y-31745000D01*
G75*
G02*
X130875000Y-31995000I-250000J0D01*
G01*
G37*
%TD*%
%TO.C,C20*%
G36*
G01*
X115012500Y-28425000D02*
X115012500Y-29375000D01*
G75*
G02*
X114762500Y-29625000I-250000J0D01*
G01*
X114087500Y-29625000D01*
G75*
G02*
X113837500Y-29375000I0J250000D01*
G01*
X113837500Y-28425000D01*
G75*
G02*
X114087500Y-28175000I250000J0D01*
G01*
X114762500Y-28175000D01*
G75*
G02*
X115012500Y-28425000I0J-250000D01*
G01*
G37*
G36*
G01*
X117087500Y-28425000D02*
X117087500Y-29375000D01*
G75*
G02*
X116837500Y-29625000I-250000J0D01*
G01*
X116162500Y-29625000D01*
G75*
G02*
X115912500Y-29375000I0J250000D01*
G01*
X115912500Y-28425000D01*
G75*
G02*
X116162500Y-28175000I250000J0D01*
G01*
X116837500Y-28175000D01*
G75*
G02*
X117087500Y-28425000I0J-250000D01*
G01*
G37*
%TD*%
%TO.C,C19*%
G36*
G01*
X115012500Y-31925000D02*
X115012500Y-32875000D01*
G75*
G02*
X114762500Y-33125000I-250000J0D01*
G01*
X114087500Y-33125000D01*
G75*
G02*
X113837500Y-32875000I0J250000D01*
G01*
X113837500Y-31925000D01*
G75*
G02*
X114087500Y-31675000I250000J0D01*
G01*
X114762500Y-31675000D01*
G75*
G02*
X115012500Y-31925000I0J-250000D01*
G01*
G37*
G36*
G01*
X117087500Y-31925000D02*
X117087500Y-32875000D01*
G75*
G02*
X116837500Y-33125000I-250000J0D01*
G01*
X116162500Y-33125000D01*
G75*
G02*
X115912500Y-32875000I0J250000D01*
G01*
X115912500Y-31925000D01*
G75*
G02*
X116162500Y-31675000I250000J0D01*
G01*
X116837500Y-31675000D01*
G75*
G02*
X117087500Y-31925000I0J-250000D01*
G01*
G37*
%TD*%
%TO.C,C18*%
G36*
G01*
X115012500Y-35365000D02*
X115012500Y-36315000D01*
G75*
G02*
X114762500Y-36565000I-250000J0D01*
G01*
X114087500Y-36565000D01*
G75*
G02*
X113837500Y-36315000I0J250000D01*
G01*
X113837500Y-35365000D01*
G75*
G02*
X114087500Y-35115000I250000J0D01*
G01*
X114762500Y-35115000D01*
G75*
G02*
X115012500Y-35365000I0J-250000D01*
G01*
G37*
G36*
G01*
X117087500Y-35365000D02*
X117087500Y-36315000D01*
G75*
G02*
X116837500Y-36565000I-250000J0D01*
G01*
X116162500Y-36565000D01*
G75*
G02*
X115912500Y-36315000I0J250000D01*
G01*
X115912500Y-35365000D01*
G75*
G02*
X116162500Y-35115000I250000J0D01*
G01*
X116837500Y-35115000D01*
G75*
G02*
X117087500Y-35365000I0J-250000D01*
G01*
G37*
%TD*%
%TO.C,C12*%
G36*
G01*
X98340000Y-79515000D02*
X98340000Y-78565000D01*
G75*
G02*
X98590000Y-78315000I250000J0D01*
G01*
X99265000Y-78315000D01*
G75*
G02*
X99515000Y-78565000I0J-250000D01*
G01*
X99515000Y-79515000D01*
G75*
G02*
X99265000Y-79765000I-250000J0D01*
G01*
X98590000Y-79765000D01*
G75*
G02*
X98340000Y-79515000I0J250000D01*
G01*
G37*
G36*
G01*
X96265000Y-79515000D02*
X96265000Y-78565000D01*
G75*
G02*
X96515000Y-78315000I250000J0D01*
G01*
X97190000Y-78315000D01*
G75*
G02*
X97440000Y-78565000I0J-250000D01*
G01*
X97440000Y-79515000D01*
G75*
G02*
X97190000Y-79765000I-250000J0D01*
G01*
X96515000Y-79765000D01*
G75*
G02*
X96265000Y-79515000I0J250000D01*
G01*
G37*
%TD*%
%TO.C,C11*%
G36*
G01*
X91625000Y-70900000D02*
X90675000Y-70900000D01*
G75*
G02*
X90425000Y-70650000I0J250000D01*
G01*
X90425000Y-69975000D01*
G75*
G02*
X90675000Y-69725000I250000J0D01*
G01*
X91625000Y-69725000D01*
G75*
G02*
X91875000Y-69975000I0J-250000D01*
G01*
X91875000Y-70650000D01*
G75*
G02*
X91625000Y-70900000I-250000J0D01*
G01*
G37*
G36*
G01*
X91625000Y-72975000D02*
X90675000Y-72975000D01*
G75*
G02*
X90425000Y-72725000I0J250000D01*
G01*
X90425000Y-72050000D01*
G75*
G02*
X90675000Y-71800000I250000J0D01*
G01*
X91625000Y-71800000D01*
G75*
G02*
X91875000Y-72050000I0J-250000D01*
G01*
X91875000Y-72725000D01*
G75*
G02*
X91625000Y-72975000I-250000J0D01*
G01*
G37*
%TD*%
%TO.C,C10*%
G36*
G01*
X90675000Y-65362500D02*
X91625000Y-65362500D01*
G75*
G02*
X91875000Y-65612500I0J-250000D01*
G01*
X91875000Y-66287500D01*
G75*
G02*
X91625000Y-66537500I-250000J0D01*
G01*
X90675000Y-66537500D01*
G75*
G02*
X90425000Y-66287500I0J250000D01*
G01*
X90425000Y-65612500D01*
G75*
G02*
X90675000Y-65362500I250000J0D01*
G01*
G37*
G36*
G01*
X90675000Y-63287500D02*
X91625000Y-63287500D01*
G75*
G02*
X91875000Y-63537500I0J-250000D01*
G01*
X91875000Y-64212500D01*
G75*
G02*
X91625000Y-64462500I-250000J0D01*
G01*
X90675000Y-64462500D01*
G75*
G02*
X90425000Y-64212500I0J250000D01*
G01*
X90425000Y-63537500D01*
G75*
G02*
X90675000Y-63287500I250000J0D01*
G01*
G37*
%TD*%
%TO.C,C9*%
G36*
G01*
X111550000Y-86025000D02*
X111550000Y-86975000D01*
G75*
G02*
X111300000Y-87225000I-250000J0D01*
G01*
X110625000Y-87225000D01*
G75*
G02*
X110375000Y-86975000I0J250000D01*
G01*
X110375000Y-86025000D01*
G75*
G02*
X110625000Y-85775000I250000J0D01*
G01*
X111300000Y-85775000D01*
G75*
G02*
X111550000Y-86025000I0J-250000D01*
G01*
G37*
G36*
G01*
X113625000Y-86025000D02*
X113625000Y-86975000D01*
G75*
G02*
X113375000Y-87225000I-250000J0D01*
G01*
X112700000Y-87225000D01*
G75*
G02*
X112450000Y-86975000I0J250000D01*
G01*
X112450000Y-86025000D01*
G75*
G02*
X112700000Y-85775000I250000J0D01*
G01*
X113375000Y-85775000D01*
G75*
G02*
X113625000Y-86025000I0J-250000D01*
G01*
G37*
%TD*%
%TO.C,C8*%
G36*
G01*
X101025000Y-78100000D02*
X101975000Y-78100000D01*
G75*
G02*
X102225000Y-78350000I0J-250000D01*
G01*
X102225000Y-79025000D01*
G75*
G02*
X101975000Y-79275000I-250000J0D01*
G01*
X101025000Y-79275000D01*
G75*
G02*
X100775000Y-79025000I0J250000D01*
G01*
X100775000Y-78350000D01*
G75*
G02*
X101025000Y-78100000I250000J0D01*
G01*
G37*
G36*
G01*
X101025000Y-76025000D02*
X101975000Y-76025000D01*
G75*
G02*
X102225000Y-76275000I0J-250000D01*
G01*
X102225000Y-76950000D01*
G75*
G02*
X101975000Y-77200000I-250000J0D01*
G01*
X101025000Y-77200000D01*
G75*
G02*
X100775000Y-76950000I0J250000D01*
G01*
X100775000Y-76275000D01*
G75*
G02*
X101025000Y-76025000I250000J0D01*
G01*
G37*
%TD*%
%TO.C,C7*%
G36*
G01*
X106550000Y-60875000D02*
X106550000Y-59925000D01*
G75*
G02*
X106800000Y-59675000I250000J0D01*
G01*
X107475000Y-59675000D01*
G75*
G02*
X107725000Y-59925000I0J-250000D01*
G01*
X107725000Y-60875000D01*
G75*
G02*
X107475000Y-61125000I-250000J0D01*
G01*
X106800000Y-61125000D01*
G75*
G02*
X106550000Y-60875000I0J250000D01*
G01*
G37*
G36*
G01*
X104475000Y-60875000D02*
X104475000Y-59925000D01*
G75*
G02*
X104725000Y-59675000I250000J0D01*
G01*
X105400000Y-59675000D01*
G75*
G02*
X105650000Y-59925000I0J-250000D01*
G01*
X105650000Y-60875000D01*
G75*
G02*
X105400000Y-61125000I-250000J0D01*
G01*
X104725000Y-61125000D01*
G75*
G02*
X104475000Y-60875000I0J250000D01*
G01*
G37*
%TD*%
%TO.C,C6*%
G36*
G01*
X133700000Y-79425000D02*
X133700000Y-78475000D01*
G75*
G02*
X133950000Y-78225000I250000J0D01*
G01*
X134625000Y-78225000D01*
G75*
G02*
X134875000Y-78475000I0J-250000D01*
G01*
X134875000Y-79425000D01*
G75*
G02*
X134625000Y-79675000I-250000J0D01*
G01*
X133950000Y-79675000D01*
G75*
G02*
X133700000Y-79425000I0J250000D01*
G01*
G37*
G36*
G01*
X131625000Y-79425000D02*
X131625000Y-78475000D01*
G75*
G02*
X131875000Y-78225000I250000J0D01*
G01*
X132550000Y-78225000D01*
G75*
G02*
X132800000Y-78475000I0J-250000D01*
G01*
X132800000Y-79425000D01*
G75*
G02*
X132550000Y-79675000I-250000J0D01*
G01*
X131875000Y-79675000D01*
G75*
G02*
X131625000Y-79425000I0J250000D01*
G01*
G37*
%TD*%
%TO.C,C5*%
G36*
G01*
X120850000Y-83725000D02*
X120850000Y-82775000D01*
G75*
G02*
X121100000Y-82525000I250000J0D01*
G01*
X121775000Y-82525000D01*
G75*
G02*
X122025000Y-82775000I0J-250000D01*
G01*
X122025000Y-83725000D01*
G75*
G02*
X121775000Y-83975000I-250000J0D01*
G01*
X121100000Y-83975000D01*
G75*
G02*
X120850000Y-83725000I0J250000D01*
G01*
G37*
G36*
G01*
X118775000Y-83725000D02*
X118775000Y-82775000D01*
G75*
G02*
X119025000Y-82525000I250000J0D01*
G01*
X119700000Y-82525000D01*
G75*
G02*
X119950000Y-82775000I0J-250000D01*
G01*
X119950000Y-83725000D01*
G75*
G02*
X119700000Y-83975000I-250000J0D01*
G01*
X119025000Y-83975000D01*
G75*
G02*
X118775000Y-83725000I0J250000D01*
G01*
G37*
%TD*%
%TO.C,C4*%
G36*
G01*
X133900000Y-75675000D02*
X133900000Y-74725000D01*
G75*
G02*
X134150000Y-74475000I250000J0D01*
G01*
X134825000Y-74475000D01*
G75*
G02*
X135075000Y-74725000I0J-250000D01*
G01*
X135075000Y-75675000D01*
G75*
G02*
X134825000Y-75925000I-250000J0D01*
G01*
X134150000Y-75925000D01*
G75*
G02*
X133900000Y-75675000I0J250000D01*
G01*
G37*
G36*
G01*
X131825000Y-75675000D02*
X131825000Y-74725000D01*
G75*
G02*
X132075000Y-74475000I250000J0D01*
G01*
X132750000Y-74475000D01*
G75*
G02*
X133000000Y-74725000I0J-250000D01*
G01*
X133000000Y-75675000D01*
G75*
G02*
X132750000Y-75925000I-250000J0D01*
G01*
X132075000Y-75925000D01*
G75*
G02*
X131825000Y-75675000I0J250000D01*
G01*
G37*
%TD*%
%TO.C,C3*%
G36*
G01*
X121000000Y-79725000D02*
X121000000Y-78775000D01*
G75*
G02*
X121250000Y-78525000I250000J0D01*
G01*
X121925000Y-78525000D01*
G75*
G02*
X122175000Y-78775000I0J-250000D01*
G01*
X122175000Y-79725000D01*
G75*
G02*
X121925000Y-79975000I-250000J0D01*
G01*
X121250000Y-79975000D01*
G75*
G02*
X121000000Y-79725000I0J250000D01*
G01*
G37*
G36*
G01*
X118925000Y-79725000D02*
X118925000Y-78775000D01*
G75*
G02*
X119175000Y-78525000I250000J0D01*
G01*
X119850000Y-78525000D01*
G75*
G02*
X120100000Y-78775000I0J-250000D01*
G01*
X120100000Y-79725000D01*
G75*
G02*
X119850000Y-79975000I-250000J0D01*
G01*
X119175000Y-79975000D01*
G75*
G02*
X118925000Y-79725000I0J250000D01*
G01*
G37*
%TD*%
M02*
