M48
; DRILL file {KiCad 5.1.5+dfsg1-2build2} date Thu 08 Apr 2021 10:42:05 AM PDT
; FORMAT={-:-/ absolute / inch / decimal}
; #@! TF.CreationDate,2021-04-08T10:42:05-07:00
; #@! TF.GenerationSoftware,Kicad,Pcbnew,5.1.5+dfsg1-2build2
FMAT,2
INCH
T1C0.0079
T2C0.0157
T3C0.0160
T4C0.0205
T5C0.0276
T6C0.0394
T7C0.1181
%
G90
G05
T1
X4.6079Y-1.3413
X4.6079Y-1.4201
X4.6276Y-1.3413
X4.6276Y-1.4201
X4.6472Y-1.3413
X4.6472Y-1.4201
T2
X3.8798Y-2.5784
X4.7646Y-1.3
X4.8611Y-1.2411
X4.9535Y-2.9007
T3
X3.8693Y-2.2733
X3.9335Y-2.6938
X3.9588Y-2.5327
X3.9593Y-2.4633
X3.9793Y-2.3233
X4.0606Y-1.1516
X4.0606Y-1.187
X4.0606Y-1.2224
X4.0606Y-1.2579
X4.0793Y-2.3233
X4.0961Y-1.1516
X4.0961Y-1.187
X4.0961Y-1.2224
X4.0961Y-1.2579
X4.1Y-1.36
X4.1315Y-1.1516
X4.1315Y-1.187
X4.1315Y-1.2224
X4.1315Y-1.2579
X4.14Y-1.47
X4.1669Y-1.1516
X4.1669Y-1.187
X4.1669Y-1.2224
X4.1669Y-1.2579
X4.2024Y-1.1516
X4.2024Y-1.187
X4.2024Y-1.2224
X4.2024Y-1.2579
X4.2209Y-2.6938
X4.2378Y-1.1516
X4.2378Y-1.187
X4.2378Y-1.2224
X4.2378Y-1.2579
X4.2793Y-2.5933
X4.28Y-1.58
X4.2893Y-2.8064
X4.31Y-1.36
X4.3193Y-2.6733
X4.3213Y-2.6288
X4.3393Y-2.3533
X4.3791Y-1.163
X4.4145Y-2.336
X4.4473Y-2.6249
X4.4521Y-2.8494
X4.4657Y-1.2618
X4.4673Y-1.3264
X4.47Y-1.09
X4.4782Y-2.2743
X4.4979Y-2.8419
X4.5Y-1.5016
X4.502Y-1.4182
X4.5028Y-1.3264
X4.5091Y-1.6335
X4.515Y-1.713
X4.5193Y-2.2743
X4.5331Y-1.2839
X4.5439Y-1.1335
X4.5671Y-1.2031
X4.6093Y-2.7233
X4.6393Y-2.6533
X4.6493Y-2.5633
X4.6646Y-1.1126
X4.6649Y-2.4162
X4.6685Y-1.5109
X4.7059Y-1.4811
X4.71Y-1.28
X4.7293Y-2.2433
X4.7341Y-2.8362
X4.74Y-1.16
X4.7452Y-1.4485
X4.7493Y-2.4162
X4.7793Y-2.4033
X4.7893Y-2.8033
X4.79Y-1.4371
X4.8142Y-1.4829
X4.8156Y-1.664
X4.8236Y-1.1169
X4.8293Y-2.2933
X4.8296Y-2.3847
X4.83Y-1.2
X4.8776Y-1.0236
X4.8776Y-1.0591
X4.8975Y-2.4316
X4.9Y-1.67
X4.9093Y-2.4733
X4.913Y-1.0236
X4.913Y-1.0591
X4.915Y-1.0925
X4.9484Y-1.0591
X4.9504Y-1.0925
X4.9504Y-1.128
X4.9571Y-1.424
X4.964Y-2.7103
X4.9641Y-2.6725
X4.965Y-1.6626
X4.9685Y-1.4614
X4.9693Y-2.4733
X4.9709Y-1.3874
X4.9721Y-2.7397
X4.9858Y-1.0925
X4.9858Y-1.128
X4.9893Y-2.7694
X5.0189Y-2.5764
X5.0193Y-2.8233
X5.0197Y-1.128
X5.0532Y-2.7733
X5.0571Y-1.4425
X5.0611Y-2.519
X5.0641Y-2.8302
X5.0954Y-2.8213
X5.2066Y-2.5706
X5.3364Y-2.1763
X5.3493Y-2.3733
X5.4193Y-2.3633
T4
X4.2135Y-2.479
X4.2135Y-2.5223
T5
X4.6039Y-1.0461
X4.8039Y-1.0461
T6
X5.578Y-2.5768
X5.578Y-2.6752
X4.085Y-2.978
X4.185Y-2.978
X4.285Y-2.978
X4.385Y-2.978
X4.485Y-2.978
X4.585Y-2.978
X4.685Y-2.978
X4.785Y-2.978
X4.885Y-2.978
X3.8109Y-2.2745
X3.8109Y-2.3745
X3.8109Y-2.4745
X3.8109Y-2.5745
X3.8109Y-2.6745
X3.8109Y-2.7745
X3.9793Y-2.2533
X4.0793Y-2.2533
X4.1793Y-2.2533
X4.2793Y-2.2533
X3.9469Y-1.3386
X3.9469Y-1.437
X5.1421Y-1.3291
X5.1421Y-1.4276
T7
X3.6582Y-2.2205
X3.6582Y-3.0315
X3.937Y-1.063
X3.94Y-1.6969
X5.1575Y-1.063
X5.1575Y-1.6969
X5.548Y-2.2205
X5.548Y-3.0315
T0
M30
